<?xml version="1.0" encoding="UTF-8"?>
<svg id="Layer_1" data-name="Layer 1" xmlns="http://www.w3.org/2000/svg" viewBox="0 0 632.16 169.2">
  <defs>
    <style>
      .cls-1 {
        fill: #43bec6;
      }

      .cls-2 {
        fill: #ba443a;
      }

      .cls-3 {
        fill: #FFD85D;
      }

      .cls-4 {
        fill: #b7bc99;
      }

      .cls-5 {
        fill: #8c84ff;
      }

      .cls-6 {
        fill:rgb(96, 212, 90);
      }
    </style>
  </defs>
  <path class="cls-3" d="M348.35,169.2h-123.31c-1.43-10.9-6.71-21.07-15.11-28.16-13.35-11.28-31.94-13.56-47.74-5.99-.7.34-4.11,2.57-4.54,2.26l-26.38-46.15c-6.97-15.27-.22-32.78,12.85-42.22,19.6-11.03,38.7-23.11,58.45-33.88,4.3-2.34,8.68-4.7,13.55-5.63,14.15-2.72,28.64,1.31,37.57,12.88l92.87,143.05,1.79,3.84Z"/>
  <path class="cls-6" d="M545.31,169.2h-35.51c-4.06-23.35-26.21-39.04-49.74-35.43-18.2,2.79-33.1,17.26-36.15,35.43h-66.69c-1.02-3.76-2.94-7.21-4.94-10.52-11.64-19.3-25.58-37.76-37.15-57.08-.28-.47-1.05-1.55-1.07-2-.05-1.21.73-5.24,1.04-6.61,4.2-18.47,22.36-32.69,41.52-31.16l169.73,24.57c17.47,4.64,27.66,22.43,25.18,40.03l-6.24,42.78Z"/>
  <path class="cls-1" d="M9.84,169.2c-11.64-22.42-12.86-49.53-2.99-72.85C25.66,51.9,76.72,31.41,121.32,51.01c2.12.93,4.18,1.99,6.2,3.1,4.06-5.7,8.72-10.09,14.63-13.85,19.77-12.6,41.6-23.24,61.7-35.43,20.05-9.37,45.27-4.44,57.86,14.27l45.75,70.29c6.06-22.26,26.71-37.28,49.91-35.96l167.65,24.25c22.82,3.7,36.56,24.61,35.18,47.05l-6.48,44.46h-8.4l6.24-42.78c2.48-17.6-7.71-35.39-25.18-40.03l-169.73-24.57c-19.16-1.53-37.32,12.69-41.52,31.16-.31,1.37-1.09,5.4-1.04,6.61.02.45.78,1.53,1.07,2,11.56,19.32,25.5,37.78,37.15,57.08,2,3.31,3.92,6.76,4.94,10.52h-8.88l-1.79-3.84L253.68,22.31c-8.93-11.58-23.42-15.6-37.57-12.88-4.87.94-9.25,3.29-13.55,5.63-19.75,10.77-38.85,22.84-58.45,33.88-13.06,9.45-19.82,26.95-12.85,42.22l26.38,46.15c.44.31,3.84-1.92,4.54-2.26,15.8-7.58,34.39-5.3,47.74,5.99,8.4,7.1,13.68,17.27,15.11,28.16h-8.4c-1.29-8.35-5.47-15.84-11.75-21.45-11.73-10.47-29.52-11.69-42.69-3.09-8.24,5.38-14.4,14.71-15.61,24.54h-8.4c.99-7.42,3.6-14.38,7.96-20.45,1.53-2.12,3.38-3.97,4.99-6.03l-26.43-45.98c-4.28-8.44-5.53-17.45-3.69-26.77.57-2.87,1.66-5.58,2.42-8.38-.27-.53-5.72-2.98-6.69-3.4-39.71-17.06-85.19,1.8-102,41.03-9.7,22.65-7.87,48.82,4.67,69.97h-9.6Z"/>
  <path class="cls-5" d="M138.19,169.2H19.43c-12.54-21.15-14.37-47.32-4.67-69.97,16.81-39.23,62.29-58.09,102-41.03.97.42,6.42,2.87,6.69,3.4-.76,2.8-1.85,5.51-2.42,8.38-1.84,9.32-.6,18.33,3.69,26.77l26.43,45.98c-1.61,2.06-3.46,3.9-4.99,6.03-4.36,6.06-6.97,13.03-7.96,20.45ZM110.83,126.18c0-21.9-17.77-39.66-39.7-39.66s-39.7,17.76-39.7,39.66,17.77,39.66,39.7,39.66,39.7-17.76,39.7-39.66Z"/>
  <path class="cls-2" d="M216.64,169.2h-70.05c1.21-9.83,7.38-19.16,15.61-24.54,13.17-8.6,30.96-7.37,42.69,3.09,6.29,5.61,10.46,13.11,11.75,21.45Z"/>
  <path class="cls-2" d="M501.41,169.2h-69.09c1.44-5.53,4.01-11.04,7.79-15.34,14.46-16.41,39.04-16.37,53.51,0,3.83,4.33,6.34,9.77,7.79,15.34Z"/>
  <path class="cls-1" d="M509.81,169.2h-8.4c-1.45-5.57-3.97-11.01-7.79-15.34-14.47-16.37-39.05-16.41-53.51,0-3.79,4.3-6.36,9.81-7.79,15.34h-8.4c3.05-18.17,17.94-32.64,36.15-35.43,23.53-3.61,45.68,12.08,49.74,35.43Z"/>
  <path class="cls-1" d="M631.92,169.2h-12.48c-2.96-2.14-7.02-3.99-10.68-4.31-5.63-.5-10.13-.16-15.28,2.22-1.16.54-2.53,1.3-3.55,2.09h-12.48c10.47-13.44,30.73-16.96,45.32-8.01,3.43,2.1,6.69,4.8,9.14,8.01Z"/>
  <path class="cls-4" d="M619.44,169.2h-29.51c1.02-.78,2.38-1.55,3.55-2.09,5.15-2.38,9.65-2.73,15.28-2.22,3.65.33,7.72,2.17,10.68,4.31Z"/>
  <path class="cls-1" d="M110.83,126.18c0,21.9-17.77,39.66-39.7,39.66s-39.7-17.76-39.7-39.66,17.77-39.66,39.7-39.66,39.7,17.76,39.7,39.66ZM102.48,126.18c0-17.29-14.03-31.31-31.35-31.31s-31.35,14.02-31.35,31.31,14.03,31.31,31.35,31.31,31.35-14.02,31.35-31.31Z"/>
  <ellipse class="cls-2" cx="71.13" cy="126.18" rx="31.35" ry="31.31"/>
</svg>