<?xml version="1.0" encoding="UTF-8"?>
<svg id="Layer_1" data-name="Layer 1" xmlns="http://www.w3.org/2000/svg" viewBox="0 0 533.26 254.73">
  <defs>
    <style>
      .cls-1 {
        fill: #9f9a38;
      }

      .cls-2 {
        fill: #bd3d4d;
      }

      .cls-3 {
        fill: #44bdc4;
      }

      .cls-4 {
        fill: #ad3f97;
      }

      .cls-5 {
        fill: #ba443b;
      }

      .cls-6 {
        fill: #bb443b;
      }
    </style>
  </defs>
  <rect class="cls-4" x="16.84" width="516.1" height=".32"/>
  <path class="cls-2" d="M13.27,254.73c.05-.89-.38-1,.66-.82,1.12.19,1.88.4,2.26-.96l-2.37-.23c-1.37-.36-1.07-3.81-.23-4.31.77-.45,2.61,0,3.57-.16-.33,1.99.85,5.11-.97,6.48h-2.91ZM14.29,248.94c-.36.22-.74,2.88.16,3.17,2.54.83,2.26-4.66-.16-3.17Z"/>
  <path class="cls-2" d="M35.94,254.73c.05-.89-.38-1,.66-.82,1.12.19,1.88.4,2.26-.96l-2.37-.23c-1.37-.36-1.07-3.81-.23-4.31.77-.45,2.61,0,3.57-.16-.33,1.99.85,5.11-.97,6.48h-2.91ZM36.95,248.94c-.36.22-.74,2.88.16,3.17,2.54.83,2.26-4.66-.16-3.17Z"/>
  <path class="cls-2" d="M0,253.43c1.34.04,2.7-.05,4.05,0,.44.02,1.35-.27,1.13.48-.11.39-4.45.05-5.18.17v-.65Z"/>
  <path class="cls-4" d="M533.26,211.68h-.32c0-.97,0-1.94,0-2.91h.32v2.91Z"/>
  <path class="cls-1" d="M532.61.32v208.44h-18.29c-.67,0-.49,2.37-.49,2.91h8.09v22.98h3.24v-22.98h7.45v23.3h-44.03c.46-.51,2.93-.59,3.2-1.01.17-.27-.2-2.45-.3-2.54-.23-.2-4.92.94-5.94.92-13.34-.2-13.26-22.49,1.9-21,.95.09,3.45,1.21,3.88.65.29-.38.7-2.2.45-2.56-.28-.4-5.1-1.03-5.95-1.03-16.13,0-18.76,23.17-3.4,26.56h-70.91c.48-.5,2.94-.61,3.2-1.01.17-.27-.2-2.45-.3-2.54-.23-.2-4.92.94-5.94.92-13.34-.2-13.26-22.49,1.9-21,.95.09,3.45,1.21,3.88.65.29-.38.7-2.2.45-2.56-.28-.4-5.1-1.03-5.95-1.03-16.13,0-18.76,23.17-3.4,26.56H16.84c-.33-1.01.24-3.61,0-4.86,1.3-.46,1.3-4.08,0-4.53v-6.8c1.3-.46,1.3-4.08,0-4.53v-6.8c1.3-.46,1.3-4.08,0-4.53v-6.8c1.3-.46,1.3-4.08,0-4.53v-6.8c1.3-.46,1.3-4.08,0-4.53v-6.8c1.3-.46,1.3-4.08,0-4.53.29-1.95-.4-5.02,0-6.8.36-1.62,2.11-2.51,0-4.86V.32h515.77ZM226.57,13.98c-4.37.64-4.22,10.38-.67,11.2,6.61,1.51,6.54-12.05.67-11.2ZM238.54,13.99c-4.42.85-4.63,12.23,1.52,11.24,3.97-.64,4.21-12.34-1.52-11.24ZM246.72,23.95c1.92-2.08,6.27-6.17,3.42-9.08-2.13-2.17-6.35,0-5.36.99.44.44,2.59-1.63,4.21.16,2.69,2.96-4.56,7.08-4.86,8.43-.07.32.37.8.48.8h6.64c.06,0,.06-1.29,0-1.29h-4.53ZM234.16,24.27c0-.57-.46-1.04-1.04-1.04s-1.04.46-1.04,1.04.46,1.04,1.04,1.04,1.04-.46,1.04-1.04ZM387.72,125.91c2.61.26,5.6-.19,8.26,0,.07.57-.73.31-1.13.32-7.59.32-14.13-.69-19.58,5.67-6.17,7.2-4.64,18.38,3.32,23.53,5.1,3.3,8.08,2.36,13.66,2.18,6.95-.22,13.83-.56,20.72-.97,5.72-.34,10.94.32,15.89-3.51,2.62,3.51,5.98,6.65,10.11,8.3,12.57,3.04,25.23,7.31,37.83,10.09,26.94,5.93,33.77-29.38,11.15-36.39-4.7-1.46-9.94-2.06-14.57-3.88l2.98-5.28c13.7,1.15,27.23-9.34,28.42-23.22.94-10.96-.83-23.11.17-34.14,27.34-24.13-11.8-60.5-34.06-31.71l-81.52,4.21c-11.65,1.24-20.14,10.52-21.82,21.88.8,13.55-1.23,28.63,0,42,.94,10.28,9.8,19.87,20.19,20.92ZM362.86,28.23c-4.9,1.12-3.15,14.6,2.85,10.61,2.93-1.95,3.01-11.95-2.85-10.61ZM374.84,28.23c-3.38.77-3.58,9.93.08,11.11,6.12,1.97,7.05-12.74-.08-11.11ZM385.94,33.02c.87-.01,1.54-1.41,1.62-2.14.38-3.8-5.91-2.91-6.15-1.91-.39,1.66,3.56-.5,4.37,1.13.97,1.94-1.44,2.91-3.08,2.59v1.29c6.06-.45,4.01,6.29-1.29,3.56l-.33,1.29c4.8,2.34,9.8-1.9,4.86-5.82ZM324.1,142.41c1.16-.91,3.1-4.18,4.21-4.68.86-.39,2.05-.06,3.03-.21,9.44-1.41,16.92-6.72,20.66-15.6,5.33-12.66,7.97-29.17,11.92-42.46.32-11.6-5.36-20.39-16.34-24.12-28.38-9.63-58.95-15.85-87.57-25.09-12.65-2.54-25.54,5.32-29.57,17.41-3.32,19.98-24.07,51.65-.53,66.09,6.26,3.84,14.5,4.27,21.47,6.3l1.17,4.57c-5.77.83-12.82-.46-18.15,2.09-12.45,5.95-11.31,24.56,1.64,29.14,5.43,1.92,18.17.12,24.42-.17,5.38-.24,10.77-.28,16.15-.65,2,3.79,4.64,7.3,8.42,9.45,11.93,5.1,24.37,14.55,36.26,19.1,21.64,8.27,36.77-22.25,15.98-34.42-4.22-2.47-8.87-4.4-13.17-6.75ZM93.09,121.38c6.22.58,13.28-.43,19.59,0,.07.57-.73.31-1.13.32-7.5.31-13.96-.69-19.43,5.5-7.21,8.15-4.08,21.5,6.15,25.26,4.14,1.52,6.61.76,10.68.63,5.72-.18,11.42-.41,17.13-.59.87,1.53,1.17,3.31,2.09,5.03,4.69,8.74,15.04,12.05,24.19,8.53,12.09-4.65,24.19-12.3,36.42-17,9.06-5.14,11.76-16.71,7.5-25.96-.35-.77-2.42-3.34-1.98-3.96,9.22-3.63,15.11-12.72,15.86-22.51-1.84-14.41,3.67-39.38-3.08-51.97-8.87-16.53-25.71-12.37-41.11-11.63-12.32.59-24.61,1.27-36.91,1.94-11.16.61-23.33.43-34.33,1.61-13.94,1.49-21.97,13.46-23.15,26.7-.38,4.23.66,6.88.98,10.66.94,11.26-2.45,25.51,3.17,35.67,3.4,6.15,10.27,11.1,17.38,11.76ZM371.02,38.35c0-.61-.5-1.11-1.11-1.11s-1.11.49-1.11,1.11.5,1.11,1.11,1.11,1.11-.49,1.11-1.11ZM27.84,155.36h-.97s0,2.26,0,2.26c-2.22-1.12-4.25.96-3.31,3.15s2.57.9,4.29,1.38v-6.8ZM38.53,155.69c-.55-.49-1.45.42-.97.97.31.35,1.31-.66.97-.97ZM32.7,159.89c.22-4.27-5.04-2.92-3.82,1.07.58,1.9,4.46,1.16,3.5.22-.13-.12-2.92.98-2.59-1.29h2.91ZM36.26,158.27c-.45-2.29-3.61-.36-2.44,1.31.2.28,4.44,2.21-.15,1.6v.97c.72,0,2.17.12,2.61-.54,1.22-1.85-1.57-2.33-1.65-2.53-.46-1.14.86-.79,1.62-.81ZM38.21,157.3h-.65v4.86h.65v-4.86ZM43.71,157.3c-2.32.26-4.39-.53-4.24,2.76s3.11,1.61,3.27,1.78c1.05,1.14-2.22,1.62-2.91,1.3.01,1.91,3.88.85,3.88-.49v-5.34ZM45,157.3c-.18.21.13,4.12,0,4.86,1.84.04.39-3.12,1.27-3.75,2.32-1.64,1.46,3.57,1.64,3.75h.97c-.13-1.39.56-4-.98-4.7-1.16-.52-1.44.29-2.1.49-.1.03-.26-1.29-.8-.65ZM99.63,161.58c-4.9,1.12-3.15,14.6,2.85,10.61,2.93-1.95,3.01-11.95-2.85-10.61ZM111.61,161.58c-3.38.77-3.58,9.93.08,11.11,6.12,1.97,7.05-12.74-.08-11.11ZM122.71,161.51c-2.54-.57-6.21,3.42-1.62,1.62v9.39h1.62v-11ZM18.46,162.8v.32h4.53v-.32h-4.53ZM69.61,166.69h-.97s0,2.59,0,2.59c-2.33-1.17-4.18.47-3.41,2.93.66,2.12,2.79.86,4.39,1.28v-6.8ZM58.6,167.66c-.45-.5-1.3,1.53-1.3,1.78,0,.19.59.12.66.38.43,1.64-1.12,4.17,1.94,3.67.28-1.04-.83-.46-1.15-.94-.2-.3-.25-2.84-.15-2.94.06-.06,2.26.14,1.3-.64-.09-.08-.81.12-1.14-.33-.22-.29-.1-.91-.16-.97ZM27.52,173.49v-4.53c-.75-.04-.58-.12-.65.48s.03,3.05-.36,3.37c-.19.15-1.4.15-1.62-.15-.56-.76-.14-3.55-.29-3.7h-.97c-.18,2.63-.22,6.09,3.23,3.89l.66.64ZM28.82,168.95v4.53h.97c-.67-5.25,2.87-5.14,2.27,0h.97c.22-3.91-.26-4.83-4.21-4.53ZM37.88,171.54c.12-.84-.32-2.26-1.2-2.52-3.52-1.08-3.76,3.82-1.82,4.41.44.13,3.09.46,2.69-.58-1.17.04-2.82.28-2.91-1.29h3.24ZM39.44,169.03c-1.96-1.18.05,1.75.07,2.05.07.84-2.76,4.62.96.79.13.9.49,1.84,1.62,1.62.06-.96-1.02-1.41-.98-2.4.03-.68,1.26-1.87.97-2.13-.69-.63-1.36.96-1.46.98-1.08.18-.95-.76-1.19-.9ZM43.06,168.95v6.47h.97s0-2.27,0-2.27c2.33,1.17,4.18-.47,3.41-2.93-.66-2.12-2.79-.86-4.39-1.28ZM52.45,171.54c.12-.84-.32-2.26-1.2-2.52-3.52-1.08-3.76,3.82-1.82,4.41.44.13,3.09.46,2.69-.58-1.17.04-2.82.28-2.91-1.29h3.24ZM56.66,168.96c-4.94-1.01-4.95,5.54,0,4.53.23-1.22-1.28-.26-2.13-.94-.68-.53-.67-2.13,0-2.65.86-.67,2.37.28,2.13-.94ZM64.43,171.55c.03-.87.21-2.2-.88-2.52-3.55-1.07-3.9,3.8-1.81,4.4.49.14,2.74.46,2.36-.58-.54.29-3.57-.27-2.59-1.29.12-.12,2.4.09,2.92,0ZM107.79,171.7c0-.61-.5-1.11-1.11-1.11s-1.11.49-1.11,1.11.5,1.11,1.11,1.11,1.11-.49,1.11-1.11ZM18.46,174.13v.65h4.53v-.65h-4.53ZM54.39,178.02h-.97s0,2.59,0,2.59c-2.33-1.17-4.18.47-3.41,2.93.66,2.12,2.79.86,4.39,1.28v-6.8ZM24.61,178.34c-.31-.35-1.32.66-.97.97.55.49,1.46-.41.97-.97ZM41.12,178.34c-.31-.35-1.32.66-.97.97.55.49,1.46-.41.97-.97ZM24.61,180.28h-.97v4.53h.97v-4.53ZM25.9,180.28v4.53h.97c.14-.82-.32-3.3.3-3.75,2.32-1.64,1.46,3.57,1.64,3.75h.97c-.08-1.05.34-3.79-.64-4.38-.89-.53-2.23.37-3.24-.16ZM33.67,180.28c-1.5-.25-3.42.03-2.43,1.95.23.45,2.63,1.1,1.79,1.93-.27.27-2.3-.59-1.94.65,1.32.31,3.69-.21,2.76-1.95-.41-.77-2.46-.61-1.63-1.94l1.45-.64ZM34.97,180.28v6.47c1.28.35.35-1.91.65-2.26,1.84.65,3.5.47,3.59-1.77.15-3.71-3.87-2.2-3.27-1.79,3.65-.97,3.05,4.44.32,3.08-1.58-.79.7-3.53-1.29-3.72ZM41.12,180.28h-.97v4.53h.97v-4.53ZM42.41,180.28v4.53h.97c.15-.14-.17-2.37.05-3.02s1.27-.58,1.25-1.34l-2.27-.17ZM49.21,182.87c.12-.84-.32-2.26-1.2-2.52-3.52-1.08-3.76,3.82-1.82,4.41.44.13,3.09.46,2.69-.58-1.17.04-2.82.28-2.91-1.29h3.24ZM18.46,185.46v.65h4.53v-.65h-4.53ZM26.87,189.35v6.8h.97c.14-.82-.32-3.3.3-3.75,2.32-1.64,1.46,3.57,1.64,3.75h.97c-.11-1.09.34-3.41-.48-4.22-.66-.65-2.29-.16-2.44-.31-.17-.18.49-2.49-.97-2.27ZM48.57,189.35v6.8h.65v-6.8h-.65ZM50.83,189.35v6.8h.65v-6.8h-.65ZM33.02,189.67c-.31-.35-1.32.66-.97.97.55.49,1.46-.41.97-.97ZM38.85,189.67c-.31-.35-1.32.66-.97.97.55.49,1.46-.41.97-.97ZM24.6,190.32c-.45-.5-1.3,1.53-1.3,1.78,0,.19.59.12.66.38.43,1.64-1.12,4.17,1.94,3.67.28-1.04-.83-.46-1.15-.94-.2-.3-.25-2.84-.15-2.94.06-.06,2.26.14,1.3-.64-.09-.08-.81.12-1.14-.33-.22-.29-.1-.91-.16-.97ZM58.6,190.31c-.05-.06-.71.04-.97,0,.41,1.39-.58,1.24-.63,1.31-.5.67.57.58.63.84.41,1.54-.98,4.28,1.94,3.67.33-1.07-.88-.37-.99-.82-.06-.24-.06-2.68,0-2.88.12-.41.84.03,1-.34.32-.76-.81-.35-.94-.5-.19-.22.08-1.16-.03-1.28ZM69.93,190.32c-.45-.5-1.3,1.53-1.3,1.78,0,.19.59.12.66.38.43,1.64-1.12,4.17,1.94,3.67.28-1.04-.83-.46-1.15-.94-.2-.3-.25-2.84-.15-2.94.06-.06,2.26.14,1.3-.64-.09-.08-.81.12-1.14-.33-.22-.29-.1-.91-.16-.97ZM33.03,191.61h-.97v4.53h.97v-4.53ZM36.91,191.61c-1.42-.34-3.8.29-2.61,2.05.41.61,2.03.41,1.64,1.84-.27.27-2.3-.59-1.94.65,1.56.08,3.78.17,2.75-1.94-.31-.63-2.61-1.08-1.78-1.94.26-.27,2.31.59,1.94-.65ZM38.85,191.61h-.97v4.53h.97v-4.53ZM42.74,191.61c-1.5-.25-3.42.03-2.43,1.95.23.45,2.63,1.1,1.79,1.93-.27.27-2.3-.59-1.94.65,1.32.31,3.69-.21,2.76-1.95-.41-.77-2.46-.61-1.63-1.94l1.45-.64ZM47.27,196.14c.04-2.94.57-5.16-3.24-4.53-.22,1.41,2.41-.14,2.26,1.61-4.18.4-3.28,3.86.97,2.92ZM56.34,196.14c.04-2.94.57-5.16-3.24-4.53-.22,1.41,2.41-.14,2.26,1.61-4.18.4-3.28,3.86.97,2.92ZM64.43,194.2c.12-.84-.32-2.26-1.2-2.52-3.52-1.08-3.76,3.82-1.82,4.41.44.13,3.09.46,2.69-.58-1.17.04-2.82.28-2.91-1.29h3.24ZM67.99,191.61c-1.42-.34-3.8.29-2.61,2.05.41.61,2.03.41,1.64,1.84-.27.27-2.3-.59-1.94.65,1.56.08,3.78.17,2.75-1.94-.31-.63-2.61-1.08-1.78-1.94.26-.27,2.31.59,1.94-.65ZM18.46,196.79v.65h4.53v-.65h-4.53ZM34.64,200.68c-2.08-.25-1.81,1.08-2.37,2.17-.04.08-.98.1-.52.73.03.04.56-.08.64.22.17.63-.19,3.5,0,3.68h.97c.45-.43-.94-4.56.97-3.89.03-1.26-1.44.04-.97-1.94,1.1,0,1.5.31,1.3-.97ZM41.12,200.67h-.97v6.8h.97v-6.8ZM42.41,200.67v6.8h.97v-6.8h-.97ZM44.68,200.67v6.8c1.93-.38,4.12.82,4.24-2.1.1-2.43-1.55-2.85-3.59-2.11-.09-.11.27-3.8-.65-2.59ZM67.02,200.67h-.97s0,2.59,0,2.59c-2.33-1.17-4.18.47-3.41,2.93.66,2.12,2.79.86,4.39,1.28v-6.8ZM74.47,200.67c-1.31-.34-.33,2.21-.65,2.59-1.84-.65-3.5-.47-3.59,1.77-.15,3.71,3.87,2.2,3.27,1.79-3.65.97-3.05-4.44-.32-3.08,1.6.8-.62,3.58,1.29,3.72v-6.8ZM69.27,201.64c0-.35-.28-.63-.63-.63s-.63.28-.63.63.28.63.63.63.63-.28.63-.63ZM97.13,205.85c.42.5,2.22-2.77,2.27-3.1.28-1.9-2.44-2.24-2.91-1.27-.43.88,1.77.12,1.94.97.13.66-1.8,2.28-1.29,3.39ZM86.77,201.64c-.05-.06-.71.04-.97,0,.41,1.39-.58,1.24-.63,1.31-.5.67.57.58.63.84.41,1.54-.98,4.28,1.94,3.67.33-1.07-.88-.37-.99-.82-.06-.24-.06-2.68,0-2.88.12-.41.84.03,1-.34.32-.76-.81-.35-.94-.5-.19-.22.08-1.16-.03-1.28ZM89.68,201.64c-.45-.5-1.3,1.53-1.3,1.78,0,.19.59.12.66.38.43,1.64-1.12,4.17,1.94,3.67.28-1.04-.83-.46-1.15-.94-.2-.3-.25-2.84-.15-2.94.06-.06,2.26.14,1.3-.64-.09-.08-.81.12-1.14-.33-.22-.29-.1-.91-.16-.97ZM28,205.21c0-1.31-1.06-2.37-2.37-2.37s-2.37,1.06-2.37,2.37,1.06,2.37,2.37,2.37,2.37-1.06,2.37-2.37ZM28.82,202.94v4.53h.97c.15-.14-.17-2.37.05-3.02s1.27-.58,1.25-1.34l-2.27-.17ZM38.85,207.47v-4.53c-.75-.04-.58-.12-.65.48s.03,3.05-.36,3.37c-.19.15-1.4.15-1.62-.15-.56-.76-.14-3.55-.29-3.7h-.97c-.18,2.63-.22,6.09,3.23,3.89l.66.64ZM50.19,202.94v4.53c.77.04.57.11.64-.48.2-1.62-.39-3.08,1.62-3.57.01-1.31-1.5.23-1.61.16l-.65-.64ZM56.34,207.47c-.03-2.71.8-5.1-2.91-4.53-.37,1.24,1.69.38,1.94.65.53,1.64-2.14.72-2.55,2.17-.63,2.21,2.31,1.53,3.52,1.72ZM57.63,202.94v4.53h.97c-.67-5.25,2.87-5.14,2.27,0h.97c.22-3.91-.26-4.83-4.21-4.53ZM68.32,202.94v4.53h.65v-4.53h-.65ZM79.65,205.53c.12-.84-.32-2.26-1.2-2.52-3.52-1.08-3.76,3.82-1.82,4.41.44.13,3.09.46,2.69-.58-1.17.04-2.82.28-2.91-1.29h3.24ZM80.62,202.94v4.53h.97c.14-.82-.32-3.3.3-3.75,2.32-1.64,1.46,3.57,1.64,3.75h.97c-.08-1.05.34-3.79-.64-4.38-.89-.53-2.23.37-3.24-.16ZM92.57,202.97c-.29-.19-1.05-.23-.94.46.2,1.3,1.58,2.72,1.31,4.2-.18,1-1.4.76-1.31,1.78,2.08.85,4.15-6.17,3.88-6.47-.05-.05-.53-.06-.65.16l-1.29,3.08c-.17-.48-.87-3.11-1.01-3.21ZM97.13,206.5v.97s.97,0,.97,0v-.97s-.97,0-.97,0ZM18.46,208.12v.65h4.53v-.65h-4.53ZM430.27,208.8l-4.21.17-8.71,25.69c.65-.13,3.26.2,3.53-.03.32-.27,1.99-7.5,2.61-7.91h9.09c.62.41,2.29,7.64,2.61,7.91.27.23,2.88-.09,3.53.03l-8.45-25.86ZM454.91,229.48l-6.63-20.4c-.57-.68-3.36-.18-4.36-.3l-1.96,25.87h3.24s1.46-21.69,1.46-21.69l7.43,21.71c.83-.09,1.99.32,2.38-.57l7.67-21.47,1.13,22.01h3.24s-1.62-25.89-1.62-25.89c-1,.16-3.8-.38-4.37.32-2.74,6.48-4.51,13.35-6.92,19.94-.12.33-.21,1.01-.68.45ZM506.98,208.82l-4.12-.02-8.45,25.86c.87-.13,2.85.35,3.41-.32.7-.84,2.13-7.51,2.47-7.73,1.29.08,9.05-.33,9.38.15.48.97,2.25,7.63,2.6,7.85.46.29,2.76-.11,3.52.04l-8.79-25.84ZM29.14,212v6.8h.97c.14-.82-.32-3.3.3-3.75,2.32-1.64,1.46,3.57,1.64,3.75h.97c-.11-1.09.34-3.41-.48-4.22-.66-.65-2.29-.16-2.44-.31-.17-.18.49-2.49-.97-2.27ZM37.23,212h-.65v6.8h.65v-6.8ZM58.28,212v6.8h.97c.14-.82-.32-3.3.3-3.75,2.32-1.64,1.46,3.57,1.64,3.75h.97c-.11-1.09.34-3.41-.48-4.22-.66-.65-2.29-.16-2.44-.31-.17-.18.49-2.49-.97-2.27ZM87.74,212h-.65v6.8h.65v-6.8ZM35.27,212.97c0-.35-.28-.63-.63-.63s-.63.28-.63.63.28.63.63.63.63-.28.63-.63ZM98.43,212.33c-.31-.35-1.32.66-.97.97.55.49,1.46-.41.97-.97ZM95.51,212.97c-.05-.06-.71.04-.97,0,.41,1.39-.58,1.24-.63,1.31-.5.67.57.58.63.84.41,1.54-.98,4.28,1.94,3.67.33-1.07-.88-.37-.99-.82-.06-.24-.06-2.68,0-2.88.12-.41.84.03,1-.34.32-.76-.81-.35-.94-.5-.19-.22.08-1.16-.03-1.28ZM23.64,214.27v6.47h.97s0-2.27,0-2.27c2.33,1.17,4.18-.47,3.41-2.93-.66-2.12-2.79-.86-4.39-1.28ZM34.97,214.27h-.65v4.53h.65v-4.53ZM43.11,216.53c0-1.31-1.06-2.37-2.37-2.37s-2.37,1.06-2.37,2.37,1.06,2.37,2.37,2.37,2.37-1.06,2.37-2.37ZM46.62,214.27c-1.42-.34-3.8.29-2.61,2.05.41.61,2.03.41,1.64,1.84-.27.27-2.3-.59-1.94.65,1.56.08,3.78.17,2.75-1.94-.31-.63-2.61-1.08-1.78-1.94.26-.27,2.31.59,1.94-.65ZM51.96,216.54c0-1.31-1.06-2.37-2.37-2.37s-2.37,1.06-2.37,2.37,1.06,2.37,2.37,2.37,2.37-1.06,2.37-2.37ZM52.78,214.27v6.47h.97s0-2.27,0-2.27c2.33,1.17,4.18-.47,3.41-2.93-.66-2.12-2.79-.86-4.39-1.28ZM64.76,217.18c-.03-.53-.95-3.85-1.95-2.91-.24.23,1.64,3.59,1.6,4.38-.04.71-1.72,1.68-1.28,2.09,1.4,1.27,4.18-6.2,3.88-6.47-1.2-1.1-1.39,2.87-2.26,2.91ZM76.41,216.86c.12-.84-.32-2.26-1.2-2.52-3.52-1.08-3.76,3.82-1.82,4.41.44.13,3.09.46,2.69-.58-1.17.04-2.82.28-2.91-1.29h3.24ZM78.68,217.18c-.12-.12-.83-3.83-1.62-2.91-.18.21,1.14,4.36,1.34,4.48.16.1.89.12,1.07.06.23-.07,1.63-4.37,1.47-4.55-.74-.82-1.51,2.28-1.59,2.46-.13.29-.13.98-.67.45ZM85.96,216.54c0-1.31-1.06-2.37-2.37-2.37s-2.37,1.06-2.37,2.37,1.06,2.37,2.37,2.37,2.37-1.06,2.37-2.37ZM92.92,218.8v-4.53c-.75-.04-.58-.12-.65.48s.03,3.05-.36,3.37c-.19.15-1.4.15-1.62-.15-.56-.76-.14-3.55-.29-3.7h-.97c-.18,2.63-.22,6.09,3.23,3.89l.66.64ZM98.43,214.27h-.97v4.53h.97v-4.53ZM104.09,216.54c0-1.31-1.06-2.37-2.37-2.37s-2.37,1.06-2.37,2.37,1.06,2.37,2.37,2.37,2.37-1.06,2.37-2.37ZM104.9,214.27v4.53h.97c-.67-5.25,2.87-5.14,2.27,0h.97c.22-3.91-.26-4.83-4.21-4.53ZM18.46,219.45v.65h4.53v-.65h-4.53ZM71.88,219.45h-4.53v.65h4.53v-.65ZM26.22,223.33c-.19-.19-1.64.15-1.94.48-.08.09-.85,1.89-.86,2-.05.43.38,4.15.55,4.31.47.45.59-.03.64-.48.21-1.62-.84-3.95,1.29-3.41.03-1.26-1.44.04-.97-1.94.71.33,1.95-.3,1.3-.97ZM42.41,223.33v6.8h.97c-.67-5.25,2.87-5.14,2.27,0h.97c.17-2.4,0-5.65-3.23-4.21v-2.59s-.97,0-.97,0ZM77.71,223.33v6.8h.97v-6.8h-.97ZM40.14,224.3c-.45-.5-1.3,1.53-1.3,1.78,0,.19.59.12.66.38.43,1.64-1.12,4.17,1.94,3.67.28-1.04-.83-.46-1.15-.94-.2-.3-.25-2.84-.15-2.94.06-.06,2.26.14,1.3-.64-.09-.08-.81.12-1.14-.33-.22-.29-.1-.91-.16-.97ZM30.59,227.87c0-1.31-1.06-2.37-2.37-2.37s-2.37,1.06-2.37,2.37,1.06,2.37,2.37,2.37,2.37-1.06,2.37-2.37ZM31.41,225.6v4.53h.97c.15-.14-.17-2.37.05-3.02s1.27-.58,1.25-1.34l-2.27-.17ZM51.48,228.18c.12-.84-.32-2.26-1.2-2.52-3.52-1.08-3.76,3.82-1.82,4.41.44.13,3.09.46,2.69-.58-1.17.04-2.82.28-2.91-1.29h3.24ZM57.31,225.6v6.47c1.28.35.35-1.91.65-2.26,1.84.65,3.5.47,3.59-1.77.15-3.71-3.87-2.2-3.27-1.79,3.65-.97,3.05,4.44.32,3.08-1.58-.79.7-3.53-1.29-3.72ZM66.37,228.18c.12-.84-.32-2.26-1.2-2.52-3.52-1.08-3.76,3.82-1.82,4.41.44.13,3.09.46,2.69-.58-1.17.04-2.82.28-2.91-1.29h3.24ZM71.6,227.86c0-1.31-1.06-2.37-2.37-2.37s-2.37,1.06-2.37,2.37,1.06,2.37,2.37,2.37,2.37-1.06,2.37-2.37ZM72.53,225.6v6.47c1.28.35.35-1.91.65-2.26,1.84.65,3.5.47,3.59-1.77.15-3.71-3.87-2.2-3.27-1.79,3.65-.97,3.05,4.44.32,3.08-1.58-.79.7-3.53-1.29-3.72ZM83.86,228.18c.12-.84-.32-2.26-1.2-2.52-3.52-1.08-3.76,3.82-1.82,4.41.44.13,3.09.46,2.69-.58-1.17.04-2.82.28-2.91-1.29h3.24ZM18.46,230.78v.65h4.53v-.65h-4.53ZM38.53,230.78h-4.53v.65h4.53v-.65ZM56.34,230.78h-4.53v.65h4.53v-.65Z"/>
  <path class="cls-2" d="M532.93,208.77c0,.97,0,1.94,0,2.91,0,7.87,0,15.76,0,23.63-14.78,0-29.58-.01-44.36,0v-.32h44.03v-23.3h-7.45v22.98h-3.24v-22.98h-8.09c0-.54-.19-2.91.49-2.91h18.29V.32h.32c-.04,69.47.06,138.97,0,208.44Z"/>
  <path class="cls-2" d="M405.37,234.98v.32H79.32v6.15c-1.61-.52-3.88.93-4.18-1.48-.32-2.57.71-3.33,3.21-3.05v-1.62h-20.08v1.62c2.69-.27,3.68.18,3.21,3.05-.37,2.31-2.4,1.29-4.19,1.48v-6.15h-13.92v1.62c3.72-.67,3.26,1.67,3.24,4.53h-.97c.6-5.13-2.94-5.26-2.27,0h-.97v-6.15c-2.18.23-16.76-.43-17.46.35-.07.07-.06,1.13.02,1.24.16.2,1.29-.32.93.68-.31.06-1.2-.09-1.3,0-.14.13.11,3.27,0,3.89h-.97c-.18-.17.17-3.04,0-3.68-.07-.25-1.1-.18-.65-.85.06-.09,1.36-.32.96-1.62-.24-.23-5.6.14-6.65,0-.33-.04-.36,0-.47-.33h388.53ZM60.5,240.44c.67-1.08-.48-3.77-1.92-2.73-.44.32-.45,2.36-.16,2.79.36.54,1.9.22,2.07-.07ZM76.96,237.62c-1.57.44-1.05,3.78.87,3.16.79-.26,1.15-3.73-.87-3.16Z"/>
  <path class="cls-5" d="M405.37,234.98c-15.36-3.39-12.73-26.56,3.4-26.56.85,0,5.67.63,5.95,1.03.25.35-.16,2.18-.45,2.56-.43.56-2.93-.55-3.88-.65-15.17-1.48-15.24,20.8-1.9,21,1.02.02,5.71-1.12,5.94-.92.1.08.47,2.27.3,2.54-.26.4-2.72.51-3.2,1.01v.32c-2.05,0-4.11,0-6.15,0v-.32Z"/>
  <path class="cls-5" d="M482.43,234.98c-15.36-3.39-12.73-26.56,3.4-26.56.85,0,5.67.63,5.95,1.03.25.35-.16,2.18-.45,2.56-.43.56-2.93-.55-3.88-.65-15.17-1.48-15.24,20.8-1.9,21,1.02.02,5.71-1.12,5.94-.92.1.08.47,2.27.3,2.54-.27.42-2.74.5-3.2,1.01v.32c-2.05,0-4.11,0-6.15,0v-.32Z"/>
  <path class="cls-2" d="M482.43,234.98v.32c-23.63.01-47.28,0-70.91,0v-.32h70.91Z"/>
  <path class="cls-2" d="M12.63,230.61c-.38,1.76-2.75,2.05-4.21,1.45.08-1.9,2.73.48,2.91-1.94-3.17,1.42-4.55-3.52-1.85-4.62.47-.19,3.15-.22,3.15.25,0,1.29.23,3.78,0,4.86ZM9.94,226.29c-1.15.32-1.23,2.53-.23,3.03,2.34,1.19,2.64-3.71.23-3.03Z"/>
  <path class="cls-2" d="M12.63,196.63c-.38,1.76-2.75,2.05-4.21,1.45.08-1.9,2.73.48,2.91-1.94-3.17,1.42-4.55-3.52-1.85-4.62.47-.19,3.15-.22,3.15.25,0,1.29.23,3.78,0,4.86ZM9.94,192.31c-1.15.32-1.23,2.53-.23,3.03,2.34,1.19,2.64-3.71.23-3.03Z"/>
  <path class="cls-2" d="M12.63,219.29c-.38,1.76-2.75,2.05-4.21,1.45.08-1.9,2.73.48,2.91-1.94-3.17,1.42-4.55-3.52-1.85-4.62.47-.19,3.15-.22,3.15.25,0,1.29.23,3.78,0,4.86ZM9.94,214.96c-1.15.32-1.23,2.53-.23,3.03,2.34,1.19,2.64-3.71.23-3.03Z"/>
  <path class="cls-2" d="M12.63,207.96c-.38,1.76-2.75,2.05-4.21,1.45.08-1.9,2.73.48,2.91-1.94-3.17,1.42-4.55-3.52-1.85-4.62.47-.19,3.15-.22,3.15.25,0,1.29.23,3.78,0,4.86ZM9.94,203.63c-1.15.32-1.23,2.53-.23,3.03,2.34,1.19,2.64-3.71.23-3.03Z"/>
  <path class="cls-2" d="M12.63,241.94c-.38,1.76-2.75,2.05-4.21,1.45.08-1.9,2.73.48,2.91-1.94-3.17,1.42-4.55-3.52-1.85-4.62.47-.19,3.15-.22,3.15.25,0,1.29.23,3.78,0,4.86ZM9.94,237.62c-1.15.32-1.23,2.53-.23,3.03,2.34,1.19,2.64-3.71.23-3.03Z"/>
  <path class="cls-2" d="M12.63,185.3c-.38,1.76-2.75,2.05-4.21,1.45.08-1.9,2.73.48,2.91-1.94-3.17,1.42-4.55-3.52-1.85-4.62.47-.19,3.15-.22,3.15.25,0,1.29.23,3.78,0,4.86ZM9.94,180.98c-1.15.32-1.23,2.53-.23,3.03,2.34,1.19,2.64-3.71.23-3.03Z"/>
  <path class="cls-2" d="M12.63,173.97c-.38,1.76-2.75,2.05-4.21,1.45.08-1.9,2.73.48,2.91-1.94-3.17,1.42-4.55-3.52-1.85-4.62.47-.19,3.15-.22,3.15.25,0,1.29.23,3.78,0,4.86ZM9.94,169.65c-1.15.32-1.23,2.53-.23,3.03,2.34,1.19,2.64-3.71.23-3.03Z"/>
  <path class="cls-2" d="M12.63,157.3v5.02c0,1.8-3.94,2.77-4.21.81.7.27,3.91-.06,2.91-1.3-.11-.14-2.38,1.2-3.09-.95-1.2-3.64,1.81-3.6,4.39-3.58ZM11.25,158.35c-1.91-1.96-3.41,3.25-.78,3.06,1.35-.09,1.5-2.32.78-3.06Z"/>
  <path class="cls-2" d="M7.77,227.86c0,1.37-1.11,2.49-2.49,2.49s-2.49-1.11-2.49-2.49,1.11-2.49,2.49-2.49,2.49,1.11,2.49,2.49ZM4.75,226.28c-1.22.39-1.14,3.39.58,3.22,1.88-.19,1.44-3.86-.58-3.22Z"/>
  <path class="cls-2" d="M7.77,171.22c0,1.37-1.11,2.49-2.49,2.49s-2.49-1.11-2.49-2.49,1.11-2.49,2.49-2.49,2.49,1.11,2.49,2.49ZM4.75,169.64c-1.22.39-1.14,3.39.58,3.22,1.88-.19,1.44-3.86-.58-3.22Z"/>
  <path class="cls-2" d="M7.77,216.53c0,1.37-1.11,2.49-2.49,2.49s-2.49-1.11-2.49-2.49,1.11-2.49,2.49-2.49,2.49,1.11,2.49,2.49ZM4.75,214.95c-1.22.39-1.14,3.39.58,3.22,1.88-.19,1.44-3.86-.58-3.22Z"/>
  <path class="cls-2" d="M7.77,239.19c0,1.37-1.11,2.49-2.49,2.49s-2.49-1.11-2.49-2.49,1.11-2.49,2.49-2.49,2.49,1.11,2.49,2.49ZM4.75,237.61c-1.22.39-1.14,3.39.58,3.22,1.88-.19,1.44-3.86-.58-3.22Z"/>
  <path class="cls-2" d="M18.13,239.19c0,1.37-1.11,2.49-2.49,2.49s-2.49-1.11-2.49-2.49,1.11-2.49,2.49-2.49,2.49,1.11,2.49,2.49ZM15.11,237.61c-1.22.39-1.14,3.39.58,3.22,1.88-.19,1.44-3.86-.58-3.22Z"/>
  <path class="cls-2" d="M30.76,239.19c0,1.37-1.11,2.49-2.49,2.49s-2.49-1.11-2.49-2.49,1.11-2.49,2.49-2.49,2.49,1.11,2.49,2.49ZM27.74,237.61c-1.22.39-1.14,3.39.58,3.22,1.88-.19,1.44-3.86-.58-3.22Z"/>
  <path class="cls-2" d="M7.77,182.55c0,1.37-1.11,2.49-2.49,2.49s-2.49-1.11-2.49-2.49,1.11-2.49,2.49-2.49,2.49,1.11,2.49,2.49ZM4.75,180.96c-1.22.39-1.14,3.39.58,3.22,1.88-.19,1.44-3.86-.58-3.22Z"/>
  <path class="cls-2" d="M7.77,205.2c0,1.37-1.11,2.49-2.49,2.49s-2.49-1.11-2.49-2.49,1.11-2.49,2.49-2.49,2.49,1.11,2.49,2.49ZM4.75,203.62c-1.22.39-1.14,3.39.58,3.22,1.88-.19,1.44-3.86-.58-3.22Z"/>
  <path class="cls-2" d="M22.99,250.52c0,1.37-1.11,2.49-2.49,2.49s-2.49-1.11-2.49-2.49,1.11-2.49,2.49-2.49,2.49,1.11,2.49,2.49ZM19.97,248.93c-1.22.39-1.14,3.39.58,3.22,1.88-.19,1.44-3.86-.58-3.22Z"/>
  <path class="cls-2" d="M7.77,193.88c0,1.37-1.11,2.49-2.49,2.49s-2.49-1.11-2.49-2.49,1.11-2.49,2.49-2.49,2.49,1.11,2.49,2.49ZM4.75,192.29c-1.22.39-1.14,3.39.58,3.22,1.88-.19,1.44-3.86-.58-3.22Z"/>
  <path class="cls-2" d="M12.42,250.52c0,1.37-1.11,2.49-2.49,2.49s-2.49-1.11-2.49-2.49,1.11-2.49,2.49-2.49,2.49,1.11,2.49,2.49ZM9.62,248.95c-1.15.32-1.23,2.53-.23,3.04,2.29,1.16,2.78-3.74.23-3.04Z"/>
  <path class="cls-2" d="M35.09,250.52c0,1.37-1.11,2.49-2.49,2.49s-2.49-1.11-2.49-2.49,1.11-2.49,2.49-2.49,2.49,1.11,2.49,2.49ZM32.28,248.95c-1.15.32-1.23,2.53-.23,3.04,2.29,1.16,2.78-3.74.23-3.04Z"/>
  <path class="cls-2" d="M45.45,250.52c0,1.37-1.11,2.49-2.49,2.49s-2.49-1.11-2.49-2.49,1.11-2.49,2.49-2.49,2.49,1.11,2.49,2.49ZM42.64,248.95c-1.15.32-1.23,2.53-.23,3.04,2.29,1.16,2.78-3.74.23-3.04Z"/>
  <path class="cls-2" d="M7.75,159.73c0,1.37-1.11,2.49-2.49,2.49s-2.49-1.11-2.49-2.49,1.11-2.49,2.49-2.49,2.49,1.11,2.49,2.49ZM4.29,158.35c-.97,1.01-.13,3.39,1.22,3.03,2.3-.6.44-4.76-1.22-3.03Z"/>
  <path class="cls-2" d="M68.96,241.78c-1.16-.27-4.46.27-3.76-1.95.48-1.52,2.36-1.18,2.46-1.29.03-.03.03-.93,0-.97-.24-.25-1.84.44-1.94.32-.96-1.14,2.29-1.96,3.07-.32.49,1.02-.01,3.04.16,4.21ZM67.99,239.19c-.46-.48-2.44.76-1.62,1.62.65.68,2.31-.88,1.62-1.62Z"/>
  <path class="cls-2" d="M51.48,239.51h-3.24c.34,1.47,1.65,1.33,2.91,1.3.25,1-1.39,1.04-2.03.92-5.14-1.03,1.48-9.68,2.35-2.21ZM50.51,238.87c.43-1.6-1.8-1.68-2.26-.48-.34.89,1.91.35,2.26.48Z"/>
  <path class="cls-2" d="M16.84,157.3c2.11,2.34.36,3.24,0,4.86-4.9.9-4.9-5.75,0-4.86ZM14.65,158.35c-.97,1.01-.13,3.39,1.22,3.03,2.3-.6.44-4.76-1.22-3.03Z"/>
  <path class="cls-2" d="M16.84,202.94c1.3.46,1.3,4.08,0,4.53-2.39.84-4.32-1.1-3.31-3.48.48-1.13,2.31-1.41,3.31-1.05ZM15.11,203.62c-1.22.39-1.14,3.39.58,3.22,1.88-.19,1.44-3.86-.58-3.22Z"/>
  <path class="cls-2" d="M16.84,180.28c1.3.46,1.3,4.08,0,4.53-2.39.84-4.32-1.1-3.31-3.48.48-1.13,2.31-1.41,3.31-1.05ZM15.11,180.96c-1.22.39-1.14,3.39.58,3.22,1.88-.19,1.44-3.86-.58-3.22Z"/>
  <path class="cls-2" d="M16.84,214.27c1.3.46,1.3,4.08,0,4.53-2.39.84-4.32-1.1-3.31-3.48.48-1.13,2.31-1.41,3.31-1.05ZM15.11,214.95c-1.22.39-1.14,3.39.58,3.22,1.88-.19,1.44-3.86-.58-3.22Z"/>
  <path class="cls-2" d="M16.84,191.61c1.3.46,1.3,4.08,0,4.53-2.39.84-4.32-1.1-3.31-3.48.48-1.13,2.31-1.41,3.31-1.05ZM15.11,192.29c-1.22.39-1.14,3.39.58,3.22,1.88-.19,1.44-3.86-.58-3.22Z"/>
  <path class="cls-2" d="M16.84,168.95c1.3.46,1.3,4.08,0,4.53-2.39.84-4.32-1.1-3.31-3.48.48-1.13,2.31-1.41,3.31-1.05ZM15.11,169.64c-1.22.39-1.14,3.39.58,3.22,1.88-.19,1.44-3.86-.58-3.22Z"/>
  <path class="cls-2" d="M16.84,225.6c1.3.46,1.3,4.08,0,4.53-2.39.84-4.32-1.1-3.31-3.48.48-1.13,2.31-1.41,3.31-1.05ZM15.11,226.28c-1.22.39-1.14,3.39.58,3.22,1.88-.19,1.44-3.86-.58-3.22Z"/>
  <path class="cls-2" d="M70.26,236.92c4.31-.51,4.06.78,3.88,4.53h-.97c.61-5.12-2.55-5.12-1.95,0h-.97v-4.53Z"/>
  <path class="cls-2" d="M.97,212c.38-.13,1.3.14,1.3.49v6.15c0,.56-1.3.56-1.3,0v-6.64Z"/>
  <path class="cls-2" d="M.97,200.67c.38-.13,1.3.14,1.3.49v6.15c0,.56-1.3.56-1.3,0v-6.64Z"/>
  <path class="cls-2" d="M.97,223.33c.38-.13,1.3.14,1.3.49v6.15c0,.56-1.3.56-1.3,0v-6.64Z"/>
  <path class="cls-2" d="M.97,162.16v-6.64c0-.56,1.3-.56,1.3,0v6.15c0,.34-.92.62-1.3.49Z"/>
  <path class="cls-2" d="M29.46,245.99v6.64c0,.56-1.3.56-1.3,0v-6.15c0-.34.92-.62,1.3-.49Z"/>
  <path class="cls-2" d="M6.8,245.99v6.64c0,.56-1.3.56-1.3,0v-6.15c0-.34.92-.62,1.3-.49Z"/>
  <path class="cls-2" d="M.97,189.35c.38-.13,1.3.14,1.3.49v6.15c0,.56-1.3.56-1.3,0v-6.64Z"/>
  <path class="cls-2" d="M.97,178.02c.38-.13,1.3.14,1.3.49v6.15c0,.56-1.3.56-1.3,0v-6.64Z"/>
  <path class="cls-2" d="M.97,166.69c.38-.13,1.3.14,1.3.49v6.15c0,.56-1.3.56-1.3,0v-6.64Z"/>
  <path class="cls-2" d="M.97,234.66c.38-.13,1.3.14,1.3.49v6.15c0,.56-1.3.56-1.3,0v-6.64Z"/>
  <path class="cls-2" d="M40.14,235.63c.06.06-.06.68.16.97.33.44,1.05.25,1.14.33.96.78-1.24.59-1.3.64-.14.13.01,2.63.3,3.05.31.45,1.27-.22,1,.83h-1.94c-.2-.19.2-3.1.02-3.71-.12-.4-.84-.06-.99-.18-.57-.45,1.34-1.03.98-1.7-.11-.39.61-.27.64-.24Z"/>
  <path class="cls-2" d="M62.49,236.92l2.27.17c-1.24,1.51-1.56,2.32-1.3,4.37h-.97v-4.53Z"/>
  <path class="cls-2" d="M31.41,236.92l2.27.17c-1.24,1.51-1.56,2.32-1.3,4.37h-.97v-4.53Z"/>
  <rect class="cls-2" x="51.8" y="242.1" width="4.86" height=".65"/>
  <rect class="cls-2" x="34" y="242.1" width="4.86" height=".65"/>
  <rect class="cls-2" x="18.46" y="242.1" width="4.86" height=".65"/>
  <rect class="cls-2" x="22.99" y="253.43" width="4.86" height=".65"/>
  <path class="cls-3" d="M324.1,142.41c4.29,2.35,8.95,4.27,13.17,6.75,20.79,12.17,5.66,42.7-15.98,34.42-11.89-4.55-24.33-14-36.26-19.1-3.78-2.16-6.42-5.66-8.42-9.45-5.37.37-10.77.4-16.15.65-6.25.28-19,2.09-24.42.17-12.95-4.58-14.08-23.18-1.64-29.14,5.32-2.55,12.37-1.27,18.15-2.09l-1.17-4.57c-6.98-2.03-15.21-2.46-21.47-6.3-23.54-14.44-2.79-46.11.53-66.09,4.03-12.09,16.92-19.94,29.57-17.41,28.62,9.24,59.19,15.47,87.57,25.09,10.98,3.73,16.66,12.52,16.34,24.12-3.95,13.29-6.59,29.8-11.92,42.46-3.74,8.88-11.22,14.19-20.66,15.6-.98.15-2.17-.18-3.03.21-1.12.51-3.05,3.77-4.21,4.68ZM310.5,128.17c8.34.91,16.95,5.75,25.25,2.42,4.32-1.73,8.49-5.69,10.54-9.86,3.3-12.2,9.01-25.83,11.4-38.13,1.65-8.49-.98-16.28-8.64-20.64-30.32-9.25-60.91-17.95-91.49-26.36-10.25-.92-18.72,5.02-22,14.57-2.56,12.56-9,26.31-11.1,38.75-1.83,10.82,4.28,19.92,14.81,22.58l58.61,13.42c-3.76-2.63-7.08-5.56-9.23-9.7-11.3-21.72,13.85-44.18,34.14-30.56,16.38,10.99,12.46,36.19-6.12,42.05l-6.15,1.45ZM327.4,104.22c0-9.87-8-17.87-17.87-17.87s-17.87,8-17.87,17.87,8,17.87,17.87,17.87,17.87-8,17.87-17.87ZM258.05,121.7c.99,4.56-.3,8.23-5.35,8.73s-13.08-.65-16.97,2.13c-4.72,3.37-5.96,9.9-2.28,14.54,4.27,5.37,9.77,3.58,15.68,3.39,8.32-.26,16.62-.71,24.94-.96,1.37-.26.7-3.59.85-4.98.29-2.81,1.68-6.07,3.26-8.4.65-.96,3.67-3.98,3.77-4.34.17-.57-.9-4.27-1.27-4.76-.72-.96-19.96-4.65-22.64-5.37ZM321.51,136.27l-29.26-6.72c-3.61,4.16-10.8,9.27-11.49,15.01-.81,6.65,2.21,12.04,7.84,15.39,10.94,6.51,23.3,11.62,34.31,18.13,12.13,4.98,23.53-8.51,16.36-19.59-3.13-4.83-12.32-7.7-17.32-10.84-3.05-1.92-4.46-4.82-2.71-8.32.37-.73,2.59-2.64,2.28-3.06Z"/>
  <path class="cls-3" d="M93.09,121.38c-7.1-.66-13.97-5.61-17.38-11.76-5.62-10.16-2.23-24.41-3.17-35.67-.32-3.78-1.36-6.43-.98-10.66,1.18-13.24,9.21-25.21,23.15-26.7,11-1.18,23.17-1,34.33-1.61,12.3-.67,24.59-1.36,36.91-1.94,15.41-.73,32.24-4.9,41.11,11.63,6.75,12.59,1.24,37.56,3.08,51.97-.75,9.79-6.63,18.87-15.86,22.51-.44.62,1.63,3.19,1.98,3.96,4.26,9.25,1.56,20.82-7.5,25.96-12.23,4.69-24.33,12.35-36.42,17-9.15,3.52-19.49.21-24.19-8.53-.93-1.72-1.22-3.5-2.09-5.03-5.71.18-11.42.41-17.13.59-4.07.13-6.54.89-10.68-.63-10.23-3.76-13.36-17.11-6.15-25.26,5.48-6.19,11.94-5.19,19.43-5.5.4-.02,1.2.25,1.13-.32-6.31-.43-13.36.58-19.59,0ZM97.13,42.08c-1.52.06-3.03.29-4.54.49,0,.32,3.95.12,4.54.16,16.52,1.31,26.36,19.23,19.01,34.05-5.79,11.68-20.24,16.33-31.92,10.41-2.17-1.1-3.87-2.7-5.87-4.01v16.99c0,5.61,6.96,13.79,12.56,14.96,31.93.95,64.04.2,96.03.38,8.87-1.23,16.7-9.25,17.37-18.23,1.04-13.85-.77-29.03-.05-43.02-2.21-11.44-9.49-16.65-20.85-16.39-28.83.66-57.58,3.09-86.28,4.21ZM112.93,66.19c0-9.88-8.01-17.89-17.9-17.89s-17.9,8.01-17.9,17.89,8.01,17.89,17.9,17.89,17.9-8.01,17.9-17.89ZM153.79,121.38c2.25,3.55,1.69,7.05-1.94,9.23-6.59,3.97-18.47,5.88-20,14.96-1.81,10.75,7.86,18.97,18.13,15.21,12.09-4.43,24.46-12.41,36.62-17.12,6.03-4.19,7.47-11.59,4.37-18.18-.48-1.01-2.62-4.37-3.68-4.44-.47-.03-.83.34-.96.34h-32.54ZM125.89,146.57c.85-4.88,2.87-9.33,6.7-12.56,3.41-2.87,7.77-4.13,11.67-6.16.28-.44-1.45-6.24-2.01-6.43l-20.95-.06c-.93,2.14-.94,4.02-3.37,5.11-3.46,1.55-10.54.71-14.48,1.06-9.93.89-13.21,13.53-4.8,18.71,3.89,2.4,8.58,1.15,12.88,1.02,4.79-.15,9.63-.09,14.37-.69Z"/>
  <path class="cls-3" d="M387.72,125.91c-10.4-1.05-19.25-10.64-20.19-20.92-1.23-13.37.8-28.45,0-42,1.68-11.36,10.17-20.64,21.82-21.88l81.52-4.21c22.26-28.79,61.41,7.58,34.06,31.71-1,11.03.77,23.18-.17,34.14-1.19,13.88-14.72,24.36-28.42,23.22l-2.98,5.28c4.63,1.82,9.87,2.42,14.57,3.88,22.62,7.01,15.79,42.32-11.15,36.39-12.6-2.77-25.26-7.05-37.83-10.09-4.13-1.65-7.49-4.78-10.11-8.3-4.95,3.82-10.17,3.16-15.89,3.51-6.9.41-13.77.75-20.72.97-5.58.18-8.56,1.12-13.66-2.18-7.95-5.15-9.48-16.33-3.32-23.53,5.45-6.36,12-5.36,19.58-5.67.4-.02,1.2.25,1.13-.32-2.65-.19-5.65.26-8.26,0ZM478.86,36.57h4.69c1.1,0,4.64,1.15,5.84,1.61,9.02,3.5,15.34,12.62,15.38,22.34,3.97-4.32,4.54-11.52,2.51-16.92-4.32-11.46-19.34-15.51-28.41-7.04ZM378.61,115.44c2.26,2.22,6.21,4.38,9.43,4.66,32.07-.39,64.3.72,96.27-.56,8.44-2.62,14.43-10.15,14.96-19.03-.63-13.03.86-26.87,0-39.8-.45-6.81-4-13.19-10.14-16.41s-11.08-1.83-17.53-1.54c-18.38.8-36.72,1.88-55.06,2.9-8.82.49-18.89.21-27.51,1.3-9.57,1.22-15.49,10.13-16.05,19.24-.63,10.43-.61,25.18,0,35.63.3,5.09,1.94,9.99,5.63,13.63ZM431.92,125.58v1.3s.65,0,.65,0v-1.3s-.65,0-.65,0ZM404.44,125.95c-.57,2.29-1.03,4.17-3.43,5.15-3.6,1.47-10.51.58-14.54,1-9.71,1.01-12.79,13.57-4.52,18.68,3.89,2.4,8.58,1.15,12.88,1.02,7.92-.25,17.48-.07,25.23-.99,1.18-.14,5.31-1.88,6.02-2.72.79-.93-.34-3.84-.35-5.18,0-3.29,2.37-7.74,2.31-9.7-.02-.6-1.96-6.94-2.27-7.15l-21.34-.11ZM469.8,125.91h-30.27c-3.1,5.84-8.65,11.54-7.89,18.57.6,5.58,5.74,10.39,10.82,12.16,11.86,4.14,25.63,6,37.69,9.91,11.03,1.76,19.39-9.33,14.22-19.4-4.24-8.27-15.63-7.53-23.21-10.46-4.75-1.84-3.95-7.39-1.36-10.78Z"/>
  <path class="cls-5" d="M454.91,229.48c.47.55.56-.13.68-.45,2.41-6.59,4.18-13.46,6.92-19.94.58-.69,3.37-.16,4.37-.32l1.62,25.89h-3.24s-1.13-22.01-1.13-22.01l-7.67,21.47c-.39.88-1.55.48-2.38.57l-7.43-21.71-1.46,21.69h-3.24s1.96-25.87,1.96-25.87c1,.12,3.79-.38,4.36.3l6.63,20.4Z"/>
  <path class="cls-5" d="M506.98,208.82l8.79,25.84c-.76-.16-3.06.25-3.52-.04-.35-.22-2.12-6.88-2.6-7.85-.34-.48-8.1-.07-9.38-.15-.34.22-1.77,6.89-2.47,7.73-.55.67-2.54.18-3.41.32l8.45-25.86,4.12.02ZM508.65,223.98l-3.72-11.98-3.72,11.98h7.45Z"/>
  <path class="cls-5" d="M430.27,208.8l8.45,25.86c-.65-.12-3.26.2-3.53-.03-.32-.27-1.99-7.5-2.61-7.91h-9.09c-.62.41-2.29,7.64-2.61,7.91-.27.23-2.88-.1-3.53.03l8.71-25.69,4.21-.17ZM424.15,223.98h7.77l-4.04-11.65-3.73,11.65Z"/>
  <path class="cls-5" d="M362.86,28.23c5.86-1.34,5.78,8.67,2.85,10.61-6,3.99-7.75-9.49-2.85-10.61ZM363.51,29.17c-2.66.69-2.58,9.05.26,9.05,3.48,0,2.88-9.86-.26-9.05Z"/>
  <path class="cls-5" d="M99.63,161.58c5.86-1.34,5.78,8.67,2.85,10.61-6,3.99-7.75-9.49-2.85-10.61ZM100.28,162.53c-2.66.69-2.58,9.05.26,9.05,3.48,0,2.88-9.86-.26-9.05Z"/>
  <path class="cls-5" d="M226.57,13.98c5.87-.86,5.94,12.71-.67,11.2-3.55-.81-3.7-10.56.67-11.2ZM226.55,15.27c-2.34.69-2.43,7.42-.35,8.64,3.79,2.23,4.35-9.82.35-8.64Z"/>
  <path class="cls-5" d="M238.54,13.99c5.73-1.1,5.49,10.6,1.52,11.24-6.15,1-5.94-10.39-1.52-11.24ZM240.48,15.62c-3.63-3.4-5.02,8.09-1.62,8.6,3.11.47,3.21-7.12,1.62-8.6Z"/>
  <path class="cls-5" d="M374.84,28.23c7.13-1.63,6.19,13.08.08,11.11-3.66-1.18-3.46-10.34-.08-11.11ZM374.69,37.78c.48.45,1.59.54,2.18.25,1.79-.86,2.04-8.46-.56-8.85-3.06-.46-3.28,7.04-1.62,8.6Z"/>
  <path class="cls-5" d="M111.61,161.58c7.13-1.63,6.19,13.08.08,11.11-3.66-1.18-3.46-10.34-.08-11.11ZM111.46,171.13c.48.45,1.59.54,2.18.25,1.79-.86,2.04-8.46-.56-8.85-3.06-.46-3.28,7.04-1.62,8.6Z"/>
  <path class="cls-5" d="M385.94,33.02c4.95,3.91-.06,8.15-4.86,5.82l.33-1.29c5.3,2.73,7.35-4.01,1.29-3.56v-1.29c1.64.32,4.05-.65,3.08-2.59-.81-1.62-4.77.53-4.37-1.13.24-1,6.52-1.9,6.15,1.91-.07.73-.75,2.13-1.62,2.14Z"/>
  <path class="cls-5" d="M246.72,23.95h4.53c.06,0,.06,1.29,0,1.29h-6.64c-.12,0-.55-.49-.48-.8.3-1.35,7.55-5.47,4.86-8.43-1.62-1.78-3.77.28-4.21-.16-.99-1,3.23-3.16,5.36-.99,2.85,2.91-1.49,7.01-3.42,9.08Z"/>
  <path class="cls-5" d="M122.71,161.51v11h-1.62v-9.39c-4.59,1.8-.92-2.19,1.62-1.62Z"/>
  <path class="cls-5" d="M43.71,157.3v5.34c0,1.34-3.87,2.39-3.88.49.69.33,3.96-.15,2.91-1.3-.15-.17-3.13,1.34-3.27-1.78-.15-3.28,1.92-2.5,4.24-2.76ZM41.34,157.98c-1.12.29-1.5,2.14-.56,3.05,2.19,2.13,2.83-3.64.56-3.05Z"/>
  <path class="cls-5" d="M67.02,200.67v6.8c-1.6-.42-3.72.84-4.39-1.28-.77-2.45,1.08-4.1,3.41-2.93v-2.59s.97,0,.97,0ZM64.34,203.63c-1.49.41-1.17,3.7.83,3.15,1.49-.41,1.17-3.7-.83-3.15Z"/>
  <path class="cls-5" d="M69.61,166.69v6.8c-1.6-.42-3.72.84-4.39-1.28-.77-2.45,1.08-4.1,3.41-2.93v-2.59s.97,0,.97,0ZM66.93,169.65c-1.49.41-1.17,3.7.83,3.15,1.49-.41,1.17-3.7-.83-3.15Z"/>
  <path class="cls-5" d="M54.39,178.02v6.8c-1.6-.42-3.72.84-4.39-1.28-.77-2.45,1.08-4.1,3.41-2.93v-2.59s.97,0,.97,0ZM51.71,180.98c-1.49.41-1.17,3.7.83,3.15,1.49-.41,1.17-3.7-.83-3.15Z"/>
  <path class="cls-5" d="M27.84,155.36v6.8c-1.72-.48-3.37.77-4.29-1.38s1.1-4.28,3.31-3.15v-2.27s.97,0,.97,0ZM24.69,161.11c1.6,1.67,3.33-2.12,1.53-3.01-1.69-.83-2.56,1.94-1.53,3.01Z"/>
  <path class="cls-5" d="M43.06,168.95c1.6.42,3.72-.84,4.39,1.28.77,2.45-1.08,4.1-3.41,2.93v2.27s-.97,0-.97,0v-6.47ZM44.91,169.65c-1.49.41-1.17,3.7.83,3.15,1.49-.41,1.17-3.7-.83-3.15Z"/>
  <path class="cls-5" d="M23.64,214.27c1.6.42,3.72-.84,4.39,1.28.77,2.45-1.08,4.1-3.41,2.93v2.27s-.97,0-.97,0v-6.47ZM25.48,214.96c-1.49.41-1.17,3.7.83,3.15,1.49-.41,1.17-3.7-.83-3.15Z"/>
  <path class="cls-5" d="M52.78,214.27c1.6.42,3.72-.84,4.39,1.28.77,2.45-1.08,4.1-3.41,2.93v2.27s-.97,0-.97,0v-6.47ZM54.62,214.96c-1.49.41-1.17,3.7.83,3.15,1.49-.41,1.17-3.7-.83-3.15Z"/>
  <path class="cls-5" d="M42.41,223.33h.97s0,2.59,0,2.59c3.23-1.44,3.4,1.81,3.23,4.21h-.97c.6-5.14-2.94-5.25-2.27,0h-.97v-6.8Z"/>
  <path class="cls-5" d="M58.28,212c1.46-.22.8,2.09.97,2.27.15.16,1.78-.34,2.44.31.82.81.37,3.12.48,4.22h-.97c-.18-.18.68-5.39-1.64-3.75-.62.44-.16,2.92-.3,3.75h-.97v-6.8Z"/>
  <path class="cls-5" d="M29.14,212c1.46-.22.8,2.09.97,2.27.15.16,1.78-.34,2.44.31.82.81.37,3.12.48,4.22h-.97c-.18-.18.68-5.39-1.64-3.75-.62.44-.16,2.92-.3,3.75h-.97v-6.8Z"/>
  <path class="cls-5" d="M26.87,189.35c1.46-.22.8,2.09.97,2.27.15.16,1.78-.34,2.44.31.82.81.37,3.12.48,4.22h-.97c-.18-.18.68-5.39-1.64-3.75-.62.44-.16,2.92-.3,3.75h-.97v-6.8Z"/>
  <path class="cls-5" d="M44.68,200.67c.92-1.21.56,2.48.65,2.59,2.04-.73,3.69-.32,3.59,2.11-.12,2.92-2.31,1.72-4.24,2.1v-6.8ZM46.19,203.63c-1,.33-1.32,2.73.01,3.13,2.74.82,2.63-4-.01-3.13Z"/>
  <path class="cls-5" d="M74.47,200.67v6.8c-1.91-.14.31-2.93-1.29-3.72-2.73-1.36-3.33,4.05.32,3.08.6.41-3.42,1.92-3.27-1.79.09-2.24,1.75-2.42,3.59-1.77.32-.38-.66-2.92.65-2.59Z"/>
  <path class="cls-5" d="M34.97,180.28c1.99.19-.29,2.94,1.29,3.72,2.73,1.36,3.33-4.05-.32-3.08-.6-.41,3.42-1.92,3.27,1.79-.09,2.24-1.75,2.42-3.59,1.77-.3.35.64,2.61-.65,2.26v-6.47Z"/>
  <path class="cls-5" d="M57.31,225.6c1.99.19-.29,2.94,1.29,3.72,2.73,1.36,3.33-4.05-.32-3.08-.6-.41,3.42-1.92,3.27,1.79-.09,2.24-1.75,2.42-3.59,1.77-.3.35.64,2.61-.65,2.26v-6.47Z"/>
  <path class="cls-5" d="M72.53,225.6c1.99.19-.29,2.94,1.29,3.72,2.73,1.36,3.33-4.05-.32-3.08-.6-.41,3.42-1.92,3.27,1.79-.09,2.24-1.75,2.42-3.59,1.77-.3.35.64,2.61-.65,2.26v-6.47Z"/>
  <path class="cls-5" d="M64.76,217.18c.87-.04,1.06-4.01,2.26-2.91.29.27-2.48,7.74-3.88,6.47-.44-.4,1.24-1.37,1.28-2.09.04-.79-1.85-4.15-1.6-4.38.99-.94,1.91,2.38,1.95,2.91Z"/>
  <path class="cls-5" d="M45,157.3c.54-.64.7.68.8.65.66-.2.94-1.01,2.1-.49,1.54.69.85,3.3.98,4.7h-.97c-.18-.18.68-5.39-1.64-3.75-.88.62.57,3.78-1.27,3.75.13-.74-.18-4.64,0-4.86Z"/>
  <path class="cls-5" d="M64.43,194.2h-3.24c.1,1.58,1.74,1.34,2.91,1.3.41,1.05-2.24.72-2.69.58-1.94-.58-1.7-5.48,1.82-4.41.88.27,1.32,1.68,1.2,2.52ZM63.46,193.55c.35-1.54-1.96-1.93-2.26-.48-.2.94,1.81.31,2.26.48Z"/>
  <path class="cls-5" d="M76.41,216.86h-3.24c.1,1.58,1.74,1.34,2.91,1.3.41,1.05-2.24.72-2.69.58-1.94-.58-1.7-5.48,1.82-4.41.88.27,1.32,1.68,1.2,2.52ZM75.44,216.21c.35-1.54-1.96-1.93-2.26-.48-.2.94,1.81.31,2.26.48Z"/>
  <path class="cls-5" d="M49.21,182.87h-3.24c.1,1.58,1.74,1.34,2.91,1.3.41,1.05-2.24.72-2.69.58-1.94-.58-1.7-5.48,1.82-4.41.88.27,1.32,1.68,1.2,2.52ZM48.24,182.22c.35-1.54-1.96-1.93-2.26-.48-.2.94,1.81.31,2.26.48Z"/>
  <path class="cls-5" d="M37.88,171.54h-3.24c.1,1.58,1.74,1.34,2.91,1.3.41,1.05-2.24.72-2.69.58-1.94-.58-1.7-5.48,1.82-4.41.88.27,1.32,1.68,1.2,2.52ZM36.91,170.9c.35-1.54-1.96-1.93-2.26-.48-.2.94,1.81.31,2.26.48Z"/>
  <path class="cls-5" d="M52.45,171.54h-3.24c.1,1.58,1.74,1.34,2.91,1.3.41,1.05-2.24.72-2.69.58-1.94-.58-1.7-5.48,1.82-4.41.88.27,1.32,1.68,1.2,2.52ZM51.48,170.9c.35-1.54-1.96-1.93-2.26-.48-.2.94,1.81.31,2.26.48Z"/>
  <path class="cls-5" d="M83.86,228.18h-3.24c.1,1.58,1.74,1.34,2.91,1.3.41,1.05-2.24.72-2.69.58-1.94-.58-1.7-5.48,1.82-4.41.88.27,1.32,1.68,1.2,2.52ZM82.89,227.54c.35-1.54-1.96-1.93-2.26-.48-.2.94,1.81.31,2.26.48Z"/>
  <path class="cls-5" d="M79.65,205.53h-3.24c.1,1.58,1.74,1.34,2.91,1.3.41,1.05-2.24.72-2.69.58-1.94-.58-1.7-5.48,1.82-4.41.88.27,1.32,1.68,1.2,2.52ZM78.68,204.88c.35-1.54-1.96-1.93-2.26-.48-.2.94,1.81.31,2.26.48Z"/>
  <path class="cls-5" d="M51.48,228.18h-3.24c.1,1.58,1.74,1.34,2.91,1.3.41,1.05-2.24.72-2.69.58-1.94-.58-1.7-5.48,1.82-4.41.88.27,1.32,1.68,1.2,2.52ZM50.51,227.54c.35-1.54-1.96-1.93-2.26-.48-.2.94,1.81.31,2.26.48Z"/>
  <path class="cls-5" d="M66.37,228.18h-3.24c.1,1.58,1.74,1.34,2.91,1.3.41,1.05-2.24.72-2.69.58-1.94-.58-1.7-5.48,1.82-4.41.88.27,1.32,1.68,1.2,2.52ZM65.4,227.54c.35-1.54-1.96-1.93-2.26-.48-.2.94,1.81.31,2.26.48Z"/>
  <path class="cls-5" d="M104.9,214.27c3.95-.3,4.42.62,4.21,4.53h-.97c.6-5.14-2.94-5.25-2.27,0h-.97v-4.53Z"/>
  <path class="cls-5" d="M28.82,168.95c3.95-.3,4.42.62,4.21,4.53h-.97c.6-5.14-2.94-5.25-2.27,0h-.97v-4.53Z"/>
  <path class="cls-5" d="M92.57,202.97c.14.09.84,2.73,1.01,3.21l1.29-3.08c.12-.21.6-.21.65-.16.27.3-1.8,7.32-3.88,6.47-.09-1.02,1.13-.79,1.31-1.78.26-1.48-1.11-2.9-1.31-4.2-.11-.69.65-.65.94-.46Z"/>
  <path class="cls-5" d="M57.63,202.94c3.95-.3,4.42.62,4.21,4.53h-.97c.6-5.14-2.94-5.25-2.27,0h-.97v-4.53Z"/>
  <path class="cls-5" d="M32.7,159.89h-2.91c-.33,2.28,2.46,1.17,2.59,1.3.96.93-2.91,1.68-3.5-.22-1.22-3.99,4.04-5.34,3.82-1.07ZM32.05,159.24c-.09-1.76-2.83-1.77-2.1,0h2.1Z"/>
  <path class="cls-5" d="M80.62,202.94c1.01.53,2.35-.37,3.24.16.98.58.57,3.32.64,4.38h-.97c-.18-.18.68-5.39-1.64-3.75-.62.44-.16,2.92-.3,3.75h-.97v-4.53Z"/>
  <path class="cls-5" d="M64.43,171.55c-.51.09-2.8-.12-2.92,0-.98,1.02,2.05,1.59,2.59,1.29.38,1.04-1.87.72-2.36.58-2.09-.6-1.74-5.46,1.81-4.4,1.08.32.91,1.65.88,2.52ZM63.41,169.65c-.73-.45-2.3.1-1.89,1.24h2.26c.11-.11-.27-1.18-.37-1.24Z"/>
  <path class="cls-5" d="M25.9,180.28c1.01.53,2.35-.37,3.24.16.98.58.57,3.32.64,4.38h-.97c-.18-.18.68-5.39-1.64-3.75-.62.44-.16,2.92-.3,3.75h-.97v-4.53Z"/>
  <path class="cls-5" d="M56.34,196.14c-4.25.94-5.15-2.51-.97-2.92.14-1.76-2.48-.21-2.26-1.61,3.81-.63,3.28,1.59,3.24,4.53ZM55.36,193.88c-.32-.32-2.09.3-1.94,1.13.26,1.4,2.93-.14,1.94-1.13Z"/>
  <path class="cls-5" d="M47.27,196.14c-4.25.94-5.15-2.51-.97-2.92.14-1.76-2.48-.21-2.26-1.61,3.81-.63,3.28,1.59,3.24,4.53ZM46.3,193.88c-.32-.32-2.09.3-1.94,1.13.26,1.4,2.93-.14,1.94-1.13Z"/>
  <path class="cls-5" d="M28,205.21c0,1.31-1.06,2.37-2.37,2.37s-2.37-1.06-2.37-2.37,1.06-2.37,2.37-2.37,2.37,1.06,2.37,2.37ZM27.3,205.2c0-.88-.72-1.6-1.6-1.6s-1.6.72-1.6,1.6.72,1.6,1.6,1.6,1.6-.72,1.6-1.6Z"/>
  <path class="cls-5" d="M30.59,227.87c0,1.31-1.06,2.37-2.37,2.37s-2.37-1.06-2.37-2.37,1.06-2.37,2.37-2.37,2.37,1.06,2.37,2.37ZM29.89,227.86c0-.88-.72-1.6-1.6-1.6s-1.6.72-1.6,1.6.72,1.6,1.6,1.6,1.6-.72,1.6-1.6Z"/>
  <path class="cls-5" d="M104.09,216.54c0,1.31-1.06,2.37-2.37,2.37s-2.37-1.06-2.37-2.37,1.06-2.37,2.37-2.37,2.37,1.06,2.37,2.37ZM103.39,216.53c0-.88-.72-1.6-1.6-1.6s-1.6.72-1.6,1.6.72,1.6,1.6,1.6,1.6-.72,1.6-1.6Z"/>
  <path class="cls-5" d="M85.96,216.54c0,1.31-1.06,2.37-2.37,2.37s-2.37-1.06-2.37-2.37,1.06-2.37,2.37-2.37,2.37,1.06,2.37,2.37ZM85.26,216.53c0-.88-.72-1.6-1.6-1.6s-1.6.72-1.6,1.6.72,1.6,1.6,1.6,1.6-.72,1.6-1.6Z"/>
  <path class="cls-5" d="M51.96,216.54c0,1.31-1.06,2.37-2.37,2.37s-2.37-1.06-2.37-2.37,1.06-2.37,2.37-2.37,2.37,1.06,2.37,2.37ZM51.26,216.53c0-.88-.72-1.6-1.6-1.6s-1.6.72-1.6,1.6.72,1.6,1.6,1.6,1.6-.72,1.6-1.6Z"/>
  <path class="cls-5" d="M43.11,216.53c0,1.31-1.06,2.37-2.37,2.37s-2.37-1.06-2.37-2.37,1.06-2.37,2.37-2.37,2.37,1.06,2.37,2.37ZM42.27,216.53c0-.88-.72-1.6-1.6-1.6s-1.6.72-1.6,1.6.72,1.6,1.6,1.6,1.6-.72,1.6-1.6Z"/>
  <path class="cls-5" d="M71.6,227.86c0,1.31-1.06,2.37-2.37,2.37s-2.37-1.06-2.37-2.37,1.06-2.37,2.37-2.37,2.37,1.06,2.37,2.37ZM70.76,227.86c0-.88-.72-1.6-1.6-1.6s-1.6.72-1.6,1.6.72,1.6,1.6,1.6,1.6-.72,1.6-1.6Z"/>
  <path class="cls-5" d="M39.44,169.03c.24.15.11,1.09,1.19.9.1-.02.76-1.61,1.46-.98.29.26-.94,1.45-.97,2.13-.05.99,1.03,1.44.98,2.4-1.13.23-1.49-.72-1.62-1.62-3.71,3.83-.89.05-.96-.79-.02-.3-2.03-3.23-.07-2.05Z"/>
  <path class="cls-5" d="M56.34,207.47c-1.21-.19-4.15.5-3.52-1.72.41-1.45,3.08-.53,2.55-2.17-.25-.27-2.31.59-1.94-.65,3.71-.57,2.88,1.82,2.91,4.53ZM55.69,205.21c-1.36.01-2.27.05-1.94,1.62,1.54.21,1.94-.02,1.94-1.62Z"/>
  <path class="cls-5" d="M26.22,223.33c.65.68-.59,1.3-1.3.97-.47,1.98,1.01.68.97,1.94-2.14-.54-1.09,1.78-1.29,3.41-.06.45-.17.93-.64.48-.17-.16-.6-3.88-.55-4.31.01-.11.78-1.91.86-2,.31-.33,1.76-.67,1.94-.48Z"/>
  <path class="cls-5" d="M34.64,200.68c.2,1.28-.19.97-1.3.97-.47,1.98,1.01.68.97,1.94-1.91-.68-.52,3.46-.97,3.89h-.97c-.18-.17.17-3.04,0-3.68-.08-.31-.61-.18-.64-.22-.46-.62.48-.65.52-.73.56-1.09.3-2.43,2.37-2.17Z"/>
  <path class="cls-5" d="M78.68,217.18c.54.53.54-.16.67-.45.08-.18.84-3.28,1.59-2.46.16.18-1.25,4.48-1.47,4.55-.18.06-.91.04-1.07-.06-.2-.12-1.52-4.27-1.34-4.48.79-.92,1.5,2.79,1.62,2.91Z"/>
  <path class="cls-5" d="M36.26,158.27c-.76.02-2.08-.33-1.62.81.08.2,2.87.68,1.65,2.53-.44.66-1.89.55-2.61.54v-.97c4.59.6.35-1.32.15-1.6-1.17-1.68,2-3.6,2.44-1.31Z"/>
  <path class="cls-5" d="M42.74,191.61l-1.45.64c-.83,1.32,1.22,1.16,1.63,1.94.93,1.73-1.45,2.26-2.76,1.95-.36-1.24,1.67-.38,1.94-.65.85-.83-1.55-1.48-1.79-1.93-.99-1.92.94-2.2,2.43-1.95Z"/>
  <path class="cls-5" d="M36.91,191.61c.37,1.24-1.68.38-1.94.65-.83.86,1.48,1.31,1.78,1.94,1.03,2.11-1.19,2.02-2.75,1.94-.36-1.24,1.67-.38,1.94-.65.39-1.42-1.23-1.23-1.64-1.84-1.19-1.76,1.19-2.38,2.61-2.05Z"/>
  <path class="cls-5" d="M33.67,180.28l-1.45.64c-.83,1.32,1.22,1.16,1.63,1.94.93,1.73-1.45,2.26-2.76,1.95-.36-1.24,1.67-.38,1.94-.65.85-.83-1.55-1.48-1.79-1.93-.99-1.92.94-2.2,2.43-1.95Z"/>
  <path class="cls-5" d="M86.77,201.64c.12.12-.16,1.06.03,1.28.13.15,1.26-.26.94.5-.16.37-.88-.07-1,.34-.06.2-.06,2.65,0,2.88.11.45,1.32-.24.99.82-2.91.61-1.53-2.13-1.94-3.67-.07-.26-1.13-.17-.63-.84.05-.07,1.04.07.63-1.31.26.04.92-.06.97,0Z"/>
  <path class="cls-5" d="M58.6,190.31c.12.12-.16,1.06.03,1.28.13.15,1.26-.26.94.5-.16.37-.88-.07-1,.34-.06.2-.06,2.65,0,2.88.11.45,1.32-.24.99.82-2.91.61-1.53-2.13-1.94-3.67-.07-.26-1.13-.17-.63-.84.05-.07,1.04.07.63-1.31.26.04.92-.06.97,0Z"/>
  <path class="cls-5" d="M67.99,191.61c.37,1.24-1.68.38-1.94.65-.83.86,1.48,1.31,1.78,1.94,1.03,2.11-1.19,2.02-2.75,1.94-.36-1.24,1.67-.38,1.94-.65.39-1.42-1.23-1.23-1.64-1.84-1.19-1.76,1.19-2.38,2.61-2.05Z"/>
  <path class="cls-5" d="M46.62,214.27c.37,1.24-1.68.38-1.94.65-.83.86,1.48,1.31,1.78,1.94,1.03,2.11-1.19,2.02-2.75,1.94-.36-1.24,1.67-.38,1.94-.65.39-1.42-1.23-1.23-1.64-1.84-1.19-1.76,1.19-2.38,2.61-2.05Z"/>
  <path class="cls-5" d="M56.66,168.96c.23,1.22-1.28.26-2.13.94-.67.52-.68,2.12,0,2.65.86.68,2.37-.29,2.13.94-4.95,1.01-4.94-5.54,0-4.53Z"/>
  <path class="cls-5" d="M95.51,212.97c.12.12-.16,1.06.03,1.28.13.15,1.26-.26.94.5-.16.37-.88-.07-1,.34-.06.2-.06,2.65,0,2.88.11.45,1.32-.24.99.82-2.91.61-1.53-2.13-1.94-3.67-.07-.26-1.13-.17-.63-.84.05-.07,1.04.07.63-1.31.26.04.92-.06.97,0Z"/>
  <rect class="cls-5" x="40.15" y="200.67" width=".97" height="6.8"/>
  <rect class="cls-5" x="77.71" y="223.33" width=".97" height="6.8"/>
  <rect class="cls-5" x="42.41" y="200.67" width=".97" height="6.8"/>
  <path class="cls-5" d="M97.13,205.85c-.51-1.11,1.43-2.73,1.29-3.39-.17-.86-2.37-.09-1.94-.97.48-.98,3.19-.64,2.91,1.27-.05.32-1.85,3.6-2.27,3.1Z"/>
  <path class="cls-5" d="M24.6,190.32c.06.06-.06.68.16.97.33.44,1.05.25,1.14.33.96.78-1.24.59-1.3.64-.11.1-.06,2.64.15,2.94.32.48,1.43-.09,1.15.94-3.07.5-1.51-2.03-1.94-3.67-.07-.26-.67-.19-.66-.38,0-.25.86-2.27,1.3-1.78Z"/>
  <path class="cls-5" d="M69.93,190.32c.06.06-.06.68.16.97.33.44,1.05.25,1.14.33.96.78-1.24.59-1.3.64-.11.1-.06,2.64.15,2.94.32.48,1.43-.09,1.15.94-3.07.5-1.51-2.03-1.94-3.67-.07-.26-.67-.19-.66-.38,0-.25.86-2.27,1.3-1.78Z"/>
  <path class="cls-5" d="M40.14,224.3c.06.06-.06.68.16.97.33.44,1.05.25,1.14.33.96.78-1.24.59-1.3.64-.11.1-.06,2.64.15,2.94.32.48,1.43-.09,1.15.94-3.07.5-1.51-2.03-1.94-3.67-.07-.26-.67-.19-.66-.38,0-.25.86-2.27,1.3-1.78Z"/>
  <path class="cls-5" d="M58.6,167.66c.06.06-.06.68.16.97.33.44,1.05.25,1.14.33.96.78-1.24.59-1.3.64-.11.1-.06,2.64.15,2.94.32.48,1.43-.09,1.15.94-3.07.5-1.51-2.03-1.94-3.67-.07-.26-.67-.19-.66-.38,0-.25.86-2.27,1.3-1.78Z"/>
  <path class="cls-5" d="M89.68,201.64c.06.06-.06.68.16.97.33.44,1.05.25,1.14.33.96.78-1.24.59-1.3.64-.11.1-.06,2.64.15,2.94.32.48,1.43-.09,1.15.94-3.07.5-1.51-2.03-1.94-3.67-.07-.26-.67-.19-.66-.38,0-.25.86-2.27,1.3-1.78Z"/>
  <path class="cls-5" d="M28.82,202.94l2.27.17c.03.77-1.04.73-1.25,1.34-.22.65.09,2.88-.05,3.02h-.97v-4.53Z"/>
  <path class="cls-5" d="M42.41,180.28l2.27.17c.03.77-1.04.73-1.25,1.34-.22.65.09,2.88-.05,3.02h-.97v-4.53Z"/>
  <path class="cls-5" d="M31.41,225.6l2.27.17c.03.77-1.04.73-1.25,1.34-.22.65.09,2.88-.05,3.02h-.97v-4.53Z"/>
  <path class="cls-5" d="M92.92,218.8l-.66-.64c-3.44,2.2-3.41-1.26-3.23-3.89h.97c.15.14-.27,2.93.29,3.7.22.3,1.43.3,1.62.15.38-.31.29-2.75.36-3.37s-.1-.52.65-.48v4.53Z"/>
  <path class="cls-5" d="M27.52,173.49l-.66-.64c-3.44,2.2-3.41-1.26-3.23-3.89h.97c.15.14-.27,2.93.29,3.7.22.3,1.43.3,1.62.15.38-.31.29-2.75.36-3.37s-.1-.52.65-.48v4.53Z"/>
  <path class="cls-5" d="M38.85,207.47l-.66-.64c-3.44,2.2-3.41-1.26-3.23-3.89h.97c.15.14-.27,2.93.29,3.7.22.3,1.43.3,1.62.15.38-.31.29-2.75.36-3.37s-.1-.52.65-.48v4.53Z"/>
  <rect class="cls-5" x="48.57" y="189.35" width=".65" height="6.8"/>
  <rect class="cls-5" x="50.83" y="189.35" width=".65" height="6.8"/>
  <rect class="cls-5" x="40.15" y="180.28" width=".97" height="4.53"/>
  <rect class="cls-5" x="97.46" y="214.27" width=".97" height="4.53"/>
  <rect class="cls-5" x="37.88" y="191.61" width=".97" height="4.53"/>
  <rect class="cls-5" x="32.05" y="191.61" width=".97" height="4.53"/>
  <rect class="cls-5" x="36.59" y="212" width=".65" height="6.8"/>
  <rect class="cls-5" x="87.1" y="212" width=".65" height="6.8"/>
  <rect class="cls-5" x="23.64" y="180.28" width=".97" height="4.53"/>
  <path class="cls-5" d="M50.19,202.94l.65.64c.11.07,1.62-1.48,1.61-.16-2.01.49-1.42,1.95-1.62,3.57-.07.59.13.53-.64.48v-4.53Z"/>
  <circle class="cls-5" cx="369.91" cy="38.35" r="1.11"/>
  <circle class="cls-5" cx="106.68" cy="171.7" r="1.11"/>
  <circle class="cls-5" cx="233.12" cy="24.27" r="1.04"/>
  <rect class="cls-5" x="37.56" y="157.3" width=".65" height="4.86"/>
  <rect class="cls-6" x="34.32" y="214.27" width=".65" height="4.53"/>
  <rect class="cls-5" x="51.8" y="230.78" width="4.53" height=".65"/>
  <rect class="cls-5" x="34" y="230.78" width="4.53" height=".65"/>
  <rect class="cls-5" x="18.46" y="230.78" width="4.53" height=".65"/>
  <rect class="cls-5" x="67.35" y="219.45" width="4.53" height=".65"/>
  <rect class="cls-5" x="18.46" y="219.45" width="4.53" height=".65"/>
  <rect class="cls-5" x="18.46" y="185.46" width="4.53" height=".65"/>
  <rect class="cls-5" x="18.46" y="174.13" width="4.53" height=".65"/>
  <rect class="cls-5" x="18.46" y="208.12" width="4.53" height=".65"/>
  <rect class="cls-5" x="18.46" y="196.79" width="4.53" height=".65"/>
  <rect class="cls-6" x="68.32" y="202.94" width=".65" height="4.53"/>
  <rect class="cls-6" x="18.46" y="162.8" width="4.53" height=".32"/>
  <circle class="cls-5" cx="68.64" cy="201.64" r=".63"/>
  <circle class="cls-5" cx="34.64" cy="212.97" r=".63"/>
  <rect class="cls-5" x="97.13" y="206.5" width=".97" height=".97" transform="translate(-109.71 303.86) rotate(-89.8)"/>
  <path class="cls-5" d="M41.12,178.34c.49.55-.42,1.45-.97.97-.35-.31.66-1.31.97-.97Z"/>
  <path class="cls-5" d="M38.53,155.69c.35.31-.66,1.31-.97.97-.49-.55.41-1.46.97-.97Z"/>
  <path class="cls-5" d="M38.85,189.67c.49.55-.42,1.45-.97.97-.35-.31.66-1.31.97-.97Z"/>
  <path class="cls-5" d="M33.02,189.67c.49.55-.42,1.45-.97.97-.35-.31.66-1.31.97-.97Z"/>
  <path class="cls-5" d="M98.43,212.33c.49.55-.42,1.45-.97.97-.35-.31.66-1.31.97-.97Z"/>
  <path class="cls-5" d="M24.61,178.34c.49.55-.42,1.45-.97.97-.35-.31.66-1.31.97-.97Z"/>
  <path class="cls-5" d="M310.5,128.17l6.15-1.45c18.57-5.86,22.5-31.06,6.12-42.05-20.29-13.61-45.43,8.84-34.14,30.56,2.15,4.14,5.47,7.07,9.23,9.7l-58.61-13.42c-10.53-2.66-16.63-11.76-14.81-22.58,2.1-12.43,8.54-26.18,11.1-38.75,3.28-9.55,11.75-15.5,22-14.57,30.58,8.41,61.16,17.11,91.49,26.36,7.66,4.36,10.28,12.14,8.64,20.64-2.38,12.3-8.09,25.93-11.4,38.13-2.05,4.16-6.22,8.12-10.54,9.86-8.3,3.33-16.91-1.52-25.25-2.42Z"/>
  <path class="cls-5" d="M321.51,136.27c.31.42-1.91,2.32-2.28,3.06-1.75,3.5-.34,6.4,2.71,8.32,5,3.14,14.2,6.01,17.32,10.84,7.17,11.09-4.23,24.57-16.36,19.59-11.01-6.51-23.37-11.62-34.31-18.13-5.63-3.35-8.65-8.74-7.84-15.39.7-5.74,7.88-10.85,11.49-15.01l29.26,6.72Z"/>
  <path class="cls-5" d="M258.05,121.7c2.68.71,21.91,4.41,22.64,5.37.37.49,1.43,4.19,1.27,4.76-.11.36-3.12,3.38-3.77,4.34-1.58,2.32-2.96,5.58-3.26,8.4-.14,1.39.52,4.72-.85,4.98-8.32.25-16.62.69-24.94.96-5.92.19-11.42,1.97-15.68-3.39-3.69-4.64-2.44-11.17,2.28-14.54,3.89-2.78,12.07-1.64,16.97-2.13s6.33-4.17,5.35-8.73Z"/>
  <ellipse class="cls-5" cx="309.53" cy="104.22" rx="17.87" ry="17.87"/>
  <path class="cls-6" d="M97.13,42.08c28.71-1.13,57.45-3.55,86.28-4.21,11.36-.26,18.64,4.95,20.85,16.39-.71,13.99,1.09,29.17.05,43.02-.67,8.98-8.5,17.01-17.37,18.23-31.99-.18-64.1.57-96.03-.38-5.6-1.16-12.56-9.35-12.56-14.96v-16.99c2,1.31,3.7,2.91,5.87,4.01,11.68,5.92,26.13,1.26,31.92-10.41,7.35-14.83-2.49-32.74-19.01-34.05v-.65Z"/>
  <path class="cls-5" d="M153.79,121.38h32.54c.12,0,.48-.37.96-.34,1.06.08,3.2,3.43,3.68,4.44,3.11,6.58,1.66,13.98-4.37,18.18-12.16,4.71-24.54,12.69-36.62,17.12-10.27,3.76-19.94-4.46-18.13-15.21,1.53-9.08,13.41-10.99,20-14.96,3.62-2.18,4.19-5.68,1.94-9.23Z"/>
  <ellipse class="cls-5" cx="95.03" cy="66.19" rx="17.9" ry="17.89"/>
  <path class="cls-5" d="M125.89,146.57c-4.73.6-9.58.54-14.37.69-4.3.13-8.99,1.38-12.88-1.02-8.4-5.18-5.13-17.82,4.8-18.71,3.94-.35,11.02.49,14.48-1.06,2.43-1.09,2.44-2.97,3.37-5.11l20.95.06c.56.19,2.28,5.99,2.01,6.43-3.9,2.02-8.26,3.29-11.67,6.16-3.83,3.23-5.85,7.68-6.7,12.56Z"/>
  <path class="cls-1" d="M97.13,42.08v.65c-.58-.05-4.54.15-4.54-.16,1.5-.19,3.01-.43,4.54-.49Z"/>
  <path class="cls-6" d="M378.61,115.44c-3.69-3.64-5.33-8.54-5.63-13.63-.61-10.45-.63-25.2,0-35.63.55-9.11,6.48-18.02,16.05-19.24,8.62-1.1,18.7-.82,27.51-1.3,18.34-1.01,36.68-2.1,55.06-2.9,6.45-.28,11.42-1.66,17.53,1.54s9.68,9.6,10.14,16.41c.86,12.94-.63,26.77,0,39.8-.53,8.88-6.52,16.41-14.96,19.03-31.97,1.29-64.2.18-96.27.56-3.21-.28-7.17-2.43-9.43-4.66Z"/>
  <path class="cls-5" d="M469.8,125.91c-2.59,3.4-3.4,8.95,1.36,10.78,7.58,2.93,18.97,2.19,23.21,10.46,5.17,10.07-3.2,21.16-14.22,19.4-12.06-3.91-25.83-5.77-37.69-9.91-5.08-1.77-10.22-6.58-10.82-12.16-.76-7.03,4.79-12.73,7.89-18.57h30.27Z"/>
  <path class="cls-5" d="M404.44,125.95l21.34.11c.31.21,2.26,6.54,2.27,7.15.05,1.95-2.32,6.41-2.31,9.7,0,1.33,1.13,4.25.35,5.18-.71.84-4.84,2.58-6.02,2.72-7.75.93-17.31.75-25.23.99-4.3.13-8.99,1.38-12.88-1.02-8.28-5.1-5.2-17.66,4.52-18.68,4.04-.42,10.94.47,14.54-1,2.4-.98,2.86-2.86,3.43-5.15Z"/>
  <path class="cls-5" d="M478.86,36.57c9.08-8.48,24.09-4.42,28.41,7.04,2.03,5.39,1.46,12.59-2.51,16.92-.03-9.72-6.35-18.84-15.38-22.34-1.19-.46-4.74-1.61-5.84-1.61h-4.69Z"/>
  <rect class="cls-1" x="431.59" y="125.91" width="1.3" height=".65" transform="translate(305.03 558.18) rotate(-89.87)"/>
  <polygon class="cls-1" points="508.65 223.98 501.2 223.98 504.93 212 508.65 223.98"/>
  <polygon class="cls-1" points="424.15 223.98 427.87 212.32 431.92 223.98 424.15 223.98"/>
  <path class="cls-1" d="M363.51,29.17c3.14-.81,3.74,9.05.26,9.05-2.83,0-2.92-8.36-.26-9.05Z"/>
  <path class="cls-1" d="M100.28,162.53c3.14-.81,3.74,9.05.26,9.05-2.83,0-2.92-8.36-.26-9.05Z"/>
  <path class="cls-1" d="M226.55,15.27c4-1.18,3.43,10.88-.35,8.64-2.08-1.23-1.99-7.95.35-8.64Z"/>
  <path class="cls-1" d="M240.48,15.62c1.58,1.48,1.48,9.07-1.62,8.6-3.4-.51-2-12,1.62-8.6Z"/>
  <path class="cls-1" d="M374.69,37.78c-1.66-1.56-1.44-9.06,1.62-8.6,2.6.39,2.35,7.99.56,8.85-.6.29-1.71.19-2.18-.25Z"/>
  <path class="cls-1" d="M111.46,171.13c-1.66-1.56-1.44-9.06,1.62-8.6,2.6.39,2.35,7.99.56,8.85-.6.29-1.71.19-2.18-.25Z"/>
  <path class="cls-1" d="M41.34,157.98c2.27-.59,1.63,5.19-.56,3.05-.94-.91-.57-2.76.56-3.05Z"/>
  <path class="cls-1" d="M64.34,203.63c2.01-.56,2.32,2.73.83,3.15-2.01.56-2.32-2.73-.83-3.15Z"/>
  <path class="cls-1" d="M66.93,169.65c2.01-.56,2.32,2.73.83,3.15-2.01.56-2.32-2.73-.83-3.15Z"/>
  <path class="cls-1" d="M51.71,180.98c2.01-.56,2.32,2.73.83,3.15-2.01.56-2.32-2.73-.83-3.15Z"/>
  <path class="cls-1" d="M24.69,161.11c-1.03-1.07-.15-3.84,1.53-3.01,1.8.89.07,4.68-1.53,3.01Z"/>
  <path class="cls-1" d="M44.91,169.65c2.01-.56,2.32,2.73.83,3.15-2.01.56-2.32-2.73-.83-3.15Z"/>
  <path class="cls-1" d="M25.48,214.96c2.01-.56,2.32,2.73.83,3.15-2.01.56-2.32-2.73-.83-3.15Z"/>
  <path class="cls-1" d="M54.62,214.96c2.01-.56,2.32,2.73.83,3.15-2.01.56-2.32-2.73-.83-3.15Z"/>
  <path class="cls-1" d="M46.19,203.63c2.64-.87,2.76,3.96.01,3.13-1.34-.4-1.01-2.8-.01-3.13Z"/>
  <path class="cls-1" d="M63.46,193.55c-.45-.17-2.45.46-2.26-.48.3-1.45,2.61-1.07,2.26.48Z"/>
  <path class="cls-1" d="M75.44,216.21c-.45-.17-2.45.46-2.26-.48.3-1.45,2.61-1.07,2.26.48Z"/>
  <path class="cls-1" d="M48.24,182.22c-.45-.17-2.45.46-2.26-.48.3-1.45,2.61-1.07,2.26.48Z"/>
  <path class="cls-1" d="M36.91,170.9c-.45-.17-2.45.46-2.26-.48.3-1.45,2.61-1.07,2.26.48Z"/>
  <path class="cls-1" d="M51.48,170.9c-.45-.17-2.45.46-2.26-.48.3-1.45,2.61-1.07,2.26.48Z"/>
  <path class="cls-1" d="M82.89,227.54c-.45-.17-2.45.46-2.26-.48.3-1.45,2.61-1.07,2.26.48Z"/>
  <path class="cls-1" d="M78.68,204.88c-.45-.17-2.45.46-2.26-.48.3-1.45,2.61-1.07,2.26.48Z"/>
  <path class="cls-1" d="M50.51,227.54c-.45-.17-2.45.46-2.26-.48.3-1.45,2.61-1.07,2.26.48Z"/>
  <path class="cls-1" d="M65.4,227.54c-.45-.17-2.45.46-2.26-.48.3-1.45,2.61-1.07,2.26.48Z"/>
  <path class="cls-1" d="M32.05,159.24h-2.1c-.73-1.77,2.01-1.76,2.1,0Z"/>
  <path class="cls-1" d="M63.41,169.65c.1.06.48,1.14.37,1.24h-2.26c-.41-1.14,1.16-1.69,1.89-1.24Z"/>
  <path class="cls-1" d="M55.36,193.88c.99.98-1.68,2.53-1.94,1.13-.15-.82,1.62-1.45,1.94-1.13Z"/>
  <path class="cls-1" d="M46.3,193.88c.99.98-1.68,2.53-1.94,1.13-.15-.82,1.62-1.45,1.94-1.13Z"/>
  <circle class="cls-1" cx="25.7" cy="205.2" r="1.6"/>
  <circle class="cls-1" cx="28.29" cy="227.86" r="1.6"/>
  <circle class="cls-1" cx="101.79" cy="216.53" r="1.6"/>
  <circle class="cls-1" cx="83.66" cy="216.53" r="1.6"/>
  <circle class="cls-1" cx="49.66" cy="216.53" r="1.6"/>
  <circle class="cls-1" cx="40.67" cy="216.53" r="1.6"/>
  <circle class="cls-1" cx="69.16" cy="227.86" r="1.6"/>
  <path class="cls-1" d="M55.69,205.21c0,1.59-.4,1.83-1.94,1.62-.32-1.56.58-1.6,1.94-1.62Z"/>
</svg>