<?xml version="1.0" encoding="UTF-8"?>
<svg id="Layer_1" data-name="Layer 1" xmlns="http://www.w3.org/2000/svg" viewBox="0 0 453.67 740.63">
  <defs>
    <style>
      .cls-1 {
        fill: #b8bd99;
      }

      .cls-2 {
        fill: #7d78b6;
      }

      .cls-3 {
        fill: #44bdc5;
      }

      .cls-4 {
        fill: #7e79b9;
      }

      .cls-5 {
        fill: #ba443b;
      }

      .cls-6 {
        fill: #bb443b;
      }
    </style>
  </defs>
  <path class="cls-3" d="M433.1,0c1.79.47,3.57.73,5.32,1.36,5.7,2.04,11.17,7.41,13.36,13.05l1.55,6.17c-.81,13.46,1.09,28.19,0,41.5-.86,10.54-10.1,20.8-20.79,21.91-1.27.13-4.9-.23-5.62.21-.22.14-2.68,4.25-2.7,4.51-.05.5.17.55.55.73,8.32,2.42,18.37,2.78,23.22,11.08,7.98,13.65-3.5,29.97-19.02,26.91-4.06-.8-8.24-2.45-12.33-3.27.34,1.57.45,2.93.25,4.54-1.04,8.31-6.02,18.54-7.63,27.01-4.02,8.74-16.18,9.79-21.49,1.62-4.19-6.45-.47-12.56,1.1-19.1h-10.29c6.99,9.45.62,22.41-11.5,21.28-3.88-.36-6.39-2.46-8.91-5.15-1.52-1.63-3.22-4.47-4.79-5.84-.3-.26-.38-.44-.86-.33-4.59,7.67-9.43,16.14-19.97,12.93-1.37-.42-2.35-1.54-3.68-1.61-.81,2.46-3.7,4.81-6.1,5.74-1.46.57-2.77.65-4.2.96h-1.71c-10.05-3.24-19.95-7.28-29.73-11.44-5.84-3.76-8.4-10.96-5.31-17.45,3.6-7.56,13.35-16.38,17.67-24,9.56-8.34,23.49-1.23,21.74,11.62-.66,4.79-5.46,8.89-7.8,12.95l11.99,4.81,15.3-22.61c3.68-4.44,9.66-7.04,15.33-5.1s7.94,7.15,11.9,10.9c-.19-4.19,2.24-8.4,5.82-10.47.8-.47,3.92-1.87,4.64-1.87h7.03c-.69-.58-2.75-3.62-3.31-3.72-.35-.06-3,1.61-3.8,1.92-5.32,2.07-16.15,1.53-22.22,1.78-7.02.29-14.92,2.29-21.19-1.76-8.3-5.35-8.67-18.42-.74-24.29,1.55-1.15,6.04-3.09,7.89-3.09h7.72v-.34h-7.37c-2.15,0-7.81-3.04-9.59-4.47-12.4-9.93-7.31-26.27-8.4-39.96-.37-4.67-1.5-6.69-.6-11.9,2.28-13.26,8.97-22.35,23.06-23.58,26.43-2.32,53.2-2.1,79.58-3.76l.83-.36h5.83ZM330.57,48.7v15.95c0,5.71,8.52,14.05,14.62,13.5,27.49-1.09,56.3,1.6,83.64.06,10.56-.6,18.03-7.68,18.69-18.35s.69-26.41,0-37.07c-.42-6.46-3.69-12.2-9.61-15.09-5.08-2.48-9.3-1.37-14.59-1.19-19.57.65-39.11,2.01-58.64,3.09-5.08.28-10.19.26-15.25.69l5.03,1.65c24.53,11.35,11.92,48.39-14.64,41.73-3.46-.87-6.48-2.82-9.26-4.98ZM361.73,32.26c0-8.92-7.23-16.15-16.15-16.15s-16.15,7.23-16.15,16.15,7.23,16.15,16.15,16.15,16.15-7.23,16.15-16.15ZM360.1,84.07c-.49.32-.19,4.05-3.63,5.46-4.66,1.91-11.58,0-16.19,1.64-5.79,2.06-7.9,9.42-3.71,14.13,3.76,4.22,9.83,2.55,14.76,2.4,5.53-.17,21.35.1,25.56-1.88,9.69-4.57,4.02-14.22,1.72-21.63-2.41.15-17.54-.73-18.49-.11ZM385.77,84.03h-.68s0,1.03,0,1.03c.5-.12.79-.55.68-1.03ZM419.72,84.03h-26.58l-5.25,8.81c.26,1.97.75,3.72.62,5.76-.25,3.8-2.96,5.36-.48,8.72,2.11,2.85,5.11,4.29,8.37,5.35,10.94,3.54,22.88,5.56,33.93,8.94,15.18,2.03,20.12-18.24,5.09-23.27-4.13-1.38-9.71-1.9-13.65-3.5-2.11-.86-3.73-3.21-3.78-5.5-.05-2,1.22-3.5,1.72-5.3ZM306.81,116c-1.25.26-2.85,1.52-3.67,2.51-4.47,6.94-10.64,13.4-15.04,20.28-3,4.7-1.33,9.1,3.48,11.49,5.93,2.94,17,7.21,23.37,9.21,2.63.82,4.21,1.14,6.67-.54,3.02-2.07,3.55-5.19,2.33-8.46-2.01-5.41-13.4-5.12-15.75-9.62-4.18-7.99,10.25-12.89,6.5-21.24-1.36-3.03-4.75-4.25-7.89-3.61ZM411.76,122.86l-16.93-4.5c-5.09.63-14.78-2.02-18.97.84-4.75,3.25-4.75,10.08,0,13.33s17.84-2.34,17.12,6.54c-.41,5.05-4.94,10.93-1.52,15.93,3.99,5.83,11.71,4.19,14.22-2.2,1.9-4.83,6.08-18.83,6.76-23.76.17-1.26.18-5.32-.67-6.18ZM351.06,120.47c-1.7.25-3.87,1.63-5.05,2.83-5.58,5.68-10.3,16.2-15.5,22.57-2.39,4.72,1.68,10.21,6.74,9.84,7.64-.56,8.69-16.69,18.01-13.22,3.09,1.15,6.47,7.62,9.43,9.77,6.12,4.45,14.06-3.33,9.43-9.77-5.01-6.98-12.55-13.64-17.82-20.59-1.59-1.25-3.21-1.74-5.23-1.45Z"/>
  <path class="cls-5" d="M0,16.12c1.08-.05.95-1.32,1.88-2.07,1.56-1.26,6.55-2.05,5.66,1.03-7.29-2.78-7.32,8.62,0,5.83.83,2.49-2.67,2.33-4.4,1.83-1.81-.53-1.98-1.69-3.15-2.86v-3.77Z"/>
  <path class="cls-5" d="M0,44.93c.95-1.39,4.09,1.19,4.76-.91s-3.64-1.9-4.07-4.07c-.4-2.05.57-3.36,2.6-3.57,1.6-.17,4.09.15,2.36,2.03-1.49-1.38-4.63-.13-2.56,1.54,1.65,1.32,3.58.66,3.45,3.79s-4.44,3.01-6.55,1.88v-.69Z"/>
  <path class="cls-4" d="M318.57,166.18h106.99s0,531.75,0,531.75h-27.43v4.46h11.32v33.27h4.8v-33.27h11.32v37.73H86.41s0-573.93,0-573.93h339.5s0,574.27,0,574.27H86.06s0-574.27,0-574.27h230.79s1.71,0,1.71,0ZM265.76,267.85c9.34-31.39-11.94-64.33-44.45-68.2-39.62-4.72-70.15,33.43-56.71,71.13,1.62,4.56,3.95,8.28,6.18,12.51-22.67,5.2-39.88,25.06-42.17,48.19l-9.26,113.18c.26,25.45,15.46,50.42,40.47,57.97l-28.22,78.43c-11.12,35.97,10.19,75.54,48.97,79.49,25.34,2.58,51.05,4.08,76.47,6.17,12.87,1.06,25.92,2.63,38.75,3.43,19.03,1.18,37.3-7.1,49-21.98,9.6-12.21,14.48-24.97,20.28-39.05,12.13-29.45,24.13-58.97,36.52-88.32,5.47-15.44,3.79-32.51-4.53-46.58s-23.29-23.97-38.34-27.68l11.62-7.4c23.9-19.54,30.99-53.47,10.66-78.49-3.77-4.64-8.61-8.33-12.86-12.52-17.49-17.26-34.97-34.57-52.47-51.79-8.13-8-15.06-16.95-25.31-22.36-7.62-4.03-15.97-5.84-24.58-6.12ZM254.1,703.07c-.14-1.08.92-2.45.98-3.33.07-1.25-5.21-2.07-6.29-2.15-14.07-1.15-23.19,8.12-22.13,22.13,1.13,14.98,15.91,19.28,28.48,14.9l-1.04-4.11c-9.97,4.1-21.37.41-22.3-11.48-1.1-14.16,9.54-20.35,22.3-15.96ZM366.22,698.97c-14.89-5.03-29.57,3.37-28.41,20.01.89,12.8,10.98,18.72,23.06,16.98.74-.11,5.12-1.08,5.32-1.37.37-.51-.75-2.93-.67-3.73-8.27,2.33-18.22,1.91-21.51-7.46-4.12-11.73,2.76-22.96,15.83-21.66,1.03.1,4.9,1.37,5.16,1.3.62-.15,1.44-3.82,1.22-4.07ZM258.56,735.65h5.14l3.76-11.5,13.35-.12,3.81,11.62h5.14l-12.65-37.52-5.37-.23-13.19,37.75ZM303.13,697.93h-6.17l-2.74,37.73h4.8l1.72-31.89,3.42,11.15,6.79,19.96c.45,1.21,3.6,1.1,4.14.21l11.2-32.02,1.54,32.58h4.8l-2.4-37.73h-6.17l-10.97,30.87c-2.15-10.64-6.76-20.55-9.95-30.87ZM401.21,735.65l-12.72-37.18c-.74-1.02-4.51-.51-5.81-.38l-12.53,36.17-.15,1.39h4.8l3.73-11.46c.39-.55,11.77-.12,13.43-.05l3.76,11.5h5.49Z"/>
  <path class="cls-2" d="M11.23,54.62c6.23-.91,11.43,2.12,13.35,8.07,1.04,222.13.13,444.43.46,666.63-1.03,13.02-18.65,14.87-22.54,2.63-1.04-222.13-.13-444.43-.46-666.63.14-4.85,4.31-9.99,9.19-10.7Z"/>
  <path class="cls-3" d="M118.99,131.7c-.05.06-.13.74.21.71,3.34,2.34,7.13,4.53,9.9,7.52,6.07-8.6,14.03-15.72,20.93-23.66,6.29-5.13,15.3-4.67,20.2,2.07,5.2,7.14,9.62,16,14.65,23.42.14.2.45.71.63.57.57-1.98,1.77-3.81,2.81-5.59,2.83-4.81,9.82-17.8,13.49-20.81,4.5-3.69,9.98-4.39,15.01-1.31.71.44,2.63,2.27,2.81,2.27.22,0,1.82-1.44,2.34-1.72,7.01-3.83,11.06-1.44,16.18,3.15,4.81,4.31,13.38,11.88,17.16,16.8,7.11,9.24-1.77,22.41-12.88,19.4-2.35-.64-4.52-2.38-6.33-3.95-2.06,2.4-5.48,3.87-8.63,4.08-.71.05-1.79-.47-2.12-.28-.06.03-.39.83-.72,1.17-5.6,5.72-13.53,5.02-18.7-.81-6.54,6.23-16.38,4.13-20.24-3.84-2.49,7.7-10.81,11.56-18.24,7.95-4.84-2.35-6.97-8.23-9.89-12.41-.63,0-6.71,7.33-8.05,8.41-5.92,4.76-13.54,3.5-18.52-1.89-1.01,4.02-4.93,6.82-8.86,7.8-3.55.89-6.66.13-9.77-1.69-5.62-3.28-16.91-11.56-21.84-15.88-6.38-5.6-7.33-14.79-.84-20.74,6.6-6.05,14.74-11.27,21.45-17.3,10.56-6.15,22.65,3.47,18.99,15.22-1.52,4.87-6.7,7.68-10.28,11-.27.25-.82.3-.85.34ZM116.5,109.49c-1.39.24-2.22,1.07-3.3,1.84-6.8,4.84-13.06,11.22-19.94,16.07-3.53,4.31-2.13,8.34,1.76,11.65,4.91,4.17,14.6,11.24,20.1,14.54,3.47,2.08,7.21,2.1,9.65-1.53,6.19-9.2-8.97-11.86-11.27-17.42-3.48-8.41,9.43-10.36,11.09-17.05,1.23-4.96-3.18-8.93-8.08-8.09ZM245.06,131.13c-2.79-2.82-9.26-9.82-12.11-11.72-4.43-2.96-9.23-1.08-12.06,2.92-3.39,4.8-9.02,14.94-11.56,20.34-1.56,3.32-2.26,5.09-.28,8.53,2.73,4.75,9.25,4.93,12.61.71,1.84-2.32,4.74-9.65,6.82-10.67,6.14-3.04,9.87,8.16,15.53,8.96s10.45-3.93,8.95-9.64c-.71-2.69-5.74-7.22-7.9-9.41ZM147.31,148.36c2.03-1.98,5.26-6.71,7.69-7.57,9.26-3.28,9.66,11.6,16.44,13.05,3.48.74,6.93-.77,8.18-4.21,1.01-2.78.31-4.36-1.02-6.73-4.01-7.17-9.57-14.11-13.67-21.31-3.19-3.91-8.17-3.1-11.61.03-4.52,4.11-10.88,11.47-14.96,16.25-3.11,3.64-6.42,8.01-1.55,12.19,3.96,3.4,7.45,1.28,10.5-1.7ZM208.74,119.09c-1.94.41-4.09,2.85-5.19,4.41-2.94,4.16-9.92,15.35-11.76,19.79-3.07,7.39,5.55,11.77,9.85,6.76,2.32-2.7,1.9-5.89,3.47-8.87l10.44-18.4c.47-.96-1.2-2.38-1.96-2.87-1.45-.95-3.14-1.18-4.85-.82ZM229.07,147.81c.45.36,2.86-1.32,2.73-1.86-.06-.25-.84-.96-1.18-.88-.46.11-1.2,2.23-1.55,2.74Z"/>
  <polygon class="cls-5" points="425.55 740.46 425.55 740.11 425.55 702.39 414.24 702.39 414.24 735.65 409.44 735.65 409.44 702.39 398.12 702.39 398.12 697.93 425.55 697.93 425.55 166.18 425.91 166.18 425.92 740.46 425.55 740.46"/>
  <path class="cls-5" d="M68.93,423.56v4.8c-4.98.27-10.32-.36-15.26,0-4.41.33-9.28,1.95-7.83,7.48.43,1.65,3.43,4.52,5.08,4.52h18v4.8h-16.63c-.17,0-2.16.47-2.51.58-5.89,1.81-5.19,8.7-.06,10.91.43.18,2.63.86,2.91.86h16.29v4.8h-26.23c-.07,0-.39.51-.51.34l.03-4.42,4.07-.72c-4.94-2.43-6.45-9.63-2.74-13.8.82-.92,2.11-1.38,2.88-1.96.81-.62-1.34-1.4-2.03-2.07-6.1-5.91-1.85-16.13,6.53-16.13h18Z"/>
  <path class="cls-5" d="M65.84,725.71h14.06v4.8l-37.72.34v-4.46s4.12-.34,4.12-.34c-5.98-4.54-6.63-13.39-.51-18.17,3.35-2.61,7.85-3.13,11.99-2.75,10.66.99,15.96,12.76,8.06,20.57ZM53.76,710.03c-10.57,1.2-10.69,13.97-1.66,15.53,4.64.8,12.08.42,13.24-5.31,1.52-7.49-4.98-10.96-11.58-10.21Z"/>
  <path class="cls-5" d="M68.93,621.1v5.66c0,.78-11.18,8.04-12.69,9.09.3.44,2.38,2.74,2.57,2.74h10.12v4.8H29.49v-4.8h24.35c.22-.81-.21-.58-.44-.78-3.38-3.02-7.13-5.64-10.37-8.83-.29-.28-.85-.29-.85-.33v-6.17l11.15,9.96,15.6-11.33Z"/>
  <path class="cls-5" d="M52.73,674.7c21.76-2.66,22.41,27,2.29,26.33-17.23-.57-18.05-24.4-2.29-26.33ZM53.41,679.84c-3.62.5-7.54,2.77-8.06,6.69-1.47,11.03,16.93,12.36,19.96,3.85,2.65-7.43-5.56-11.41-11.91-10.53Z"/>
  <path class="cls-5" d="M56.58,468.49v18.86c9.72-.26,10.27-9.37,7.89-16.79,2.64-.49,3.39-1.71,4.28,1.35,2.68,9.15-.32,19.33-10.98,20.23-20.94,1.78-22.22-26.31-1.19-23.66ZM52.81,472.94c-10.64.46-9.8,13.31,0,14.4v-14.4Z"/>
  <path class="cls-5" d="M56.58,595.38v19.21c3.68-.55,6.84-1.52,8.29-5.26,1.6-4.13.47-7.78-.4-11.89,3.46-.1,3.34-1.87,4.36,1.99,3.24,12.28-3.25,21.89-16.44,19.53-8.98-1.6-14.8-12.29-8.48-19.63,1.3-1.51,5.47-3.95,7.37-3.95h5.32ZM52.81,600.18c-10.55-.28-9.87,13.62,0,14.06v-14.06Z"/>
  <path class="cls-5" d="M68.93,396.46c-.12.69.16,4.31,0,4.46-.11.11-2.53.03-3.09.35,6.26,5.77,4.84,17.37-5.33,16.47-5.3-.47-7.57-5.92-8.33-10.53-.28-1.72-.17-3.55-.39-5.1-.08-.54.2-.52-.52-.51-2.9,0-5.56,1.67-5.97,4.67-.44,3.22.76,5.76,1.67,8.7-.83.14-2.66,1.1-3.37.65-.34-.21-1.45-3.71-1.6-4.39-3.9-17.63,11.98-14.02,23-14.4,1.27-.04,2.57-.61,3.93-.36ZM55.21,401.61c0,4.02.6,11.34,6,11.35,5.06,0,5.9-6.04,3.06-9.27-.51-.58-2.77-2.08-3.41-2.08h-5.66Z"/>
  <polygon class="cls-2" points="86.41 166.19 86.41 740.11 425.55 740.11 425.55 740.46 86.06 740.46 86.06 166.19 86.41 166.19"/>
  <path class="cls-5" d="M68.93,497.98v5.14h-18c-.26,0-2.1.74-2.47.96-4.68,2.66-3.03,9.74,1.72,11.46.33.12,1.97.61,2.13.61h16.63v4.8l-26.75.34v-4.46s4.12-.51,4.12-.51c-6.82-4.36-6.45-14.79,1.62-17.59.53-.18,2.63-.76,3.01-.76h18Z"/>
  <path class="cls-5" d="M46.64,540.51c-3.1,7.96.46,16.05,9.79,15.44,8.56-.56,10.67-8.3,8.05-15.43.71-.09,3.32-.96,3.73-.67.34.24,1.3,4.9,1.36,5.67,1.78,21.22-29.77,20.61-28.03-.69.33-4.09.63-5.98,5.1-4.33Z"/>
  <path class="cls-5" d="M46.64,649.92c-2.04,5.35-1.48,12.23,4.56,14.46,5.2,1.93,11.83.46,13.77-5.21,1.21-3.52.18-6.16-.51-9.6.77.32,3.09-.74,3.45-.53,1.39.81,1.81,7.33,1.69,8.93-1.28,17.88-29.88,16.19-28.07-4.07.08-.9.68-4.07,1.16-4.68.71-.91,2.92.69,3.95.69Z"/>
  <path class="cls-5" d="M45.95,576.18v7.2h14.92c.94,0,3.52-.85,4.1-1.73,1.07-1.64-.1-4.57.52-4.97.41-.26,3.24-.32,3.48.04,1.42,2.1.65,7.55-1.24,9.4-.83.81-3.72,2.06-4.8,2.06h-16.97l-.2,4.12h-3.58s0-4.12,0-4.12h-6.34c-.89-1.38-.96-3.24-1.54-4.8h7.37s.51-.48.51-.51v-6.69h3.77Z"/>
  <rect class="cls-6" x="42.18" y="529.19" width="26.75" height="4.8"/>
  <path class="cls-5" d="M19.2,13.38c.41-.4,1.73.02,1.54,1.03,1.39-1.63,3.28-1.75,5.08-.68.31.19.14.7.42.69.71-.02,1.59-1.61,3.74-1.37.99.11,2.61,1.22,2.61,2.22v7.37h-1.71v-6.34c0-1.21-2.28-2.14-3.34-1.11-.06.06-.77,1.37-.77,1.45v6h-1.71v-6.34c0-2.11-4.11-1.81-4.11,0v6.34h-1.71c.25-1.2-.33-8.94,0-9.26Z"/>
  <path class="cls-5" d="M200.95,23.15c-.46,3.14-3.27,3.82-6.02,3.62-1.73-.13-2.12-.17-1.87-2.07,3.21,1.35,6.05.87,6.17-3.09-.93.07-1.23.85-2.25,1.01-7.82,1.24-5.71-13.65,2.08-8.56.29-1.03.93-.67,1.88-.69-.32,3.02.43,6.87,0,9.77ZM198.45,15.19c-3.43-3.41-6.67,4.34-2.98,5.9s4.87-4.02,2.98-5.9Z"/>
  <path class="cls-5" d="M123.39,13.99c.1-.05.31-1.14,1.77-.61-1.24,3.26,1.52,12.29-2.99,13.3-.97.22-4.95.33-5.2-.83-.41-1.97,1.9-.47,2.86-.44,2.53.09,3.32-1.51,3.26-3.8-4.61,3.15-8.12-.9-6.7-5.84.57-1.97,3.15-3.11,5.08-2.66.75.17,1.36,1.16,1.9.89ZM120.27,14.46c-3.35.61-3.19,7.51.93,6.81,2.98-.5,2.63-7.46-.93-6.81Z"/>
  <path class="cls-5" d="M125.85,32.24v13.72c-1.2.02-1.81.37-1.88-1.03-1.99,2.47-6.33,1.47-6.95-1.62-1.05-5.2,2.19-8.82,7.12-5.92v-5.14h1.71ZM120.96,37.78c-3.36.61-3.08,7.25.55,7.05,3.9-.21,3.2-7.73-.55-7.05Z"/>
  <path class="cls-5" d="M203.69,32.24v8.23c2-1.45,2.56-4.58,5.49-3.77-.56,1.22-3.21,2.61-3.1,3.91.09,1.04,4.05,5.15,3.78,5.34-.77-.04-1.69.18-2.4-.17-1.58-.76-4-8.74-3.77.17h-1.72v-13.72h1.71Z"/>
  <path class="cls-5" d="M185.08,13.12c7.31-1.18,7.3,8.75,2.24,9.78-6.95,1.42-8.04-8.84-2.24-9.78ZM185.42,14.46c-3.09.63-2.99,7.4.93,7.13s3.46-8.03-.93-7.13Z"/>
  <path class="cls-5" d="M76.72,36.44c7.31-1.18,7.3,8.75,2.24,9.78-6.95,1.42-8.04-8.84-2.24-9.78ZM77.06,37.79c-3.09.63-2.99,7.4.93,7.13s3.46-8.03-.93-7.13Z"/>
  <path class="cls-5" d="M206.69,13.12c7.31-1.18,7.3,8.75,2.24,9.78-6.95,1.42-8.04-8.84-2.24-9.78ZM207.03,14.46c-3.09.63-2.99,7.4.93,7.13s3.46-8.03-.93-7.13Z"/>
  <path class="cls-5" d="M16.46,41.84h-6.52c.14,3.26,3.29,3.59,5.83,2.4.52,1.93-.84,2.05-2.57,2.08-3.24.05-5.41-1.57-5.33-4.98.16-6.98,9.65-6.57,8.58.5ZM14.75,40.47c-.18-3.73-4.73-3.67-4.8,0h4.8Z"/>
  <path class="cls-5" d="M43.21,18.52h-6.52c.14,3.26,3.29,3.59,5.83,2.4.52,1.93-.84,2.05-2.57,2.08-3.24.05-5.41-1.57-5.33-4.98.16-6.98,9.65-6.57,8.58.5ZM41.49,17.15c-.18-3.73-4.73-3.67-4.8,0h4.8Z"/>
  <path class="cls-5" d="M151.57,18.52h-6.52c.14,3.26,3.29,3.59,5.83,2.4.52,1.93-.84,2.05-2.57,2.08-3.24.05-5.41-1.57-5.33-4.98.16-6.98,9.65-6.57,8.58.5ZM149.85,17.15c-.18-3.73-4.73-3.67-4.8,0h4.8Z"/>
  <path class="cls-5" d="M43.21,41.84h-6.52c-.03,1.95,1.73,3.16,3.59,3.1.74-.02,2.15-.78,2.24-.7.05.04.39,1.12.21,1.38-1.12,1.6-6.73.87-7.52-2.13-2.22-8.47,8.99-10.19,8-1.65ZM41.49,40.47c.24-3.83-4.7-3.53-4.8,0h4.8Z"/>
  <path class="cls-5" d="M218.78,41.84h-6.52c-.03,1.95,1.73,3.16,3.59,3.1.74-.02,2.15-.78,2.24-.7.05.04.39,1.12.21,1.38-1.12,1.6-6.73.87-7.52-2.13-2.22-8.47,8.99-10.19,8-1.65ZM217.06,40.47c.24-3.83-4.7-3.53-4.8,0h4.8Z"/>
  <path class="cls-5" d="M92.93,18.52h-6.52c-.03,1.95,1.73,3.16,3.59,3.1.74-.02,2.15-.78,2.24-.7.05.04.39,1.12.21,1.38-1.12,1.6-6.73.87-7.52-2.13-2.22-8.47,8.99-10.19,8-1.65ZM91.21,17.15c.24-3.83-4.7-3.53-4.8,0h4.8Z"/>
  <path class="cls-5" d="M141.62,45.96c-.95-.01-1.59.35-1.88-.69-7.16,4.16-7.86-6.4-.17-5.15.02-3.04-2.31-2.55-4.45-1.71l-.35-1.37c1.88-1.17,6.86-.93,6.86,1.88v7.03ZM139.91,41.16c-1.34.24-3.78.23-4.01,1.93-.46,3.39,5.24,1.52,4.01-1.93Z"/>
  <path class="cls-5" d="M16.46,22.64c-.95-.01-1.59.35-1.88-.69-7.16,4.16-7.86-6.4-.17-5.15.02-3.04-2.31-2.55-4.45-1.71l-.35-1.37c1.88-1.17,6.86-.93,6.86,1.88v7.03ZM14.74,17.84c-1.34.24-3.78.23-4.01,1.93-.46,3.39,5.24,1.52,4.01-1.93Z"/>
  <path class="cls-5" d="M75.33,13.83c1.66,1.52.22,6.59,1.14,8.81-1.45.58-1.77-.69-1.89-.7-.56,0-1.13.88-2.08,1.03-4.18.63-5.64-5.03-.29-6.13,1.02-.21,3.63.47,1.67-1.73-1.55-1.73-3.87.41-4.27-.02-.1-.1-.02-1.1.16-1.38.68-1.05,4.52-.83,5.56.12ZM74.41,17.84c-1.04.19-2.57.17-3.29,1-2.68,3.08,4.5,4.44,3.29-1Z"/>
  <path class="cls-5" d="M198.44,37.15c1.66,1.52.22,6.59,1.14,8.81-1.45.58-1.77-.69-1.89-.7-.56,0-1.13.88-2.08,1.03-4.18.63-5.64-5.03-.29-6.13,1.02-.21,3.63.47,1.67-1.73-1.55-1.73-3.87.41-4.27-.02-.1-.1-.02-1.1.16-1.38.68-1.05,4.52-.83,5.56.12ZM197.52,41.16c-1.04.19-2.57.17-3.29,1-2.68,3.08,4.5,4.44,3.29-1Z"/>
  <path class="cls-5" d="M57.16,13.83c1.66,1.52.22,6.59,1.14,8.81-1.45.58-1.77-.69-1.89-.7-.56,0-1.13.88-2.08,1.03-4.18.63-5.64-5.03-.29-6.13,1.02-.21,3.63.47,1.67-1.73-1.55-1.73-3.87.41-4.27-.02-.1-.1-.02-1.1.16-1.38.68-1.05,4.52-.83,5.56.12ZM56.24,17.84c-1.04.19-2.57.17-3.29,1-2.68,3.08,4.5,4.44,3.29-1Z"/>
  <path class="cls-5" d="M114.19,22.64h-1.71v-5.66c0-2.89-4.8-2.9-4.8,0v5.66h-1.71v-9.26c1.2-.02,1.81-.37,1.88,1.03,1.06-1.73,4.31-1.88,5.49-.34.15.19.86,1.78.86,1.88v6.69Z"/>
  <path class="cls-5" d="M70.98,45.96h-1.71v-5.66c0-2.89-4.8-2.9-4.8,0v5.66h-1.71v-9.26c1.2-.02,1.81-.37,1.88,1.03,1.06-1.73,4.31-1.88,5.49-.34.15.19.86,1.78.86,1.88v6.69Z"/>
  <path class="cls-5" d="M144.37,38.07c-.34-.31-1.83.84-1.37-1.37,2.09.27,1.1-.4,1.46-1.8.71-2.78,1.92-3.14,4.72-3v1.72c-2.08-.62-2.81.61-3.05,2.55.19.79,1.74.52,2.36.54.95,2.16-2.4,1.18-2.4,1.37v7.89h-1.71c-.22-1.04.29-7.62,0-7.89Z"/>
  <path class="cls-5" d="M50.75,36.7l-.35,1.71c-1.65-.57-2.59-1.33-3.74.56-.25,1.48,4.76,1.38,4.43,4.72-.03.33-.46,1.44-.66,1.68-1,1.22-6.83,1.7-5.5-1.13.17-.17,3.92,1.78,4.14-.52.2-2.14-4.04-1.5-4.16-4.46-.13-3.13,3.59-3.26,5.85-2.56Z"/>
  <path class="cls-5" d="M158.75,13.39c.21.25.04,1.45-.5,1.69-1.34-1.27-4.42-.32-2.76,1.39,1.27,1.32,5.12,1.37,3.43,5.13-.7,1.57-5.37,1.74-5.98,1.02-.21-.26.03-1.61.51-1.7.58-.1,1.83,1.42,3.39.32,2.49-1.75-2.81-2.8-3.39-4.09-.86-1.92.13-3.7,2.13-4.03.58-.1,2.93.01,3.16.28Z"/>
  <path class="cls-5" d="M67.55,13.38c-.14,2.83-.86,1.04-2.53,1.14-4.13.23-4.18,6.75,0,6.98,1.67.09,2.39-1.69,2.53,1.14-4.48,1.3-8.43-.79-7.39-5.85.74-3.6,4.21-4.25,7.39-3.41Z"/>
  <path class="cls-5" d="M33.51,528.58c5.63-1.27,5.38,7.69-.27,5.95-2.59-.8-2.27-5.38.27-5.95Z"/>
  <path class="cls-5" d="M80.93,19.72c.03.2.53,1.29.67,1.39,1.02.68,2.12-.87,1.73,1.87-6.16,1.82-3.38-7.55-4.11-8.23-.1-.1-1.05.07-1.38,0-.46-2.21,1.04-1.05,1.38-1.37.38-.36-1.06-2.89,1.54-2.75.19,2.59.08,3.02,2.92,2.75,1.02,2.21-2.74,1.15-2.74,1.37,0,1.44-.21,3.68,0,4.97Z"/>
  <path class="cls-5" d="M137.85,14.75c-.1-.1-1.34.07-1.72,0-.54-2.12,1.08-.96,1.57-1.69.54-.79-.59-2.41,1.34-2.43,1.16-.01.18,2.41.52,2.75.44.44,3.11-1.03,2.4,1.37-.12.13-2.4-.12-2.4,0v5.66c0,1.39,2.22.68,2.4.86.76,2.87-4.12,1.77-4.12.17,0-.93.24-6.46,0-6.69Z"/>
  <path class="cls-5" d="M161.85,14.75c-.1-.1-1.34.07-1.72,0-.54-2.12,1.08-.96,1.57-1.69.54-.79-.59-2.41,1.34-2.43,1.16-.01.18,2.41.52,2.75.44.44,3.11-1.03,2.4,1.37-.12.13-2.4-.12-2.4,0v5.66c0,1.39,2.22.68,2.4.86.76,2.87-4.12,1.77-4.12.17,0-.93.24-6.46,0-6.69Z"/>
  <path class="cls-5" d="M150.54,38.07c-.1-.1-1.34.07-1.72,0-.54-2.12,1.08-.96,1.57-1.69.54-.79-.59-2.41,1.34-2.43,1.16-.01.18,2.41.52,2.75.44.44,3.11-1.03,2.4,1.37-.12.13-2.4-.12-2.4,0v5.66c0,1.39,2.22.68,2.4.86.76,2.87-4.12,1.77-4.12.17,0-.93.24-6.46,0-6.69Z"/>
  <path class="cls-5" d="M186.54,38.07c-.1-.1-1.34.07-1.72,0-.54-2.12,1.08-.96,1.57-1.69.54-.79-.59-2.41,1.34-2.43,1.16-.01.18,2.41.52,2.75.44.44,3.11-1.03,2.4,1.37-.12.13-2.4-.12-2.4,0v5.66c0,1.39,2.22.68,2.4.86.76,2.87-4.12,1.77-4.12.17,0-.93.24-6.46,0-6.69Z"/>
  <path class="cls-5" d="M102.87,33.27v12.69h-1.71v-10.63c-.81-.06-2.77,1.55-2.76-.18,0-1.06,3.41-2.22,4.47-1.88Z"/>
  <path class="cls-5" d="M171.46,33.27v12.69h-1.71v-10.63c-.81-.06-2.77,1.55-2.76-.18,0-1.06,3.41-2.22,4.47-1.88Z"/>
  <path class="cls-5" d="M235.58,33.27v12.69h-1.71v-10.63c-5.1,2.09-1.34-2.65,1.71-2.06Z"/>
  <rect class="cls-5" x="177.63" y="8.92" width="1.71" height="13.72"/>
  <path class="cls-5" d="M94.99,13.38c.41.07,1.54-.14,1.7.02.2.2-.31,1.12.36,1-.24-.96,2.49-1.64,2.75-1.37.61,2.6-1.24,1.35-2.23,2.4-.17.18-.86,2.07-.86,2.23v4.97h-1.71v-9.26Z"/>
  <path class="cls-5" d="M45.26,14.58c-.02-.24-.54-.7-.34-1.2,1.21-.02,1.81-.37,1.88,1.03.86-1.06,1.87-1.55,3.26-1.37.35,2.49-.46,1.31-1.85,2.1-.34.19-1.24,1.24-1.24,1.51v6h-1.71c-.19-2.59.26-5.51,0-8.06Z"/>
  <path class="cls-5" d="M18.52,37.9c-.02-.24-.54-.7-.34-1.2,1.21-.02,1.81-.37,1.88,1.03.86-1.06,1.87-1.55,3.26-1.37.35,2.49-.46,1.31-1.85,2.1-.34.19-1.24,1.24-1.24,1.51v6h-1.71c-.19-2.59.26-5.51,0-8.06Z"/>
  <path class="cls-5" d="M29.49,37.9c-.02-.24-.54-.7-.34-1.2,1.21-.02,1.81-.37,1.88,1.03.86-1.06,1.87-1.55,3.26-1.37.35,2.49-.46,1.31-1.85,2.1-.34.19-1.24,1.24-1.24,1.51v6h-1.71c-.19-2.59.26-5.51,0-8.06Z"/>
  <path class="cls-5" d="M128.59,37.9c-.02-.24-.54-.7-.34-1.2,1.21-.02,1.81-.37,1.88,1.03.86-1.06,1.87-1.55,3.26-1.37.35,2.49-.46,1.31-1.85,2.1-.34.19-1.24,1.24-1.24,1.51v6h-1.71c-.19-2.59.26-5.51,0-8.06Z"/>
  <rect class="cls-5" x="101.5" y="13.38" width="1.71" height="9.26"/>
  <rect class="cls-5" x="25.03" y="36.7" width="1.71" height="9.26"/>
  <rect class="cls-5" x="51.78" y="47.33" width="9.94" height="1.03"/>
  <rect class="cls-5" x="106.3" y="47.33" width="9.94" height="1.03"/>
  <rect class="cls-5" x="174.89" y="47.33" width="9.94" height="1.03"/>
  <rect class="cls-5" x="219.46" y="47.33" width="9.94" height="1.03"/>
  <rect class="cls-5" x="166.31" y="24.01" width="9.94" height="1.03"/>
  <rect class="cls-5" x="86.76" y="47.33" width="9.6" height="1.03"/>
  <rect class="cls-5" x="155.34" y="47.33" width="9.6" height="1.03"/>
  <rect class="cls-5" x="126.53" y="24.01" width="9.6" height="1.03"/>
  <path class="cls-5" d="M85.64,43.98c1.85,1.88-2.77,4.17-1.92-.04.57-.3,1.44-.45,1.92.04Z"/>
  <circle class="cls-5" cx="102.34" cy="10.56" r="1.23"/>
  <circle class="cls-5" cx="25.87" cy="33.88" r="1.23"/>
  <path class="cls-5" d="M330.57,48.7c2.78,2.15,5.79,4.11,9.26,4.98,26.56,6.65,39.17-30.38,14.64-41.73l-5.03-1.65c5.07-.43,10.18-.41,15.25-.69,19.53-1.08,39.07-2.44,58.64-3.09,5.29-.18,9.51-1.29,14.59,1.19,5.92,2.89,9.19,8.63,9.61,15.09.69,10.67.67,26.39,0,37.07s-8.13,17.75-18.69,18.35c-27.34,1.54-56.15-1.15-83.64-.06-6.1.54-14.62-7.79-14.62-13.5v-15.95Z"/>
  <path class="cls-1" d="M419.72,84.03c-.51,1.8-1.77,3.3-1.72,5.3.05,2.29,1.67,4.64,3.78,5.5,3.93,1.6,9.52,2.12,13.65,3.5,15.03,5.03,10.09,25.3-5.09,23.27-11.05-3.37-22.99-5.4-33.93-8.94-3.26-1.05-6.26-2.49-8.37-5.35-2.48-3.36.22-4.92.48-8.72.14-2.04-.36-3.79-.62-5.76l5.25-8.81h26.58Z"/>
  <path class="cls-5" d="M411.76,122.86c.86.86.85,4.92.67,6.18-.68,4.93-4.87,18.93-6.76,23.76-2.51,6.39-10.23,8.03-14.22,2.2-3.42-5,1.11-10.88,1.52-15.93.72-8.88-12.2-3.17-17.12-6.54s-4.75-10.08,0-13.33c4.19-2.87,13.89-.21,18.97-.84l16.93,4.5Z"/>
  <path class="cls-1" d="M360.1,84.07c.95-.61,16.07.26,18.49.11,2.3,7.41,7.98,17.07-1.72,21.63-4.2,1.98-20.03,1.7-25.56,1.88-4.93.15-11,1.82-14.76-2.4-4.19-4.71-2.08-12.08,3.71-14.13,4.61-1.64,11.53.27,16.19-1.64,3.44-1.41,3.14-5.14,3.63-5.46Z"/>
  <path class="cls-5" d="M351.06,120.47c2.02-.29,3.64.2,5.23,1.45,5.28,6.95,12.81,13.61,17.82,20.59,4.63,6.44-3.31,14.22-9.43,9.77-2.96-2.15-6.34-8.62-9.43-9.77-9.33-3.47-10.38,12.66-18.01,13.22-5.06.37-9.13-5.12-6.74-9.84,5.2-6.36,9.92-16.89,15.5-22.57,1.18-1.2,3.35-2.59,5.05-2.83Z"/>
  <path class="cls-5" d="M306.81,116c3.15-.64,6.53.58,7.89,3.61,3.76,8.36-10.67,13.26-6.5,21.24,2.36,4.51,13.75,4.21,15.75,9.62,1.22,3.28.69,6.39-2.33,8.46-2.46,1.68-4.04,1.36-6.67.54-6.37-1.99-17.44-6.26-23.37-9.21-4.81-2.39-6.49-6.79-3.48-11.49,4.4-6.89,10.57-13.34,15.04-20.28.81-.99,2.41-2.25,3.67-2.51Z"/>
  <circle class="cls-5" cx="345.58" cy="32.26" r="16.15"/>
  <path class="cls-3" d="M265.76,267.85c8.6.27,16.96,2.09,24.58,6.12,10.24,5.41,17.18,14.36,25.31,22.36,17.49,17.22,34.98,34.53,52.47,51.79,4.24,4.19,9.08,7.87,12.86,12.52,20.33,25.02,13.24,58.95-10.66,78.49l-11.62,7.4c15.04,3.71,30.4,14.26,38.34,27.68,8.32,14.07,10,31.14,4.53,46.58-12.39,29.35-24.38,58.86-36.52,88.32-5.8,14.08-10.68,26.84-20.28,39.05-11.7,14.88-29.97,23.16-49,21.98-12.83-.8-25.88-2.37-38.75-3.43-25.41-2.1-51.13-3.59-76.47-6.17-38.78-3.95-60.09-43.52-48.97-79.49l28.22-78.43c-25-7.55-40.21-32.51-40.47-57.97l9.26-113.18c2.3-23.14,19.5-43,42.17-48.19-2.23-4.23-4.56-7.95-6.18-12.51-13.43-37.7,17.1-75.85,56.71-71.13,32.51,3.88,53.79,36.81,44.45,68.2ZM235.58,288.6c.21,1.55,0,3.83,0,5.49,0,.06-.87,1.19.16.85.8-.26,4.23-2.45,5.16-3.07,31.05-20.69,26.8-67.54-7.26-82.61-41.67-18.44-82.71,27.59-59.72,67.28.82,1.41,4.76,7.27,5.94,7.78.62.27.45-.25.52-.5,1.03-3.46,1.81-5.87,4.63-8.41,8.12-7.31,20.31-3.56,24.34,6.16,6.25-6.94,17.31-6.94,23.14.53,1.1,1.41,2.86,4.79,3.09,6.51ZM317.42,306.39c-6.29-6.19-12.43-12.72-18.73-18.83-9.29-9.01-22.62-14.43-35.63-13.14-4.83,11.66-15.24,21.79-26.81,26.86-2.32,1.02-4.74,1.64-7.08,2.53-.38.14-1.32.3-1.09.86,4.48,6.47,7.64,13.72,9.26,21.44,4.99.23,9.32,2.53,13.17,5.54l68.9-12.36c11.24-.31,19.81,7.05,22.99,17.5,2.83,9.31,5.72,21.95,7.55,31.55.31,1.63.8,3.68.87,5.3.34,8.14-4.12,16.85-11.67,20.25,6.06,4.18,13.02,5.95,15.94,13.55,5.16,13.42-9.26,20.71-16.43,29.52l-1.25,6.29c.05.33,3.39.75,4.02.84,1.79.26,6.32,1.01,7.82.72,1.37-.26,10.34-5.87,12.16-7.04,26.67-17.18,35.17-52.99,11.57-76.85-18.22-18.41-37.07-36.32-55.55-54.53ZM203.96,286.58c0-4.94-4-8.94-8.94-8.94s-8.94,4-8.94,8.94,4,8.94,8.94,8.94,8.94-4,8.94-8.94ZM229.69,291.37c0-4.94-4-8.94-8.94-8.94s-8.94,4-8.94,8.94,4,8.94,8.94,8.94,8.94-4,8.94-8.94ZM231.12,326.5c-1.71-7.26-4.81-14.33-9.6-20.06-7.99-.54-15.23-.88-22.98-3.09-5.57-1.59-12.4-3.21-15.81-8.19l-7.33-6.38c-3.05-.59-12.24,3.42-15.22,5.02-15.08,8.06-24.59,23.74-25.76,40.77-2,34.8-6.49,69.49-8.57,104.26-1.39,23.28,8.56,46.3,30.79,55.97,16.06,6.99,27.49,3.08,43.55.19,31.07-5.59,63.18-10.36,93.98-16.78,16.73-3.49,30.63-16.26,36.06-32.35-1.39.54-2.33,1.61-3.78,2.22-4.83,2.05-8.97,1.25-13.69-.49-1.62,3.76-4.91,6.55-8.37,8.61-11.05,3.87-21.88,8.54-32.97,12.29-1.98.67-4.54,1.79-6.56,2.02-18.06,2.03-27.68-20.39-13.69-31.87,4.84-3.97,12.12-4.72,17.58-7.46.32-.16.55.09.43-.58-3.71-5.42-8.81-10.41-10.29-16.99-12.55,4.28-26.37-1.44-31.12-13.97-4.12-10.85-5.17-24.63-8.74-35.84-1.01-1.9-2.56-3.45-3.53-5.39-6.54-13.07,1.26-29.35,15.62-31.91ZM207.8,299.4l-1.03-3.43-2.74,2.57,3.77.85ZM317.46,325.57l-80.79,14.88c-7.67,2.05-12.36,8.18-12.78,16.06,2.8,12.47,4.85,26.82,8.77,38.93,3.02,9.32,10.61,14.6,20.54,13.33,25.95-7.15,53.86-11.27,79.57-18.85,8.62-2.54,12.5-8.66,11.85-17.63-3.18-10.99-4.43-24.29-8.31-34.9-3.13-8.57-9.71-12.73-18.85-11.82ZM241.75,333.02c-.24-.24-3.67-.97-4.29-1.03-10.09-.92-18.44,6.7-18.34,16.8l2.12-3.87c5.19-8.3,10.98-9.58,19.99-11.23.43-.08,1.08-.11.52-.67ZM346.91,405.85c-3.58-3.58-11.66-6.12-15.89-9.32l-23.76,5.43c2.64,6.41,18.49,7.05,15.67,16.19-.97,3.16-7.16,7.68-9.34,10.55-.3.39-.72.77-.8,1.28-.1.62,1.65,4.28,1.91,5.51.19.88.39,2.09.46,2.98.2,2.67-1.39,2.91,1.95,4.22s5.75.65,8.64-1.14c6.09-7.7,16.62-15.05,22.31-22.61,3.21-4.27,2.56-9.37-1.15-13.08ZM299.98,403.74c-.67.06-5.07,1.05-5.07,1.47,2.01,1.91,13,19.57,14.18,19.35.87-.16,6.94-7.3,8.1-8.38-4.7-3.5-10.53-4.96-14.39-9.61-1.05-1.26-1.1-2.99-2.82-2.83ZM264.73,412.25c-1.28,1.78,10.12,14.5,10.49,18.16.22,2.21-.95,4.59-2.83,5.78-3.75,2.38-10.68,3.54-14.93,5.64-13.05,6.46-5.92,25.69,8.04,22.44,11.04-5.1,25.07-7.89,35.76-13.28,6.9-3.47,10.21-11.65,5.79-18.49l-18.12-25.43-1.64-.24-22.55,5.42ZM356.63,612.53c.42-.04.58-.47.75-.79,1.01-1.86,1.98-4.7,2.84-6.76,9.82-23.45,19.24-47.09,28.82-70.63,2.93-7.21,7.08-14.66,8.57-22.29,5.98-30.49-16.53-55.81-45.67-60.67-5.46-.91-11.12-1.14-16.58-2.1-6.23,18.18-22.38,31.48-41.15,35.16-4.42.87-9,1.12-13.38,2.23.85,6.07.25,12.6-1.13,18.59-1.16,5.05-3.34,9.36-5.05,14.16-2.3,6.45-4.59,12.92-6.85,19.38,3.38.31,8.85.19,10.57,3.66,2.14,4.32-.93,7.43-2,11.43,14.47,1.95,29.82.76,43.64,5.92,21.55,8.04,36.79,29.56,36.61,52.73ZM275.01,487.69c-27.91,5.05-55.82,10.17-83.74,15.19-5.09.91-9.84,2.33-15.17,2.31l-10.44-1-27.72,77.06c-9.04,27.27,1.94,58.48,29.29,69.62,8.46,3.45,14.5,3.1,23.24,3.85,29.15,2.51,58.29,5.13,87.45,7.54,12.38,1.02,24.81,3.26,36.86-.51,52.08-16.27,45.31-92.59-9.78-99.29-13.25-1.61-26.82-1.56-40.07-3.13-6.42-.76-9.42-2.83-7.51-9.83,3.63-13.29,10.5-27.43,14.86-40.7,2.3-7.01,3.15-13.7,2.73-21.11ZM272.96,545.31l-7.51-.65c.06,1.29-3,7.65-2.44,8.19l6.83.66,3.12-8.21Z"/>
  <path class="cls-5" d="M303.13,697.93c3.19,10.32,7.8,20.23,9.95,30.87l10.97-30.87h6.17l2.4,37.73h-4.8l-1.54-32.58-11.2,32.02c-.54.89-3.69,1-4.14-.21l-6.79-19.96-3.42-11.15-1.72,31.89h-4.8l2.74-37.73h6.17Z"/>
  <path class="cls-5" d="M401.21,735.65h-5.49l-3.76-11.5c-1.65-.07-13.04-.51-13.43.05l-3.73,11.46h-4.8l.15-1.39,12.53-36.17c1.3-.13,5.07-.64,5.81.38l12.72,37.18ZM390.92,720.22l-5.66-17.84-5.52,17.13c-.28.23.33.71.38.71h10.8Z"/>
  <path class="cls-5" d="M258.56,735.65l13.19-37.75,5.37.23,12.65,37.52h-5.14l-3.81-11.62-13.35.12-3.76,11.5h-5.14ZM268.5,720.22h10.97l-5.65-17.49-5.32,17.49Z"/>
  <path class="cls-5" d="M254.1,703.07c-12.76-4.39-23.4,1.8-22.3,15.96.92,11.89,12.33,15.58,22.3,11.48l1.04,4.11c-12.56,4.38-27.34.08-28.48-14.9-1.06-14.01,8.06-23.28,22.13-22.13,1.08.09,6.37.9,6.29,2.15-.05.87-1.12,2.25-.98,3.33Z"/>
  <path class="cls-5" d="M366.22,698.97c.23.26-.6,3.92-1.22,4.07-.26.06-4.13-1.2-5.16-1.3-13.07-1.3-19.95,9.93-15.83,21.66,3.29,9.37,13.25,9.79,21.51,7.46-.08.8,1.04,3.21.67,3.73-.21.29-4.58,1.26-5.32,1.37-12.08,1.74-22.17-4.18-23.06-16.98-1.16-16.63,13.52-25.04,28.41-20.01Z"/>
  <path class="cls-5" d="M245.06,131.13c2.17,2.2,7.2,6.72,7.9,9.41,1.5,5.71-3.14,10.46-8.95,9.64s-9.4-12-15.53-8.96c-2.07,1.03-4.98,8.35-6.82,10.67-3.36,4.23-9.88,4.04-12.61-.71-1.98-3.44-1.28-5.21.28-8.53,2.54-5.4,8.16-15.54,11.56-20.34,2.83-4,7.63-5.88,12.06-2.92,2.85,1.9,9.32,8.9,12.11,11.72Z"/>
  <path class="cls-5" d="M147.31,148.36c-3.05,2.98-6.54,5.1-10.5,1.7-4.87-4.18-1.56-8.55,1.55-12.19,4.08-4.78,10.44-12.14,14.96-16.25,3.44-3.13,8.42-3.93,11.61-.03,4.09,7.2,9.65,14.15,13.67,21.31,1.33,2.37,2.02,3.95,1.02,6.73-1.25,3.43-4.7,4.95-8.18,4.21-6.78-1.45-7.18-16.33-16.44-13.05-2.43.86-5.66,5.59-7.69,7.57Z"/>
  <path class="cls-5" d="M116.5,109.49c4.91-.84,9.31,3.13,8.08,8.09-1.66,6.69-14.57,8.64-11.09,17.05,2.3,5.56,17.46,8.22,11.27,17.42-2.44,3.63-6.18,3.61-9.65,1.53-5.5-3.29-15.19-10.36-20.1-14.54-3.89-3.31-5.29-7.34-1.76-11.65,6.88-4.85,13.14-11.23,19.94-16.07,1.08-.77,1.91-1.6,3.3-1.84Z"/>
  <path class="cls-5" d="M208.74,119.09c1.71-.36,3.4-.13,4.85.82.75.49,2.42,1.92,1.96,2.87l-10.44,18.4c-1.57,2.99-1.15,6.17-3.47,8.87-4.3,5-12.92.62-9.85-6.76,1.84-4.44,8.82-15.63,11.76-19.79,1.11-1.56,3.25-4,5.19-4.41Z"/>
  <path class="cls-5" d="M229.07,147.81c.35-.51,1.1-2.64,1.55-2.74.34-.08,1.12.63,1.18.88.12.54-2.28,2.22-2.73,1.86Z"/>
  <path class="cls-6" d="M275.01,487.69c.42,7.4-.43,14.1-2.73,21.11-4.36,13.27-11.23,27.41-14.86,40.7-1.91,6.99,1.09,9.07,7.51,9.83,13.25,1.57,26.82,1.52,40.07,3.13,55.09,6.7,61.86,83.02,9.78,99.29-12.05,3.77-24.49,1.53-36.86.51-29.16-2.41-58.3-5.03-87.45-7.54-8.74-.75-14.78-.4-23.24-3.85-27.35-11.14-38.34-42.35-29.29-69.62l27.72-77.06,10.44,1c5.33.02,10.09-1.4,15.17-2.31,27.92-5.02,55.83-10.14,83.74-15.19Z"/>
  <path class="cls-6" d="M231.12,326.5c-14.36,2.56-22.16,18.85-15.62,31.91.97,1.93,2.52,3.48,3.53,5.39,3.57,11.21,4.63,24.99,8.74,35.84,4.75,12.53,18.57,18.25,31.12,13.97,1.48,6.58,6.58,11.57,10.29,16.99.12.67-.11.42-.43.58-5.45,2.75-12.74,3.5-17.58,7.46-13.99,11.47-4.37,33.89,13.69,31.87,2.02-.23,4.58-1.35,6.56-2.02,11.09-3.75,21.92-8.43,32.97-12.29,3.46-2.06,6.74-4.85,8.37-8.61,4.72,1.73,8.86,2.53,13.69.49,1.45-.61,2.38-1.68,3.78-2.22-5.43,16.09-19.34,28.86-36.06,32.35-30.79,6.42-62.91,11.19-93.98,16.78-16.06,2.89-27.49,6.79-43.55-.19-22.23-9.67-32.18-32.69-30.79-55.97,2.08-34.77,6.57-69.47,8.57-104.26,1.17-17.03,10.68-32.71,25.76-40.77,2.98-1.59,12.17-5.61,15.22-5.02l7.33,6.38c3.41,4.98,10.24,6.6,15.81,8.19,7.75,2.21,14.98,2.54,22.98,3.09,4.79,5.73,7.89,12.8,9.6,20.06Z"/>
  <path class="cls-6" d="M356.63,612.53c.18-23.17-15.06-44.69-36.61-52.73-13.81-5.16-29.17-3.96-43.64-5.92,1.07-4,4.14-7.11,2-11.43-1.72-3.47-7.19-3.35-10.57-3.66,2.26-6.46,4.55-12.93,6.85-19.38,1.71-4.8,3.89-9.11,5.05-14.16,1.38-5.98,1.98-12.52,1.13-18.59,4.38-1.11,8.97-1.36,13.38-2.23,18.77-3.68,34.91-16.98,41.15-35.16,5.46.96,11.12,1.19,16.58,2.1,29.13,4.86,51.65,30.18,45.67,60.67-1.5,7.63-5.64,15.09-8.57,22.29-9.58,23.55-19,47.19-28.82,70.63-.86,2.06-1.83,4.9-2.84,6.76-.17.32-.33.75-.75.79Z"/>
  <path class="cls-6" d="M317.46,325.57c9.14-.9,15.72,3.26,18.85,11.82,3.88,10.61,5.13,23.91,8.31,34.9.65,8.97-3.23,15.09-11.85,17.63-25.71,7.58-53.62,11.7-79.57,18.85-9.92,1.27-17.52-4.01-20.54-13.33-3.92-12.11-5.97-26.46-8.77-38.93.41-7.88,5.11-14.02,12.78-16.06l80.79-14.88Z"/>
  <path class="cls-5" d="M317.42,306.39c18.48,18.21,37.33,36.12,55.55,54.53,23.61,23.86,15.1,59.67-11.57,76.85-1.82,1.17-10.78,6.78-12.16,7.04-1.51.29-6.04-.46-7.82-.72-.63-.09-3.97-.51-4.02-.84l1.25-6.29c7.17-8.81,21.59-16.09,16.43-29.52-2.92-7.6-9.88-9.37-15.94-13.55,7.55-3.39,12.01-12.11,11.67-20.25-.07-1.62-.56-3.67-.87-5.3-1.83-9.6-4.72-22.24-7.55-31.55-3.18-10.45-11.75-17.82-22.99-17.5l-68.9,12.36c-3.84-3-8.18-5.31-13.17-5.54-1.63-7.72-4.79-14.97-9.26-21.44-.23-.56.72-.72,1.09-.86,2.35-.89,4.76-1.51,7.08-2.53,11.57-5.07,21.97-15.2,26.81-26.86,13-1.3,26.34,4.13,35.63,13.14,6.3,6.1,12.44,12.63,18.73,18.83Z"/>
  <path class="cls-6" d="M235.58,288.6c-.23-1.72-1.99-5.1-3.09-6.51-5.83-7.47-16.88-7.47-23.14-.53-4.03-9.71-16.22-13.46-24.34-6.16-2.82,2.53-3.6,4.94-4.63,8.41-.07.25.1.76-.52.5-1.18-.51-5.12-6.37-5.94-7.78-22.99-39.69,18.05-85.72,59.72-67.28,34.06,15.07,38.31,61.93,7.26,82.61-.93.62-4.36,2.82-5.16,3.07-1.04.33-.16-.8-.16-.85,0-1.66.21-3.94,0-5.49Z"/>
  <path class="cls-1" d="M264.73,412.25l22.55-5.42,1.64.24,18.12,25.43c4.42,6.84,1.1,15.02-5.79,18.49-10.69,5.38-24.72,8.17-35.76,13.28-13.96,3.25-21.09-15.99-8.04-22.44,4.25-2.1,11.18-3.26,14.93-5.64,1.88-1.19,3.05-3.57,2.83-5.78-.37-3.67-11.77-16.38-10.49-18.16Z"/>
  <path class="cls-1" d="M346.91,405.85c3.71,3.71,4.36,8.81,1.15,13.08-5.69,7.56-16.23,14.92-22.31,22.61-2.9,1.8-5.38,2.43-8.64,1.14s-1.74-1.54-1.95-4.22c-.07-.89-.27-2.1-.46-2.98-.26-1.23-2.01-4.88-1.91-5.51.08-.51.5-.9.8-1.28,2.18-2.87,8.36-7.39,9.34-10.55,2.81-9.14-13.03-9.78-15.67-16.19l23.76-5.43c4.24,3.2,12.32,5.74,15.89,9.32Z"/>
  <circle class="cls-5" cx="220.75" cy="291.37" r="8.94"/>
  <circle class="cls-5" cx="195.03" cy="286.58" r="8.94"/>
  <path class="cls-5" d="M299.98,403.74c1.72-.16,1.77,1.57,2.82,2.83,3.86,4.65,9.69,6.11,14.39,9.61-1.16,1.08-7.23,8.22-8.1,8.38-1.18.21-12.16-17.44-14.18-19.35,0-.42,4.4-1.41,5.07-1.47Z"/>
  <path class="cls-5" d="M241.75,333.02c.57.56-.08.59-.52.67-9,1.64-14.79,2.93-19.99,11.23l-2.12,3.87c-.1-10.1,8.24-17.72,18.34-16.8.62.06,4.05.79,4.29,1.03Z"/>
  <path class="cls-4" d="M272.96,545.31l-3.12,8.21-6.83-.66c-.56-.54,2.5-6.9,2.44-8.19l7.51.65Z"/>
  <polygon class="cls-5" points="207.8 299.4 204.03 298.55 206.77 295.98 207.8 299.4"/>
  <path class="cls-2" d="M390.92,720.22h-10.8s-.66-.48-.38-.71l5.52-17.13,5.66,17.84Z"/>
  <polygon class="cls-2" points="268.5 720.22 273.82 702.73 279.47 720.22 268.5 720.22"/>
</svg>