<?xml version="1.0" encoding="UTF-8"?>
<svg id="Layer_1" data-name="Layer 1" xmlns="http://www.w3.org/2000/svg" viewBox="0 0 156.1 814.33">
  <defs>
    <style>
      .cls-1 {
        fill: #9f9a38;
      }

      .cls-2 {
        fill: #457ab3;
      }

      .cls-3 {
        fill: #b8bd99;
      }

      .cls-4 {
        fill: #b8473d;
      }

      .cls-5 {
        fill: #48603b;
      }

      .cls-6 {
        fill: #68883a;
      }

      .cls-7 {
        fill: #43bdc4;
      }

      .cls-8 {
        fill: #43bdc6;
      }

      .cls-9 {
        fill: #b96e9f;
      }

      .cls-10 {
        fill: #8374b5;
      }

      .cls-11 {
        fill: #ba453b;
      }

      .cls-12 {
        fill: #7d7ab9;
      }
    </style>
  </defs>
  <path class="cls-8" d="M90.74.3c1.12-.09,2.79-.09,3.91,0,1.7.14,3.34.62,4.91,1.25,9.31,3.7,19.23,10.76,28.28,15.3,7.01,6.05,8.5,14.28,4.62,22.65-2.93,6.32-7.09,12.49-10.06,18.84-.2.83,1.29,2.05,1.39,3,.44.12.5-.12.75-.29,2.46-1.69,4.77-5.64,7.38-7.65,11.4-8.8,26.18,5.32,18,17.12-4.76,6.87-14.22,13.65-19.53,20.45-7.04,5.01-14.77,4.02-19.66-3.18-3.19-4.69-5.77-10.2-8.97-14.93-2.21-.35-4.28-1.1-6.35-1.91-.71,1.46-1.46,2.88-2.58,4.08,6.75,3.89,11.42,10.27,12.57,18.08.91,14.03,4.43,28.71,5.16,42.65.29,5.58-.61,10.12-3.28,15.01,5.83,3.82,9.81,10.15,8.24,17.35-1.42,6.51-8.44,10.62-12.16,15.73,5.23,5.38,9.15,12.62,10.66,20.03,1.04,5.14.83,10.24.49,15.45,4.4,3.27,6.58,8.4,10.05,12.52.37.08.51-.24.72-.44,3.67-3.5,5.84-8.87,10.91-11.03,13.45-5.71,25.58,9.46,16.72,21.55-4.82,6.57-12.45,15.69-18.01,21.67-7.46,8.01-17.26,6.31-23.69-1.87-4.07-5.18-7.76-11.16-11.51-16.6-.55-.32-1.44.39-1.48,1.03l10.01,26.97c.96,1.5.5,3.76.88,5.13.14.49,2.2,3.06,2.69,3.92,13.3,23.15,25.28,47.1,38.57,70.26,4.88,9.4,2.49,20.51-5.56,27.22-3.72,3.1-8.53,4.43-12.62,6.93-.06.28.67,1.17.91,1.48,3.59,4.71,8.47,9.26,11.84,14.02,5.53,7.82,3.91,18.52-4.54,23.37l-18.89,8.78c-.39.61.75,2.43.98,3.25.44,1.55.71,3.14.98,4.73-2.88,17.81,3.41,51.13-23.88,50.36-.64-.02-1.42-.46-2.04-.31-.21.05-2.56,3.27-2.61,3.49-.09.41.22.52.5.68,3.32,1.4,7.17,2.26,10.42,3.71,15.8,7.05,8.92,30.24-8.3,27.55-1.53-.24-9.75-3.91-10.14-3.54l17.48,32.27c2.29,5.81,1.86,11.77-1.31,17.14-3.52,5.95-9.54,8.33-15.57,11.04,5.4,8.31,17.39,15.62,13.36,27.05-2.7,7.66-10.92,8.64-17.19,12.27-.35,0-.52.17-.38.51.19.45,2.05,1.95,2.56,2.56,3.32,3.93,6.28,8.89,7.81,13.83.45,1.44,1.51,8.03,1.8,8.42.12.16,2.85,1.4,3.55,1.86,2.14,1.43,6.23,5.97,8.03,6.7.3.12.55.23.89.16,2.48-5.76,4.64-12.93,11.26-15.05,10.42-3.34,20,6.34,16.63,16.64-4.05,7.91-7.31,16.53-11.39,24.38-4.55,8.74-13.52,10.35-21.44,4.7l-15.04-12.92-.99,1.1,16.23,23.34c1.55,2.88,1.87,6.29,1.74,9.53,4.78.29,8.92.18,13.23,2.55,14.85,8.17,7.42,29.95,9.02,43.62-.66,7.38-5.23,13.71-12.43,15.82-.7.21-2.42.13-2.57.73l5.03,27.08c.08,5.75-2.67,11.48-8.17,13.7l-4.11,1.15h-2.4l-7.36-.9c-5.94-.61-12.11-.4-18.02-1.21-6.37-.87-11.33-5.44-11.57-12.03-.92-.08-1.72.33-2.56.6-5.64,1.83-11.95,5.13-17.58,6.47-11.43,2.73-20.8-8.07-16.28-19,3.16-7.63,10.77-8,17.36-10.9.25-.11.58.15.41-.46-.09-.32-3.38-5.34-3.66-5.51-.46-.27-4.11-.9-5.33-1.43-13-5.57-11.99-19.63-11.12-31.51-10.4-5.95-12.25-20.34-3.01-28.33,4.16-3.6,8.28-4.3,13.67-4.05,3.6.16,7.11-.13,10.83-.02,3.05.1,7.64,1.05,10.49.6,1.01-.16,2.13-1.41,3.18-1.93,2.96-1.47,6.75-2.44,9.91-3.47.75-.87-6.43-9.02-6.66-10.77-11.01,1.72-21.53.03-30.7-6.42s-15.33-17.01-16.13-27.76c-.17-2.32.38-5.73-.01-7.81-.12-.63-2.23-3.28-2.75-4.46-4.69-10.66,1.74-23.25,13.27-24.86.28-.23-1.9-2.91-2.15-3.41-3.96-7.77,2.05-16.14,10.42-16.14h6.31s.73-.31.75-.48c.1-1.09-2.28-6.42-2.57-8.23-.18-1.16.04-2.42-.21-3.4-.4-1.6-3.45-6.57-4.39-8.54-5.75-12-11.54-23.98-17.2-36.02-.62-.86-2.87-.37-3.99-.52-6.87-.87-12.54-4.87-15.06-11.39-.55-1.42-.65-2.91-1.36-4.2v-4.51c1.2-3.75,2.52-7.55,5.4-10.39.94-.93,2.86-1.84,3.62-2.69s.99-2.31,1.55-3.26c1.31-2.22,2.97-4.21,4.91-5.91.35-.31,1.54-.89,1.58-.97.23-.4-.02-1.53.09-2.17,1.25-7.01,6.62-10.52,13.49-10.4.2,0,.79.29,1.33.31.43.02,3.48.07,3.48-.16-1.6-.2-3.21-.18-4.81-.45-5.43-.93-10.24-4.98-12.37-10.02-3.37-7.96-.03-17.88.07-26.2.08-6.55-.84-8.47,1.86-14.98,6.71-16.22,19.75-12.41,34.04-11.95,3.06.1,6.13-.2,9.16.3-.44-1.67-1.48-2.92-1.72-4.74-.52-3.84.16-7.16,2.62-10.15,5.06-6.15,11.59-4.28,18.64-5.11-1.26-4.6-3.7-9.08-3.31-13.98-15.45.62-26.13-15.17-19.97-29.46.82-1.9,2.11-3.38,2.8-5.2-6.69-14.05-13.68-27.96-20.17-42.09-3.26-10.53,2.54-21.36,12.38-25.52-1.74-5.23-1.03-10.73,2.74-14.85,4.95-5.42,11.84-4.36,18.47-5.28.39-.05.56.19.42-.41-.96-4.14-3.91-8.42-4.51-12.79-28.51-1.13-47.31-30.04-36.78-56.86.73-1.86,1.71-3.61,2.55-5.42-4.4.75-8.03,2.5-12.55,1.29-9.14-2.45-11.8-14.26-4.73-20.54,3.91-3.47,9.56-3.08,14.29-4.66,0-.4-1.38-3.12-1.67-3.44-.69-.75-3.02-1.97-4.05-2.87-4.97-4.34-7.04-9.61-8.07-15.98-2-12.45-3.65-26.81-4.81-39.39-.59-6.35-.32-10.92,2.92-16.55,7.12-12.4,19.45-12.08,32.09-13.59,1.52-.18,3.09-.31,4.62-.34-.08-1.29-1.05-2.24-1.41-3.55-1.21-4.4.37-8.79,4.02-11.44s8.92-1.78,13.32-2.16c-4.45-3.07-8.04-6.81-9.18-12.32-1-4.87-.24-8.25,1.81-12.65,3.34-7.15,8.28-16.35,12.32-23.16,3.16-5.33,7.81-9.41,14.28-9.92ZM120.49,49.62c.62.13.7-.31.96-.69,1.38-2.04,7.38-13.51,7.68-15.47.92-5.92-1.77-11.17-6.94-13.96-8.16-3.35-16.69-10.05-24.76-13.11-6.32-2.39-12.19-.07-15.75,5.44-5.1,7.88-8.9,17.81-13.7,25.98-2.25,6.27.62,12.71,6.34,15.77l20.48,10.78-2.37-3.04c-6.72-11.58,1.81-25.11,15.26-23.69,5.98.63,12.01,5.99,12.81,11.99ZM115.8,53c0-5.67-4.59-10.27-10.26-10.27s-10.26,4.6-10.26,10.27,4.59,10.27,10.26,10.27,10.26-4.6,10.26-10.27ZM138.74,56c-4.86.68-7.98,7.97-11.83,10.11-2.53,1.41-6.05.41-7.47-2.06-1.88,2.61-3.88,4.91-6.76,6.46-1.58.86-3.26,1.25-4.82,2.11l7.87,13.17c2.83,3.75,7.54,3.68,11.16,1.05,5.2-6.26,13.42-12.43,18.18-18.79.75-1.01,1.71-2.59,1.86-3.85.54-4.63-3.54-8.86-8.2-8.21ZM90.4,68l-14.19-7.29c-3.17,6.29-18.25-.95-17.02,9.2.67,5.54,7.63,3.86,11.26,3.74s7.1-.06,10.53-.29c2.5-.17,5.42-.09,7.47-1.55.84-.6,2.59-2.81,1.96-3.82ZM88.94,79.38c-.81-.98-2.42-1.3-3.6-1.2l3.6,1.2ZM75.12,78.79c-13.53.73-26.97,2.76-40.4,4.52-9.55,3.15-14.25,10.55-13.69,20.58.82,14.47,4.34,29.82,5.55,44.36,2.54,8.49,10.34,14.15,19.24,13.82l45-5.48c8.81-2.29,14.98-10.08,14.65-19.32l-4.51-37.44-1.49,4.97c-16.8,31.18-56.53-4.47-27.25-24.57l2.9-1.45ZM89.24,79.68c.06.05,1.23.45,1.49.46-.25-.33-1.17-.9-1.49-.75.01.1-.04.26,0,.29ZM91.94,80.59l-.89-.16c.31.46.95.75.89.16ZM95.66,97.43c0-7.87-6.37-14.24-14.23-14.24s-14.23,6.38-14.23,14.24,6.37,14.24,14.23,14.24,14.23-6.38,14.23-14.24ZM82.33,172c4.36.95,8.56,2.65,12.41,4.87.97.56,4.06,3.1,4.8,2.91,4.49-5.49,13.77-10.3,10.27-18.6-1.12-2.67-3.37-4.89-6.01-6.02-2.58,2.17-5.22,4.21-8.4,5.42-4.56,1.74-9.77,1.84-14.58,2.4,2.28,1.64,3.32,4.01,2.46,6.82-.29.96-1.04,1.26-.95,2.2ZM63.74,171.97c.29.19,4.92-.79,5.83-.86,1.56-.13,4.36.31,5.64-.07.4-.12,2.96-2.72,2.9-3.06-1.79-1.6-4.19-2.44-6.22-3.75l-10.9,1.16c-.59.6,2.56,5.5,2.74,6.58ZM39.96,166.89c.21,9.41-12.94,4.66-17.13,10.38-2.06,2.82-1.59,6.9,1.06,9.16,1.93,1.64,3.79,1.7,6.22,1.43,7.48-.84,15.86-4.01,23.44-5.11,3.76-1.67,6.01-4.4,5.27-8.72-.1-.6-3.47-7.37-3.83-7.59-.84-.51-6.47.68-7.95.77-2.36.13-4.74-.05-7.07-.32ZM64.05,177.47c-.13.2-.07,1.18-.25,1.7-1.24,3.55-4.34,6.99-7.92,8.32-2.87,1.06-8.16,1.22-10.49,2.43s-6.42,10.96-7.09,13.66c-8.08,32.58,29.2,58.1,56.44,38.14,30.27-22.18,10.93-69.93-26.35-65.16-.6.08-4.2.69-4.35.91ZM112.68,225.23c-1.54,5.87-5.01,11.27-9.18,15.64l-.11.68c4.9,6.36,8.91,13.47,14.25,19.45,5.43,3.72,9.44,3.23,13.82-1.49,6.15-6.63,11.47-14.72,17.7-21.37,5.43-8.33-4.78-17.78-12.46-11.87-2.79,2.15-7.35,9.68-9.85,10.59-1.41.52-3.42.52-4.78-.15-2.17-1.05-6.01-8.22-7.91-10.43-.22-.25-1.17-1.37-1.49-1.06ZM93.73,249.01c-.55-.47-3.25,1.24-3.99,1.54-4.08,1.67-8.15,2.67-12.52,3.26-.38.55,4.16,10.53,4.38,12.62.17,1.61-.79,3.9-2.13,4.82-2.78,1.9-10.58,1.23-14.29,2.24-6.62,1.81-8.28,10.43-3.14,14.89,3.71,3.21,8.29,1.58,12.61,1.21,6.8-.57,14.65-.82,21.3-1.84,6.19-.95,9-6.5,7.55-12.3l-9.79-26.44ZM107.87,285.68c-.42-.09-.38-.06-.62.19-.73.76-1.4,2.27-2.23,3.11-1.9,1.91-5.19,3.45-7.84,3.88-9.8,1.58-20.72,1.48-30.63,2.75-2.51-.21-4.57-1.06-6.67-2.35-.83-.51-1.5-1.69-2.56-1.52-.67.1-3.44,1.73-4.1,2.23-5.42,4.12-8.34,11.58-5.49,18.07l18.72,38.85c.59.37,3.81-1.65,4.69-2,24.2-9.45,40.87,24.51,18.5,37.76-.62.37-3.95,1.8-4,2.02-.17.71,3.98,3.51,4.79,3.92,4.95,2.53,10.5,2.65,15.63.58,10.75-4.34,21.28-10.96,32.07-15.42,10.01-6,11.72-14.49,6.56-24.72-10.89-21.59-23.85-43.52-35.66-64.75-.45-.81-.93-1.71-1.15-2.61ZM94.88,368.45c0-8.77-7.1-15.87-15.86-15.87s-15.86,7.11-15.86,15.87,7.1,15.87,15.86,15.87,15.86-7.11,15.86-15.87ZM127.35,389.18l-17.96,8.08c-.09.34,0,.58.14.88,1.37,2.95,5.92,4.74,5.43,9.03-.39,3.45-3.09,4.32-5.78,5.67-2.85,1.42-7.74,2.95-9.88,5.15-7.25,7.45.61,19.34,10.46,15.88l28.67-13.41c4.8-3.2,5.55-9.01,3.02-13.96l-14.1-17.31ZM105.16,408.95l-2.98-9.17c-1.38-.16-2.63.22-4.08.18-2.29-.06-5.25-.81-7.42-1.59-1.54-.56-2.95-1.34-4.43-2.03.71,3.66,3.44,7.05.76,10.53-2.1,2.72-7.18,1.9-10.22,2.1-3.72.25-6.54.09-8.82,3.51-1.75,2.63-1.61,5.54.25,8.07,2.99,4.06,6.74,2.7,10.95,2.54,3.79-.14,7.58-.21,11.36-.35,1.46-.26,1.13-1.82,1.58-2.93,2.56-6.29,6.99-8.56,13.06-10.85ZM92.21,429.75l-49.54-1.84,4.18,2.58c16.68,13.86.37,39.24-19.17,30.01l-4.84-3.12c-.01,6.99-2.69,13.16,1.85,19.34,2.51,3.4,5.73,4.27,9.72,4.71,21.56,2.37,43.33,3.26,64.89,5.73,7.6.89,14.15-4.09,16.01-11.37.56-9.9,2.36-20.13,2.78-30,.13-3.13.16-6.54-1.94-9.1-1.53.43-2.83,1.41-4.29,1.96-7.98,3.01-17.03-.66-19.64-8.91ZM48.43,444.6c0-6.97-5.65-12.63-12.62-12.63s-12.62,5.65-12.62,12.63,5.65,12.63,12.62,12.63,12.62-5.65,12.62-12.63ZM58.25,488.69l-13.64-1.25c-.86.06-1.03,1.98-1.65,2.87-3.19,4.56-13.26-.53-17.88,2.86s-2.89,11.24,2.73,12c5.18.7,11.51.47,16.81.62,3.81.11,9.54,1.3,12.86-.94,5.49-3.71,1.68-11.04.76-16.15ZM91.35,491.67l-19.7-1.82-1.04.16-5.06,6.98c.47,1.9.24,3.59-.27,5.44-.36,1.3-1.47,2.8-1.16,3.98.5,1.85,3.59,4.7,5.28,5.56,9.26,2.75,18.79,7.65,28,10.16,11.31,3.09,16.53-11.62,7.35-16.68-5.92-3.26-20.18-3.46-13.43-13.77ZM18.92,504.6c-.39-.27-2.09,1.58-2.39,1.96-2.51,3.16-3.35,7.23-2.43,11.14l31.41,65.4c3.26,6.27,10.68,9.36,17.53,7.61,9.83-5.06,20.47-8.98,30.11-14.37,7.55-4.22,9.88-11.76,6.05-19.6-5.82-11.93-13.5-23.57-19.59-35.42-6.97-3.08-16-3.87-19.54-11.57l-6.13,1.8c-8.38-.76-17.53-.08-25.81-.95-3.62-.38-7.66-2.56-9.21-5.98ZM8.71,516.62c-.37-.42-1.42,1.35-1.56,1.6-4.78,8.22.87,18.69,10.27,18.85-2.61-6.91-7.31-13.12-8.71-20.45ZM82.56,587.34l-13.75,6.73c2.22,3.52,7.14,6.92,3.68,11.5-1.8,2.38-8.81,4.23-11.59,6.14-7.52,5.14-1.67,16.56,6.79,14.02,7.77-4.32,17.2-7.22,24.87-11.5,3.87-2.16,5.09-5.92,3.81-10.15-.8-2.64-9.72-13.1-12.08-15.57-.51-.54-.94-1.23-1.73-1.15ZM61.26,596.35c-2.94.05-5.47,0-8.3-.87-1.52-.46-2.75-1.31-4.28-1.58.61,2.7,2.05,4.91.91,7.68-2.15,5.2-10.71,2.29-14.73,3.9s-4.74,7.46-1.11,9.83c3.04,1.98,5.99.43,9.38.86l9.42-.64c.57-3.29,2.53-6.23,5.28-8.1,1.85-1.26,4.08-1.79,5.84-3.2l-2.42-7.88ZM52.55,621c-3.05-.12-6.2-.17-8.98,1.18-.33.45,2.28,2.65,2.69,3.16,6.11,7.6,5.13,18.44-2.24,24.81-5.67,4.9-13.25,5.38-19.99,2.4-.02,12.73,7.61,24.7,19.02,30.13,32.45,15.43,63.07-24.98,39.42-52.08-.79-.91-3.59-3.98-4.66-3.77-1.74.34-4.85,2.43-6.76,3.18-8.32,3.25-16.26-.26-18.51-8.99ZM45,636.6c0-6.94-5.62-12.56-12.55-12.56s-12.55,5.62-12.55,12.56,5.62,12.56,12.55,12.56,12.55-5.62,12.55-12.56ZM95.85,655.25c-.28,3.95-1.19,7.73-2.56,11.42-.35.95-2.2,4.2-1.81,4.81l16.18,13.59c4.44,2.61,9.47,1.92,12.15-2.69,4.31-7.41,7.17-17.01,11.51-24.56,2.55-9.02-8.92-14.51-14.08-6.27-2.66,4.25-4.49,14.91-11.75,11.34-2.29-1.13-5.78-5-8-6.73-.27-.21-1.44-1.15-1.64-.91ZM84.08,681.16c-.79-.45-3.26,2.05-4.06,2.61-2.83,1.96-5.8,3.82-9.11,4.87-.5.69,7.31,9.25,7.14,12.4-.36,6.8-11.61,5.88-15.41,10.15-5.21,5.86.35,14.22,7.75,12.56,7.82-3.55,17.15-5.54,24.85-9.11,5-2.31,6.17-7.28,3.66-12.07l-14.82-21.41ZM56.19,711.79c-7.34.21-14.4-2.72-20.14,3.45-4.35,4.67-3.1,8.98-3.29,14.75-.24,7.42-1.03,17.06-.31,24.34.47,4.78,4.41,9.34,8.81,11.03s13.34.75,18.4.84c9.59.17,19.22.24,28.85.3,7.82.05,16.22,1.04,24.04.33,4.07-.37,7.63-3.84,9-7.54,1.15-3.09.61-5.14.74-8.28.31-7.25,1.08-17.58.31-24.65-.31-2.81-2.77-6.83-4.97-8.56-4.32-3.4-9.26-2.25-14.36-2.98-1.06,1.38-2.26,2.56-3.72,3.52-8.79,3.04-18.6,8-27.51,10.36-10.65,2.82-19.06-6.6-15.85-16.92ZM27.34,731.63v-8.57c0-.3.34-2.1.43-2.57.61-3.1,2.06-5.66,3.78-8.25-1.83-.16-4.49,2.34-5.57,3.75-3.46,4.51-3.24,12.03,1.36,15.64ZM71.36,771.63h-20.88c.81,1.98,2.22,2.65,2.37,5.01.2,3-1.15,4.38-3.67,5.57-4.73,2.24-13.84,3.15-15.09,9.25-1.44,6.98,4,12.27,10.93,10.64l22.09-8.19c1.18-2.51,3.22-4.8,5.71-6.09,2.29-1.18,4.71-.46,5.01-3.41.51-5.06-4.05-8.8-6.46-12.78ZM87.44,771.93h-9.31c3.52,4.41,5.92,8.86,4.81,14.74l6.31.3c-.69-4.97-2.71-9.98-1.8-15.03ZM107.23,772.27c-2.44.2-12.52-1.12-14.09-.19-.8.47-.67,3.31-.61,4.22.34,4.88,5.21,15.11-2.88,16.04-5.44.62-13.16-3.09-17.08,2.46-3.05,4.32-.73,11.07,4.5,11.99,8.1,1.42,17.6.67,25.83,2.12,6.21.7,9.85-3.84,9.46-9.77l-5.14-26.88Z"/>
  <path class="cls-10" d="M30.65,486.25c1.6.27,3.21.25,4.81.45,0,.23-3.05.18-3.48.16-.54-.03-1.13-.31-1.33-.31v-.3Z"/>
  <path class="cls-1" d="M107.87,285.68c.23.9.7,1.8,1.15,2.61,11.81,21.22,24.78,43.15,35.66,64.75,5.16,10.23,3.45,18.72-6.56,24.72-10.79,4.46-21.31,11.08-32.07,15.42-5.13,2.07-10.68,1.95-15.63-.58-.81-.41-4.96-3.21-4.79-3.92.05-.22,3.38-1.65,4-2.02,22.37-13.25,5.7-47.21-18.5-37.76-.89.35-4.11,2.37-4.69,2l-18.72-38.85c-2.85-6.49.07-13.95,5.49-18.07.66-.5,3.43-2.13,4.1-2.23,1.06-.16,1.74,1.02,2.56,1.52,2.1,1.29,4.16,2.14,6.67,2.35,9.91-1.27,20.83-1.17,30.63-2.75,2.65-.43,5.94-1.97,7.84-3.88.83-.84,1.5-2.35,2.23-3.11.24-.25.2-.28.62-.19Z"/>
  <path class="cls-2" d="M75.12,78.79l-2.9,1.45c-29.28,20.1,10.45,55.75,27.25,24.57l1.49-4.97,4.51,37.44c.34,9.24-5.83,17.03-14.65,19.32l-45,5.48c-8.9.32-16.69-5.33-19.24-13.82-1.21-14.54-4.73-29.9-5.55-44.36-.57-10.02,4.13-17.43,13.69-20.58,13.43-1.77,26.87-3.79,40.4-4.52Z"/>
  <path class="cls-1" d="M18.92,504.6c1.55,3.41,5.59,5.6,9.21,5.98,8.29.87,17.43.19,25.81.95l6.13-1.8c3.54,7.69,12.58,8.49,19.54,11.57,6.09,11.86,13.77,23.49,19.59,35.42,3.82,7.84,1.5,15.38-6.05,19.6-9.64,5.39-20.28,9.31-30.11,14.37-6.85,1.75-14.27-1.34-17.53-7.61l-31.41-65.4c-.92-3.91-.08-7.98,2.43-11.14.31-.38,2-2.23,2.39-1.96Z"/>
  <path class="cls-6" d="M56.19,711.79c-3.21,10.31,5.21,19.74,15.85,16.92,8.91-2.36,18.72-7.32,27.51-10.36,1.46-.96,2.65-2.14,3.72-3.52,5.1.73,10.05-.42,14.36,2.98,2.2,1.74,4.66,5.75,4.97,8.56.77,7.06,0,17.4-.31,24.65-.14,3.14.4,5.18-.74,8.28-1.37,3.69-4.93,7.16-9,7.54-7.82.72-16.22-.28-24.04-.33-9.63-.06-19.26-.13-28.85-.3-5.05-.09-14.03.85-18.4-.84s-8.33-6.25-8.81-11.03c-.72-7.28.07-16.93.31-24.34.19-5.77-1.06-10.08,3.29-14.75,5.74-6.17,12.8-3.23,20.14-3.45Z"/>
  <path class="cls-10" d="M92.21,429.75c2.61,8.25,11.67,11.93,19.64,8.91,1.46-.55,2.76-1.54,4.29-1.96,2.1,2.56,2.07,5.97,1.94,9.1-.42,9.87-2.22,20.09-2.78,30-1.87,7.27-8.41,12.26-16.01,11.37-21.56-2.47-43.33-3.36-64.89-5.73-3.99-.44-7.21-1.31-9.72-4.71-4.55-6.18-1.86-12.36-1.85-19.34l4.84,3.12c19.54,9.24,35.85-16.15,19.17-30.01l-4.18-2.58,49.54,1.84Z"/>
  <path class="cls-5" d="M64.05,177.47c.14-.22,3.75-.84,4.35-.91,37.28-4.76,56.62,42.98,26.35,65.16-27.24,19.96-64.52-5.56-56.44-38.14.67-2.7,4.8-12.46,7.09-13.66s7.62-1.37,10.49-2.43c3.58-1.32,6.68-4.77,7.92-8.32.18-.52.12-1.5.25-1.7ZM86.93,217.26c0-10.6-8.58-19.18-19.17-19.18s-19.17,8.59-19.17,19.18,8.58,19.18,19.17,19.18,19.17-8.59,19.17-19.18Z"/>
  <path class="cls-9" d="M52.55,621c2.25,8.74,10.19,12.24,18.51,8.99,1.92-.75,5.02-2.84,6.76-3.18,1.07-.21,3.87,2.87,4.66,3.77,23.65,27.11-6.97,67.51-39.42,52.08-11.41-5.43-19.04-17.4-19.02-30.13,6.74,2.98,14.32,2.5,19.99-2.4,7.36-6.36,8.35-17.21,2.24-24.81-.41-.52-3.03-2.72-2.69-3.16,2.78-1.34,5.94-1.29,8.98-1.18Z"/>
  <path class="cls-12" d="M120.49,49.62c-.8-6-6.83-11.36-12.81-11.99-13.45-1.42-21.98,12.11-15.26,23.69l2.37,3.04-20.48-10.78c-5.72-3.05-8.58-9.5-6.34-15.77,4.8-8.17,8.6-18.1,13.7-25.98,3.56-5.51,9.43-7.83,15.75-5.44,8.07,3.05,16.6,9.75,24.76,13.11,5.17,2.79,7.86,8.05,6.94,13.96-.3,1.96-6.31,13.43-7.68,15.47-.26.39-.34.82-.96.69Z"/>
  <path class="cls-3" d="M127.35,389.18l14.1,17.31c2.54,4.95,1.78,10.77-3.02,13.96l-28.67,13.41c-9.85,3.46-17.71-8.42-10.46-15.88,2.14-2.2,7.03-3.72,9.88-5.15,2.69-1.34,5.39-2.21,5.78-5.67.49-4.29-4.06-6.08-5.43-9.03-.14-.3-.24-.55-.14-.88l17.96-8.08Z"/>
  <path class="cls-3" d="M93.73,249.01l9.79,26.44c1.45,5.8-1.36,11.36-7.55,12.3-6.65,1.01-14.5,1.26-21.3,1.84-4.33.37-8.91,2-12.61-1.21-5.15-4.46-3.49-13.08,3.14-14.89,3.71-1.01,11.51-.34,14.29-2.24,1.34-.92,2.3-3.21,2.13-4.82-.22-2.08-4.76-12.07-4.38-12.62,4.37-.6,8.44-1.59,12.52-3.26.73-.3,3.44-2.01,3.99-1.54Z"/>
  <path class="cls-3" d="M112.68,225.23c.33-.31,1.27.8,1.49,1.06,1.9,2.21,5.74,9.38,7.91,10.43,1.36.66,3.37.66,4.78.15,2.5-.91,7.06-8.44,9.85-10.59,7.68-5.91,17.89,3.53,12.46,11.87-6.23,6.65-11.56,14.74-17.7,21.37-4.38,4.72-8.39,5.21-13.82,1.49-5.34-5.98-9.34-13.09-14.25-19.45l.11-.68c4.17-4.37,7.64-9.78,9.18-15.64Z"/>
  <path class="cls-3" d="M107.23,772.27l5.14,26.88c.39,5.93-3.24,10.47-9.46,9.77-8.23-1.45-17.72-.7-25.83-2.12-5.23-.92-7.56-7.67-4.5-11.99,3.92-5.55,11.64-1.83,17.08-2.46,8.08-.93,3.22-11.16,2.88-16.04-.06-.92-.19-3.75.61-4.22,1.56-.92,11.64.4,14.09.19Z"/>
  <path class="cls-3" d="M91.35,491.67c-6.76,10.32,7.51,10.51,13.43,13.77,9.18,5.06,3.96,19.77-7.35,16.68-9.22-2.52-18.74-7.41-28-10.16-1.7-.86-4.78-3.71-5.28-5.56-.32-1.18.8-2.68,1.16-3.98.51-1.85.73-3.54.27-5.44l5.06-6.98,1.04-.16,19.7,1.82Z"/>
  <path class="cls-3" d="M84.08,681.16l14.82,21.41c2.51,4.79,1.34,9.76-3.66,12.07-7.71,3.56-17.03,5.56-24.85,9.11-7.4,1.66-12.95-6.7-7.75-12.56,3.79-4.27,15.04-3.35,15.41-10.15.17-3.15-7.64-11.71-7.14-12.4,3.3-1.06,6.28-2.91,9.11-4.87.8-.56,3.28-3.06,4.06-2.61Z"/>
  <path class="cls-3" d="M95.85,655.25c.2-.24,1.38.7,1.64.91,2.23,1.73,5.71,5.6,8,6.73,7.26,3.57,9.08-7.08,11.75-11.34,5.16-8.23,16.62-2.75,14.08,6.27-4.34,7.56-7.21,17.16-11.51,24.56-2.68,4.61-7.71,5.31-12.15,2.69l-16.18-13.59c-.39-.62,1.46-3.87,1.81-4.81,1.37-3.69,2.28-7.47,2.56-11.42Z"/>
  <path class="cls-3" d="M82.56,587.34c.79-.08,1.21.62,1.73,1.15,2.36,2.47,11.28,12.93,12.08,15.57,1.28,4.23.06,7.99-3.81,10.15-7.67,4.27-17.1,7.18-24.87,11.5-8.47,2.55-14.31-8.88-6.79-14.02,2.79-1.9,9.8-3.76,11.59-6.14,3.46-4.58-1.47-7.97-3.68-11.5l13.75-6.73Z"/>
  <path class="cls-3" d="M71.36,771.63c2.41,3.98,6.97,7.72,6.46,12.78-.3,2.94-2.72,2.22-5.01,3.41-2.49,1.29-4.53,3.58-5.71,6.09l-22.09,8.19c-6.92,1.63-12.37-3.66-10.93-10.64,1.26-6.1,10.36-7.01,15.09-9.25,2.52-1.19,3.87-2.57,3.67-5.57-.16-2.36-1.56-3.03-2.37-5.01h20.88Z"/>
  <ellipse class="cls-11" cx="79.02" cy="368.45" rx="15.86" ry="15.87"/>
  <path class="cls-3" d="M138.74,56c4.66-.65,8.73,3.58,8.2,8.21-.15,1.26-1.11,2.84-1.86,3.85-4.76,6.36-12.97,12.54-18.18,18.79-3.62,2.62-8.33,2.7-11.16-1.05l-7.87-13.17c1.56-.86,3.24-1.25,4.82-2.11,2.88-1.56,4.87-3.85,6.76-6.46,1.42,2.47,4.94,3.47,7.47,2.06,3.85-2.14,6.97-9.43,11.83-10.11Z"/>
  <ellipse class="cls-11" cx="81.43" cy="97.43" rx="14.23" ry="14.24"/>
  <path class="cls-3" d="M58.25,488.69c.92,5.11,4.72,12.44-.76,16.15-3.32,2.24-9.05,1.05-12.86.94-5.3-.15-11.63.09-16.81-.62-5.62-.76-7.26-8.68-2.73-12s14.69,1.71,17.88-2.86c.62-.89.79-2.81,1.65-2.87l13.64,1.25Z"/>
  <path class="cls-3" d="M105.16,408.95c-6.07,2.3-10.5,4.56-13.06,10.85-.45,1.11-.12,2.67-1.58,2.93-3.79.15-7.58.22-11.36.35-4.21.15-7.96,1.52-10.95-2.54-1.86-2.53-2-5.44-.25-8.07,2.27-3.41,5.1-3.26,8.82-3.51,3.04-.2,8.12.61,10.22-2.1,2.69-3.48-.04-6.87-.76-10.53,1.48.69,2.89,1.47,4.43,2.03,2.17.78,5.13,1.53,7.42,1.59,1.45.04,2.71-.34,4.08-.18l2.98,9.17Z"/>
  <path class="cls-3" d="M39.96,166.89c2.33.27,4.71.45,7.07.32,1.49-.08,7.11-1.28,7.95-.77.36.22,3.73,6.99,3.83,7.59.74,4.31-1.51,7.04-5.27,8.72-7.57,1.1-15.96,4.27-23.44,5.11-2.43.27-4.29.22-6.22-1.43-2.65-2.26-3.12-6.35-1.06-9.16,4.18-5.72,17.33-.97,17.13-10.38Z"/>
  <ellipse class="cls-11" cx="35.82" cy="444.6" rx="12.62" ry="12.63"/>
  <ellipse class="cls-11" cx="32.45" cy="636.6" rx="12.55" ry="12.56"/>
  <path class="cls-3" d="M82.33,172c-.09-.94.66-1.24.95-2.2.86-2.81-.18-5.17-2.46-6.82,4.81-.56,10.02-.67,14.58-2.4,3.18-1.21,5.83-3.26,8.4-5.42,2.64,1.14,4.89,3.36,6.01,6.02,3.49,8.29-5.78,13.11-10.27,18.6-.75.2-3.84-2.35-4.8-2.91-3.85-2.23-8.05-3.92-12.41-4.87Z"/>
  <path class="cls-3" d="M61.26,596.35l2.42,7.88c-1.76,1.41-3.98,1.94-5.84,3.2-2.75,1.86-4.71,4.8-5.28,8.1l-9.42.64c-3.39-.42-6.35,1.12-9.38-.86-3.63-2.37-2.89-8.23,1.11-9.83s12.58,1.3,14.73-3.9c1.14-2.77-.3-4.98-.91-7.68,1.52.27,2.76,1.12,4.28,1.58,2.83.86,5.36.91,8.3.87Z"/>
  <ellipse class="cls-11" cx="105.54" cy="53" rx="10.26" ry="10.27"/>
  <path class="cls-3" d="M90.4,68c.63,1-1.11,3.21-1.96,3.82-2.05,1.46-4.96,1.38-7.47,1.55-3.42.23-7.08.17-10.53.29-3.63.13-10.59,1.81-11.26-3.74-1.23-10.16,13.85-2.91,17.02-9.2l14.19,7.29Z"/>
  <path class="cls-4" d="M8.71,516.62c1.4,7.33,6.1,13.54,8.71,20.45-9.41-.16-15.05-10.63-10.27-18.85.14-.25,1.19-2.01,1.56-1.6Z"/>
  <path class="cls-4" d="M27.34,731.63c-4.6-3.61-4.82-11.13-1.36-15.64,1.08-1.41,3.74-3.91,5.57-3.75-1.71,2.59-3.16,5.15-3.78,8.25-.09.48-.43,2.28-.43,2.57v8.57Z"/>
  <path class="cls-2" d="M88.94,79.38l-3.6-1.2c1.19-.11,2.79.21,3.6,1.2Z"/>
  <path class="cls-2" d="M89.24,79.68s.01-.2,0-.29c.32-.15,1.24.42,1.49.75-.26,0-1.44-.41-1.49-.46Z"/>
  <path class="cls-2" d="M91.94,80.59c.05.59-.59.3-.89-.16l.89.16Z"/>
  <path class="cls-7" d="M86.93,217.26c0,10.6-8.58,19.18-19.17,19.18s-19.17-8.59-19.17-19.18,8.58-19.18,19.17-19.18,19.17,8.59,19.17,19.18ZM81.69,217.26c0-7.7-6.24-13.94-13.93-13.94s-13.93,6.24-13.93,13.94,6.24,13.94,13.93,13.94,13.93-6.24,13.93-13.94Z"/>
  <ellipse class="cls-11" cx="67.76" cy="217.26" rx="13.93" ry="13.94"/>
</svg>