<?xml version="1.0" encoding="UTF-8"?>
<svg id="Layer_1" data-name="Layer 1" xmlns="http://www.w3.org/2000/svg" viewBox="0 0 394.8 293.76">
  <defs>
    <style>
      .cls-1 {
        fill: #b9453c;
      }

      .cls-2 {
        fill: #43bec6;
      }

      .cls-3 {
        fill: #b96d9f;
      }

      .cls-4 {
        fill: #ba443a;
      }

      .cls-5 {
        fill: #68873a;
      }
    </style>
  </defs>
  <path class="cls-2" d="M0,122.3c2.83-20.69,16.46-34.71,37.54-36.21,10.12-.72,20.33-.88,30.47-1.43,31.37-1.7,62.76-3.33,94.13-5.17,2.93-3.18,6.5-5.59,10.19-7.8l9.31-41.77c5.87-19.91,26.04-32.93,46.71-29.09l140.97,31.24c19.91,6.45,27.97,25.04,24.21,44.95-3.57,18.86-8.72,37.49-12.52,56.31-3.98,13.71-14.87,24.88-28.83,28.37l-10.38,12.76c-.1.48.1.29.3.41.42.25.99.49,1.45.71,12,5.83,26.19,8.74,33.06,21.14,13.22,23.83-9.44,51.29-35.18,43.33-18.27-8.32-36.8-16.13-54.97-24.66-3.39-1.59-6.61-2.94-9.55-5.32-4.71-3.83-8.93-9.85-10.93-15.58-2.07.73-4.19,1.15-6.37,1.4l-48.85,5.36c-6.41,9.32-15.91,16.34-27.23,18.34-3.83.68-7.47.48-11.33.67l-4.79,8.4c.15.26.36.27.59.36,8.41,3.15,20.21,3.83,28.02,7.96,26.88,14.21,18.11,54.61-12.79,56.79h-2.16l-5.86-.98-62.32-16.59c-6.28-2.73-11.87-7.5-15.66-13.15-3.45,2-7.08,4.27-11.08,4.99-3.07.56-6.22.36-9.3.53-13.59.76-27.18,1.5-40.78,1.92-5.13.16-7.95.64-13.01-1.12-19.36-6.75-22.48-33.31-5.17-44.38,6.67-4.27,12.71-4.07,20.33-4.37,2.8-.11,5.61-.12,8.41-.23.29-.01.89.18.84-.24-6.09-.28-12.52.59-18.52-.55-13.17-2.52-23.68-13.21-27.36-25.88l-1.62-7.62v-63.79ZM217.08,133.56c41.7,6.78,83.32,14.09,125.06,20.65,15.34.72,27.15-10.31,31.19-24.47,5.26-18.42,7.87-38.57,12.56-57.22,1.87-15.48-5.78-29.24-21.27-33.11-47.18-10.06-94.12-21.42-141.43-30.77-16.64-.87-30.32,10.33-34.27,26.19l-7.36,33.77c8.44-1.64,17.33-.5,24.95,3.47,1.47.77,2.81,1.82,4.31,2.52,6.26-25.24,36.08-36.3,57.54-21.2,14.12,9.94,19.38,28.61,12.78,44.62-8.15,19.79-31.72,28.53-50.98,18.99-1.69-.84-3.22-2.06-4.94-2.85-.93,4.46-3.01,8.57-5.56,12.31-.4.59-2.47,2.96-2.55,3.21-.3,1,.1,2.79-.04,3.9ZM244.12,54.99c-13.55.96-25.15,12.87-26.05,26.38,4.41,5.64,6.95,11.72,8.08,18.78.19,1.17.03,3.28.62,4.18,1.58,2.41,8.04,5.72,10.8,6.7,12.61,4.47,27.28-1.14,33.98-12.55,12.11-20.62-3.86-45.16-27.43-43.49ZM217.07,113.43c1.64-7.03,1.46-13.97-1.63-20.54-5.86-12.44-19.58-19.14-33.1-15.99-1.76.41-3.33,1.34-5.07,1.76-.06.42.55.23.84.24,18.73.69,33.45,11.49,37.9,29.97.31,1.29.4,2.64.66,3.9.05.23.09.72.41.66ZM175.28,87.36c-46.72,1.59-93.41,5.69-140.14,7.37-14.6,1.27-25.9,14.88-26.74,29.14-1.18,19.81.88,40.74,0,60.67.91,13.55,11.3,26.22,25.29,27.23h144.89c15.95-1.07,29.26-14.9,30.1-30.81,1.13-21.23-.88-43.44,0-64.77-1.72-18.47-15-29.44-33.4-28.81ZM217.07,141.96v8.63l7.2-.84c-.61-.83-2.37-6.82-2.68-7.03-.51-.34-3.67-.33-4.52-.76ZM269.06,150.65l-37.84-6.29c1.33,2.88,1.88,5.88.65,8.92-2.28,5.62-9.81,5.02-14.8,5.7-.43,11.12,1.37,22.6-2.16,33.33l46.1-5.1c9.75-2.72,17.01-12,13.63-22.36l-5.58-14.2ZM282.07,152.76l-3.36-.48c.31.61.88,2.92,1.32,3.12l2.04-2.63ZM340.59,162.35l-48.76-7.88c-3,3.23-5.67,6.83-8.53,10.21,1.94,9.71-1.83,19.67-9.77,25.49,1.37,5.88,5.72,11.15,10.53,14.67,19.09,8.35,38.07,18.23,57.32,26.14,11.57,4.75,23.84.33,28.91-11.22,4.89-11.13-.69-23.18-11.32-28.19-6.58-3.1-14.3-5.66-20.64-9.1-5.57-3.02-6.49-8.77-2.78-13.75,1.61-2.16,3.62-4.05,5.03-6.36ZM93.04,220.16l-35.1-.04c-.8,5.94-4.1,8.19-9.86,8.64-6.06.48-17.57-.35-22.71,1.76-11.97,4.92-14.23,21.28-3.54,28.81,6.19,4.36,11.37,2.8,18.32,2.52,13.52-.55,27.05-1.04,40.55-1.91,4.77-.3,6.57-.59,10.65-3.26.62-.4,2.09-1.19,2.18-1.91-1.39-5.58-1.38-11.44.3-16.94.67-2.18,1.81-4.17,2.58-6.31l-3.4-11.36ZM103.14,220.14h-1.44s.48,1.68.48,1.68c.21.16,1.13-1.52.96-1.68ZM162.38,220.14h-49.29l-9.12,15.58c-7.46,13.87-.51,27.14,13.02,33.03,19.32,4.74,38.63,10.96,58,15.4,30.1,6.9,38.9-31.75,14.49-40.86-7.74-2.89-17.66-3.69-25.23-6.67-5.11-2.01-5.96-7.29-4.21-11.99.6-1.6,1.78-2.89,2.34-4.49Z"/>
  <path class="cls-3" d="M175.28,87.36c18.4-.63,31.68,10.34,33.4,28.81-.88,21.33,1.13,43.54,0,64.77-.84,15.91-14.15,29.74-30.1,30.81H33.69c-13.99-1.01-24.38-13.68-25.29-27.23.88-19.92-1.18-40.86,0-60.67.85-14.26,12.15-27.87,26.74-29.14,46.73-1.67,93.42-5.77,140.14-7.37Z"/>
  <path class="cls-5" d="M217.08,133.56c.14-1.11-.26-2.9.04-3.9.07-.25,2.14-2.62,2.55-3.21,2.55-3.73,4.63-7.85,5.56-12.31,1.72.78,3.25,2.01,4.94,2.85,19.26,9.54,42.83.8,50.98-18.99,6.6-16.01,1.34-34.69-12.78-44.62-21.46-15.1-51.28-4.04-57.54,21.2-1.5-.7-2.84-1.75-4.31-2.52-7.62-3.97-16.51-5.11-24.95-3.47l7.36-33.77c3.95-15.86,17.63-27.06,34.27-26.19,47.31,9.36,94.25,20.72,141.43,30.77,15.49,3.88,23.14,17.64,21.27,33.11-4.7,18.66-7.31,38.8-12.56,57.22-4.04,14.16-15.85,25.19-31.19,24.47-41.74-6.55-83.36-13.87-125.06-20.65Z"/>
  <path class="cls-4" d="M162.38,220.14c-.57,1.6-1.75,2.89-2.34,4.49-1.75,4.69-.9,9.98,4.21,11.99,7.57,2.98,17.49,3.78,25.23,6.67,24.41,9.11,15.61,47.76-14.49,40.86-19.36-4.44-38.67-10.66-58-15.4-13.53-5.89-20.48-19.16-13.02-33.03l9.12-15.58h49.29Z"/>
  <path class="cls-4" d="M340.59,162.35c-1.41,2.31-3.42,4.2-5.03,6.36-3.71,4.98-2.79,10.74,2.78,13.75,6.34,3.44,14.07,6,20.64,9.1,10.63,5.01,16.21,17.06,11.32,28.19-5.08,11.55-17.34,15.98-28.91,11.22-19.25-7.91-38.24-17.79-57.32-26.14-4.81-3.52-9.15-8.78-10.53-14.67,7.93-5.82,11.71-15.78,9.77-25.49,2.87-3.38,5.53-6.97,8.53-10.21l48.76,7.88Z"/>
  <path class="cls-4" d="M93.04,220.16l3.4,11.36c-.77,2.14-1.92,4.12-2.58,6.31-1.68,5.5-1.69,11.37-.3,16.94-.1.72-1.57,1.51-2.18,1.91-4.08,2.67-5.88,2.96-10.65,3.26-13.5.86-27.03,1.36-40.55,1.91-6.96.28-12.13,1.83-18.32-2.52-10.69-7.52-8.43-23.89,3.54-28.81,5.14-2.11,16.65-1.28,22.71-1.76s9.05-2.7,9.86-8.64l35.1.04Z"/>
  <path class="cls-4" d="M244.12,54.99c23.57-1.67,39.54,22.88,27.43,43.49-6.7,11.41-21.38,17.02-33.98,12.55-2.77-.98-9.22-4.29-10.8-6.7-.59-.9-.43-3-.62-4.18-1.13-7.07-3.68-13.15-8.08-18.78.9-13.51,12.5-25.42,26.05-26.38Z"/>
  <path class="cls-4" d="M269.06,150.65l5.58,14.2c3.38,10.37-3.88,19.64-13.63,22.36l-46.1,5.1c3.52-10.73,1.72-22.21,2.16-33.33,4.99-.68,12.52-.08,14.8-5.7,1.23-3.04.68-6.04-.65-8.92l37.84,6.29Z"/>
  <path class="cls-1" d="M217.07,113.43c-.33.06-.36-.43-.41-.66-.26-1.25-.35-2.6-.66-3.9-4.45-18.48-19.17-29.29-37.9-29.97-.29-.01-.89.18-.84-.24,1.75-.42,3.32-1.35,5.07-1.76,13.53-3.15,27.25,3.55,33.1,15.99,3.1,6.58,3.27,13.51,1.63,20.54Z"/>
</svg>