<?xml version="1.0" encoding="UTF-8"?>
<svg id="Layer_1" data-name="Layer 1" xmlns="http://www.w3.org/2000/svg" viewBox="0 0 203.52 189.12">
  <defs>
    <style>
      .cls-1 {
        fill: #43bec6;
      }

      .cls-2 {
        fill: #679a41;
      }

      .cls-3 {
        fill: #43bec5;
      }

      .cls-4 {
        fill: #b8bc99;
      }

      .cls-5 {
        fill: #ba443b;
      }
    </style>
  </defs>
  <path class="cls-1" d="M145.78,66.6l5.55,2.16c3.87-3.44,8.22-6.17,13.3-7.57,20.21-5.54,39.78,10.43,38.65,31.22-2.93,20.59-4.27,41.46-7.23,62.04-2.69,18.73-19.04,32.65-38.37,28.6-2.78-.58-5.28-1.83-7.93-2.77-8.22,8.16-20.71,10.78-31.63,6.86-7.96-2.86-15.79-6.52-23.68-9.64-11.12-4.4-22.45-8.46-33.48-13.02s-18.12-13.8-19.61-25.69C9.69,123.52-6.74,87.25,2.94,53.16,14.53,12.39,58.42-9.98,98.47,4.73c26.22,9.63,44.82,33.99,47.31,61.87ZM137.64,73.11c0-35.64-28.89-64.53-64.53-64.53S8.58,37.47,8.58,73.11s28.89,64.53,64.53,64.53,64.53-28.89,64.53-64.53ZM179.93,168.88c3.09-3.06,5.27-6.92,6.93-10.93,2.51-21.14,5.94-42.4,7.8-63.64.13-1.53.31-3.27.24-4.79-.68-15.04-16.64-25.29-30.6-19.34-.79.34-5.79,3.14-5.85,3.55-.1.65,2.43,3.19,3,3.94,4.28,5.77,6.39,13.04,5.9,20.24-3.08,22.67-4.6,45.64-8.57,68.13-.79,2.62-2.26,4.91-3.44,7.35,8.31,3.82,18.16,1.86,24.6-4.52ZM144.4,173.63c3.18-3.35,5.76-7.55,7.03-12.03,2.45-22.75,5.98-45.44,7.51-68.25-.66-6.08-4.28-12.15-9.28-15.65-.5-.35-2.9-1.83-3.32-1.96-.46-.14-.53,1.23-.56,1.58-.55,5.92-1.09,10.63-2.79,16.39-10.8,36.65-48.21,58.8-85.74,50.5-2.08-.46-4.1-1.15-6.19-1.6,1.68,7.1,7.34,11.68,13.84,14.33,19.02,7.77,38.4,14.74,57.35,22.71,8.06,2.36,16.44-.02,22.15-6.03Z"/>
  <path class="cls-2" d="M137.64,73.11c0,35.64-28.89,64.53-64.53,64.53S8.58,108.75,8.58,73.11,37.47,8.58,73.11,8.58s64.53,28.89,64.53,64.53ZM118.18,61.24c0-18.6-15.08-33.68-33.68-33.68s-33.68,15.08-33.68,33.68,15.08,33.68,33.68,33.68,33.68-15.08,33.68-33.68Z"/>
  <path class="cls-4" d="M144.4,173.63c-5.71,6.01-14.09,8.38-22.15,6.03-18.95-7.97-38.34-14.94-57.35-22.71-6.49-2.65-12.16-7.23-13.84-14.33,2.08.45,4.1,1.14,6.19,1.6,37.53,8.3,74.95-13.85,85.74-50.5,1.7-5.76,2.23-10.47,2.79-16.39.03-.36.11-1.73.56-1.58.42.13,2.82,1.6,3.32,1.96,5,3.5,8.62,9.57,9.28,15.65-1.54,22.81-5.06,45.51-7.51,68.25-1.26,4.48-3.85,8.68-7.03,12.03Z"/>
  <path class="cls-4" d="M179.93,168.88c-6.44,6.38-16.29,8.34-24.6,4.52,1.18-2.44,2.64-4.73,3.44-7.35,3.97-22.49,5.49-45.47,8.57-68.13.49-7.21-1.62-14.47-5.9-20.24-.56-.76-3.1-3.29-3-3.94.07-.41,5.06-3.21,5.85-3.55,13.97-5.95,29.92,4.3,30.6,19.34.07,1.52-.1,3.26-.24,4.79-1.86,21.23-5.29,42.49-7.8,63.64-1.65,4.01-3.84,7.87-6.93,10.93Z"/>
  <path class="cls-3" d="M118.18,61.24c0,18.6-15.08,33.68-33.68,33.68s-33.68-15.08-33.68-33.68,15.08-33.68,33.68-33.68,33.68,15.08,33.68,33.68ZM109.82,61.25c0-13.98-11.34-25.32-25.32-25.32s-25.32,11.34-25.32,25.32,11.34,25.32,25.32,25.32,25.32-11.34,25.32-25.32Z"/>
  <circle class="cls-5" cx="84.5" cy="61.25" r="25.32"/>
</svg>