<?xml version="1.0" encoding="UTF-8"?>
<svg id="Layer_1" data-name="Layer 1" xmlns="http://www.w3.org/2000/svg" viewBox="0 0 201.93 655.69">
  <defs>
    <style>
      .cls-1 {
        fill: #a35e68;
      }

      .cls-2 {
        fill: #43bec6;
      }

      .cls-3 {
        fill: #71594c;
      }

      .cls-4 {
        fill: #7492c4;
      }

      .cls-5 {
        fill: #ba443b;
      }

      .cls-6 {
        fill: #b7bd9a;
      }
    </style>
  </defs>
  <path class="cls-3" d="M.71,630.56h-.71V38.22c.93-3.12,1.42-5.55,2.83-8.49-.78,3.24-2.05,6.32-2.14,9.71l.02,591.13Z"/>
  <rect class="cls-1" x="201.57" y="38.22" width=".35" height="592.35"/>
  <path class="cls-2" d="M166.56,13.09c3.07,7,1.86,14.2-1.84,20.63-.51.89-2.19,2.46-2,3.17.52.31.87,2.29,1.54,2.03.79-.31,3.98-4.23,5.13-5.13,7.05-5.56,16.62,1.51,13.37,9.84-.82,2.11-11.27,13.02-13.55,15.11-3.48,3.2-9.06,3.48-12.73.35-1.78-1.69-8.43-14.74-9.61-15.15-2.46-.86-1.93,1.07-2.69,2.5-1.36,2.55-3.09,3.18-5.57,4.34,2.77.95,5.49,2.76,7.23,5.16,6.74,9.29,10.05,24.96,5.78,35.81-.84,2.12-2.22,3.95-3.07,6.06,5.36,3.41,10.41,5.71,9.88,13.14-.4,5.54-5.37,7.59-8.16,11.66,4.26,5.16,7.47,11.56,7.79,18.4.07,1.6-.58,4.94-.28,5.94.19.64,1.67,1.69,2.2,2.4.6.81,4.23,6.33,4.63,6.33,4.14-4.69,7.28-10.44,14.61-8.24,5.42,1.63,8.07,7.37,6.1,12.69-.79,2.13-12.16,15.78-14.33,17.86-5.04,4.84-11.39,3.15-15.54-1.81-1.48-1.78-6.88-10.57-7.98-11.12-.62-.32-.68-.06-1.07.37,2.17,6.37,5.09,12.61,7.19,18.99,1.04,3.15.79,2.77,2.42,5.72,8.37,15.15,18.04,31.18,25.59,46.58,5.97,12.18-.22,20.26-11.85,24.43,3.88,7.22,13.98,12.33,10.08,21.93-2.55,6.26-12.1,7.53-17.35,10.97-.32.5,1.03,3.71,1.16,4.88.49,4.51-.97,17.56-1.71,22.51-1,6.69-5.59,11.98-12.55,12.56-1.06.09-2.68-.32-3.1-.23-.2.04-1.9,2.04-1.97,2.23-.24.61,1.1.91,1.42,1.04,3.59,1.48,7.51,1.79,10.04,5.18,4.48,5.99,1.02,14.82-6.42,15.8-3.7.49-6.49-1.48-9.98-2.21,4.15,8.16,9.53,15.85,12.69,24.45,1.17,8.82-4.75,13.83-12.35,16.43,3.35,6.33,12.18,10.8,8.77,19.21-2.01,4.94-7.2,5.25-11.14,7.61-.21.12-.7,0-.45.6.17.42,2.56,2.79,3.12,3.6,1.6,2.29,3.11,5.07,3.93,7.75.32,1.05.98,5.48,1.15,5.75.12.18,2.85,1.57,3.64,2.2s3.78,3.68,4.26,3.88c.59.25.48-.24.6-.45,2.03-3.45,2.43-7.79,6.64-9.63,7.39-3.25,14.59,3.18,12.4,10.99-.9,3.21-5.07,11.08-6.79,14.44-2.14,4.2-4.2,7.93-9.68,7.67-6.38-.3-10.26-6.99-15.04-10.08-1.57-1.02-2.25-.87-1.27.92,2.83,5.17,10.62,12.71,11.51,18.21.16.99-.16,2.03.19,2.99,2.28.6,4.49.17,6.92.86,4.45,1.26,8.03,6.11,8.48,10.63s.51,19.35-.59,23.11c-1.24,4.25-5.49,8.12-10.01,8.21l4.59,25.66c.48,9.73-5.28,18.92-14.4,22.39-2.64,1-5.6,1.39-8.25,2.39-.07.44.06.8.21,1.21,3.37,9.09,13.77,20.16,14.65,29.93,1.06,11.75-6.85,22.54-17.95,25.9-8.05,2.44-16.9,3.76-25.03,6.09-5.66,5.87-12.91,9.39-21.19,9.58-16.64-2.67-34.34-2.7-50.89-5.35-19.94-3.2-27.41-27.33-13.14-41.37l3.01-2.47h-8.84v-29.02h41.38c.16-2.61,1.64-4.91,2.75-7.19l-7.71-29.26-36.42,13.45v-30.08l15.17-4.28c-.05-10.95.29-22.05-.17-32.91l-15-4.21v-29.37l27.01,9.53c.47-.13.43-.53.57-.87.96-2.27,2.29-6.65,2.93-9.1s1.22-4.77.96-7.34c-.73.26-.71,2.54-1.08,2.81-.54.39-8.77-2.66-10-3.22-10.99-4.97-18.4-13.94-20.92-25.78-2.9-13.66-1.48-34.48,7.95-45.48,14.66-17.11,38.81-18.9,59.42-13.26-1.3-4.08-1.02-8.51,1.62-12,1.4-1.85,3.96-2.94,3.68-5.69H19.1v-23.71h69.67l-69.69-18.56.04-21.05,69.65-18.06H19.1v-23.35h93.01v37.86l-55.88,14.16c-.1.92,0,.56.52.71,11.68,3.45,23.78,5.66,35.48,9.11,2.26.34,3.01-2.66,4.86-4.16,4.24-3.45,6.85-2.53,11.65-2.47s9.32.14,13.98.34c-1.4-3.05-1.94-5.28-.53-8.49.96-2.19,4.35-4.95,6.72-4.95h6.9c-.25-3.29-2.24-6.23-2.12-9.55-10.46-.17-17.57-9.95-13.71-19.91.45-1.15,2.11-3.4,1.98-4.25-3.66-8.6-8.71-16.95-12.38-25.5-2.75-6.4-2.97-12.34,2.36-17.58.74-.72,4.36-2.82,4.43-3.08.29-1.14-.47-2.96-.32-4.48.13-1.42,1.22-3.85,2.09-5,3.04-4.05,8.41-3.55,12.91-4.07.48-.06.64.19.49-.49-.57-2.52-2.5-5.56-3.15-8.18-5.91-.94-11.49-2.45-16.27-6.19v22.29l-93.01,34.68v-30.08l15.17-4.28c-.05-10.95.29-22.05-.17-32.91l-15-4.21v-29.37l83.81,31.14c-2.94-8-1.98-16.68,2.12-24.06-7,2.77-15.7.23-14.47-8.64.89-6.41,7.21-6.06,11.64-7.48.49-.16.83.01.65-.63-.21-.77-1.52-3.23-1.99-4.03-.62-1.06-1.24.33-2.08.9-4.31,2.93-9.08,5.83-14.26,6.79l-5.28-25.45c4.6-.53,10.67-5.49,11.76-10,.31-1.29,1.01-8.32.93-9.61-.67-10.13-12.29-14.9-21.01-15.46-13.01-.83-31.19.03-32.03,16.81-.45,8.95,3.64,14.49,11.69,17.7,1.08.43,6.19,1.7,6.34,2.17l-7.62,24.93c-14.16-3.2-25.94-11.83-30.02-26.21-3.57-12.57-2.57-32.55,4.14-43.99,15.08-25.71,63.8-27.64,81.41-4.11,1.97,2.63,3.36,5.6,5.02,8.42,2.44-.89,4.99-1.36,7.57-1.73-2.22-3.35-1.68-7.52,1.59-9.9.44-.32,2.49-1.42,2.83-1.42h6.19c-.39-4.27-2.79-8.25-3.18-12.57-.33-3.7.28-8.09,1.76-11.49,7.47-17.21,32.63-16.71,39.96,0ZM160.9,27.95c3.52-8.95-1.03-18-10.06-20.89-11.76-3.77-22.99,8.16-19.31,19.68,1.2,3.77,5.16,8.56,9.05,9.7,1.14.33.15-2.74.15-3.33.06-3.95,3.08-8.18,6.74-9.57,5.45-2.07,9.97.12,13.43,4.42ZM155.95,33.37c0-2.49-2.01-4.5-4.5-4.5s-4.5,2.01-4.5,4.5,2.01,4.5,4.5,4.5,4.5-2.01,4.5-4.5ZM176.73,38.66c-2.51-2.65-6.5,3.55-8.39,5.04-2.08,1.64-4.51,2.16-6.97.96-1.16-.57-2.6-2.9-2.8-2.94-.36-.06-4.48,1.71-3.97,2.61l6.17,10.13c1.46,1.43,3.03.56,4.4-.5,1.99-1.54,8.93-8.87,10.59-10.99.87-1.11,2.33-2.9.98-4.32ZM122.36,43.53c-.3,2.86,2.01,1.45,3.7,1.4,3.85-.12,7.68-.15,11.53-.5,1.23-.36,1.57-1.83.44-2.6-.43-.29-3.92-2.24-4.15-2.19s-1.19,1.68-1.79,2.12c-2.68,1.99-6.63,1.08-9.73,1.77ZM125.19,54.14c-9.24-.17-18.6,2.02-23.99,10.14-6.76,10.19-4.09,28.05,5.84,35.44,10.22,7.6,29.23,4.81,36.47-5.84,5.04-7.42,4.12-14.31,2.89-22.76l-3.37,3.18c-10.76,8.07-25.4-2.84-20.5-15.56.67-1.75,1.91-2.96,2.65-4.6ZM142.17,63.69c0-4.01-3.25-7.26-7.25-7.26s-7.25,3.25-7.25,7.26,3.25,7.26,7.25,7.26,7.25-3.25,7.25-7.26ZM143.81,102.68c-.34.07-1.99,1.63-2.6,2-.81.49-4.03,1.98-3.96,2.66.06.63,1.56,2.24,1.7,4,.09,1.08-.72,3.77-.53,4.03.29.4,5.79,2.26,6.7,3.12,2.74-3.23,10.76-7.68,5.52-12.14-.58-.49-6.45-3.75-6.83-3.67ZM113.43,109.43c-.64-.62-4.15-1.25-5.22-1.86.74,2.88,1.59,4.99-.2,7.77-1.9,2.96-6.48,2.61-9.5,3.59-3.19,1.04-2.26,4.32.62,4.19s10.87-2.09,14.03-2.98c1.8-.51,4.31-.97,3.82-3.46-.09-.45-3.27-6.97-3.56-7.25ZM132.6,111.48c-1.55-.16-3-2.01-4.44-2.14-1.98-.18-5.06,1.06-7.21.71-.39.37,1.62,3.95,2,4.62,2.96-1.11,9.21.74,9.65-3.19ZM125.82,120.41c-3.82.46-3.24,1.26-5.61,3.23-3.06,2.54-5.23,1.37-8.25,5.19-14.85,18.78,7.7,45.16,28.9,32.81s10.36-44.27-15.04-41.23ZM160.68,172.91c3.28,2.69,4.43,2.26,7.13-.58,4.04-4.25,7.53-9.88,11.66-14.16,1.13-4.17-2.81-6.75-6.01-3.54s-5.1,9.19-11.33,6.74c-3.36-1.32-3.74-4.78-5.99-6.75-.31-.27-.39-.46-.89-.34-.1,1.94-3.54,4.81-3.12,6.45l8.55,12.17ZM54.46,161v20.17l33.25-10.08-33.25-10.08ZM141.1,168.43c-2.09.66-4.12,1.7-6.36,1.77.99,4.31,4.96,9.41,1.36,13.57-3.18,3.67-12.95.98-13.73,5.02-.48,2.49.94,4.09,3.34,4.42,6.15-1.17,12.57-.95,18.72-1.81,2.64-.37,4-2.76,3.23-5.3l-6.57-17.67ZM126.97,236.01c13.61-6.17,26.89,9.5,17.96,21.71-1.23,1.68-3.03,2.65-4.18,4.3,2.88,2.31,6.29,2.91,9.79,1.67,5.35-1.9,17.73-7.97,22.63-10.98,4.78-2.93,6.1-7.92,3.13-12.81l-25.11-45.28c-.94.8-2.09,1.61-3.23,2.07-2.37.95-21.34,2.87-23.97,2.49-1.06-.15-2.3-1.09-3.13-.97-.43.06-3.3,1.57-3.78,1.91-2.55,1.86-3.84,5.59-3.04,8.66,4.2,9.12,9.01,18,12.94,27.23ZM141.59,249.11c0-4.57-3.7-8.28-8.27-8.28s-8.27,3.71-8.27,8.28,3.7,8.28,8.27,8.28,8.27-3.71,8.27-8.28ZM149,290.39c1.12,1.12,2.97,1.51,4.49,1.01l19.05-8.89c2.39-1.56,2.19-4.31,1.04-6.64l-9.5-11.4c-.37-.27-.68-.1-1.06,0-.67.17-6.23,2.87-6.34,3.26-.23.78,2.06,2.79,2.6,3.7,1.9,3.22,1.59,6.41-1.44,8.75-2.65,2.05-14.22,4.81-8.84,10.2ZM146.73,270.38l-5.27-.74c.83,2.82,1.12,5.35-1.05,7.62-2.78,2.92-8.02,1.63-11.68,2.47-2.13,1.5-1.04,4.63,1.57,4.43l12.52-.78c.93-3.11,3.57-4.2,6.02-5.82l-2.11-7.19ZM156.64,296.89c-3.52,1.33-7.4,1.33-10.57-.91-2.1-1.49-1.47-2.32-4.8-2.62l-28.46-.71c.59,1.61,1.81,2.83,2.4,4.5,3.35,9.5-5.43,18.49-15.06,15.77-1.05-.3-1.85-1.03-2.9-1.17-.52,4.67-1.52,10.75,4.45,12,14.53.58,29.37,3.26,43.83,3.92,4.34.2,8.67-.26,9.99-5.21,1.49-5.57.51-13.54,1.87-19.36-.05-2.18.29-4.21-.74-6.2ZM109.76,301.19c0-3.36-2.73-6.09-6.09-6.09s-6.09,2.73-6.09,6.09,2.73,6.09,6.09,6.09,6.09-2.73,6.09-6.09ZM116.65,331.25c-.27-.27-4.6-.6-4.87-.37-.16.13-.38,2.53-1.58,3.73-3.1,3.1-8.24.7-11.93,1.7-1.37.37-1.37,2.68-.17,3.4,4,.77,8.29.57,12.41.67,2.04.05,7.42,1.56,7.62-1.93.03-.54-1.23-6.95-1.49-7.21ZM138.63,332.98l-8.13-.55c-2.23,3.93-8.81,8.85-2.56,12.49,1.83,1.07,17.04,6.53,19.04,6.78,4.88.62,6.63-4.5,2.29-6.89-5.54-3.04-13.38-2.04-10.63-11.83ZM93.24,344.33c-1.14.34-2.65,4.75-1.83,6l21.57,44.58c1.72,2.91,5.29,4.49,8.61,3.64,3.15-.8,17.88-8.01,20.82-9.95s4.62-5.25,3.11-8.55l-15.19-27.62c-2.08-1.11-4.71-1.55-6.67-2.88-.95-.65-3.38-3.74-3.64-3.79-.19-.04-2.45.93-3.48,1.03-3.89.36-16.04,0-19.66-.88-1.15-.27-2.89-1.81-3.64-1.58ZM91.24,404.8c3.05-12.06-2.33-21.59-14.49-24.24-7.76-1.69-24.83-1.62-31.45,3.21-9.12,6.65-8.51,22.44,1.28,28.39,1.09.66,4.58,2.76,5.59,1.84.43-.39,3.25-7.04,4-8.38,5.19-9.23,11.38-14.07,22.33-9.84,5.68,2.19,7.4,5.19,11.67,8.49.35.27.45.69,1.06.53ZM121.76,421.69c.67.83,2.46,1.05,3.44.64,4.79-2.8,11.38-4.55,15.99-7.35,1.93-1.18,2.16-2.57,1.27-4.63l-8.44-10.33c-1.23-.56-3.85,1.87-5.29,1.97.65,1.65,2.41,2.81,3.08,4.52,1.19,3.1.08,5.71-2.47,7.58-1.78,1.3-6.57,2.74-7.5,3.82-.74.87-.79,2.9-.08,3.78ZM108.91,467.8c-8.71-2.84-15.81-12.34-16.61-21.43-.16-1.79.25-3.95-.02-5.64-.21-1.3-1.98-3.28-2.44-4.99-1.8-6.73,1.72-12.43,7.75-15.19-6.75-5.69-13.13-15.53-21.33-18.99-2.91-1.23-6.44-1.71-9.2.12-4.04,2.69-9.73,14.6-10.69,19.38-1.42,7.1,1.15,13.42.54,20.36-.75,8.6-5.8,14.1-4.94,23.71.67,7.51,12.23,23.67,18.02,28.67,4.47,3.86,4.32,2.89,9.64,3.8,4.54.77,5.37,2.77,10.3.57,4.07-1.82,2.33-1.47,1.99-4.72-.57-5.49,2.19-10.77,7.43-12.74,1.14-.43,4.68-.82,4.89-.95.55-.34,4.28-10.46,4.65-11.96ZM103.7,413.74c-.29.28-.49,1.03-.39,1.43.41,1.74,3.25.61,4.35.59,1.76-.04,7.43.22,8.68-.52.2-.12,1.21-1.62,1.77-2.13s2.31-1.36,2.44-1.82c.09-.31-1.67-5.82-1.92-6.13-.54-.66-2.17-.74-3-.71,1.25,4.74-.97,8.25-5.87,8.81-1.4.16-5.25-.32-6.06.48ZM98.31,444.08c.63,14.64,16.01,24.04,29.37,17.53,12.84-6.26,15.42-24.85,4.04-33.8-2.43-1.91-2.42-.24-4.77.52-3.04.98-6.18.44-8.65-1.6-.94-.77-2.53-3.44-3.11-3.46-.35-.01-3.67.85-3.79,1.01.25,1.69,1.35,2.86,1.85,4.66,2.59,9.24-5.65,17.55-14.95,15.14ZM107.64,432.35c0-3.36-2.73-6.09-6.09-6.09s-6.09,2.73-6.09,6.09,2.73,6.09,6.09,6.09,6.09-2.73,6.09-6.09ZM144.64,448.33c-.03,1.5-1.99,4.81-1.24,6.01,2.81,1.51,9.45,9.12,12.05,9.54,1.22.2,2.82.09,3.41-1.14,2.02-5.18,5.05-10,7.17-15.12.64-1.55,1.61-3.8-.53-4.76-4.47-2.02-5.36,6.36-7.78,8.84-4.58,4.69-9.39-.57-13.08-3.36ZM135.05,464.65c-.71-.42-3.56,2.07-4.58,2.29,1.57,4.26,6.33,6.94,4.09,12.17-1.89,4.44-8.76,3.84-10.6,6.03-1.56,1.85.14,5.19,2.65,4.44,4.78-1.94,9.81-3.32,14.58-5.25,3.44-1.4,5.46-1.94,3.17-6.18-2.45-4.54-6.9-8.82-9.31-13.51ZM128.71,476.62c.34-.49-4.19-7.06-4.58-7.25-.52-.26-3.79.54-4.76.56-1.19.03-3.58-.53-4.21-.39-.54.12-3.3,9.13-4.12,10.28l8.65.71c2.68-1.97,5.96-2.72,9.02-3.91ZM54.46,506.36c4.88-.41,7.51-5.46,12.02-7.25-4.02-3.81-7.7-7.94-10.76-12.58l-1.26-.33v20.17ZM117.41,486.54c-3.62-.07-8.78-1.62-11.51,1.4-2.52,2.78-1.44,8.89-1.56,12.59-.26,8.02-3.13,17.45,7.93,18.22,10.71.75,23.35.19,34.3.35,4.99.07,12.73,1.55,13.99-4.78-.91-5.66,2.16-17.98-.77-22.6s-7.77-2.43-12.11-3.42c-6.02,1.61-13.76,6.17-19.64,7.27-5.72,1.07-11.13-3.1-10.62-9.04ZM73.48,503.64c-9.61,1.1-16.07,10.88-14.43,20.24,5.07,14.76,7.08,33.06,12.81,47.33,4.02,10.01,14.91,15.63,25.02,10.69,13.65-6.67,26.95-16.91,40.78-23.59,18.85-12,3.88-40.58-18.03-29.01-3.85,2.03-12.78,8.5-16.55,8.58-2.4.05-4.62-.96-5.67-3.2-2.38-5.1-3.15-13.36-5.11-18.95-2.87-8.22-10.02-13.09-18.83-12.09ZM97.96,512.73v-7.96c-.78-.62-2.6-.77-3.72-.88-.59-.06-1.75-.33-1.59.53.16.9,2.63,2.89,2.98,4.09l2.33,4.22ZM98.84,516.62v.35c.23-.12.23-.24,0-.35ZM99.37,518.39c.32,1.54,3.04,13.31,3.72,13.45.8-.71,6.27-3.26,6.48-3.6.15-.24.14-2.88.01-3.26-.15-.43-3.8-1.27-4.88-1.84-2.07-1.08-3.7-2.82-4.97-4.76-.17-.26-.04-1.03-.7-1.06-.23.56.3.84.35,1.06ZM152.06,547.05c1.82-.19,1.51-3.1,1.41-4.42-.21-2.69-2.13-13.91-2.99-16.11-.82-2.08-4.77-1.76-5.08-.83-.52,1.52,1.27,2.37,2.07,3.5,3.71,5.24,5.9,11.38,4.6,17.86ZM154.54,553.07c-1.1.75-3.92.47-4.6.88-.2.12-1.96,3.23-2.47,3.89-1.39,1.78-3.68,3.82-5.54,5.07-1.34.9-7.65,3.96-8.09,4.67-.41.66.58,2.61,2.05,2.41,1.55-.21,6.53-1.86,8.14-2.5,5.99-2.38,10.68-7.73,10.51-14.42ZM114.23,631.27c6.1-1.47,12.47-2.47,18.46-4.35,9.21-2.89,15.88-11.34,14.03-21.27-5.1-10.62-10.86-21.77-16.88-31.94-.31-.52-1.34-2.45-1.71-2.56l-19.25,10.8,6.39,38.89c.31,3.67-.36,6.89-1.05,10.43ZM103.26,585.62c-.5-.43-3.21,1.65-3.87,1.96-11.07,5.2-22.98,1.39-30.01-8.22l-3.59-6.13c.05,1.69-.11,3.4.04,5.08.49,5.4,3.16,13.5,3.07,18.45-.07,3.43-3.04,6.49-6.49,6.55-5.52.1-12.69-1.8-18.38-2.13-22.56-1.32-28.11,27.27-7.8,35.05,16.9,1.35,34.77,4.9,51.64,5.66,12.51.56,23.31-9.11,21.01-22.09l-5.62-34.19Z"/>
  <path class="cls-5" d="M73.48,503.64c8.81-1.01,15.96,3.86,18.83,12.09,1.95,5.59,2.73,13.85,5.11,18.95,1.04,2.24,3.26,3.25,5.67,3.2,3.78-.07,12.71-6.55,16.55-8.58,21.91-11.58,36.88,17,18.03,29.01-13.83,6.69-27.13,16.92-40.78,23.59-10.11,4.94-21-.69-25.02-10.69-5.73-14.27-7.74-32.58-12.81-47.33-1.64-9.36,4.81-19.14,14.43-20.24Z"/>
  <path class="cls-5" d="M103.26,585.62l5.62,34.19c2.29,12.98-8.51,22.65-21.01,22.09-16.87-.75-34.73-4.31-51.64-5.66-20.31-7.78-14.76-36.37,7.8-35.05,5.69.33,12.86,2.23,18.38,2.13,3.45-.06,6.42-3.13,6.49-6.55.1-4.95-2.57-13.05-3.07-18.45-.15-1.69.01-3.4-.04-5.08l3.59,6.13c7.04,9.6,18.95,13.41,30.01,8.22.66-.31,3.37-2.39,3.87-1.96Z"/>
  <path class="cls-5" d="M108.91,467.8c-.37,1.5-4.1,11.62-4.65,11.96-.21.13-3.74.52-4.89.95-5.24,1.97-8.01,7.25-7.43,12.74.34,3.26,2.08,2.9-1.99,4.72-4.93,2.21-5.75.21-10.3-.57-5.32-.91-5.17.06-9.64-3.8-5.8-5.01-17.35-21.16-18.02-28.67-.86-9.61,4.19-15.11,4.94-23.71.6-6.94-1.96-13.26-.54-20.36.96-4.78,6.64-16.69,10.69-19.38,2.75-1.83,6.29-1.35,9.2-.12,8.19,3.46,14.57,13.31,21.33,18.99-6.03,2.77-9.56,8.46-7.75,15.19.46,1.71,2.23,3.69,2.44,4.99.27,1.69-.13,3.85.02,5.64.79,9.09,7.9,18.59,16.61,21.43ZM68.6,485.13c.06-.52.06-1.58-.53-1.76-1.61-.49-1.8,2.35.53,1.76ZM90.91,484.95c0-.5-.41-.91-.91-.91s-.91.41-.91.91.41.91.91.91.91-.41.91-.91ZM72.49,486.19h-2.65c-.85,1.97,2.6,1.95,2.65,0Z"/>
  <path class="cls-5" d="M126.97,236.01c-3.93-9.23-8.73-18.11-12.94-27.23-.8-3.07.49-6.8,3.04-8.66.47-.34,3.35-1.85,3.78-1.91.82-.12,2.07.82,3.13.97,2.63.38,21.6-1.54,23.97-2.49,1.14-.46,2.29-1.27,3.23-2.07l25.11,45.28c2.97,4.88,1.65,9.87-3.13,12.81-4.9,3-17.27,9.07-22.63,10.98-3.5,1.24-6.91.64-9.79-1.67,1.15-1.65,2.95-2.62,4.18-4.3,8.93-12.21-4.35-27.88-17.96-21.71Z"/>
  <path class="cls-5" d="M93.24,344.33c.75-.22,2.49,1.31,3.64,1.58,3.62.87,15.78,1.23,19.66.88,1.02-.09,3.29-1.06,3.48-1.03.26.05,2.69,3.14,3.64,3.79,1.96,1.33,4.59,1.77,6.67,2.88l15.19,27.62c1.51,3.31-.26,6.68-3.11,8.55s-17.67,9.15-20.82,9.95c-3.33.85-6.89-.73-8.61-3.64l-21.57-44.58c-.81-1.25.69-5.65,1.83-6Z"/>
  <path class="cls-5" d="M125.19,54.14c-.73,1.64-1.97,2.85-2.65,4.6-4.9,12.72,9.74,23.62,20.5,15.56l3.37-3.18c1.23,8.45,2.15,15.34-2.89,22.76-7.24,10.66-26.26,13.45-36.47,5.84-9.93-7.39-12.6-25.25-5.84-35.44,5.39-8.12,14.74-10.31,23.99-10.14Z"/>
  <path class="cls-5" d="M117.41,486.54c-.5,5.94,4.9,10.11,10.62,9.04,5.89-1.1,13.62-5.66,19.64-7.27,4.34.99,9.32-.97,12.11,3.42,2.93,4.62-.13,16.94.77,22.6-1.26,6.33-9.01,4.86-13.99,4.78-10.95-.16-23.59.39-34.3-.35-11.06-.77-8.19-10.2-7.93-18.22.12-3.7-.96-9.81,1.56-12.59,2.74-3.02,7.9-1.47,11.51-1.4Z"/>
  <path class="cls-5" d="M156.64,296.89c1.03,1.99.69,4.02.74,6.2-1.36,5.83-.38,13.79-1.87,19.36-1.32,4.95-5.65,5.41-9.99,5.21-14.45-.66-29.3-3.34-43.83-3.92-5.97-1.25-4.97-7.33-4.45-12,1.05.13,1.85.87,2.9,1.17,9.62,2.71,18.41-6.27,15.06-15.77-.59-1.67-1.81-2.89-2.4-4.5l28.46.71c3.34.3,2.71,1.14,4.8,2.62,3.17,2.25,7.04,2.24,10.57.91Z"/>
  <path class="cls-5" d="M114.23,631.27c.7-3.55,1.36-6.76,1.05-10.43l-6.39-38.89,19.25-10.8c.37.11,1.4,2.04,1.71,2.56,6.02,10.17,11.77,21.33,16.88,31.94,1.85,9.93-4.83,18.39-14.03,21.27-5.99,1.88-12.36,2.87-18.46,4.35Z"/>
  <path class="cls-5" d="M98.31,444.08c9.3,2.41,17.54-5.9,14.95-15.14-.51-1.8-1.6-2.97-1.85-4.66.11-.16,3.43-1.02,3.79-1.01.58.02,2.17,2.69,3.11,3.46,2.48,2.04,5.62,2.58,8.65,1.6,2.35-.76,2.33-2.43,4.77-.52,11.38,8.95,8.8,27.54-4.04,33.8-13.36,6.51-28.73-2.9-29.37-17.53Z"/>
  <path class="cls-4" d="M91.24,404.8c-.61.16-.71-.25-1.06-.53-4.28-3.3-5.99-6.29-11.67-8.49-10.96-4.23-17.14.61-22.33,9.84-.75,1.34-3.58,7.99-4,8.38-1.01.92-4.5-1.18-5.59-1.84-9.79-5.95-10.4-21.74-1.28-28.39,6.62-4.83,23.69-4.9,31.45-3.21,12.17,2.65,17.54,12.18,14.49,24.24Z"/>
  <path class="cls-5" d="M125.82,120.41c25.39-3.03,35.77,29.15,15.04,41.23s-43.75-14.03-28.9-32.81c3.02-3.82,5.19-2.65,8.25-5.19,2.38-1.97,1.79-2.78,5.61-3.23ZM138.87,145.53c0-7.27-5.89-13.16-13.15-13.16s-13.15,5.89-13.15,13.16,5.89,13.16,13.15,13.16,13.15-5.89,13.15-13.16Z"/>
  <path class="cls-5" d="M160.9,27.95c-3.46-4.29-7.98-6.49-13.43-4.42-3.65,1.39-6.68,5.61-6.74,9.57,0,.6.98,3.67-.15,3.33-3.89-1.14-7.84-5.93-9.05-9.7-3.68-11.51,7.55-23.44,19.31-19.68,9.03,2.89,13.58,11.95,10.06,20.89Z"/>
  <polygon class="cls-4" points="54.46 161 87.71 171.09 54.46 181.17 54.46 161"/>
  <path class="cls-6" d="M149,290.39c-5.38-5.39,6.19-8.16,8.84-10.2,3.03-2.34,3.35-5.53,1.44-8.75-.54-.92-2.83-2.92-2.6-3.7.12-.39,5.67-3.09,6.34-3.26.38-.09.69-.26,1.06,0l9.5,11.4c1.15,2.33,1.35,5.08-1.04,6.64l-19.05,8.89c-1.52.5-3.37.1-4.49-1.01Z"/>
  <path class="cls-6" d="M141.1,168.43l6.57,17.67c.77,2.54-.6,4.93-3.23,5.3-6.15.87-12.57.64-18.72,1.81-2.4-.33-3.83-1.94-3.34-4.42.78-4.04,10.55-1.34,13.73-5.02,3.6-4.15-.37-9.26-1.36-13.57,2.25-.07,4.27-1.11,6.36-1.77Z"/>
  <path class="cls-6" d="M160.68,172.91l-8.55-12.17c-.41-1.64,3.03-4.52,3.12-6.45.5-.11.58.07.89.34,2.24,1.97,2.62,5.42,5.99,6.75,6.22,2.45,8.04-3.44,11.33-6.74s7.14-.63,6.01,3.54c-4.13,4.28-7.61,9.92-11.66,14.16-2.7,2.83-3.85,3.27-7.13.58Z"/>
  <path class="cls-6" d="M138.63,332.98c-2.75,9.79,5.09,8.79,10.63,11.83,4.34,2.39,2.59,7.51-2.29,6.89-1.99-.25-17.2-5.71-19.04-6.78-6.25-3.64.34-8.57,2.56-12.49l8.13.55Z"/>
  <path class="cls-6" d="M135.05,464.65c2.41,4.69,6.85,8.97,9.31,13.51,2.29,4.24.27,4.78-3.17,6.18-4.77,1.94-9.8,3.31-14.58,5.25-2.51.74-4.2-2.59-2.65-4.44,1.84-2.18,8.7-1.59,10.6-6.03,2.23-5.23-2.53-7.92-4.09-12.17,1.02-.22,3.87-2.71,4.58-2.29Z"/>
  <ellipse class="cls-5" cx="133.32" cy="249.11" rx="8.27" ry="8.28"/>
  <path class="cls-6" d="M144.64,448.33c3.68,2.78,8.5,8.05,13.08,3.36,2.42-2.48,3.31-10.85,7.78-8.84,2.14.97,1.17,3.22.53,4.76-2.12,5.12-5.15,9.94-7.17,15.12-.6,1.24-2.19,1.34-3.41,1.14-2.6-.42-9.23-8.02-12.05-9.54-.75-1.2,1.21-4.52,1.24-6.01Z"/>
  <path class="cls-6" d="M121.76,421.69c-.71-.88-.66-2.9.08-3.78.92-1.09,5.72-2.52,7.5-3.82,2.55-1.87,3.66-4.48,2.47-7.58-.66-1.72-2.42-2.87-3.08-4.52,1.44-.09,4.06-2.53,5.29-1.97l8.44,10.33c.89,2.07.66,3.46-1.27,4.63-4.61,2.8-11.2,4.55-15.99,7.35-.98.41-2.78.19-3.44-.64Z"/>
  <ellipse class="cls-5" cx="134.91" cy="63.69" rx="7.25" ry="7.26"/>
  <path class="cls-6" d="M176.73,38.66c1.35,1.43-.11,3.21-.98,4.32-1.66,2.11-8.6,9.45-10.59,10.99-1.37,1.06-2.94,1.92-4.4.5l-6.17-10.13c-.51-.89,3.61-2.66,3.97-2.61.2.03,1.64,2.37,2.8,2.94,2.47,1.2,4.89.68,6.97-.96,1.9-1.49,5.89-7.69,8.39-5.04Z"/>
  <path class="cls-6" d="M143.81,102.68c.38-.07,6.25,3.18,6.83,3.67,5.24,4.46-2.78,8.91-5.52,12.14-.91-.86-6.41-2.72-6.7-3.12-.18-.26.62-2.95.53-4.03-.14-1.75-1.64-3.36-1.7-4-.07-.68,3.16-2.17,3.96-2.66.6-.37,2.25-1.93,2.6-2Z"/>
  <path class="cls-4" d="M128.71,476.62c-3.06,1.19-6.34,1.94-9.02,3.91l-8.65-.71c.82-1.15,3.58-10.16,4.12-10.28.62-.14,3.01.43,4.21.39.97-.02,4.24-.82,4.76-.56.39.19,4.92,6.77,4.58,7.25Z"/>
  <path class="cls-6" d="M146.73,270.38l2.11,7.19c-2.45,1.62-5.09,2.71-6.02,5.82l-12.52.78c-2.61.2-3.7-2.93-1.57-4.43,3.65-.84,8.9.45,11.68-2.47,2.16-2.27,1.87-4.8,1.05-7.62l5.27.74Z"/>
  <path class="cls-6" d="M113.43,109.43c.29.28,3.47,6.8,3.56,7.25.49,2.48-2.02,2.95-3.82,3.46-3.15.89-11.02,2.83-14.03,2.98s-3.8-3.15-.62-4.19c3.02-.98,7.6-.63,9.5-3.59,1.78-2.78.93-4.89.2-7.77,1.06.61,4.57,1.24,5.22,1.86Z"/>
  <path class="cls-4" d="M54.46,506.36v-20.17l1.26.33c3.06,4.64,6.73,8.78,10.76,12.58-4.5,1.79-7.14,6.84-12.02,7.25Z"/>
  <path class="cls-5" d="M154.54,553.07c.17,6.69-4.53,12.04-10.51,14.42-1.62.64-6.6,2.29-8.14,2.5s-2.46-1.75-2.05-2.41c.44-.71,6.75-3.76,8.09-4.67,1.86-1.25,4.16-3.3,5.54-5.07.52-.66,2.28-3.77,2.47-3.89.68-.41,3.5-.13,4.6-.88Z"/>
  <path class="cls-6" d="M116.65,331.25c.26.26,1.52,6.67,1.49,7.21-.2,3.49-5.58,1.98-7.62,1.93-4.12-.1-8.41.1-12.41-.67-1.21-.72-1.21-3.03.17-3.4,3.69-1,8.83,1.4,11.93-1.7,1.2-1.2,1.42-3.59,1.58-3.73.27-.23,4.6.1,4.87.37Z"/>
  <circle class="cls-5" cx="103.67" cy="301.19" r="6.09"/>
  <circle class="cls-5" cx="101.55" cy="432.35" r="6.09"/>
  <path class="cls-6" d="M103.7,413.74c.81-.8,4.66-.32,6.06-.48,4.9-.56,7.13-4.06,5.87-8.81.82-.03,2.45.06,3,.71.25.3,2.01,5.82,1.92,6.13-.13.46-1.88,1.32-2.44,1.82s-1.56,2.01-1.77,2.13c-1.25.73-6.92.48-8.68.52-1.1.02-3.94,1.15-4.35-.59-.1-.4.11-1.15.39-1.43Z"/>
  <circle class="cls-5" cx="151.45" cy="33.37" r="4.5"/>
  <path class="cls-5" d="M99.73,518.39c1.27,1.93,2.9,3.67,4.97,4.76,1.08.56,4.74,1.41,4.88,1.84.13.38.14,3.02-.01,3.26-.21.33-5.68,2.89-6.48,3.6-.68-.14-3.41-11.9-3.72-13.45h.35Z"/>
  <path class="cls-4" d="M132.6,111.48c-.44,3.93-6.7,2.08-9.65,3.19-.38-.67-2.39-4.25-2-4.62,2.16.35,5.23-.88,7.21-.71,1.44.13,2.89,1.98,4.44,2.14Z"/>
  <path class="cls-6" d="M122.36,43.53c3.1-.69,7.05.22,9.73-1.77.6-.45,1.56-2.07,1.79-2.12s3.72,1.9,4.15,2.19c1.13.77.79,2.24-.44,2.6-3.84.35-7.68.38-11.53.5-1.69.05-4,1.46-3.7-1.4Z"/>
  <path class="cls-6" d="M152.06,547.05c1.29-6.48-.89-12.62-4.6-17.86-.8-1.13-2.58-1.97-2.07-3.5.32-.93,4.26-1.25,5.08.83.87,2.2,2.78,13.42,2.99,16.11.1,1.31.41,4.23-1.41,4.42Z"/>
  <path class="cls-5" d="M97.96,512.73l-2.33-4.22c-.36-1.21-2.82-3.19-2.98-4.09s1-.59,1.59-.53c1.12.11,2.94.26,3.72.88v7.96Z"/>
  <path class="cls-1" d="M99.73,518.39h-.35c-.05-.22-.58-.51-.35-1.06.66.03.53.8.7,1.06Z"/>
  <path class="cls-4" d="M126.6,13.09c-1.48,3.41-2.09,7.8-1.76,11.49.39,4.32,2.79,8.3,3.18,12.57h-6.19c-.34,0-2.39,1.1-2.83,1.42-3.27,2.39-3.81,6.55-1.59,9.9-2.57.37-5.12.83-7.57,1.73-1.66-2.82-3.05-5.79-5.02-8.42-17.61-23.53-66.33-21.6-81.41,4.11-6.71,11.43-7.71,31.41-4.14,43.99,4.08,14.38,15.86,23.01,30.02,26.21l7.62-24.93c-.14-.47-5.26-1.74-6.34-2.17-8.05-3.22-12.14-8.75-11.69-17.7.85-16.78,19.02-17.63,32.03-16.81,8.72.55,20.33,5.33,21.01,15.46.09,1.3-.62,8.33-.93,9.61-1.08,4.51-7.16,9.47-11.76,10l5.28,25.45c5.18-.96,9.95-3.86,14.26-6.79.84-.57,1.46-1.96,2.08-.9.47.8,1.79,3.26,1.99,4.03.17.64-.17.48-.65.63-4.43,1.42-10.75,1.07-11.64,7.48-1.24,8.87,7.47,11.41,14.47,8.64-4.11,7.38-5.07,16.05-2.12,24.06l-83.81-31.14v29.37l15,4.21c.46,10.86.12,21.97.17,32.91l-15.17,4.28v30.08l93.01-34.68v-22.29c4.78,3.74,10.35,5.25,16.27,6.19.65,2.62,2.58,5.66,3.15,8.18.15.68-.01.43-.49.49-4.5.53-9.87.02-12.91,4.07-.87,1.15-1.95,3.57-2.09,5-.14,1.53.61,3.34.32,4.48-.07.26-3.69,2.36-4.43,3.08-5.34,5.24-5.11,11.18-2.36,17.58,3.67,8.55,8.72,16.89,12.38,25.5.13.84-1.53,3.1-1.98,4.25-3.86,9.95,3.25,19.74,13.71,19.91-.12,3.32,1.87,6.26,2.12,9.55h-6.9c-2.37,0-5.76,2.76-6.72,4.95-1.41,3.21-.87,5.44.53,8.49-4.66-.2-9.31-.28-13.98-.34s-7.41-.97-11.65,2.47c-1.85,1.5-2.6,4.5-4.86,4.16-11.69-3.45-23.79-5.66-35.48-9.11-.52-.15-.62.2-.52-.71l55.88-14.16v-37.86H19.1v23.35h69.67l-69.65,18.06-.04,21.05,69.69,18.56H19.1v23.71h72.14c.28,2.75-2.28,3.84-3.68,5.69-2.64,3.49-2.92,7.92-1.62,12-20.61-5.64-44.75-3.85-59.42,13.26-9.43,11-10.85,31.83-7.95,45.48,2.52,11.84,9.93,20.81,20.92,25.78,1.23.56,9.47,3.61,10,3.22.38-.27.35-2.56,1.08-2.81.25,2.58-.33,4.89-.96,7.34s-1.96,6.83-2.93,9.1c-.14.33-.1.74-.57.87l-27.01-9.53v29.37l15,4.21c.46,10.86.12,21.97.17,32.91l-15.17,4.28v30.08l36.42-13.45,7.71,29.26c-1.11,2.28-2.59,4.58-2.75,7.19H19.1v29.02h8.84l-3.01,2.47c-14.27,14.04-6.81,38.17,13.14,41.37,16.55,2.66,34.25,2.68,50.89,5.35,8.28-.19,15.53-3.71,21.19-9.58,8.13-2.33,16.98-3.66,25.03-6.09,11.1-3.36,19.01-14.15,17.95-25.9-.88-9.76-11.28-20.83-14.65-29.93-.15-.4-.28-.76-.21-1.21,2.64-1.01,5.61-1.39,8.25-2.39,9.11-3.46,14.88-12.65,14.4-22.39l-4.59-25.66c4.52-.09,8.77-3.96,10.01-8.21,1.1-3.76,1.02-18.77.59-23.11s-4.02-9.37-8.48-10.63c-2.43-.69-4.65-.26-6.92-.86-.35-.97-.03-2.01-.19-2.99-.89-5.49-8.68-13.03-11.51-18.21-.98-1.79-.3-1.94,1.27-.92,4.77,3.09,8.66,9.78,15.04,10.08,5.48.26,7.54-3.48,9.68-7.67,1.72-3.36,5.89-11.23,6.79-14.44,2.19-7.81-5.01-14.23-12.4-10.99-4.21,1.85-4.61,6.18-6.64,9.63-.13.21,0,.69-.6.45-.48-.2-3.45-3.23-4.26-3.88s-3.52-2.02-3.64-2.2c-.17-.27-.83-4.7-1.15-5.75-.82-2.68-2.33-5.45-3.93-7.75-.56-.81-2.95-3.19-3.12-3.6-.25-.6.24-.48.45-.6,3.94-2.36,9.14-2.66,11.14-7.61,3.41-8.4-5.42-12.88-8.77-19.21,7.6-2.6,13.52-7.61,12.35-16.43-3.17-8.6-8.55-16.29-12.69-24.45,3.49.73,6.28,2.7,9.98,2.21,7.45-.98,10.9-9.81,6.42-15.8-2.53-3.38-6.44-3.69-10.04-5.18-.31-.13-1.66-.43-1.42-1.04.08-.19,1.77-2.19,1.97-2.23.43-.08,2.05.32,3.1.23,6.96-.58,11.55-5.87,12.55-12.56.74-4.94,2.2-17.99,1.71-22.51-.13-1.17-1.47-4.38-1.16-4.88,5.25-3.44,14.8-4.71,17.35-10.97,3.91-9.6-6.2-14.71-10.08-21.93,11.64-4.17,17.82-12.25,11.85-24.43-7.55-15.41-17.22-31.43-25.59-46.58-1.63-2.94-1.38-2.57-2.42-5.72-2.1-6.37-5.02-12.62-7.19-18.99.39-.43.44-.69,1.07-.37,1.1.56,6.5,9.35,7.98,11.12,4.15,4.96,10.5,6.65,15.54,1.81,2.17-2.08,13.54-15.73,14.33-17.86,1.98-5.31-.67-11.06-6.1-12.69-7.33-2.2-10.46,3.55-14.61,8.24-.39,0-4.03-5.52-4.63-6.33-.53-.72-2-1.76-2.2-2.4-.3-1,.35-4.34.28-5.94-.32-6.84-3.53-13.24-7.79-18.4,2.79-4.07,7.76-6.13,8.16-11.66.53-7.43-4.53-9.73-9.88-13.14.84-2.11,2.23-3.94,3.07-6.06,4.27-10.85.97-26.52-5.78-35.81-1.74-2.39-4.46-4.2-7.23-5.16,2.48-1.16,4.21-1.79,5.57-4.34.76-1.43.23-3.36,2.69-2.5,1.18.41,7.83,13.46,9.61,15.15,3.66,3.12,9.25,2.84,12.73-.35,2.28-2.09,12.72-12.99,13.55-15.11,3.25-8.33-6.31-15.4-13.37-9.84-1.15.9-4.34,4.82-5.13,5.13-.67.26-1.02-1.72-1.54-2.03-.18-.71,1.49-2.28,2-3.17,3.7-6.43,4.91-13.63,1.84-20.63,4.49.12,9.03-.38,13.45.52,11.26,2.3,21.01,13.03,21.56,24.61v592.35c-1,12.96-11.18,22.2-23.34,25.12H24.4c-3.8-1.24-7.28-2.17-10.72-4.32-7.19-4.48-11.98-12.4-12.98-20.81l-.02-591.13c.09-3.39,1.36-6.48,2.14-9.71,4.32-9.03,12.06-15.24,22.15-16.59l101.62-.05Z"/>
  <path class="cls-1" d="M98.84,516.62c.23.12.23.24,0,.35v-.35Z"/>
  <path class="cls-2" d="M72.49,486.19c-.05,1.95-3.5,1.97-2.65,0h2.65Z"/>
  <path class="cls-2" d="M68.6,485.13c-2.33.58-2.14-2.25-.53-1.76.59.18.59,1.24.53,1.76Z"/>
  <circle class="cls-4" cx="90" cy="484.95" r=".91"/>
  <path class="cls-2" d="M138.87,145.53c0,7.27-5.89,13.16-13.15,13.16s-13.15-5.89-13.15-13.16,5.89-13.16,13.15-13.16,13.15,5.89,13.15,13.16ZM132.66,145.54c0-3.84-3.11-6.95-6.94-6.95s-6.94,3.11-6.94,6.95,3.11,6.95,6.94,6.95,6.94-3.11,6.94-6.95Z"/>
  <ellipse class="cls-5" cx="125.72" cy="145.54" rx="6.94" ry="6.95"/>
</svg>