<?xml version="1.0" encoding="UTF-8"?>
<svg id="Layer_1" data-name="Layer 1" xmlns="http://www.w3.org/2000/svg" viewBox="0 0 168.91 617.07">
  <defs>
    <style>
      .cls-1 {
        fill: #b9bd99;
      }

      .cls-2 {
        fill: #44bec5;
      }

      .cls-3 {
        fill: #44bdc4;
      }

      .cls-4 {
        fill: #ba443b;
      }
    </style>
  </defs>
  <path class="cls-2" d="M61.83,0l43.8,7.44c13.77,2.51,21.88,13.6,20.71,27.54-3.27,14.57-4.25,30.42-7.76,44.85-1,4.13-2.87,8.17-5.97,11.17-.11.6.09.37.38.52,3.62,1.82,6.27,3.11,8.61,6.69,8.75,13.35-2.64,31.26-18.25,28.34-1.32-.25-2.59-.99-3.9-.99l26.47,48.16c4.75,8.82,3.79,20.25-2.62,27.98-4.69,5.66-11.59,8.11-18.04,11.18-.21.28.7,1.36.93,1.67,7.76,10.35,22.7,20.72,15.56,35.45-4.07,8.39-14.59,10.03-22.11,14.24-.61.47.92,1.23,1.5,1.85,7.89,8.57,13.14,19.14,14.06,30.91,6.15,2.2,10.48,7.44,15.46,11.46,1.2.56.79-.18,1.16-.97,2.13-4.59,5.1-12.18,8.79-15.38,8.97-7.79,23.6-4.17,27.38,7.17.48,1.43.47,2.77.91,4.14v2.75l-.44,3.07c-5.65,11.13-10.16,24.32-16.33,35.06-4.01,6.98-12.33,9.66-19.94,7.6-8.6-2.33-18.39-14.72-26.02-19.87-1.53-1.03-1-.05-2.1.9l21.15,29.91c2.26,3.9,2.93,8.63,2.39,13.06,7.92-.03,14.85.38,21.11,5.65,10.55,8.88,8.33,19.97,8.24,32.11-.05,6.96.45,14.58.03,21.44-.84,13.48-11.1,23.22-24.78,22.18l-.93,3.19c1.36.04,2.81.38,4.14.46,5.72.35,10.84-.45,15.73,3.24,7.51,5.68,7.94,17.12.95,23.37,5.32,1.69,10.03,5.47,12.79,10.31,3.01,5.28,3.39,9.84,3.12,15.84-.49,10.7-1.75,23.59-3.06,34.26-1.95,15.95-13.41,25.69-29.67,23.84l-3.36,4.61c-.11.65.11.36.42.48,4.42,1.76,9.46,2.97,13.76,4.91,20.54,9.24,10.46,41.48-14.34,33.61-11.78-3.74-23.46-8.9-35.23-12.8-3.91-2.09-6.89-5.12-9.15-8.9-4.15,2.49-7.83,2.52-12.53,2.44-8.68-.16-19.19-.44-27.82-1.24-16.58-1.55-18.62-25.76-2.36-29.88,3.24-.82,3.84-.24,6.64-.09.55.03,5.05.1,5.05-.15-1.6-.64-3.38-.27-5.01-.5-9.31-1.28-16.56-9.15-18.16-18.24s1.77-19.76,1.78-28.67c0-1.37-.54-2.93-.63-4.28-.5-7.36,4.07-19.08,9.63-24.01.66-.58,3.52-2.41,3.68-2.74.4-.85.5-3.77.93-5.19,3.37-10.99,14.18-12.33,23.48-15.98l.51-.69-5.72-7.82c-1.36.23-2.63-.25-3.9-.31-10.51-.55-17.91,1.83-27.19-4.93-14.5-10.56-8.84-28.48-9.74-43.79-8.51-5.43-12.64-14.64-10.51-24.68,3.01-14.19,19.2-21.44,32.09-14.95,1.09.55,4.04,2.9,4.63,3.02,4.66.88,10.51.29,15.31.94,5.12-3.72,11.33-5.01,17.15-7.33.31-.12.53.17.42-.48-3.19-4.48-6.5-8.89-9.38-13.58-2.2.09-4.47.76-6.66.89-31.58,1.95-57.08-23.94-53.83-55.54-10.27-12.05-6.07-30.97,8.79-36.9.68-.27,4.8-1.36,4.79-1.63-6.73-6.66-5.56-18.21,2.86-22.84,4.95-2.72,10.3-1.62,15.66-2.09.3-.03,1.34-.17,1.4-.5.15-.93-2.78-8.43-3.18-10.26s-.24-3.86-.59-5.22c-.47-1.88-3.99-7.61-5.08-9.91-6.62-13.84-13.29-27.67-19.9-41.52-13.5-2.38-22.42-15.38-18.78-28.87.31-1.17,2.2-5,2.21-5.42s-.87-2.16-1.05-2.91c-2.06-8.27-.05-15.25,5.05-21.86-4.19-2.49-6.26-6.87-7.35-11.48.08-.88-.11-1.9,0-2.75.66-5.16,4.59-10.47,9.37-12.5,5.6-2.37,11.66-.49,17.55-.96-1.08-7.45-5.38-14.38-1.48-21.82,1.12-2.13,2.98-3.5,4.46-5.33,2.23-10.24,3.06-21.15,5.37-31.33S45.85,1.09,56.63,0h5.2ZM55.95,5.58c-6.9.93-13.45,7.33-15.07,13.99-1.67,14.63-6.68,30.61-7.8,45.12-.78,10.12,4.93,18.76,14.92,21.17,14.8,3.56,31.44,4.64,46.46,7.71,8.97-.07,16.85-6.21,18.99-14.9,3.6-14.65,4.56-31.23,7.73-46.1.3-9.3-6.05-17.43-15.03-19.52-14.24-1.55-29.47-6.26-43.59-7.5-1.83-.16-4.81-.2-6.61.04ZM31.7,81.05c-.35.28-.46.76-.8,1.04-3.79,3.13-13.68.18-18.63,1.87-6.21,2.13-8.71,9.74-4.72,15.11.77,1.03,3.17,3.36,4.48,3.03l27.15-13.56c.45-.37.29-.25.01-.61-.51-.65-2.82-1.96-3.68-2.74-1.46-1.32-2.44-2.98-3.82-4.13ZM52.96,92.07l-6.63-1c-15.47,9.6-48.45,14.15-37.07,39.63,12.33,27.62,27.09,54.28,39.6,81.84,4.27,7.23,12.09,11.06,20.47,10.42,3.62-.28,6.62-1.83,9.85-3.31,9.08-4.16,18.49-8.78,27.44-13.25,4.5-2.25,8.95-3.97,12.28-7.91,5.33-6.31,6.22-15.14,2.14-22.34l-29.08-52.9c-8.4-3.68-18.07-5.32-26.54-8.64s-14.88-13.04-12.46-22.55ZM58.16,92.98c-1.81,7.43,2.9,14.2,9.63,16.83,11.72,4.59,25.1,7.42,37.06,11.58,13.99,1.38,20.28-17.66,7.47-24.29-1.03-.53-3.95-1.76-4.99-1.62-.79.11-3.43,1.7-4.65,2.09-3.41,1.11-6.82,1.39-10.41,1.21l-34.12-5.81ZM6.76,137.33c-.82-.08-.49,0-.6.46-2.04,8.5,2.5,17.65,10.7,20.64l-10.1-21.1ZM78.67,225.74c-.08.33-.02.61.14.9,1.09,2.03,4.29,4.23,5.41,6.52,1.56,3.21.56,5.98-2.44,7.77-5.33,3.17-13.75,4.54-16.75,10.47-4.73,9.35,4.32,19.49,14.1,16.55,11.67-5.97,24.23-10.52,35.48-17.14,4.82-5.05,4.39-11.82.44-17.28l-14.99-17.76-21.39,9.97ZM71.92,228.19c-7.04.87-14.19-.5-20.03-4.6.77,4.07,4.95,11.24-.76,13.6-4.87,2.02-13.14-.52-17.42,2.47-5.52,3.85-5.23,12.18.93,15.24,3.61,1.79,13.14.37,17.54.18,1.38-.06,5.17.32,6.08-.27.96-3.4,1.84-6.3,4.17-9.06,3.46-4.09,7.89-5.06,12.21-7.69l-2.74-9.87ZM58.73,260.33l-13.11.57c-.49.38,1.55,1.42,1.84,1.68,20.18,18.08,1.15,48.8-23.33,39.54-.57-.22-3.71-1.96-3.9-1.76-.31,14.68,6.88,28.87,18.75,37.38,23.36,16.75,56.01,7.4,67.36-18.74,6.64-15.28,4.02-33.99-6.88-46.63-.59-.69-4.8-5.03-5.2-5.22s-.52-.11-.91-.02c-3.43.86-8.27,4.33-11.86,5.6-10.03,3.54-20.25-2.27-22.75-12.41ZM50.62,280.57c0-9.86-7.99-17.85-17.85-17.85s-17.85,7.99-17.85,17.85,7.99,17.85,17.85,17.85,17.85-7.99,17.85-17.85ZM115.38,303.11c-.52,8.05-2.46,15.97-6.6,22.93v1.22s20.52,17.44,20.52,17.44c6.59,4.28,14.5,3.21,18.47-3.87,5.75-10.25,9.9-22.42,15.44-32.89,2.44-10.44-8.81-18.43-17.75-12.54-5.02,3.31-6.63,12.34-10.05,17.17-2.54,2.42-5.13,2.06-7.88.27-3.39-2.2-6.63-6.08-9.84-8.51-.7-.53-1.54-.81-2.29-1.22ZM81.43,348.69c-.14.55.05.91.27,1.38,1.69,3.61,6.34,7.86,8.1,11.48,1.27,2.62.79,6.02-1.85,7.57-3.18,1.87-8.94,2.93-12.55,4.58-13.17,6.01-7.4,23.99,6.41,22,10.66-4.34,22.23-7.47,32.82-11.85,6.11-2.53,8.91-7.95,7.46-14.51-.49-2.19-2.18-4.52-3.39-6.4-5.59-8.64-12.12-16.74-17.82-25.31-.17-.16-.38-.29-.63-.29-.33,0-3.45,2.95-4.16,3.5-4.35,3.37-9.35,6.27-14.64,7.85ZM42.56,371.62c-.12-.11-2.78-.57-3.22-.61-16.69-1.41-25.71,18.32-13.45,29.66.41-6.59.16-12.01,3.46-17.94s6.93-7.5,12.77-10.47c.24-.12.97-.12.43-.64ZM63.97,377.13c-6.79.33-14.62-2.06-21.1.46s-10.87,8.84-11.34,15.58c-.92,13.25.25,27.61-.26,40.96,1.36,8.7,8.41,15.8,17.24,16.72l88.44.92c7.85-.94,13.6-7.82,14.52-15.46-.59-12.41,1.25-25.61.32-37.93-.43-5.77-4.43-11.93-9.49-14.67s-10.92-1.87-16.62-2.6c-1.93,3.38-4.9,5.96-8.48,7.5-10.93,3.07-21.76,8.7-32.57,11.78-5.78,1.65-11.28.88-15.92-3.06-6.21-5.26-7.26-12.69-4.74-20.19ZM73.46,456.65c2.34,3.45,6.91,7.68,3.19,11.91-1.88,2.13-11.42,4.58-14.6,5.9-14.5,6.02-10.26,25.02,4.79,24.97,12.08-4.37,25.69-8.18,37.42-13.36,4.53-2,8.86-6.74,9.23-11.87.51-6.98-5.26-11.61-8.53-17.09-10.47-.7-21-.4-31.51-.46ZM126.69,456.95h-14.99c1.05,2.88,3.67,4.94,5.06,7.63,2.21,4.27,2.59,9.23,1.28,13.84l-2.97,6.05,26.45,1.55c6.5.27,11.85-6.24,9.8-12.55-2.98-9.12-12.59-6.28-19.88-7.35-5.4-.79-6.26-4.41-4.74-9.17ZM39.5,526.08c-.18,5.78-1.71,12.14-1.22,17.89.57,6.7,5.91,13.14,12.46,14.76,24.96,2.08,49.91,4.8,74.88,6.8,4.46.36,9.78,1.12,14.12,1.11,10.31-.03,18.36-7.71,19.68-17.78,1.63-12.43,1.67-25.45,3.36-37.93-.4-13.21-8.14-18.75-20.63-19.43-11.39-.63-22.87-.31-34.25-1.21l-30.35,11.3c-.2.29,1.07,3.52,1.26,4.29,4.17,17.74-12.04,32.65-29.38,26.93-3.94-1.3-7.02-3.9-9.93-6.74ZM50.49,495.82c-10.45,3.35-14.03,17.29-7.45,25.95,11.89,15.65,36.24,2.45,30.43-15.44-1.37-4.2-2.45-1.97-5.68-1.67-6.8.63-14.2-2.68-17.3-8.85ZM86.89,567.4l-20.6-1.88c-.55,2.36-1.56,4.29-4.14,4.78-6.08,1.15-14.41-2.19-19.44,1.67-5.53,4.25-5.23,12.82.86,16.25,3.94,2.22,14.12,1.56,19.03,1.77,5.22.23,10.73,1,15.93.9,4.45-.08,9.46-3.2,10.68-7.61,1.36-4.91-1.63-10.95-2.33-15.88ZM93.35,567.98h-.92s0,.91,0,.91c.75.2.6-.33.92-.91ZM128.83,571.04l-29.37-2.29c-.37.22-4.71,6.69-4.82,7.11-.35,1.3.44,5.1.16,7.19-.13.95-.63,2.37-1,3.29-.49,1.21-2.11,3.25-1.86,4.29.8,3.23,5.76,6.64,8.67,7.87,11.63,4.95,24.73,8.54,36.64,12.92,15.3,1.09,20.42-18.96,5.73-25-3.93-1.62-10.33-2.95-13.75-4.91-2.42-1.39-3.28-4.46-2.3-7.01.22-.58,2.21-3.17,1.9-3.45Z"/>
  <path class="cls-4" d="M52.96,92.07c-2.42,9.51,3.62,19.08,12.46,22.55s18.13,4.97,26.54,8.64l29.08,52.9c4.08,7.2,3.19,16.03-2.14,22.34-3.33,3.94-7.78,5.66-12.28,7.91-8.95,4.47-18.36,9.09-27.44,13.25-3.23,1.48-6.22,3.03-9.85,3.31-8.38.64-16.2-3.19-20.47-10.42-12.51-27.56-27.27-54.21-39.6-81.84-11.38-25.48,21.6-30.03,37.07-39.63l6.63,1Z"/>
  <path class="cls-4" d="M63.97,377.13c-2.52,7.51-1.48,14.93,4.74,20.19,4.64,3.93,10.14,4.7,15.92,3.06,10.82-3.08,21.65-8.72,32.57-11.78,3.58-1.54,6.55-4.12,8.48-7.5,5.69.73,11.41-.22,16.62,2.6s9.06,8.9,9.49,14.67c.92,12.32-.91,25.53-.32,37.93-.91,7.64-6.67,14.52-14.52,15.46l-88.44-.92c-8.82-.92-15.88-8.02-17.24-16.72.5-13.35-.67-27.71.26-40.96.47-6.74,5.03-13.13,11.34-15.58s14.32-.13,21.1-.46Z"/>
  <path class="cls-4" d="M39.5,526.08c2.91,2.84,5.99,5.44,9.93,6.74,17.35,5.72,33.55-9.19,29.38-26.93-.18-.77-1.46-4-1.26-4.29l30.35-11.3c11.37.9,22.86.58,34.25,1.21,12.49.69,20.23,6.22,20.63,19.43-1.7,12.47-1.73,25.49-3.36,37.93-1.32,10.07-9.37,17.75-19.68,17.78-4.35.01-9.67-.75-14.12-1.11-24.97-2.01-49.92-4.72-74.88-6.8-6.55-1.63-11.9-8.06-12.46-14.76-.49-5.75,1.04-12.1,1.22-17.89Z"/>
  <path class="cls-4" d="M58.73,260.33c2.5,10.14,12.72,15.95,22.75,12.41,3.6-1.27,8.43-4.74,11.86-5.6.39-.1.49-.17.91.02s4.61,4.53,5.2,5.22c10.9,12.64,13.52,31.34,6.88,46.63-11.35,26.14-44.01,35.48-67.36,18.74-11.87-8.51-19.06-22.7-18.75-37.38.18-.2,3.32,1.54,3.9,1.76,24.48,9.27,43.52-21.46,23.33-39.54-.29-.26-2.33-1.3-1.84-1.68l13.11-.57Z"/>
  <path class="cls-4" d="M55.95,5.58c1.8-.24,4.78-.2,6.61-.04,14.12,1.24,29.34,5.95,43.59,7.5,8.99,2.09,15.33,10.23,15.03,19.52-3.17,14.88-4.13,31.45-7.73,46.1-2.14,8.69-10.02,14.83-18.99,14.9-15.03-3.07-31.66-4.15-46.46-7.71-9.99-2.4-15.7-11.05-14.92-21.17,1.12-14.51,6.13-30.49,7.8-45.12,1.62-6.67,8.17-13.06,15.07-13.99ZM82.29,61.73c0-12.48-10.12-22.59-22.6-22.59s-22.6,10.11-22.6,22.59,10.12,22.59,22.6,22.59,22.6-10.11,22.6-22.59Z"/>
  <path class="cls-1" d="M81.43,348.69c5.29-1.58,10.29-4.48,14.64-7.85.71-.55,3.83-3.49,4.16-3.5.25,0,.46.13.63.29,5.7,8.57,12.23,16.67,17.82,25.31,1.22,1.88,2.91,4.21,3.39,6.4,1.46,6.56-1.34,11.98-7.46,14.51-10.58,4.38-22.16,7.51-32.82,11.85-13.8,1.99-19.58-15.99-6.41-22,3.61-1.65,9.37-2.71,12.55-4.58,2.64-1.56,3.12-4.95,1.85-7.57-1.76-3.62-6.41-7.86-8.1-11.48-.22-.47-.41-.84-.27-1.38Z"/>
  <path class="cls-1" d="M115.38,303.11c.75.42,1.59.7,2.29,1.22,3.22,2.43,6.45,6.31,9.84,8.51,2.76,1.79,5.34,2.14,7.88-.27,3.42-4.83,5.03-13.86,10.05-17.17,8.94-5.88,20.19,2.11,17.75,12.54-5.54,10.47-9.69,22.65-15.44,32.89-3.97,7.08-11.88,8.14-18.47,3.87l-20.5-17.44v-1.22c4.12-6.96,6.07-14.88,6.59-22.93Z"/>
  <path class="cls-1" d="M73.46,456.65c10.51.05,21.04-.25,31.51.46,3.27,5.48,9.03,10.11,8.53,17.09-.37,5.13-4.7,9.87-9.23,11.87-11.72,5.18-25.33,9-37.42,13.36-15.05.05-19.29-18.95-4.79-24.97,3.18-1.32,12.72-3.77,14.6-5.9,3.72-4.23-.85-8.45-3.19-11.91Z"/>
  <path class="cls-1" d="M128.83,571.04c.31.28-1.68,2.87-1.9,3.45-.98,2.55-.12,5.62,2.3,7.01,3.42,1.96,9.82,3.3,13.75,4.91,14.69,6.04,9.57,26.08-5.73,25-11.9-4.38-25-7.97-36.64-12.92-2.91-1.24-7.87-4.64-8.67-7.87-.26-1.04,1.37-3.08,1.86-4.29.37-.91.87-2.33,1-3.29.28-2.08-.5-5.89-.16-7.19.11-.41,4.46-6.88,4.82-7.11l29.37,2.29Z"/>
  <path class="cls-1" d="M78.67,225.74l21.39-9.97,14.99,17.76c3.95,5.46,4.38,12.23-.44,17.28-11.25,6.62-23.81,11.16-35.48,17.14-9.78,2.95-18.83-7.2-14.1-16.55,3-5.94,11.43-7.3,16.75-10.47,3-1.79,4-4.56,2.44-7.77-1.12-2.29-4.32-4.49-5.41-6.52-.16-.3-.22-.57-.14-.9Z"/>
  <path class="cls-1" d="M58.16,92.98l34.12,5.81c3.59.18,6.99-.1,10.41-1.21,1.21-.4,3.86-1.98,4.65-2.09,1.04-.14,3.96,1.08,4.99,1.62,12.82,6.62,6.52,25.67-7.47,24.29-11.96-4.16-25.34-7-37.06-11.58-6.73-2.63-11.44-9.4-9.63-16.83Z"/>
  <path class="cls-1" d="M86.89,567.4c.7,4.93,3.69,10.97,2.33,15.88-1.22,4.41-6.23,7.53-10.68,7.61-5.2.1-10.71-.67-15.93-.9-4.91-.22-15.09.45-19.03-1.77-6.09-3.43-6.39-12-.86-16.25,5.02-3.86,13.36-.52,19.44-1.67,2.58-.49,3.58-2.42,4.14-4.78l20.6,1.88Z"/>
  <ellipse class="cls-4" cx="32.77" cy="280.57" rx="17.85" ry="17.85"/>
  <path class="cls-4" d="M50.49,495.82c3.1,6.16,10.5,9.47,17.3,8.85,3.24-.3,4.32-2.53,5.68,1.67,5.81,17.89-18.54,31.08-30.43,15.44-6.59-8.66-3.01-22.61,7.45-25.95Z"/>
  <path class="cls-1" d="M71.92,228.19l2.74,9.87c-4.32,2.63-8.75,3.6-12.21,7.69-2.33,2.75-3.21,5.66-4.17,9.06-.91.59-4.71.21-6.08.27-4.4.2-13.93,1.62-17.54-.18-6.16-3.06-6.45-11.38-.93-15.24,4.28-2.99,12.55-.45,17.42-2.47,5.71-2.37,1.54-9.53.76-13.6,5.83,4.09,12.98,5.47,20.03,4.6Z"/>
  <path class="cls-1" d="M126.69,456.95c-1.52,4.76-.66,8.38,4.74,9.17,7.29,1.07,16.9-1.77,19.88,7.35,2.06,6.31-3.29,12.81-9.8,12.55l-26.45-1.55,2.97-6.05c1.31-4.61.93-9.57-1.28-13.84-1.39-2.7-4.01-4.75-5.06-7.63h14.99Z"/>
  <path class="cls-1" d="M31.7,81.05c1.38,1.15,2.35,2.81,3.82,4.13.87.78,3.17,2.1,3.68,2.74.28.36.43.24-.01.61l-27.15,13.56c-1.32.33-3.71-2-4.48-3.03-3.99-5.36-1.49-12.98,4.72-15.11,4.95-1.69,14.83,1.25,18.63-1.87.34-.28.45-.76.8-1.04Z"/>
  <path class="cls-4" d="M42.56,371.62c.54.52-.2.52-.43.64-5.84,2.98-9.34,4.31-12.77,10.47s-3.06,11.36-3.46,17.94c-12.25-11.35-3.23-31.07,13.45-29.66.43.04,3.1.5,3.22.61Z"/>
  <path class="cls-4" d="M6.76,137.33l10.1,21.1c-8.2-2.99-12.75-12.14-10.7-20.64.11-.46-.22-.54.6-.46Z"/>
  <path class="cls-3" d="M82.29,61.73c0,12.48-10.12,22.59-22.6,22.59s-22.6-10.11-22.6-22.59,10.12-22.59,22.6-22.59,22.6,10.11,22.6,22.59ZM76.91,61.73c0-9.5-7.71-17.21-17.21-17.21s-17.21,7.7-17.21,17.21,7.71,17.21,17.21,17.21,17.21-7.7,17.21-17.21Z"/>
  <ellipse class="cls-4" cx="59.69" cy="61.73" rx="17.21" ry="17.21"/>
</svg>