<?xml version="1.0" encoding="UTF-8"?>
<svg id="Layer_1" data-name="Layer 1" xmlns="http://www.w3.org/2000/svg" viewBox="0 0 180.54 275.04">
  <defs>
    <style>
      .cls-1 {
        fill: #4479b2;
      }

      .cls-2 {
        fill: #43bec6;
      }

      .cls-3 {
        fill: #ba443a;
      }

      .cls-4 {
        fill: #ba443b;
      }
    </style>
  </defs>
  <path class="cls-2" d="M108.34,0c1.75.4,3.53.62,5.27,1.08,1.83.49,3.68,1.27,5.44,1.99,13.26,5.45,28.02,12.22,40.91,18.54,8.36,4.1,14.77,9.77,18.31,18.61,1.06,2.64,1.62,5.45,2.21,8.22-.15,2.17.2,4.58,0,6.71-.21,2.27-1.23,5.31-1.98,7.49l-37.51,96.02c-.04.87.78,1.01,1.14,1.46,2.29,2.88,4.06,6.34,5.2,9.83,4.07,20.91,9.16,41.71,12.31,62.76-.67,14.58-10.1,27.3-25.07,29.13-3.14.38-5.15-.06-8.15-.23s-6.19-.3-9.3-.49c-6.35,9.7-17.97,14.76-29.51,13.41-17.82-2.09-35.68-4.62-53.5-6.9-10.67-1.36-18.21-1.79-25.87-10.44-18.38-20.76-2.73-52.52,24.44-51.46l24.34,3.12-3.84-26.97c.1-3.67.66-7.24,1.66-10.76l-.36-.37c-3.39-1.55-7.11-2.92-10.32-4.78-12.13-7.01-18.88-20.91-16.79-34.86.16-1.08.9-3.06.9-3.9,0-1.32-1.62-5.48-1.89-7.47-2.31-16.92,6.99-32.29,22.47-38.84,9.97-20.78,18.42-42.36,28.51-63.08,4.74-9.74,12.8-16.79,24.01-17.82h6.95ZM35.71,139.08c.46,8.42,6.4,16.32,13.74,20.19,15.45,8.14,33.03,14.12,48.69,22.02,11.46,4.2,23.6-.64,29.26-11.27l43.98-112.34c3.13-13.38-4.15-23.11-15.67-28.71-12.42-6.03-25.89-12.05-38.59-17.5-3.6-1.55-6.29-2.86-10.34-3.09-8.84-.5-16.78,3.27-20.95,11.19l-26.64,58.96c12.34-.38,24.28,4.61,31.6,14.67,13.71,18.85,6.4,45.51-15.07,54.38-14.03,5.8-29.53,2.21-40.02-8.5ZM89.44,114.5c0-15.19-12.3-27.5-27.48-27.5s-27.48,12.31-27.48,27.5,12.3,27.5,27.48,27.5,27.48-12.31,27.48-27.5ZM121.04,252.98c5.72-.18,11.29,1.6,16.84-.54,10.37-3.98,14.37-14.39,12.82-24.94-2.59-17.58-8.09-35.53-10.84-53.18-.53-2.18-1.36-4.38-2.64-6.23-3.18,10.1-10.95,18.54-21.21,21.59l7.19,51.19c-.16,4.12-.66,8.25-2.15,12.11ZM107.83,191.14c-4.52.12-9-.68-13.22-2.24-10.47-3.87-20.9-10.03-31.32-14.22l-.73-.11c-.72,2.89-.93,6.01-.72,8.99.58,8.08,2.96,16.77,3.61,24.94-.29,5.09-3.2,8.26-8.3,8.76-14.03-.46-30.21-8-41.7,3.34-12.86,12.7-6.21,33.74,10.86,37.83,19.65,2.14,39.26,4.76,58.87,7.05,1.17.14,2.44.59,3.63.69,16.69,1.34,27.12-12.04,25.73-27.9l-6.71-47.12Z"/>
  <path class="cls-1" d="M35.71,139.08c10.49,10.72,25.99,14.3,40.02,8.5,21.47-8.88,28.78-35.54,15.07-54.38-7.32-10.06-19.26-15.05-31.6-14.67l26.64-58.96c4.17-7.92,12.11-11.69,20.95-11.19,4.05.23,6.74,1.54,10.34,3.09,12.7,5.45,26.17,11.47,38.59,17.5,11.51,5.59,18.79,15.32,15.67,28.71l-43.98,112.34c-5.65,10.63-17.8,15.46-29.26,11.27-15.67-7.91-33.25-13.89-48.69-22.02-7.34-3.87-13.28-11.76-13.74-20.19Z"/>
  <path class="cls-3" d="M107.83,191.14l6.71,47.12c1.39,15.86-9.04,29.24-25.73,27.9-1.19-.1-2.46-.55-3.63-.69-19.61-2.28-39.22-4.91-58.87-7.05-17.06-4.09-23.72-25.14-10.86-37.83,11.49-11.34,27.67-3.8,41.7-3.34,5.1-.49,8.01-3.67,8.3-8.76-.66-8.17-3.03-16.86-3.61-24.94-.21-2.98,0-6.1.72-8.99l.73.11c10.43,4.19,20.85,10.35,31.32,14.22,4.22,1.56,8.7,2.36,13.22,2.24Z"/>
  <ellipse class="cls-3" cx="61.96" cy="114.5" rx="27.48" ry="27.5"/>
  <path class="cls-4" d="M121.04,252.98c1.5-3.85,1.99-7.98,2.15-12.11l-7.19-51.19c10.26-3.04,18.03-11.49,21.21-21.59,1.28,1.85,2.12,4.05,2.64,6.23,2.75,17.65,8.25,35.6,10.84,53.18,1.55,10.55-2.45,20.96-12.82,24.94-5.55,2.13-11.12.36-16.84.54Z"/>
</svg>