<?xml version="1.0" encoding="UTF-8"?>
<svg id="Layer_1" data-name="Layer 1" xmlns="http://www.w3.org/2000/svg" viewBox="0 0 434.64 760.08">
  <defs>
    <style>
      .cls-1 {
        fill: #b8bd99;
      }

      .cls-2 {
        fill: #44bdc5;
      }

      .cls-3 {
        fill: #9f9938;
      }

      .cls-4 {
        fill: #ba443b;
      }

      .cls-5 {
        fill: #bc4143;
      }
    </style>
  </defs>
  <path class="cls-2" d="M434.64,19.67v46.07c-1.15,5.75-3.73,10.76-8.15,14.64-3.03,2.66-8.27,5.48-12.29,5.94-1.6.18-5.43-.32-6.43.29-.72.43-1.84,4.01-2.86,4.81.05.84,13.51,3.65,15.33,4.32,16.81,6.18,15.18,30.84-1.9,35.04-7.42,1.82-13.92-1.92-21.12-3.13.02.74.44,1.41.48,2.16.2,3.41-6.14,25.62-7.79,29.64-3.23,7.86-12.93,10.33-19.57,4.91-7.64-6.24-4-14.49-1.43-22.32h-10.55c8.61,11.32-2.87,26.49-16.01,20.57-4.37-1.97-6.71-6.83-9.86-10.19-.38-.4-.33-.44-.99-.3-4.9,9.58-12.51,18.6-23.99,11.51-1.7,4.41-5.86,6.09-10.09,7.2-.96,0-1.92,0-2.88,0l-30.08-11.9c-5.72-4.02-8.55-11.06-5.51-17.69,1.16-2.53,17.15-24.13,19.04-25.59,9.49-7.29,22.95-.21,21.77,11.7-.57,5.71-5.48,9.49-8.1,14.2l11.76,4.7c1.44-.12,13.94-20.7,16.55-23.63,3.99-4.48,10.44-6.4,16.14-4.17,5.12,2,7.26,7.14,11.19,10.64.26-4.6,2.22-8.45,6.27-10.77.54-.31,3.78-1.71,4.05-1.71h7.44c-.63-.7-2.4-3.65-3.11-3.71-.43-.03-3.71,1.95-4.78,2.29-5.46,1.76-15.55,1.16-21.63,1.39-8.74.34-18.78,3.25-25.15-4.55-6.49-7.95-3.75-19.98,5.75-23.97,3.2-1.34,6.2-1.18,9.59-1.45-12.78.27-22.12-9.63-23.05-22.05-.58-7.73.43-16.2.04-24.03s-1.43-9.97.8-17.88c5.79-20.58,24.19-18.29,41.62-19.31,14.23-.83,28.46-1.28,42.71-1.9,17.16-.75,38.21-5.91,45.85,14.61l.93,3.63ZM311.35,51.82v15.12c0,4.37,8.32,12.03,13.2,11.27,27.73-1.43,57.42,1.93,84.93.03,8.61-.6,16.34-6.01,17.03-15.11,1.03-13.69-.72-28.78-.13-42.61-1.72-6.22-6.6-10.99-13.08-11.87-26.22,1.01-52.32,2.97-78.43,3.84,4.44,3.63,8.17,6.31,10.49,11.82,8.99,21.35-15.2,40.28-33.99,27.52ZM338.84,33.27c0-7.9-6.4-14.3-14.3-14.3s-14.3,6.4-14.3,14.3,6.4,14.3,14.3,14.3,14.3-6.4,14.3-14.3ZM339,92.44c-3.62,3.85-13.28,2.31-18.27,3.08-7.31,1.12-7.56,12.6.9,13.43,4.94.49,12.6-.71,17.75-1,4.52-.26,12.52.48,16.42-1.34,2.38-1.11,4.49-3.84,4.48-6.56,0-.92-3.72-13.06-4.31-13.45l-14.11-.16c-1.35,1.7-1.14,4.17-2.87,6.01ZM397.7,86.37h-21.83l-7.34,12.33c.31,2.06-.78,4.75-.57,6.57.39,3.44,5.15,7.11,8.25,8.1,11.34,2.05,23.71,7.49,34.89,9.25,3.09.49,5.22.45,7.86-1.3,4.79-3.17,6.28-9.34,2.72-14.07-6.85-9.12-30.67-2.36-23.99-20.87ZM284.82,121.51c-1.31.3-2.52,2.19-3.42,3.3-5.18,6.36-9.38,13.6-14.61,19.94-1.58,2.9.08,5.72,2.69,7.25,6.93,4.06,17.77,5.95,25.06,9.96,4.11,1.43,8.08-3.91,5.51-7.43-2.89-3.96-13.87-3.23-16.3-10.09-2.95-8.36,7.06-12.68,7.46-18,.29-3.84-2.83-5.76-6.41-4.93ZM358.23,122.95c-5.1,1.04-6.4,8.52-2.24,11.62,3.82,2.84,11.08-.13,15.66,2.09,6.27,3.04.84,12.04.26,16.78-.85,6.87,7.38,10.81,11.6,4.88,1.67-2.35,7.17-21.77,7.73-25.37.31-2,.61-5.34-.79-6.93-.65-.74-6.21-2.23-7.6-2.47-4.89-.87-20.05-1.51-24.62-.58ZM326.44,128.32c-2.06,2.21-14.57,20.16-15.3,22.38-1.83,5.56,4.04,9.19,7.88,5.01s5.66-12.1,12.77-12.18c8.15-.1,11.11,12.49,16.69,11.94,3.16-.31,5.68-4.33,3.84-7.15-5.72-5.99-10.72-13.68-16.5-19.49-3.3-3.32-5.73-4.42-9.39-.5Z"/>
  <path class="cls-4" d="M59.01,170.83v587.81h154.47l-4.8-3.11c-13.53-15.57-4.05-36.66,17.53-34.81,4.19.36,6.63.71,4.52,5.29-9.13-3.09-19.51-1.27-22.31,9.11s2.35,20.27,13.44,20.68c2.18.08,8.51-1.73,8.87-1.46.15.11,1.06,3.28,1.01,3.55-.08.54-1.21-.04-1,.76l4.73-.06,12.58-37.08c.82-1.22,5.08-1.03,6-.33l12.9,37c.81.97,3.5.28,4.77.48l2.88-37.47c.46-.66,5.75-.94,6.47.31l10.36,30.91,10.83-30.91c.81-1.13,6.51-1.48,6.68.44l1.92,37.19c-1.6,0-3.2,0-4.8,0l-1.68-32.63-11.27,32.63c-1.44,0-2.88,0-4.32,0l-10.31-32.63-1.68,32.63c-5.11,0-10.24,0-15.35,0-.2-4.1-2.36-7.99-3.43-11.93-1.9.11-13.4-.49-13.9.22l-3.3,11.71c-5.11.03-11.09-.71-15.83.96h-6.24l-4.06-.98-156.18.02.48-588.3ZM256.66,743.29l-5.52-17.76-5.52,17.76h11.03Z"/>
  <path class="cls-4" d="M311.83,759.12l15.83-.48-5.99-3.84c-10.25-11.79-4.86-32.61,11.97-34.08,1.72-.15,10.91.05,11.73,1.01.39.46-.31,4.02-1.2,4.25-.33.08-5.18-1.38-6.66-1.43-7.32-.23-14.39,4.36-15.48,11.91-2.25,15.61,8.76,22.52,22.9,17.87-.04,1.57.93,2.85,0,4.32,1.15-.17,3.44.38,4.34-.22,1.62-1.08,10.5-32.55,12.72-36.71.7-1.48,5.46-1.3,6.23-.52l12.7,37.44h9.11v-33.59h-11.51v-3.84s28.3,0,28.3,0c0,1.28,0,2.56,0,3.84h-11.51v33.59h11.51l-13.66.99c-5.81-.56-11.8-.51-17.53-.51-.6-3.99-2.52-7.93-3.82-11.78h-13.47s-3.82,11.78-3.82,11.78c-.46,0-1.54.51-2.63.51-4.03,0-8.86-1.67-12.72.44h-6.72c-.66-.73-1.71-.89-2.64-.96-5.63-.43-12.23.02-17.99,0ZM359.32,743.29h11.51l-5.99-17.28-5.52,17.28Z"/>
  <path class="cls-5" d="M0,654.51h25.43s-11.76-10.07-11.76-10.07l-.23-6.24c.83-.22.96.35,1.44.71,1.51,1.16,9.18,9.46,10.22,9.3l15.91-11.46c.24,1.37.63,5.2,0,6.24-.97,1.59-12.7,8.19-12.7,9.36.45.5,2.15,2.16,2.63,2.16h10.31v5.28s-41.26,0-41.26,0v-5.28Z"/>
  <path class="cls-3" d="M294.56,170.83c.96,0,1.92,0,2.88,0,36.45.01,72.93,0,109.38,0-.13,183.45.17,366.93,0,550.39h-28.31s0,3.84,0,3.84h11.51v33.59h-9.11l-12.7-37.44c-.77-.78-5.52-.96-6.23.52-2.22,4.16-11.1,35.63-12.72,36.71-.9.6-3.19.05-4.34.22.93-1.47-.04-2.75,0-4.32-14.14,4.65-25.15-2.26-22.9-17.87,1.09-7.55,8.16-12.14,15.48-11.91,1.49.05,6.33,1.51,6.66,1.43.89-.23,1.59-3.79,1.2-4.25-.83-.96-10.01-1.16-11.73-1.01-16.84,1.47-22.22,22.29-11.97,34.08l5.99,3.84-15.83.48c-.32,0-.64,0-.96,0l-1.92-37.19c-.17-1.92-5.87-1.57-6.68-.44l-10.83,30.91-10.36-30.91c-.72-1.26-6-.98-6.47-.31l-2.88,37.47c-1.27-.2-3.96.49-4.77-.48l-12.9-37c-.92-.71-5.18-.89-6,.33l-12.58,37.08-4.73.06c-.22-.8.92-.22,1-.76.04-.28-.87-3.44-1.01-3.55-.36-.27-6.7,1.54-8.87,1.46-11.09-.4-16.16-10.62-13.44-20.68s13.18-12.19,22.31-9.11c2.11-4.57-.34-4.93-4.52-5.29-21.58-1.85-31.07,19.24-17.53,34.81l4.8,3.11H59.01V170.83c78.51.02,157.04-.02,235.55,0ZM224.52,273.03c13.71-43.16-29.3-82.99-71.47-65.48-30.37,12.61-40.91,47.4-25.69,76.05.45.85,2.73,3.66,2.17,4.31-24.73,6.01-39.41,25.33-42.21,50.15-4.15,36.78-4.84,74.06-9.11,110.85.05,30.69,21.86,59.3,53.73,60.94l-5.42,11.37c-9.4,35.96-24.73,71.99-33.68,107.87-9.17,36.75,14.37,71.83,52.75,73.92,27.57,1.5,55.42,1.74,83.03,2.83,21.32.84,38.05,4.96,57.27-7.46,5.4-3.49,9.11-9.23,13.01-11.94,2.16-1.5,8.27-3.36,11.34-4.97,25.99-13.63,39.6-40.45,31.47-69.55-10.62-37.99-26.76-75.73-37.19-113.95-3.31-9.06-8.82-16.97-15.7-23.63,14.49-9.75,30.88-17.43,45.53-26.91,28.42-18.38,38.81-56.82,15.16-83.7-11.17-12.7-26.65-25.77-38.88-37.89-13.05-12.94-27.08-29.07-40.78-40.79-12.65-10.81-28.95-14.8-45.32-12.01Z"/>
  <path class="cls-2" d="M115.86,128.6c.16-.02,1.18-.52,1.21-.77.09-.95-3.4-9.81-3.92-11.87-.43-1.71-.14-3.47-.51-4.77-.23-.83-3.36-4.58-4.12-5.95-12.82-22.94-6.07-51.76,16.85-65.01,36.56-21.13,79.86,11.77,69.85,52.59-2.67,10.86-8.83,18.67-16.75,26.18l12.62-7.77c22.45-12.25,40.19,17.74,20.92,31.96-8.45,6.23-24.08,15.94-33.39,20.82-10.58,5.54-24.01,2.67-28.46-9.02-2.72,2.57-6.08,4.26-9.83,4.79-11.46-.56-24.75,2.43-35.99,1.46s-18.15-15.37-11.66-25.13c2.5-3.75,8.57-7.52,13.11-7.52,2.91,0,7.42.41,10.07,0ZM188.22,81.11c0-21.5-17.43-38.93-38.92-38.93s-38.92,17.43-38.92,38.93,17.43,38.93,38.92,38.93,38.92-17.43,38.92-38.93ZM150.64,128.6c2.47,6.82,3.88,14.46,6.38,21.21,3.44,9.31,10.44,10.45,18.72,6.05,10.92-5.81,21.56-14.24,32.45-20.33,9.05-8.31-.45-23.68-13.26-16.62-6.59,3.63-14.76,12.87-22.25,6.12-.51-.46-.9-1.69-1.23-1.74-.48-.08-7.49,2.92-9.09,3.36-3.87,1.07-7.73,1.58-11.72,1.96ZM123.78,120.92c.86,4.44,3.09,7.41.58,11.86-5.08,9-22.22-.44-25.39,10.11-1.44,4.78,2.25,10.17,7.29,10.18,3.45,0,7.98-.85,11.5-.98,5.79-.23,12.01-.05,17.77-.46,4.81-.34,9.14-.9,10.47-6.33,1.05-4.27-3.52-12.58-4.23-17.18-6.31-1.63-12.53-3.54-17.99-7.2Z"/>
  <path class="cls-5" d="M41.26,434.26v5.28h-17.99c-.76,0-3.92,1.47-4.59,2.13-1.99,1.99-1.74,5.52.02,7.58.34.4,3.4,2.28,3.61,2.28h18.95v5.28h-18.47c-2.51,0-5.57,2.87-5.56,5.52s3.05,6.48,5.56,6.48h18.47v5.28H14.63c-.15,0-.68.66-1.2.48-.09-4.41-.96-5.08,3.83-5.51-4.39-3.09-5.77-9.06-2.61-13.65l3.57-2.9c-6.61-3.07-7.33-13.21-.59-16.67.79-.41,4-1.57,4.67-1.57h18.95Z"/>
  <path class="cls-5" d="M52.29,743.77v5.28s-38.86.48-38.86.48c-.12-4.33-.79-5.91,4.32-5.29-.08-.75-1.1-.73-1.7-1.41-6.22-6.98-2.74-17.05,6.01-19.47,11.38-3.14,23.36,4.74,18.5,17.07l-2.66,3.34h14.39ZM26.3,728.04c-6.03.39-10.85,4.72-8.45,11.07s16.51,6.65,18.96.45c2.98-7.51-3.64-11.97-10.52-11.52Z"/>
  <path class="cls-5" d="M24.35,691.59c22.64-3.11,23.13,29.16,1.37,27.17-16.4-1.51-17.18-25-1.37-27.17ZM26.78,696.85c-6.83.26-13.05,6.12-8.28,12.81,4.09,5.73,17.68,4.68,19.2-3.31,1.17-6.15-5.62-9.7-10.92-9.5Z"/>
  <path class="cls-5" d="M28.3,479.85v19.67c10.02-.12,10.3-9.63,8.16-17.27.85.05,3.28-.91,3.8-.45.29.25,1.44,6.44,1.49,7.38.43,8.32-3.61,14.77-12.31,15.55-20.94,1.9-22.74-26.8-1.14-24.89ZM24.47,485.13c-10.59.21-10.02,13.25,0,14.4v-14.4Z"/>
  <path class="cls-5" d="M28.3,610.37v19.67c8.41-.93,9.87-5.97,9.08-13.64-.34-3.24-2.78-3.99,2.92-4.6,3.09,9.08,1.77,21.84-9.84,23.03-22.36,2.29-23.95-26.4-2.15-24.47ZM24.47,615.65c-10.78-.6-9.81,13.54,0,13.92v-13.92Z"/>
  <path class="cls-5" d="M41.26,406.43c-.13.81.19,4.62,0,4.8-.22.22-2.9-.36-2.89.24,1.57,2.38,3.15,4.72,3.36,7.68.32,4.49-2.18,8.95-6.93,9.37-9.36.82-11.54-8.84-11.3-16.34-8.35-.75-7.41,8.08-4.8,13.43-3.5,1.42-3.85,1.02-4.94-2.49-1.99-6.39-.98-14.05,6.35-16.01.45-.12,3.4-.69,3.63-.69h17.51ZM26.86,411.71c.36,4.11.46,11.39,5.99,11.56,5.65.17,6.4-6.2,2.9-9.65-2.46-2.43-5.76-1.89-8.89-1.9Z"/>
  <path class="cls-5" d="M41.26,510.56v5.28h-17.03c-.83,0-3.74,1.06-4.57,1.66-5.21,3.78-.86,11.77,4.57,11.77h17.03v5.28H13.43c.13-.81-.19-4.62,0-4.8.25-.25,4.29.38,4.32-.24-5.81-3.42-6.55-12.75-.93-16.76,1.01-.72,4.4-2.19,5.49-2.19h18.95Z"/>
  <path class="cls-5" d="M17.27,590.69v7.2h17.51c2.48,0,3.34-4.8,2.16-6.71.8.15,4.03-.23,4.29.02.21.2.57,4.3.53,5.03-.14,2.76-2.58,6.94-5.54,6.94h-18.95c-.22,0,.38,4.23-.28,4.33h-3.56s0-4.33,0-4.33h-6.72c-.27,0-1.03-4.71-.96-5.28h7.68v-7.2h3.84Z"/>
  <path class="cls-5" d="M36.46,553.75c.87.34,3.43-.74,3.81-.47.26.19,1.33,4.79,1.41,5.56,2.26,22.42-30.67,21.81-28.66-.48.26-2.9.55-6.08,4.01-4.61,2.38,1.02.48,2.21.29,4.11-.9,9.08,5.09,13.48,13.78,11.39,7.12-1.71,7.09-9.78,5.36-15.5Z"/>
  <path class="cls-5" d="M18.23,666.03c-.62,2.62-1.21,4.67-.98,7.46.78,9.33,14.23,11.28,18.94,4.03,2.73-4.19-.06-10.98.28-11.47.2-.29,3.25-.76,3.76-.44.35.23,1.36,4.7,1.44,5.51,1.15,11.66-7.7,18.51-18.86,15.51-9.06-2.43-11.99-13.62-8.4-21.56l3.81.95Z"/>
  <rect class="cls-5" x="13.43" y="542.71" width="27.82" height="5.28"/>
  <circle class="cls-5" cx="5.88" cy="545.1" r="3.38"/>
  <path class="cls-3" d="M406.82,725.05c-.01,11.19,0,22.4,0,33.59h-11.51v-33.59h11.51Z"/>
  <path class="cls-3" d="M375.63,759.12c-7.03,0-14.08-.06-21.11,0l3.82-11.78h13.47c1.29,3.85,3.22,7.79,3.82,11.78Z"/>
  <path class="cls-4" d="M311.35,51.82c18.8,12.76,42.98-6.17,33.99-27.52-2.32-5.51-6.05-8.19-10.49-11.82,26.11-.87,52.21-2.83,78.43-3.84,6.49.87,11.36,5.65,13.08,11.87-.58,13.84,1.17,28.92.13,42.61-.69,9.11-8.42,14.52-17.03,15.11-27.51,1.9-57.19-1.46-84.93-.03-4.88.76-13.2-6.9-13.2-11.27v-15.12Z"/>
  <path class="cls-1" d="M397.7,86.37c-6.69,18.52,17.14,11.75,23.99,20.87,3.56,4.74,2.07,10.9-2.72,14.07-2.64,1.75-4.77,1.79-7.86,1.3-11.18-1.76-23.55-7.19-34.89-9.25-3.11-.99-7.86-4.66-8.25-8.1-.21-1.82.88-4.52.57-6.57l7.34-12.33h21.83Z"/>
  <path class="cls-4" d="M358.23,122.95c4.57-.93,19.74-.28,24.62.58,1.39.25,6.95,1.74,7.6,2.47,1.4,1.6,1.11,4.94.79,6.93-.57,3.61-6.06,23.02-7.73,25.37-4.21,5.93-12.45,1.99-11.6-4.88.58-4.74,6.01-13.75-.26-16.78-4.58-2.22-11.84.75-15.66-2.09-4.16-3.09-2.86-10.58,2.24-11.62Z"/>
  <path class="cls-1" d="M339,92.44c1.73-1.84,1.52-4.31,2.87-6.01l14.11.16c.59.39,4.31,12.54,4.31,13.45,0,2.73-2.11,5.45-4.48,6.56-3.89,1.81-11.9,1.08-16.42,1.34-5.15.29-12.82,1.49-17.75,1-8.46-.83-8.22-12.31-.9-13.43,4.99-.77,14.65.77,18.27-3.08Z"/>
  <circle class="cls-4" cx="324.54" cy="33.27" r="14.3"/>
  <path class="cls-4" d="M284.82,121.51c3.57-.83,6.7,1.09,6.41,4.93-.4,5.31-10.41,9.64-7.46,18,2.42,6.86,13.41,6.13,16.3,10.09,2.57,3.52-1.41,8.86-5.51,7.43-7.29-4.01-18.13-5.9-25.06-9.96-2.61-1.53-4.28-4.35-2.69-7.25,5.23-6.33,9.43-13.58,14.61-19.94.9-1.1,2.1-2.99,3.42-3.3Z"/>
  <path class="cls-4" d="M326.44,128.32c3.66-3.92,6.09-2.81,9.39.5,5.78,5.81,10.78,13.5,16.5,19.49,1.84,2.82-.69,6.85-3.84,7.15-5.58.54-8.54-12.04-16.69-11.94-7.11.09-8.91,7.98-12.77,12.18s-9.72.55-7.88-5.01c.73-2.22,13.24-20.17,15.3-22.38Z"/>
  <path class="cls-3" d="M306.07,759.12c-4.31,0-8.64,0-12.95,0l11.27-32.63,1.68,32.63Z"/>
  <path class="cls-3" d="M240.83,759.12l3.3-11.71c.5-.71,12-.11,13.9-.22,1.07,3.94,3.22,7.83,3.43,11.93-6.87,0-13.76-.04-20.63,0Z"/>
  <path class="cls-3" d="M288.8,759.12c-3.99,0-8,0-11.99,0l1.68-32.63,10.31,32.63Z"/>
  <polygon class="cls-3" points="256.66 743.29 245.62 743.29 251.14 725.53 256.66 743.29"/>
  <polygon class="cls-3" points="359.32 743.29 364.84 726.01 370.84 743.29 359.32 743.29"/>
  <path class="cls-2" d="M224.52,273.03c16.38-2.79,32.67,1.2,45.32,12.01,13.7,11.71,27.72,27.85,40.78,40.79,12.22,12.11,27.7,25.19,38.88,37.89,23.66,26.89,13.27,65.32-15.16,83.7-14.65,9.47-31.04,17.16-45.53,26.91,6.88,6.66,12.39,14.58,15.7,23.63,10.43,38.22,26.56,75.97,37.19,113.95,8.14,29.09-5.47,55.92-31.47,69.55-3.07,1.61-9.17,3.47-11.34,4.97-3.9,2.7-7.62,8.45-13.01,11.94-19.22,12.42-35.95,8.3-57.27,7.46-27.61-1.09-55.46-1.33-83.03-2.83-38.39-2.09-61.92-37.17-52.75-73.92,8.95-35.87,24.28-71.91,33.68-107.87l5.42-11.37c-31.87-1.64-53.68-30.25-53.73-60.94,4.27-36.78,4.96-74.07,9.11-110.85,2.8-24.82,17.48-44.14,42.21-50.15.56-.65-1.72-3.45-2.17-4.31-15.22-28.65-4.68-63.44,25.69-76.05,42.17-17.51,85.17,22.32,71.47,65.48ZM218.27,261.04c3.49-31.19-26.51-56.05-56.85-47.51-27.78,7.81-41.14,39.67-27.18,65.11,15.01,27.34,53.22,31.34,73.48,7.59-4.18-1.56-5.5,2.74-8.96,4.47-20.59,10.36-31.01-23.8-10.74-28.01,2.11-.44,4.87.21,6.41-.2.23-.06,2.23-2.67,3.35-3.48,6.61-4.75,14.85-3.5,20.49,2.03ZM205.2,264.51c-5.1,1.03-1.15,3.48.07,5.94.54,1.09,1.08,2.71,1.38,3.9.67,2.63-.65,4.88,3.54,2.35,6.78-4.08,2.23-13.65-5-12.19ZM198.58,277.31c0-3.69-2.99-6.68-6.68-6.68s-6.68,2.99-6.68,6.68,2.99,6.68,6.68,6.68,6.68-2.99,6.68-6.68ZM273.14,300.7c-11.2-10.87-18.19-19.24-35.43-19.98-3.74-.16-14.55.54-17.47,2.67-.99.72-4.38,6.45-5.8,8.11-3.63,4.25-8.28,8.01-12.98,11.01-1.08.69-5.58,2.74-5.95,3.17-.91,1.07-3.75,9.77-3.6,11.22.24,2.42,3.39,8.71,4.16,12.19.41,1.84.96,4.26,1.1,6.09.18,2.25-.82,12.64,1.25,13.11l38.96-9.85c5.81-4.32,10.96-7.69,18.58-7.37,2.28.1,4.55,1.09,6.67,1,4.05-.17,9.64-2.95,13.94-3.37,11.56-1.14,20.98,4.91,25.19,15.58,3.51,8.89,9.11,26.43,10.88,35.66,2.87,14.93-6.41,25.82-20.95,27.95-.36.42,3.34,10.01,3.8,10.32.84.56,4.09.1,5.49.27,5.01.63,10.16,4.31,12.15,8.96,4.81,11.23-4.83,22.94-16.62,20.77l-5.56,14.84c12.32-7.89,25.83-14.48,38.1-22.35,25.32-16.22,34.3-48.2,13.24-72.19-23.33-22.34-45.99-45.33-69.16-67.82ZM187.96,351.64c.2-.31.99-6.43,1.05-7.35.5-8.96-1.66-17.88-5.98-25.68-.77-1.39-4.05-6.71-5.01-7.47-1.31-1.05-8.8-.9-11.25-1.22-11.43-1.5-22.1-6.87-30.39-14.75-21.66,2.83-37.69,19.9-40.43,41.44-4.6,36.19-4.55,74.04-9.11,110.37-.88,31.5,22.89,58.53,55.79,53.77,36.15-8.38,74.7-11.76,110.67-20.18,16.14-3.78,30.13-16.15,34.06-32.39-6.47-.76-13.05-.03-19.47-.92-3.13,2.45-4.99,4.69-8.85,6.43-11.65,5.26-25.38,8.64-37.29,13.57-18.04,2.55-28.87-19.35-14.77-31.57l6.49-3.82c-12.58.94-22.21-5.79-26.52-17.38-3.72-10.02-8.15-24.53-10.66-34.93s-.17-20.34,9.2-26.78c.6-.41,2.34-.95,2.46-1.14ZM232.67,357.25c-.29-2.16,0-5.36,0-7.68,0-.15.66-.68.48-1.2-13.25,2.56-26.31,6.54-39.47,9.7-7.68,2.9-11.08,9.74-9.83,17.77,4.44,11.61,6.67,25.22,11.39,36.59,3.58,8.64,10.03,11.94,19.33,10.67l81.08-24.95c6.88-2.46,9.67-8.43,9-15.51-.47-4.99-8.93-31.86-11.3-36.68-4.41-8.97-12.78-10.72-21.82-7.68,14.54,17.24-.88,42.47-22.92,36.6-7.61-2.03-14.87-9.77-15.94-17.65ZM268.79,353.45c0-7.71-6.24-13.95-13.95-13.95s-13.95,6.25-13.95,13.95,6.24,13.95,13.95,13.95,13.95-6.25,13.95-13.95ZM281.6,411.23c-1.89.95-14.36,3.9-14.91,4.63s-1.52,4.64-1.39,5.64c.21,1.69,3.89,5.56,4.81,8.18,1.11,3.17,1.04,6.06.94,9.38,5.68.62,11.35.31,17.05.46,3.54.09,11.7,1.57,14.59-.24,4.13-2.58,4.54-8.12.47-10.98-5.13-3.6-18.96,1.95-22.27-6.52-1.57-4.02.1-6.64.71-10.55ZM253.16,419.94l-19.06,5.92c-.65.55-.58,4.33-1.33,5.87-3.75,7.67-22.39,5.61-23.61,16.21-.81,7.09,4.3,11.63,11.16,11.17,11.04-5.02,24.15-7.91,35.02-12.96,6.32-2.94,9.59-8.72,5.94-15.31-.61-1.1-6.74-10.01-7.28-10.5-.31-.27-.33-.43-.85-.4ZM306.56,673.71c11.21-5.72,20.55-14.95,25.31-26.74,8.59-21.31-.05-36.75-6.47-56.65-9.34-28.99-18.16-59.21-28.31-87.81-3.49-9.84-9.66-19.48-18.61-25.06-6.34,4.86-13.08,8.71-20.86,10.8l-44.61,7.92c16.32,14.4,24.11,35.57,18.48,57.1l-13.68,42.7c5.18.43,10.43.22,15.61.46,14.1.66,30.81.02,43.86,5.55,27.89,11.83,40.32,43.59,29.28,71.72ZM199.95,498.68l-56.64,10.56c-5.38,5.47-8.07,12.96-10.56,20.15-11.85,34.24-20.97,69.57-32.26,104.01-5.72,29.95,12.46,59.01,44.12,60.97,31.34,1.94,63.1,2.12,94.55,3.32,16.15.61,26.39,3.21,41.14-5.83,29.03-17.8,28.91-61.12-.19-78.8-18.13-11.02-41.64-6.09-62.03-8.49-4.35-.51-7.96-2.79-8.4-7.44,4.43-29.35,26.83-56.14,6.58-84.79-2.39-3.38-12.28-13.74-16.32-13.65Z"/>
  <path class="cls-4" d="M188.22,81.11c0,21.5-17.43,38.93-38.92,38.93s-38.92-17.43-38.92-38.93,17.43-38.93,38.92-38.93,38.92,17.43,38.92,38.93ZM183.39,87.38c0-12.07-9.78-21.85-21.84-21.85s-21.84,9.78-21.84,21.85,9.78,21.85,21.84,21.85,21.84-9.78,21.84-21.85Z"/>
  <path class="cls-1" d="M150.64,128.6c3.99-.38,7.84-.9,11.72-1.96,1.6-.44,8.61-3.44,9.09-3.36.33.05.72,1.28,1.23,1.74,7.49,6.75,15.66-2.49,22.25-6.12,12.81-7.06,22.31,8.32,13.26,16.62-10.89,6.08-21.53,14.52-32.45,20.33-8.27,4.4-15.28,3.26-18.72-6.05-2.49-6.75-3.91-14.39-6.38-21.21Z"/>
  <path class="cls-1" d="M123.78,120.92c5.46,3.66,11.68,5.56,17.99,7.2.71,4.61,5.28,12.91,4.23,17.18-1.34,5.43-5.66,5.98-10.47,6.33-5.75.41-11.97.24-17.77.46-3.52.14-8.05.99-11.5.98-5.04-.01-8.73-5.4-7.29-10.18,3.17-10.55,20.31-1.11,25.39-10.11,2.51-4.44.29-7.42-.58-11.86Z"/>
  <path class="cls-4" d="M199.95,498.68c4.04-.09,13.93,10.27,16.32,13.65,20.25,28.64-2.15,55.44-6.58,84.79.44,4.65,4.05,6.93,8.4,7.44,20.39,2.4,43.91-2.53,62.03,8.49,29.09,17.68,29.21,60.99.19,78.8-14.75,9.05-24.99,6.45-41.14,5.83-31.45-1.2-63.21-1.38-94.55-3.32-31.66-1.96-49.84-31.02-44.12-60.97,11.29-34.44,20.41-69.77,32.26-104.01,2.49-7.19,5.17-14.68,10.56-20.15l56.64-10.56Z"/>
  <path class="cls-4" d="M187.96,351.64c-.12.19-1.86.72-2.46,1.14-9.36,6.45-11.78,16.07-9.2,26.78s6.93,24.9,10.66,34.93c4.31,11.59,13.94,18.32,26.52,17.38l-6.49,3.82c-14.1,12.21-3.27,34.12,14.77,31.57,11.91-4.93,25.64-8.31,37.29-13.57,3.85-1.74,5.72-3.98,8.85-6.43,6.41.89,13,.16,19.47.92-3.93,16.24-17.92,28.62-34.06,32.39-35.97,8.42-74.53,11.8-110.67,20.18-32.9,4.77-56.67-22.27-55.79-53.77,4.56-36.33,4.52-74.17,9.11-110.37,2.74-21.54,18.77-38.62,40.43-41.44,8.29,7.87,18.96,13.25,30.39,14.75,2.46.32,9.94.17,11.25,1.22.95.76,4.24,6.07,5.01,7.47,4.32,7.8,6.48,16.72,5.98,25.68-.05.93-.84,7.04-1.05,7.35Z"/>
  <path class="cls-4" d="M306.56,673.71c11.04-28.13-1.39-59.89-29.28-71.72-13.05-5.53-29.76-4.9-43.86-5.55-5.18-.24-10.43-.04-15.61-.46l13.68-42.7c5.63-21.53-2.16-42.71-18.48-57.1l44.61-7.92c7.78-2.09,14.53-5.94,20.86-10.8,8.96,5.59,15.12,15.22,18.61,25.06,10.14,28.6,18.96,58.83,28.31,87.81,6.41,19.89,15.06,35.33,6.47,56.65-4.75,11.79-14.1,21.02-25.31,26.74Z"/>
  <path class="cls-4" d="M273.14,300.7c23.18,22.49,45.83,45.48,69.16,67.82,21.06,23.99,12.08,55.97-13.24,72.19-12.28,7.87-25.79,14.45-38.1,22.35l5.56-14.84c11.8,2.17,21.44-9.54,16.62-20.77-1.99-4.65-7.14-8.33-12.15-8.96-1.39-.18-4.65.29-5.49-.27-.46-.31-4.16-9.9-3.8-10.32,14.53-2.13,23.82-13.02,20.95-27.95-1.78-9.24-7.37-26.77-10.88-35.66-4.21-10.67-13.63-16.72-25.19-15.58-4.3.42-9.89,3.2-13.94,3.37-2.12.09-4.39-.9-6.67-1-7.62-.32-12.77,3.05-18.58,7.37l-38.96,9.85c-2.07-.47-1.07-10.86-1.25-13.11-.15-1.83-.7-4.25-1.1-6.09-.77-3.48-3.92-9.77-4.16-12.19-.14-1.45,2.69-10.15,3.6-11.22.37-.43,4.87-2.48,5.95-3.17,4.7-3,9.35-6.76,12.98-11.01,1.42-1.67,4.81-7.39,5.8-8.11,2.93-2.13,13.73-2.83,17.47-2.67,17.24.74,24.23,9.11,35.43,19.98Z"/>
  <path class="cls-4" d="M232.67,357.25c1.07,7.88,8.33,15.62,15.94,17.65,22.04,5.87,37.46-19.36,22.92-36.6,9.03-3.03,17.41-1.29,21.82,7.68,2.37,4.82,10.84,31.69,11.3,36.68.66,7.08-2.12,13.05-9,15.51l-81.08,24.95c-9.3,1.27-15.74-2.03-19.33-10.67-4.72-11.37-6.94-24.98-11.39-36.59-1.26-8.03,2.15-14.87,9.83-17.77,13.16-3.17,26.22-7.14,39.47-9.7.18.52-.48,1.05-.48,1.2,0,2.32-.29,5.52,0,7.68Z"/>
  <path class="cls-4" d="M218.27,261.04c-5.64-5.53-13.89-6.78-20.49-2.03-1.12.8-3.11,3.42-3.35,3.48-1.53.41-4.3-.23-6.41.2-20.27,4.21-9.85,38.37,10.74,28.01,3.45-1.74,4.78-6.03,8.96-4.47-20.26,23.75-58.47,19.75-73.48-7.59-13.96-25.44-.6-57.29,27.18-65.11,30.34-8.53,60.34,16.33,56.85,47.51Z"/>
  <path class="cls-1" d="M253.16,419.94c.52-.03.54.12.85.4.55.48,6.67,9.39,7.28,10.5,3.65,6.6.38,12.37-5.94,15.31-10.87,5.06-23.98,7.94-35.02,12.96-6.85.46-11.97-4.08-11.16-11.17,1.22-10.6,19.86-8.54,23.61-16.21.75-1.54.68-5.32,1.33-5.87l19.06-5.92Z"/>
  <path class="cls-1" d="M281.6,411.23c-.61,3.91-2.28,6.53-.71,10.55,3.31,8.47,17.14,2.92,22.27,6.52,4.07,2.86,3.66,8.4-.47,10.98-2.89,1.81-11.05.33-14.59.24-5.7-.15-11.37.16-17.05-.46.1-3.32.17-6.21-.94-9.38-.91-2.62-4.59-6.5-4.81-8.18-.13-1,.84-4.92,1.39-5.64s13.02-3.68,14.91-4.63Z"/>
  <circle class="cls-4" cx="254.84" cy="353.45" r="13.95"/>
  <circle class="cls-4" cx="191.89" cy="277.31" r="6.68"/>
  <path class="cls-4" d="M205.2,264.51c7.23-1.46,11.78,8.11,5,12.19-4.19,2.52-2.87.28-3.54-2.35-.3-1.19-.84-2.81-1.38-3.9-1.22-2.46-5.18-4.91-.07-5.94Z"/>
  <path class="cls-2" d="M183.39,87.38c0,12.07-9.78,21.85-21.84,21.85s-21.84-9.78-21.84-21.85,9.78-21.85,21.84-21.85,21.84,9.78,21.84,21.85ZM175.04,87.36c0-7.44-6.03-13.47-13.47-13.47s-13.47,6.03-13.47,13.47,6.03,13.47,13.47,13.47,13.47-6.03,13.47-13.47Z"/>
  <circle class="cls-4" cx="161.58" cy="87.36" r="13.47"/>
</svg>