<?xml version="1.0" encoding="UTF-8"?>
<svg id="Layer_1" data-name="Layer 1" xmlns="http://www.w3.org/2000/svg" viewBox="0 0 429.27 309.64">
  <defs>
    <style>
      .cls-1 {
        fill: #b8bd99;
      }

      .cls-2 {
        fill: #602e7d;
      }

      .cls-3 {
        fill: #44bdc5;
      }

      .cls-4 {
        fill: #7492c3;
      }

      .cls-5 {
        fill: #ba443b;
      }

      .cls-6 {
        fill: #bb443b;
      }
    </style>
  </defs>
  <path class="cls-4" d="M409.34,46.7c.1,0,.2,0,.3,0,.3.25,1.15.57,1.49.59.2.02.4-.02.59,0,.57.29,1.17.45,1.78.59,2.73.66,3.37,1.13,5.65,2.68.36.24,1.06.86,1.49,1.19.06.05.24-.05.3,0,3.12,3.14,5.62,6.51,7.14,10.71.04.18-.04.41,0,.59.15.73.64,1.91.89,2.68.07.95-.3,2.27.3,2.97v211.48c-.61.71-.2,2.03-.3,2.97-.06.66-.19.95-.3,1.49-.05.26-.22.91-.3,1.19-1.98,7.11-7.88,13.08-14.87,15.17-.75.22-1.69.53-2.38.89-.1.02-.2-.01-.3,0-.47.07-1.13.29-1.19.3-.1,0-.2,0-.3,0h-123.75c3.4-2.81,7.27-5.06,10.57-8.02,2.93-2.64,7.39-7.71,9.36-11.01l10.58-.28,1.91-24.11c2-3.85,3.96-7.74,5.95-11.6h16.36s2.97,35.99,2.97,35.99h19.63l-9.82-92.8c4.64-10.43,5.78-21.93,3.19-33.08-.25-1.09-1.68-4.77-1.62-5.4.07-.72,2.54-5.17,3.04-6.44,3.22-8.08,5.42-18.15,6.7-26.77,3.99.36,8.77-.47,12.66-.02.3.04,1.03.14,1.03.46v164.04h18.44V119.13s.41-.45.45-.45h18.59v-53.84h-56.37c-.21,0-.4.5-.45.74-.21,1.14-.16,5.75,0,6.99-5.06-9.57-11.24-18.63-19.34-25.88,23.28.4,46.63-.54,69.91,0Z"/>
  <path class="cls-2" d="M1.49,285.84c-.57-1.59-.99-3.16-1.49-4.76V67.82l1.49-4.76c-.43,1.99-.66,4.05-.91,6.08v211.21s.91,5.49.91,5.49Z"/>
  <path class="cls-5" d="M429.27,68.71c-.6-.71-.22-2.02-.3-2.97h.3v2.97Z"/>
  <path class="cls-5" d="M429.27,283.16h-.3c.09-.95-.31-2.27.3-2.97v2.97Z"/>
  <path class="cls-4" d="M200.8,65.73l-2.68,36.59c-4.65-.45-9.32-.79-13.98-1.19l-2.38-36.29h-24.69v33.91c-8.42-.74-16.86-1.65-25.29-2.38l-3.27-31.53h-20.53l-2.97,29.15c-10.82-.3-19.98,5.15-25.88,13.98.07-2.62-1.56-9.34-2.17-12.25-2.63-12.45-8.31-36.54-25.27-34.37-15.1,1.93-21.43,31.07-23.63,43.3-5.71,31.72-5.89,70.02-3.96,102.22,1.12,18.71,4.85,54.07,14.63,69.84,8.19,13.21,22.62,13.97,30.44-.09,10.01-17.99,10.7-43.99,12.95-64.12.08-.91-.54-1.56-1.06-2.21-3.68-4.61-8.97-9.84-13.09-14.28-.68-.73-1.42-1.49-2.23-2.08-.77,10.25-1.24,21.16-3.83,31.12-1.15,4.42-3.62,12.38-9.58,10.99-5.16-1.21-7.58-14-8.27-18.5-2.66-17.5-2.26-37.84-1.82-55.57.29-11.48.53-39.22,7.9-48.02,5.35-6.4,9.42,1.24,11.14,6.07,2.51,7.06,2.99,14.77,3.87,22.16l8.92-6.84c-.86,9.12-2.41,19.36-2.69,28.39-.39,12.43,6.66,22.88,18.15,27.37-3.91,5.49-4.86,12.09-1.42,18.09,1.26,2.2,2.54,3.12,4.4,4.67l-7.14,69.3h19.04l2.97-35.99h21.12l3.42,35.99h19.19l-3.87-36.88c3.34,1.6,6.04,2.6,9.82,2.68v34.21h15.17v-35.69c.81.27,1.75,1.07,2.38,1.63,2.65,2.34,5.11,4.93,7.73,7.29l1.78,26.77h13.98l.59-11.9c.07.07.5.07.74.29,3.27,2.99,6.38,6.15,9.84,8.92.3.25.36.54.42.91.06.4-.09,1.69,0,1.79.1.1,1.94-.07,2.38,0,4.73,4.39,9.46,8.98,14.27,13.24,2.36,2.09,5.07,3.72,7.44,5.8H20.53c-.1,0-.2,0-.3,0-1.05-.54-2.43-.62-3.57-.89-.17-.04-.42.04-.59,0,0-.17.08-.48-.04-.55-.6-.37-2.43-.85-3.23-1.24-.08-.04-.22.04-.3,0-.88-1-2.19-1.61-3.27-2.38-.07-.05-.23.05-.3,0l-1.19-1.19c-1.64-1.6-2.99-3.39-4.16-5.35-.04-.95-.84-1.67-1.19-2.38-.46-.93-.57-1.49-.89-2.38l-.91-5.49V69.14c.24-2.03.48-4.09.91-6.08.04-.18-.04-.42,0-.59.82.18.56-.42.74-.89,1.5-3.95,3.77-6.84,6.7-9.82.06-.05.23.05.3,0,1.07-.79,2.4-1.37,3.27-2.38.08-.04.22.04.3,0,.8-.39,2.63-.87,3.23-1.24.12-.07.05-.38.04-.55.17-.04.4.02.59,0,.38-.04.98.17,1.19-.3.19-.02.4.03.59,0,.45-.06,1.4-.32,1.78-.59.1,0,.2,0,.3,0h170.61s1.34-.3,1.34-.3c2.27,6.55,5.31,13.06,8.33,19.33Z"/>
  <path class="cls-3" d="M338.83,46.4c.19.1.35.28.59.3,8.1,7.25,14.28,16.31,19.34,25.88.2,1.62,1.79,4.35,2.39,6.09,4.75,13.88,5.41,25.5,3.27,40.01-1.27,8.62-3.48,18.68-6.7,26.77-.51,1.27-2.97,5.72-3.04,6.44-.06.62,1.37,4.3,1.62,5.4,2.59,11.15,1.45,22.65-3.19,33.08-10.02,18.77-19.4,37.9-29.15,56.81-1.99,3.86-3.95,7.75-5.95,11.6-3.99,7.71-8.19,17.17-12.49,24.39-1.97,3.31-6.43,8.38-9.36,11.01-3.29,2.96-7.16,5.21-10.57,8.02-.45-.16-.66.2-.89.3-1.42.6-3.03,1.76-4.56,2.43-13.03,5.73-27.84,5.82-40.86,0-1.53-.68-3.13-1.9-4.56-2.43-.21-.08-.46-.46-.89-.3-2.37-2.07-5.08-3.7-7.44-5.8-4.82-4.26-9.55-8.86-14.27-13.24-.7-.65-1.13-1.76-2.38-1.78-.06-.37-.12-.66-.42-.91-3.46-2.77-6.58-5.93-9.84-8.92-.24-.22-.67-.22-.74-.29-5.44-4.97-10.89-9.93-16.36-14.87-2.62-2.36-5.08-4.95-7.73-7.29-.64-.56-1.58-1.36-2.38-1.63-1.77-3.83-3.88-.99-6.34.05-2.79,1.19-5.82,1.5-8.83,1.43-3.78-.08-6.47-1.08-9.82-2.68-6.01-4.13-8.15-10.3-9.23-17.25-.9.44-1.23,1.44-1.92,2.1-5.38,5.12-13.41,5.91-19.59,1.72-7.76-6.61-16.18-12.46-24-18.98-1.86-1.55-3.14-2.47-4.4-4.67-3.44-5.99-2.49-12.59,1.42-18.09-11.49-4.5-18.54-14.94-18.15-27.37.28-9.04,1.83-19.27,2.69-28.39.64-6.84.51-15.44,2.67-21.87.43-1.28,2.37-4.67,2.39-5.49,5.9-8.83,15.06-14.28,25.88-13.98,8.49.23,18.17,1.64,26.77,2.38s16.86,1.64,25.29,2.38c9.02.79,18.05,1.6,27.07,2.38,4.66.4,9.33.74,13.98,1.19,4.57-3.86,10.38-5.96,16.36-6.25-1.31-4.22-3.21-8.33-5.01-12.39-2.69-6.1-5.8-11.95-8.68-17.94s-6.05-12.79-8.33-19.33c-2.64-7.6-5.1-16.96-5.35-24.99-.06-1.82.29-3.95-.3-5.65.79-16.24,10.99-17.65,24.39-12.64,20.83,7.78,35.85,18.61,59.09,22.12,24.73,3.73,42.81,3.48,64.58,18.12,1.21.82,2.82,2.44,3.95,3.04ZM351.92,145.45c9.13-23.66,12.77-49.75.65-73.07-9.86-18.97-24.26-29.63-44.61-35.7-16.95-5.05-34.38-4.2-51.35-8.74-14.6-3.9-26.94-10.67-40.63-16.48-4.79-2.03-13.69-6.02-18.74-4.17-3.28,1.21-4.34,7.02-4.46,10.12-.82,21.27,13.28,44.99,21.77,63.9,2.29,5.1,4.35,10.31,6.47,15.48,18.73,4.69,26.36,27.28,13.7,42.27-2.56,3.04-5.92,5.09-9.31,7.07l-1.32,14.03c.06.3,2.17,2.3,2.6,2.72,5.62,5.35,12.49,11.78,18.44,16.66.29.24,1.5,1.25,1.78,1.04l17.8-35.59c17.01-30.08,58.49-34.31,81.26-7.97,2.27,2.62,3.95,5.67,5.95,8.47ZM219.24,155.86l2.4-26.31c.07-9.73-5.7-18.46-15.17-21.14-35.05-3.06-70.08-6.74-105.17-9.05-12.65,1.95-19.57,10.67-20.97,23.05s-2.95,27.39-3.57,40.16c-.58,11.99,6.49,23.4,19.19,24.53,9.75.87,20.74.86,30.62,1.21,3.41.12,6.84,0,10.24.25,3.89-38.03,46.88-58.06,78.48-35.73,1.36.96,2.59,2.08,3.95,3.04ZM226.09,139.5c21.08-14.14,4.33-45.71-19.34-36.58-.09.4.31.33.6.44,9.09,3.19,15.38,7.73,18.22,17.48,1.86,6.4.84,12.17.52,18.67ZM229.17,291.69c25.6,22.8,59.19,11.61,74.42-16.55,16.3-30.13,31.15-61.23,46.48-91.84,10.76-32.1-16.87-63.81-50.27-57.7-29.63,5.42-34.71,34.25-47.78,56.34-2.24,3.78-5.06,5.63-9.12,2.77-16.25-12.94-30.47-34.22-52.95-35.7-42.01-2.76-64.48,47.79-33.63,76.76,9.57,8.99,19.84,17.45,29.61,26.31,14.47,13.11,28.68,26.65,43.23,39.61ZM127.32,193.34c-10.55-.22-21.13-.59-31.62-1.14-4.93,3.87-6.25,11.99-1.4,16.47,5.65,5.22,13.83,10.78,20.08,15.62,2.46,1.91,5.52,5.34,8.71,5.87,9.58,1.6,16.01-8.96,9.89-16.44-2.55-3.12-10.66-7.13-11.82-10.49-1.77-5.13,2.7-6.5,5.67-9.04.31-.26.62-.29.49-.84ZM165.66,241.79c.38-.65-.74-1.5-1.15-1.9-4.94-4.84-10.89-8.77-15.48-13.97-7.59-8.6-12.14-20.27-12.23-31.79-.23-.69-1.17-.48-1.74-.49,0,1.3-.07,2.58.13,3.88,1.82,11.92,7.33,24.93,9.4,37,2.59,7.26,9.03,10.2,16.46,9.06.81-.12,4.29-1.24,4.61-1.79ZM130.3,198.39c-.28-.27-4.27,2.07-3.83,3.37.19.55,4.81,3.71,5.62,4.36l-1.78-7.73Z"/>
  <polygon class="cls-2" points="192.47 46.4 191.13 46.7 20.53 46.7 22.16 46.4 192.47 46.4"/>
  <path class="cls-2" d="M409.34,46.7c-23.27-.54-46.63.4-69.91,0-.24-.02-.4-.2-.59-.3l70.5.3Z"/>
  <path class="cls-2" d="M16.06,47.59c0,.17.08.48-.04.55-.6.37-2.43.85-3.23,1.24-.03-.86,2.46-1.6,3.27-1.78Z"/>
  <path class="cls-4" d="M187.12,21.42c-.48-1.64-.38-3.91-.3-5.65.59,1.7.24,3.83.3,5.65Z"/>
  <path class="cls-2" d="M411.71,47.29c.2.02,1.97-.66,1.78.59-.62-.15-1.22-.3-1.78-.59Z"/>
  <path class="cls-2" d="M428.08,62.46c-1.52-4.2-4.02-7.57-7.14-10.71,3.24,2.62,6.34,6.84,7.14,10.71Z"/>
  <path class="cls-2" d="M8.92,51.75c-2.93,2.98-5.2,5.87-6.7,9.82-.18.46.08,1.06-.74.89.7-3.19,4.79-8.75,7.44-10.71Z"/>
  <path class="cls-2" d="M409.63,46.7c.8.03,1.71-.32,1.49.59-.34-.03-1.19-.34-1.49-.59Z"/>
  <path class="cls-2" d="M428.08,63.06c.92-.26.83,1.86.89,2.68-.26-.76-.74-1.95-.89-2.68Z"/>
  <path class="cls-2" d="M20.23,46.7c-.38.28-1.34.54-1.78.59.27-.82,1.11-.56,1.78-.59Z"/>
  <path class="cls-2" d="M17.85,47.29c-.21.47-.81.26-1.19.3.36-.66,1.03-.28,1.19-.3Z"/>
  <path class="cls-2" d="M9.22,51.75c.75-.98,2.16-1.85,3.27-2.38-.88,1.01-2.2,1.59-3.27,2.38Z"/>
  <path class="cls-2" d="M420.64,51.75c-.42-.33-1.13-.95-1.49-1.19.6.24,1.21.56,1.49,1.19Z"/>
  <path class="cls-6" d="M358.76,72.58c-.16-1.24-.21-5.85,0-6.99.05-.25.24-.74.45-.74h56.37v53.84h-18.59s-.45.41-.45.45v164.04h-18.44V119.13c0-.33-.73-.43-1.03-.46-3.89-.46-8.67.37-12.66.02,2.14-14.51,1.48-26.13-3.27-40.01-.6-1.74-2.18-4.47-2.39-6.09Z"/>
  <path class="cls-5" d="M353.11,190.36l9.82,92.8h-19.63l-2.97-35.99h-16.36c9.76-18.91,19.13-38.04,29.15-56.81Z"/>
  <path class="cls-5" d="M305.51,283.16c4.3-7.22,8.5-16.68,12.49-24.39l-1.91,24.11-10.58.28Z"/>
  <path class="cls-2" d="M285.58,302.2h123.75l-124.64.3c.23-.1.44-.46.89-.3Z"/>
  <path class="cls-2" d="M410.82,301.9l-1.19.3c.06,0,.72-.23,1.19-.3Z"/>
  <path class="cls-2" d="M428.37,285.84c.08-.28.25-.93.3-1.19l-.3,1.19Z"/>
  <path class="cls-2" d="M411.12,301.9c.69-.36,1.63-.67,2.38-.89-.44.92-1.57.76-2.38.89Z"/>
  <path class="cls-2" d="M233.82,302.2c.44-.16.68.22.89.3l-214.19-.3h213.29Z"/>
  <path class="cls-2" d="M12.79,299.52c.8.39,2.63.87,3.23,1.24.12.07.05.38.04.55-.86-.22-3.28-.89-3.27-1.78Z"/>
  <path class="cls-2" d="M20.23,302.2c-1.18-.09-2.57-.15-3.57-.89,1.14.28,2.51.35,3.57.89Z"/>
  <path class="cls-2" d="M12.49,299.52c-1.11-.53-2.53-1.4-3.27-2.38,1.08.77,2.39,1.38,3.27,2.38Z"/>
  <path class="cls-2" d="M3.57,290.6c-.46-.76-1.08-1.43-1.19-2.38.35.71,1.15,1.43,1.19,2.38Z"/>
  <path class="cls-2" d="M8.92,297.14c-.63-.46-.75-.76-1.19-1.19l1.19,1.19Z"/>
  <path class="cls-6" d="M79.13,107.97c-.02.82-1.96,4.22-2.39,5.49-2.16,6.43-2.02,15.03-2.67,21.87l-8.92,6.84c-.87-7.39-1.36-15.1-3.87-22.16-1.72-4.83-5.79-12.46-11.14-6.07-7.36,8.8-7.61,36.55-7.9,48.02-.44,17.72-.84,38.07,1.82,55.57.68,4.5,3.11,17.3,8.27,18.5,5.96,1.4,8.43-6.57,9.58-10.99,2.6-9.96,3.06-20.87,3.83-31.12.81.59,1.55,1.35,2.23,2.08,4.11,4.44,9.41,9.67,13.09,14.28.52.65,1.14,1.3,1.06,2.21-2.25,20.13-2.94,46.14-12.95,64.12-7.83,14.06-22.25,13.29-30.44.09-9.78-15.78-13.51-51.14-14.63-69.84-1.94-32.21-1.75-70.5,3.96-102.22,2.2-12.22,8.53-41.36,23.63-43.3,16.96-2.17,22.64,21.92,25.27,34.37.61,2.91,2.24,9.63,2.17,12.25Z"/>
  <path class="cls-5" d="M92.52,213.86c7.82,6.52,16.25,12.37,24,18.98,6.19,4.2,14.21,3.41,19.59-1.72.69-.65,1.01-1.65,1.92-2.1,1.07,6.95,3.22,13.13,9.23,17.25l3.87,36.88h-19.19l-3.42-35.99h-21.12l-2.97,35.99h-19.04l7.14-69.3Z"/>
  <path class="cls-5" d="M157.07,98.75v-33.91h24.69l2.38,36.29c-9.02-.78-18.05-1.59-27.07-2.38Z"/>
  <path class="cls-5" d="M105.01,93.99l2.97-29.15h20.53l3.27,31.53c-8.61-.74-18.29-2.15-26.77-2.38Z"/>
  <path class="cls-5" d="M172.24,247.47v35.69h-15.17v-34.21c3.01.06,6.04-.25,8.83-1.43,2.46-1.05,4.57-3.88,6.34-.05Z"/>
  <path class="cls-5" d="M200.8,65.73c2.88,5.99,5.99,11.84,8.68,17.94,1.79,4.06,3.69,8.17,5.01,12.39-5.99.29-11.79,2.39-16.36,6.25l2.68-36.59Z"/>
  <path class="cls-5" d="M198.72,271.27l-.59,11.9h-13.98l-1.78-26.77c5.47,4.94,10.92,9.9,16.36,14.87Z"/>
  <path class="cls-5" d="M212.1,283.16c-.44-.07-2.28.1-2.38,0-.09-.09.07-1.39,0-1.79,1.25.03,1.68,1.14,2.38,1.78Z"/>
  <path class="cls-6" d="M229.17,291.69c-14.56-12.96-28.77-26.5-43.23-39.61-9.77-8.85-20.04-17.32-29.61-26.31-30.85-28.98-8.37-79.52,33.63-76.76,22.48,1.48,36.7,22.76,52.95,35.7,4.06,2.86,6.88,1.01,9.12-2.77,13.06-22.08,18.14-50.92,47.78-56.34,33.4-6.11,61.04,25.6,50.27,57.7-15.34,30.61-30.18,61.7-46.48,91.84-15.23,28.16-48.82,39.35-74.42,16.55Z"/>
  <path class="cls-6" d="M351.92,145.45c-2-2.8-3.69-5.85-5.95-8.47-22.77-26.34-64.24-22.1-81.26,7.97l-17.8,35.59c-.28.21-1.5-.8-1.78-1.04-5.95-4.87-12.82-11.31-18.44-16.66-.43-.41-2.55-2.42-2.6-2.72l1.32-14.03c3.39-1.98,6.75-4.03,9.31-7.07,12.66-14.99,5.03-37.59-13.7-42.27-2.11-5.17-4.18-10.38-6.47-15.48-8.49-18.91-22.59-42.63-21.77-63.9.12-3.09,1.18-8.91,4.46-10.12,5.05-1.85,13.95,2.14,18.74,4.17,13.69,5.81,26.04,12.58,40.63,16.48,16.98,4.53,34.4,3.68,51.35,8.74,20.35,6.07,34.76,16.74,44.61,35.7,12.12,23.32,8.48,49.41-.65,73.07ZM235.34,87.89c0-1.08-.88-1.96-1.96-1.96s-1.96.88-1.96,1.96.88,1.96,1.96,1.96,1.96-.88,1.96-1.96ZM259.76,89.83c0-1.02-.82-1.84-1.84-1.84s-1.84.82-1.84,1.84.82,1.84,1.84,1.84,1.84-.82,1.84-1.84ZM239.37,94.63c-1.19.37.32,2.43,1.21,2.86.81.39,2.32.53,3.2.36,3.17-.62-1.65-4.08-4.41-3.22Z"/>
  <path class="cls-6" d="M219.24,155.86c-1.35-.96-2.59-2.08-3.95-3.04-31.6-22.33-74.59-2.3-78.48,35.73-3.4-.25-6.83-.13-10.24-.25-9.88-.34-20.88-.34-30.62-1.21-12.7-1.13-19.77-12.54-19.19-24.53.62-12.77,2.12-27.39,3.57-40.16s8.32-21.1,20.97-23.05c35.09,2.31,70.13,6,105.17,9.05,9.47,2.69,15.24,11.41,15.17,21.14l-2.4,26.31Z"/>
  <path class="cls-1" d="M127.32,193.34c.13.55-.18.58-.49.84-2.97,2.54-7.44,3.91-5.67,9.04,1.16,3.36,9.27,7.37,11.82,10.49,6.12,7.47-.32,18.04-9.89,16.44-3.19-.53-6.24-3.96-8.71-5.87-6.25-4.84-14.43-10.4-20.08-15.62-4.84-4.48-3.53-12.59,1.4-16.47,10.49.55,21.07.93,31.62,1.14Z"/>
  <path class="cls-5" d="M226.09,139.5c.32-6.5,1.34-12.27-.52-18.67-2.84-9.75-9.13-14.29-18.22-17.48-.29-.1-.68-.03-.6-.44,23.67-9.13,40.42,22.44,19.34,36.58Z"/>
  <path class="cls-1" d="M165.66,241.79c-.32.55-3.79,1.66-4.61,1.79-7.43,1.14-13.87-1.79-16.46-9.06-2.07-12.07-7.58-25.08-9.4-37-.2-1.3-.14-2.58-.13-3.88.58.01,1.52-.2,1.74.49.09,11.52,4.64,23.19,12.23,31.79,4.59,5.2,10.54,9.13,15.48,13.97.41.41,1.53,1.25,1.15,1.9Z"/>
  <path class="cls-5" d="M130.3,198.39l1.78,7.73c-.8-.65-5.43-3.81-5.62-4.36-.44-1.31,3.55-3.64,3.83-3.37Z"/>
  <path class="cls-3" d="M239.37,94.63c2.76-.86,7.58,2.6,4.41,3.22-.87.17-2.39.03-3.2-.36-.89-.43-2.4-2.49-1.21-2.86Z"/>
  <circle class="cls-3" cx="233.37" cy="87.89" r="1.96"/>
  <circle class="cls-3" cx="257.92" cy="89.83" r="1.84"/>
</svg>