<?xml version="1.0" encoding="UTF-8"?>
<svg id="Layer_1" data-name="Layer 1" xmlns="http://www.w3.org/2000/svg" viewBox="0 0 209.53 305.28">
  <defs>
    <style>
      .cls-1 {
        fill: #ba443a;
      }

      .cls-2 {
        fill: #43bec5;
      }

      .cls-3 {
        fill: #9e9938;
      }

      .cls-4 {
        fill: #ba443b;
      }
    </style>
  </defs>
  <path class="cls-2" d="M94.69,0l7.61,1.62c7.91,2.36,15.04,7.25,19.77,14.04,23.95,42.83,47.34,86,70.95,129.03,8.89,19.5.72,41.52-18.03,51.13,0,.35,3.74,4.8,4.33,5.5,7.3,8.77,15.25,17.45,22.28,26.39,4.1,5.21,6.29,9.98,7.36,16.62.22,1.38.23,2.78.56,4.12-.02.56.03,1.12,0,1.68-.69,12.38-7.12,21.88-18.3,27.14-16.62,7.83-33.41,15.36-50.11,23.01-2.49,1.14-4.36,2.46-7.05,3.26-9.27,2.72-19.45.99-27.12-4.87-5.62-4.3-9.58-10.67-11.08-17.57-2.9.02-5.83.07-8.73.2-8.61.37-17.23,1.14-25.88,1.21-28.33.24-35.09-37.66-10.19-47.84,6.29-2.57,14.65-1.96,21.46-2.27,1.93-.09,3.9-.44,5.86-.25.01-.19,0-.38-.02-.57-.2-1.9-4.04-13.84-4.96-15.66-1.42-2.82-6.66-6.55-7.76-10.22l-11.72-24.38c-26.43,5.32-49.56-18.13-43.74-44.61,1.7-7.73,6.08-15.16,12.25-20.14l.08-.32c-6.79-14.09-13.77-28.1-20.29-42.31-5.87-16.3,1.46-33.67,15.45-42.94C36.18,22.24,54.85,11.53,73.67,3.55c3.88-1.64,8.9-3.24,13.11-3.55h7.91ZM62.09,178.42c-.17.19,1.68,4.07,1.95,4.64,2.84,6.06,6,13.29,9.27,19.02,8.2,14.37,26.59,20.24,41.67,13.31,18.15-9.38,37.2-17.26,55.3-26.69,15.38-8.02,22.46-24.2,14.98-40.58-23.7-42.97-46.86-86.26-71.04-128.94-8.18-10.16-22.87-13.42-34.94-8.81-1.96.75-3.87,1.73-5.78,2.61-16.66,7.66-32.93,16.28-49.54,24.06-12.63,7.18-19.57,23.08-12.67,36.66l18.2,37.79c3.53-1.26,6.74-2.62,10.49-3.27,37.7-6.5,59.43,41.32,30.25,65.28-2.36,1.93-5.3,3.9-8.15,4.92ZM75.32,144.84c0-15.92-12.9-28.82-28.81-28.82s-28.81,12.9-28.81,28.82,12.9,28.82,28.81,28.82,28.81-12.9,28.81-28.82ZM177.54,212.08c-2.57-3.05-5.22-6.06-7.81-9.09-.65-.76-1.66-2.45-2.29-2.99-.23-.19-.37-.32-.69-.25l-39.12,18.95c-.22.35.1.68.27.95,2.43,3.69,6.61,7.62,9.45,11.17s4.66,6.5,2.74,11.13c-1.69,4.08-10.38,6.79-14.34,8.68-8.72,4.17-16.69,6.61-20.64,16.29-5.47,13.39,5.19,29.72,19.66,29.5,6.38-.1,7.9-1.6,13.21-4.05,16.79-7.78,33.81-15.15,50.51-23.09,14.11-6.7,15.83-23.83,6.97-35.68-5.35-7.14-12.12-14.6-17.93-21.51ZM119.14,222.79c-10.91,4.94-23.55,5.17-34.51.24-.26.35.96,3.16,1.13,3.79,1.1,4,2.02,7.76-1.24,11.09-1.55,1.58-4.07,2.42-6.24,2.63-6.8.66-18.51-.49-24.3,2.07-10.66,4.7-13.44,18.99-4.83,27.08,6.7,6.29,13.4,4.27,21.7,3.94,5.12-.2,10.25-.47,15.34-.72,3.07-.15,6.17-.17,9.24-.23.56-9.87,6.53-19.26,15.18-24.02l14.26-6.71-5.72-19.15Z"/>
  <path class="cls-3" d="M62.09,178.42c2.85-1.02,5.8-2.98,8.15-4.92,29.17-23.95,7.45-71.77-30.25-65.28-3.74.64-6.96,2.01-10.49,3.27l-18.2-37.79c-6.9-13.59.03-29.48,12.67-36.66,16.61-7.78,32.88-16.4,49.54-24.06,1.91-.88,3.82-1.86,5.78-2.61,12.08-4.61,26.76-1.35,34.94,8.81,24.18,42.68,47.35,85.97,71.04,128.94,7.47,16.38.39,32.56-14.98,40.58-18.1,9.44-37.15,17.31-55.3,26.69-15.09,6.93-33.47,1.06-41.67-13.31-3.27-5.73-6.44-12.96-9.27-19.02-.27-.57-2.12-4.45-1.95-4.64Z"/>
  <path class="cls-1" d="M177.54,212.08c5.81,6.92,12.59,14.37,17.93,21.51,8.87,11.85,7.14,28.97-6.97,35.68-16.7,7.94-33.73,15.31-50.51,23.09-5.3,2.46-6.83,3.96-13.21,4.05-14.47.22-25.13-16.11-19.66-29.5,3.95-9.67,11.92-12.11,20.64-16.29,3.95-1.89,12.65-4.6,14.34-8.68,1.91-4.62.05-7.62-2.74-11.13s-7.01-7.48-9.45-11.17c-.17-.27-.5-.6-.27-.95l39.12-18.95c.32-.07.47.05.69.25.63.54,1.64,2.23,2.29,2.99,2.59,3.03,5.25,6.04,7.81,9.09Z"/>
  <ellipse class="cls-1" cx="46.51" cy="144.84" rx="28.81" ry="28.82"/>
  <path class="cls-4" d="M119.14,222.79l5.72,19.15-14.26,6.71c-8.65,4.76-14.62,14.16-15.18,24.02-3.07.06-6.17.08-9.24.23-5.1.24-10.22.52-15.34.72-8.3.33-15,2.35-21.7-3.94-8.6-8.09-5.83-22.38,4.83-27.08,5.8-2.56,17.5-1.41,24.3-2.07,2.17-.21,4.69-1.05,6.24-2.63,3.26-3.33,2.34-7.09,1.24-11.09-.17-.63-1.38-3.44-1.13-3.79,10.96,4.93,23.6,4.7,34.51-.24Z"/>
</svg>