<?xml version="1.0" encoding="UTF-8"?>
<svg id="Layer_1" data-name="Layer 1" xmlns="http://www.w3.org/2000/svg" viewBox="0 0 445.72 124.59">
  <defs>
    <style>
      .cls-1 {
        fill: #ae5244;
      }

      .cls-2 {
        fill: #4ea579;
      }

      .cls-3 {
        fill: #4ea478;
      }

      .cls-4 {
        fill: #447ab2;
      }

      .cls-5 {
        fill: #43bec6;
      }

      .cls-6 {
        fill: #b9453b;
      }

      .cls-7 {
        fill: #7c79b9;
      }

      .cls-8 {
        fill: #8465ac;
      }

      .cls-9 {
        fill: #b96e9f;
      }

      .cls-10 {
        fill: #b7bc99;
      }

      .cls-11 {
        fill: #9e9938;
      }

      .cls-12 {
        fill: #b8bc99;
      }

      .cls-13 {
        fill: #ba443b;
      }

      .cls-14 {
        fill: #68873a;
      }
    </style>
  </defs>
  <path class="cls-13" d="M419.77,0c2.23.45,4.47.82,6.63,1.57,1.37.47,3.05,1.14,4.19,2.03-3.63-2-8.28-3.03-12.52-3.43H27.67c-1.37.27-2.87.2-4.23.37l2.34-.54h393.98Z"/>
  <rect class="cls-13" x=".01" y="27.01" width=".18" height="70.4"/>
  <path class="cls-1" d="M23.44.54C10.07,4.19,1.7,12.79.19,27.01H.01c.03-.41-.04-.85,0-1.26C1.09,13.9,11.41,2.03,23.44.54Z"/>
  <path class="cls-1" d="M.19,97.4c1.17,14.58,12.27,25.65,26.85,26.83v.18c-11.89-.61-22.31-8.94-25.82-20.21L.01,98.66v-1.26h.18Z"/>
  <path class="cls-5" d="M433.83,5.76c.25,8.87-.19,17.78,0,26.65h-20.73v16.11c0,.17,1.42,2.51,1.65,3.03,4.18,9.23,3.28,18.72-1.66,27.39.02,7.92,0,15.88,0,23.76,0,5.01.02,10.03,0,15.04h-20.19v-10.44l-11.65-4.14c-.41-.02-1.54,1.03-2.07,1.33-1.55.91-3.21,1.53-5.03,1.55l2.34,11.7h-21.09l-1.64-9.52c-4.5.32-8.91-1.44-11.48-5.18-.28-.41-.5-1.46-1.02-1.51l-13.21,4.54-2.11,11.67h-20.46l3.96-18.72c-3.81,1.03-7.5-.11-10.72-2.16-2.98,8.73-7.99,18.42-17.35,21.56-6.62,2.23-16.08,1.64-22.34-1.54-7.25-3.69-11.01-10.75-14.24-17.87-2.51.11-1.78.22-2.09,2.03-.47,2.79-2.16,5.31-4.51,6.83l-10.22,5.55v4.32c-2.28.25-5.29-.34-7.47,0-.95.15-2.51,1.27-3.97,1.43-4.79.52-9.64-2.39-10.88-7.1-1.95-.11-4.12.35-6.1.66l-.76,5h-15.14s-.9-7.02-.9-7.02c-1.73.66-3.42.22-5.13.17-2.2-.07-4.39-.12-6.59-.17v7.02h-16.58v-8.73c-4.39-2.62-6.2-7.55-5.14-12.51s4.39-11.29,5.09-16.16c.06-.44.06-.87.05-1.3-1.19-.19-.82.25-1.17,1.08-.24.55-.55,1.15-.84,1.68-2.58,4.69-6.21,9.17-8.79,13.91-.06.35,0,.68.04,1.03.77,6.43,3.46,13.56,4.41,20.08.05.32.07.63.05.94h-21.09l-2.97-17.29c-.48-1.93-1.01-1.39-2.8-1.43.31,4.23-2.34,8.45-6.24,10.06-2.46,1.01-5.4.94-7.97,1.67.41,5.21-1.68,10.3-6.83,12.17-3.16,1.15-6.6.38-9.87.23-5.1-.23-10.64-.23-15.68-.72-5.81-.57-10.07-7.02-8.56-12.6-.73.37-2.41.53-2.98.89-.46.29-1.93,2.36-2.6,2.99-.93.88-2.36,1.67-3.18,2.49-1.31,1.3-1.6,2.36-3.48,3.45-3.69,2.14-6.41,1.33-10.36,1.16-5.34-.23-11.12-.22-16.41-.71-6.86-.65-10.8-7.3-8.75-13.78.14-.44.72-1.26.69-1.58-.04-.48-1.64-3.2-1.97-3.96-2.83-6.41-4.68-13.1-5.71-20.05C7.77,56.13,8.78.3,45.35,2.51c14.94.9,21.54,12.51,25.4,25.39.81,2.69,1.85,6.21,2.2,8.96.21,1.64-.09.89-1.16,1.44-.66.34.54,1.53.77,2.02.83,1.75,1.33,3.73,1.16,5.68-.13,1.51-.88,2.78-.36,4.41.95-.4,2.79-.29,3.6-.63.27-.12,1-1.05,1.36-1.34,4.35-3.52,9.37-5.65,15.03-5.96l8.42-37.95,21.97.15,10.18,47.17,1.03-4.1c2.66-8.85,10.32-15.72,19.51-17.15V4.5h26.67l2.8,19.27c5.06-2.49,9.5-6.5,15.59-5.76l1.98-13.5h26.49v30.43c4.25-2.6,8.7-1.67,13.34-1.08,2.81-13.97,10.8-29.14,26.43-31.12,20.68-2.62,29.01,13.22,32.96,30.58.15.66,1.02,4.39.79,4.67l-12.24,4.52c-.19.26,1.43,1.66,1.7,1.99,1,1.27,2.63,4.8,2.63,6.38v2.79l28.31-12.32,7.92-36.38.29-.43,21.97.15,4.94,22.61c4.4,3.78,6.69,8.96,5.11,14.8-.19.71-1.27,2.84-1.26,3.16,0,.47.46,2.04.62,2.6.47,1.6,1.3,3.09,1.67,4.72.41.07.29-.02.4-.23.59-1.06,1.01-2.25,1.68-3.36,5.73-9.46,16.6-14.68,27.65-13.34v-3.24h-20.55V4.5c19.56.06,39.12-.08,58.69.01.33,0,.58-.19.61-.19.54,0,1.47.37,2.16.18,0,.42-.01.84,0,1.26ZM196.42,24.35c-.9.14-2.29.93-3.14,1.37-5.42,2.82-10.68,6.41-16.08,9.32-3.08,2.61-3.74,4.84-1.85,8.48,2.1,4.04,4.72,7.84,6.88,11.86.4.25,2.02-.24,2.62-.27,10.76-.68,17,10.91,11.05,19.86-.42.63-1.44,1.29-1.16,2.11,3.13,4.64,4.51,11.06,11.53,10.24,1.09-.13,2.15-.72,3.11-1.21,6.15-3.14,12.14-7.28,18.25-10.58,2.36-1.96,3.28-5.08,2.03-7.94l-26.27-40.55c-1.77-2.26-4.12-3.11-6.97-2.67ZM45.43,28.99c-9.03-1.56-12.77,8.72-14,15.8-.66,3.77-.9,7.73-.95,11.56l7.61-20.57c.81-2.57,2.59-4.59,4.93-5.87l2.41-.92ZM282.61,39.97c-1.26-6.8-7.41-14.18-14.9-9.93-2.65,1.5-4.1,4.17-5.46,6.79l20.36,3.15ZM355.96,36.37c-1-4.35-6.23-6.31-10.09-4.32l3.42.63c2.57.56,4.7,2.03,6.66,3.69ZM116.26,55.45l-3.96-21.24-2.32,13.74c1.88,1.62,3.59,3.42,4.99,5.47l1.29,2.04ZM61.83,39.79l-12.93-4.64c-4.07-.64-4.59,1.94-5.77,4.95-4.42,11.32-8.17,22.92-12.58,34.24-.61,3.39,1.14,5.2,4.02,6.45,5.02,2.17,10.62,3.6,15.68,5.76,3,.56,5.08-1.2,5.87-3.96l5.72-18.5c-8.15.14-14.12-7.35-11.98-15.3,1.18-4.38,4.83-7.66,9.24-8.59l2.74-.41ZM167.96,39.1c-9.17-5.55-21.22-1.88-25.9,7.65-7.64,15.55,8.83,32.13,24.43,24.59,1.91-.92,5.86-3.74,6.8-5.63.47-.94.63-2.4,1.16-3.53.49-1.05,2.24-2.97,2.14-3.9l-7.73-13.67c-.74-1.75-.93-3.62-.9-5.5ZM351.4,40.75c-2.06-2.06-5-2.84-7.78-1.87l-47.07,20.31c-3.33,1.57-4.67,5.15-4.12,8.69,2.6,6.51,4.55,13.78,7.4,20.15,1.51,3.38,4.14,5.55,8.06,5.01,15.34-6.13,31.17-11.12,46.5-17.29,5.13-2.07,7.89-5.02,6.72-10.95-3.1-6.8-4.86-15.32-8.18-21.9-.35-.7-.99-1.61-1.54-2.15ZM274.86,78.14c2.4.1,4.07.63,6.25-.68,1.65-1,2.75-2.77,3.36-4.57.52-6.34,2.5-13.21,2.83-19.5.2-3.82-1.33-6.48-5.2-7.25-15.05-3-31.12-3.87-46.27-6.71-7.4-.5-8.81,5.75-9.25,11.75,2.39,4.12,5.43,7.9,7.8,12.03,2.1,3.67,2.76,7.21,1.37,11.33l21.63,1.98-1.89-3.24c-4.38-10.67,6.36-21.17,16.97-16.23,8.34,3.88,9.48,15.41,2.4,21.09ZM394.22,49.61c0-3.26-2.64-5.9-5.91-5.9s-5.91,2.64-5.91,5.9,2.64,5.9,5.91,5.9,5.91-2.64,5.91-5.9ZM376.69,45.91c-.18-.19-2.18,1.56-2.44,1.79-11.3,10.69-8.04,29.16,5.92,35.68,18.16,8.49,37.34-10.47,29.11-28.72-1.97-4.36-5.56-8.31-9.89-10.38.19,1.04.65,1.97.85,3.02,1.69,9.11-6.79,16.62-15.67,13.85-6.37-1.99-9.83-8.91-7.89-15.25ZM67.3,52.03c0-3.22-2.61-5.82-5.83-5.82s-5.83,2.61-5.83,5.82,2.61,5.82,5.83,5.82,5.83-2.61,5.83-5.82ZM92.61,48.84c-8.52.65-16.01,8.26-16.54,16.78-.92,14.86,14.45,24.83,27.58,17.47,1.12-.63,4.44-2.98,4.78-4.13.16-.54.04-1.29.17-1.91.54-2.71,2.05-4.6,4.03-6.42,1.99-12.33-7.5-22.75-20.01-21.79ZM192.02,67.61c0-3.46-2.81-6.27-6.28-6.27s-6.28,2.81-6.28,6.27,2.81,6.27,6.28,6.27,6.28-2.81,6.28-6.27ZM273.31,68.33c0-3.47-2.81-6.28-6.28-6.28s-6.28,2.81-6.28,6.28,2.81,6.28,6.28,6.28,6.28-2.81,6.28-6.28ZM73.73,80.66c-.38,2.91-.86,5.81-1.5,8.68-.39,1.76-1.63,5.07-1.74,6.56-.07.95.79,2.77.89,3.94s-.12,2.21-.18,3.33c1.32-.66,2.77-1.12,4.26-1.24,1.74-.13,3.4.42,5.03-.02l2.42-12.71c0-.37-2.18-1.51-2.65-1.84-2.38-1.69-4.96-4.24-6.54-6.7-1.31-2.03-2.33-4.49-3.01-6.8-.29-.96-.46-2.77-.81-3.51-.38-.79-2.16-2.07-2.66-3.01l-2.51,8.52,8.99,4.8ZM147.59,76.72c-.05-.08-1.35-.6-1.65-.78-.75-.46-1.55-1-2.27-1.51-1.46-1.03-1.49-2.15-2.98-.24-2.73,3.48-4.03,9.35-9.39,9.54-4.74.16-7.01-4.95-10.08-7.57-3.3-2.82-7.71.65-6.26,4.27.19.47.67,1.03,1,1.43,2.06,2.49,4.82,5.03,7.06,7.44,2.11,2.27,4.21,4.99,6.39,7.12,2.47,2.42,5.27,1.23,7.1-1.19,4.02-5.31,7.32-12.18,11.06-17.76.05-.21.12-.57.01-.74ZM177.67,77.11c-1.02-.18-2.63-3.4-3.01-3.57-.21-.09-.48.25-.52.4-.04.17,1.15,2.64,1.3,3.32,1.08,4.68-1.7,8.64-2.58,13.11l6.85.18c-.63-4.48-1.21-9.03-2.04-13.45ZM183.06,103.28c1.91-2.63.21-6.03-2.92-6.39-4.15-.48-10.66.98-12.84-3.74-2.03-4.41,1.57-8.61,2.12-12.77.09-.69-.08-2.67-.7-3.06-.16-.1-2.87.99-3.39,1.13-1.3.36-2.64.57-3.97.81l-5.94,18.64c-.43,2.75.4,5.28,3.31,5.97,6.26.24,12.49.53,18.74.73,2.03.06,4.12.72,5.6-1.32ZM238.64,83.18c-.29-.55-.73-2.23-1.35-2.34-2.45.22-5.35-1.35-7.3.64-.05.19,2.42,2.7,2.65,2.76.92.24,4.75-1.12,6-1.06ZM358.67,80.84l-9.43,3.45-.28.26-2.02,11.49c-.5,4.04,2.48,6.02,6.22,5.86,6.68-.29,13.62-1.74,20.35-2,6.23-.46,5.85-9.21-.53-8.99-4,.14-9.91,2.29-13.16-.88-2.52-2.47-1.83-6.1-1.16-9.19ZM239.46,91.36c.43.48,1.43,1.91,1.96,1.92l9.16-1.68c1.34-.52,2.5-1.68,2.08-3.24l-2.94-6.06c-.6-.65-4.09-.45-5.13-.73.87,2.57-.67,6.06-3.2,7.15-.49.21-3.47.77-3.46,1.04.52.52,1.05,1.06,1.54,1.61ZM370.92,84.98c.09-.35-.15-.35-.3-.51-.42-.42-1.05-.88-1.5-1.29.04.27.31,1.72.38,1.78.14.12,1.12-.04,1.42.02ZM273.78,84.26l-8.65-.63-5.81,8.42c-.76,2.59,1.26,4.52,3.42,5.49,5.86,2.62,12.66,4.23,18.6,6.8,4.85.83,6.79-5.22,2.12-7.33-2.69-1.21-7.31-1.97-9.32-4.01-1.8-1.82-2.11-4.7-1.26-7.04.24-.66.75-1.05.91-1.7ZM281.71,84.26c-.46-.1-.32.12-.47.34-.52.74-1.06,1.49-1.56,2.23-.21.32-1.25,1.69-1.04,1.93.04.04,1.02.2,1.07.17.15-.1,1.39-2.84,1.54-3.23.09-.22.51-1.37.45-1.44ZM227.35,87.98c-.47-.48-2.75-3.19-3.18-3.15l-6.43,3.57c-.07.27.07.3.18.45,1.88,2.72,4.64,3.5,5.03,7.4.59,5.93-5.93,7-9.59,9.64-4.14,2.99-.65,8.21,3.35,6.76,5.52-3.39,11.5-6.09,17.02-9.46,1.92-1.18,3.04-1.94,2.76-4.44-.21-1.94-2.12-3.66-3.42-5.04-1.84-1.96-3.83-3.81-5.71-5.73ZM109.95,86.6l-7.19,3.9,2.87,14.11c4.53-.86,10.65-.41,9.29-7.03-1.64-3.66-3.52-7.26-4.96-10.98ZM61.47,86.78c-.43-.1-.29.08-.4.23-.73,1.06-1.22,2.09-2.21,3.01-.45.42-2.23,1.45-2.34,1.62-.12.18-.58,2.18-.6,2.48l2.23,10.31c1.65-.22,4.06.46,5.46-.47s1.68-2.8,1.37-4.41l-3.53-12.77ZM339,88.24c-4,1.31-8.03,2.75-11.96,4.29-.5.2-.87.62-1.35.81-1.9.75-7.73,2.36-8.73,3.71-1.89,2.55.55,5.84,3.55,5.17l18.58-6.65c3.07-2.09,1.52-4.89-.09-7.33ZM49.19,92.56c-2.97-.56-5.72-2.06-8.63-2.9.02.62-.04,1.25.02,1.87.42,4.04,3.3,8.76.31,12.41-3.15,3.85-9.18,1.5-13.4,1.91-3.56.35-4.63,5.34-1.58,7.36,1.43.95,5.33.64,7.19.74,4.98.28,10.17.81,15.13.92,2.98.07,4.67-2.33,4.6-5.14l-3.63-17.18ZM393.96,91.32c-.26-.15-2.58.3-3.12.32-2.46.11-4.87-.2-7.3-.54.5,2.16,1.02,4.23.55,6.46l18.32,6.63c3.23.65,5.84-2.97,3.98-5.78-1.73-2.6-8.41-2.95-11.06-5.34-.41-.37-1.29-1.71-1.38-1.77ZM88.68,91.28c.04.79-.07,1.62.02,2.41.46,4.16,3.51,9.42-.01,12.99-1.82,1.85-4.49,1.94-6.95,1.89-1.8-.03-4.2-.53-5.95-.37-3.93.35-4.95,5.57-1.59,7.54,1.16.68,4.46.47,5.93.56,4.5.28,8.99.55,13.51.73,1.79.07,3.69.67,5.31-.46,1.92-1.35,1.97-3.41,1.79-5.55l-4.03-19.02-8.02-.72ZM204.39,93.62c.12,1.14.44,1.89.28,3.07-.9,6.48-7.41,5.5-12.31,6.43-2.22,1.24-1.34,4.1,1.13,4.02l12.35-1.53c.71-1.92,2.09-3.55,3.72-4.75.4-.3,1.66-.77,1.68-1.19l-2.51-6.32c-.51-.35-3.48.58-4.33.28Z"/>
  <path class="cls-3" d="M23.44.54c1.36-.17,2.85-.1,4.23-.37h390.39c4.24.39,8.89,1.43,12.52,3.43.34.18.77.48,1.08.72-.03,0-.28.19-.61.19-19.56-.09-39.13.04-58.69-.01v27.91h20.55v3.24c-11.05-1.34-21.92,3.87-27.65,13.34-.67,1.11-1.1,2.3-1.68,3.36-.11.21.01.3-.4.23-.37-1.63-1.2-3.13-1.67-4.72-.16-.56-.62-2.13-.62-2.6,0-.32,1.07-2.44,1.26-3.16,1.58-5.85-.7-11.03-5.11-14.8l-4.94-22.61-21.97-.15-.29.43-7.92,36.38-28.31,12.32v-2.79c0-1.58-1.63-5.1-2.63-6.38-.27-.34-1.89-1.73-1.7-1.99l12.24-4.52c.23-.27-.64-4.01-.79-4.67-3.95-17.37-12.28-33.2-32.96-30.58-15.63,1.98-23.61,17.16-26.43,31.12-4.63-.59-9.08-1.51-13.34,1.08V4.5h-26.49l-1.98,13.5c-6.08-.73-10.53,3.27-15.59,5.76l-2.8-19.27h-26.67v26.11c-9.19,1.43-16.85,8.3-19.51,17.15l-1.03,4.1-10.18-47.17-21.97-.15-8.42,37.95c-5.66.32-10.67,2.44-15.03,5.96-.36.29-1.09,1.23-1.36,1.34-.81.34-2.65.24-3.6.63-.52-1.63.23-2.91.36-4.41.17-1.95-.33-3.93-1.16-5.68-.23-.49-1.43-1.68-.77-2.02,1.07-.55,1.37.2,1.16-1.44-.35-2.75-1.4-6.27-2.2-8.96-3.87-12.88-10.46-24.49-25.4-25.39C8.78.3,7.77,56.13,11.4,80.72c1.02,6.95,2.88,13.63,5.71,20.05.33.76,1.93,3.48,1.97,3.96.03.33-.55,1.14-.69,1.58-2.05,6.48,1.89,13.13,8.75,13.78,5.28.5,11.07.48,16.41.71,3.95.17,6.67.98,10.36-1.16,1.88-1.09,2.17-2.15,3.48-3.45.83-.82,2.25-1.61,3.18-2.49.66-.63,2.14-2.7,2.6-2.99.57-.36,2.26-.52,2.98-.89-1.51,5.58,2.76,12.03,8.56,12.6,5.04.49,10.57.49,15.68.72,3.27.15,6.71.92,9.87-.23,5.15-1.87,7.24-6.96,6.83-12.17,2.57-.73,5.51-.66,7.97-1.67,3.91-1.61,6.55-5.83,6.24-10.06,1.79.05,2.32-.49,2.8,1.43l2.97,17.29h21.09c.02-.32,0-.63-.05-.94-.95-6.51-3.64-13.65-4.41-20.08-.04-.34-.1-.68-.04-1.03,2.58-4.74,6.2-9.22,8.79-13.91.29-.53.61-1.13.84-1.68.36-.83-.02-1.27,1.17-1.08.02.44.02.87-.05,1.3-.7,4.87-4.01,11.11-5.09,16.16s.74,9.9,5.14,12.51v8.73h16.58v-7.02c2.19.06,4.39.11,6.59.17,1.71.05,3.39.49,5.13-.17l.9,7.02h15.14s.76-5,.76-5c1.98-.3,4.15-.77,6.1-.66,1.25,4.71,6.1,7.61,10.88,7.1,1.46-.16,3.03-1.28,3.97-1.43,2.18-.35,5.19.24,7.47,0v-4.32l10.22-5.55c2.35-1.53,4.05-4.04,4.51-6.83.31-1.82-.42-1.92,2.09-2.03,3.22,7.12,6.98,14.18,14.24,17.87,6.26,3.18,15.71,3.77,22.34,1.54,9.35-3.14,14.36-12.83,17.35-21.56,3.22,2.05,6.91,3.2,10.72,2.16l-3.96,18.72h20.46l2.11-11.67,13.21-4.54c.52.05.74,1.09,1.02,1.51,2.57,3.74,6.99,5.5,11.48,5.18l1.64,9.52h21.09l-2.34-11.7c1.82-.01,3.48-.64,5.03-1.55.52-.31,1.66-1.35,2.07-1.33l11.65,4.14v10.44h20.19c.01-5.01-.01-10.03,0-15.04.01-7.88.02-15.84,0-23.76,4.94-8.68,5.84-18.17,1.66-27.39-.23-.52-1.65-2.86-1.65-3.03v-16.11h20.73c-.19-8.87.25-17.78,0-26.65.43.28.87.57,1.26.9,1.97,1.67,3.88,4.02,5.41,5.94,2.79,4.52,4.51,9.44,4.86,14.86v70.12c-1.27,14.51-12.35,25.47-26.85,26.65H27.05c-14.59-1.18-25.69-12.25-26.85-26.83V27.01C1.7,12.79,10.07,4.19,23.44.54Z"/>
  <rect class="cls-13" x="27.05" y="124.23" width="391.46" height=".18"/>
  <path class="cls-6" d="M445.54,97.58h-.18V27.46c-.36-5.41-2.07-10.33-4.87-14.86,3.06,3.86,4.41,8.78,5.04,13.6v71.38Z"/>
  <path class="cls-1" d="M445.54,97.58c-.87,14.27-12.7,26.1-27.03,26.83v-.18c14.51-1.17,25.58-12.14,26.85-26.65h.18Z"/>
  <path class="cls-1" d="M440.49,12.6c-1.53-1.93-3.44-4.27-5.41-5.94.36.01.5.24.72.45,1.83,1.65,3.4,3.42,4.68,5.5Z"/>
  <path class="cls-9" d="M351.4,40.75c.55.54,1.19,1.46,1.54,2.15,3.31,6.58,5.08,15.1,8.18,21.9,1.16,5.92-1.59,8.88-6.72,10.95-15.32,6.16-31.15,11.16-46.5,17.29-3.92.54-6.55-1.63-8.06-5.01-2.85-6.37-4.8-13.64-7.4-20.15-.55-3.54.79-7.12,4.12-8.69l47.07-20.31c2.78-.97,5.72-.19,7.78,1.87Z"/>
  <path class="cls-11" d="M196.42,24.35c2.85-.44,5.21.41,6.97,2.67l26.27,40.55c1.24,2.86.33,5.98-2.03,7.94-6.1,3.29-12.1,7.44-18.25,10.58-.96.49-2.03,1.08-3.11,1.21-7.02.83-8.4-5.6-11.53-10.24-.29-.82.74-1.48,1.16-2.11,5.95-8.95-.29-20.54-11.05-19.86-.6.04-2.22.52-2.62.27-2.16-4.01-4.77-7.82-6.88-11.86-1.89-3.64-1.23-5.87,1.85-8.48,5.4-2.91,10.66-6.5,16.08-9.32.84-.44,2.24-1.23,3.14-1.37Z"/>
  <path class="cls-14" d="M274.86,78.14c7.08-5.69,5.93-17.21-2.4-21.09-10.6-4.94-21.35,5.56-16.97,16.23l1.89,3.24-21.63-1.98c1.39-4.11.74-7.66-1.37-11.33-2.37-4.13-5.41-7.91-7.8-12.03.44-6,1.86-12.24,9.25-11.75,15.14,2.84,31.22,3.72,46.27,6.71,3.87.77,5.4,3.43,5.2,7.25-.33,6.28-2.31,13.15-2.83,19.5-.61,1.8-1.71,3.57-3.36,4.57-2.19,1.32-3.85.78-6.25.68Z"/>
  <path class="cls-13" d="M376.69,45.91c-1.93,6.34,1.52,13.26,7.89,15.25,8.87,2.77,17.35-4.74,15.67-13.85-.19-1.05-.66-1.98-.85-3.02,4.33,2.07,7.92,6.01,9.89,10.38,8.22,18.25-10.96,37.21-29.11,28.72-13.96-6.53-17.22-24.99-5.92-35.68.25-.24,2.25-1.98,2.44-1.79Z"/>
  <path class="cls-8" d="M92.61,48.84c12.5-.96,22,9.45,20.01,21.79-1.98,1.82-3.49,3.71-4.03,6.42-.12.62-.01,1.37-.17,1.91-.34,1.15-3.65,3.5-4.78,4.13-13.13,7.36-28.5-2.6-27.58-17.47.53-8.52,8.03-16.13,16.54-16.78Z"/>
  <path class="cls-4" d="M61.83,39.79l-2.74.41c-4.41.93-8.06,4.22-9.24,8.59-2.14,7.95,3.83,15.44,11.98,15.3l-5.72,18.5c-.79,2.76-2.87,4.52-5.87,3.96-5.06-2.16-10.66-3.59-15.68-5.76-2.88-1.25-4.63-3.06-4.02-6.45,4.42-11.32,8.16-22.92,12.58-34.24,1.18-3.02,1.7-5.6,5.77-4.95l12.93,4.64Z"/>
  <path class="cls-7" d="M167.96,39.1c-.03,1.88.16,3.75.9,5.5l7.73,13.67c.09.93-1.65,2.85-2.14,3.9-.53,1.13-.69,2.58-1.16,3.53-.94,1.89-4.88,4.71-6.8,5.63-15.61,7.55-32.08-9.04-24.43-24.59,4.68-9.52,16.73-13.19,25.9-7.65ZM165.47,53.83c0-6.27-5.09-11.35-11.36-11.35s-11.36,5.08-11.36,11.35,5.09,11.35,11.36,11.35,11.36-5.08,11.36-11.35Z"/>
  <path class="cls-12" d="M88.68,91.28l8.02.72,4.03,19.02c.17,2.14.13,4.2-1.79,5.55-1.62,1.13-3.52.53-5.31.46-4.52-.18-9-.45-13.51-.73-1.47-.09-4.76.12-5.93-.56-3.36-1.97-2.34-7.2,1.59-7.54,1.75-.15,4.15.34,5.95.37,2.47.05,5.13-.04,6.95-1.89,3.52-3.57.47-8.83.01-12.99-.09-.79.02-1.62-.02-2.41Z"/>
  <path class="cls-12" d="M183.06,103.28c-1.49,2.04-3.57,1.38-5.6,1.32-6.24-.2-12.47-.49-18.74-.73-2.9-.7-3.74-3.22-3.31-5.97l5.94-18.64c1.33-.24,2.66-.44,3.97-.81.52-.14,3.23-1.23,3.39-1.13.62.39.79,2.37.7,3.06-.55,4.16-4.15,8.36-2.12,12.77,2.18,4.72,8.69,3.26,12.84,3.74,3.13.36,4.84,3.77,2.92,6.39Z"/>
  <path class="cls-12" d="M358.67,80.84c-.67,3.09-1.36,6.72,1.16,9.19,3.24,3.18,9.15,1.02,13.16.88,6.38-.22,6.76,8.52.53,8.99-6.73.26-13.66,1.71-20.35,2-3.75.16-6.72-1.81-6.22-5.86l2.02-11.49.28-.26,9.43-3.45Z"/>
  <path class="cls-12" d="M147.59,76.72c.1.17.03.53-.01.74-3.74,5.58-7.04,12.45-11.06,17.76-1.83,2.42-4.63,3.61-7.1,1.19-2.18-2.13-4.28-4.85-6.39-7.12-2.24-2.41-4.99-4.95-7.06-7.44-.33-.4-.82-.96-1-1.43-1.45-3.62,2.96-7.09,6.26-4.27,3.07,2.62,5.34,7.73,10.08,7.57,5.36-.18,6.67-6.05,9.39-9.54,1.49-1.9,1.52-.78,2.98.24.72.51,1.52,1.05,2.27,1.51.3.19,1.6.7,1.65.78Z"/>
  <path class="cls-12" d="M49.19,92.56l3.63,17.18c.07,2.81-1.63,5.2-4.6,5.14-4.96-.11-10.15-.64-15.13-.92-1.85-.1-5.75.21-7.19-.74-3.05-2.02-1.97-7.01,1.58-7.36,4.23-.41,10.25,1.94,13.4-1.91s.12-8.37-.31-12.41c-.07-.62,0-1.25-.02-1.87,2.91.84,5.66,2.34,8.63,2.9Z"/>
  <path class="cls-12" d="M227.35,87.98c1.88,1.92,3.88,3.77,5.71,5.73,1.3,1.38,3.2,3.1,3.42,5.04.27,2.5-.84,3.27-2.76,4.44-5.52,3.38-11.5,6.08-17.02,9.46-4,1.45-7.49-3.77-3.35-6.76,3.66-2.65,10.19-3.72,9.59-9.64-.39-3.9-3.15-4.68-5.03-7.4-.11-.15-.25-.18-.18-.45l6.43-3.57c.44-.04,2.71,2.67,3.18,3.15Z"/>
  <path class="cls-12" d="M273.78,84.26c-.16.65-.67,1.04-.91,1.7-.85,2.35-.53,5.22,1.26,7.04,2.01,2.04,6.64,2.8,9.32,4.01,4.67,2.11,2.73,8.16-2.12,7.33-5.94-2.58-12.74-4.19-18.6-6.8-2.16-.96-4.18-2.9-3.42-5.49l5.81-8.42,8.65.63Z"/>
  <path class="cls-10" d="M393.96,91.32c.1.06.97,1.4,1.38,1.77,2.65,2.39,9.33,2.73,11.06,5.34,1.86,2.81-.76,6.43-3.98,5.78l-18.32-6.63c.46-2.24-.05-4.31-.55-6.46,2.43.33,4.84.65,7.3.54.54-.02,2.86-.47,3.12-.32Z"/>
  <path class="cls-3" d="M73.73,80.66c1.58,2.46,4.16,5.01,6.54,6.7.47.33,2.64,1.47,2.65,1.84l-2.42,12.71c-1.63.44-3.29-.12-5.03.02-1.49.11-2.94.58-4.26,1.24.06-1.12.27-2.19.18-3.33s-.96-3-.89-3.94c.11-1.49,1.35-4.8,1.74-6.56.63-2.86,1.12-5.77,1.5-8.68Z"/>
  <path class="cls-10" d="M339,88.24c1.61,2.44,3.16,5.25.09,7.33l-18.58,6.65c-3,.67-5.44-2.62-3.55-5.17,1-1.34,6.82-2.95,8.73-3.71.48-.19.85-.61,1.35-.81,3.93-1.54,7.96-2.98,11.96-4.29Z"/>
  <path class="cls-12" d="M109.95,86.6c1.44,3.72,3.32,7.32,4.96,10.98,1.36,6.62-4.75,6.17-9.29,7.03l-2.87-14.11,7.19-3.9Z"/>
  <path class="cls-3" d="M282.61,39.97l-20.36-3.15c1.36-2.61,2.81-5.28,5.46-6.79,7.49-4.25,13.64,3.13,14.9,9.93Z"/>
  <ellipse class="cls-6" cx="267.02" cy="68.33" rx="6.28" ry="6.28"/>
  <ellipse class="cls-6" cx="185.74" cy="67.61" rx="6.28" ry="6.27"/>
  <path class="cls-10" d="M204.39,93.62c.85.31,3.82-.62,4.33-.28l2.51,6.32c-.01.41-1.27.89-1.68,1.19-1.63,1.2-3.01,2.83-3.72,4.75l-12.35,1.53c-2.47.08-3.35-2.78-1.13-4.02,4.9-.93,11.41.05,12.31-6.43.16-1.18-.15-1.93-.28-3.07Z"/>
  <ellipse class="cls-6" cx="388.31" cy="49.61" rx="5.91" ry="5.9"/>
  <path class="cls-10" d="M61.47,86.78l3.53,12.77c.31,1.61.08,3.44-1.37,4.41s-3.81.25-5.46.47l-2.23-10.31c.02-.3.48-2.3.6-2.48s1.89-1.2,2.34-1.62c.99-.92,1.47-1.95,2.21-3.01.11-.16-.03-.33.4-.23Z"/>
  <ellipse class="cls-6" cx="61.47" cy="52.03" rx="5.83" ry="5.82"/>
  <path class="cls-10" d="M239.46,91.36c-.49-.55-1.02-1.08-1.54-1.61,0-.26,2.98-.83,3.46-1.04,2.53-1.09,4.07-4.58,3.2-7.15,1.04.28,4.53.07,5.13.73l2.94,6.06c.42,1.56-.74,2.72-2.08,3.24l-9.16,1.68c-.52,0-1.53-1.44-1.96-1.92Z"/>
  <path class="cls-2" d="M45.43,28.99l-2.41.92c-2.35,1.29-4.12,3.3-4.93,5.87l-7.61,20.57c.05-3.83.3-7.79.95-11.56,1.23-7.08,4.97-17.36,14-15.8Z"/>
  <path class="cls-2" d="M177.67,77.11c.83,4.42,1.41,8.97,2.04,13.45l-6.85-.18c.88-4.47,3.67-8.44,2.58-13.11-.16-.68-1.35-3.15-1.3-3.32.04-.15.31-.5.52-.4.38.17,1.99,3.39,3.01,3.57Z"/>
  <path class="cls-2" d="M116.26,55.45l-1.29-2.04c-1.4-2.05-3.11-3.85-4.99-5.47l2.32-13.74,3.96,21.24Z"/>
  <path class="cls-2" d="M73.73,80.66l-8.99-4.8,2.51-8.52c.5.94,2.28,2.22,2.66,3.01.35.74.53,2.55.81,3.51.69,2.31,1.71,4.77,3.01,6.8Z"/>
  <path class="cls-2" d="M238.64,83.18c-1.24-.07-5.08,1.3-6,1.06-.23-.06-2.7-2.57-2.65-2.76,1.95-1.99,4.85-.42,7.3-.64.62.11,1.06,1.79,1.35,2.34Z"/>
  <path class="cls-6" d="M355.96,36.37c-1.97-1.66-4.1-3.14-6.66-3.69l-3.42-.63c3.86-1.99,9.09-.03,10.09,4.32Z"/>
  <path class="cls-2" d="M281.71,84.26c.06.07-.37,1.22-.45,1.44-.15.39-1.4,3.13-1.54,3.23-.04.03-1.03-.13-1.07-.17-.21-.24.83-1.61,1.04-1.93.5-.75,1.04-1.49,1.56-2.23.15-.22,0-.44.47-.34Z"/>
  <path class="cls-2" d="M370.92,84.98c-.3-.06-1.29.1-1.42-.02-.07-.06-.33-1.51-.38-1.78.45.42,1.08.87,1.5,1.29.16.16.39.15.3.51Z"/>
  <path class="cls-5" d="M165.47,53.83c0,6.27-5.09,11.35-11.36,11.35s-11.36-5.08-11.36-11.35,5.09-11.35,11.36-11.35,11.36,5.08,11.36,11.35ZM159.2,53.83c0-2.81-2.28-5.08-5.09-5.08s-5.09,2.28-5.09,5.08,2.28,5.08,5.09,5.08,5.09-2.28,5.09-5.08Z"/>
  <ellipse class="cls-6" cx="154.11" cy="53.83" rx="5.09" ry="5.08"/>
</svg>