<?xml version="1.0" encoding="UTF-8"?>
<svg id="Layer_1" data-name="Layer 1" xmlns="http://www.w3.org/2000/svg" viewBox="0 0 424.08 336.72">
  <defs>
    <style>
      .cls-1 {
        fill: #43bdc5;
      }

      .cls-2 {
        fill: #43bec6;
      }

      .cls-3 {
        fill: #ba443a;
      }

      .cls-4 {
        fill: #ba433a;
      }

      .cls-5 {
        fill: #b8bc99;
      }

      .cls-6 {
        fill: #ba443b;
      }
    </style>
  </defs>
  <path class="cls-2" d="M188.78,178.67l2.16-2.99c8.43-9.86,22.16-12.91,33.98-7.12,4.14,2.03,7.67,5.5,11.11,8.55s6.77,6.43,10.31,9.48c2.64-5.56,5.56-10.99,8.36-16.46.55-1.07.9-2.39,1.52-3.52,1.64-3,4.11-5.73,6.64-8-.83-3.52-1.9-7-2.53-10.57-10.64-60.21,45.77-110.79,104.51-93.46,46.25,13.64,71.09,64.36,53.13,109.48-10.43,26.21-33.93,45.32-61.66,50.59.24,3.89-1.14,7.33-1.95,11-1.14,5.18-2.19,10.38-3.42,15.53-.06.48,0,.3.35.35.53.07,1.95-.01,2.61-.03,14.55-.54,28.07-4.04,39.02,8.3,13.07,14.75,7.01,38.2-11.58,44.56-6.42,2.19-14.81,1.54-21.64,1.87-8.48.4-16.91.8-25.44,1.17-11.74.51-22.47,3.14-32.81-4.11-8.74-6.12-12.89-17.16-12.13-27.63,4.31-19.79,8.53-39.6,13.12-59.32.02-.43-2.49-1.83-2.84-1.64l-19.54,38.04c-9.33,15.86-30.04,21.66-44.82,9.07-8.48-7.22-16.9-15.61-25.19-23.14-5.29-4.8-10.91-9.35-16.11-14.23-3.04-2.85-5.35-6.1-7.19-9.83-5.96,13.82-18.84,23.56-33.84,25.4-.28.38.58,4.27.61,5.18-.4,7.59-2.25,15.03-3.36,22.54-.14.59.96.39,1.33.36,12.51-1.16,25.38-5.07,35.87,3.96,16.92,14.56,7.97,40.79-14.04,43.53-7.45.93-15.07,1.19-22.54,1.93-3.55.35-7.11.93-10.69,1.06-.52,3.55-1.12,6.84-2.58,10.13-6.03,13.58-20.63,20.27-35.06,16.75-1.7-.41-3.18-1.26-4.74-1.73-17.71-5.39-35.66-10.17-53.25-15.83-18.38-5.92-25.89-27.52-17.13-44.35,5.66-10.88,14.04-21.44,20.05-32.23l1.34-2.62c-.32.01-.65,0-.96-.12-10.27-3.68-21.07-5.56-29.96-12.25-15.38-11.57-21.38-32.1-14.52-50.21,18.58-47.61,35.53-95.89,54.14-143.49,2.02-5.18,3.7-10.01,7.04-14.55C74.91,3.73,93.8-2.12,110.87,1.75c21.18,7.24,43.47,12.82,64.46,20.45,21.3,7.74,34.62,28.65,27.76,51.24l-26.7,83.78c5.98,5.84,10.64,13.2,12.38,21.45ZM143.2,229.76c-29.29-3.15-46.14-35.45-31.94-61.56,10.38-19.08,33.44-26.79,53.45-18.35,1.31.55,2.7,1.54,4,2,.25.09.24.35.51-.04l26.63-83.94c3.38-15.76-6.58-30.96-21-36.81-20.37-6.31-40.53-13.54-60.97-19.62-4.31-1.28-8.71-2.67-13.27-2.58-12.99.25-25.11,6.11-31.57,17.6-20.15,52.67-40.45,105.38-59.57,158.44-2.74,14.38,3.66,28.43,15.83,36.23,4.49,2.88,9.08,4.16,14.09,5.81,19.43,6.42,39.87,13.36,59.49,18.95,7.84,2.23,13.45,2.57,21.49.73,9.28-2.13,18.03-8.68,22.83-16.86ZM415.36,133.53c0-40.82-33.09-73.91-73.92-73.91s-73.92,33.09-73.92,73.91,33.09,73.91,73.92,73.91,73.92-33.09,73.92-73.91ZM181.52,188.27c0-18.5-15-33.51-33.51-33.51s-33.51,15-33.51,33.51,15,33.51,33.51,33.51,33.51-15,33.51-33.51ZM203.8,211.61c12.06,11.08,24.19,22.61,36.54,33.38,11.43,9.96,26.02,4.52,33-7.54l19.05-37.55c-.01-.63-2.82-2.44-3.47-3-7.7-6.6-14.11-13.99-19.12-22.86-.53-.93-3.08-6.55-3.44-6.64-.49-.11-2.24,2.66-2.56,3.2-3.83,6.59-6.71,14.18-10.65,20.77-2.98,3.95-8.08,4.4-12.18,1.9-5.08-4.51-10.05-9.68-15.26-14-20.55-17.04-44.76,11.44-25.91,29.03,1.18,1.1,2.75,2.18,4,3.32ZM347.8,215.61c-8.86.6-17.79-.12-26.39-2.27-1.69-.42-3.55-.98-5.22-1.5-.88-.27-5.72-2.25-6.04-1.97l-12.49,57.18c-.81,11.23,7.62,23.18,19.56,22.93,6.33-.13,12.83-.93,19.19-1.21,12.45-.54,25.2-.43,37.65-1.45,14.41-1.18,22.46-18.35,13.89-30.19s-21.17-7.39-33.31-7.2c-2.83.04-6.1.33-8.5-1.36-3.1-2.18-3.8-5.53-3.38-9.08.58-4.96,2.37-11.18,3.47-16.19.56-2.55,1.57-5.03,1.56-7.67ZM98.82,254.46l-41.87-12.73-21.4,34.48c-5.99,10.66-3.94,24.76,6.83,31.44,4.08,2.53,9.41,3.27,14.04,4.67,14.53,4.4,29.11,8.78,43.66,13.19,1.84.56,3.56,1.5,5.51,1.93,18.08,3.99,32.64-16.18,22.83-31.94-7-11.25-22.04-11.08-33.25-15.68-5.28-2.17-6.82-7.97-4.06-12.81l7.72-12.55ZM139.14,300c1.83.29,3.59-.29,5.38-.45,9.1-.81,18.58-1.28,27.58-2.4,21.16-2.64,19.55-30.31,1.14-32.55-4.02-.49-10.98,1-15.29,1.37s-9.71,1.38-13.07-1.31c-3.06-2.45-3.23-5.45-2.85-9.09.47-4.47,1.75-8.85,2.13-13.34-9.1,9.31-22.14,14.5-35.22,13.94l-3.17,18.05c6.15,2.29,12.83,3.21,18.65,6.34,7.44,4.02,12.9,11.16,14.73,19.44Z"/>
  <path class="cls-4" d="M143.2,229.76c-4.8,8.19-13.55,14.74-22.83,16.86-8.03,1.84-13.65,1.5-21.49-.73-19.62-5.59-40.05-12.53-59.49-18.95-5.01-1.66-9.61-2.94-14.09-5.81-12.17-7.8-18.58-21.85-15.83-36.23,19.12-53.06,39.43-105.77,59.57-158.44,6.46-11.48,18.58-17.35,31.57-17.6,4.56-.09,8.96,1.3,13.27,2.58,20.44,6.08,40.6,13.3,60.97,19.62,14.42,5.84,24.37,21.05,21,36.81l-26.63,83.94c-.27.4-.26.14-.51.04-1.3-.47-2.68-1.45-4-2-20.01-8.44-43.08-.73-53.45,18.35-14.2,26.11,2.65,58.41,31.94,61.56Z"/>
  <path class="cls-3" d="M415.36,133.53c0,40.82-33.09,73.91-73.92,73.91s-73.92-33.09-73.92-73.91,33.09-73.91,73.92-73.91,73.92,33.09,73.92,73.91ZM353.91,150.6c0-21-17.03-38.03-38.03-38.03s-38.03,17.03-38.03,38.03,17.03,38.03,38.03,38.03,38.03-17.03,38.03-38.03Z"/>
  <path class="cls-5" d="M98.82,254.46l-7.72,12.55c-2.76,4.85-1.23,10.65,4.06,12.81,11.21,4.6,26.25,4.43,33.25,15.68,9.81,15.76-4.75,35.94-22.83,31.94-1.95-.43-3.67-1.37-5.51-1.93-14.54-4.41-29.13-8.79-43.66-13.19-4.62-1.4-9.95-2.14-14.04-4.67-10.77-6.68-12.82-20.79-6.83-31.44l21.4-34.48,41.87,12.73Z"/>
  <path class="cls-5" d="M347.8,215.61c0,2.64-1,5.13-1.56,7.67-1.11,5.02-2.89,11.23-3.47,16.19-.42,3.55.28,6.9,3.38,9.08,2.4,1.69,5.67,1.4,8.5,1.36,12.14-.18,24.91-4.4,33.31,7.2s.52,29.01-13.89,30.19c-12.45,1.02-25.2.91-37.65,1.45-6.36.28-12.86,1.08-19.19,1.21-11.94.25-20.37-11.7-19.56-22.93l12.49-57.18c.32-.28,5.17,1.7,6.04,1.97,1.67.52,3.53,1.07,5.22,1.5,8.6,2.15,17.53,2.88,26.39,2.27Z"/>
  <path class="cls-5" d="M203.8,211.61c-1.24-1.14-2.82-2.22-4-3.32-18.85-17.59,5.36-46.07,25.91-29.03,5.21,4.32,10.18,9.49,15.26,14,4.1,2.5,9.2,2.05,12.18-1.9,3.94-6.59,6.82-14.18,10.65-20.77.31-.54,2.07-3.31,2.56-3.2.36.09,2.91,5.7,3.44,6.64,5,8.87,11.41,16.26,19.12,22.86.65.56,3.45,2.37,3.47,3l-19.05,37.55c-6.98,12.07-21.57,17.51-33,7.54-12.35-10.77-24.47-22.29-36.54-33.38Z"/>
  <ellipse class="cls-6" cx="148.01" cy="188.27" rx="33.51" ry="33.51"/>
  <path class="cls-5" d="M139.14,300c-1.83-8.29-7.29-15.43-14.73-19.44-5.81-3.14-12.5-4.06-18.65-6.34l3.17-18.05c13.08.56,26.12-4.63,35.22-13.94-.38,4.49-1.65,8.87-2.13,13.34-.38,3.63-.21,6.64,2.85,9.09,3.37,2.69,8.98,1.66,13.07,1.31,4.31-.36,11.26-1.86,15.29-1.37,18.41,2.23,20.02,29.91-1.14,32.55-9,1.12-18.48,1.59-27.58,2.4-1.78.16-3.55.75-5.38.45Z"/>
  <path class="cls-1" d="M353.91,150.6c0,21-17.03,38.03-38.03,38.03s-38.03-17.03-38.03-38.03,17.03-38.03,38.03-38.03,38.03,17.03,38.03,38.03ZM345.53,150.6c0-16.37-13.27-29.64-29.65-29.64s-29.65,13.27-29.65,29.64,13.27,29.64,29.65,29.64,29.65-13.27,29.65-29.64Z"/>
  <ellipse class="cls-6" cx="315.88" cy="150.6" rx="29.65" ry="29.64"/>
</svg>