<?xml version="1.0" encoding="UTF-8"?>
<svg id="Layer_1" data-name="Layer 1" xmlns="http://www.w3.org/2000/svg" viewBox="0 0 227.83 241.44">
  <defs>
    <style>
      .cls-1 {
        fill: #43bec6;
      }

      .cls-2 {
        fill: #ba443a;
      }

      .cls-3 {
        fill: #ba433a;
      }

      .cls-4 {
        fill: #43bec5;
      }

      .cls-5 {
        fill: #68873a;
      }
    </style>
  </defs>
  <path class="cls-1" d="M58.02,0l10.31,2.03c42.16,9.82,84.68,18.18,126.83,28.05,3.32.78,6.69,1.38,9.89,2.58,10.74,4.04,18.65,13.5,21.5,24.53l1.22,6.1c-.15,2.57.21,5.37,0,7.91-.3,3.68-1.51,7.64-2.27,11.27-3.34,15.98-6.73,33.14-10.84,48.86-3.84,14.68-14.37,26.27-29.25,30.09l-10.38,12.76c-.1.48.1.29.3.41.42.25.99.49,1.45.71,13.08,6.36,28.01,9.09,34.32,23.7,10.49,24.28-12.78,49.01-37.51,40.39-17.84-8.34-36.05-15.92-53.87-24.29-3.39-1.59-6.61-2.94-9.54-5.32-4.71-3.82-8.93-9.84-10.93-15.58-2.07.76-4.19,1.1-6.37,1.4-16.76,2.37-33.79,3.19-50.56,5.54-17.38.65-30.1-15.79-24.87-32.55,2.74-8.8,10.74-15.68,19.87-17.05,6.37-.96,13.38-1.12,19.87-1.95.28-.04.48.1.35-.35-.63-2.14-2.16-4.53-2.67-6.8-13.09-2.75-27.56-2.35-38.77-10.5C1.97,121.71-1.74,106.52,1.51,89.86c3.6-18.47,7.96-38.29,12.51-56.54C18.33,16.03,31.78,1.44,50.35,0h7.67ZM51.26,8.46c-12.96.89-24.71,11.4-28.36,23.67-4.11,19.66-9.47,39.19-13.24,58.93-3.62,18.93,3.78,33.84,22.65,39.31l142.11,23.56c14,1.29,26.43-8.41,31.09-21.17,4.13-16.3,7.88-32.83,11.35-49.31,1.77-8.43,4.09-17.17,1.19-25.65-2.95-8.61-9.34-15.35-18.09-18.11L61.43,8.94c-3.37-.51-6.76-.71-10.17-.47ZM108.61,168.79c-.06-1.35-.32-2.67-.71-3.97l-5.68-14.52-37.72-6.21c1.81,3.61,1.96,8.54-1.15,11.51-2.86,2.74-12.34,3.12-16.48,3.59-6.69.76-11.39-.06-16.79,4.79-11.38,10.22-3.7,29.1,11.51,28.77,16.73-2.49,34.41-2.86,51.04-5.54,8.98-1.45,16.02-8.66,15.97-17.95.75.13.71-.63,0-.48ZM115.32,152.49l-3.36-.48c.31.61.88,2.92,1.32,3.11l2.04-2.63ZM117,169.51c-.76-.19-.71.93,0,.72-.1,6.38-2.8,12.75-7.31,17.25-.53.52-2.94,2.2-2.95,2.71,2.19,6.93,7.04,12.72,13.53,15.96,18.78,9.38,39.09,17.09,58.14,26.01,25.26,5.43,38-29.4,13.97-40.82-6.67-3.17-15.17-5.87-21.44-9.49-4.87-2.81-5.64-8.57-2.49-13.06,1.47-2.09,3.54-4.3,5.23-6.26.15-.17.24-.13.15-.48l-48.53-7.92-.98.72-7.67,9.36c-.04,1.73.33,3.49.36,5.27Z"/>
  <path class="cls-5" d="M51.26,8.46c3.41-.23,6.8-.03,10.17.47l138.52,30.74c8.75,2.76,15.14,9.5,18.09,18.11,2.91,8.47.59,17.22-1.19,25.65-3.47,16.48-7.22,33.01-11.35,49.31-4.65,12.76-17.09,22.47-31.09,21.17l-142.11-23.56c-18.87-5.46-26.27-20.38-22.65-39.31,3.77-19.74,9.13-39.27,13.24-58.93,3.65-12.27,15.4-22.78,28.36-23.67ZM117.25,83.44c0-20.53-16.64-37.17-37.17-37.17s-37.17,16.64-37.17,37.17,16.64,37.17,37.17,37.17,37.17-16.64,37.17-37.17Z"/>
  <path class="cls-3" d="M117,169.51c-.03-1.78-.4-3.54-.36-5.27l7.67-9.36.98-.72,48.53,7.92c.09.35,0,.31-.15.48-1.69,1.95-3.76,4.16-5.23,6.26-3.15,4.48-2.38,10.25,2.49,13.06,6.27,3.61,14.78,6.32,21.44,9.49,24.03,11.42,11.3,46.24-13.97,40.82-19.05-8.92-39.36-16.63-58.14-26.01-6.49-3.24-11.33-9.04-13.53-15.96,0-.51,2.42-2.19,2.95-2.71,4.51-4.5,7.21-10.88,7.31-17.25,0-.24,0-.48,0-.72Z"/>
  <path class="cls-3" d="M108.61,169.27c.05,9.3-7,16.51-15.97,17.95-16.63,2.68-34.3,3.05-51.04,5.54-15.22.33-22.89-18.56-11.51-28.77,5.4-4.85,10.1-4.03,16.79-4.79,4.14-.47,13.62-.86,16.48-3.59,3.1-2.97,2.95-7.89,1.15-11.51l37.72,6.21,5.68,14.52c.39,1.29.65,2.62.71,3.97,0,.16,0,.32,0,.48Z"/>
  <path class="cls-4" d="M117,169.51c0,.24,0,.48,0,.72-.71.21-.76-.91,0-.72Z"/>
  <path class="cls-4" d="M108.61,168.79c.71-.15.75.61,0,.48,0-.16,0-.32,0-.48Z"/>
  <path class="cls-4" d="M117.25,83.44c0,20.53-16.64,37.17-37.17,37.17s-37.17-16.64-37.17-37.17,16.64-37.17,37.17-37.17,37.17,16.64,37.17,37.17ZM108.87,83.44c0-15.91-12.89-28.8-28.8-28.8s-28.8,12.89-28.8,28.8,12.89,28.8,28.8,28.8,28.8-12.89,28.8-28.8Z"/>
  <circle class="cls-2" cx="80.08" cy="83.44" r="28.8"/>
</svg>