<?xml version="1.0" encoding="UTF-8"?>
<svg id="Layer_1" data-name="Layer 1" xmlns="http://www.w3.org/2000/svg" viewBox="0 0 438.49 759.93">
  <defs>
    <style>
      .cls-1 {
        fill: #b8bd99;
      }

      .cls-2 {
        fill: #44bdc5;
      }

      .cls-3 {
        fill: #9f9938;
      }

      .cls-4 {
        fill: #bc4142;
      }

      .cls-5 {
        fill: #44bdc6;
      }

      .cls-6 {
        fill: #ba443b;
      }
    </style>
  </defs>
  <path class="cls-5" d="M417.85.09c9.33,1.12,17.8,9.17,19.93,18.21-.7,15.07,1.69,32.47.21,47.28-.93,9.39-10.05,18.35-19.08,20.27-1.68.36-7.18.5-7.78.86s-2.88,4.49-2.4,5.03c8.11,2.34,17.15,2.53,22.79,9.59,7.02,8.79,4.31,22.25-5.51,27.61-8.81,4.81-16.1.24-24.96-1.22.04,1.63.06,3.2-.22,4.82-1.02,6.03-5.28,21.36-7.61,26.94-3.8,9.1-16.52,10.38-21.93,2.08-4.83-7.41-.35-12.31.49-19.93-.69.61-1.32,0-1.68,0h-8.4c9.65,12.98-6.07,29.49-18.96,18.73-1.44-1.2-6.84-8.36-7.65-8.17-5.66,9.25-12.01,18.01-23.96,11.55-2.29,3.37-5.13,5.3-8.92,6.68-1.28,0-2.56,0-3.84,0h-1.44l-28.62-11.44c-6.42-3.99-9.12-11.27-5.69-18.33,1.5-3.1,15.44-22.15,17.9-24.46,7.41-6.92,19.5-3.75,22.14,6.03,2.1,7.74-3.28,13.1-7.64,18.69,0,1.08,10.61,3.73,11.75,5.51,5.7-6.95,10.14-16.24,15.87-22.98,4.01-4.73,7.93-6.61,14.31-5.76s9.31,7.49,13.71,11.48c.21-4.16,2.07-8.17,5.6-10.48.75-.49,4.05-2,4.72-2h7.92l-3.59-4.2c-2.64,1.8-5.42,2.95-8.65,3.24-10.93.97-22.53.34-33.52,1.39-15.43-2.61-17.85-23.86-2.82-29.59l4.93-1.54c-5.99-.17-12.12-4.48-15.26-9.45-6.34-10.02-3.33-24.87-3.91-36.4-.4-8.14-1.48-11.26,1.4-19.67,6.66-19.41,26.5-16.07,42.95-17.02,19.65-1.14,39.3-2.67,59.05-2.85l1.16-.5c2.3.19,4.96-.27,7.2,0ZM314.71,51.91v14.64c0,3.89,6.68,10.83,10.83,11.25l89.7.05c7.57-.94,14.03-7.45,14.63-15.12,1.06-13.5-.74-28.48-.13-42.13-4.39-16.44-21-11.48-33.71-10.92s-24.31,1.25-36.46,1.92c-7.1.39-14.25.37-21.34.97l4.07,2.88c19.77,16.8,1.51,48.04-22.9,38.74-1.69-.64-3.01-1.75-4.67-2.28ZM342.22,33.12c0-7.91-6.41-14.32-14.32-14.32s-14.32,6.41-14.32,14.32,6.41,14.32,14.32,14.32,14.32-6.41,14.32-14.32ZM344.45,86.46c-.45,11.38-12.76,7.55-19.88,8.66-3.88.61-6.86,4.77-5.8,8.62.42,1.52,2.84,4.32,4.43,4.68,3.95.89,10.64-.27,14.75-.4,4.77-.15,17.03.28,20.74-1.33,2.63-1.14,5.06-4.02,4.92-7.01-.05-.92-3.61-12.24-4.04-12.76-.95-1.15-12.79-.12-15.12-.47ZM401.06,86.46h-22.55c-1.03,4.06-5.91,8.92-6.69,12.74-.23,1.14-.61,5.52-.4,6.58.79,3.94,6.07,6.65,9.49,7.79,8.29,2.77,24.22,7.37,32.6,8.66,7.21,1.11,13.95-1.95,13.48-10.12-.93-16.19-33.41-5.01-25.93-25.66ZM271.68,151.09l26.11,10.59c4.33,1.14,7.92-2.66,5.82-6.78-1.74-3.41-11.64-4.38-14.8-7.74-2.32-2.47-2.73-6.58-1.48-9.63,1.61-3.93,11.3-11.48,5.56-15.57-1.98-1.41-4.17-1.3-6.02.23-2.91,2.42-10.99,14.25-13.62,18.05-2.37,3.42-5.99,7.13-1.57,10.84ZM376.43,137.48c5.69,5.69-6.48,17.84,1.74,22.49,4.43,2.51,8.23.19,9.96-4.15,1.84-4.63,5.87-18.39,6.58-23.17.34-2.28.4-6.24-1.93-7.44-6.56-3.36-18.61-2.17-26.04-2.26-2.3-.03-3.01-1.06-5.69.03-4.69,1.91-5.87,8.09-1.74,11.24,4.8,3.67,13.52-.33,17.12,3.27ZM322.22,155.88c4.75-4.75,5.26-13.59,14.67-12.19,6.18.92,9.15,10.37,13.18,11.29,4.52,1.03,8.05-3.69,5.15-7.56-6.1-5.73-11.08-14.3-16.99-19.96-3.45-3.31-6.7-1.41-9.33,1.74-5.22,6.24-9.66,14.83-14.45,21.53-1.81,5.05,3.91,8.99,7.77,5.13Z"/>
  <path class="cls-4" d="M0,46.15c1.04-.96,5,.11,5.27-1.21.4-1.92-7-2.47-4.06-6.46,2.08-2.82,6.92-1.02,5.5.46-.17.17-3.13-.12-3.84,0-.72,3.54,4.32,1.47,4.33,5.52,0,3.59-4.79,3.67-7.2,2.16v-.48Z"/>
  <path class="cls-4" d="M0,16.88c1.38-1.04,1.77-2.68,3.56-3.39,1.58-.63,5.6-.91,4.32,1.48-3.06-.05-4.97-.5-5.04,3.11-.08,4.13,1.8,3.64,5.32,3.6.58,2.26-2.63,2.15-4.33,1.69-2.1-.57-2.52-2.17-3.82-3.61v-2.88Z"/>
  <path class="cls-3" d="M302.23,170.43c35.97-.11,71.97.08,107.94,0-.13,183.45.17,366.93,0,550.39h-28.31s0,4.32,0,4.32h11.51v33.59h-9.12l-12.77-37.94c-1.47.3-5.33-.53-6.19.5l-12.69,37.22-5.29.22c-.16-.93,1.15-.24,1.42-.5.44-.43-.64-3.43-.46-4.3-13.49,4.77-24.54-1.42-23.02-16.55.94-9.31,8.24-13.45,17.04-12.74,2.07.17,3.87,1.15,5.94.94.81-3.61,1.3-3.73-2.25-4.63-7.83-1.97-16.81.16-21.94,6.58-7.51,9.39-4.86,27.27,7.44,31.2-5.59.01-11.2-.01-16.79,0l-2.4-37.91h-6.72l-10.79,31.2-10.31-31.2h-6.72l-2.4,37.91c-1.58-.05-3.21-.04-4.8,0l-12.71-37.44c-.86-1.03-4.72-.21-6.19-.5l-13.25,37.94c-1.58,0-3.22-.1-4.8,0,1.89-.42,1.35-3.89.18-4.29-.94-.31-3.42.82-4.74.92-10.93.86-18.57-4.47-18-16.09.52-10.7,7.78-15.45,18-14.61,3.83.31,5.38,3.12,5.99-2.86-12.18-4.08-25.86.2-28.63,13.8-1.62,7.93.46,16.5,7.38,21.12l3.99,2.01H62.37V170.91c78.13-.21,156.27.26,234.41.04.88,0,1.54-.51,1.62-.52,1.28,0,2.56,0,3.84,0ZM227.88,273.12c12.33-39.81-22.06-77.45-62.94-68.46-36.67,8.07-53.41,52.32-31.58,82.86-24.74,6.12-39.83,25.13-42.69,50.15-3.99,34.85-4.48,70.23-8.64,105.09-3.71,35.28,22.77,69.12,59.74,66.95l35.72-6.26c-.1,3.01-.62,5.84-.5,8.9.17,4.32.98,10.4,1.46,14.85,1.69,15.49,4.96,30.82,6.71,46.31-12.53-.99-25.07-2.58-37.6-3.9-10.01-1.06-15.59-2.31-25.9.12-60.4,14.23-58.49,103,8.16,112.64,34.12,4.94,70.16,6.06,103.98,11.64,4.53.75,8.32,2.95,12.77,4.02,22.51,5.44,41.74-2.44,56.6-19.21,25.12-28.33,48.1-58.75,72.76-87.5,19.09-29.37,10.57-70.67-22.68-84.93l-64.93-29.82c-.26-.34,1.85-1.57,2.25-1.82,29.89-18.55,74.15-33.08,75.46-74.71.87-27.66-16.56-39.26-33.83-56.37-18.84-18.66-37.24-38.08-56.34-56.41-12.81-12.29-30.43-17.69-47.99-14.14Z"/>
  <path class="cls-5" d="M106.5,143.56c.61-2.55,2.84-4.73,4.56-6.72,3.91-4.53,12.91-15.02,17.28-18.23,16.09-11.81,25.31,11.99,32.18,22.51,1.06,1.62,2.13,3.55,3.55,4.84-.05-1.03.42-1.86.88-2.73,2.62-4.99,10.87-19.52,14.23-23.19,5.14-5.63,14.72-6.04,19.68,0,4.54-4.16,10.27-5.06,15.66-1.74,3.12,1.92,17.18,15.93,20.07,19.27,9.2,10.66-2.08,25.98-14.71,19.99-1.04-.49-3.71-3.01-4.16-2.93-.22.04-2.66,2.14-3.67,2.6-2.74,1.26-4.72.68-6.86,1.3-.68.2-3.28,2.93-4.95,3.68-5.81,2.62-10.93,1.07-15.36-3.25-5.1,3.89-11.3,4.79-16.72.91l-4.31-4.8c-2.32,8.06-11.37,11.43-18.8,7.77-4.75-2.34-6.79-8.61-9.99-12.55-4.64,4.11-7.96,10.94-14.85,11.53-5.04.43-8.76-1.36-12.25-4.82-3.29,8.52-12.34,10.41-19.83,5.67-4.49-2.84-21.49-14.73-24.04-18.18-4.71-6.36-4.02-13.53,1.64-18.93,4.63-4.42,15.93-13.92,21.15-17.24,14.29-9.07,28.45,9.01,16.53,20.86-1,1-7.33,5.53-7.45,5.99-.19.71.47.78.8,1.11,2.63,2.62,7.14,4.38,9.75,7.28ZM98.2,115.88c-1.84-2.09-4.03-1.77-6.24-.54-3.43,1.91-17.5,13.44-20.49,16.46s-2.44,5.78.48,8.66c3.5,3.45,15.8,12.02,20.29,14.73,6.72,4.05,11.31-2.87,6.33-7.29s-14.63-7.23-10.54-16.33c2.13-4.73,15.46-9.7,10.17-15.69ZM206.16,122.56c-1.65.34-3.87,2.41-4.88,3.76-2.08,2.77-11.3,18.83-12.29,21.78-1.22,3.64-.27,7.55,3.6,8.92,9.44,3.35,9.55-13.7,16.96-14.31,5.05-.42,8.35,5.95,11.86,8.53,6.8,5,13.61-3.94,8.88-9.36-.55-.63-1.52-.98-2.18-1.66-4.36-4.48-11.66-12.91-16.3-16.33-1.81-1.33-3.38-1.8-5.65-1.33ZM128.74,144.21c2.91-2.61,6.88-3.22,10.41-1.4,4.19,2.16,7.22,11.91,10.39,12.64,5.49,1.26,7.64-3.05,5.32-7.72-2.19-4.42-10.53-17.67-13.61-21.42-2.44-2.98-5.58-2.43-8.38-.28-3.67,2.83-10.71,11.25-14.15,15.12-1.09,1.23-3.99,4.33-4.5,5.57-1.59,3.89,1.36,7.05,5.44,6.41,2.4-.38,6.95-7.02,9.08-8.92ZM187.92,124.47c-1.21.28-2.66,1.82-3.42,2.81-4.53,5.83-7.96,14.59-12.38,20.73-.97,2.01-.13,4.55,1.92,5.54,4.43,2.13,6.68-4.73,8.55-7.54,1.05-1.59,2.59-3.24,3.48-4.68,2.71-4.39,4.86-9.19,7.56-13.6-.39-2.67-2.98-3.89-5.71-3.25Z"/>
  <path class="cls-6" d="M331.5,758.73c-12.3-3.92-14.95-21.81-7.44-31.2,5.13-6.42,14.11-8.56,21.94-6.58,3.56.9,3.06,1.02,2.25,4.63-2.08.21-3.87-.77-5.94-.94-8.8-.72-16.11,3.43-17.04,12.74-1.52,15.13,9.53,21.33,23.02,16.55-.18.87.9,3.86.46,4.3-.26.26-1.58-.44-1.42.5l5.29-.22,12.69-37.22c.86-1.03,4.72-.21,6.19-.5l12.77,37.94h9.12v-33.59h-11.51v-4.32s28.3,0,28.3,0c0,1.44,0,2.88,0,4.32h-11.51v33.59h11.51c-.5.8-1.82.48-2.63.49-20.63.26-41.28-.25-61.91-.03-4.82.05-9.11,1.14-14.13-.46ZM362.68,743.37h11.51l-5.99-17.76-5.52,17.76ZM357.88,758.73h21.11l-3.65-11.55-13.64.25-3.82,11.3Z"/>
  <path class="cls-4" d="M296.96,170.43h1.44c-.09,0-.74.51-1.62.52-78.13.23-156.28-.24-234.41-.04v587.81h155.43l-3.99-2.01c-6.92-4.63-9-13.19-7.38-21.12,2.77-13.6,16.45-17.88,28.63-13.8-.61,5.98-2.16,3.17-5.99,2.86-10.22-.83-17.48,3.92-18,14.61-.57,11.62,7.08,16.95,18,16.09,1.32-.1,3.8-1.24,4.74-.92,1.17.39,1.72,3.86-.18,4.29-5.72.35-9.28.51-15.09.46-52.21-.49-104.45.41-156.66.02V170.43c78.35,0,156.72,0,235.07,0Z"/>
  <path class="cls-6" d="M275.37,758.73l2.4-37.91h6.72l10.31,31.2,10.79-31.2h6.72l2.4,37.91c-1.57,0-3.68,0-5.28,0l-1.68-32.15-11.27,32.15c-1.44,0-2.88,0-4.32,0l-10.31-32.63-1.68,32.63c-1.6,0-3.08.05-4.8,0Z"/>
  <path class="cls-4" d="M20.63,699.23c-8.45-7.75-4-19.5,7.08-20.99s20.79,6.53,16.21,17.65l-3.14,4.29c.7.13,3.66-.17,3.84,0s-.13,3.99,0,4.8l-40.78-.48v-5.28h16.79ZM38.69,697.14c.65-.61,1.67-2.27,1.88-3.16,3.58-14.74-24.93-13.13-19.42.64,2.27,5.65,13.67,6.19,17.54,2.52Z"/>
  <path class="cls-4" d="M9.77,542.97c7.42-7.39,33.28-6.99,35.2,6.43,2.3,16.06-25.05,17.81-34.16,10.18-4.83-4.05-5.64-12.03-1.04-16.61ZM21.01,543.9c-3.93.42-9.87,2-10.02,6.81-.25,8.19,15.37,8.33,20.86,7.39,2.55-.44,7.75-2.13,8.66-4.77,3.38-9.86-13.71-10.05-19.5-9.43Z"/>
  <path class="cls-4" d="M6.71,612.37c.76.12,4.15-.17,4.32,0,.11.11-.06,2.33.06,3.06,1.05,6.82,5.25,12.5,12.41,13.25-6.22-5.96-3.98-18.11,5.15-19.55,20.36-3.22,22.04,23.48,3.72,25.31-14.63,1.46-25.76-6.95-25.66-22.07ZM30.1,614.41c-9.13,1.55-7.28,14.28.35,14.79,3.65.25,9.4-1.66,10.22-5.66,1.45-7.03-4.25-10.21-10.57-9.13Z"/>
  <path class="cls-6" d="M270.57,758.73c-1.65.04-3.64,0-5.28,0l-3.9-11.45c-1.9.11-13.4-.49-13.9.22l-3.3,11.23c-1.88.03-3.96,0-5.76,0l13.25-37.94c1.47.3,5.33-.53,6.19.5l12.71,37.44ZM260.02,743.37l-5.52-17.76-5.52,17.76h11.03Z"/>
  <path class="cls-3" d="M410.18,725.14c-.01,11.19,0,22.4,0,33.59h-11.51v-33.59h11.51Z"/>
  <path class="cls-4" d="M11.51,496.73l9.59.96c-1.31-9.84,4.16-17.89,14.9-15.62,6.44,1.36,9.53,9.46,9.08,15.38-.08,1-1.54,7.1-1.96,7.4-.77.55-3.28-.87-4.27-.92,2.91-5.44,3.19-15.76-4.6-16.75-9.27-1.17-10.33,9.01-8.84,15.79l-18.23-2.4v-18.23h4.32v14.4Z"/>
  <path class="cls-4" d="M44.62,568.71v23.99l-3.35-.25c-6.54-5.43-16-20.02-25.83-17.18-3.49,1.01-4.74,4.72-4.37,8.03.21,1.88,2.91,6.38,2.83,6.74-.14.65-2.45,1.3-3.1,1.23-2.17-.22-3.85-6.49-4.03-8.46-.83-9.08,4.85-14.57,13.98-13.03,4.74.8,11.79,7.25,15.24,10.67,1.3,1.29,2.26,3.78,4.31,4.09v-15.83h4.32Z"/>
  <path class="cls-4" d="M44.62,639.24v23.99l-3.35-.25c-6.54-5.43-16-20.02-25.83-17.18-3.49,1.01-4.74,4.72-4.37,8.03.21,1.88,2.91,6.38,2.83,6.74-.14.65-2.45,1.3-3.1,1.23-2.17-.22-3.85-6.49-4.03-8.46-.83-9.08,4.85-14.57,13.98-13.03,4.74.8,11.79,7.25,15.24,10.67,1.3,1.29,2.26,3.78,4.31,4.09v-15.83h4.32Z"/>
  <path class="cls-4" d="M44.62,510.16v23.99l-3.35-.25c-6.54-5.43-16-20.02-25.83-17.18-3.49,1.01-4.74,4.72-4.37,8.03.21,1.88,2.91,6.38,2.83,6.74-.14.65-2.45,1.3-3.1,1.23-2.17-.22-3.85-6.49-4.03-8.46-.83-9.08,4.85-14.57,13.98-13.03,4.74.8,11.79,7.25,15.24,10.67,1.3,1.29,2.26,3.78,4.31,4.09v-15.83h4.32Z"/>
  <path class="cls-4" d="M31.66,710.26v19.67c10.02-.12,10.3-9.63,8.16-17.27.85.05,3.28-.91,3.8-.45.29.25,1.44,6.44,1.49,7.38.43,8.32-3.61,14.77-12.31,15.55-20.94,1.9-22.74-26.8-1.14-24.89ZM27.82,715.54c-10.59.21-10.02,13.25,0,14.4v-14.4Z"/>
  <path class="cls-4" d="M16.79,743.37v-6.72h3.84v6.72h23.99v5.28h-23.99v3.84s-3.84,0-3.84,0c-.12-.71.18-3.68,0-3.84-.11-.11-2.33.06-3.06-.06-8.19-1.26-12.08-5.96-9.61-14.37,6.13-.5,2.93,1.5,3.59,5.04.69,3.75,6.05,4.02,9.09,4.1Z"/>
  <path class="cls-3" d="M309.43,758.73c-4.31,0-8.64-.01-12.95,0l11.27-32.15,1.68,32.15Z"/>
  <path class="cls-3" d="M244.19,758.73l3.3-11.23c.5-.71,12-.11,13.9-.22l3.9,11.45c-7.02.02-14.09-.11-21.11,0Z"/>
  <path class="cls-3" d="M292.16,758.73c-3.99,0-8,0-11.99,0l1.68-32.63,10.31,32.63Z"/>
  <path class="cls-4" d="M34.06,23.12h-2.4v-6.96c0-1.46-3.84-1.46-3.84,0v6.96h-2.4v-6.96c0-2.16-3.36-.93-3.36,0v6.96h-2.4v-9.6c2.01.97,3.49-.63,4.99-.49,1.19.11,2.16,1.49,2.84,1.38,1.17-.19,2.61-2.77,5.11-.63.26.23,1.45,2.24,1.45,2.38v6.96Z"/>
  <path class="cls-4" d="M148.24,38.95c-.13-.13-1.31.14-1.44,0-.05-.05-.05-1.39,0-1.44.12-.11,1.18.19,1.38-.04.21-.23,0-1.39.17-2,.92-3.06,2.08-2.86,5.16-2.76-.64,2.5-4.29,1.04-3.36,4.8.7-.11,3.7.16,3.84,0,.35-.38-1.02-3.37,2.39-2.88.7.74-1.79,3.82,2.88,2.88.34,2.02-2.64,1.22-2.88,1.44s-.05,5.8.42,6.44c.68.91,2.6-.89,1.98,2.19-5.49.81-4.89-4.76-4.8-8.64h-3.84v8.16c0,.1-1.92.1-1.92,0,0-1.14.29-7.87,0-8.16Z"/>
  <path class="cls-4" d="M206.77,13.52v8.88c0,1.28-1.46,3.82-2.75,4.45-1.94.95-6.83,1.18-5.88-1.81,3.1.82,6.43,1.29,6.23-2.88-6.76,4.76-10.34-6.64-4.18-8.75,2.25-.77,4.19.5,6.58.11ZM200.87,15.05c-2.08.64-2.47,4.83-.53,6.1,4.67,3.04,6.22-7.84.53-6.1Z"/>
  <path class="cls-4" d="M128.57,13.52v10.32c0,1.12-2.15,3.05-3.34,3.37-3.63.98-6.99-1.69-4.55-2.14,1.55-.29,5.85,2.31,5.49-2.42-6.82,3.21-9.96-6.73-4.19-9.23,2.38-1.04,4,1.13,6.59.12ZM121.97,15.56c-1.88,1.88-.1,8.09,3.45,5.6,3.31-2.32-.37-8.67-3.45-5.6Z"/>
  <path class="cls-4" d="M129.53,47.11c-3.12-.26-7.63,1.92-9.23-2.04-1.96-4.87,1.95-10.08,6.83-7.07.15-.85-.19-5.09,0-5.28.28-.26,2.4.11,2.4.72v13.68ZM123.63,39.04c-2.86.88-2.42,7.92,2.2,6.54,2.09-.63,2.51-7.98-2.2-6.54Z"/>
  <path class="cls-4" d="M51.33,605.66c-1.77-.67-12.79-2.49-13.34-2.97-.49-.43-.79-5.45-.57-5.67,1.89,0,3.76.81,5.52,1.43,3.42,1.2,9.77,2.73,8.38,7.21Z"/>
  <path class="cls-4" d="M209.17,32.72v8.16c2.22-1.13,2.26-4.11,5.27-3.36.1,1.63-2.9,2.72-2.89,4.08,0,.97,4.17,4.82,3.37,5.52-2.65.78-3.83-2.26-4.8-4.31-1.68.34-.64,4.01-.95,4.32h-2.4v-13.68c0-.63,1.77-.88,2.4-.72Z"/>
  <path class="cls-4" d="M85.07,42.3c0,2.85-2.31,5.16-5.16,5.16s-5.16-2.31-5.16-5.16,2.31-5.16,5.16-5.16,5.16,2.31,5.16,5.16ZM81.92,45.08c1.51-1.52,1.08-5.97-1.56-6.17-6.19-.48-2.38,10.14,1.56,6.17Z"/>
  <path class="cls-4" d="M117.54,23.12h-2.4v-6.96c0-1.46-3.84-1.46-3.84,0v6.96h-2.4v-9.6c2.55,1.14,5.25-1.83,7.41.5.18.2,1.22,2.01,1.22,2.14v6.96Z"/>
  <path class="cls-4" d="M209.32,14.63c4.69-5.3,12.44,2.97,7.01,7.73-5.05,4.43-11.09-3.12-7.01-7.73ZM211.9,15.05c-2.88.88-2.38,7.95,2.21,6.54,2.88-.88,2.38-7.95-2.21-6.54Z"/>
  <path class="cls-4" d="M187.25,14.63c4.69-5.3,12.44,2.97,7.01,7.73-5.05,4.43-11.09-3.12-7.01-7.73ZM189.83,15.05c-2.88.88-2.38,7.95,2.21,6.54,2.88-.88,2.38-7.95-2.21-6.54Z"/>
  <path class="cls-4" d="M95.95,18.8h-7.2c.77,3.74,3.15,2.87,6.24,2.88.73,2.01-2.84,2.13-4.45,1.81-5.88-1.17-4.66-10.72,1.31-10.48,2.86.11,4.33,3.23,4.09,5.79ZM94.03,17.36c-.14-3.13-4.55-3.4-5.27-.7-.28,1.05.54.66,1.18.71,1.35.1,2.74-.06,4.09,0Z"/>
  <path class="cls-4" d="M225,42.79h-7.2c.77,3.74,3.15,2.87,6.24,2.88.73,2.01-2.84,2.13-4.45,1.81-5.88-1.17-4.66-10.72,1.31-10.48,2.86.11,4.33,3.23,4.09,5.79ZM223.08,41.35c-.14-3.13-4.55-3.4-5.27-.7-.28,1.05.54.66,1.18.71,1.35.1,2.74-.06,4.09,0Z"/>
  <path class="cls-4" d="M155.91,18.8h-7.2c.77,3.74,3.15,2.87,6.24,2.88.73,2.01-2.84,2.13-4.45,1.81-5.88-1.17-4.66-10.72,1.31-10.48,2.86.11,4.33,3.23,4.09,5.79ZM154,17.36c-.14-3.13-4.55-3.4-5.27-.7-.28,1.05.54.66,1.18.71,1.35.1,2.74-.06,4.09,0Z"/>
  <path class="cls-4" d="M45.1,42.79h-7.2c.77,3.74,3.15,2.87,6.24,2.88.73,2.01-2.84,2.13-4.45,1.81-5.88-1.17-4.66-10.72,1.31-10.48,2.86.11,4.33,3.23,4.09,5.79ZM43.18,41.35c-.14-3.13-4.55-3.4-5.27-.7-.28,1.05.54.66,1.18.71,1.35.1,2.74-.06,4.09,0Z"/>
  <path class="cls-4" d="M78.68,23.12c-2.01-.89-3.24.34-4.6.49-3.79.39-5.3-5.48-.32-6.61,1.19-.27,3.73.35,2.32-1.58-.65-.89-3.44-.3-4.58-.46.81-3.54,7.19-1.93,7.19,1.2v6.96ZM76.76,18.32c-2.78-.35-4.23.39-3.84,3.36,2.8.43,4-.51,3.84-3.36Z"/>
  <path class="cls-4" d="M59.97,23.12c-2.01-.89-3.24.34-4.6.49-3.79.39-5.3-5.48-.32-6.61,1.19-.27,3.73.35,2.32-1.58-.65-.89-3.44-.3-4.58-.46.81-3.54,7.19-1.93,7.19,1.2v6.96ZM58.05,18.32c-2.78-.35-4.23.39-3.84,3.36,2.8.43,4-.51,3.84-3.36Z"/>
  <path class="cls-4" d="M17.27,23.12c-2.01-.89-3.24.34-4.6.49-3.79.39-5.3-5.48-.32-6.61,1.19-.27,3.73.35,2.32-1.58-.65-.89-3.44-.3-4.58-.46.81-3.54,7.19-1.93,7.19,1.2v6.96ZM15.35,18.32c-2.78-.35-4.23.39-3.84,3.36,2.8.43,4-.51,3.84-3.36Z"/>
  <path class="cls-4" d="M204.85,47.11c-2.25-.85-6.58,1.84-7.91-.95-1.61-3.37,1.86-5.92,5.04-5.28v-1.91s-4.32.47-4.32.47c-.96-3.26,4.95-2.97,6.26-.75,1.21,2.05-.22,5.99.93,8.43ZM202.45,42.31c-1.12-.13-3.4.09-3.78,1.27-1.06,3.29,4.99,2.71,3.78-1.27Z"/>
  <path class="cls-4" d="M145.84,47.11c-2.25-.85-6.58,1.84-7.91-.95-1.61-3.37,1.86-5.92,5.04-5.28v-1.91s-4.32.47-4.32.47c-.96-3.26,4.95-2.97,6.26-.75,1.21,2.05-.22,5.99.93,8.43ZM143.44,42.31c-1.12-.13-3.4.09-3.78,1.27-1.06,3.29,4.99,2.71,3.78-1.27Z"/>
  <path class="cls-4" d="M17.27,42.79h-6.72c-.22,3.83,3.59,2.76,6.24,2.88.65,1.68-1.64,1.96-3.12,1.96-4.42-.02-6.86-4.16-4.65-8.05,2.85-5.03,9.1-2.07,8.25,3.22ZM14.75,39.07c-1.52-1.5-4.76-.23-4.2,2.28h4.79c.03-.69-.11-1.79-.6-2.28Z"/>
  <path class="cls-4" d="M44.62,18.8h-6.72c-.22,3.83,3.59,2.76,6.24,2.88.65,1.68-1.64,1.96-3.12,1.96-4.42-.02-6.86-4.16-4.65-8.05,2.85-5.03,9.1-2.07,8.25,3.22ZM42.1,15.08c-1.52-1.5-4.76-.23-4.2,2.28h4.79c.03-.69-.11-1.79-.6-2.28Z"/>
  <path class="cls-4" d="M72.92,47.11c-.07.07-1.92.1-1.92,0v-6.96c0-1.52-4.32-1.52-4.32,0v6.96c0,.1-1.92.1-1.92,0v-8.4c0-.15-.66-.67-.48-1.2,2.82,1.08,4.6-1.58,7.19.25.36.26,1.45,1.64,1.45,1.91,0,1.07.27,7.18,0,7.44Z"/>
  <path class="cls-4" d="M39.68,667.66c6.9-2.02,7.59,7.98.39,6.6-3-.57-2.96-5.85-.39-6.6Z"/>
  <path class="cls-4" d="M83.47,10.64c.7.74-1.79,3.82,2.88,2.88.34,2.02-2.64,1.22-2.88,1.44s-.05,6.27.56,6.65c.96.6,2.32-1.08,1.85,1.98-6.52.8-3.92-5.39-4.77-8.37-.05-.16-2.69-.49-1.47-1.7.12-.12,1.22.17,1.39-.02.48-.54-1.01-3.26,2.44-2.86Z"/>
  <path class="cls-4" d="M143.44,10.64c.7.74-1.79,3.82,2.88,2.88.34,2.02-2.64,1.22-2.88,1.44s-.05,6.27.56,6.65c.96.6,2.32-1.08,1.85,1.98-6.52.8-3.92-5.39-4.77-8.37-.05-.16-2.69-.49-1.47-1.7.12-.12,1.22.17,1.39-.02.48-.54-1.01-3.26,2.44-2.86Z"/>
  <path class="cls-4" d="M193.33,34.64c.7.74-1.79,3.82,2.88,2.88.34,2.02-2.64,1.22-2.88,1.44s-.05,6.27.56,6.65c.96.6,2.32-1.08,1.85,1.98-6.52.8-3.92-5.39-4.77-8.37-.05-.16-2.69-.49-1.47-1.7.12-.12,1.22.17,1.39-.02.48-.54-1.01-3.26,2.44-2.86Z"/>
  <path class="cls-4" d="M167.91,10.64c.7.74-1.79,3.82,2.88,2.88.34,2.02-2.64,1.22-2.88,1.44s-.05,6.27.56,6.65c.96.6,2.32-1.08,1.85,1.98-6.52.8-3.92-5.39-4.77-8.37-.05-.16-2.69-.49-1.47-1.7.12-.12,1.22.17,1.39-.02.48-.54-1.01-3.26,2.44-2.86Z"/>
  <path class="cls-4" d="M52.26,37.55c1.44,2.35-3.46,1.03-3.81,1.4-.95,2.87,2.87,2.04,3.86,3.69,1.43,2.36-.11,4.67-2.71,4.94-1.49.15-4.26-.14-3.55-1.91,10.19-.09,1.71-2.35.53-4.14-2.43-3.66,4.61-5.72,5.67-3.98Z"/>
  <path class="cls-4" d="M163.08,13.56c1.44,2.35-3.46,1.03-3.81,1.4-.95,2.87,2.87,2.04,3.86,3.69,1.43,2.36-.11,4.67-2.71,4.94-1.49.15-4.26-.14-3.55-1.91,10.19-.09,1.71-2.35.53-4.14-2.43-3.66,4.61-5.72,5.67-3.98Z"/>
  <path class="cls-4" d="M69.53,13.56c.16.27-.03.97.04,1.4-3.51-.04-5.4-.53-5.32,3.6.08,3.77,2.22,3.1,5.32,3.12.56,1.83-1.55,2.06-3.11,1.95-6.61-.45-6.08-10.72.94-10.61.39,0,2.06.41,2.14.54Z"/>
  <path class="cls-4" d="M105.54,34.16v12.96c0,.1-1.92.1-1.92,0v-11.04l-2.4.96c-.69-2.56,2.29-2.91,4.32-2.88Z"/>
  <path class="cls-4" d="M241.79,34.16v12.96c0,.1-1.92.1-1.92,0v-11.04l-2.4.96c-.69-2.56,2.29-2.91,4.32-2.88Z"/>
  <rect class="cls-4" x="182.3" y="8.72" width="1.92" height="14.4"/>
  <path class="cls-4" d="M46.53,13.52c.89-.46,2.21,1.08,2.39.96.12-.08-.08-1.6,2.16-1.44,1.33,2.6-1.73,1.69-2.42,3.82-.45,1.38.01,6.05-.21,6.27-.07.07-1.92.09-1.92,0v-9.6Z"/>
  <path class="cls-4" d="M19.19,37.51c.89-.46,2.21,1.08,2.39.96.12-.08-.08-1.6,2.16-1.44,1.33,2.6-1.73,1.69-2.42,3.82-.45,1.38.01,6.05-.21,6.27-.07.07-1.92.09-1.92,0v-9.6Z"/>
  <path class="cls-4" d="M30.7,38.71c-.07-.6-1.35-1.86,1.13-1.2.47.13.16,1.11.54.96.94-1.28,4.04-2.54,3.15.2-.12.38-2.34.47-2.8,2.06-.35,1.21.13,6.15-.1,6.38-.07.07-1.92.09-1.92,0,0-2.59.29-5.94,0-8.4Z"/>
  <path class="cls-4" d="M131.93,37.51c.89-.46,2.21,1.08,2.39.96.12-.08-.08-1.6,2.16-1.44,1.33,2.6-1.73,1.69-2.42,3.82-.45,1.38.01,6.05-.21,6.27-.07.07-1.92.09-1.92,0v-9.6Z"/>
  <path class="cls-4" d="M97.87,14.72c-.07-.6-1.35-1.86,1.13-1.2.47.13.16,1.11.54.96.94-1.28,4.04-2.54,3.15.2-.12.38-2.34.47-2.8,2.06-.35,1.21.13,6.15-.1,6.38-.07.07-1.92.09-1.92,0,0-2.59.29-5.94,0-8.4Z"/>
  <path class="cls-4" d="M175.58,34.16v12.96h-1.44v-11.04c-1.35.1-2.27,2.11-2.88-.24,1.24-1.17,2.55-1.97,4.32-1.68Z"/>
  <rect class="cls-4" x="104.1" y="13.52" width="1.92" height="9.6"/>
  <rect class="cls-4" x="25.91" y="37.51" width="1.92" height="9.6"/>
  <path class="cls-4" d="M119.45,48.55v1.44h-9.83c-.31,0-.92-1.03-.72-1.44h10.55Z"/>
  <path class="cls-4" d="M235.55,48.55c.2.41-.41,1.44-.72,1.44h-9.83v-1.44h10.55Z"/>
  <path class="cls-4" d="M189.98,48.55c.2.41-.41,1.44-.72,1.44h-9.83v-1.44h10.55Z"/>
  <path class="cls-4" d="M169.83,48.55c.2.41-.41,1.44-.72,1.44h-9.83v-1.44h10.55Z"/>
  <path class="cls-4" d="M99.31,48.55v1.44h-9.83c-.31,0-.92-1.03-.72-1.44h10.55Z"/>
  <path class="cls-4" d="M63.81,48.55c.2.41-.41,1.44-.72,1.44h-9.83v-1.44h10.55Z"/>
  <path class="cls-4" d="M181.34,24.56c.2.41-.41,1.44-.72,1.44h-9.83v-1.44h10.55Z"/>
  <path class="cls-4" d="M140.08,24.56c.2.41-.41,1.44-.72,1.44h-9.83v-1.44h10.55Z"/>
  <circle class="cls-4" cx="86.93" cy="46.07" r="1.48"/>
  <circle class="cls-4" cx="105.06" cy="10.73" r="1.27"/>
  <circle class="cls-4" cx="26.62" cy="34.87" r="1.24"/>
  <path class="cls-6" d="M314.71,51.91c1.66.53,2.99,1.64,4.67,2.28,24.41,9.29,42.68-21.94,22.9-38.74l-4.07-2.88c7.09-.6,14.24-.58,21.34-.97,12.15-.67,24.26-1.38,36.46-1.92s29.32-5.53,33.71,10.92c-.6,13.65,1.19,28.63.13,42.13-.6,7.66-7.06,14.18-14.63,15.12l-89.7-.05c-4.14-.42-10.83-7.35-10.83-11.25v-14.64Z"/>
  <path class="cls-1" d="M401.06,86.46c-7.48,20.64,25,9.47,25.93,25.66.47,8.16-6.27,11.23-13.48,10.12-8.37-1.29-24.31-5.9-32.6-8.66-3.42-1.14-8.7-3.85-9.49-7.79-.21-1.06.17-5.44.4-6.58.77-3.82,5.66-8.69,6.69-12.74h22.55Z"/>
  <path class="cls-6" d="M376.43,137.48c-3.6-3.6-12.32.4-17.12-3.27-4.13-3.15-2.95-9.33,1.74-11.24,2.68-1.09,3.39-.06,5.69-.03,7.43.09,19.48-1.1,26.04,2.26,2.33,1.19,2.27,5.16,1.93,7.44-.71,4.78-4.74,18.54-6.58,23.17-1.73,4.34-5.52,6.66-9.96,4.15-8.22-4.65,3.94-16.8-1.74-22.49Z"/>
  <path class="cls-1" d="M344.45,86.46c2.33.35,14.16-.68,15.12.47.43.51,3.99,11.83,4.04,12.76.15,3-2.29,5.87-4.92,7.01-3.7,1.61-15.96,1.18-20.74,1.33-4.11.13-10.8,1.29-14.75.4-1.59-.36-4.01-3.17-4.43-4.68-1.06-3.85,1.92-8.02,5.8-8.62,7.12-1.11,19.43,2.72,19.88-8.66Z"/>
  <circle class="cls-6" cx="327.9" cy="33.12" r="14.32"/>
  <path class="cls-6" d="M322.22,155.88c-3.86,3.86-9.58-.08-7.77-5.13,4.79-6.7,9.23-15.3,14.45-21.53,2.64-3.15,5.88-5.05,9.33-1.74,5.9,5.66,10.89,14.22,16.99,19.96,2.89,3.86-.63,8.58-5.15,7.56-4.03-.92-7-10.37-13.18-11.29-9.41-1.4-9.92,7.44-14.67,12.19Z"/>
  <path class="cls-6" d="M271.68,151.09c-4.42-3.71-.79-7.43,1.57-10.84,2.63-3.8,10.7-15.63,13.62-18.05,1.85-1.54,4.04-1.65,6.02-.23,5.74,4.08-3.95,11.64-5.56,15.57-1.25,3.05-.84,7.16,1.48,9.63,3.16,3.36,13.07,4.33,14.8,7.74,2.1,4.12-1.49,7.92-5.82,6.78l-26.11-10.59Z"/>
  <path class="cls-2" d="M227.88,273.12c17.56-3.54,35.18,1.85,47.99,14.14,19.1,18.33,37.5,37.75,56.34,56.41,17.27,17.11,34.7,28.71,33.83,56.37-1.31,41.64-45.57,56.16-75.46,74.71-.4.25-2.51,1.48-2.25,1.82l64.93,29.82c33.25,14.26,41.77,55.56,22.68,84.93-24.65,28.74-47.64,59.17-72.76,87.5-14.86,16.76-34.09,24.65-56.6,19.21-4.45-1.08-8.24-3.28-12.77-4.02-33.82-5.57-69.86-6.7-103.98-11.64-66.65-9.64-68.55-98.41-8.16-112.64,10.31-2.43,15.89-1.17,25.9-.12,12.53,1.32,25.07,2.91,37.6,3.9-1.75-15.49-5.02-30.82-6.71-46.31-.49-4.45-1.3-10.53-1.46-14.85-.12-3.06.4-5.88.5-8.9l-35.72,6.26c-36.97,2.17-63.45-31.68-59.74-66.95,4.15-34.86,4.64-70.24,8.64-105.09,2.87-25.02,17.95-44.03,42.69-50.15-21.83-30.54-5.1-74.79,31.58-82.86,40.87-8.99,75.27,28.66,62.94,68.46ZM214.44,282.23c15.31-23.72,6.63-55.32-19.34-66.78-40.18-17.73-79.3,27.24-56.36,65.01,11.28,18.57,36.19,26.74,56.03,17.37-2.87-.83-5.29-2.53-7.46-4.54h-.69c-5.77,10.12-21.9,8.39-26.15-2.42-6.34-16.12,14.32-28.32,25.42-15.36,5.38-8.7,18.24-9.8,24.69-1.66,2.06,2.6,2.24,4.44,3.13,7.43.14.45.09,1.09.71.95ZM205.49,283.39c0-3.66-2.97-6.63-6.63-6.63s-6.63,2.97-6.63,6.63,2.97,6.63,6.63,6.63,6.63-2.97,6.63-6.63ZM181.05,284.98c0-3.68-2.99-6.67-6.67-6.67s-6.67,2.99-6.67,6.67,2.99,6.67,6.67,6.67,6.67-2.99,6.67-6.67ZM344.76,367.34c-1.3-1.38-3.69-2.92-5.06-4.3-15.66-15.71-31.55-31.23-47.32-46.72-13.58-13.34-28.7-34.05-48.9-35.54-4.52-.33-16.29-.01-20.04,2.42-.35.23-3.8,5.81-4.7,6.94-3.16,3.99-6.97,7.53-11.15,10.44-3.2,2.22-8.1,3.8-9.69,7.1-.81,1.7-2.81,7.65-2.64,9.31.14,1.38,2.5,5.92,3.11,7.96.99,3.3,1.57,6.7,2.17,10.08,3.77-.73,8.34-.66,12.25-.5,26.98,1.06,54.01,4.15,81,5.36,13.77,1.62,24.69,22.02,21.66,34.51-.53,2.2-2.35,4.74-2.62,6.49-1.43,9.13,1.88,17.2-2.57,26.7-1.02,2.18-2.74,3.95-3.7,6.13,13.83,3.7,14.24,23.44.61,28.21-1.33.47-5.66.98-6.14,1.54-.38.44-2.44,9.01-3.1,10.81-1.06,2.9-2.44,5.65-3.85,8.38l18.55-10.47c10.41-7.03,23.45-11.79,31.81-21.45,16.43-18.99,18-44.63.32-63.4ZM180.76,310.17c-11.23.4-22.12-2.03-31.71-7.87-2.05-1.25-8.27-6.7-9.32-7.01-3.31-.99-13.74,3.61-16.93,5.42-15.1,8.52-23.35,24.06-23.97,41.28-1.41,34.85-7.25,70.36-8.63,105.09-1.28,32.01,23.63,58,56.29,53.42,36.13-5.06,72.54-14.96,108.85-19.72,15.3-3.31,27.94-13.38,34.03-27.87.26-.62,3.27-8.05,2.07-8.01-9.76,1.51-20.57,6.75-29.26-.46-2.91,5.72-7.49,10.3-13.77,12.13-12.42,1.03-25.75,4.85-38.05,5.61-23.62,1.45-27.84-31.19-4.67-35.86,4.28-.86,9.23-.85,13.56-1.81-.46-1.07-1.32-4.63-2.24-4.95-3.67-1.27-10.04-.19-14.18-.69-10.43-1.25-19.64-11.29-20.54-21.68s-.65-27.81,0-38.43c.5-8.15,3.19-15.47,10.13-20.21-.7-10.65-5.16-20.09-11.65-28.37ZM304.15,400.04c.48-3.4-.35-7.76,0-11.28-18.86,9.28-39.11-9.05-30.93-28.78,2.43-5.86,6.15-8.66,11.54-11.48.31-.16,1.66-.25.68-1-.26-.2-5.37.06-6.47,0-24.62-1.46-49.25-3.53-73.91-4.81-6.48.18-12.75,5.63-13.91,11.99-1.43,7.82-.11,21.92-.2,30.51-.03,3.08-.78,6.18-.49,9.57.75,8.86,6.74,15.2,15.59,16.08l87.74.45c4.63-.63,9.72-6.75,10.36-11.23ZM307.65,368.89c0-7.71-6.25-13.96-13.95-13.96s-13.95,6.25-13.95,13.96,6.25,13.96,13.95,13.96,13.95-6.25,13.95-13.96ZM246.82,419.47h-19.91c.58,3.8,1.57,6.55-.75,10.04-4.54,6.83-20.53,1.49-25.73,9.3-4.5,6.77-.06,14.29,7.55,15.23,11.93-2.67,26.07-2.5,37.74-5.43,5.97-1.5,10.16-7.1,8.28-13.3-.52-1.72-6.36-15.58-7.19-15.84ZM258.1,419.47c-.39.06-1.33-.09-1.43,0-.85.82,1.91,6.19,1.43,0ZM281.61,419.95c-.88-.58-13.16.44-15.35,0,.33,7.82-4.86,18.47,6.52,20.11,9.5-2.45,21.47-2.78,30.63-5.74,5.43-1.75,7.73-7.7,2.9-11.49-6.33-4.97-16.7,4.93-24.25-1.68-.4-.35-.4-1.16-.46-1.2ZM364.89,524.74c-8.04-8.39-16.48-10.7-26.52-15.45-20.24-9.57-40.55-19.02-60.88-28.41-6.34,3.44-12.24,6.39-19.39,7.93-22.64,4.88-47.29,6.88-69.67,12.37-.72.18-1.5.27-2.07.81-1.93,11.58.12,22.76,6.1,32.8,11.47,19.28,37.93,23.88,56.19,34.49,5.46,3.17,6.56,8.62,2.93,13.78-11.14,15.83-32.98,32.67-36.9,51.86-8.87,43.43,40.68,73.03,74.83,45.58,24.73-28.79,50.57-57.26,74.12-87.09,16.1-20.39,20.59-48.48,1.27-68.66ZM245.14,576.87l-41.1-19.12c-5.41-3-9.6-7.45-14.07-11.6l3.87,27.59c-.54,6.71-4.63,8.6-10.83,8.39-30.42-1.02-60.6-16.38-84.69,11.27-25.71,29.51-7.78,74.62,30.05,80.34l93.26,10.6c-7.3-7.96-12.91-17.04-15.2-27.74-7.45-34.89,17.17-52.19,36.3-76.16.44-.55,2.71-3.18,2.41-3.58Z"/>
  <path class="cls-6" d="M206.16,122.56c2.27-.47,3.84,0,5.65,1.33,4.65,3.41,11.94,11.84,16.3,16.33.66.68,1.63,1.03,2.18,1.66,4.73,5.42-2.08,14.36-8.88,9.36-3.51-2.58-6.81-8.95-11.86-8.53-7.41.62-7.52,17.66-16.96,14.31-3.86-1.37-4.82-5.28-3.6-8.92.99-2.95,10.21-19.01,12.29-21.78,1-1.34,3.23-3.42,4.88-3.76Z"/>
  <path class="cls-6" d="M128.74,144.21c-2.12,1.9-6.68,8.55-9.08,8.92-4.08.64-7.02-2.51-5.44-6.41.51-1.24,3.41-4.34,4.5-5.57,3.43-3.87,10.48-12.29,14.15-15.12,2.79-2.15,5.93-2.7,8.38.28,3.07,3.75,11.42,17,13.61,21.42,2.31,4.67.17,8.98-5.32,7.72-3.16-.73-6.2-10.48-10.39-12.64-3.54-1.82-7.5-1.21-10.41,1.4Z"/>
  <path class="cls-6" d="M98.2,115.88c5.29,5.99-8.04,10.95-10.17,15.69-4.08,9.1,5.45,11.8,10.54,16.33s.39,11.34-6.33,7.29c-4.5-2.71-16.79-11.28-20.29-14.73-2.92-2.88-3.47-5.63-.48-8.66s17.06-14.55,20.49-16.46c2.21-1.23,4.4-1.55,6.24.54Z"/>
  <path class="cls-6" d="M187.92,124.47c2.73-.64,5.32.58,5.71,3.25-2.71,4.4-4.85,9.21-7.56,13.6-.89,1.44-2.43,3.09-3.48,4.68-1.86,2.81-4.12,9.67-8.55,7.54-2.05-.99-2.89-3.53-1.92-5.54,4.42-6.14,7.85-14.9,12.38-20.73.77-.99,2.22-2.53,3.42-2.81Z"/>
  <polygon class="cls-3" points="357.88 758.73 361.7 747.43 375.34 747.18 378.99 758.73 357.88 758.73"/>
  <polygon class="cls-3" points="362.68 743.37 368.2 725.61 374.2 743.37 362.68 743.37"/>
  <polygon class="cls-3" points="260.02 743.37 248.98 743.37 254.5 725.61 260.02 743.37"/>
  <path class="cls-6" d="M364.89,524.74c19.32,20.18,14.84,48.27-1.27,68.66-23.55,29.83-49.39,58.3-74.12,87.09-34.15,27.45-83.7-2.15-74.83-45.58,3.92-19.19,25.76-36.03,36.9-51.86,3.63-5.16,2.53-10.61-2.93-13.78-18.26-10.61-44.72-15.21-56.19-34.49-5.98-10.04-8.03-21.22-6.1-32.8.58-.54,1.35-.63,2.07-.81,22.38-5.48,47.04-7.49,69.67-12.37,7.15-1.54,13.05-4.49,19.39-7.93,20.33,9.39,40.64,18.83,60.88,28.41,10.04,4.75,18.48,7.06,26.52,15.45Z"/>
  <path class="cls-6" d="M180.76,310.17c6.48,8.28,10.95,17.73,11.65,28.37-6.94,4.74-9.63,12.06-10.13,20.21-.65,10.62-.9,27.98,0,38.43s10.11,20.43,20.54,21.68c4.15.5,10.51-.58,14.18.69.93.32,1.78,3.88,2.24,4.95-4.33.96-9.27.95-13.56,1.81-23.17,4.67-18.95,37.31,4.67,35.86,12.3-.76,25.63-4.58,38.05-5.61,6.28-1.83,10.85-6.41,13.77-12.13,8.69,7.21,19.5,1.97,29.26.46,1.2-.05-1.81,7.39-2.07,8.01-6.08,14.48-18.72,24.55-34.03,27.87-36.32,4.76-72.73,14.66-108.85,19.72-32.66,4.58-57.57-21.42-56.29-53.42,1.39-34.73,7.22-70.24,8.63-105.09.62-17.22,8.87-32.76,23.97-41.28,3.19-1.8,13.62-6.4,16.93-5.42,1.05.31,7.27,5.76,9.32,7.01,9.59,5.84,20.48,8.27,31.71,7.87Z"/>
  <path class="cls-6" d="M245.14,576.87c.3.4-1.97,3.03-2.41,3.58-19.12,23.96-43.75,41.27-36.3,76.16,2.28,10.7,7.9,19.78,15.2,27.74l-93.26-10.6c-37.82-5.71-55.75-50.83-30.05-80.34,24.09-27.65,54.27-12.29,84.69-11.27,6.2.21,10.29-1.69,10.83-8.39l-3.87-27.59c4.47,4.15,8.66,8.6,14.07,11.6l41.1,19.12Z"/>
  <path class="cls-6" d="M344.76,367.34c17.68,18.77,16.11,44.41-.32,63.4-8.35,9.65-21.4,14.42-31.81,21.45l-18.55,10.47c1.41-2.73,2.79-5.48,3.85-8.38.66-1.8,2.72-10.38,3.1-10.81.48-.56,4.81-1.07,6.14-1.54,13.63-4.77,13.21-24.51-.61-28.21.96-2.19,2.68-3.95,3.7-6.13,4.45-9.5,1.14-17.58,2.57-26.7.27-1.75,2.09-4.29,2.62-6.49,3.03-12.49-7.89-32.88-21.66-34.51-26.99-1.21-54.01-4.3-81-5.36-3.91-.15-8.48-.23-12.25.5-.6-3.38-1.18-6.78-2.17-10.08-.61-2.04-2.97-6.58-3.11-7.96-.17-1.66,1.83-7.61,2.64-9.31,1.59-3.3,6.5-4.88,9.69-7.1,4.18-2.9,7.99-6.45,11.15-10.44.9-1.13,4.35-6.71,4.7-6.94,3.75-2.43,15.52-2.76,20.04-2.42,20.2,1.49,35.32,22.2,48.9,35.54,15.77,15.49,31.66,31.01,47.32,46.72,1.37,1.38,3.76,2.92,5.06,4.3Z"/>
  <path class="cls-6" d="M304.15,400.04c-.63,4.48-5.72,10.6-10.36,11.23l-87.74-.45c-8.85-.87-14.84-7.21-15.59-16.08-.29-3.39.46-6.49.49-9.57.09-8.59-1.23-22.69.2-30.51,1.16-6.36,7.43-11.82,13.91-11.99,24.65,1.28,49.28,3.35,73.91,4.81,1.1.06,6.21-.19,6.47,0,.97.75-.37.83-.68,1-5.38,2.83-9.11,5.63-11.54,11.48-8.17,19.73,12.07,38.07,30.93,28.78-.35,3.51.48,7.88,0,11.28Z"/>
  <path class="cls-6" d="M214.44,282.23c-.62.14-.58-.5-.71-.95-.89-2.99-1.07-4.83-3.13-7.43-6.46-8.14-19.31-7.04-24.69,1.66-11.1-12.97-31.76-.76-25.42,15.36,4.25,10.81,20.38,12.55,26.15,2.41h.69c2.16,2.03,4.59,3.73,7.46,4.55-19.84,9.37-44.75,1.21-56.03-17.37-22.94-37.77,16.18-82.74,56.36-65.01,25.97,11.46,34.65,43.06,19.34,66.78Z"/>
  <path class="cls-1" d="M246.82,419.47c.83.26,6.67,14.11,7.19,15.84,1.88,6.21-2.31,11.81-8.28,13.3-11.68,2.93-25.81,2.76-37.74,5.43-7.61-.94-12.06-8.46-7.55-15.23,5.2-7.81,21.19-2.47,25.73-9.3,2.33-3.5,1.33-6.24.75-10.04h19.91Z"/>
  <path class="cls-1" d="M281.61,419.95c.05.04.06.85.46,1.2,7.55,6.61,17.91-3.29,24.25,1.68,4.83,3.79,2.52,9.74-2.9,11.49-9.17,2.96-21.13,3.29-30.63,5.74-11.38-1.64-6.19-12.29-6.52-20.11,2.19.44,14.47-.58,15.35,0Z"/>
  <circle class="cls-6" cx="293.69" cy="368.89" r="13.95"/>
  <circle class="cls-6" cx="174.38" cy="284.98" r="6.67"/>
  <circle class="cls-6" cx="198.86" cy="283.39" r="6.63"/>
  <path class="cls-3" d="M258.1,419.47c.47,6.19-2.28.83-1.43,0,.1-.1,1.05.05,1.43,0Z"/>
</svg>