<?xml version="1.0" encoding="UTF-8"?>
<svg id="Layer_1" data-name="Layer 1" xmlns="http://www.w3.org/2000/svg" viewBox="0 0 474.96 499.44">
  <defs>
    <style>
      .cls-1 {
        fill: #ba433a;
      }

      .cls-2 {
        fill: #43bec5;
      }

      .cls-3 {
        fill: #b9443b;
      }

      .cls-4 {
        fill: #b8bc99;
      }
    </style>
  </defs>
  <path class="cls-2" d="M368.55,468.34c-9.13,10.21-23.63,20.47-36.49,25.28-31.64,11.84-66.91,2.52-89.05-22.61l-83.25-75.32c-.94-.43-3.78,1.66-4.79,2.17-15.81,7.99-35.69,3.05-43.39-13.47-2.17-4.66-2.82-10.23-4.11-15.2-2.39,2.81-4.63,5.23-7.84,7.15-9.06,5.43-19.92,4.4-28.25-1.88-5.83-4.39-11.36-9.37-17.1-13.9-7.17-5.65-15.44-11.35-22.24-17.29-10.7-9.35-10.59-24.46-2.53-35.49-18.89-5.99-30.8-25.37-29.28-44.99,2.54-22.4,3.53-45,6.01-67.4,2.92-26.35,22.27-44.85,49.3-43.79l148,13.22c1.43.14,2.3-1.15,3.4-1.89,7.24-4.88,15.16-8.1,24.06-7.96-1.82-4.51-3.66-9.02-5.59-13.48-4.92-11.4-10.36-22.21-15.89-33.29-8.72-17.49-16.3-36.92-20.45-56.08-3.4-15.73-8.1-47.31,13.8-50.85,15.7-2.54,43.74,13.49,58.42,20.12,15.21,6.86,31.02,13.27,47.37,16.92,16.84,3.76,34.21,4.03,51.18,6.93,34.13,5.83,65.88,18.26,87.62,46.18,27.58,35.41,32.35,72.97,22.29,116.28-2.95,12.7-6.57,25.66-12.75,37.16,6.59,18.22,6.64,38.03-.17,56.18-1.71,4.55-4.04,8.87-6.22,13.21-24.28,48.43-49.67,96.37-74.53,144.48-2.3,3.38-4.82,6.56-7.54,9.61ZM452.41,234.61c3.52-8.32,6.2-17.03,8.38-25.8,10.2-41.09,6.74-76.72-19.08-110.9-16.04-21.23-39.43-33.47-64.86-40.21-25.8-6.84-52.23-5.87-77.97-12.71-20.94-5.56-40.57-15.22-60.18-24.02-6.07-2.73-12.37-5.92-18.7-7.92-4.8-1.52-13.69-3.42-18.16-.81-3.75,2.19-5.22,8.6-5.78,12.64-.45,3.24.15,7.43.39,10.76.37,5.16.91,10.23,1.98,15.29,3.2,15.26,9.13,29.83,14.89,44.12,2.31,5.73,5.93,11.57,8.71,17.2,5.93,12.06,11.28,24.42,16.66,36.84l2.68,7.03c24.33,5.97,38.1,31.39,29.51,55.17-3.58,9.91-10.68,17.58-19.81,22.64-.83.46-2.42.78-2.69,1.62l-1.99,23.12c11.16,10.12,22.33,20.22,33.55,30.26.7.63,2.19,2.8,3,2.04.15-.14,1.42-2.63,1.68-3.11,6.62-12.24,12.89-24.99,19.19-37.42,4.12-8.12,7.35-16.34,12.63-23.83,30.36-43.07,93.9-45.49,127.33-4.6,3.24,3.96,5.84,8.32,8.64,12.59ZM238.68,251.4c.05-1.54.1-3.15.24-4.68,1.09-11.9,2.86-24.6,3.37-36.45.62-14.54-6.36-28.18-20-34-5.19-2.22-10.54-2.3-16.11-2.84-49.46-4.76-99.04-8.32-148.48-13.19-21.05-2.91-40.32,12.6-42.82,33.46-2.77,23.24-3.5,46.79-6.24,70.05-1.28,19.88,13.07,36.63,32.97,38.03,5.74.4,11.76.23,17.53.46,13.72.55,27.51,1.34,41.24,1.7,1.8.05,3.61-.05,5.4-.01,2.2-24.05,15.62-46.23,35.71-59.4,27.84-18.25,64.26-17.35,91.17,2.21,1.78,1.29,3.53,2.97,5.29,4.3.24.18.3.47.72.36ZM249.48,225.01c.15.17,1.5-.83,1.75-1,12.49-8.7,17.3-26.03,11.31-40.01-7.4-17.27-26.75-25.32-44.25-18-.07.62,0,.38.35.48,1.2.35,2.47.51,3.67.89,18.38,5.81,29.18,23.95,28.37,42.89-.18,4.14-1.01,8.32-1.21,12.47-.04.76.01,1.52,0,2.28ZM135.14,362.14c2.58,2.63,5.35,4.49,8.08,6.92,32.37,28.88,64.32,58.4,96.45,87.54,14.28,12.95,25.27,25.14,44.59,30.73,35.29,10.21,71.96-9.7,88.85-40.68,8.63-15.82,16.49-32.59,24.75-48.65,16.85-32.76,34.08-65.45,50.24-98.48,18.77-46.68-14.77-96.76-64.65-98.25-27.12-.81-54.33,15.59-65.91,40.14-8.82,18.72-18.56,37.29-28.49,55.47-3.31,3.74-8.43,4.16-12.24.96-2.53-2.12-5.18-4.71-7.68-6.96-12.14-10.91-24.29-23.17-36.83-33.46-26.82-22.01-64.72-23.85-91.99-1.33-33.1,27.33-35.25,75.45-5.19,106.07ZM90.91,311.85c-17.25-.53-34.41-1.15-51.64-1.88-8.25,6.63-10.13,19.66-1.61,26.95,9.84,8.42,21.28,16.49,31.54,24.59,4.79,3.78,9.6,9.34,16.08,9.83,16.15,1.2,24.19-17.95,11.98-28.78-3.68-3.26-15.38-10.75-16.79-14.63-1.23-3.41-.68-7.17,2.04-9.72,2.43-2.29,5.96-4,8.4-6.35ZM102.67,312.33v4.44c5.58,19.94,9.48,40.45,15.23,60.33,3.66,12.65,14.76,17.59,27.28,15.52,2.86-.47,5.15-1.81,7.62-3.17l-2.88-2.88c-9.47-9.02-20.49-16.46-28.41-27-9.37-12.48-14.76-27.45-15.97-43.04-.22-2.87,1.23-4.77-2.88-4.2ZM97.87,332.24l-3.23-12.71-5.9,4.42c-.54.66.13,1.37.62,1.81,1.95,1.79,5.09,4.14,7.26,5.75.18.13,1.21.79,1.25.73Z"/>
  <path class="cls-1" d="M135.14,362.14c-30.06-30.62-27.91-78.74,5.19-106.07,27.26-22.51,65.16-20.68,91.99,1.33,12.54,10.29,24.69,22.54,36.83,33.46,2.5,2.25,5.15,4.83,7.68,6.96,3.81,3.2,8.93,2.78,12.24-.96,9.92-18.18,19.67-36.75,28.49-55.47,11.57-24.55,38.79-40.95,65.91-40.14,49.88,1.49,83.42,51.57,64.65,98.25-16.16,33.04-33.4,65.72-50.24,98.48-8.26,16.07-16.12,32.83-24.75,48.65-16.9,30.98-53.57,50.89-88.85,40.68-19.32-5.59-30.31-17.79-44.59-30.73-32.14-29.14-64.09-58.66-96.45-87.54-2.72-2.43-5.49-4.29-8.08-6.92Z"/>
  <path class="cls-1" d="M452.41,234.61c-2.8-4.27-5.4-8.62-8.64-12.59-33.43-40.89-96.96-38.47-127.33,4.6-5.28,7.49-8.52,15.71-12.63,23.83-6.3,12.43-12.57,25.18-19.19,37.42-.26.49-1.54,2.98-1.68,3.11-.8.75-2.29-1.41-3-2.04-11.22-10.05-22.39-20.14-33.55-30.26l1.99-23.12c.27-.84,1.87-1.17,2.69-1.62,9.14-5.06,16.24-12.73,19.81-22.64,8.58-23.79-5.18-49.2-29.51-55.17l-2.68-7.03c-5.38-12.42-10.72-24.78-16.66-36.84-2.77-5.63-6.39-11.47-8.71-17.2-5.77-14.29-11.69-28.86-14.89-44.12-1.06-5.07-1.6-10.13-1.98-15.29-.24-3.33-.84-7.52-.39-10.76.56-4.04,2.03-10.45,5.78-12.64,4.47-2.61,13.36-.71,18.16.81,6.34,2,12.63,5.2,18.7,7.92,19.6,8.8,39.23,18.46,60.18,24.02,25.74,6.84,52.17,5.87,77.97,12.71,25.43,6.74,48.82,18.97,64.86,40.21,25.82,34.18,29.28,69.82,19.08,110.9-2.18,8.78-4.86,17.49-8.38,25.8ZM264.37,141.65c0-1.67-1.35-3.02-3.02-3.02s-3.02,1.35-3.02,3.02,1.35,3.02,3.02,3.02,3.02-1.35,3.02-3.02ZM303.71,144.77c0-1.53-1.24-2.78-2.78-2.78s-2.78,1.24-2.78,2.78,1.24,2.78,2.78,2.78,2.78-1.24,2.78-2.78ZM275.7,153.21c-.15-.08-.24-.54-.61-.7-1.4-.65-3.81.12-5.23.55.03.53,1.07.6,1.16.75.14.24-.02,1.02.09,1.47.52,2.26,7.05,3.55,8.36,1.75,1.52-2.08-2.73-3.25-3.78-3.82Z"/>
  <path class="cls-1" d="M238.68,251.4c-.42.11-.48-.18-.72-.36-1.76-1.33-3.51-3.01-5.29-4.3-26.91-19.55-63.33-20.45-91.17-2.21-20.09,13.17-33.52,35.35-35.71,59.4-1.8-.04-3.61.06-5.4.01-13.73-.36-27.52-1.15-41.24-1.7-5.77-.23-11.8-.06-17.53-.46-19.9-1.4-34.25-18.15-32.97-38.03,2.74-23.25,3.46-46.81,6.24-70.05,2.49-20.86,21.77-36.38,42.82-33.46,49.45,4.87,99.03,8.43,148.48,13.19,5.58.54,10.92.62,16.11,2.84,13.64,5.82,20.61,19.46,20,34-.5,11.85-2.27,24.55-3.37,36.45-.14,1.53-.19,3.14-.24,4.68Z"/>
  <path class="cls-4" d="M90.91,311.85c-2.44,2.36-5.97,4.07-8.4,6.35-2.72,2.55-3.27,6.31-2.04,9.72,1.41,3.89,13.11,11.37,16.79,14.63,12.21,10.83,4.17,29.98-11.98,28.78-6.49-.48-11.29-6.05-16.08-9.83-10.26-8.1-21.7-16.17-31.54-24.59-8.52-7.29-6.64-20.32,1.61-26.95,17.23.73,34.39,1.35,51.64,1.88Z"/>
  <path class="cls-3" d="M249.48,225.01c.02-.76-.03-1.52,0-2.28.19-4.14,1.03-8.32,1.21-12.47.81-18.95-9.99-37.09-28.37-42.89-1.2-.38-2.47-.54-3.67-.89-.35-.1-.42.14-.35-.48,17.5-7.33,36.85.72,44.25,18,5.99,13.98,1.18,31.31-11.31,40.01-.25.18-1.6,1.18-1.75,1Z"/>
  <path class="cls-4" d="M102.67,312.33c4.11-.58,2.66,1.33,2.88,4.2,1.21,15.59,6.6,30.56,15.97,43.04,7.92,10.54,18.93,17.99,28.41,27l2.88,2.88c-2.48,1.37-4.77,2.7-7.62,3.17-12.52,2.07-23.63-2.87-27.28-15.52-5.75-19.89-9.64-40.39-15.23-60.33v-4.44Z"/>
  <path class="cls-3" d="M97.87,332.24c-.04.06-1.07-.6-1.25-.73-2.17-1.61-5.31-3.96-7.26-5.75-.49-.45-1.16-1.15-.62-1.81l5.9-4.42,3.23,12.71Z"/>
  <path class="cls-2" d="M275.7,153.21c1.05.56,5.3,1.73,3.78,3.82-1.31,1.8-7.84.51-8.36-1.75-.1-.45.06-1.24-.09-1.47-.09-.15-1.13-.23-1.16-.75,1.42-.43,3.83-1.2,5.23-.55.36.17.46.62.61.7Z"/>
  <circle class="cls-2" cx="261.35" cy="141.65" r="3.02"/>
  <circle class="cls-2" cx="300.93" cy="144.77" r="2.78"/>
</svg>