<?xml version="1.0" encoding="UTF-8"?>
<svg id="Layer_1" data-name="Layer 1" xmlns="http://www.w3.org/2000/svg" viewBox="0 0 513.51 328.93">
  <defs>
    <style>
      .cls-1 {
        fill: #b9bd99;
      }

      .cls-2 {
        fill: #70b744;
      }

      .cls-3 {
        fill: #44bec6;
      }

      .cls-4 {
        fill: #7492c4;
      }

      .cls-5 {
        fill: #ba443b;
      }

      .cls-6 {
        fill: #bb443b;
      }
    </style>
  </defs>
  <path class="cls-4" d="M25.98.36h461.91c12.02.77,24.26,11.64,25.27,23.84.07.9-.33,2.24.36,2.85v252.61c-.66.61-.31,1.94-.36,2.85-.53,10.57-9.9,20.27-19.85,23.03-7.99,2.21-16.76.75-24.99,1.17,11.29-7.78,12.6-22.97,4.78-33.77-5.24-7.23-12.49-14.03-17.94-21.2-.36-.47-.78-.94-.72-1.59.46.01.9-.09,1.31-.28,5.63-2.58,13.68-6.22,18.27-10.21,11.38-9.92,14.39-26.34,7.3-39.68-19.55-33.44-36.28-68.66-55.99-101.99-2.93-4.95-5.73-9.07-10.74-12.21,1.54-.02,3.09.01,4.62,0l-26.91-72.25-24.52.38-26.87,71.87h22.78l3.42-11.76h25.17c.58.14,1.73,5.9,2.01,6.78-4.68.06-9.17,1.66-13.41,3.5-15.16,6.57-29.69,14.94-44.71,21.84-12.4,7.59-18.75,23.13-13.33,37.03l29.04,60.3c.22,1.17-1.81,3.23-2.5,4.47-2.25,4.06-3.83,8.37-4.21,13.05-5.64-6.19-13.68-8.72-21.86-6.38-8.94,2.55-13.39,11.99-19.59,18.12-5.05-6.19-8.35-14.3-15.14-18.74,7.07-42.87-31.35-79.45-74-69.67-33.7,7.73-54.22,42.18-45.09,75.69,6.94,25.46,30.04,43.8,56.45,44.79-.15,2.76,7.36,18.59,6.44,19.53-11.02,1.17-21.17-.41-28.82,9.08-2.92,3.63-4.38,8.68-4.28,13.33H26.87c-13.51-1.47-22.22-9.6-25.8-22.42l-.37-3.72.02-254.59c0-.24,0-.47,0-.71l2.49-8.89C7.76,7.39,15.9,1.51,25.98.36ZM84.33,34.86c-2.22-9.04-8.63-17.09-17.6-20.27-13.47-4.78-33.9-2.71-43.59,8.73-12.85,15.18-10.78,46.5,6.28,58.1,8.93,6.07,25.16,6.94,35.34,4.16,10.9-2.98,18.62-12.66,20.26-23.63l-19.02-5.65c-1.95,5.04-3.4,11.15-9.22,13.11s-12.33.89-16-3.96c-4.21-5.57-4.08-19.48-2.24-26.02,3.87-13.78,22.59-13.97,26.45-.25l19.34-4.31ZM336.65,34.86c-3.69-12.94-13.66-21.4-27.23-22.41-28.94-2.14-44.23,13.23-42.16,42.15,1.84,25.67,22.73,35.7,46.34,31.75,12.4-2.07,21.4-11.92,23.62-24.11l-19.42-6.04c-1.41,6.57-4.37,13.23-11.91,13.89-8.06.7-13.27-1.96-15.32-9.97-1.58-6.15-1.6-18.51,1.45-24.18,4.51-8.38,17.03-9.43,22.72-1.77,1.21,1.63,1.45,3.3,2.55,4.9l19.37-4.23ZM88.97,85.75h22.78l3.24-11.7c8.52.05,17.19-.28,25.63.17,1.2,3.83,2.09,7.91,3.7,11.53h22.95l-26.91-72.25-24.52.38-26.87,71.87ZM203.38,13.52h-29v72.23h18.15V31.31l13.95,53.84.27.44c.64.45,13.96.37,15.52.18.39-.05.8.03,1.06-.37l14.05-54.09v54.44h18.15V13.52h-29l-11.21,43.41-11.92-43.41ZM482.2,13.52h-67.61v17.79h22.78v54.44h22.06V31.31h22.78V13.52Z"/>
  <path class="cls-2" d="M.71,25.97l-.02,254.59.37,3.72c-.29-1.05-.56-2.23-1.07-3.2V25.97h.71Z"/>
  <rect class="cls-2" x="25.98" width="461.91" height=".36"/>
  <path class="cls-5" d="M513.51,27.04c-.68-.61-.28-1.94-.36-2.85h.36v2.85Z"/>
  <path class="cls-5" d="M513.51,282.5h-.36c.05-.9-.31-2.24.36-2.85v2.85Z"/>
  <path class="cls-3" d="M394.3,80.77c.22.68,1.45,4.44,1.59,4.63.11.15.22.27.41.3,6.09.04,12.19.11,18.28.05,5,3.14,7.81,7.26,10.74,12.21,19.71,33.33,36.45,68.55,55.99,101.99,7.09,13.35,4.08,29.76-7.3,39.68-4.58,3.99-12.63,7.63-18.27,10.21-.41.19-.86.3-1.31.28-.06.65.36,1.12.72,1.59,5.44,7.17,12.7,13.97,17.94,21.2,7.82,10.8,6.51,25.99-4.78,33.77l-43.78,20.45c-13.27,4.88-26.45-2.35-29.94-15.78-2.17-.03-4.38-.13-6.55-.06-10.67.34-24.79,4.07-32.9-4.61-6.02-6.44-6.2-17.22-.7-24.01,7-8.64,16.97-6.65,26.87-7.3l.52-.52c-1.81-6.63-5.24-13.07-4.62-20.12-9.18.49-18.01-3.51-24.19-10.15l-3.74-4.8c-.89,3.09-2.5,5.84-4.46,8.35-8.79,11.21-18.88,21.58-27.55,32.94-10.15,8.88-24.09,6.45-32.37-3.6l-18.03-25.92c-1.13.08-2.41.94-2.04,2.2l15.42,41.19c1.04,3.6,1,8.09.18,11.74-3.94,17.48-22.77,15.7-36.47,17.08-7.58.76-21.46,3.36-28.37,2.03-8.85-1.71-16.09-10.03-16.3-19.11-.11-4.65,1.36-9.71,4.28-13.33,7.64-9.49,17.8-7.91,28.82-9.08.92-.95-6.58-16.78-6.44-19.53-26.41-.99-49.51-19.33-56.45-44.79-9.13-33.51,11.39-67.96,45.09-75.69,42.65-9.78,81.07,26.8,74,69.67,6.8,4.45,10.1,12.55,15.14,18.74,6.2-6.13,10.66-15.56,19.59-18.12,8.18-2.34,16.22.2,21.86,6.38.39-4.68,1.96-8.98,4.21-13.05.69-1.24,2.72-3.31,2.5-4.47l-29.04-60.3c-5.42-13.9.93-29.43,13.33-37.03,15.02-6.9,29.55-15.27,44.71-21.84,4.24-1.84,8.73-3.43,13.41-3.5ZM383.98,253.69c7.47,9.25,20.23,12.44,31.4,8.45,14.53-5.2,29.24-15.3,43.81-20.95,15.74-5.98,24.59-21.38,17.02-37.55l-57.78-105.18c-6.91-10.87-20.46-14.18-32.31-9.67-15.63,5.95-31.44,16.17-46.95,22.79-9.81,6.44-14.94,18.26-10.41,29.57l27.85,57.73c.64.45,5.05-2.73,6.13-3.24,13.42-6.35,30.02-2.15,38.61,9.92,12.67,17.81,3.75,42.9-17.37,48.15ZM283.2,203.71c0-30.27-24.55-54.81-54.82-54.81s-54.82,24.54-54.82,54.81,24.55,54.81,54.82,54.81,54.82-24.54,54.82-54.81ZM401,223.73c0-13.72-11.13-24.84-24.85-24.84s-24.85,11.12-24.85,24.84,11.13,24.84,24.85,24.84,24.85-11.12,24.85-24.84ZM286.83,220.95c-2.49,9.89-8.26,18.6-15.13,25.99l-.12.79c6.56,9.32,12.92,18.82,19.87,27.85,6.54,5.77,15.94,6.98,22.26.17,9.63-10.38,18.01-23.03,27.72-33.48,8.71-13.79-8.4-29.47-21.33-18.83-3.41,2.81-10.54,13.73-13.26,14.85-1.98.82-3.9.89-5.86,0-3.05-1.38-9.13-12.27-11.87-15.53-.31-.37-1.84-2.2-2.28-1.81ZM419.21,267.21c2.92,4.51,12.64,11.56,6.77,17.26-2.33,2.27-10.98,5.29-14.37,6.98-22.13,10.96-7.44,36.66,10.44,30.01,13.89-5.16,27.97-14.24,42-19.56,10.47-7.05,9.62-17.8,2.48-27.04-5.53-7.16-12.08-13.95-17.79-21.01l-1.42-.02c-9.4,4.39-18.58,9.28-28.11,13.37ZM259.42,256.53c-8.41,4.55-17.43,7.51-27.04,8.18.63,6.58,12.61,22.42,1.73,25.38-6.51,1.77-16.82.06-22.34,3.99-6.84,4.87-8.21,14.14-3.02,20.76,6.11,7.8,15.1,4.7,23.46,3.95,9.45-.85,19.07-1.37,28.46-2.5,10-1.2,14.98-8.3,13.97-18.23l-15.21-41.54ZM412.04,269.74c-9.7,1.3-19.28-.63-27.18-6.45.45,4.94,5.13,10.94,2.12,15.63-.92,1.43-2.14,1.95-3.71,2.34-8.04,2.03-18.72-2.05-24.37,5.88s-.45,18.34,8.56,19.14c5.44.49,13.8-.76,19.51-1.04,2.41-.12,4.91.37,7.24-.41,1.1-12.38,11.07-18.36,21.74-22.02l-3.93-13.08Z"/>
  <path class="cls-6" d="M203.38,13.52l11.92,43.41,11.21-43.41h29v72.23h-18.15V31.31l-14.05,54.09c-.26.4-.67.32-1.06.37-1.56.2-14.88.27-15.52-.18l-.27-.44-13.95-53.84v54.44h-18.15V13.52h29Z"/>
  <path class="cls-5" d="M394.3,80.77c-.28-.89-1.43-6.64-2.01-6.78h-25.17s-3.42,11.76-3.42,11.76h-22.78l26.87-71.87,24.52-.38,26.91,72.25c-1.54.02-3.09-.01-4.62,0-6.09.06-12.19,0-18.28-.05-.19-.03-.3-.15-.41-.3-.15-.2-1.37-3.95-1.59-4.63ZM387.54,58.35l-7.65-25.98-8.01,25.98h15.66Z"/>
  <path class="cls-5" d="M88.97,85.75L115.83,13.87l24.52-.38,26.91,72.25h-22.95c-1.61-3.63-2.49-7.71-3.7-11.53-8.44-.45-17.11-.12-25.63-.17l-3.24,11.7h-22.78ZM135.58,58.35l-7.65-25.98-8.01,25.98h15.66Z"/>
  <path class="cls-5" d="M84.33,34.86l-19.34,4.31c-3.86-13.72-22.58-13.53-26.45.25-1.84,6.54-1.97,20.44,2.24,26.02,3.66,4.85,10.44,5.83,16,3.96,5.82-1.96,7.27-8.07,9.22-13.11l19.02,5.65c-1.64,10.97-9.36,20.65-20.26,23.63-10.18,2.79-26.41,1.91-35.34-4.16-17.07-11.6-19.13-42.92-6.28-58.1,9.69-11.44,30.11-13.51,43.59-8.73,8.97,3.18,15.38,11.23,17.6,20.27Z"/>
  <path class="cls-5" d="M336.65,34.86l-19.37,4.23c-1.09-1.6-1.34-3.27-2.55-4.9-5.7-7.66-18.21-6.61-22.72,1.77-3.05,5.67-3.03,18.02-1.45,24.18,2.05,8.01,7.26,10.67,15.32,9.97,7.55-.66,10.51-7.32,11.91-13.89l19.42,6.04c-2.21,12.19-11.21,22.04-23.62,24.11-23.61,3.95-44.5-6.08-46.34-31.75-2.07-28.92,13.22-44.29,42.16-42.15,13.57,1,23.54,9.47,27.23,22.41Z"/>
  <polygon class="cls-6" points="482.2 13.52 482.2 31.31 459.42 31.31 459.42 85.75 437.36 85.75 437.36 31.31 414.58 31.31 414.58 13.52 482.2 13.52"/>
  <path class="cls-2" d="M.71,25.26c.13-3.6.82-5.6,2.49-8.89L.71,25.26Z"/>
  <path class="cls-4" d="M280.42,306.7c.82-3.65.86-8.14-.18-11.74l-15.42-41.19c-.37-1.26.91-2.12,2.04-2.2l18.03,25.92c8.28,10.05,22.22,12.48,32.37,3.6,8.67-11.36,18.76-21.72,27.55-32.94,1.97-2.51,3.57-5.27,4.46-8.35l3.74,4.8c6.19,6.63,15.01,10.64,24.19,10.15-.62,7.05,2.81,13.49,4.62,20.12l-.52.52c-9.9.65-19.87-1.34-26.87,7.3-5.5,6.79-5.32,17.57.7,24.01h-74.73Z"/>
  <path class="cls-6" d="M383.98,253.69c21.12-5.25,30.05-30.34,17.37-48.15-8.59-12.07-25.19-16.26-38.61-9.92-1.08.51-5.5,3.7-6.13,3.24l-27.85-57.73c-4.52-11.31.6-23.13,10.41-29.57,15.52-6.63,31.33-16.85,46.95-22.79,11.85-4.51,25.4-1.2,32.31,9.67l57.78,105.18c7.57,16.17-1.28,31.57-17.02,37.55-14.57,5.65-29.28,15.76-43.81,20.95-11.18,4-23.93.81-31.4-8.45Z"/>
  <path class="cls-5" d="M283.2,203.71c0,30.27-24.55,54.81-54.82,54.81s-54.82-24.54-54.82-54.81,24.55-54.81,54.82-54.81,54.82,24.54,54.82,54.81ZM277.17,213.59c0-15.6-12.65-28.24-28.25-28.24s-28.25,12.64-28.25,28.24,12.65,28.24,28.25,28.24,28.25-12.64,28.25-28.24Z"/>
  <path class="cls-1" d="M419.21,267.21c9.52-4.09,18.71-8.98,28.11-13.37l1.42.02c5.72,7.05,12.26,13.85,17.79,21.01,7.14,9.24,8,19.99-2.48,27.04-14.04,5.32-28.11,14.39-42,19.56-17.88,6.65-32.57-19.05-10.44-30.01,3.4-1.68,12.04-4.71,14.37-6.98,5.87-5.71-3.85-12.76-6.77-17.26Z"/>
  <path class="cls-1" d="M259.42,256.53l15.21,41.54c1.02,9.93-3.97,17.03-13.97,18.23-9.39,1.13-19.01,1.65-28.46,2.5-8.35.75-17.35,3.85-23.46-3.95-5.19-6.63-3.83-15.89,3.02-20.76,5.52-3.93,15.83-2.22,22.34-3.99,10.88-2.96-1.1-18.81-1.73-25.38,9.62-.67,18.64-3.64,27.04-8.18Z"/>
  <path class="cls-1" d="M286.83,220.95c.44-.39,1.97,1.44,2.28,1.81,2.73,3.26,8.81,14.15,11.87,15.53,1.96.89,3.88.82,5.86,0,2.71-1.13,9.85-12.05,13.26-14.85,12.93-10.64,30.04,5.04,21.33,18.83-9.71,10.45-18.1,23.1-27.72,33.48-6.32,6.81-15.72,5.61-22.26-.17-6.94-9.03-13.3-18.53-19.87-27.85l.12-.79c6.88-7.39,12.64-16.1,15.13-25.99Z"/>
  <ellipse class="cls-5" cx="376.15" cy="223.73" rx="24.85" ry="24.84"/>
  <path class="cls-1" d="M412.04,269.74l3.93,13.08c-10.68,3.67-20.65,9.64-21.74,22.02-2.33.77-4.83.29-7.24.41-5.71.28-14.07,1.52-19.51,1.04-9.01-.81-13.93-11.61-8.56-19.14,5.65-7.93,16.33-3.85,24.37-5.88,1.57-.4,2.79-.91,3.71-2.34,3.01-4.69-1.67-10.69-2.12-15.63,7.9,5.81,17.48,7.75,27.18,6.45Z"/>
  <polygon class="cls-4" points="387.54 58.35 371.88 58.35 379.89 32.37 387.54 58.35"/>
  <polygon class="cls-4" points="135.58 58.35 119.93 58.35 127.93 32.37 135.58 58.35"/>
  <path class="cls-3" d="M277.17,213.59c0,15.6-12.65,28.24-28.25,28.24s-28.25-12.64-28.25-28.24,12.65-28.24,28.25-28.24,28.25,12.64,28.25,28.24ZM270.9,213.59c0-12.13-9.84-21.97-21.97-21.97s-21.97,9.83-21.97,21.97,9.84,21.97,21.97,21.97,21.97-9.83,21.97-21.97Z"/>
  <ellipse class="cls-5" cx="248.93" cy="213.59" rx="21.97" ry="21.97"/>
</svg>