<?xml version="1.0" encoding="UTF-8"?>
<svg id="Layer_1" data-name="Layer 1" xmlns="http://www.w3.org/2000/svg" viewBox="0 0 306.24 653.18">
  <defs>
    <style>
      .cls-1 {
        fill: #b9bd99;
      }

      .cls-2 {
        fill: #44bdc6;
      }

      .cls-3 {
        fill: #ba443b;
      }

      .cls-4 {
        fill: #bb443b;
      }
    </style>
  </defs>
  <path class="cls-2" d="M183.56,0c1.88.52,3.8.7,5.67,1.32,2.28.76,4.57,2.05,6.54,3.4,17.01,11.64,32.89,27.31,49.75,39.4,23.49,7.36,24.7,39.5,2.2,49.11-12.52,14.35-23.36,31.61-36.05,45.65-3.21,3.55-7.16,6.72-11.93,7.79-.18,2.07.14,4.28-.04,6.33-.11,1.27-1.03,3.69-.93,4.66s1.96,1.96,2.65,2.64c11.21,10.97,17.3,24.52,16.6,40.49,1.03.49,5.03,4.85,5.89,4.25,3.78-7.79,5.85-16.94,15.07-19.88,13.76-4.4,26.27,8,22.05,21.75-5.77,10.8-10.03,23.49-15.92,34.09-3.6,6.47-10.85,9.8-18.15,8.72-9.57-1.42-14.93-10.2-22.59-14.99l16.09,23.05c3.04,5.25,3.61,11.86,1.3,17.5l56.36-7.16c14.86-.76,25.52,10.87,25.63,25.34l2.49,34.02v4.97c-.37,1.54-.45,3.02-.85,4.59-1.93,7.56-8.4,14.32-15.68,16.93-3.96,1.42-7.6,1.52-11.73,1.93l-7.76,10.88c8.06,3.75,17.85,4.27,22.93,12.48,7.45,12.05-.98,28.16-15.16,28.37,1.39,11.83-.68,23.02-6.05,33.56-1.13,2.21-2.6,4.3-3.74,6.51-3.94,7.66-7.69,15.41-11.81,22.97,2.27,4.27,3.67,8.6,3.27,13.53-1.03,12.62-5.56,26.74-7.13,39.47-3.67,11.49-18.15,16.25-27.81,8.85-1.88,3.01-3,6.45-4.76,9.52-8.52,14.84-23.8,24.74-40.65,27.38l-34.72,17.78-.47,2.48c7.98-.01,16.03-3.09,23.51.88,12.62,6.7,12.6,25.19,0,31.8-2.68,1.41-5.48,1.78-8.45,2.12-10.5,1.19-23.37,2.45-33.86,2.79s-19.43-6.02-20.65-16.46l-8.38,2.8c5.29,8.4,13.1,14.46,10.73,25.48-3.08,14.28-21.37,18.76-30.92,7.92-6.62-10.47-15.63-20.67-21.86-31.25-.62-1.05-1.33-2.39-1.74-3.54-.44-1.23-.87-4.46-1.21-5-.3-.47-5.63-3.93-6.69-4.8-8.78-7.18-17.1-19.22-20.13-30.19-6.79-35.7-16.3-71-22.8-106.74-.5-2.75-.85-5.01-1.03-7.83-.29-4.76-.2-9.64.71-14.35,2.79-14.43,12.43-28.43,25.38-35.36.18-.22-2.94-2.48-3.27-2.78-27.7-25.41-13.34-60.58-14.42-93.07-.85-25.5-2.78-48.49-.32-74.24,2.11-22.14,6.28-45.07,18.88-63.74l-13.04-27.24c-5.25-13.48.74-26.89,12.89-33.82s27.51-12.62,40.51-19.44c4.46-1.67,9.33-2.31,14.07-1.78,2.59-5.26,7.85-8.93,13.79-9.18,7.94-.34,13.3,5.79,19.73,9.33.4-.55-1.35-4.36-1.63-5.36-1.93-6.93-.89-14.69,3.06-20.71l45.62-57.82c2.86-3.04,6.39-5.37,10.34-6.74l5.66-1.33h4.97ZM239.46,94.75h-4.5c-3.66,0-10.51-3.54-13.35-5.91-16.24-13.59-10.14-39.33,10.08-44.88.33-.09,4.11-.55,3.73-1.08-.39.02-.66-.24-.94-.46-14.18-11.31-28.38-22.58-42.69-33.72-8.22-5.18-18.01-4-24.86,2.8-15.37,19.81-31.47,39.1-46.38,59.23-4.37,8.76-1.98,17.67,5.09,24.02,17.05,15.32,37.81,28.41,55.15,43.63,8.47,6.4,20.37,4.81,26.98-3.4l31.69-40.22ZM258.5,68.98c0-11.25-9.11-20.36-20.36-20.36s-20.36,9.12-20.36,20.36,9.11,20.36,20.36,20.36,20.36-9.12,20.36-20.36ZM94.65,88.3c-8.56,1.34-11.41,12.64-4.58,18.41,8.06,6.82,20.23,12.19,28.8,18.72,10.71,4,15.81-3.98,17.65-13.27.14-.71.36-1.43-.15-2.06-4.72-3.87-9.8-7.38-14.45-11.32-.48-.4-2.61-2.74-2.8-2.74s-2.24,1.36-3.5,1.43c-5.7.31-12.31-10.52-20.97-9.17ZM80.75,97.24c-4.24-.31-7.57.2-11.48,1.72-13.48,5.24-26.98,13.8-40.36,19.59-9.73,5.94-14.02,18.38-8.15,28.61l23.05,47.93c.41.28,3.98-2.32,4.84-2.75,15.22-7.63,34.08.69,38.41,17.12,3.83,14.54-4.34,28.88-18.58,33.17-.23.07-.68-.12-.45.47.31.8,2.93,3.1,3.75,3.71,7.35,5.44,17.42,6.47,25.65,2.41l32.71-16.05c-3.97-4-7.19-8.91-9.58-14.02-.68-1.46-1.52-4.78-2.2-5.79-.42-.64-2.17-2.03-2.8-2.87-6.89-8.98-6.55-21.84,1.08-30.29,1.13-1.26,3.49-2.7,4.21-3.64.8-1.05,1.69-3.5,2.54-4.84,1.43-2.25,3.04-4.35,4.56-6.53-2.88-3.48-4.34-7.47-4.86-11.93l-15.77-28.65c-6.12-4.65-13.11-8.17-19.32-12.68-4.94-3.59-7.69-8.4-7.23-14.67ZM140.54,133.28c4.84-.49,10.45.36,15.37,0l-2.58-9.85-11.86-9.1c-1.43,4.25-2.24,8.65-5.28,12.12-4.98,5.68-12.57,6.77-19.42,4.04l7.92,14.28c2.94-6.12,8.95-10.79,15.84-11.49ZM194.1,147.89c-5.1.14-10.1-1.1-14.48-3.69l-18.73-14.65c1.54,5.58-.08,8.86-6.05,9.33-8.64.68-17.05-2.58-23.31,5.27-6.96,8.73-.44,21.99,10.56,22.09,12.77.11,26.09.06,38.82-.34,8.96-.28,14.88-9.61,13.19-18ZM126.41,218.4c13.08,26.82,48.82,33.66,71.13,13.52,20.5-18.52,19.88-51.25-1.4-68.8-3.35,4.5-8.63,7.6-14.29,8.06-13.11,1.07-27.73-.59-41,.33-3.24-.24-5.96-1.37-8.81-2.78l-2.82,4.33c13-3.09,25.91,5.82,28.17,18.89,3.08,17.84-13.98,31.88-30.97,26.47ZM152.29,195.98c0-10.01-8.11-18.12-18.12-18.12s-18.12,8.11-18.12,18.12,8.11,18.12,18.12,18.12,18.12-8.11,18.12-18.12ZM61.8,243.88c-21.3.19-34.87-21.84-24.47-40.79.53-.97,2.46-3.16,2.37-4.02l-8.8-18.57c-.31-.38-.32-.36-.62,0-.77.95-2.06,3.54-2.7,4.76-15.45,29.49-15.61,76.94-14.24,109.73.38,9.25,1.53,18.34,1.27,27.65-.7,24.93-9.81,53.63,8.68,74.56,1.41,1.6,6.97,6.86,8.73,7.45.42.14.51.11.92.03,1.74-.32,4.63-1.78,6.7-2.34,13.88-3.77,28.29-1.92,40.72,5.2,1.67.96,4.39,3.25,5.77,3.86.5.22.74.23,1.27.21,2.82-.12,8.61-1.69,11.52-2.48,17.18-4.69,26.92-12.17,37.75-25.93,9.31-11.83,18.07-24.37,26.68-36.69,6.57-14.15-1.35-25.05-12.65-32.93-6.2-4.32-13.59-7.29-17.56-14.12-.99-1.7-1.52-3.55-2.53-5.23l-27.38,12.64c-11.5,4.41-23.49-1.97-26.2-13.87l-23.11,1.23c-19.67-1.61-20.88-29.1-1.23-32.01l13.19-.63c-1.21-5.84-4.84-11.67-4.04-17.7ZM217.1,207.53c-1.12,6.13-3.44,11.84-6.59,17.18-.58.98-3.19,4.21-3,4.97l14.96,12.71c7.25,3.93,14.37,2.18,18.28-5.13,5.57-10.42,9.78-22.3,15.33-32.82,2.17-10.38-8.45-18.49-17.77-12.81-5.38,3.28-6.63,11.65-9.97,16.74-1.6,2.43-4.21,3.19-6.96,2.18-.79-.29-4.04-3.24-4.28-3.01ZM82.55,216.62c0-11.98-9.71-21.68-21.68-21.68s-21.68,9.71-21.68,21.68,9.71,21.68,21.68,21.68,21.68-9.71,21.68-21.68ZM179.83,259.72l-5.65-8.48-2.03-2.33c-13.45,1.37-27.23-2.92-37.56-11.5l-5.39,2.6c-.06.27,1,1.51,1.25,1.85,8.33,11.13,24.07,21.99,18.24,37.83-2.13,5.8-6.77,9.92-12.62,11.76,1.04,8.92,10.03,12.37,16.52,16.8,15.87,10.82,25.02,25.86,13.7,44.34-8.89,11.44-16.98,23.58-25.92,34.96-3.9,4.96-7.94,9.56-12.7,13.72l16.91,15.64c4.51-8.96,11.31-16.75,19.87-22.06,2.16-1.34,6.07-2.77,7.7-4.02.19-.15.48-.59.53-.8.15-.74-.35-.38-.77-.45-21.06-3.64-17.41-31.19,2.19-30.78.66.01,1.26.3,1.85.32,2.76.07,5.49-.1,8.23.31-2.68-2.21-5.02-3.83-7.09-6.73-3.33-4.68-4.13-8.94-4.71-14.55-1.05-10.19-2.3-22.79-2.5-32.92-.06-2.96.34-5.66.94-8.54-16.65-3.61-18.88-25.93-3.09-32.78,3.75-1.63,8.22-2.83,12.11-4.2ZM178.59,247.6c-.45.44,5.53,8.02,6.03,9.04,1.29,2.66.8,6.11-1.88,7.69-3.3,1.94-9.21,3.01-12.95,4.75-13.28,6.18-6.98,24.63,6.96,22.18,10.69-4.45,22.46-7.51,33.07-11.97s9.3-13.24,4.13-21.23c-4.45-6.88-9.77-13.38-14.23-20.27-.31-.25-.55-.04-.84.1-1.37.66-3.54,2.67-5.09,3.62-4.57,2.82-9.89,5.14-15.19,6.09ZM123.53,242.67l-25.07,12.23c3.15,3.88,11.74,10.9,4.94,15.51-5.77,3.92-15.39,5-19.3,11.45-6.69,11.05,4.18,24.37,16.3,20.34l37.71-17.58c8.03-5.97,7.98-14.94,2.26-22.58-4.09-5.45-9.72-11.96-14.29-17.09-.59-.66-1.86-2.39-2.56-2.3ZM92.24,256.61c-8.33,1.74-17.18-.54-23.91-5.59.57,4.24,4.97,10.43,1.69,14.27-.92,1.08-2.67,1.68-4.05,1.85-6.52.81-15.57-1.3-19.95,4.59s-2.06,13.6,4.5,16.21c3.34,1.33,6.5.46,9.88.34,5.44-.19,10.87-.37,16.3-.63.67-7.26,4.62-12.54,10.92-15.94,1.06-.57,7.88-3.36,8.02-3.81l-3.4-11.3ZM210.89,284.58c3.07,3.87,5.78,8.45,6.21,13.51,1.68,19.86-19.2,32.34-35.81,21.53l-5.18-4.45c.32.32.31.81.32,1.23.23,8.69,1.37,17.37,1.92,26.04,3.2,10.51,9.13,14.32,19.97,13.91,28.26-1.07,57.06-5.35,85.39-6.54,9.61-1.22,17.23-10.08,17.27-19.72.05-13.21-2.98-27.64-3.16-40.98-2.46-10.75-9.96-16.07-20.93-15.41-18.97,1.15-38.94,6.11-58.04,7.5-3.02.2-4.98,2.9-7.96,3.38ZM177.07,296.73c-2.99,14.7,12.46,26.78,25.83,19.16,10.82-6.16,12.08-21.72,1.88-29.07l-27.72,9.91ZM270.83,356.34c-11.18.82-22.41,1.47-33.54,2.64-4.83,7.39-12.55,14.15-6.78,23.55,1.22,1.99,4.02,4.67,6.09,5.71,11.06,5.59,25.9,8.28,37.33,13.61,11.87,2.99,21.39-10.6,13.8-20.64-4.13-5.45-13.7-6.35-19.7-9.19-1.83-.87-3.11-2.78-3.27-4.8-.28-3.41,4.57-7.9,6.07-10.89ZM211.81,360.69c-6.34.47-12.73,1.41-19.1,1.25-.68-.02-1.62-.44-2.1-.35-.25.05-.66,1.18-1.02,1.55-.96.99-2.68,1.71-4.05,1.79-7.63.42-18.78-3.85-22,6.32-1.6,5.05,1.8,11.78,7.16,12.72,4.83.85,11.41.4,16.46.63s15.48,1.61,19.65.42c1.09-.31,3.19-1.41,4.1-2.11,7.17-5.51,2.01-15.04.91-22.21ZM226.1,365.04c-2.56-.61-5.17-.08-7.76,0,1.9,7.31,3.53,13.98-2.02,20.2-1.87,2.09-4.19,3.04-6.37,4.65,27.22,8.87,41.85,38.34,33.63,65.79-.74,2.46-1.85,4.76-2.57,7.22,4-.33,7.72,1.26,10.98,3.39.81-.14,2.61-4.87,3.14-5.88,3.75-7.17,7.83-14.23,11.5-21.42,5.11-10,7.46-20.88,5.44-32.1l-36.34-13.11c-9.56-4.2-14.99-14.09-11.64-24.37.52-1.6,1.45-2.83,2.01-4.36ZM199.09,466.31c7.08,3.36,12.81,9.04,17.54,15.17,20.98-12.14,29.69-38.34,19.78-60.73-11.67-26.38-43.97-36.61-68.79-21.48-12.37,7.55-20.88,20.93-22.58,35.35,6,.4,11.22,3.48,15.53,7.46,3.24-20.79,29.6-28.43,43.33-12.12,8.63,10.26,7.19,25.18-2.48,34.19-.63.59-1.65,1.06-2.14,1.52-.26.25-.29.21-.2.64ZM139.75,433.68c.2-1.55.44-3.12.79-4.65.29-1.27,1.89-6.11,1.56-6.82l-19.02-17.37c-2.56.91-4.97,2.67-7.48,3.91-7.44,3.66-15.57,5.86-23.67,7.55-.13.47.12.51.3.78.8,1.15,2.52,2.59,3.54,3.91,3.19,4.13,5.8,8.75,7.67,13.61,1.92-.31,3.74-1.08,5.71-1.23,8.08-.63,19.42-.31,27.67,0,.98.04,1.92.5,2.92.31ZM204.18,549.08c27.05-23.11,20.34-66.65-12.34-80.34-29.27-12.26-48.84,8.08-73.7,18.66-3.89,1.66-7.2,1.66-9.04-2.69-7.56-27.17-4.99-59.87-34.45-73.96C39.29,393.83-.08,423.92,6.8,462.15c8.03,34.56,13.32,70.89,22.17,105.19,8.08,31.31,39.92,51.43,70.84,36.56,2.43-1.17,4.9-2.87,7.37-4.12,28.16-14.24,56.27-28.59,84.33-43.02,4.98-2.56,8.24-3.9,12.66-7.68ZM182.87,426.64c-13.39,1.28-21.14,16.13-14.9,28.07.5.95,2.64,4.25,3.47,4.6,1.18.5,4.22.04,5.74.16,3.09.26,6.53.88,9.54,1.64,1.03.26,5.92,2.04,6.25,2.02,1.6-.14,5.63-3.75,6.72-5.07,11.09-13.31.34-33.07-16.82-31.43ZM109.88,438.76c-.89.09-4.56.51-4.59,1.59l9.16,42.43,38.81-19.57c.37-4.55.47-8.72-1.35-12.95-2.7-6.28-9.22-11.07-16.05-11.59s-19.16-.58-25.99.09ZM161.77,460.68c.17-.26.05-2.9,0-3.49-.39-4.52-2.89-9.48-6.48-12.31.7,1.53,1.52,2.98,2.09,4.58,1.35,3.8,1.74,7.86,1.63,11.88.11.12,2.68-.54,2.75-.66ZM219.58,485.89c5.29,10.07,8,20.97,6.79,32.42-.14,1.35-1.37,6.63-1.05,7.33.12.26,2.29,2.36,2.67,2.63,7.45,5.43,17.89.95,19.77-7.83,1.17-11.69,5.41-24.39,6.29-35.96.39-5.14-.83-10.03-4.96-13.36-3.43-2.76-7.02-3.19-11.28-2.64-4.64,7.03-10.71,13.52-18.23,17.41ZM138.83,590.27c-.43-.09-.77.11-1.15.24-2.74.98-16.71,8.09-18.83,9.74-1.2.93-2.54,3.81-4.07,5.25-.89.83-4.53,2.86-4.68,3.1-.84,1.33,1.53,6.42,2.53,7.74,3.59,4.74,8.64,5.57,14.26,5.31,11.26-.52,22.53-2.43,33.82-2.83,11.08-1.54,14.96-15.41,5.94-22.33-5.82-4.47-13.78-1.43-20.5-1.25-3.72.1-7.02-.66-7.3-4.97ZM57.77,610.15c-.4.5,3.23,5.79,3.78,6.62,5.25,7.88,11.43,17.37,17.21,24.73,11.22,14.29,29.24.35,21.19-13.12-2.15-3.6-6.72-8.32-8.34-11.85-.5-1.09-.44-2.1-.9-3.14-3.11.05-6.31.97-9.48,1.12-7.82.38-16.32-1.24-23.46-4.36Z"/>
  <path class="cls-4" d="M204.18,549.08c-4.42,3.78-7.68,5.12-12.66,7.68-28.06,14.43-56.17,28.78-84.33,43.02-2.48,1.25-4.95,2.95-7.37,4.12-30.92,14.88-62.76-5.25-70.84-36.56-8.86-34.31-14.14-70.63-22.17-105.19-6.88-38.23,32.49-68.32,67.85-51.4,29.46,14.09,26.89,46.79,34.45,73.96,1.84,4.35,5.15,4.35,9.04,2.69,24.86-10.58,44.43-30.92,73.7-18.66,32.68,13.69,39.39,57.22,12.34,80.34Z"/>
  <path class="cls-4" d="M61.8,243.88c-.8,6.04,2.83,11.86,4.04,17.7l-13.19.63c-19.64,2.92-18.43,30.41,1.23,32.01l23.11-1.23c2.71,11.91,14.71,18.29,26.2,13.87l27.38-12.64c1.01,1.68,1.54,3.53,2.53,5.23,3.97,6.83,11.37,9.8,17.56,14.12,11.31,7.89,19.22,18.79,12.65,32.93-8.61,12.32-17.37,24.86-26.68,36.69-10.83,13.76-20.57,21.24-37.75,25.93-2.91.8-8.7,2.36-11.52,2.48-.53.02-.77,0-1.27-.21-1.39-.6-4.1-2.9-5.77-3.86-12.43-7.13-26.84-8.98-40.72-5.2-2.06.56-4.96,2.02-6.7,2.34-.41.08-.5.11-.92-.03-1.76-.59-7.31-5.85-8.73-7.45-18.49-20.93-9.38-49.63-8.68-74.56.26-9.3-.88-18.4-1.27-27.65-1.36-32.8-1.21-80.24,14.24-109.73.64-1.22,1.93-3.8,2.7-4.76.3-.37.31-.39.62,0l8.8,18.57c.08.86-1.84,3.05-2.37,4.02-10.4,18.96,3.18,40.98,24.47,40.79ZM120.02,375.52c0-1.01-.82-1.84-1.84-1.84s-1.84.82-1.84,1.84.82,1.84,1.84,1.84,1.84-.82,1.84-1.84ZM97.2,383.14c0-1.11-.9-2-2-2s-2,.9-2,2,.9,2,2,2,2-.9,2-2ZM101.15,392.46c.44.39.36.92,1.27,1.11,1.46.3,5.03-.96,4.39-2.86-.43-1.29-5.62-.44-6.48,1.21-.33.63.62.37.82.55Z"/>
  <path class="cls-4" d="M239.46,94.75l-31.69,40.22c-6.61,8.21-18.51,9.8-26.98,3.4-17.34-15.22-38.1-28.31-55.15-43.63-7.07-6.36-9.45-15.26-5.09-24.02,14.92-20.13,31.01-39.42,46.38-59.23,6.85-6.8,16.64-7.98,24.86-2.8,14.31,11.14,28.51,22.42,42.69,33.72.28.22.55.48.94.46.38.53-3.4.99-3.73,1.08-20.22,5.55-26.32,31.29-10.08,44.88,2.84,2.37,9.68,5.91,13.35,5.91h4.5Z"/>
  <path class="cls-4" d="M80.75,97.24c-.46,6.27,2.28,11.08,7.23,14.67,6.21,4.51,13.19,8.03,19.32,12.68l15.77,28.65c.52,4.46,1.98,8.46,4.86,11.93-1.52,2.18-3.13,4.28-4.56,6.53-.85,1.33-1.74,3.79-2.54,4.84-.71.94-3.07,2.39-4.21,3.64-7.62,8.45-7.96,21.3-1.08,30.29.64.83,2.38,2.23,2.8,2.87.68,1.02,1.52,4.33,2.2,5.79,2.39,5.11,5.61,10.03,9.58,14.02l-32.71,16.05c-8.23,4.06-18.3,3.03-25.65-2.41-.82-.61-3.44-2.91-3.75-3.71-.23-.59.22-.4.45-.47,14.24-4.29,22.4-18.63,18.58-33.17-4.32-16.43-23.18-24.75-38.41-17.12-.86.43-4.42,3.03-4.84,2.75l-23.05-47.93c-5.86-10.23-1.58-22.67,8.15-28.61,13.38-5.78,26.88-14.34,40.36-19.59,3.91-1.52,7.24-2.03,11.48-1.72Z"/>
  <path class="cls-3" d="M126.41,218.4c16.99,5.41,34.05-8.63,30.97-26.47-2.26-13.07-15.17-21.98-28.17-18.89l2.82-4.33c2.85,1.42,5.57,2.55,8.81,2.78,13.28-.92,27.89.74,41-.33,5.66-.46,10.94-3.56,14.29-8.06,21.28,17.55,21.9,50.29,1.4,68.8-22.31,20.15-58.04,13.3-71.13-13.52Z"/>
  <path class="cls-3" d="M199.09,466.31c-.09-.43-.06-.4.2-.64.48-.46,1.51-.93,2.14-1.52,9.67-9.01,11.11-23.93,2.48-34.19-13.73-16.31-40.09-8.67-43.33,12.12-4.3-3.97-9.53-7.06-15.53-7.46,1.7-14.42,10.2-27.81,22.58-35.35,24.82-15.14,57.12-4.91,68.79,21.48,9.9,22.39,1.2,48.59-19.78,60.73-4.73-6.13-10.47-11.81-17.54-15.17Z"/>
  <path class="cls-1" d="M123.53,242.67c.7-.1,1.97,1.63,2.56,2.3,4.57,5.13,10.2,11.64,14.29,17.09,5.72,7.63,5.77,16.61-2.26,22.58l-37.71,17.58c-12.12,4.03-22.99-9.29-16.3-20.34,3.91-6.45,13.53-7.54,19.3-11.45,6.8-4.62-1.79-11.63-4.94-15.51l25.07-12.23Z"/>
  <path class="cls-3" d="M226.1,365.04c-.56,1.53-1.48,2.76-2.01,4.36-3.35,10.28,2.08,20.17,11.64,24.37l36.34,13.11c2.02,11.22-.33,22.09-5.44,32.1-3.67,7.19-7.76,14.25-11.5,21.42-.53,1.01-2.33,5.74-3.14,5.88-3.27-2.14-6.99-3.73-10.98-3.39.72-2.46,1.83-4.76,2.57-7.22,8.22-27.45-6.41-56.92-33.63-65.79,2.18-1.62,4.5-2.56,6.37-4.65,5.55-6.22,3.92-12.89,2.02-20.2,2.59-.08,5.2-.6,7.76,0Z"/>
  <path class="cls-1" d="M270.83,356.34c-1.5,2.99-6.35,7.48-6.07,10.89.17,2.03,1.45,3.94,3.27,4.8,6,2.84,15.57,3.73,19.7,9.19,7.59,10.04-1.93,23.63-13.8,20.64-11.44-5.33-26.27-8.02-37.33-13.61-2.07-1.05-4.87-3.73-6.09-5.71-5.77-9.41,1.95-16.17,6.78-23.55,11.14-1.17,22.36-1.82,33.54-2.64Z"/>
  <path class="cls-1" d="M178.59,247.6c5.3-.95,10.62-3.27,15.19-6.09,1.55-.96,3.72-2.97,5.09-3.62.29-.14.54-.35.84-.1,4.46,6.89,9.78,13.4,14.23,20.27,5.17,7.99,5.98,16.99-4.13,21.23-10.62,4.45-22.39,7.51-33.07,11.97-13.94,2.45-20.24-16-6.96-22.18,3.74-1.74,9.66-2.81,12.95-4.75,2.68-1.58,3.17-5.03,1.88-7.69-.49-1.02-6.48-8.6-6.03-9.04Z"/>
  <path class="cls-1" d="M194.1,147.89c1.69,8.39-4.23,17.72-13.19,18-12.73.39-26.05.44-38.82.34-11-.09-17.52-13.35-10.56-22.09,6.26-7.85,14.67-4.59,23.31-5.27,5.97-.47,7.59-3.75,6.05-9.33l18.73,14.65c4.38,2.59,9.38,3.83,14.48,3.69Z"/>
  <path class="cls-1" d="M217.1,207.53c.25-.23,3.49,2.72,4.28,3.01,2.75,1.01,5.36.26,6.96-2.18,3.34-5.09,4.59-13.46,9.97-16.74,9.32-5.69,19.94,2.42,17.77,12.81-5.55,10.52-9.76,22.4-15.33,32.82-3.91,7.31-11.04,9.06-18.28,5.13l-14.96-12.71c-.2-.76,2.42-3.99,3-4.97,3.15-5.34,5.47-11.05,6.59-17.18Z"/>
  <ellipse class="cls-3" cx="60.87" cy="216.62" rx="21.68" ry="21.68"/>
  <path class="cls-3" d="M109.88,438.76c6.83-.67,19.1-.62,25.99-.09s13.35,5.31,16.05,11.59c1.82,4.23,1.72,8.4,1.35,12.95l-38.81,19.57-9.16-42.43c.03-1.08,3.7-1.5,4.59-1.59Z"/>
  <path class="cls-1" d="M219.58,485.89c7.53-3.89,13.59-10.38,18.23-17.41,4.26-.55,7.85-.12,11.28,2.64,4.13,3.33,5.35,8.22,4.96,13.36-.88,11.56-5.12,24.26-6.29,35.96-1.89,8.78-12.32,13.26-19.77,7.83-.38-.28-2.55-2.37-2.67-2.63-.32-.7.91-5.98,1.05-7.33,1.21-11.45-1.51-22.35-6.79-32.42Z"/>
  <path class="cls-1" d="M138.83,590.27c.28,4.31,3.58,5.07,7.3,4.97,6.72-.18,14.68-3.22,20.5,1.25,9.02,6.93,5.14,20.79-5.94,22.33-11.29.4-22.56,2.31-33.82,2.83-5.61.26-10.67-.57-14.26-5.31-1-1.32-3.36-6.41-2.53-7.74.15-.24,3.79-2.26,4.68-3.1,1.54-1.43,2.88-4.31,4.07-5.25,2.12-1.65,16.09-8.76,18.83-9.74.39-.14.72-.33,1.15-.24Z"/>
  <ellipse class="cls-3" cx="238.14" cy="68.98" rx="20.36" ry="20.36"/>
  <path class="cls-1" d="M94.65,88.3c8.66-1.35,15.27,9.48,20.97,9.17,1.26-.07,3.31-1.43,3.5-1.43s2.32,2.33,2.8,2.74c4.66,3.95,9.73,7.46,14.45,11.32.51.63.29,1.35.15,2.06-1.84,9.29-6.94,17.28-17.65,13.27-8.57-6.53-20.74-11.91-28.8-18.72-6.83-5.77-3.98-17.08,4.58-18.41Z"/>
  <path class="cls-3" d="M182.87,426.64c17.17-1.64,27.92,18.12,16.82,31.43-1.09,1.31-5.12,4.93-6.72,5.07-.33.03-5.22-1.76-6.25-2.02-3.01-.75-6.45-1.38-9.54-1.64-1.51-.13-4.56.33-5.74-.16-.84-.35-2.98-3.65-3.47-4.6-6.24-11.94,1.51-26.79,14.9-28.07Z"/>
  <path class="cls-1" d="M211.81,360.69c1.09,7.18,6.26,16.71-.91,22.21-.91.7-3.01,1.8-4.1,2.11-4.18,1.18-14.79-.21-19.65-.42s-11.63.22-16.46-.63c-5.36-.94-8.76-7.66-7.16-12.72,3.22-10.17,14.37-5.9,22-6.32,1.37-.08,3.09-.8,4.05-1.79.36-.37.77-1.5,1.02-1.55.48-.09,1.42.33,2.1.35,6.37.16,12.76-.78,19.1-1.25Z"/>
  <path class="cls-1" d="M92.24,256.61l3.4,11.3c-.14.44-6.95,3.23-8.02,3.81-6.31,3.4-10.26,8.68-10.92,15.94-5.43.26-10.86.44-16.3.63-3.38.12-6.54.99-9.88-.34-6.56-2.61-8.75-10.48-4.5-16.21s13.43-3.78,19.95-4.59c1.38-.17,3.13-.77,4.05-1.85,3.29-3.84-1.11-10.03-1.69-14.27,6.73,5.06,15.59,7.33,23.91,5.59Z"/>
  <ellipse class="cls-3" cx="134.17" cy="195.98" rx="18.12" ry="18.12"/>
  <path class="cls-3" d="M139.75,433.68c-1,.19-1.95-.27-2.92-.31-8.24-.31-19.58-.63-27.67,0-1.96.15-3.79.92-5.71,1.23-1.87-4.87-4.48-9.49-7.67-13.61-1.02-1.32-2.74-2.76-3.54-3.91-.18-.26-.43-.31-.3-.78,8.1-1.69,16.23-3.89,23.67-7.55,2.51-1.23,4.92-3,7.48-3.91l19.02,17.37c.33.71-1.27,5.55-1.56,6.82-.35,1.53-.58,3.09-.79,4.65Z"/>
  <path class="cls-1" d="M57.77,610.15c7.14,3.12,15.63,4.74,23.46,4.36,3.17-.15,6.37-1.07,9.48-1.12.45,1.05.4,2.06.9,3.14,1.62,3.53,6.19,8.25,8.34,11.85,8.05,13.47-9.97,27.41-21.19,13.12-5.78-7.36-11.96-16.85-17.21-24.73-.55-.83-4.19-6.13-3.78-6.62Z"/>
  <path class="cls-3" d="M177.07,296.73l27.72-9.91c10.2,7.35,8.94,22.91-1.88,29.07-13.38,7.61-28.82-4.46-25.83-19.16Z"/>
  <path class="cls-3" d="M161.77,460.68c-.08.12-2.64.78-2.75.66.11-4.02-.28-8.08-1.63-11.88-.57-1.6-1.39-3.05-2.09-4.58,3.59,2.83,6.09,7.79,6.48,12.31.05.59.17,3.23,0,3.49Z"/>
  <path class="cls-4" d="M210.89,284.58c2.99-.48,4.95-3.18,7.96-3.38,19.1-1.39,39.07-6.35,58.04-7.5,10.97-.67,18.47,4.66,20.93,15.41.18,13.34,3.21,27.77,3.16,40.98-.04,9.64-7.66,18.5-17.27,19.72-28.34,1.19-57.13,5.47-85.39,6.54-10.84.41-16.77-3.4-19.97-13.91-.55-8.67-1.69-17.35-1.92-26.04-.01-.42,0-.91-.32-1.23l5.18,4.45c16.61,10.81,37.49-1.67,35.81-21.53-.43-5.06-3.14-9.65-6.21-13.51Z"/>
  <path class="cls-2" d="M101.15,392.46c-.2-.18-1.16.08-.82-.55.87-1.65,6.05-2.5,6.48-1.21.64,1.9-2.94,3.16-4.39,2.86-.91-.19-.83-.72-1.27-1.11Z"/>
  <circle class="cls-2" cx="95.19" cy="383.14" r="2"/>
  <circle class="cls-2" cx="118.18" cy="375.52" r="1.84"/>
</svg>