<?xml version="1.0" encoding="UTF-8"?>
<svg id="Layer_1" data-name="Layer 1" xmlns="http://www.w3.org/2000/svg" viewBox="0 0 218.19 712.65">
  <defs>
    <style>
      .cls-1 {
        fill: #b8bd99;
      }

      .cls-2 {
        fill: #43bec6;
      }

      .cls-3 {
        fill: #442c80;
      }

      .cls-4 {
        fill: #a35d69;
      }

      .cls-5 {
        fill: #7492c4;
      }

      .cls-6 {
        fill: #ba443b;
      }
    </style>
  </defs>
  <path class="cls-2" d="M155.69,0c1.22.4,2.44.66,3.64,1.14,6.95,2.8,14.48,8.02,21.15,11.54,1.16,1,2.57,2.84,3.23,4.22.04.09.19.16.22.22,1.99,4.62,1.09,8.62-1,12.91s-4.7,8.44-6.85,12.75c-.26.69.51,1.67.9,2.31.11.17-.07.38.38.29,3.95-4.02,7.13-9.32,13.68-7.68s9.09,9.74,4.66,15.12c-4.13,5.02-9.76,9.67-14.12,14.57-4.86,3.26-10.56,2.65-13.99-2.24-1.12-1.6-6.24-11.02-7.03-11.44-.44-.23-1.53-.29-2.17-.5-.85-.29-1.65-.66-2.5-.95-.17,1.28-1.21,2.14-1.79,3.22,5.04,2.67,8.52,7.73,9.32,13.38.66,10.4,3.24,21.23,3.82,31.55.17,2.97-.15,5.41-1.18,8.19-.21.55-1.34,2.65-1.26,2.92,4.3,2.66,6.67,6.67,6.22,11.83s-6.18,8.52-9.11,12.42c3.83,4.23,6.75,9.39,7.89,15.04.57,2.85.64,5.67.56,8.58-.02.83-.46,2-.23,2.84.04.14,1.83,1.4,2.22,1.83,1.9,2.08,3.34,5.27,5.24,7.45l5.11-6.01c8.69-9.05,22.65,1.16,16.75,12.08-4.97,5.55-9.53,12.51-14.63,17.85-4.87,5.09-12.27,3.8-16.55-1.25-3.29-3.88-5.93-8.89-9.13-12.9-.38-.48-.96.09-1.01.58,2,6.57,5.02,12.82,7.12,19.35.4,1.24.77,4.28,1,4.78.19.42,1.31,1.63,1.7,2.3,10.5,18.01,20,36.76,29.88,55.11,2.23,6.99-.69,14.46-6.71,18.42-2.45,1.61-5.33,2.49-7.86,3.94-.05.3.08.45.22.67,2.8,4.27,9.44,9.56,10.89,14.24,1.78,5.72-.04,11.11-5.25,14.08l-13.84,6.3c.55,2.49,1.77,4.97,1.54,7.66-2.44,11.33,2.06,31.74-13.13,35.15-1.96.44-4.77-.02-6.08.37-.27.08-1.82,2.23-1.91,2.55-.12.42.04.25.25.35,4.1,1.99,8.78,2.03,11.94,5.85,6.48,7.83-.73,19.35-10.68,17.13-1.02-.23-6.81-2.58-7.11-2.34l12.94,23.88c1.55,3.71,1.33,7.88-.38,11.5-2.35,4.98-7.28,7.2-12.12,9.13-.14.19.71,1.2.89,1.44,2.27,2.93,5.34,5.83,7.43,8.81,3.8,5.42,2.5,12.12-3.34,15.3-2.48,1.35-5.48,2.43-8.08,3.6-.37.55,1.69,2.16,2.11,2.65,2.73,3.23,4.99,7.44,6,11.57.18.75.66,4.45.82,4.63.09.1,1.87.73,2.38,1.06,2.18,1.4,4.25,3.86,6.39,5.42.3.05.48-.24.62-.45,1.21-1.84,1.88-4.68,3.15-6.64,6.4-9.89,21.44-2.57,17.1,8.88-2.42,6.39-6.61,13.18-9.45,19.47-3.46,4.44-9.65,4.76-14.12,1.67l-11.16-9.54c-.54-.45-1.04-.13-1.19.53l12.06,17.32c1.08,2.07,1.63,4.75,1.08,7.04,4.18.02,8.13.12,11.55,2.8,6.34,4.98,5.18,10.96,5.13,17.99-.04,4.18.3,8.82.02,12.92-.42,6.19-4.78,11.71-11.13,12.34,1.11,6.96,2.75,13.84,3.79,20.81.06.4-.22.83-.18,1.27.1,1.26.94,3.17,1.06,4.73.75,9.49-3.38,18.45-11.64,23.29-3.93,2.3-8.48,3.2-12.83,4.41-.21.25.8,2.07,1,2.45,3.7,7.27,8.15,14.21,11.94,21.43,8.2,15.61,0,32.96-16.45,37.91-8.75,2.63-18.14,4.14-26.96,6.63-6.14,6.54-14.83,10.45-23.91,10.12-17.57-2.54-35.85-3-53.35-5.59-6.55-.97-12.29-3.95-16.59-8.99-10.06-11.78-7.57-29.5,4.89-38.37h-9.34v-31.15h44.48c.15-1.1.5-2.19.89-3.23.49-1.33,2.28-4.29,2.21-5.3l-8.22-31.07-39.37,14.46v-32.48l16.43-5.04c0-11.74.15-23.52-.07-35.24l-.43-.23-15.92-4.65v-31.82l29.46,10.92c1.64-6.59,5.13-12.83,4.79-19.81-.31-.05-.3.37-.39.61-.4,1.1-.59,2.32-1.06,3.4-13.98-3.28-26.57-11.63-31.63-25.54-3.76-10.34-3.72-24.91-1.73-35.66,5.75-31.01,36.79-40.75,64.88-35.75,2.74.49,5.48,1.16,8.08,2.15-1.92-5.24-.85-10.94,3.11-14.9.38-.38,2.09-1.5,2.23-1.78.26-.55.16-2.18.33-2.9H20.24v-25.36h76.07l-76.08-19.71.23-23.13,75.63-19.46H20.24v-25.59h100.75v40.83l-60.94,16.13,41,10.25c2.7-5.19,7.29-7.91,13.17-7.81.53,0,1.01.23,1.54.24,5.53.1,11.05.34,16.58.43-1.44-2.86-1.91-5.72-.63-8.76,2.77-6.58,9.24-5.35,15.09-5.93-.87-3.38-2.7-6.65-2.45-10.23-12.66-.2-20.01-12.59-13.75-23.87.38-.69,1.18-1.22,1.03-1.99-4.99-10.44-10.24-20.77-14.98-31.32-1.97-6.81.96-13.3,6.58-17.22.46-.32,2.54-1.32,2.63-1.61-1.65-4.61-.1-9.74,4.04-12.41,3.6-2.32,8.08-1.41,12-2.49-1.1-3.14-2.48-6.19-3.4-9.39-1.7-.32-3.41-.45-5.1-.79-4.55-.91-8.72-2.95-12.41-5.72v23.92l-100.75,37.94v-32.37l16.47-5.33-.04-35.25-16.44-4.69v-31.82l90.52,33.82c.19-.21-.92-3.74-1.05-4.4-1.42-7.34-.14-14.91,3.49-21.4-.3-.22-5.16,1.05-6.11,1.12-8.95.61-13.23-10.49-6.11-15.9,2.64-2.01,6.5-1.97,9.61-2.85.8-.04-.62-2.62-.79-2.79-.22-.22-2.63-1.66-2.9-1.59-4.71,3.58-10.1,6.19-15.73,7.98-1.8-9.23-4.09-18.38-6-27.58,6.2-1.53,11.21-5.67,13.25-11.8-.15-4.21-1.21-8.39-1.47-12.58-.05-.87.26-2.31.18-2.85-.31-2.01-5.47-6.36-7.3-7.39-8.8-4.99-29.53-4.78-38.63-.59-8.03,3.7-10.53,12.51-9.13,20.78,1.67,9.91,10.3,13.53,19.08,15.65l-8.15,27.26c-17.29-3.81-30.37-15.07-33.6-32.9-2.65-14.64-1.12-35.42,8.61-47.32,12.44-15.2,31.71-19.14,50.59-17.47,16.75,1.48,32.63,9.73,39.28,25.79l8.88-1.1c-2.88-3.79-1.55-9.58,2.74-11.61,2.7-1.28,6-.5,8.82-1.07l-3.01-2.22c-7.77-8.11-2.73-15.57,1.45-23.59.01-.02.15-.08.22-.22,2.65-5.08,5.69-12.85,10.93-15.44l4.42-1.47h3.34ZM175.04,36.71c1.8-4.08,4.45-7.76,5.96-11.96.59-4.16-.89-7.88-4.47-10.11-4.91-3.06-12-6.64-17.27-9.2s-10.28-1.99-13.39,3.08-6.61,11.95-9.2,17.28-1.92,10.04,3.08,13.39l15.61,8.19c-1.1-1.65-2.32-3.2-2.85-5.16-3.82-14.3,17.43-21.27,22.08-5.84.09.32-.14.39.45.33ZM171.13,39.11c0-4.2-3.4-7.61-7.6-7.61s-7.6,3.41-7.6,7.61,3.4,7.61,7.6,7.61,7.6-3.41,7.6-7.61ZM165.25,53.4c-.14.15.37.96.49,1.18,1.1,1.98,4.96,8.72,6.4,9.84,2.56,1.98,5.6,1.14,7.9-.79,3.72-4.7,9.15-8.8,12.79-13.46,3.37-4.32-.13-9.75-5.35-8.68-4.18.85-6.82,10.08-12.15,7.29-.5-.26-1.5-1.6-1.84-1.38-1.54,3.09-4.9,5.32-8.23,6.01ZM141.83,44.97c-.29.1-.49.69-.83.97-2.54,2.06-7.81.25-10.29,1.94-2.81,1.92-1.62,6.39,1.74,6.86,4.01-.16,8.02-.43,12.01-.68,2.18-.13,4.23.39,6.2-.92.76-.5,2.22-2.1,1.48-2.96-1.39-.59-9.48-5.49-10.3-5.21ZM152.8,58.96c-.32-.32-3.56-1.45-4.22-1.34-.12.66.18.35.52.47,1.15.39,2.35.61,3.39,1.29.38.18.41-.32.31-.42ZM140.79,58.3c-2.03-.03-4.09.04-6.11.22-7.82.68-15.68,2.09-23.46,3-7.2,2.26-10.68,7.88-10.23,15.35.62,10.38,3.17,21.27,3.88,31.72,1.99,7.63,7.72,11.58,15.58,11.11,10.72-.64,22.05-3.16,32.81-4.11,6.31-1.92,10.47-7.59,10.22-14.24l-3.34-27.7-1.14,3.86c-12.23,22.58-41.31-2.65-20.63-17.97l2.43-1.24ZM153.15,59.3l-.27.46,1.17.67.27-.46-1.17-.67ZM154.96,60.59l-.59-.18c.54.82,1.47,1.33,2.11,2.11l-1.52-1.93ZM156.23,71.98c0-5.83-4.72-10.55-10.55-10.55s-10.55,4.72-10.55,10.55,4.72,10.55,10.55,10.55,10.55-4.72,10.55-10.55ZM146.35,127.27c4.62.75,8.79,3.08,12.54,5.77,4.19-4.61,12.17-9.02,6.48-16.01-.52-.64-2.45-2.41-3.29-2.19-.21.06-2.62,2.12-3.29,2.51-4.06,2.42-8.52,2.61-13.11,3.13-.35.28-.15.22,0,.45.29.44.88.72,1.16,1.29.93,1.91.08,3.31-.49,5.05ZM143.46,123.93c-2.44-.86-3.57-2.58-6.34-2.45-2.16.1-4.59.75-6.79.89l2.36,4.91c1.17-.23,2.35-.55,3.54-.68,1.26-.14,4.19-.01,5.07-.27.33-.1,2.35-2.14,2.16-2.4ZM126.09,122.83c-3.68.39-7.41,1.38-11.1.43.31,5.56-6.23,4.7-9.97,5.94-5.82,1.94-4.27,9.84,1.61,9.86,5.64-1.38,11.67-2.14,17.25-3.67,1.65-.45,2.98-.96,4.09-2.36,2.81-3.51-.53-6.93-1.89-10.2ZM136.74,130.45c-.66.05-3.36.38-3.74.71-.15.13-.99,2.86-1.6,3.74-3.48,5.04-7.51,3.62-12.2,5.38-1.37.51-3.98,5.94-4.55,7.46-7.85,20.88,12.58,42.12,33.64,34.77,29.74-10.38,20.97-54.71-11.56-52.06ZM171.78,192.38c3.2,2.91,7.38,3.43,10.49.08,4.87-5.25,9.28-11.7,14.02-17.13,2.47-5.27-2.45-10.98-8.05-8.95-4.16,1.51-6.54,9.12-10.64,9.12-.8,0-2.21-.6-2.78-1.19-1.72-1.75-3.5-5.85-5.11-7.35-.22-.2-.62-.51-.89-.33-.13.09-.83,2.5-1.08,3.04-1.53,3.32-3.57,5.97-5.79,8.82l9.83,13.87ZM58.5,177.11v22.03l36.03-11.01-36.03-11.01ZM142.57,187.56c-.37.34,3.09,8.05,3.25,9.56.1.97-.43,2.45-1.14,3.12-2.37,2.25-9.68.54-12.9,2.9-5.33,3.91-2.34,11.83,4.46,11.58s14.01-1.8,20.88-2.03c4.07-.93,6.06-5.22,4.91-9.1l-7.33-19.37c-.11-.17-.21-.21-.41-.19-.4.04-2.19,1.16-2.82,1.42-2.78,1.12-5.9,1.89-8.89,2.12ZM165.25,211.37c-.36-.27-1.45,1.56-1.77,1.9-3.55,3.77-6.56,3.16-11.24,3.67-5.63.61-11.27,1.15-16.89,1.79-1.93-.25-3.63-.58-5.31-1.6-.6-.36-1.59-1.53-2.16-1.43-.5.08-2.16,1.05-2.65,1.38-4.51,3.06-6.84,9.2-4.28,14.26l13.62,28.31c1.51-.38,2.8-1.42,4.37-1.93,7.12-2.31,14.89.65,18.56,7.14,4.9,8.68.5,19.32-8.71,22.51,3.33,4.43,9.89,5.62,14.9,3.55,7.8-4.21,16.61-7.43,24.31-11.72,5.89-3.28,8.39-10.05,5.46-16.28l-28.22-51.54ZM155.65,272.5c0-6.49-5.26-11.75-11.74-11.75s-11.74,5.26-11.74,11.75,5.26,11.75,11.74,11.75,11.74-5.26,11.74-11.75ZM179.2,287.72l-12.83,6.32c1.55,2.9,5.57,4.93,3.6,8.71-1.15,2.2-7.63,3.88-9.91,5.44-6.64,4.54-2.26,14.73,5.86,12.98,6.78-3.69,14.95-6.22,21.58-10.01,2.02-1.16,3.76-3.61,3.78-6.01.05-5.97-8.17-11.98-11.23-16.8-.24-.22-.49-.66-.85-.63ZM161.23,295.72c-4.18.2-8.45-.32-11.99-2.69.43,2.59,2.6,5.6.54,8-2.32,2.7-9.44.38-12.63,2.5-4.12,2.74-2.46,8.82,2.21,9.73l13.67-.74c.68-3.41,2.49-6.1,5.48-7.87.72-.43,4.62-2,4.71-2.4l-2-6.52ZM171.68,323.09c-.55-.35-2.82,1.15-3.53,1.41-5.1,1.89-10.49.19-13.44-4.35-.42-.64-.9-2.3-1.57-2.43-3.26-.13-6.54-.08-9.8-.21-6.65-.26-13.35-.7-20-.91-2.2-.07-4.4.16-6.57-.21l2.83,1.73c13.4,10.22.34,30.18-14.46,22.03l-2.82-1.96c.07,3.49-1.15,7.31-.38,10.73s3.85,6.53,7.42,7.04l50.24,4.47c5.26.3,9.88-3.36,11.17-8.4.44-7.38,1.75-14.8,2.07-22.18.04-1.04.09-2.54-.03-3.54-.05-.43-.95-3.12-1.12-3.22ZM121.27,328.85c0-5.16-4.19-9.35-9.35-9.35s-9.35,4.19-9.35,9.35,4.19,9.35,9.35,9.35,9.35-4.19,9.35-9.35ZM117.89,360.67c0,2.38-2.17,3.56-4.34,3.56-2.06,0-5.15-.64-7.13-.45-5.65.53-6.1,9.37.23,10.01,2.84.29,6.22.1,9.13.22s6.62.71,9.34.46c2.12-.19,4.72-2.13,5-4.34.33-2.63-1.14-5.73-1.45-8.35l-1.34-.44-9.44-.66ZM152.8,363.56l-15.34-1c-.27.16-3.45,4.86-3.52,5.17-.07.36.21,1.42.15,2.15-.23,2.94-2.37,3.57-.29,6.35.8,1.06,2,2.01,3.21,2.58,6.46,3.04,14.47,4.68,21.07,7.63,5.29.99,9.53-3.56,8.08-8.75-1.27-4.56-7.86-5.22-11.57-6.89-1.15-.52-1.98-.94-2.49-2.18-.89-2.13.14-3.1.71-5.05ZM99.42,373.12c-.41-.32-2.05,1.94-2.27,2.29-1.64,2.59-2.05,5.31-1.01,8.23,6.98,14.09,13.43,28.45,20.44,42.52,2.24,4.5,3.49,8.6,8.65,10.49,2.69.98,5.75.75,8.38-.29,7.53-2.98,15.39-7.79,22.74-11.29,4.78-4.41,4.7-8.81,1.91-14.34-4.28-8.48-9.51-16.56-13.74-25.08-3.92-1.86-9.37-2.48-12.52-5.61-.43-.42-2.05-2.81-2.25-2.88-.51-.17-2.24.77-2.99.95-5.58,1.31-15.18-1.07-21.19-.55-2.37-.28-5.27-2.2-6.14-4.43ZM94.97,390.48v3.89c0,.67,1.5,3.16,2.01,3.78.55.66,1.75,2.01,2.67,1.78l-4.67-9.45ZM98.08,441.21c3.49-10.13-.44-20.74-10.52-24.96-8.73-3.66-29.44-3.5-37.72,1.28-7.6,4.38-9.47,14.11-7.24,22.12,1.79,6.44,7.14,9.87,13.11,12.02,5.18-11.44,10.7-25.4,26.19-21.3,6.49,1.72,11.55,6.23,16.19,10.84ZM98.23,447.29c-6.08-6.23-14.57-15.66-24.4-13.33-7.22,1.71-14.1,16.77-15.72,23.43-2.17,8.94,1.56,17.06-.12,25.91s-5.98,13.44-4.81,23.17c1.01,8.37,10.76,22.81,16.54,29.07.96,1.03,5.72,5.77,6.73,5.97.79.16,2.15-.37,3.05-.42,4.15-.21,8.06.31,11.9,1.9.78.32,4.09,2.3,4.33,2.32,1.26.06,4.41-2.14,5.68-2.66-.49-1.2-1.31-2.26-1.72-3.5-3.23-9.9,5.56-18.97,15.5-16.53l4.69-12.12v-.55c-10.97-2.68-19.69-13.59-20.47-24.82-.11-1.64.27-4.09,0-5.56-.07-.37-1.12-1.54-1.45-2.11-4.59-8.17.41-18.09,9.46-19.69-1.34-.73-1.64-2.71-2.29-3.6-1.16-1.58-5.21-5.16-6.9-6.89ZM136.35,439.22c-.32.46,1.61,2.29,1.99,2.78,6.08,8.02-6.64,7.73-9.38,11.96-3.05,4.71,1.18,10.19,6.5,8.95l18.83-8.75c3.07-1.92,3.54-5.78,1.81-8.79l-9.08-10.95-10.66,4.8ZM130.78,440.99c-.07-.06-1.44.25-1.89.24-2.63-.05-5.09-.95-7.45-2.02-.16.17,1.07,3.45,1.09,4.14.04,1.19-.96,2.96-2.05,3.48-3.5,1.68-11.07-1.2-11.85,4.39-.31,2.18,1.26,4.18,3.37,4.66l12.32-.44c.61-4.37,4.4-6.84,8.22-8.24-.19-.79-1.53-5.99-1.77-6.21ZM124.31,459.25c-2.33.32-4.87-.28-6.87,1.2,12.48,10.25.32,29.15-14.24,22.14-.02,19.24,21.23,31.41,37.79,21.01,12.5-7.86,15.39-24.76,6.14-36.36-.64-.8-3.09-3.59-3.98-3.55-1.27.05-5.08,2.49-6.85,2.96-5.4,1.45-10.94-1.91-12-7.39ZM118.76,470.91c0-5.15-4.18-9.33-9.33-9.33s-9.33,4.18-9.33,9.33,4.18,9.33,9.33,9.33,9.33-4.18,9.33-9.33ZM156.36,484.59c-.22,3.13-.95,6.21-2.12,9.12-.29.72-1.4,2.26-1.12,2.89l12.2,10.29c3.2,1.88,6.56,1.19,8.65-1.89l8.74-18.62c1.43-6.29-5.96-10.12-10.01-5.12-1.78,2.2-3.15,8.19-5.47,9.21-4.14,1.82-7.6-4.18-10.87-5.87ZM137.9,509.29c1.09,3.48,6.75,7.11,4.76,11.1-1.46,2.94-8.87,2.84-11.31,6.27-3.02,4.24.93,9.78,5.94,8.83,5.82-2.65,12.63-4.13,18.4-6.74,3.7-1.67,4.5-4.43,3.38-8.27l-11.49-16.55-.56-.11c-2.58,2.35-5.73,4.51-9.12,5.47ZM134.09,510.65c-3.43.6-6.71.75-10.18.44l-4.02,11.09c3.1.39,6.3.48,9.44.67,2.93-2.16,6.51-3.05,9.9-4.22l-5.14-7.98ZM127,526.65c-4.82-.06-9.83-1.81-13.91,1.55s-3.27,6.55-3.43,11.25c-.19,5.52-.86,13.54-.21,18.88s5.53,8.31,10.31,8.6c5.79.35,10.85-.16,16.5-.87,4.87-.61,6.83.62,11.09,1.09s9.69-.06,14.02-.01,8.95,1.35,12.33-2.55c2.57-2.97,2.05-4.91,2.22-8.46.27-5.61.72-12.93.24-18.47-.26-2.99-2.61-6.3-5.27-7.64-1.91-.96-4.92-1.05-7.09-1.14-2.99-.12-2.21.63-4.13,2.09-4.68,3.56-15.39,5.04-20.84,8.08-7.79,2.11-14.25-4.79-11.84-12.39ZM105.65,541.11v-6.12c0-.88.61-3.28.94-4.18.55-1.52,1.55-2.81,2.4-4.16-5.55,1.42-7.74,8.4-4.76,13.11.14.21,1.1,1.72,1.43,1.35ZM58.5,529.09v21.8c1.04-.12,3.1-.52,3.99-1.02.8-.46,2.07-2.16,2.91-2.88,1.79-1.54,3.9-2.76,6.02-3.79.13-.79-1.39-1.61-1.91-2.1-3.68-3.53-6.81-7.67-9.76-11.81l-1.24-.21ZM80.47,544.96c-14.52.76-22.19,13.98-19.19,27.53,3.6,16.26,9.29,32.61,13.23,48.84,5.47,13.72,19,20.21,32.63,12.83,11.59-6.27,23.26-13.58,34.7-20.25,6.8-3.97,13.06-6.14,16.71-13.77,5.19-10.85.21-23.86-10.71-28.59-13.85-6-23.75,4.7-35.24,10.44-2.02.96-4.38.13-5.28-1.95-2.1-6.54-3.27-13.71-5.39-20.2-3.03-9.27-11.63-15.4-21.46-14.89ZM105.62,546.03c-2.24-.87-4.2,1.46-6.2,2.32,2.66,2.98,4.84,6.3,6.12,10.12l.09-12.44ZM106.54,562.02c.16-.31-.14-.59-.22-.44-.16.31.14.59.22.44ZM121,570.7c-4.49.32-8.89-1.33-11.9-4.67l-2.55-3.78,4.23,16.24,10.01-5.67c.44-.49.14-1.47.22-2.12ZM164.81,571.14h-9.79c6.69,6,10.06,13.46,9.34,22.58-.11,1.42-.72,2.92-.88,4.24-.09.77,1.56-.01,1.85-.15,2.58-1.2,3.58-4.25,3.22-6.95l-3.75-19.72ZM169.7,599.63c-.17-.2-1.76,1.2-2.07,1.38-1.78,1.03-3.87,1.37-5.9,1.33-3.41,7.56-10.68,11.01-17.6,14.66-.08.24.02.43.11.65.19.48,2.33,4.44,2.55,4.58.34.22,1.15-.13,1.56-.24,4.89-1.27,10.47-2.77,14.35-6.11,4.67-4.02,7.29-10.06,7-16.25ZM113.88,634.78c-2.71,1.14-4.94,3.08-7.63,4.26-14.42,6.33-29.36-1.65-35.07-15.5l-1.77-5.68c-.51,1.53-1.05,3.25-1.28,4.84-1.17,8.12,2.73,17.49,3.06,25.54.11,2.78-1.5,4.58-4.34,4.58-10.69,0-22.2-5.07-32.37.09-18.87,9.59-14.61,37.86,6.19,41.66,19.4,1.82,38.75,4.66,58.2,5.62,13.17-2.07,22.56-11.6,21.44-25.44-.19-2.32-.92-4.65-1.28-6.96-1.69-11.01-3.42-22.01-5.15-33.01ZM140.77,619.22l-23.31,13.49,6.87,42.91c.14,3.27-.25,6.55-1.22,9.68-.43,1.37-1.16,2.59-1.44,4,8.13-1.86,16.3-3.71,24.3-6.06,12.5-5,19.37-18.42,12.97-31.1-.52-1.03-1.37-2.12-1.94-3.18-5.32-9.95-10.94-19.75-16.22-29.73Z"/>
  <path class="cls-4" d="M.44,697.52c-.07-.26-.29-.65-.44-.89V32.71l.44-.67c-.53,220.87-.06,441.81-.23,662.71l.23,2.77Z"/>
  <path class="cls-3" d="M218.19,696.63h-.22V33.15c0-.07,0-.15,0-.22h.22v663.7Z"/>
  <path class="cls-4" d="M203.73,712.21l-1.33.44H16.01v-.22h185.39c.78-.1,1.54-.16,2.32-.22Z"/>
  <path class="cls-6" d="M80.47,544.96c9.83-.51,18.43,5.62,21.46,14.89,2.12,6.49,3.29,13.65,5.39,20.2.89,2.08,3.25,2.91,5.28,1.95,11.49-5.74,21.39-16.44,35.24-10.44,10.92,4.73,15.9,17.74,10.71,28.59-3.65,7.63-9.91,9.8-16.71,13.77-11.43,6.67-23.11,13.98-34.7,20.25-13.63,7.38-27.16.89-32.63-12.83-3.95-16.23-9.64-32.58-13.23-48.84-3-13.55,4.67-26.77,19.19-27.53Z"/>
  <path class="cls-6" d="M113.88,634.78c1.72,11,3.46,22,5.15,33.01.35,2.3,1.09,4.64,1.28,6.96,1.12,13.85-8.26,23.37-21.44,25.44-19.45-.96-38.81-3.8-58.2-5.62-20.79-3.8-25.06-32.07-6.19-41.66,10.16-5.16,21.67-.1,32.37-.09,2.84,0,4.45-1.8,4.34-4.58-.32-8.04-4.23-17.41-3.06-25.54.23-1.59.77-3.31,1.28-4.84l1.77,5.68c5.71,13.85,20.66,21.82,35.07,15.5,2.69-1.18,4.92-3.13,7.63-4.26Z"/>
  <path class="cls-6" d="M98.23,447.29c1.69,1.73,5.75,5.31,6.9,6.89.66.89.95,2.88,2.29,3.6-9.04,1.6-14.04,11.53-9.46,19.69.32.57,1.37,1.75,1.45,2.11.28,1.46-.11,3.91,0,5.56.77,11.23,9.5,22.13,20.46,24.82v.55s-4.68,12.12-4.68,12.12c-9.94-2.44-18.73,6.62-15.5,16.53.41,1.25,1.22,2.3,1.72,3.5-1.27.52-4.42,2.72-5.68,2.66-.25-.01-3.56-2-4.33-2.32-3.85-1.59-7.75-2.12-11.9-1.9-.9.05-2.26.57-3.05.42-1.01-.2-5.77-4.93-6.73-5.97-5.78-6.26-15.53-20.7-16.54-29.07-1.17-9.73,3.18-14.59,4.81-23.17s-2.05-16.98.12-25.91c1.62-6.66,8.5-21.72,15.72-23.43,9.83-2.33,18.32,7.1,24.4,13.33ZM73.93,527.09c0-.54-.44-.98-.98-.98s-.98.44-.98.98.44.98.98.98.98-.44.98-.98ZM97.88,527.76c0-.5-.4-.9-.9-.9s-.9.4-.9.9.4.9.9.9.9-.4.9-.9ZM75.08,530.07c.69.72,1.62.94,2.44.15,1.48-1.44-2.18-1.4-2.79-.67-.33.39.26.43.35.53Z"/>
  <path class="cls-6" d="M165.25,211.37l28.22,51.54c2.93,6.23.42,12.99-5.46,16.28-7.7,4.3-16.51,7.51-24.31,11.72-5.01,2.06-11.57.88-14.9-3.55,9.21-3.19,13.62-13.83,8.71-22.51-3.67-6.49-11.43-9.45-18.56-7.14-1.57.51-2.86,1.55-4.37,1.93l-13.62-28.31c-2.55-5.06-.22-11.2,4.28-14.26.49-.33,2.15-1.3,2.65-1.38.56-.09,1.56,1.07,2.16,1.43,1.68,1.03,3.38,1.36,5.31,1.6,5.63-.64,11.26-1.18,16.89-1.79,4.67-.5,7.68.11,11.24-3.67.32-.34,1.41-2.16,1.77-1.9Z"/>
  <path class="cls-6" d="M140.79,58.3l-2.43,1.24c-20.67,15.32,8.41,40.56,20.63,17.97l1.14-3.86,3.34,27.7c.24,6.65-3.91,12.32-10.22,14.24-10.77.95-22.09,3.46-32.81,4.11-7.86.47-13.59-3.48-15.58-11.11-.7-10.45-3.25-21.34-3.88-31.72-.45-7.46,3.03-13.09,10.23-15.35,7.79-.92,15.64-2.32,23.46-3,2.02-.18,4.08-.25,6.11-.22Z"/>
  <path class="cls-6" d="M99.42,373.12c.88,2.22,3.78,4.14,6.14,4.43,6.01-.52,15.61,1.86,21.19.55.75-.18,2.48-1.11,2.99-.95.2.07,1.83,2.45,2.25,2.88,3.15,3.13,8.6,3.75,12.52,5.61,4.23,8.52,9.46,16.6,13.74,25.08,2.79,5.52,2.87,9.93-1.91,14.34-7.35,3.51-15.2,8.32-22.74,11.29-2.63,1.04-5.68,1.27-8.38.29-5.16-1.88-6.4-5.98-8.65-10.49-7.01-14.07-13.46-28.43-20.44-42.52-1.05-2.92-.64-5.64,1.01-8.23.22-.35,1.86-2.61,2.27-2.29Z"/>
  <path class="cls-6" d="M127,526.65c-2.41,7.61,4.05,14.5,11.84,12.39,5.45-3.03,16.16-4.52,20.84-8.08,1.92-1.46,1.14-2.21,4.13-2.09,2.17.09,5.18.18,7.09,1.14,2.66,1.33,5.01,4.64,5.27,7.64.48,5.54.03,12.86-.24,18.47-.17,3.54.35,5.49-2.22,8.46-3.38,3.9-7.91,2.6-12.33,2.55s-9.88.46-14.02.01-6.22-1.7-11.09-1.09c-5.64.71-10.7,1.22-16.5.87-4.78-.29-9.69-3.52-10.31-8.6-.65-5.34.01-13.36.21-18.88.16-4.7-.67-7.87,3.43-11.25s9.09-1.61,13.91-1.55Z"/>
  <path class="cls-6" d="M171.68,323.09c.17.1,1.06,2.79,1.12,3.22.12,1.01.08,2.5.03,3.54-.32,7.38-1.63,14.8-2.07,22.18-1.29,5.04-5.91,8.7-11.17,8.4l-50.24-4.47c-3.56-.51-6.63-3.54-7.42-7.04s.46-7.24.38-10.73l2.82,1.96c14.81,8.15,27.86-11.81,14.46-22.03l-2.83-1.73c2.17.37,4.37.14,6.57.21,6.65.21,13.35.65,20,.91,3.26.13,6.54.09,9.8.21.67.13,1.16,1.79,1.57,2.43,2.95,4.54,8.33,6.24,13.44,4.35.72-.26,2.98-1.76,3.53-1.41Z"/>
  <path class="cls-6" d="M140.77,619.22c5.27,9.98,10.9,19.77,16.22,29.73.57,1.06,1.42,2.15,1.94,3.18,6.4,12.68-.46,26.1-12.97,31.1-7.99,2.36-16.16,4.2-24.3,6.06.28-1.41,1.02-2.63,1.44-4,.97-3.12,1.37-6.4,1.22-9.68l-6.87-42.91,23.31-13.49Z"/>
  <path class="cls-6" d="M136.74,130.45c32.53-2.65,41.3,41.68,11.56,52.06-21.06,7.35-41.49-13.89-33.64-34.77.57-1.52,3.18-6.95,4.55-7.46,4.69-1.76,8.71-.34,12.2-5.38.61-.88,1.44-3.61,1.6-3.74.38-.33,3.08-.66,3.74-.71ZM149.76,160.64c0-7.84-6.36-14.2-14.2-14.2s-14.2,6.36-14.2,14.2,6.36,14.2,14.2,14.2,14.2-6.36,14.2-14.2Z"/>
  <path class="cls-6" d="M124.31,459.25c1.06,5.48,6.6,8.84,12,7.39,1.76-.47,5.58-2.92,6.85-2.96.89-.03,3.34,2.75,3.98,3.55,9.25,11.61,6.36,28.51-6.14,36.36-16.56,10.41-37.81-1.76-37.79-21.01,14.56,7.01,26.72-11.89,14.24-22.14,2-1.48,4.54-.88,6.87-1.2Z"/>
  <path class="cls-5" d="M98.08,441.21c-4.63-4.6-9.69-9.12-16.19-10.84-15.49-4.1-21.01,9.86-26.19,21.3-5.97-2.15-11.32-5.58-13.11-12.02-2.22-8.01-.36-17.74,7.24-22.12,8.28-4.78,28.99-4.94,37.72-1.28,10.08,4.22,14.01,14.83,10.52,24.96Z"/>
  <path class="cls-1" d="M179.2,287.72c.36-.03.62.41.85.63,3.06,4.82,11.28,10.83,11.23,16.8-.02,2.4-1.75,4.85-3.78,6.01-6.62,3.79-14.8,6.33-21.58,10.01-8.12,1.75-12.5-8.44-5.86-12.98,2.28-1.56,8.76-3.25,9.91-5.44,1.97-3.78-2.06-5.81-3.6-8.71l12.83-6.32Z"/>
  <path class="cls-1" d="M142.57,187.56c2.99-.23,6.11-1,8.89-2.12.63-.26,2.42-1.38,2.82-1.42.2-.02.3.02.41.19l7.33,19.37c1.15,3.88-.84,8.17-4.91,9.1-6.86.23-14.08,1.78-20.88,2.03s-9.78-7.67-4.46-11.58c3.21-2.36,10.52-.64,12.9-2.9.7-.67,1.24-2.14,1.14-3.12-.16-1.51-3.62-9.22-3.25-9.56Z"/>
  <path class="cls-1" d="M171.78,192.38l-9.83-13.87c2.22-2.86,4.26-5.5,5.79-8.82.25-.54.95-2.95,1.08-3.04.27-.19.67.12.89.33,1.61,1.5,3.39,5.59,5.11,7.35.57.58,1.98,1.19,2.78,1.19,4.1,0,6.48-7.61,10.64-9.12,5.6-2.03,10.53,3.67,8.05,8.95-4.74,5.42-9.15,11.87-14.02,17.13-3.11,3.35-7.29,2.83-10.49-.08Z"/>
  <path class="cls-1" d="M152.8,363.56c-.57,1.94-1.6,2.92-.71,5.05.52,1.23,1.34,1.66,2.49,2.18,3.72,1.67,10.3,2.33,11.57,6.89,1.45,5.19-2.78,9.74-8.08,8.75-6.6-2.95-14.61-4.59-21.07-7.63-1.2-.57-2.41-1.51-3.21-2.58-2.09-2.77.06-3.41.29-6.35.06-.73-.23-1.78-.15-2.15.06-.31,3.25-5.01,3.52-5.17l15.34,1Z"/>
  <path class="cls-1" d="M137.9,509.29c3.4-.96,6.54-3.11,9.12-5.47l.56.11,11.49,16.55c1.11,3.84.32,6.6-3.38,8.27-5.77,2.6-12.57,4.09-18.4,6.74-5.01.95-8.96-4.59-5.94-8.83,2.44-3.42,9.85-3.33,11.31-6.27,1.99-3.99-3.67-7.62-4.76-11.1Z"/>
  <path class="cls-1" d="M156.36,484.59c3.27,1.69,6.73,7.69,10.87,5.87,2.32-1.02,3.69-7.01,5.47-9.21,4.05-5,11.45-1.17,10.01,5.12l-8.74,18.62c-2.09,3.08-5.45,3.77-8.65,1.89l-12.2-10.29c-.28-.63.83-2.17,1.12-2.89,1.16-2.91,1.9-5.99,2.12-9.12Z"/>
  <path class="cls-1" d="M136.35,439.22l10.66-4.8,9.08,10.95c1.74,3.02,1.26,6.87-1.81,8.79l-18.83,8.75c-5.32,1.24-9.55-4.24-6.5-8.95,2.74-4.24,15.46-3.95,9.38-11.96-.37-.49-2.3-2.31-1.99-2.78Z"/>
  <ellipse class="cls-6" cx="143.9" cy="272.5" rx="11.74" ry="11.75"/>
  <polygon class="cls-5" points="58.5 177.11 94.53 188.12 58.5 199.13 58.5 177.11"/>
  <path class="cls-1" d="M165.25,53.4c3.33-.69,6.7-2.92,8.23-6.01.34-.22,1.34,1.12,1.84,1.38,5.33,2.79,7.98-6.44,12.15-7.29,5.21-1.06,8.72,4.36,5.35,8.68-3.64,4.66-9.06,8.76-12.79,13.46-2.3,1.93-5.34,2.77-7.9.79-1.44-1.12-5.3-7.86-6.4-9.84-.12-.22-.63-1.02-.49-1.18Z"/>
  <circle class="cls-6" cx="145.68" cy="71.98" r="10.55"/>
  <path class="cls-1" d="M117.89,360.67l9.44.66,1.34.44c.31,2.63,1.78,5.72,1.45,8.35-.28,2.21-2.88,4.15-5,4.34-2.72.25-6.54-.35-9.34-.46s-6.29.07-9.13-.22c-6.32-.64-5.88-9.48-.23-10.01,1.98-.19,5.07.45,7.13.45,2.17,0,4.34-1.18,4.34-3.56Z"/>
  <path class="cls-1" d="M161.23,295.72l2,6.52c-.09.4-3.99,1.98-4.71,2.4-2.99,1.77-4.8,4.46-5.48,7.87l-13.67.74c-4.67-.91-6.33-6.99-2.21-9.73,3.18-2.12,10.31.2,12.63-2.5,2.06-2.4-.11-5.41-.54-8,3.54,2.37,7.8,2.89,11.99,2.69Z"/>
  <path class="cls-1" d="M126.09,122.83c1.36,3.27,4.7,6.69,1.89,10.2-1.12,1.4-2.44,1.91-4.09,2.36-5.58,1.53-11.61,2.29-17.25,3.67-5.88-.02-7.44-7.92-1.61-9.86,3.74-1.24,10.28-.38,9.97-5.94,3.69.95,7.42-.04,11.1-.43Z"/>
  <circle class="cls-6" cx="111.93" cy="328.85" r="9.35"/>
  <circle class="cls-6" cx="109.43" cy="470.91" r="9.33"/>
  <path class="cls-6" d="M169.7,599.63c.29,6.19-2.33,12.23-7,16.25-3.88,3.34-9.46,4.84-14.35,6.11-.41.11-1.21.46-1.56.24-.22-.14-2.36-4.11-2.55-4.58-.09-.22-.19-.4-.11-.65,6.92-3.65,14.19-7.1,17.6-14.66,2.03.04,4.12-.3,5.9-1.33.3-.18,1.9-1.57,2.07-1.38Z"/>
  <path class="cls-1" d="M146.35,127.27c.57-1.74,1.42-3.14.49-5.05-.28-.57-.87-.85-1.16-1.29-.15-.23-.35-.17,0-.45,4.59-.52,9.05-.71,13.11-3.13.66-.4,3.08-2.46,3.29-2.51.84-.22,2.77,1.55,3.29,2.19,5.69,6.99-2.3,11.4-6.48,16.01-3.75-2.69-7.92-5.02-12.54-5.77Z"/>
  <path class="cls-1" d="M130.78,440.99c.24.22,1.58,5.42,1.77,6.21-3.82,1.4-7.61,3.88-8.22,8.24l-12.32.44c-2.11-.48-3.68-2.48-3.37-4.66.79-5.6,8.36-2.72,11.85-4.39,1.08-.52,2.08-2.29,2.05-3.48-.02-.69-1.25-3.97-1.09-4.14,2.36,1.07,4.81,1.96,7.45,2.02.45,0,1.82-.3,1.89-.24Z"/>
  <circle class="cls-6" cx="163.53" cy="39.11" r="7.6"/>
  <path class="cls-5" d="M134.09,510.65l5.14,7.98c-3.39,1.17-6.97,2.07-9.9,4.22-3.14-.19-6.34-.28-9.44-.67l4.02-11.09c3.47.31,6.75.16,10.18-.44Z"/>
  <path class="cls-1" d="M141.83,44.97c.83-.28,8.91,4.62,10.3,5.21.74.87-.72,2.46-1.48,2.96-1.97,1.3-4.02.78-6.2.92-3.98.25-8,.52-12.01.68-3.36-.47-4.55-4.94-1.74-6.86,2.48-1.69,7.75.12,10.29-1.94.34-.28.54-.87.83-.97Z"/>
  <path class="cls-5" d="M58.5,529.09l1.24.21c2.95,4.14,6.09,8.28,9.76,11.81.51.49,2.04,1.31,1.91,2.1-2.12,1.03-4.22,2.25-6.02,3.79-.83.72-2.1,2.42-2.91,2.88-.88.5-2.95.89-3.99,1.02v-21.8Z"/>
  <path class="cls-1" d="M164.81,571.14l3.75,19.72c.36,2.7-.64,5.76-3.22,6.95-.3.14-1.94.92-1.85.15.16-1.32.77-2.82.88-4.24.72-9.12-2.65-16.58-9.34-22.58h9.79Z"/>
  <path class="cls-6" d="M121,570.7c-.08.65.22,1.63-.22,2.12l-10.01,5.67-4.23-16.24,2.55,3.78c3.01,3.33,7.41,4.99,11.9,4.67Z"/>
  <path class="cls-5" d="M143.46,123.93c.19.26-1.83,2.3-2.16,2.4-.88.26-3.81.13-5.07.27-1.19.13-2.37.45-3.54.68l-2.36-4.91c2.2-.14,4.62-.78,6.79-.89,2.77-.13,3.9,1.59,6.34,2.45Z"/>
  <path class="cls-6" d="M105.62,546.03l-.09,12.44c-1.28-3.82-3.46-7.14-6.12-10.12,2-.86,3.96-3.18,6.2-2.32Z"/>
  <path class="cls-6" d="M105.65,541.11c-.32.37-1.29-1.14-1.43-1.35-2.98-4.7-.79-11.68,4.76-13.11-.85,1.35-1.84,2.64-2.4,4.16-.33.9-.94,3.3-.94,4.18v6.12Z"/>
  <path class="cls-4" d="M137.01,16.91c-.07.14-.21.2-.22.22H16.01l120.99-.22Z"/>
  <path class="cls-6" d="M94.97,390.48l4.67,9.45c-.91.23-2.12-1.13-2.67-1.78-.51-.62-2.01-3.11-2.01-3.78v-3.89Z"/>
  <path class="cls-4" d="M203.73,17.35c-.92-.02-1.73-.2-2.55-.23-5.73-.21-11.51.18-17.25,0-.03-.07-.18-.14-.22-.22,5.88.26,12.06-.35,17.91,0,.62.04,1.55.17,2.1.45Z"/>
  <path class="cls-4" d="M152.8,58.96c.1.1.07.6-.31.42-1.04-.68-2.24-.91-3.39-1.29-.34-.12-.64.2-.52-.47.67-.11,3.91,1.01,4.22,1.34Z"/>
  <rect class="cls-4" x="153.33" y="59.19" width=".53" height="1.35" transform="translate(25.35 163.45) rotate(-60.22)"/>
  <path class="cls-4" d="M154.96,60.59l1.52,1.93c-.64-.78-1.57-1.29-2.11-2.11l.59.18Z"/>
  <path class="cls-6" d="M106.54,562.02c-.08.15-.38-.13-.22-.44.08-.15.38.13.22.44Z"/>
  <path class="cls-6" d="M175.04,36.71c-.58.07-.35,0-.45-.33-4.64-15.43-25.9-8.46-22.08,5.84.52,1.97,1.75,3.51,2.85,5.16l-15.61-8.19c-5-3.35-5.63-8.14-3.08-13.39s6.13-12.27,9.2-17.28,8.34-5.53,13.39-3.08,12.36,6.14,17.27,9.2c3.57,2.22,5.06,5.95,4.47,10.11-1.5,4.2-4.16,7.88-5.96,11.96Z"/>
  <path class="cls-5" d="M16.01,17.13h120.77c-4.18,8.02-9.22,15.48-1.45,23.59l3.01,2.22c-2.83.57-6.13-.2-8.82,1.07-4.29,2.03-5.62,7.81-2.74,11.61l-8.88,1.1c-6.65-16.06-22.52-24.32-39.28-25.79-18.88-1.67-38.15,2.27-50.59,17.47-9.73,11.89-11.26,32.67-8.61,47.32,3.23,17.83,16.31,29.09,33.6,32.9l8.15-27.26c-8.78-2.12-17.41-5.74-19.08-15.65-1.4-8.27,1.1-17.08,9.13-20.78,9.11-4.19,29.83-4.4,38.63.59,1.82,1.03,6.98,5.38,7.3,7.39.08.53-.23,1.97-.18,2.85.26,4.19,1.31,8.37,1.47,12.58-2.03,6.13-7.05,10.27-13.25,11.8,1.91,9.19,4.19,18.35,6,27.58,5.63-1.79,11.02-4.4,15.73-7.98.27-.07,2.67,1.36,2.9,1.59.17.17,1.59,2.74.79,2.79-3.11.88-6.97.84-9.61,2.85-7.12,5.41-2.85,16.51,6.11,15.9.95-.06,5.81-1.34,6.11-1.12-3.63,6.49-4.92,14.07-3.49,21.4.13.66,1.24,4.19,1.05,4.4l-90.52-33.82v31.82l16.44,4.69.04,35.25-16.47,5.33v32.37l100.75-37.94v-23.92c3.69,2.77,7.87,4.8,12.41,5.72,1.7.34,3.41.47,5.1.79.92,3.2,2.29,6.25,3.4,9.39-3.91,1.07-8.4.16-12,2.49-4.14,2.67-5.69,7.79-4.04,12.41-.08.29-2.16,1.29-2.63,1.61-5.63,3.92-8.55,10.42-6.58,17.22,4.74,10.55,9.99,20.88,14.98,31.32.15.77-.65,1.3-1.03,1.99-6.27,11.29,1.09,23.67,13.75,23.87-.25,3.58,1.57,6.85,2.45,10.23-5.86.58-12.32-.65-15.09,5.93-1.28,3.04-.81,5.9.63,8.76-5.53-.1-11.05-.34-16.58-.43-.53,0-1.01-.23-1.54-.24-5.87-.1-10.47,2.62-13.17,7.81l-41-10.25,60.94-16.13v-40.83H20.24v25.59h75.84l-75.63,19.46-.23,23.13,76.08,19.71H20.24v25.36h78.07c-.17.72-.07,2.35-.33,2.9-.13.28-1.84,1.4-2.23,1.78-3.97,3.96-5.03,9.66-3.11,14.9-2.6-.99-5.34-1.66-8.08-2.15-28.09-5-59.13,4.74-64.88,35.75-1.99,10.75-2.03,25.32,1.73,35.66,5.06,13.91,17.65,22.25,31.63,25.54.47-1.08.66-2.3,1.06-3.4.09-.23.08-.66.39-.61.34,6.98-3.15,13.22-4.79,19.81l-29.46-10.92v31.82l15.92,4.65.43.23c.22,11.72.08,23.5.07,35.24l-16.43,5.04v32.48l39.37-14.46,8.22,31.07c.07,1.01-1.72,3.97-2.21,5.3-.39,1.04-.73,2.13-.89,3.23H20.24v31.15h9.34c-12.46,8.88-14.94,26.6-4.89,38.37,4.3,5.04,10.04,8.02,16.59,8.99,17.5,2.59,35.79,3.04,53.35,5.59,9.08.33,17.76-3.58,23.91-10.12,8.82-2.49,18.21-3.99,26.96-6.63,16.44-4.95,24.65-22.3,16.45-37.91-3.79-7.22-8.25-14.16-11.94-21.43-.19-.38-1.21-2.21-1-2.45,4.35-1.21,8.9-2.11,12.83-4.41,8.26-4.83,12.39-13.8,11.64-23.29-.12-1.55-.96-3.47-1.06-4.73-.04-.45.24-.88.18-1.27-1.04-6.97-2.68-13.86-3.79-20.81,6.35-.63,10.71-6.15,11.13-12.34.28-4.1-.05-8.74-.02-12.92.06-7.04,1.21-13.01-5.13-17.99-3.41-2.68-7.36-2.78-11.55-2.8.55-2.29,0-4.97-1.08-7.04l-12.06-17.32c.15-.65.65-.97,1.19-.53l11.16,9.54c4.47,3.08,10.66,2.76,14.12-1.67,2.84-6.28,7.03-13.07,9.45-19.47,4.34-11.44-10.7-18.76-17.1-8.88-1.27,1.96-1.94,4.8-3.15,6.64-.14.21-.32.5-.62.45-2.14-1.55-4.21-4.02-6.39-5.42-.51-.33-2.3-.97-2.38-1.06-.16-.18-.64-3.88-.82-4.63-1.01-4.13-3.28-8.34-6-11.57-.42-.5-2.48-2.1-2.11-2.65,2.59-1.17,5.6-2.25,8.08-3.6,5.85-3.18,7.14-9.88,3.34-15.3-2.09-2.98-5.15-5.88-7.43-8.81-.18-.24-1.04-1.25-.89-1.44,4.83-1.93,9.76-4.15,12.12-9.13,1.71-3.61,1.92-7.79.38-11.5l-12.94-23.88c.3-.23,6.09,2.12,7.11,2.34,9.95,2.22,17.16-9.3,10.68-17.13-3.16-3.83-7.84-3.87-11.94-5.85-.22-.1-.37.07-.25-.35.09-.32,1.63-2.46,1.91-2.55,1.31-.4,4.12.07,6.08-.37,15.18-3.41,10.69-23.81,13.13-35.15.23-2.69-.98-5.17-1.54-7.66l13.84-6.3c5.21-2.96,7.03-8.36,5.25-14.08-1.46-4.69-8.09-9.97-10.89-14.24-.15-.22-.27-.37-.22-.67,2.53-1.45,5.41-2.33,7.86-3.94,6.03-3.97,8.94-11.44,6.71-18.42-9.88-18.34-19.37-37.09-29.88-55.11-.39-.67-1.51-1.88-1.7-2.3-.23-.51-.6-3.54-1-4.78-2.11-6.52-5.12-12.77-7.12-19.35.05-.49.63-1.06,1.01-.58,3.21,4.01,5.84,9.02,9.13,12.9,4.28,5.05,11.69,6.35,16.55,1.25,5.1-5.34,9.66-12.3,14.63-17.85,5.9-10.92-8.06-21.13-16.75-12.08l-5.11,6.01c-1.89-2.18-3.34-5.37-5.24-7.45-.39-.43-2.18-1.69-2.22-1.83-.23-.84.21-2,.23-2.84.08-2.91.02-5.73-.56-8.58-1.14-5.65-4.06-10.81-7.89-15.04,2.93-3.9,8.65-7.06,9.11-12.42s-1.92-9.17-6.22-11.83c-.08-.27,1.06-2.36,1.26-2.92,1.03-2.77,1.34-5.21,1.18-8.19-.58-10.32-3.16-21.16-3.82-31.55-.79-5.65-4.28-10.72-9.32-13.38.57-1.08,1.62-1.94,1.79-3.22.85.29,1.64.66,2.5.95.64.21,1.72.27,2.17.5.79.41,5.91,9.84,7.03,11.44,3.42,4.89,9.13,5.5,13.99,2.24,4.37-4.9,9.99-9.55,14.12-14.57,4.43-5.38,2.18-13.4-4.66-15.12s-9.73,3.66-13.68,7.68c-.45.09-.27-.11-.38-.29-.39-.64-1.17-1.62-.9-2.31,2.15-4.31,4.75-8.43,6.85-12.75s2.99-8.29,1-12.91c5.73.17,11.52-.22,17.25,0,.82.03,1.63.21,2.55.23.07,0,.15,0,.22,0,.16.36.63.17.89.22,3.17.66,6.1,2.51,8.23,4.89.95,1.07,1.72,2.27,2.67,3.34.03.06-.03.16,0,.22.86,1.69,1.45,3.3,2,5.12,0,.07,0,.15,0,.22.04.57-.2,1.4.22,1.78v663.48c-.48,6.89-6.3,13.98-13.12,15.35-.26.05-.73-.15-.89.22-.07,0-.15,0-.22,0-.78.06-1.55.12-2.32.23H16.01c-7.08-.8-12.75-5.59-14.96-12.3-.28-.85-.36-1.77-.61-2.62l-.23-2.77C.38,473.85-.08,252.91.44,32.04c.8-7.72,7.81-14.44,15.57-14.91Z"/>
  <path class="cls-4" d="M217.97,32.93c0,.07,0,.15,0,.22-.42-.38-.18-1.21-.22-1.78.39.3.22,1.07.22,1.56Z"/>
  <path class="cls-4" d="M217.75,31.15c-.55-1.82-1.14-3.42-2-5.12,1.15,1.29,1.81,3.4,2,5.12Z"/>
  <path class="cls-4" d="M204.85,17.58c-.26-.05-.73.14-.89-.22.29,0,.74-.11.89.22Z"/>
  <path class="cls-4" d="M215.74,25.81c-.95-1.07-1.72-2.27-2.67-3.34,1.11.82,2.02,2.12,2.67,3.34Z"/>
  <path class="cls-4" d="M204.85,711.98c-.25.3-.56.21-.89.22.16-.37.63-.17.89-.22Z"/>
  <path class="cls-2" d="M75.08,530.07c-.1-.1-.68-.13-.35-.53.61-.73,4.26-.77,2.79.67-.81.79-1.74.58-2.44-.15Z"/>
  <circle class="cls-2" cx="72.95" cy="527.09" r=".98"/>
  <circle class="cls-2" cx="96.97" cy="527.76" r=".9"/>
  <path class="cls-2" d="M149.76,160.64c0,7.84-6.36,14.2-14.2,14.2s-14.2-6.36-14.2-14.2,6.36-14.2,14.2-14.2,14.2,6.36,14.2,14.2ZM145.85,160.64c0-5.68-4.6-10.29-10.28-10.29s-10.28,4.61-10.28,10.29,4.6,10.29,10.28,10.29,10.28-4.61,10.28-10.29Z"/>
  <circle class="cls-6" cx="135.56" cy="160.64" r="10.28"/>
</svg>