<?xml version="1.0" encoding="UTF-8"?>
<svg id="Layer_1" data-name="Layer 1" xmlns="http://www.w3.org/2000/svg" viewBox="0 0 477.84 765.84">
  <defs>
    <style>
      .cls-1 {
        fill: #b8bd99;
      }

      .cls-2 {
        fill: #44bdc5;
      }

      .cls-3 {
        fill: #9f9839;
      }

      .cls-4 {
        fill: #9f9938;
      }

      .cls-5 {
        fill: #be3192;
      }

      .cls-6 {
        fill: #ba443b;
      }
    </style>
  </defs>
  <path class="cls-2" d="M477.84,25.43v46.07c-1.15,5.75-3.73,10.76-8.15,14.64-3.03,2.66-8.27,5.48-12.29,5.94-1.6.18-5.43-.32-6.43.29-.72.43-1.84,4.01-2.86,4.81.05.84,13.51,3.65,15.33,4.32,16.81,6.18,15.18,30.84-1.9,35.04-7.42,1.82-13.92-1.92-21.12-3.13.02.74.44,1.41.48,2.16.2,3.41-6.14,25.62-7.79,29.64-3.23,7.86-12.93,10.33-19.57,4.91-7.64-6.24-4-14.49-1.43-22.32h-10.55c8.61,11.32-2.87,26.49-16.01,20.57-4.37-1.97-6.71-6.83-9.86-10.19-.38-.4-.33-.44-.99-.3-4.9,9.58-12.51,18.6-23.99,11.51-1.7,4.41-5.86,6.09-10.09,7.2-.96,0-1.92,0-2.88,0l-30.08-11.9c-5.82-4.09-8.65-11.33-5.34-18,2.41-4.84,13.13-18.82,16.98-23.32,8.52-9.95,24.97-3.52,23.66,9.75-.57,5.71-5.48,9.49-8.1,14.2l11.76,4.7c1.44-.12,13.94-20.7,16.56-23.63,3.97-4.45,10.46-6.33,16.15-4.18,5.07,1.92,7.3,7.23,11.18,10.64.26-6.66,4.78-11.68,11.41-12.34,2.45-.24,4.15.61,6.34-.14-.63-.69-2.39-3.65-3.11-3.7-.43-.03-3.71,1.95-4.78,2.29-6.37,2.05-24.14,1.75-31.71,1.87-1.16.02-2.21.54-3.34.54-13.87,0-20.69-17.75-10.09-26.92,4.49-3.88,8.09-3.7,13.68-3.83.78-.02,5.28.19,5.28-.24-1.69-.48-3.55-.19-5.28-.24-12.63-.39-21.74-7.96-22.97-20.94-.91-9.67-.21-20.03-1.01-30.18-1.1-13.91,7.1-28.7,21.83-30.46,13.03-1.56,27.96-1.21,41.25-1.93,8.96-.49,17.89-1.02,26.89-1.41,15.15-.67,31.84-5.11,40.61,11.17l2.31,7.05ZM354.54,57.58v15.12c0,4.37,8.33,12.03,13.2,11.27,27.73-1.43,57.42,1.93,84.93.03,8.61-.6,16.35-6.01,17.03-15.11,1.03-13.69-.72-28.78-.13-42.61-1.72-6.22-6.6-10.99-13.08-11.87-26.22,1.01-52.32,2.97-78.43,3.84,4.44,3.63,8.17,6.31,10.49,11.82,8.99,21.35-15.2,40.28-33.99,27.52ZM382.03,39.03c0-7.9-6.4-14.3-14.3-14.3s-14.3,6.4-14.3,14.3,6.4,14.3,14.3,14.3,14.3-6.4,14.3-14.3ZM382.2,98.2c-3.62,3.85-13.28,2.31-18.27,3.08-7.31,1.12-7.56,12.6.9,13.43,4.94.49,12.6-.71,17.76-1,4.52-.26,12.52.48,16.42-1.34,2.38-1.11,4.49-3.84,4.48-6.56,0-.92-3.72-13.06-4.31-13.45l-14.11-.16c-1.35,1.7-1.14,4.17-2.87,6.01ZM440.9,92.13h-21.83l-7.34,12.33c.31,2.06-.78,4.75-.57,6.57.39,3.44,5.15,7.11,8.25,8.1,11.34,2.05,23.71,7.49,34.89,9.25,3.09.49,5.22.45,7.86-1.3,4.79-3.17,6.28-9.34,2.72-14.08-6.85-9.12-30.68-2.36-23.99-20.87ZM328.02,127.26c-1.31.3-2.52,2.19-3.42,3.3-5.18,6.36-9.38,13.6-14.61,19.94-1.58,2.9.08,5.72,2.69,7.25,6.93,4.06,17.77,5.95,25.06,9.96,4.11,1.43,8.08-3.91,5.51-7.43-2.89-3.96-13.88-3.23-16.3-10.09-2.95-8.36,7.06-12.68,7.46-18,.29-3.84-2.83-5.76-6.41-4.93ZM401.43,128.71c-5.1,1.04-6.4,8.52-2.24,11.62,3.82,2.84,11.08-.13,15.66,2.09,6.27,3.04.85,12.04.26,16.78-.85,6.87,7.38,10.81,11.6,4.88,1.67-2.35,7.17-21.77,7.73-25.38.31-2,.61-5.34-.79-6.93-.65-.74-6.21-2.23-7.6-2.47-4.89-.87-20.05-1.51-24.62-.58ZM369.63,134.08c-2.06,2.21-14.57,20.16-15.3,22.38-1.83,5.56,4.04,9.19,7.89,5.01s5.66-12.1,12.77-12.18c8.15-.1,11.11,12.49,16.69,11.94,3.16-.31,5.68-4.33,3.84-7.15-5.72-5.99-10.72-13.68-16.5-19.49-3.3-3.32-5.73-4.42-9.39-.5Z"/>
  <path class="cls-6" d="M102.19,176.58v587.82h154.48l-4.8-3.11c-13.5-15.56-4.07-36.66,17.53-34.81,4.19.36,6.64.71,4.52,5.29-9.13-3.09-19.51-1.27-22.31,9.11-3.15,11.68,3.85,21.71,16.28,20.59,1.15-.1,5.79-1.57,6.04-1.38.15.11,1.06,3.28,1.01,3.55-.08.54-1.21-.04-1,.76l4.73-.06,12.58-37.08c.82-1.22,5.08-1.03,6-.33l12.9,37c.81.97,3.5.28,4.77.48l2.88-37.47c.46-.66,5.75-.94,6.47.31l10.36,30.91,10.84-30.91c.81-1.13,6.51-1.48,6.68.44l1.92,37.19c-1.6,0-3.2,0-4.8,0l-1.68-32.63-11.27,32.63c-1.44,0-2.88,0-4.32,0l-10.31-32.63-1.68,32.63c-5.11,0-10.24,0-15.35,0-.2-4.1-2.36-7.99-3.43-11.93-1.9.11-13.4-.49-13.9.22l-3.3,11.71c-5.11.03-11.09-.71-15.83.96h-6.24l-4.06-.98-156.19.02.48-588.3ZM299.85,749.05l-5.52-17.76-5.52,17.76h11.03Z"/>
  <path class="cls-6" d="M355.02,764.88l15.83-.48-5.99-3.84c-10.25-11.79-4.86-32.61,11.97-34.08,2.2-.19,9.81-.22,11.31,1.2.94.89.08,3.84-.77,4.05-.33.08-5.18-1.38-6.67-1.43-7.32-.23-14.39,4.36-15.48,11.91-2.25,15.61,8.76,22.52,22.9,17.87-.04,1.57.93,2.85,0,4.32,1.15-.17,3.44.38,4.34-.22,1.62-1.08,10.52-32.55,12.72-36.71.7-1.48,5.46-1.3,6.23-.52l12.7,37.44h9.12v-33.59h-11.51v-3.84s28.31,0,28.31,0c0,1.28,0,2.56,0,3.84h-11.52s0,34.07,0,34.07c-1.6.01-3.46,0-5.04,0h-9.12c-1.71,0-3.8,0-5.52,0-.6-3.99-2.52-7.93-3.82-11.78h-13.47s-3.82,11.78-3.82,11.78c-.46,0-1.54.51-2.63.51-4.03,0-8.86-1.67-12.72.44h-6.72c-.66-.73-1.71-.89-2.64-.96-5.63-.43-12.23.02-17.99,0ZM402.52,749.05h11.51l-5.99-17.28-5.52,17.28Z"/>
  <polygon class="cls-5" points=".96 748.57 0 748.09 0 13.92 .96 13.44 .96 748.57"/>
  <path class="cls-5" d="M19.19,0v.48c-1.36-.15-3.92-.15-5.28,0v-.48h5.28Z"/>
  <path class="cls-4" d="M337.75,176.58c.96,0,1.92,0,2.88,0,36.45.01,72.93,0,109.39,0-.13,183.45.16,366.94,0,550.39h-28.31s0,3.84,0,3.84h11.51v33.59h-9.12l-12.7-37.44c-.77-.78-5.52-.96-6.23.52-2.19,4.16-11.1,35.63-12.72,36.71-.9.6-3.19.05-4.34.22.93-1.47-.04-2.75,0-4.32-14.14,4.65-25.16-2.26-22.9-17.87,1.09-7.55,8.16-12.14,15.48-11.91,1.49.05,6.33,1.51,6.67,1.43.86-.22,1.71-3.16.77-4.05-1.5-1.43-9.11-1.39-11.31-1.2-16.84,1.47-22.22,22.29-11.97,34.08l5.99,3.84-15.83.48c-.32,0-.64,0-.96,0l-1.92-37.19c-.17-1.92-5.87-1.57-6.68-.44l-10.84,30.91-10.36-30.91c-.72-1.26-6-.98-6.47-.31l-2.88,37.47c-1.27-.2-3.96.49-4.77-.48l-12.9-37c-.92-.71-5.18-.89-6,.33l-12.58,37.08-4.73.06c-.22-.8.92-.22,1-.76.04-.28-.87-3.44-1.01-3.55-.25-.19-4.89,1.28-6.04,1.38-12.43,1.11-19.43-8.92-16.28-20.59,2.8-10.38,13.18-12.19,22.31-9.11,2.11-4.57-.34-4.93-4.52-5.29-21.6-1.85-31.03,19.25-17.53,34.81l4.8,3.11H102.19V176.58c78.51.02,157.05-.02,235.56,0ZM267.71,278.79c13.71-43.16-29.3-82.99-71.47-65.48-30.37,12.61-40.92,47.4-25.69,76.05.45.85,2.73,3.66,2.17,4.31-24.73,6.01-39.41,25.33-42.22,50.15-4.15,36.78-4.84,74.06-9.11,110.85-.32,12.98,5.24,28.94,13.03,39.26,13.52,17.92,37.31,25.81,58.93,19.52-1.28,5.04-2.65,10.37-2.87,15.6-.74,17.37,9,34.42,13.45,50.83-5.94,2.58-10.69,6.8-15.73,10.71-23.53,1.06-44.65.39-62.26,18.35-35.82,36.53-8.86,97.85,42.25,97.43,14.72-.12,31.15-2.42,46.04-3.37,23.08-1.47,47.1-2.09,70.03-4.33,7.92-.77,15.71-2.88,22.8-6.46,6.21-3.14,6.81-5.81,14.62-5.52,12.79.47,22.4,1.52,34.78-3.13,26.93-10.12,43.52-34.98,37.77-64.15-.58-2.95-1.74-5.72-2.41-8.62-7.77-33.26-15.06-68.82-24.19-101.53-4.1-14.67-14.25-26.61-27.46-33.94,15.4-10.35,32.83-17.77,47.26-29.5,20.85-20.74,25.5-53.33,5.27-76.32-11.17-12.7-26.66-25.77-38.88-37.89-13.02-12.9-26.68-28.48-40.27-40.33-12.76-11.12-29.12-15.32-45.83-12.47Z"/>
  <path class="cls-3" d="M13.91.48c1.35-.15,3.92-.15,5.28,0,7.33.79,13.06,7.95,13.45,15.1v730.85c-1.82,18.69-27.73,20.63-31.68,2.14V13.44c.01-.16-.02-.32,0-.48l1.92-4.8C5.24,4.35,9.3,1,13.91.48Z"/>
  <path class="cls-2" d="M144.24,134.19l-8.94,7.36c3.01,2.04,6.82,4.22,9.58,6.5.75.63.7,1.54,1.45,1.66,0-1.58,1.02-2.87,1.94-4.06,5.42-7.06,13.73-13.81,19.42-20.88,6.2-4.31,13.59-4.51,19.15,1l16.08,25.58c.98,1.25,1.75-1.88,2.35-2.9,3.7-6.28,7.92-14.32,12.06-20.08s9.77-8.62,16.5-5.92c1.33.53,4.57,3.16,4.86,3.18.33.02,4.4-2.7,5.97-3.03,2.83-.58,5.69-.29,8.3.88,3.4,1.51,18.87,16.95,21.72,20.5,10.61,13.2-7.81,28.57-19.2,16.34-1.16,1.17-2.54,2.46-4.08,3.1-2.4,1.01-4.86.68-6.85,1.3-.85.26-2.2,2.14-3.37,2.87-5.66,3.52-12.31,1.95-16.47-2.94-6.62,6.09-16.91,4.54-20.56-3.87-2.17,4.37-4.64,7.82-9.65,9.06-10.84,2.68-14.9-6.21-19.61-13.86-5.61,7.11-13.51,16.3-23.43,10-.9-.57-2.95-3.28-3.67-2.8-2.96,7.29-11.2,10.04-18.21,6.44-3.74-1.92-22.04-15.06-24.76-17.95-1.32-1.4-2.83-4.38-3.35-6.25-2.9-10.41,4.68-14.46,11.54-20.15,3.57-2.96,13-11.23,16.69-12.58,13.33-4.87,23.54,10.97,14.55,21.51ZM133.24,120.55c-.86.18-1.78.84-2.51,1.33-4.76,3.22-14.27,11.09-18.48,15.11-3.44,3.28-3.93,4.92-.91,9.08,7.18,4.21,14.31,11.6,21.4,15.55,3.45,1.92,7.69.48,7.86-3.52.26-6.06-13.73-8.2-13.78-16.87-.04-7.61,11.2-10.5,12.2-14.9.86-3.8-2.01-6.57-5.79-5.79ZM245.5,128.7c-1.22.28-2.8,1.66-3.62,2.61-2.86,3.28-10.24,16.88-12.31,21.27-2.59,5.49-.53,11.58,6.21,10.53s6.84-13.79,13.46-14.38c5.14-.46,7.73,5.23,11.26,7.95,6.82,5.25,14.35-2.18,9.6-8.65-2.51-3.42-14.59-15.31-18.06-17.92-2.02-1.52-3.99-1.99-6.54-1.41ZM194.15,160.6c1.39-1.23,2.14-4.22,1.22-5.97l-14.77-23.13c-2.72-2.45-5.48-1.43-8.14.45-4.79,6.34-11.66,11.87-16.53,18.01-2.23,2.8-3.91,5.37-.5,8.16,5.66,4.63,10.23-6.69,14.81-9.21,3.43-1.89,8.09-1.56,10.82,1.32,2.98,3.14,7.1,15.65,13.09,10.36ZM232.05,131.15c-2.89-2.41-5.69-.61-7.63,1.89-2.14,2.76-11.43,17.87-12.39,20.72-1.79,5.3,3.25,8.24,6.66,4.27,2.16-2.52,6.23-9.34,8.14-12.49.9-1.48,6.87-11.62,6.73-12.31-.03-.13-1.34-1.93-1.51-2.08Z"/>
  <path class="cls-6" d="M84.44,440.02v5.28h-17.99c-.76,0-3.92,1.47-4.59,2.13-1.99,1.99-1.74,5.52.02,7.58.34.4,3.4,2.28,3.61,2.28h18.95v5.28h-18.47c-2.51,0-5.57,2.87-5.56,5.52s3.05,6.48,5.56,6.48h18.47v5.28h-26.63c-.15,0-.68.66-1.2.48-.09-4.41-.96-5.08,3.83-5.51-4.4-3.09-5.77-9.06-2.61-13.65l3.57-2.9c-6.61-3.07-7.33-13.21-.59-16.67.79-.41,4-1.57,4.67-1.57h18.95Z"/>
  <path class="cls-6" d="M95.47,749.53v5.28s-38.86.48-38.86.48c-.12-4.33-.79-5.91,4.32-5.29-.08-.75-1.1-.73-1.7-1.41-6.22-6.98-2.74-17.05,6.01-19.47,11.38-3.14,23.36,4.74,18.5,17.07l-2.66,3.34h14.39ZM69.48,733.82c-8.3.48-12.81,9.39-5.91,14.27,3.93,2.78,14.69,2.52,16.58-3.1,2.57-7.64-3.81-11.57-10.67-11.17Z"/>
  <path class="cls-6" d="M68.61,660.27l-11.76-10.07-.23-6.24c.83-.22.96.35,1.44.71,1.51,1.16,9.18,9.46,10.22,9.3l15.92-11.46c.24,1.37.63,5.2,0,6.24-.97,1.59-12.7,8.19-12.7,9.36.45.5,2.15,2.16,2.63,2.16h10.31v5.28h-40.78v-5.28h24.95Z"/>
  <path class="cls-6" d="M67.53,697.35c22.64-3.11,23.13,29.16,1.37,27.17-16.41-1.51-17.18-25-1.37-27.17ZM69.96,702.61c-6.83.26-13.05,6.12-8.28,12.81,4.09,5.73,17.68,4.68,19.2-3.31,1.17-6.15-5.62-9.7-10.92-9.5Z"/>
  <path class="cls-6" d="M71.48,485.61v19.67c10.02-.12,10.3-9.63,8.16-17.27.85.05,3.28-.91,3.8-.45.29.25,1.44,6.44,1.49,7.38.43,8.32-3.61,14.77-12.31,15.55-20.94,1.9-22.74-26.8-1.14-24.89ZM67.65,490.89c-10.59.21-10.02,13.25,0,14.4v-14.4Z"/>
  <path class="cls-6" d="M71.48,616.13v19.67c8.41-.93,9.87-5.97,9.08-13.64-.34-3.24-2.78-3.99,2.92-4.6,3.09,9.08,1.77,21.84-9.84,23.03-22.36,2.29-23.95-26.4-2.15-24.47ZM67.65,621.41c-10.78-.6-9.81,13.54,0,13.92v-13.92Z"/>
  <path class="cls-6" d="M84.44,412.19c-.13.81.19,4.62,0,4.8-.22.22-2.9-.36-2.89.24,1.57,2.38,3.15,4.72,3.36,7.68.32,4.49-2.18,8.95-6.93,9.37-9.36.82-11.54-8.84-11.3-16.34-8.35-.75-7.41,8.08-4.8,13.43-3.5,1.42-3.85,1.02-4.94-2.49-1.99-6.39-.98-14.05,6.35-16.01.45-.12,3.4-.69,3.63-.69h17.51ZM70.04,417.47c.36,4.11.46,11.39,5.99,11.56s6.4-6.2,2.9-9.65c-2.46-2.43-5.76-1.89-8.89-1.9Z"/>
  <path class="cls-6" d="M84.44,516.32v5.28h-17.03c-.83,0-3.74,1.06-4.57,1.66-5.21,3.78-.86,11.77,4.57,11.77h17.03v5.28h-27.83c.13-.81-.19-4.62,0-4.8.25-.25,4.3.38,4.33-.24-5.81-3.42-6.55-12.75-.93-16.76,1.01-.72,4.4-2.19,5.49-2.19h18.95Z"/>
  <path class="cls-6" d="M60.45,596.45v7.2h17.51c2.48,0,3.34-4.8,2.16-6.71.8.15,4.03-.23,4.29.02.21.2.57,4.3.53,5.03-.14,2.76-2.58,6.94-5.54,6.94h-18.95c-.22,0,.38,4.23-.28,4.33h-3.56s0-4.33,0-4.33h-6.72c-.27,0-1.03-4.71-.96-5.28h7.68v-7.2h3.84Z"/>
  <path class="cls-6" d="M79.64,559.51c.87.34,3.44-.74,3.81-.47.26.19,1.33,4.79,1.41,5.56,2.26,22.42-30.67,21.81-28.67-.48.26-2.9.55-6.08,4.01-4.61,2.38,1.02.48,2.21.29,4.11-.9,9.08,5.09,13.48,13.78,11.39,7.12-1.71,7.09-9.78,5.36-15.5Z"/>
  <path class="cls-6" d="M61.41,671.79c-.62,2.62-1.21,4.67-.98,7.46.78,9.33,14.23,11.28,18.95,4.03,2.73-4.19-.06-10.98.28-11.47.2-.29,3.25-.76,3.76-.44.35.23,1.36,4.7,1.44,5.51,1.15,11.66-7.7,18.51-18.86,15.51-9.06-2.43-11.99-13.62-8.4-21.56l3.81.95Z"/>
  <rect class="cls-6" x="56.61" y="548.47" width="27.83" height="5.28"/>
  <circle class="cls-6" cx="49.06" cy="550.86" r="3.38"/>
  <path class="cls-5" d="M368.93,92.13c1.74.05,3.59-.24,5.28.24,0,.43-4.5.22-5.28.24v-.48Z"/>
  <path class="cls-3" d="M450.01,730.81c-.01,11.35,0,22.72,0,34.07-3.83.02-7.69-.04-11.52,0v-34.07s11.51,0,11.51,0Z"/>
  <path class="cls-3" d="M418.83,764.88c-7.03,0-14.08-.06-21.11,0l3.82-11.78h13.47c1.29,3.85,3.22,7.79,3.82,11.78Z"/>
  <path class="cls-6" d="M354.54,57.58c18.8,12.76,42.98-6.17,33.99-27.52-2.32-5.51-6.05-8.19-10.49-11.82,26.11-.87,52.21-2.83,78.43-3.84,6.49.87,11.36,5.65,13.08,11.87-.58,13.84,1.17,28.92.13,42.61-.69,9.11-8.42,14.52-17.03,15.11-27.51,1.9-57.19-1.46-84.93-.03-4.88.76-13.2-6.9-13.2-11.27v-15.12Z"/>
  <path class="cls-1" d="M440.9,92.13c-6.69,18.52,17.14,11.75,23.99,20.87,3.56,4.74,2.07,10.9-2.72,14.08-2.64,1.75-4.77,1.79-7.86,1.3-11.18-1.76-23.55-7.19-34.89-9.25-3.11-.99-7.86-4.66-8.25-8.1-.21-1.82.88-4.52.57-6.57l7.34-12.33h21.83Z"/>
  <path class="cls-6" d="M401.43,128.71c4.57-.93,19.74-.28,24.62.58,1.39.25,6.95,1.74,7.6,2.47,1.4,1.6,1.11,4.94.79,6.93-.57,3.61-6.06,23.02-7.73,25.38-4.21,5.93-12.45,1.99-11.6-4.88.58-4.74,6.01-13.75-.26-16.78-4.58-2.22-11.84.75-15.66-2.09-4.16-3.09-2.86-10.58,2.24-11.62Z"/>
  <path class="cls-1" d="M382.2,98.2c1.73-1.84,1.52-4.31,2.87-6.01l14.11.16c.59.39,4.31,12.54,4.31,13.45,0,2.73-2.11,5.45-4.48,6.56-3.89,1.81-11.9,1.08-16.42,1.34-5.15.29-12.82,1.49-17.76,1-8.46-.83-8.22-12.31-.9-13.43,4.99-.77,14.65.77,18.27-3.08Z"/>
  <circle class="cls-6" cx="367.74" cy="39.03" r="14.3"/>
  <path class="cls-6" d="M328.02,127.26c3.58-.83,6.7,1.09,6.41,4.93-.4,5.31-10.41,9.64-7.46,18,2.42,6.86,13.41,6.13,16.3,10.09,2.57,3.52-1.41,8.86-5.51,7.43-7.29-4.01-18.13-5.9-25.06-9.96-2.61-1.53-4.28-4.35-2.69-7.25,5.23-6.33,9.43-13.58,14.61-19.94.9-1.1,2.1-2.99,3.42-3.3Z"/>
  <path class="cls-6" d="M369.63,134.08c3.66-3.92,6.09-2.81,9.39.5,5.78,5.81,10.78,13.5,16.5,19.49,1.84,2.82-.69,6.85-3.84,7.15-5.58.54-8.54-12.04-16.69-11.94-7.11.09-8.91,7.98-12.77,12.18s-9.72.55-7.89-5.01c.73-2.22,13.24-20.17,15.3-22.38Z"/>
  <path class="cls-3" d="M349.26,764.88c-4.31,0-8.64,0-12.95,0l11.27-32.63,1.68,32.63Z"/>
  <path class="cls-3" d="M284.02,764.88l3.3-11.71c.5-.71,12-.11,13.9-.22,1.07,3.94,3.22,7.83,3.43,11.93-6.87,0-13.76-.04-20.63,0Z"/>
  <path class="cls-3" d="M331.99,764.88c-3.99,0-8,0-11.99,0l1.68-32.63,10.31,32.63Z"/>
  <polygon class="cls-3" points="299.85 749.05 288.81 749.05 294.33 731.29 299.85 749.05"/>
  <polygon class="cls-3" points="402.52 749.05 408.04 731.77 414.03 749.05 402.52 749.05"/>
  <path class="cls-5" d="M.96,12.96c.26-2.27.8-2.99,1.92-4.8l-1.92,4.8Z"/>
  <path class="cls-2" d="M267.71,278.79c16.71-2.85,33.07,1.35,45.83,12.47,13.6,11.85,27.25,27.43,40.27,40.33,12.22,12.11,27.71,25.19,38.88,37.89,20.23,22.99,15.58,55.58-5.27,76.32-14.43,11.72-31.85,19.15-47.26,29.5,13.21,7.33,23.37,19.27,27.46,33.94,9.13,32.71,16.42,68.27,24.19,101.53.68,2.9,1.83,5.67,2.41,8.62,5.75,29.18-10.84,54.03-37.77,64.15-12.38,4.66-21.99,3.6-34.78,3.13-7.8-.29-8.41,2.38-14.62,5.52-7.09,3.59-14.89,5.69-22.8,6.46-22.94,2.24-46.96,2.86-70.03,4.33-14.89.95-31.32,3.25-46.04,3.37-51.1.42-78.07-60.9-42.25-97.43,17.61-17.96,38.73-17.28,62.26-18.35,5.04-3.91,9.79-8.14,15.73-10.71-4.45-16.4-14.19-33.45-13.45-50.83.22-5.23,1.6-10.56,2.87-15.6-21.62,6.3-45.41-1.6-58.93-19.52-7.79-10.32-13.35-26.28-13.03-39.26,4.27-36.78,4.96-74.07,9.11-110.85,2.8-24.83,17.48-44.14,42.22-50.15.56-.65-1.72-3.45-2.17-4.31-15.22-28.65-4.68-63.44,25.69-76.05,42.17-17.51,85.17,22.32,71.47,65.48ZM245.64,297.03c25.4-20.63,19.99-61.34-9.59-75.11-35.81-16.67-74.26,17.36-62.03,54.85,6.89,21.11,29.09,34.08,50.98,30.34-.4-.53-3.44-2.75-3.67-2.8-.58-.11-2.11.95-3.03,1.14-24.01,5.15-25.38-31.42-2.66-29.53,3.68.31,6.43,2.98,8.26,3.27,1.12.18,3.71-1.14,5.22-1.31,10.91-1.22,19.06,8.63,16.51,19.14ZM220.85,290.98c0-3.66-2.97-6.63-6.63-6.63s-6.63,2.97-6.63,6.63,2.97,6.63,6.63,6.63,6.63-2.97,6.63-6.63ZM228.84,286.47c-.24,1.72.55,3.31.5,5.01s-1.97,6.36-1.89,6.7c.55,2.46,9.57,2.08,10.06-4.73.38-5.36-3.7-7.75-8.67-6.98ZM349.1,338.46c-8.3-8.23-16.66-16.46-25.01-24.65-14.99-14.72-25.34-28.81-48.94-27.33-2.26.14-10.08,1.47-11.73,2.67-.99.72-4.38,6.45-5.8,8.11-3.7,4.34-8.22,7.9-12.98,11.01-1.03.67-5.76,2.9-6.08,3.28-.63.76-3.4,9.09-3.46,10.26-.13,2.65,2.87,6.36,2.89,9.25,7.42-1.41,15.83.4,21.31,5.8,3.16,3.11,1.59,4.31,7.21,4.79,21.29,1.81,44.75,1.11,65.66,3.91,9.18,1.23,17.17,7.75,19.64,16.83,1.88,6.9,1.42,32.82.81,40.93-.7,9.31-5.17,17.38-13.92,21.15.73,1.36.73,4.47,1.7,5.48.53.55,3.7,1.44,5,2.2,12.56,7.41,7.06,27.7-7.57,27.61l-3.9,9.05c12.37-7.67,25.8-14.35,38.04-22.17,25.14-16.04,35.27-49.01,13.3-72.62-11.11-11.93-24.47-23.97-36.16-35.57ZM230.2,335.32c1.36-2.32-6.99-16.74-9.52-18.86-7.06-.41-14.12-.9-20.88-3.11-7.74-2.53-14.44-7.33-20.62-12.49-21.5,3.31-37.31,19.95-40.05,41.51-4.6,36.19-4.56,74.04-9.11,110.37-.88,31.68,23.12,58.68,56.13,53.73,37.93-5.69,75.52-14.92,113.43-20.89,12.8-4.14,24.44-13.51,29.05-26.36l-23.72-.93c-11.58,4.03-22.91,9.13-34.56,12.94-1.89.62-4.35,1.7-6.24,1.91-15.23,1.69-26.21-15.34-17.14-28.18,5.13-7.27,13.72-7.9,21.23-11.42l-5.61-8.3c-7.1-.57-14.82.79-21.77-.78-9.7-2.2-17.92-11.63-18.71-21.59-1.09-13.75.95-28.09.52-41.75-.05-1.66-1.25-4.27-1.4-6.31-.47-6.18,1.66-12.12,5.68-16.75.72-.83,3.18-2.53,3.29-2.72ZM249.47,340.69c-4.38-3.47-12.03-1.8-15.35,2.4,4.85-1.9,10.06-3.76,15.35-2.4ZM242.15,348.96c-5.82.98-10.81,7.4-11.38,13.09-.95,9.41-.36,22.74-.51,32.6-.16,10.99,2.34,19.29,14.15,21.87l87.83.96c6.02-.51,11.1-6.39,11.74-12.25.91-8.39.35-20.86.5-29.73.22-13.07-2.6-20.55-16.58-21.85-24.4-2.26-51.78-3.94-76.28-4.8-2.7-.09-6.93-.32-9.48.11ZM273.46,425.63c1.38,2.32,3.08,4.14,3.32,7.02.98,12.09-17.32,9.72-22.71,17.01-4.92,6.66.25,15.09,8.1,15.34,13.09-4.39,26.18-9.09,38.87-14.42,11.13-8.57.8-16.77-4.32-24.95h-23.27ZM319.04,425.63h-11.51c.78,2.95,3.54,5.12,4.88,7.83,2.76,5.58,2.13,10.88.4,16.64l24.23,1.48c8.42-.18,9.21-11.43,2.29-12.88-9.07-1.91-23.22,2.51-20.28-13.06ZM331.51,429.46c.16-.15-1.15-3.44-1.42-3.61-2.6-1.72-2.88,1.74-3.38,3.61h4.79ZM326.24,678.51h16.07c13.47,0,32.67-14.17,38.87-25.9,8.89-16.83,5.3-27.42,1.33-44.54-7.24-31.18-14.14-64.22-22.63-94.93-4.72-17.08-16.7-29.49-33.9-34.07-8.93,9.17-20.62,14.88-33.33,16.62,3.53,4.88,6.51,9.91,8.64,15.58,10.74,28.54,19.94,59.27,29.73,88.31,6.74,19.98,14.62,33.8,8.29,55.78-2.49,8.65-7.41,16.28-13.08,23.15ZM317.78,674.37c11.16-10.36,16.24-24.54,15.19-39.79-.61-8.79-5.55-19.11-8.4-27.59-10.17-30.35-19.85-62.41-31.08-92.23-1.25-3.33-7.89-16.57-11.17-17.16l-79.15,14.38c-2.18,5.31-3.87,11.25-4.09,17.02-.68,17.45,10.52,37.62,15.14,54.48,2.09,7.63,1.66,12.92-7.25,14.35-25.47,4.08-54.03-3.66-74.31,16.37-32.34,31.95-6.84,86.5,37.89,83.49,37.85-4.26,77.4-3.35,115.09-7.73,11.96-1.39,23.42-7.48,32.15-15.59ZM207.25,589.73c.28-.27-.19-1.88-.71-1.91-.16,0-2.3,1.29-2.64,1.67.46.36,3.23.35,3.35.24Z"/>
  <path class="cls-6" d="M245.5,128.7c2.55-.58,4.52-.11,6.54,1.41,3.47,2.61,15.55,14.5,18.06,17.92,4.75,6.47-2.78,13.9-9.6,8.65-3.53-2.72-6.12-8.41-11.26-7.95-6.62.6-6.9,13.37-13.46,14.38s-8.8-5.04-6.21-10.53c2.07-4.39,9.45-17.99,12.31-21.27.83-.95,2.41-2.33,3.62-2.61Z"/>
  <path class="cls-6" d="M194.15,160.6c-6,5.29-10.11-7.22-13.09-10.36-2.74-2.88-7.39-3.21-10.82-1.32-4.58,2.52-9.15,13.83-14.81,9.21-3.41-2.79-1.72-5.36.5-8.16,4.88-6.14,11.74-11.67,16.53-18.01,2.66-1.88,5.42-2.9,8.14-.45l14.77,23.13c.91,1.75.17,4.74-1.22,5.97Z"/>
  <path class="cls-6" d="M133.24,120.55c3.78-.78,6.65,1.99,5.79,5.79-1,4.39-12.25,7.29-12.2,14.9.05,8.66,14.04,10.81,13.78,16.87-.17,4-4.41,5.44-7.86,3.52-7.09-3.94-14.22-11.34-21.4-15.55-3.01-4.16-2.52-5.8.91-9.08,4.21-4.02,13.72-11.88,18.48-15.11.73-.49,1.65-1.16,2.51-1.33Z"/>
  <path class="cls-6" d="M232.05,131.15c.18.15,1.49,1.95,1.51,2.08.14.69-5.84,10.82-6.73,12.31-1.91,3.15-5.97,9.98-8.14,12.49-3.41,3.97-8.45,1.04-6.66-4.27.96-2.85,10.24-17.95,12.39-20.72,1.94-2.5,4.74-4.3,7.63-1.89Z"/>
  <path class="cls-6" d="M317.78,674.37c-8.73,8.11-20.19,14.2-32.15,15.59-37.68,4.39-77.24,3.47-115.09,7.73-44.73,3.01-70.23-51.54-37.89-83.49,20.28-20.03,48.84-12.29,74.31-16.37,8.92-1.43,9.34-6.72,7.25-14.35-4.62-16.86-15.82-37.03-15.14-54.48.22-5.77,1.91-11.72,4.09-17.02l79.15-14.38c3.29.59,9.92,13.83,11.17,17.16,11.23,29.82,20.91,61.88,31.08,92.23,2.84,8.48,7.79,18.8,8.4,27.59,1.05,15.25-4.04,29.43-15.19,39.79Z"/>
  <path class="cls-6" d="M230.2,335.32c-.11.18-2.56,1.88-3.29,2.72-4.02,4.63-6.15,10.57-5.68,16.75.15,2.05,1.35,4.65,1.4,6.31.42,13.66-1.61,28-.52,41.75.79,9.96,9.01,19.39,18.71,21.59,6.94,1.57,14.66.21,21.77.78l5.61,8.3c-7.51,3.52-16.1,4.15-21.23,11.42-9.07,12.85,1.91,29.87,17.14,28.18,1.89-.21,4.36-1.3,6.24-1.91,11.65-3.81,22.98-8.91,34.56-12.94l23.72.93c-4.61,12.85-16.25,22.21-29.05,26.36-37.91,5.97-75.5,15.2-113.43,20.89-33.01,4.95-57.01-22.04-56.13-53.73,4.56-36.33,4.52-74.17,9.11-110.37,2.74-21.56,18.55-38.2,40.05-41.51,6.18,5.16,12.88,9.97,20.62,12.49,6.76,2.21,13.82,2.69,20.88,3.11,2.53,2.11,10.88,16.54,9.52,18.86Z"/>
  <path class="cls-6" d="M326.24,678.51c5.67-6.86,10.59-14.49,13.08-23.15,6.32-21.98-1.56-35.8-8.29-55.78-9.79-29.04-18.98-59.77-29.73-88.31-2.13-5.67-5.11-10.7-8.64-15.58,12.71-1.74,24.39-7.45,33.33-16.62,17.21,4.57,29.18,16.99,33.9,34.07,8.48,30.71,15.38,63.76,22.63,94.93,3.98,17.11,7.56,27.71-1.33,44.54-6.2,11.73-25.4,25.9-38.87,25.9h-16.07Z"/>
  <path class="cls-6" d="M349.1,338.46c11.7,11.6,25.06,23.63,36.16,35.57,21.97,23.61,11.85,56.58-13.3,72.62-12.24,7.81-25.67,14.49-38.04,22.17l3.9-9.05c14.63.08,20.14-20.2,7.57-27.61-1.29-.76-4.47-1.65-5-2.2-.97-1.01-.97-4.13-1.7-5.48,8.75-3.78,13.22-11.84,13.92-21.15.61-8.11,1.07-34.02-.81-40.93-2.47-9.07-10.45-15.6-19.64-16.83-20.91-2.8-44.37-2.1-65.66-3.91-5.61-.48-4.05-1.68-7.21-4.79-5.48-5.4-13.9-7.21-21.31-5.8-.02-2.89-3.02-6.6-2.89-9.25.06-1.17,2.84-9.51,3.46-10.26.32-.38,5.05-2.61,6.08-3.28,4.75-3.11,9.28-6.68,12.98-11.01,1.42-1.67,4.81-7.39,5.8-8.11,1.65-1.2,9.47-2.53,11.73-2.67,23.6-1.47,33.95,12.62,48.94,27.33,8.35,8.19,16.71,16.42,25.01,24.65Z"/>
  <path class="cls-6" d="M242.15,348.96c2.54-.43,6.77-.2,9.48-.11,24.5.86,51.88,2.54,76.28,4.8,13.98,1.3,16.8,8.78,16.58,21.85-.15,8.88.42,21.35-.5,29.73-.64,5.87-5.71,11.74-11.74,12.25l-87.83-.96c-11.82-2.59-14.32-10.88-14.15-21.87.15-9.87-.45-23.19.51-32.6.57-5.69,5.56-12.1,11.38-13.09Z"/>
  <path class="cls-6" d="M245.64,297.03c2.56-10.51-5.59-20.36-16.51-19.14-1.52.17-4.11,1.49-5.22,1.31-1.83-.29-4.58-2.97-8.26-3.27-22.72-1.89-21.35,34.68,2.66,29.53.91-.2,2.44-1.26,3.03-1.14.23.05,3.26,2.27,3.67,2.8-21.9,3.75-44.1-9.23-50.98-30.34-12.23-37.48,26.23-71.52,62.03-54.85,29.58,13.77,34.99,54.48,9.59,75.11Z"/>
  <path class="cls-1" d="M273.46,425.63h23.27c5.12,8.18,15.45,16.38,4.32,24.95-12.69,5.33-25.78,10.03-38.87,14.42-7.85-.25-13.02-8.68-8.1-15.34,5.38-7.29,23.69-4.92,22.71-17.01-.23-2.88-1.94-4.7-3.32-7.02Z"/>
  <path class="cls-1" d="M319.04,425.63c-2.94,15.57,11.21,11.16,20.28,13.06,6.92,1.46,6.13,12.7-2.29,12.88l-24.23-1.48c1.73-5.75,2.36-11.06-.4-16.64-1.35-2.72-4.11-4.88-4.88-7.83h11.51Z"/>
  <circle class="cls-6" cx="214.22" cy="290.98" r="6.63"/>
  <path class="cls-6" d="M228.84,286.47c4.97-.77,9.05,1.62,8.67,6.98-.49,6.8-9.51,7.18-10.06,4.73-.08-.34,1.84-4.98,1.89-6.7s-.73-3.29-.5-5.01Z"/>
  <path class="cls-6" d="M249.47,340.69c-5.29-1.36-10.5.5-15.35,2.4,3.32-4.2,10.98-5.86,15.35-2.4Z"/>
  <path class="cls-6" d="M331.51,429.46h-4.79c.49-1.87.78-5.34,3.38-3.61.27.18,1.58,3.47,1.42,3.61Z"/>
  <path class="cls-6" d="M207.25,589.73c-.12.12-2.9.13-3.35-.24.34-.38,2.48-1.68,2.64-1.67.53.02.99,1.63.71,1.91Z"/>
</svg>