<?xml version="1.0" encoding="UTF-8"?>
<svg id="Layer_1" data-name="Layer 1" xmlns="http://www.w3.org/2000/svg" viewBox="0 0 451.47 592.3">
  <defs>
    <style>
      .cls-1 {
        fill: #b9bd99;
      }

      .cls-2 {
        fill: #a9624f;
      }

      .cls-3 {
        fill: #44bec5;
      }

      .cls-4 {
        fill: #82a078;
      }

      .cls-5 {
        fill: #ba443b;
      }

      .cls-6 {
        fill: #bb443b;
      }
    </style>
  </defs>
  <path class="cls-2" d="M.52,574.64c-.08-.3-.34-.76-.52-1.04V18.7l.52-1.04c-.07.48-.26,2.14-.26,2.47v552.04c0,.49.53,1.7.26,2.47Z"/>
  <rect class="cls-2" x="451.21" y="18.7" width=".26" height="554.89"/>
  <path class="cls-2" d="M433.81,591.78l-.78.52H18.7c-1.01-.38-2.06-.46-3.12-.78l4.53.53h411.49c.74-.04,1.46-.18,2.2-.27Z"/>
  <path class="cls-4" d="M451.21,18.7v554.89c-.61,9.24-8.26,17.05-17.4,18.18-.73.09-1.46.23-2.2.27H20.12s-4.53-.53-4.53-.53c-9.02-2.69-12.64-8.31-15.07-16.89.27-.77-.26-1.98-.26-2.47V20.13c0-.33.19-1.99.26-2.47C1.82,8.32,10.03,1.01,19.34.25h412.79c9.8.63,18.4,8.53,19.08,18.45ZM78.71,41.04c-3.45-12.07-12.47-19.42-25.07-20.26-25.29-1.69-38.98,11.62-37.54,37.03.76,13.41,8.35,25.76,21.88,29.04,7.5,1.82,18.45,1.9,25.67-1,8.34-3.35,14.19-11.64,15.57-20.37l-17.26-5.16c-.91,2.37-1.42,4.76-2.77,7.04-4.83,8.16-17.93,7.57-21.38-1.38-2.01-5.23-2.11-15.68-.52-21.04,3.58-12.14,20.32-12.45,23.67-.24l17.77-3.66ZM306,41.04c-3.45-12.07-12.47-19.42-25.07-20.26-25.29-1.69-38.98,11.62-37.54,37.03.76,13.41,8.35,25.76,21.88,29.04,7.5,1.82,18.45,1.9,25.67-1,8.34-3.35,14.19-11.64,15.57-20.37l-17.26-5.16c-.91,2.37-1.42,4.76-2.77,7.04-4.83,8.16-17.93,7.57-21.38-1.38-2.01-5.23-2.11-15.68-.52-21.04,3.58-12.14,20.32-12.45,23.67-.24l17.77-3.66ZM82.86,87.03h20.26l3.28-10.93,22.54.05,3.67,10.88h20.65l-24.54-65.22-21.66.06-24.19,65.17ZM185.86,21.82h-26.11v65.21h16.37v-49.1l12.76,49.07,14.39.05,13.11-49.12v48.71s.36.39.39.39h15.98V21.82h-26.11l-10.39,39.23-10.39-39.23ZM367.57,51.96l-11.21-30.09h-22s-24.44,64.78-24.44,64.78c-.08.52.02.33.38.38,2.03.26,4.54-.19,6.63,0-.21,1.1-.32,3.17-.71,4.09-.25.59-2.78,2.78-3.58,4.22-3.61,6.53-.1,12.14,1.17,18.71h-12.34c-.36,0-2.76.92-3.26,1.16-9.02,4.31-9.72,17.53-1.03,22.49-3.97,4.65-6.01,10.84-4.86,16.94.21,1.12,1.27,3.4,1.22,4.21-.03.54-1.34,3.1-1.62,4.1-2.67,9.44,1.83,19.42,10.8,23.36,1.68.74,3.43,1.06,5.13,1.7,6.37,13.41,12.82,26.79,19.24,40.18.43.89,1.82,2.86,1.98,3.48.24.95.02,2.31.18,3.46.44,3.11,2.32,6.6,3,9.72-.98.03-2.04.34-2.99.39-6.76.39-13.38-.32-16.69,7.2-2.23,5.05-.81,10.16,2.8,14.1-13.96,2.67-20.64,17.29-13.55,29.79.44.78,1.74,2.14,1.86,2.83.14.83-.25,1.53-.26,2.31-.15,9.81,2.21,18.69,7.85,26.72,9.8,13.93,27.1,20.61,43.85,17.18l8.05,11.71c-4.07,1.82-8.54,2.79-12.45,4.95-.85.47-1.87,1.57-2.73,1.68l-12.74-.8c-22-16.85-45.26,15.17-22.52,30.83l.07,23.05c1.31,9.63,9.06,17.39,18.79,18.36l15.81.29,5.11,7.1-12.56,4.58c-3.84,1.81-7.16,5.91-8.14,10.04-.24,1.02-.21,2.59-.53,3.37-.27.65-3.19,2.51-3.97,3.3-3.17,3.2-5.33,8.38-6.55,12.67s-.31,7.67-.44,12.03c-.24,7.99-3.09,18.16-.6,25.78,2.58,7.89,9.7,12.9,18,12.92-3.09.4-5.68-.44-8.8.3-10.44,2.48-13.2,15.95-4.84,22.69,4.83,3.89,13.72,2.85,19.75,3.11,4.99.22,12.91,1.39,17.52.14,1.29-.35,2.43-1.12,3.73-1.45,2.05,3.43,4.88,6.23,8.56,7.86,8.28,3.67,19.87,7.52,28.62,10.35.86.28,1.88.72,2.72.91,13.65,3.06,24.05-11.28,16.84-23.34-4.23-7.07-11.63-6.76-18.13-9.92-.31-.15-.82-.28-.75-.74.03-.23,2.52-3.69,2.74-3.76.98-.34,2.93.24,4.12.23,11.06-.11,19.45-8.73,20.9-19.37,1.42-10.45,1.37-21.46,2.86-31.95.5-8.9-4.85-17.73-13.5-20.39-.28-.38,1.37-1.67,1.67-2.09,5.1-7.2,1.87-17.27-6.61-19.86-3.94-1.2-8.64-.4-12.73-1.04l.82-2.95c9.63,1.08,18.29-5.56,20.32-14.88.72-3.34.32-6.59.42-9.97.24-8.01.91-17.79.27-25.7-.55-6.73-5.55-13.87-11.77-16.55-4.3-1.85-8.65-1.47-13.16-2.03v-4.29c0-1.92-1.39-5.29-2.38-6.97l-17.5-24.87c.11-.97.47-1.81,1.42-1.13,5.62,3.96,10.95,9.93,16.52,14.13,7.28,5.48,17.51,4.46,22.51-3.46,3.9-9.14,9.21-18.14,12.99-27.28,7.36-17.81-16.79-28.95-25.81-13.08-1.71,3.01-2.78,6.67-4.57,9.71-.13.21.08.43-.44.33l-8.47-7.38c-1.47-1.13-3.14-1.87-4.85-2.56-1.14-10.57-5.74-20.42-13.57-27.6,5.63-3.56,14.13-4.83,17.98-10.59,3.27-4.89,3.25-10.91.67-16.12-4.12-5.98-9.29-11.17-13.71-16.94,2.98-1.78,6.35-2.92,9.35-4.67,10.23-5.98,13.9-18.45,8.18-28.98l-22.47-40.78c8.4,3.05,17.92-.93,20.71-9.56s-1.58-16.55-9.53-19.67c2.52-2.43,4.1-5.62,5.07-8.96,1.63-10.5,3.91-20.95,5.58-31.44v2.34s20,0,20,0v-49.1h20.52v-16.11h-61.04v16.11h20.52v29.1c-4.99-13.02-17.8-13.04-29.35-15.07ZM182.88,319.54s.51-.12.78-.38c12.97-12.44,19.39-27.1,26.09-43.54,8.55-20.99,19.15-51.12,12.79-73.57-9.11-32.14-56.25-45.62-85.7-39.87-13.75,2.68-38.77,12.27-48.26,22.66-13.35,14.63-10.34,38.69-6.06,56.45,5.34,22.19,17.23,45.5,31.78,63.04,2.1,2.54,4.48,4.83,6.49,7.41-16.38,1.93-30.36,14.16-34.88,29.94-5.81,28.03-14.6,56.08-20.07,84.11-1.72,8.82-1.25,15.6,1.25,24.22,5.51,19.03,23.63,32.16,43.57,30.6v1.04c-.39-.19-.71-.26-1.16-.27-10.12-.24-19.87,2.92-27.8,9.11-.67.52-3.38,3.22-3.7,3.32-1.32.39-4.77-.06-6.44.06-15.92,1.06-30.8,12.22-36.81,26.84-11.12,27.1,6.5,56.83,35.28,60.41,29.13,2.33,58.13,6.83,87.25,9.12,9.6.76,17.34-.96,26.02-4.89,1.8-.81,5.14-3.12,6.63-3.51s2.98-.05,4.47-.21c19.24-2.05,36.17-14.76,40.05-34.25,1.52-7.63.37-12.93-.14-20.41-1.22-17.91-2.27-35.85-3.38-53.77-.11-1.84-.97-6.83-.48-8.28.16-.47,1.3-.65,1.79-.81,20.61-7.03,44.38-7.35,55.3-29.39,15.57-31.44-13.24-66.07-47.04-56.92-1.38.37-2.72,1.03-4.05,1.41-8.66,2.48-17.33,5.11-26.03,7.35-.33-5.58-.12-11.17-.25-16.77-.22-9.58.18-19.22-3.79-28.17s-11.45-16.19-20.55-20.49c-.75-.35-2.27-.72-2.8-1.06-.23-.15-.23-.44-.15-.53Z"/>
  <path class="cls-3" d="M339.77,47.8c3.08-.15,5.36.35,8.31.78,6.51.95,13,2.24,19.48,3.38,11.56,2.03,24.37,2.04,29.35,15.07,2.19,5.71.93,11.85,0,17.67-1.67,10.49-3.95,20.93-5.58,31.44-.96,3.34-2.55,6.53-5.07,8.96,7.96,3.12,12.21,11.38,9.53,19.67s-12.3,12.61-20.71,9.56l22.47,40.78c5.72,10.53,2.04,23-8.18,28.98-2.99,1.75-6.37,2.89-9.35,4.67,4.42,5.77,9.59,10.96,13.71,16.94,2.58,5.2,2.6,11.23-.67,16.12-3.85,5.76-12.35,7.03-17.98,10.59,7.84,7.18,12.43,17.03,13.57,27.6,1.7.69,3.38,1.43,4.85,2.56l8.47,7.38c.52.1.32-.12.44-.33,1.79-3.04,2.86-6.7,4.57-9.71,9.02-15.87,33.17-4.73,25.81,13.08-3.78,9.13-9.09,18.14-12.99,27.28-4.99,7.91-15.22,8.94-22.51,3.46-5.58-4.2-10.91-10.17-16.52-14.13-.95-.67-1.31.16-1.42,1.13l17.5,24.87c1,1.68,2.38,5.05,2.38,6.97v4.29c4.51.56,8.87.19,13.16,2.03,6.22,2.67,11.22,9.82,11.77,16.55.65,7.92-.03,17.69-.27,25.7-.1,3.38.3,6.63-.42,9.97-2.02,9.32-10.69,15.97-20.32,14.88l-.82,2.95c4.09.64,8.8-.16,12.73,1.04,8.48,2.58,11.7,12.66,6.61,19.86-.3.42-1.95,1.71-1.67,2.09,8.66,2.67,14.01,11.5,13.5,20.39-1.49,10.49-1.44,21.5-2.86,31.95-1.45,10.65-9.83,19.26-20.9,19.37-1.19.01-3.14-.57-4.12-.23-.22.08-2.71,3.53-2.74,3.76-.07.46.45.59.75.74,6.51,3.16,13.91,2.85,18.13,9.92,7.21,12.06-3.19,26.4-16.84,23.34-.84-.19-1.86-.63-2.72-.91-8.74-2.82-20.33-6.68-28.62-10.35-3.68-1.63-6.51-4.44-8.56-7.86-1.3.33-2.44,1.1-3.73,1.45-4.62,1.25-12.53.08-17.52-.14-6.03-.26-14.92.77-19.75-3.11-8.37-6.74-5.61-20.21,4.84-22.69,3.11-.74,5.71.1,8.8-.3-8.3-.02-15.42-5.03-18-12.92-2.49-7.62.36-17.79.6-25.78.13-4.36-.83-7.56.44-12.03s3.38-9.47,6.55-12.67c.78-.79,3.7-2.65,3.97-3.3.33-.77.29-2.35.53-3.37.98-4.13,4.3-8.24,8.14-10.04l12.56-4.58-5.11-7.1-15.81-.29c-9.73-.96-17.48-8.73-18.79-18.36l-.07-23.05c-22.74-15.67.52-47.68,22.52-30.83l12.74.8c.86-.12,1.88-1.21,2.73-1.68,3.91-2.17,8.38-3.13,12.45-4.95l-8.05-11.71c-16.75,3.43-34.06-3.24-43.85-17.18-5.64-8.03-8.01-16.91-7.85-26.72.01-.78.4-1.48.26-2.31-.12-.69-1.41-2.05-1.86-2.83-7.09-12.5-.41-27.12,13.55-29.79-3.61-3.93-5.03-9.04-2.8-14.1,3.31-7.52,9.94-6.81,16.69-7.2.95-.06,2.02-.36,2.99-.39-.68-3.12-2.57-6.62-3-9.72-.16-1.14.06-2.5-.18-3.46-.16-.62-1.55-2.59-1.98-3.48-6.43-13.39-12.87-26.76-19.24-40.18-1.7-.63-3.45-.96-5.13-1.7-8.98-3.94-13.47-13.92-10.8-23.36.28-1,1.59-3.56,1.62-4.1.05-.81-1.01-3.09-1.22-4.21-1.15-6.1.89-12.29,4.86-16.94-8.69-4.95-7.99-18.18,1.03-22.49.5-.24,2.9-1.16,3.26-1.16h12.34c-1.28-6.57-4.78-12.18-1.17-18.71.8-1.44,3.32-3.63,3.58-4.22.4-.92.5-2.99.71-4.09,2.87-15.1,2.29-38.2,22.86-39.23ZM339.46,52.29c-6.86.66-12.41,5.8-14.11,12.38-3.2,12.37-3.84,26.77-6.61,39.37-.2,7.86,4.93,14.34,12.41,16.42,12.47,1.28,26.03,5.64,38.37,6.57,8.22.62,15.2-4.29,17.45-12.15,1.3-12.37,5.63-25.88,6.57-38.12.66-8.62-3.9-15.5-12.2-17.92-12.2-1.67-24.62-4.86-36.8-6.32-1.82-.22-3.21-.4-5.07-.23ZM318.17,116.69c-.76-.46-.77.46-1.12.73-4.44,3.41-13.15-.92-18.04,2.75-2.73,2.05-3.99,5.31-3.28,8.7.38,1.86,3.26,5.92,5.4,5.39,7.57-4.16,15.46-7.8,23.32-11.38-1.66-1.5-3.38-2.62-4.93-4.29-.29-.31-1.25-1.83-1.35-1.89ZM335.61,125.74c-1.91,0-3.84-.87-5.72-.67-7.01,3.66-14.34,6.73-21.39,10.31-8.14,4.14-13.6,9.71-11.41,19.66,11.16,22.69,21.43,45.9,32.85,68.47,2.24,4.43,3.74,8.06,8.2,10.77,5.59,3.39,11.6,3.59,17.58,1.05,11.27-4.78,22.72-11.24,33.65-16.74,7.36-6.58,7.83-13.91,3.53-22.45-7.49-14.88-16.51-29.09-24.18-43.88-7.08-2.83-14.69-4.36-21.82-7.02-8.13-3.03-12.97-10.75-11.29-19.49ZM340.46,126.8c-.89.29-.56,4.34-.36,5.23.75,3.43,3.25,5.8,5.93,7.84,10.22,3.16,21.32,7.96,31.67,10.41,14.79,3.5,20.08-16.31,6.44-20.98-.43-.15-1.99-.63-2.31-.57-.61.1-2.13,1.17-2.92,1.48-2.69,1.05-5.73,1.56-8.62,1.51l-29.84-4.91ZM304.96,182.37l-8.83-18.18c-2.09,7.51,1.81,15.11,8.83,18.18ZM375.29,230.98l-17.85,8.67c2.14,3.27,8.59,7.95,3.87,11.93-2.82,2.38-8.77,3.69-12.02,5.91-9.66,6.59-1.99,22.05,9.95,17.23,8.99-3.63,17.83-8.99,26.94-12.55,13.37-10.31-4.1-21.94-9.91-30.71-.28-.35-.52-.54-.99-.47ZM351.71,241.34c-5.95,1.01-11.84-.44-16.87-3.64-.25.32,2.02,6.05,2.05,7.17.04,1.61-1.02,3.52-2.51,4.19-2.76,1.24-7.97.58-11.07.88-9.07.88-9.78,12.91-1.05,15.01l18.29-.76c.23-4.43,3.26-8.8,7.03-11.02,1.04-.62,6.35-2.72,6.62-3.27l-2.49-8.57ZM308.08,302.65c-.95,26.21,25.4,45.64,50.33,36.96,20.71-7.21,31.47-30.48,22.7-50.9-2.34-5.44-5.94-10.49-10.58-14.12-6.39,1.96-11.17,6.82-18.35,5.39-4.96-.99-8.7-4.19-10.72-8.76-.26-.58-.51-2-.78-2.34-.46-.57-1.24-.02-1.82,0-2.71.09-5.93-.04-8.58.25-.38.04-.66.05-.9.4,21.09,14.96,1.15,46.08-21.3,33.12ZM333.75,285.97c0-8.37-6.78-15.15-15.15-15.15s-15.15,6.78-15.15,15.15,6.78,15.15,15.15,15.15,15.15-6.78,15.15-15.15ZM388.61,304.98c-.05,5.5-1.41,11.01-3.59,16.02-.42.97-1.92,3.24-2.09,3.92-.05.22-.06.39.08.58,6.37,5.23,12.41,10.9,19.01,15.82,5.9,2.75,11.44,1.04,14.48-4.68,4.6-8.64,7.94-18.02,12.57-26.65,3.1-8.83-6.73-16.53-14.67-11.55-4.36,2.73-5.65,10.46-8.54,14.58-1.54,1.6-3.9,2.03-5.92,1.02-2.63-1.32-6.59-5.77-9.14-7.75-.68-.53-1.42-.95-2.2-1.31ZM359.77,343.96c-.06.35.16.58.31.86,1.47,2.83,7.12,8.96,7.46,11.5.16,1.18.02,2.46-.64,3.47-2.43,3.73-13.46,3.46-16.96,9.28-4.19,6.98,1.22,15.38,9.17,14.89,9.35-3.54,19.82-6.33,28.96-10.26,7.01-3.01,8.34-9.86,4.53-16.21l-16.47-23.29c-.3-.24-.43-.03-.66.13-.88.61-2.08,2.05-3.12,2.86-3.76,2.91-8.06,5.29-12.59,6.77ZM313.02,388.11v-7.14c0-.54.48-2.57.65-3.25,1.65-6.7,6.89-12.02,13.38-14.16-6.91-2.32-14.19.71-17.5,7.18-2.95,5.75-1.65,13.32,3.47,17.37ZM345.23,368.11l-13.13-.79c-6.78.05-13.79,6.38-14.4,13.14-.85,9.47-.42,20.71-.53,30.38-.12,10.72,4.73,19.19,16.24,19.89,15.86.97,32.67-.63,48.58.52,8.29-.59,17.57.75,25.74,0,7.09-.65,11.41-8.21,11.81-14.69.46-7.51-.07-15.78,0-23.39.05-6.47.91-10.62-3.63-16.09-4.81-5.78-11.32-5.43-18.26-5.54-1.83,2.34-3.54,4.34-6.28,5.67-8.91,4.32-20.15,6.58-29.28,10.72-11.89,3.11-21.74-8.65-16.83-19.81ZM353.28,435.4c.93,2.26,3.53,4.23,3.79,6.75.11,1.03-.41,2.59-1.08,3.37-1.73,2.02-10.04,4.07-12.91,5.27-12.84,5.38-7.09,23.32,6.26,20.8l31.06-11.54c1.71-.88,4.04-3.19,5.05-4.83,4.84-7.88-1.65-13.28-5.66-19.43l-26.49-.39ZM398.22,435.92l-12.73-.26c-.32.28,3.39,4.9,3.74,5.48,2.9,4.74,3.31,10.31.81,15.32-.19.39-1.84,2.72-1.7,2.84,1.25.06,2.53-.07,3.78,0,6.18.32,14.58,1.59,20.52,1.06,7.3-.65,9.68-11.69,2.63-15.38-3.14-1.65-8.61-.92-12.25-1.26-4.93-.46-5.96-3.32-4.81-7.79ZM324.19,494.63c.03,7.34-2.77,14.23,1.16,21.05,2.85,4.93,6.8,6.4,12.22,7.01,24.32,2.73,48.91,3.89,73.26,6.25,9.3-1.16,14.39-7.45,15.44-16.51s2.17-20.11,2.6-29.36c.43-9.31-4.64-17.1-14.42-17.79-10.64-.75-21.49-.39-32.19-1.02l-25.76,9.58c3.06,6.87,2.15,14.87-2.72,20.65-6.74,8.02-18.75,9.08-26.87,2.47-.36-.29-2.43-2.67-2.73-2.33ZM333.52,468.66c-11.41,4.56-12.16,20.6-1.28,26.36,12.73,6.74,26.46-7.03,19.85-19.64-6.8,2.64-15.16-.24-18.56-6.72ZM340.81,527.36c-.6.15-2-.34-2.34.25.6-.15,1.97.35,2.34-.25ZM364.66,529.75l-17.73-1.62c-.57,3.77-3.47,4.27-6.79,4.18-5.52-.14-11.48-2.22-15.14,3.28-3.28,4.94-.17,11.91,5.61,12.75,4.87.71,11.27.39,16.31.58s12.29,1.81,16.49-1.41c6.2-4.76,2.1-11.57,1.24-17.75ZM400.3,532.82c-8.37-.67-16.76-1.78-25.15-2.03-.54,1.64-3.83,4.76-4.16,6.12-.16.66.47,2.33.49,3.3.05,2.07-.51,4.33-1.35,6.21-1.07,2.38-2.12,1.94-.22,4.71,1.41,2.06,3.46,3.66,5.72,4.67,9.53,4.24,20.69,6.81,30.38,10.92,9.64,2.52,17.57-8.89,11.54-17-3.73-5.03-11.4-5.32-16.65-8.03-4.01-2.07-2.98-5.96-.6-8.88Z"/>
  <path class="cls-3" d="M182.88,319.54c-.08.1-.08.38.15.53.53.34,2.05.71,2.8,1.06,9.1,4.3,16.44,11.2,20.55,20.49s3.56,18.59,3.79,28.17c.13,5.6-.08,11.19.25,16.77,8.7-2.24,17.37-4.87,26.03-7.35,1.32-.38,2.67-1.04,4.05-1.41,33.8-9.16,62.61,25.48,47.04,56.92-10.91,22.04-34.68,22.36-55.3,29.39-.49.17-1.63.35-1.79.81-.49,1.45.37,6.44.48,8.28,1.11,17.92,2.17,35.86,3.38,53.77.51,7.47,1.65,12.78.14,20.41-3.88,19.49-20.8,32.19-40.05,34.25-1.48.16-2.99-.17-4.47.21s-4.83,2.69-6.63,3.51c-8.68,3.93-16.42,5.65-26.02,4.89-29.12-2.29-58.12-6.8-87.25-9.12-28.77-3.58-46.4-33.31-35.28-60.41,6-14.62,20.89-25.78,36.81-26.84,1.67-.11,5.12.33,6.44-.06.32-.1,3.03-2.8,3.7-3.32,7.93-6.19,17.69-9.36,27.8-9.11.44.01.76.08,1.15.27v-1.04c-19.93,1.56-38.05-11.57-43.56-30.6-2.5-8.62-2.97-15.4-1.25-24.22,5.47-28.02,14.25-56.08,20.07-84.11,4.52-15.78,18.5-28.01,34.88-29.94-2.01-2.58-4.38-4.87-6.49-7.41-14.55-17.54-26.44-40.85-31.78-63.04-4.27-17.76-7.29-41.82,6.06-56.45,9.48-10.39,34.51-19.98,48.26-22.66,29.45-5.75,76.59,7.74,85.7,39.87,6.36,22.44-4.24,52.57-12.79,73.57-6.7,16.44-13.12,31.1-26.09,43.54-.27.26-.75.35-.78.38ZM145.93,165.56c-14.14.89-34.16,8.65-46.16,16.18-16.9,10.61-17.76,27.34-15.31,45.66,4.1,30.65,20.88,62.25,42.83,83.68,10.14.64,19.33,4.04,27.01,10.66.58.5,1.87,2.12,2.34,2.34,1.62.74,7.78-.4,9.72-.92,21.46-5.8,31.91-31.66,39.5-50.39s18.28-48.58,12.35-69.23c-7.96-27.75-46.38-39.61-72.27-37.98ZM124.83,316.06c-18.99.74-30.92,13.49-35.6,31.01-7.23,27.09-12.5,54.8-19.32,82-2.76,26.17,13.19,47.24,40.37,46.87,18.72-.25,37.6-1.28,56.35-1.83,9.18-.27,18.98.07,28.06-.52,20.91-1.36,36.88-20.89,34.39-41.66-2.58-21.44-21.78-35.35-42.97-33.17-8.37-.2-18.25,1.5-26.49.8-2.85-.24-4.54-2.11-4.48-5,2.18-10.86,5.63-21.55,7.93-32.35,5.24-24.57-13.07-47.13-38.24-46.14ZM229.89,460.07c9.96-3.19,20.43-5.48,30.33-8.76,10.68-3.54,18.97-9.44,23.7-19.94,12.54-27.82-12.73-56.58-42.08-49.1-10.71,2.73-21.21,6.89-32.05,8.94-5.19-.79-3.89-5.36-4.05-9.21-.33-8.17-.09-16.58-.52-24.68-.72-13.51-8.24-25.85-20.62-31.6-1.41-.65-5.96-2.57-7.25-2.23-.8.21-2.87,1.62-3.92,2.07-4.05,1.74-8.24,2.9-12.64,3.33,5.45,7.88,8.37,17.51,7.8,27.16-.3,5.16-2.04,10-3.21,14.97-1.87,7.95-3.76,15.9-5.63,23.85,4.63-.15,9.28-.12,13.91-.25,15.02-.42,27.15-2.59,40.62,5.86,16.12,10.11,23.4,29.91,17.81,48.17-.56,1.82-2.22,4.9-2.45,6.38-.26,1.68.47,3.36.24,5.05ZM218.83,565.91c7.79-7.5,12.31-17.82,11.85-28.8-.08-1.95-.66-4.25-.79-6.25-1.14-17.92-2.16-35.85-3.38-53.77-.34-5.06-.95-10.12-1.04-15.2-2.89,2.97-5.63,6.09-9.01,8.52-5.26,3.79-11.42,6.19-17.76,7.47,2.83,17.55,5.6,35.11,8.37,52.67,1.79,11.3,3.5,18.09-.49,29.47-2.21,6.29-5.84,11.47-10.2,16.42,8.44-1.29,16.3-4.62,22.45-10.54ZM194.01,478.3l-78.67,2.04,2.83,17.3c-.19,2.76-2.09,4.47-4.78,4.73-24.54-1.28-49.6-11.94-68.18,10.06-20.01,23.69-5.19,60.17,25.1,63.99,28.07,2.46,56.05,6.53,84.12,8.87,20.92,1.75,41.26-6.9,48.11-28,4.22-12.99-.42-24.57-1.78-37.56l-6.76-41.43ZM111.67,486.35c-9.76-1.18-20.07,1.88-27.5,8.28l29.09,3.12-1.59-11.4Z"/>
  <path class="cls-5" d="M185.86,21.82l10.39,39.23,10.39-39.23h26.11v65.21h-15.98s-.39-.36-.39-.39v-48.71l-13.11,49.12-14.39-.05-12.76-49.07v49.1h-16.37V21.82h26.11Z"/>
  <path class="cls-5" d="M82.86,87.03l24.19-65.17,21.66-.06,24.54,65.22h-20.65l-3.67-10.88-22.54-.05-3.28,10.93h-20.26ZM124.95,62.09l-7.14-23.12-6.88,23.12h14.03Z"/>
  <path class="cls-5" d="M78.71,41.04l-17.77,3.66c-3.34-12.21-20.09-11.9-23.67.24-1.58,5.36-1.49,15.81.52,21.04,3.44,8.95,16.55,9.54,21.38,1.38,1.35-2.28,1.86-4.67,2.77-7.04l17.26,5.16c-1.38,8.73-7.23,17.02-15.57,20.37-7.22,2.89-18.17,2.82-25.67,1-13.52-3.28-21.12-15.62-21.88-29.04-1.44-25.4,12.26-38.71,37.54-37.03,12.6.84,21.62,8.19,25.07,20.26Z"/>
  <path class="cls-5" d="M306,41.04l-17.77,3.66c-3.34-12.21-20.09-11.9-23.67.24-1.58,5.36-1.49,15.81.52,21.04,3.44,8.95,16.55,9.54,21.38,1.38,1.35-2.28,1.86-4.67,2.77-7.04l17.26,5.16c-1.38,8.73-7.23,17.02-15.57,20.37-7.22,2.89-18.17,2.82-25.67,1-13.52-3.28-21.12-15.62-21.88-29.04-1.44-25.4,12.26-38.71,37.54-37.03,12.6.84,21.62,8.19,25.07,20.26Z"/>
  <path class="cls-6" d="M396.92,67.02v-29.1h-20.52v-16.11h61.04v16.11h-20.52v49.1h-20s0-2.34,0-2.34c.93-5.82,2.19-11.95,0-17.67Z"/>
  <path class="cls-5" d="M316.91,87.03c-2.09-.19-4.6.26-6.63,0-.36-.05-.45.14-.38-.38l24.44-64.79h22s11.21,30.1,11.21,30.1c-6.48-1.14-12.97-2.43-19.48-3.38l-2.86-9.61-2.72,8.32-2.73.52c-20.57,1.03-19.99,24.13-22.86,39.23Z"/>
  <path class="cls-6" d="M335.61,125.74c-1.68,8.74,3.17,16.46,11.29,19.49,7.13,2.66,14.73,4.18,21.82,7.02,7.67,14.8,16.69,29,24.18,43.88,4.3,8.54,3.82,15.87-3.53,22.45-10.93,5.5-22.39,11.96-33.65,16.74-5.97,2.53-11.99,2.34-17.58-1.05-4.46-2.71-5.96-6.34-8.2-10.77-11.41-22.57-21.68-45.78-32.85-68.47-2.18-9.95,3.27-15.52,11.41-19.66,7.05-3.58,14.38-6.65,21.39-10.31,1.87-.21,3.81.67,5.72.67Z"/>
  <path class="cls-5" d="M345.23,368.11c-4.91,11.16,4.94,22.92,16.83,19.81,9.14-4.14,20.38-6.4,29.28-10.72,2.74-1.33,4.45-3.33,6.28-5.67,6.93.11,13.45-.23,18.26,5.54,4.55,5.46,3.68,9.62,3.63,16.09-.06,7.61.47,15.88,0,23.39-.4,6.48-4.72,14.04-11.81,14.69-8.17.75-17.45-.59-25.74,0-15.9-1.15-32.72.45-48.58-.52-11.51-.7-16.36-9.18-16.24-19.89.11-9.67-.32-20.91.53-30.38.61-6.76,7.62-13.09,14.4-13.14l13.13.79Z"/>
  <path class="cls-5" d="M324.19,494.63c.3-.34,2.38,2.04,2.73,2.33,8.12,6.61,20.13,5.55,26.87-2.47,4.86-5.78,5.78-13.79,2.72-20.65l25.76-9.58c10.69.63,21.55.27,32.19,1.02,9.77.69,14.85,8.48,14.42,17.79-.43,9.25-1.52,20.12-2.6,29.36s-6.14,15.35-15.44,16.51c-24.35-2.36-48.94-3.52-73.26-6.25-5.41-.61-9.37-2.07-12.22-7.01-3.93-6.81-1.13-13.71-1.16-21.05Z"/>
  <path class="cls-5" d="M308.08,302.65c22.45,12.96,42.39-18.16,21.3-33.12.24-.35.52-.36.9-.4,2.65-.29,5.87-.16,8.58-.25.58-.02,1.36-.58,1.82,0,.27.33.52,1.75.78,2.34,2.02,4.57,5.77,7.77,10.72,8.76,7.19,1.44,11.96-3.43,18.35-5.39,4.64,3.63,8.24,8.68,10.58,14.12,8.77,20.43-2,43.69-22.7,50.9-24.93,8.68-51.29-10.75-50.33-36.96Z"/>
  <path class="cls-5" d="M339.46,52.29c1.87-.18,3.26,0,5.07.23,12.19,1.46,24.6,4.65,36.8,6.32,8.3,2.42,12.86,9.3,12.2,17.92-.94,12.23-5.27,25.75-6.57,38.12-2.25,7.86-9.23,12.77-17.45,12.15-12.34-.93-25.9-5.29-38.37-6.57-7.48-2.08-12.61-8.55-12.41-16.42,2.77-12.6,3.41-27,6.61-39.37,1.71-6.59,7.25-11.73,14.11-12.38ZM360.65,100.1c0-10.6-8.59-19.19-19.19-19.19s-19.19,8.59-19.19,19.19,8.59,19.19,19.19,19.19,19.19-8.59,19.19-19.19Z"/>
  <path class="cls-1" d="M359.77,343.96c4.53-1.48,8.83-3.85,12.59-6.77,1.04-.81,2.24-2.25,3.12-2.86.23-.16.35-.37.66-.13l16.47,23.29c3.81,6.35,2.48,13.2-4.53,16.21-9.15,3.93-19.61,6.72-28.96,10.26-7.96.49-13.36-7.91-9.17-14.89,3.5-5.83,14.53-5.55,16.96-9.28.66-1.01.79-2.3.64-3.47-.34-2.54-5.99-8.66-7.46-11.5-.14-.28-.36-.51-.31-.86Z"/>
  <path class="cls-1" d="M388.61,304.98c.78.36,1.52.78,2.2,1.31,2.55,1.98,6.5,6.42,9.14,7.75,2.02,1.01,4.38.58,5.92-1.02,2.88-4.12,4.18-11.85,8.54-14.58,7.94-4.98,17.77,2.73,14.67,11.55-4.63,8.63-7.97,18.02-12.57,26.65-3.04,5.71-8.59,7.43-14.48,4.68-6.59-4.92-12.64-10.59-19.01-15.82-.14-.19-.13-.36-.08-.58.17-.67,1.66-2.94,2.09-3.92,2.18-5.01,3.55-10.52,3.59-16.02Z"/>
  <path class="cls-1" d="M353.28,435.4l26.49.39c4.02,6.15,10.5,11.55,5.66,19.43-1,1.63-3.33,3.95-5.05,4.83l-31.06,11.54c-13.35,2.52-19.09-15.43-6.26-20.8,2.87-1.2,11.18-3.26,12.91-5.27.67-.78,1.19-2.33,1.08-3.37-.26-2.52-2.86-4.49-3.79-6.75Z"/>
  <path class="cls-1" d="M400.3,532.82c-2.38,2.92-3.41,6.81.6,8.88,5.25,2.71,12.91,3,16.65,8.03,6.03,8.11-1.9,19.52-11.54,17-9.69-4.12-20.85-6.69-30.38-10.92-2.26-1.01-4.31-2.61-5.72-4.67-1.9-2.77-.84-2.33.22-4.71.84-1.88,1.4-4.13,1.35-6.21-.02-.97-.65-2.64-.49-3.3.33-1.36,3.62-4.48,4.16-6.12,8.39.24,16.77,1.36,25.15,2.03Z"/>
  <path class="cls-1" d="M375.29,230.98c.47-.07.71.12.99.47,5.81,8.78,23.28,20.41,9.91,30.71-9.11,3.55-17.95,8.91-26.94,12.55-11.94,4.83-19.61-10.64-9.95-17.23,3.25-2.22,9.2-3.53,12.02-5.91,4.72-3.99-1.73-8.66-3.87-11.93l17.85-8.67Z"/>
  <path class="cls-1" d="M340.46,126.8l29.84,4.91c2.89.05,5.92-.46,8.62-1.51.78-.3,2.3-1.37,2.92-1.48.32-.05,1.88.43,2.31.57,13.65,4.68,8.36,24.49-6.44,20.98-10.35-2.45-21.45-7.25-31.67-10.41-2.68-2.04-5.18-4.41-5.93-7.84-.2-.9-.53-4.94.36-5.23Z"/>
  <path class="cls-1" d="M364.66,529.75c.86,6.18,4.96,13-1.24,17.75-4.2,3.22-11.46,1.6-16.49,1.41s-11.44.13-16.31-.58c-5.78-.84-8.89-7.81-5.61-12.75,3.66-5.5,9.63-3.42,15.14-3.28,3.31.08,6.21-.41,6.79-4.18l17.73,1.62Z"/>
  <circle class="cls-5" cx="318.6" cy="285.97" r="15.15"/>
  <path class="cls-5" d="M333.52,468.66c3.41,6.48,11.77,9.36,18.56,6.72,6.61,12.61-7.12,26.38-19.85,19.64-10.87-5.76-10.12-21.8,1.28-26.36Z"/>
  <path class="cls-1" d="M351.71,241.34l2.49,8.57c-.27.55-5.58,2.65-6.62,3.27-3.77,2.22-6.8,6.59-7.03,11.02l-18.29.76c-8.73-2.11-8.02-14.13,1.05-15.01,3.1-.3,8.31.36,11.07-.88,1.49-.67,2.55-2.59,2.51-4.19-.03-1.12-2.3-6.85-2.05-7.17,5.03,3.21,10.92,4.65,16.87,3.64Z"/>
  <path class="cls-1" d="M398.22,435.92c-1.15,4.47-.12,7.33,4.81,7.79,3.64.34,9.11-.39,12.25,1.26,7.04,3.69,4.67,14.73-2.63,15.38-5.94.53-14.34-.74-20.52-1.06-1.25-.07-2.53.07-3.78,0-.14-.12,1.5-2.46,1.7-2.84,2.5-5.01,2.08-10.58-.81-15.32-.35-.57-4.06-5.2-3.74-5.48l12.73.26Z"/>
  <path class="cls-1" d="M318.17,116.69c.1.06,1.05,1.58,1.35,1.89,1.55,1.67,3.26,2.79,4.93,4.29-7.85,3.58-15.75,7.22-23.32,11.38-2.14.53-5.02-3.53-5.4-5.39-.7-3.39.55-6.65,3.28-8.7,4.89-3.67,13.6.66,18.04-2.75.34-.26.36-1.19,1.12-.73Z"/>
  <path class="cls-5" d="M313.02,388.11c-5.13-4.05-6.43-11.62-3.47-17.37,3.32-6.46,10.59-9.49,17.5-7.18-6.49,2.14-11.74,7.46-13.38,14.16-.17.68-.65,2.71-.65,3.25v7.14Z"/>
  <path class="cls-5" d="M304.96,182.37c-7.02-3.08-10.92-10.67-8.83-18.18l8.83,18.18Z"/>
  <path class="cls-4" d="M348.08,48.58c-2.96-.43-5.23-.93-8.31-.78l2.73-.52,2.72-8.32,2.86,9.61Z"/>
  <path class="cls-4" d="M340.81,527.36c-.36.6-1.74.1-2.34.25.34-.6,1.73-.1,2.34-.25Z"/>
  <path class="cls-6" d="M124.83,316.06c25.17-.98,43.48,21.57,38.24,46.14-2.3,10.8-5.76,21.49-7.93,32.35-.06,2.89,1.63,4.76,4.48,5,8.25.7,18.12-1,26.49-.8,21.19-2.18,40.39,11.73,42.97,33.17,2.5,20.76-13.48,40.3-34.39,41.66-9.09.59-18.88.24-28.06.52-18.74.56-37.62,1.58-56.35,1.83-27.18.37-43.13-20.7-40.37-46.87,6.81-27.2,12.08-54.91,19.32-82,4.68-17.52,16.61-30.26,35.6-31.01Z"/>
  <path class="cls-6" d="M145.93,165.56c25.9-1.63,64.31,10.23,72.27,37.98,5.93,20.65-4.51,49.87-12.35,69.23s-18.04,44.58-39.5,50.39c-1.93.52-8.09,1.66-9.72.92-.47-.21-1.76-1.84-2.34-2.34-7.68-6.61-16.87-10.01-27.01-10.66-21.96-21.42-38.74-53.03-42.83-83.68-2.45-18.33-1.59-35.05,15.31-45.66,12-7.53,32.03-15.29,46.16-16.18ZM153.52,297.54c0-.93-.76-1.69-1.69-1.69s-1.69.76-1.69,1.69.76,1.69,1.69,1.69,1.69-.76,1.69-1.69ZM178.22,303.91c0-.87-.71-1.58-1.58-1.58s-1.58.71-1.58,1.58.71,1.58,1.58,1.58,1.58-.71,1.58-1.58ZM164.86,310c.17.36.11.75.33,1.11.62,1.01,4,1.73,4.41.46.54-1.69-3.94-3.08-5.17-2.16-.23.6.37.47.43.59Z"/>
  <path class="cls-6" d="M194.01,478.3l6.76,41.43c1.36,12.99,6,24.57,1.78,37.56-6.86,21.1-27.19,29.74-48.11,28-28.07-2.34-56.05-6.41-84.12-8.87-30.29-3.82-45.11-40.29-25.1-63.99,18.58-22,43.64-11.34,68.18-10.06,2.69-.26,4.58-1.97,4.78-4.73l-2.83-17.3,78.67-2.04Z"/>
  <path class="cls-5" d="M229.89,460.07c.23-1.69-.5-3.37-.24-5.05.23-1.48,1.89-4.56,2.45-6.38,5.58-18.26-1.7-38.06-17.81-48.17-13.47-8.45-25.6-6.27-40.62-5.86-4.63.13-9.28.1-13.91.25,1.87-7.95,3.76-15.9,5.63-23.85,1.17-4.97,2.91-9.82,3.21-14.97.56-9.65-2.36-19.28-7.8-27.16,4.4-.44,8.6-1.6,12.64-3.33,1.04-.45,3.12-1.86,3.92-2.07,1.29-.34,5.84,1.58,7.25,2.23,12.38,5.75,19.9,18.09,20.62,31.6.43,8.1.19,16.51.52,24.68.16,3.85-1.15,8.42,4.05,9.21,10.84-2.04,21.34-6.21,32.05-8.94,29.35-7.48,54.62,21.27,42.08,49.1-4.73,10.5-13.02,16.4-23.7,19.94-9.9,3.29-20.37,5.57-30.33,8.76Z"/>
  <path class="cls-5" d="M218.83,565.91c-6.15,5.92-14.01,9.25-22.45,10.54,4.36-4.95,8-10.13,10.2-16.42,3.99-11.38,2.28-18.17.49-29.47-2.78-17.56-5.54-35.12-8.37-52.67,6.34-1.28,12.51-3.68,17.76-7.47,3.38-2.44,6.12-5.56,9.01-8.52.09,5.08.69,10.14,1.04,15.2,1.22,17.92,2.25,35.85,3.38,53.77.13,2,.71,4.3.79,6.25.45,10.99-4.06,21.3-11.85,28.8Z"/>
  <path class="cls-5" d="M111.67,486.35l1.59,11.4-29.09-3.12c7.43-6.4,17.74-9.46,27.5-8.28Z"/>
  <polygon class="cls-4" points="124.95 62.09 110.92 62.09 117.8 38.96 124.95 62.09"/>
  <path class="cls-3" d="M360.65,100.1c0,10.6-8.59,19.19-19.19,19.19s-19.19-8.59-19.19-19.19,8.59-19.19,19.19-19.19,19.19,8.59,19.19,19.19ZM356.08,100.09c0-8.07-6.54-14.62-14.62-14.62s-14.62,6.54-14.62,14.62,6.54,14.62,14.62,14.62,14.62-6.54,14.62-14.62Z"/>
  <path class="cls-3" d="M164.86,310c-.06-.12-.65,0-.43-.59,1.23-.92,5.71.47,5.17,2.16-.4,1.27-3.79.54-4.41-.46-.22-.36-.17-.75-.33-1.11Z"/>
  <circle class="cls-3" cx="151.83" cy="297.54" r="1.69"/>
  <circle class="cls-3" cx="176.64" cy="303.91" r="1.58"/>
  <circle class="cls-5" cx="341.46" cy="100.09" r="14.62"/>
</svg>