<?xml version="1.0" encoding="UTF-8"?>
<svg id="Layer_1" data-name="Layer 1" xmlns="http://www.w3.org/2000/svg" viewBox="0 0 388.38 476.4">
  <defs>
    <style>
      .cls-1 {
        fill: #43bec6;
      }

      .cls-2 {
        fill: #ba443a;
      }

      .cls-3 {
        fill: #ba433a;
      }

      .cls-4 {
        fill: #b8bc99;
      }
    </style>
  </defs>
  <path class="cls-1" d="M264.14,0c1.49.38,3.05.51,4.56.84,4.52.98,8.81,2.81,12.69,5.3l78.93,62.11c35.18,11.01,37.4,60.33,3.59,74.84l-56.83,71.98c-4.96,5.44-11.26,9.78-18.48,11.63,1.39,5.6.21,11.36-1.16,16.86,6.27,5.34,11.93,11.14,16.56,17.99,9.58,14.16,14.13,31.08,13.43,48.22l8.46,7.36,9.11-19.19c18.53-29.3,61.58-7.39,46.77,25.91-3.05,6.87-6.71,13.71-9.92,20.55-4.14,8.82-8.09,18.65-12.66,27.16s-13.61,14.04-23.27,14.1c-16.44.1-25.31-12.89-37.14-21.97l-3.23-2.4c-.08.4.2.64.38.93,7.53,12.16,17.89,23.71,25.24,35.93,8.79,14.62,3.38,34.03-12.75,40.42-17.02,6.75-34.73,11.94-51.73,18.79-24.55,6.67-43.74-21.24-27.92-41.83,7.04-9.16,19.79-10.58,29.84-15.02-4.03-5.35-7.48-11.15-11.76-16.31-5.31,0-10.64.36-15.94-.13-12.24-1.13-25.03-5.77-35.26-12.47-2.54-1.66-4.87-3.71-7.43-5.27l-8.27,4.18,26.24,31.33c10.98,17.01,6.57,37.95-12.17,46.8-16.29,7.69-32.79,15.01-49.14,22.57-2.92,1.35-4.84,2.72-8.15,3.61-16.82,4.52-33.67-5.6-37.14-22.63-.28.1-.51.24-.83.25-6.39.21-12.8.43-19.21.7-10.04.42-19.69,2.69-28.63-3.25-15.68-10.42-14.35-34.17,2.41-42.65,8.64-4.37,19.23-2.29,28.63-3.51.35-.05.42.16.32-.31-1.32-6.78-5.85-14.81-6.43-21.63-.08-.98.2-4.97-.11-5.41s-3.52-.15-4.34-.21c-33.53-2.46-50.67-42.05-29.49-68.15l.08-.77L3.62,227.81l-2-5.2-1.56-7.2c.15-2.5-.2-5.21,0-7.68.84-10.4,6.93-20.91,14.63-27.71,4.8-4.24,10.54-6.85,16.23-9.68,16.23-8.07,33.17-16.53,49.65-23.99,8.66-3.92,17.14-6.03,26.79-4.86.94-1.28,1.51-2.74,2.46-4.03,7.34-10.02,21.21-13.06,32.08-6.93l16.84,11.22c.26,0,.56-1.22.53-1.53-.09-.8-1.77-4.03-2.16-5.24-3.59-11.08-2.06-23.31,4.29-33.03L231.4,13.19c6.27-7.07,15.76-12.42,25.31-13.19h7.44ZM344.49,66.68c-22.64-17.95-45.19-36.02-68.04-53.68-13.04-8.08-29.21-5.4-39.05,6.19l-68.19,86.28c-9.13,13.24-6.92,30.1,5.23,40.5l86.27,68.2c13.23,9.13,30.11,6.92,40.49-5.23l49.52-62.73c-16.5.64-32.19-8.61-38.82-23.78-10.94-25.03,5.65-53.19,32.59-55.74ZM379.8,106.27c0-17.38-14.09-31.47-31.47-31.47s-31.47,14.09-31.47,31.47,14.09,31.47,31.47,31.47,31.47-14.09,31.47-31.47ZM128.81,135.84c-14.07.55-20.56,18.86-9.67,28.24,14.28,8.8,28.16,19.49,42.6,27.92,9.85,5.75,21.77,3.14,26.06-7.96,1.23-3.17,2.9-8.12,3.73-11.39.14-.56.56-1.93.3-2.34-7.39-6.05-15.25-11.6-22.55-17.76-.81-.69-4.05-4.02-4.45-4.2-.78-.35-1.7.78-2.52,1.08-2.46.88-4.62.73-7.06-.11-8.44-4.11-16.61-13.86-26.44-13.48ZM146.06,191.73c-9.01-6.11-18.39-11.7-27.4-17.82-9.2-6.25-12.85-11.14-13.5-22.67-.03-.45.48-1.04-.03-1.45-.55-.37-7.11,0-8.29.13-4.56.51-8.4,2.18-12.52,4.03-16.53,7.47-33.53,15.97-49.81,24.06-4.73,2.35-9.82,4.49-13.83,8-10.37,9.08-15.49,23.06-10.18,36.34l38,78.82c.28.29.4,0,.61-.12,3.54-2.25,5.98-4.2,10.06-5.77,30.5-11.68,61.82,13.68,56.66,45.87-2.56,15.98-14.9,29.67-30.63,33.54,9.63,12.27,27.23,16.88,41.86,11.52,3.43-1.26,6.73-3.04,10.04-4.6,14.93-7.03,29.67-14.5,44.53-21.68-2.25-2.71-4.6-5.33-6.67-8.19-3.21-4.44-6.03-9.29-8.24-14.31-.77-1.75-2.27-6.82-3.07-7.9-.39-.53-1.8-1.51-2.41-2.21-14.22-16.2-13.04-38.9,3.36-53.02.75-.65,2.51-1.62,3-2.28.76-1.03,1.72-3.65,2.48-4.95,2.48-4.29,5.33-8.3,8.38-12.2-4.46-4.91-6.89-11.22-7.56-17.8l-24.83-45.33ZM221.69,205.33l-4.1-14.48-18.32-14.54c-1.42,3.16-2.09,6.73-3.23,9.96-4.9,13.98-18.19,19.77-32.25,15.93-.45-.12-2.63-1.09-2.77-.94l11.99,22.31c1.21-1.77,2.03-3.72,3.26-5.49,10.38-14.88,25.01-12.27,40.77-12.52,1.53-.02,3.11-.25,4.65-.22ZM280.45,228.13c-9.86.53-18.32-2.55-26.12-8.3-8.66-6.39-16.69-13.73-25.45-20.01.78,3.27,1.72,5.64.47,8.98s-4.85,4.85-8.04,5.18c-13.84,1.44-30.12-4.55-38.97,10.19s2.21,32.06,19.31,32.02c18.15-.04,36.5-.44,54.69-.74,5.88-.1,7.97.58,13.47-2.58,8.64-4.95,11.97-15.2,10.63-24.75ZM175.88,336.79c8.53,18.43,27.25,33.04,47.05,37.5,50.61,11.38,95.76-33.87,84.46-84.47-3.28-14.69-12.37-28.93-23.94-38.42-4.92,7.31-13.71,12.22-22.55,12.71-1.58.09-3.2-.26-4.55-.24-16.2.31-32.45.41-48.7.47-7.79.03-11.85.86-19.46-2.34-.78-.33-2.65-1.61-3.26-1.45-.44.12-5.04,5.96-4.73,6.2,19.98-4.17,39.87,9.11,43.34,29.22,4.74,27.51-21.32,49.58-47.65,40.82ZM215.73,302.37c0-15.46-12.53-27.99-27.99-27.99s-27.99,12.53-27.99,27.99,12.53,27.99,27.99,27.99,27.99-12.53,27.99-27.99ZM315.95,320c-1.99,12.49-7.63,24.25-15.33,34.18l22.41,19.06c9.32,6.51,22.63,4.83,28.46-5.35l24.06-51.02c5.35-16.55-11.86-30.22-27.06-21.3-7.38,4.33-10.48,18.28-15.03,25.51-2.49,3.96-6.44,5.26-10.85,3.65-1.94-.71-3.53-2.51-5.11-3.77-.22-.17-1.4-1.15-1.55-.96ZM108.04,334.27c0-18.51-15-33.51-33.5-33.51s-33.5,15-33.5,33.51,15,33.51,33.5,33.51,33.5-15,33.5-33.51ZM295.56,360.78c-.34-.17-.64.15-.48.23.34.17.64-.15.48-.23ZM236.71,419.47c-13.25,13.67.89,35.4,18.79,29.46,9.35-3.1,18.99-7.13,28.31-10.54,6.96-2.55,14.23-4.71,21.1-7.45,12.52-4.98,15.03-18.46,8.36-29.46-5.98-9.86-14.32-20.69-21.11-30.22-.47-.65-3.04-4.45-3.31-4.62-.11-.07-.18-.16-.32-.08-9.34,7.53-20.3,13.09-32.07,15.68-.42.23.09.69.24.97,2.48,4.37,10.32,12.56,10.32,17.27,0,3.08-2.03,6.14-4.71,7.52-7.96,4.1-19.26,4.94-25.59,11.47ZM141.73,416.11c-.87.87-2.55,1.65-3.67,2.21-9.87,4.95-24.21,8.54-28.91,19.3-7.72,17.67,10.5,35.63,28.1,28.1,1.8-.77,3.53-1.96,5.36-2.8,13.79-6.35,27.52-12.78,41.25-19.19,4.27-1.99,8.77-3.19,12.4-6.31,10.25-8.82,9.23-23.95.71-33.58l-24.58-29.39-.48-.26-39.21,18.73,2.44,3.2c2.79,3.83,9.43,9.05,9.05,14.15-.14,1.85-1.14,4.5-2.47,5.83ZM128.35,413.76l-5.48-17.62c-.39-.27-4.93.55-5.89.61-10.88.64-22.4-2.88-30.94-9.59,1.37,5.3,3.48,10.38,4.66,15.73-.07,6.04-3.27,8.73-9.04,9.38-9.24,1.04-21.79-1.64-28.73,5.57-10.79,11.21-1.43,29.25,13.69,27.61,10.79-.78,21.66-.92,32.48-1.7.69-8.34,4.74-15.85,11.31-20.95,5.29-4.11,11.92-6.24,17.93-9.05Z"/>
  <path class="cls-3" d="M344.49,66.68c-26.93,2.55-43.52,30.71-32.59,55.74,6.63,15.17,22.32,24.42,38.82,23.78l-49.52,62.73c-10.39,12.15-27.26,14.36-40.49,5.23l-86.27-68.2c-12.15-10.4-14.36-27.26-5.23-40.5L237.39,19.19c9.85-11.59,26.02-14.26,39.05-6.19,22.86,17.66,45.41,35.74,68.04,53.68Z"/>
  <path class="cls-3" d="M146.06,191.73l24.83,45.33c.68,6.58,3.1,12.89,7.56,17.8-3.05,3.89-5.89,7.91-8.38,12.2-.76,1.31-1.72,3.93-2.48,4.95-.49.66-2.25,1.63-3,2.28-16.4,14.13-17.58,36.83-3.36,53.02.61.7,2.02,1.67,2.41,2.21.8,1.08,2.3,6.15,3.07,7.9,2.21,5.02,5.03,9.87,8.24,14.31,2.07,2.86,4.42,5.48,6.67,8.19-14.85,7.18-29.6,14.65-44.53,21.68-3.3,1.56-6.61,3.34-10.04,4.6-14.63,5.36-32.23.75-41.86-11.52,15.73-3.87,28.07-17.55,30.63-33.54,5.16-32.19-26.16-57.56-56.66-45.87-4.09,1.57-6.52,3.51-10.06,5.77-.21.13-.33.42-.61.12L10.5,222.36c-5.31-13.27-.18-27.26,10.18-36.34,4.01-3.51,9.1-5.65,13.83-8,16.28-8.09,33.28-16.6,49.81-24.06,4.11-1.86,7.96-3.53,12.52-4.03,1.18-.13,7.74-.51,8.29-.13.51.41,0,1,.03,1.45.65,11.53,4.3,16.42,13.5,22.67,9,6.12,18.39,11.71,27.4,17.82Z"/>
  <path class="cls-3" d="M175.88,336.79c26.33,8.76,52.39-13.31,47.65-40.82-3.47-20.11-23.36-33.39-43.34-29.22-.31-.24,4.29-6.08,4.73-6.2.61-.16,2.48,1.12,3.26,1.45,7.61,3.21,11.67,2.37,19.46,2.34,16.25-.06,32.5-.16,48.7-.47,1.36-.03,2.97.33,4.55.24,8.84-.48,17.62-5.4,22.55-12.71,11.57,9.49,20.66,23.73,23.94,38.42,11.3,50.6-33.85,95.85-84.46,84.47-19.81-4.45-38.52-19.06-47.05-37.5Z"/>
  <path class="cls-4" d="M141.73,416.11c1.33-1.33,2.33-3.97,2.47-5.83.38-5.11-6.27-10.32-9.05-14.15l-2.44-3.2,39.21-18.73.48.26,24.58,29.39c8.52,9.63,9.54,24.76-.71,33.58-3.63,3.12-8.13,4.32-12.4,6.31-13.74,6.41-27.47,12.84-41.25,19.19-1.82.84-3.56,2.03-5.36,2.8-17.6,7.53-35.82-10.43-28.1-28.1,4.7-10.76,19.04-14.35,28.91-19.3,1.12-.56,2.8-1.34,3.67-2.21Z"/>
  <path class="cls-4" d="M236.71,419.47c6.33-6.53,17.63-7.36,25.59-11.47,2.68-1.38,4.71-4.44,4.71-7.52,0-4.71-7.84-12.89-10.32-17.27-.16-.27-.66-.74-.24-.97,11.77-2.6,22.73-8.16,32.07-15.68.15-.08.21.01.32.08.27.17,2.84,3.96,3.31,4.62,6.79,9.53,15.13,20.36,21.11,30.22,6.67,11,4.16,24.47-8.36,29.46-6.86,2.73-14.13,4.9-21.1,7.45-9.32,3.42-18.97,7.44-28.31,10.54-17.89,5.94-32.04-15.8-18.79-29.46Z"/>
  <path class="cls-4" d="M280.45,228.13c1.34,9.55-1.99,19.79-10.63,24.75-5.5,3.15-7.59,2.48-13.47,2.58-18.19.3-36.54.7-54.69.74-17.1.04-28.37-16.92-19.31-32.02s25.13-8.75,38.97-10.19c3.18-.33,6.83-1.98,8.04-5.18s.32-5.71-.47-8.98c8.76,6.28,16.79,13.61,25.45,20.01,7.8,5.76,16.26,8.83,26.12,8.3Z"/>
  <path class="cls-4" d="M315.95,320c.15-.18,1.34.79,1.55.96,1.57,1.26,3.17,3.06,5.11,3.77,4.41,1.61,8.36.31,10.85-3.65,4.54-7.23,7.65-21.18,15.03-25.51,15.2-8.92,32.41,4.76,27.06,21.3l-24.06,51.02c-5.83,10.18-19.14,11.86-28.46,5.35l-22.41-19.06c7.7-9.93,13.34-21.7,15.33-34.18Z"/>
  <circle class="cls-2" cx="74.54" cy="334.27" r="33.5"/>
  <circle class="cls-2" cx="348.33" cy="106.27" r="31.47"/>
  <path class="cls-4" d="M128.81,135.84c9.83-.39,18,9.37,26.44,13.48,2.44.84,4.6,1,7.06.11.82-.29,1.74-1.43,2.52-1.08.4.18,3.64,3.51,4.45,4.2,7.3,6.16,15.16,11.7,22.55,17.76.26.42-.16,1.79-.3,2.34-.82,3.27-2.5,8.21-3.73,11.39-4.29,11.09-16.21,13.7-26.06,7.96-14.44-8.43-28.32-19.11-42.6-27.92-10.89-9.38-4.4-27.69,9.67-28.24Z"/>
  <path class="cls-4" d="M128.35,413.76c-6.02,2.81-12.65,4.94-17.93,9.05-6.57,5.1-10.62,12.62-11.31,20.95-10.81.78-21.68.92-32.48,1.7-15.12,1.63-24.48-16.4-13.69-27.61,6.93-7.21,19.48-4.52,28.73-5.57,5.77-.65,8.97-3.34,9.04-9.38-1.17-5.35-3.28-10.44-4.66-15.73,8.54,6.71,20.06,10.23,30.94,9.59.95-.06,5.5-.88,5.89-.61l5.48,17.62Z"/>
  <circle class="cls-2" cx="187.75" cy="302.37" r="27.99"/>
</svg>