<?xml version="1.0" encoding="UTF-8"?>
<svg id="Layer_1" data-name="Layer 1" xmlns="http://www.w3.org/2000/svg" viewBox="0 0 543.27 303.17">
  <defs>
    <style>
      .cls-1 {
        fill: #9f9a38;
      }

      .cls-2 {
        fill: #45bcc2;
      }

      .cls-3 {
        fill: #b7483f;
      }

      .cls-4 {
        fill: #bc3c89;
      }

      .cls-5 {
        fill: #b9453c;
      }

      .cls-6 {
        fill: #a0973a;
      }

      .cls-7 {
        fill: #bd3760;
      }

      .cls-8 {
        fill: #b9493b;
      }

      .cls-9 {
        fill: #bd3d4b;
      }

      .cls-10 {
        fill: #b16251;
      }

      .cls-11 {
        fill: #ba443b;
      }

      .cls-12 {
        fill: #45bbc6;
      }

      .cls-13 {
        fill: #ba453b;
      }

      .cls-14 {
        fill: #b7bd9a;
      }

      .cls-15 {
        fill: #9f9939;
      }
    </style>
  </defs>
  <path class="cls-6" d="M8.35,0c3.01,1.32,4.64,3.24,4.95,6.62v288.03c-.76,8.55-11.79,8.25-12.54,1.31V5.31C1.09,2.25,3.15,1.16,5.69,0h2.66Z"/>
  <path class="cls-12" d="M543.06,8.35c-.5,5.75.67,12.61,0,18.21-.41,3.4-3.31,6.65-6.54,7.69-1.9.61-4.57.15-4.84,2.34.14.63,4.99,1.44,6.07,1.91,4.81,2.11,5.86,9.01,1.71,12.33-3.66,2.93-7.17.9-11.19.38-.31,3.56-1.4,9.26-2.85,12.52-1.34,3.04-4.91,3.81-7.59,1.9-3.36-2.39-1.79-5.49-.95-8.72l-3.79-.38c.29,1.46,1.18,2.26,1.06,3.87-.32,4.28-5.62,6.53-8.85,3.72-.58-.51-2.15-3.26-3.02-3.04s-2.38,5.05-6.14,5.18c-1.02.03-2.52-.74-3.29-.56-.45.11-2.14,1.92-2.92,2.22-.76,0-1.52,0-2.28,0-.59.09-1.03-.22-1.52-.38-2.46-.8-8.22-2.78-10.21-4.02-2.71-1.69-3.45-4.49-2.14-7.39.47-1.05,6.62-9.36,7.44-10.02,3.94-3.14,9.19.53,8.31,5.66-.26,1.49-2.79,3.76-2.61,4.53.15.66,4.07,2.12,4.84,1.67.46-.28,4.77-7.69,5.98-9.01,2.1-2.3,5.33-2.51,7.77-.6,1.18.93,1.69,2.47,3.02,3.23.53-3.74,3.63-5.35,7.21-4.94-1.33-2.62-2.42-.68-4.4-.41-4.4.59-9.18.06-13.58.78-7.17-1.68-6.84-10.55.15-12.32-3.34-.87-6.1-3.42-6.8-6.86.67-8.05-4.01-24.09,8.17-25.54,8.22-.97,18.12-.89,26.52-1.18,5.4-.19,12.35-2.02,15.83,3.54l1.45,3.68ZM494.1,21.25c-.26,4.17-.14,8.61,4.45,10.16l36.18-.08c2.06-.64,3.72-1.78,4.55-3.8,1.14-2.79,1.05-13.35.76-16.72-.66-7.64-5.93-6.78-11.98-6.64-5.64.13-11.4.87-17.05,1.17-2.35.12-4.73-.29-7.04.37,5.42,3.55,6.31,11.43.73,15.34-3.59,2.51-6.87,1.88-10.6.22ZM505.21,13.69c0-3.14-2.55-5.69-5.69-5.69s-5.69,2.55-5.69,5.69,2.55,5.69,5.69,5.69,5.69-2.55,5.69-5.69ZM506.48,34.96c-.57.2-.7,1.29-1.17,1.87-2.49,3.05-9.16-.48-9.34,3.97s5.58,2.54,8.17,2.44c3.24-.12,9.62,1.25,9.33-3.58-.03-.56-1.09-4.08-1.34-4.38-.42-.51-4.94-.57-5.65-.32ZM528.26,34.91h-8.54c-3.12,4.56-5.31,8.53,1.33,10.82,2.63.91,11.87,3.42,14.25,3.25,3.84-.28,4.48-5.74,1.2-7.32-3.6-1.73-9.84-.4-8.24-6.75ZM483.75,48.63c-.75.22-6.97,8.71-7.09,9.64-.19,1.43.09,1.81,1.25,2.51,1.03.62,7.76,3.25,8.99,3.53,1.05.25,2.56.5,2.97-.84,1.2-4-6.02-2.38-6.69-6.47-.44-2.66,3.39-5.07,3.34-6.74-.03-1.16-1.65-1.96-2.76-1.63ZM525.51,50.17c-1.34-1.13-7.98-.84-9.98-.83-1.56,0-3.83-.96-4.57,1.49-1.27,4.21,4.43,3.07,6.4,3.51,3.79.84.76,5.28,1,7.71s3.53,3.1,4.77.56c.71-1.44,2.67-8.16,2.81-9.73.06-.69.09-2.27-.44-2.71ZM501.59,50.53c-.73.15-1.3.73-1.79,1.26-.75.81-4.86,6.74-5.25,7.64-.54,1.23-.69,3.1.97,3.49,2.43.57,3.25-5.46,6.78-5.61,3.13-.14,3.7,3.57,5.48,4.33,1.4.6,3,.16,3-1.51s-6.31-7.43-7.34-9.32c-.56-.47-1.18-.43-1.84-.29Z"/>
  <rect class="cls-4" y="5.31" width=".76" height="290.65"/>
  <path class="cls-8" d="M278.93,302.79c-8.56-6.24-2.81-18.04,7.59-14.8-.08,2.7-2.35.96-4.32,1.16-4.95.51-6.65,6.32-4.11,10.12,2.31,3.47,7.71,1.36,8.05,1.62.09.07.37,1.55.38,1.9-.83.01-2.14-.28-2.66.38-.88,0-1.77,0-2.66,0-.28,0-1.33-.38-2.28-.38Z"/>
  <path class="cls-8" d="M324.09,302.79c-7.26-5.12-4.9-15.67,4.76-15.19,1.63.08,2.85-.06,2.45,1.91-5.79-1.26-9.97.93-9.07,7.37.64,4.62,5.06,5.02,8.88,4.01l.2,1.9c-.94.01-1.98.38-2.28.38h-2.66c-.41-.64-1.56-.37-2.28-.38Z"/>
  <path class="cls-1" d="M133.2,69.82h44.78l.38.38v217.04h-11.39s0,1.9,0,1.9h4.56s0,13.69,0,13.69h-3.42l-4.97-15.55c-.67,0-2.32-.31-2.66.19l-4.89,15.37h-1.52c.51-3.35-2.92-1.61-5.1-1.96-6.13-.97-5.69-11.45.78-12.09,1.2-.12,3.57.8,4.15,0,.98-1.34-.96-1.49-1.9-1.55-4.8-.34-8.86,1.39-9.33,6.64-.37,4.12.73,6.04,3.81,8.97h-6.07l-.76-15.59c-.85.08-2.29-.31-2.85.37l-4.17,11.77-4.03-12.1c-.1-.09-2.52-.14-2.61-.04-.53.55-.71,13.26-1.14,15.59h-1.9l-4.89-15.37c-.34-.49-1.99-.19-2.66-.19l-4.97,15.55h-1.52l-.2-2.32c-3.15.97-8.03.61-8.83-3.31-1.33-6.52,2.9-9.62,9.02-8.07.78-2.41-3.16-2.07-4.76-1.91-7.66.76-9.12,11.8-2.45,15.61h-61.1V69.82h92.6ZM114.04,110.04c-2.09-.25-5,0-7.21,0-.03,0-.73.74-.38,0,4.85-17.71-12.84-33.37-29.79-25.23-11.65,5.6-15.29,20.72-7.98,31.29-5.58,1.04-10.48,4.74-13.44,9.52-2.7,4.36-3.09,7.68-3.64,12.68-1.51,13.85-1.72,27.89-3.44,41.73.36,14.98,13.24,27.29,28.49,22.96-3.16,9.34,1.62,17.6,4.21,26.33-3.37,1.39-4.78,4.05-8.58,4.4-6.78.63-11.23-.29-17.51,3.36-20.23,11.76-11.32,42.65,12.99,42.2,14.96-.28,30.47-2.83,45.52-3.06,4.08.59,8.94-3.81,11.85-4.47,4.51-1.02,9.52.65,14.91-1.03,11.45-3.56,18.25-13.68,16.2-25.69-2.65-15.53-8.4-32.19-11.97-47.61-1.47-2.61-3.3-4.99-5.58-6.94-.65-.56-4.05-2.42-3.59-3.04,10.16-5.72,22.78-10.63,25.32-23.44,1.84-9.27-1.7-14.44-7.69-20.57-7.94-8.12-16.05-16.12-24.29-23.9-4.36-4.12-7.66-8.69-14.41-9.5Z"/>
  <path class="cls-15" d="M489.93,67.92c14.03-.09,28.09.07,42.13,0-.19,72.59.24,145.21,0,217.8-1.46.31-10.99-.41-11.39,0-.05.05-.05,1.46,0,1.51.17.18,4.17-.13,4.94,0v13.66c-.25,0-.51,0-.76,0-.4-.61-1.58-.4-2.28-.38-.25,0-.51,0-.76,0l-.38-.38c-.84-4.87-3.34-9.37-4.51-14.19l-2.47-.25c-1.79,4.68-3.2,9.5-4.77,14.26-.34,1.04-.68.46-1.54.56-.13,0-.25,0-.38,0-.14-.59.48-1.57-.57-1.52-1.42.07-2.45.59-4.15.35-6.33-.89-6.12-11.18-.39-12.08,1.42-.22,2.68.15,3.97.2,1.41.05,1.64-1.04.48-1.65-1.58-.83-4.14-.44-5.79.12-6.37,2.16-6.71,11.68-.77,14.6-1.89.07-3.81-.09-5.69,0-.25.01-.51-.01-.76,0l-.76-14.8c-.71.13-2.27-.32-2.7.24-1.61,2.07-2.61,8.96-4.13,11.53h-.38c-1.21-3.86-2.28-7.76-3.75-11.54l-2.7-.23-.76,14.8h-2.28l-4.74-14.42c-.54-.64-2.04-.38-2.81-.33-1.2,5.01-3.5,9.78-4.59,14.76-.38,0-.76-.01-1.14,0-.25,0-.52-.03-.76,0-.16-.55.51-1.52-.57-1.53s-2.12.49-3.4.41c-6.74-.45-7.05-11.21-.74-12.12,1.61-.23,3.15.07,4.71.34.42-3.17-4.76-2.36-6.71-1.59-5.89,2.31-6.37,11.91-.49,14.49h-.76c-19.26,0-39.07.59-58.27.02-.72-.02-1.44.04-2.07-.4V68.3c30.68-.16,61.38.2,92.07.03.69,0,1.22-.41,1.28-.41.76,0,1.52,0,2.28,0ZM459.95,108.52c5.1-15.07-8.49-30.17-23.99-27.21s-22.32,20.1-13.58,32.72c-.03.48-3.56,1.39-4.31,1.75-6.56,3.2-11.31,9.67-12.28,16.94-.55,14.01-2.93,28.03-3.52,42.02-.38,9,1.66,17.43,9.14,23.11,9.1,6.91,18.31,3.76,28.43,1.74-.19,9.35,2.26,18.44,3.04,27.7-.6.6-14.66-1.77-16.89-1.89-30.69-1.75-34.91,40.39-4.88,45.1,12.73,2,26.23,2.33,38.99,4.27,4.81.73,8.62,2.83,13.71,2.6,6.95-.32,11.84-3.84,16.33-8.72,8.4-9.13,17.91-20.75,25.6-30.56,10.41-13.28,9.51-29.19-6.31-37.31-8.16-4.19-16.87-7.56-25.18-11.44-.15-.67.2-.75.63-1.07,6.87-5.18,17.9-8.51,23.67-15.04,7.29-8.24,8.4-19.84,1.14-28.48-9.49-11.29-22.76-21.12-32.68-32.21-4.86-3.67-11.02-5.2-17.05-4.02Z"/>
  <path class="cls-15" d="M310.43,70.2c1.01,0,2.03,0,3.04,0,14.04.01,28.09,0,42.13,0-.18,72.47.23,144.96,0,217.42h-11.01s0,1.9,0,1.9h4.56s0,13.28,0,13.28c-1.26,0-2.53,0-3.79,0l-4.62-14.55c-.48-.98-2.46-.96-2.91,0l-4.62,14.55c-.63,0-1.27,0-1.9,0l-.2-1.9c-3.82,1.01-8.24.61-8.88-4.01-.89-6.44,3.28-8.63,9.07-7.37.4-1.97-.82-1.83-2.45-1.91-9.66-.47-12.02,10.07-4.76,15.19-2.14-.03-4.31,0-6.45,0-.08-1.84-.23-14.63-.76-15.18-.09-.1-2.14,0-2.61.05-.88,1.4-3.44,11.54-4.03,11.72-.77.24-.52-.41-.66-.83-.59-1.74-2.78-9.69-3.5-10.56-.57-.68-2-.3-2.85-.38l-.76,15.18c-.76,0-1.52,0-2.28,0l-4.62-14.55c-.28-.84-2-.86-2.61-.45-.66.44-4.35,13.14-4.92,15-.51,0-1.01,0-1.52,0-.01-.35-.29-1.83-.38-1.9-.35-.26-5.74,1.85-8.05-1.62-2.53-3.8-.83-9.61,4.11-10.12,1.98-.2,4.24,1.54,4.32-1.16-10.4-3.25-16.15,8.56-7.59,14.8-20.23-.08-40.49.06-60.72,0V70.2c30.73.02,61.48-.02,92.22,0ZM283.86,110.42c4.2-16.01-9.05-30.42-25.43-26.75-7.98,1.78-15.23,9.54-15.95,17.82-.49,5.66.66,10.14,3.43,15-9.82,2.49-15.47,10.05-16.69,19.93-1.58,12.74-2.87,28.53-3.42,41.36-.57,13.35,6.81,25.29,20.87,26.37-1.04,2.4-1.93,4.81-2.76,7.3-4,12.11-8.43,25.32-11.76,37.56-1.77,6.51-2.15,11.57.41,18,6.67,16.72,25.08,13.5,39.74,14.14,9.23.41,25.39,2.9,33.45-1.06,3.36-1.65,4.79-4.18,7.36-5.92,1.3-.89,2.99-1.22,4.4-2.05,10.64-6.21,15.57-15.24,12.37-27.67-3.84-14.91-10.79-29.93-14.6-44.97-1.48-3.57-3.41-6.65-6.36-9.19,5.93-4.17,13.17-7.19,19.08-11.27,10.67-7.36,13.77-22.1,5.2-32.38-9.11-10.94-22.51-20.47-31.88-31.49-1.77-1.47-7.54-4.74-9.68-4.74h-7.78Z"/>
  <path class="cls-12" d="M310.43,70.2c-4.59-3.12-16.86-3.76-12.97-12.02.6-1.27,6.71-9.55,7.67-10.16,3.68-2.33,8.73.55,8.32,4.87-.23,2.44-2.48,3.75-3.02,5.92,1.61.02,3.63,2.18,4.94.97,1.94-1.81,3.79-6.21,5.7-8.35,2.05-2.31,5.68-3.03,8.16-.96.47.39,2.61,3.7,3.22,3.04.03-4,3.37-4.98,6.83-4.56-.95-2.87-3.12-.63-5.51-.38-3.98.41-8.79.09-12.87.35-4.7-.87-6.32-6.82-3.09-10.23.77-.82,1.56-.91,2.38-1.41,1.47-.89-.91-1.16-1.77-1.82-5.25-4.05-3.74-9.99-3.8-15.93-.02-1.73-.58-3.29-.39-5.29.4-4.28,3.37-8.84,7.81-9.65,11.23-.36,22.5-1.62,33.72-1.95,4.78-.14,8.78,1.45,10.53,6.21,1.12,3.07,1.02,14.62.7,18.3-.36,4.24-3.2,8.6-7.58,9.49-2.34.48-3.61-.77-4.2,2.25,6.27.81,13.43,4.86,9.51,12.16-2.59,4.81-8.28,3.7-12.53,2.08,0,.66.05,1.34-.09,2-.6,2.67-1.92,7.96-2.93,10.35-2.23,5.3-9.71,3.76-9.85-1.57-.02-.96,1.37-4.83,1.1-5.08h-3.79c3.3,4.52-1.22,10.52-6.45,8.16-1.57-.71-3.18-3.62-3.98-3.62-1.44,0-2.43,5.14-6.83,4.98-1.01-.04-2.25-.8-2.6-.74-.4.08-2.41,2.34-3.28,2.6-1.01,0-2.03,0-3.04,0ZM318.02,23.15v6.26c0,.8,2.77,4.04,4.01,3.96l36.99-.16c1.77-.46,4.1-3.27,4.46-5.03.41-2,.38-15.72-.09-17.57-.55-2.15-2.77-4.19-4.98-4.51l-30.9,1.49c10.27,7.22,1.6,22.01-9.49,15.55ZM328.79,15.85c0-3.12-2.53-5.65-5.65-5.65s-5.65,2.53-5.65,5.65,2.53,5.65,5.65,5.65,5.65-2.53,5.65-5.65ZM329.82,36.85c-.08.07-.18,1.13-.47,1.61-1.96,3.23-6.59.65-8.88,2.51-1.64,1.33-1.13,4.28,1.13,4.58,2.87.38,9.94.03,12.9-.42,1.42-.22,2.84-1.68,2.76-3.15-.02-.35-1.43-4.61-1.59-4.81-.44-.53-5.62-.53-5.85-.33ZM351.79,36.81h-8.73c-2.73,5.61-5.34,8.74,2.28,11.19,2.47.79,10.95,3.26,13.09,3.26,3.9-.01,5.49-5.34,1.97-7.32-3.8-2.14-9.96-.27-8.62-7.13ZM307.66,50.52c-.51.14-1.02.89-1.4,1.29-.75.79-5.61,7.13-5.88,7.78-1.03,2.51.98,3.13,2.84,3.96,1.31.59,8.38,3.39,9.2,3.17.42-.11,1.25-.94,1.36-1.35.83-3.04-5.97-2.87-6.69-5.3-1.2-4.04,3.82-6.12,2.77-8.45-.33-.74-1.34-1.33-2.2-1.1ZM336.5,51.31c-2.81.62-2.29,4.55.38,5.15,1.54.35,4.12-.38,5.26.43,2.59,1.84-1.98,6.73.55,8.93.86.75,2.21.79,3.18.16,1.39-.89,4.24-11.67,3.46-13.25-.86-1.72-10.95-1.84-12.83-1.43ZM320.95,64.39c1.08-.9,2.08-4.42,4.1-4.81,4.26-.83,4.62,3.85,6.9,4.49,1.19.33,2.45-.87,2.39-2-.04-.87-7.17-9.31-7.97-9.56-1.28-.41-2.26.68-3.04,1.57-.7.79-5.35,7.5-5.54,8.14-.68,2.26,1.45,3.58,3.15,2.17Z"/>
  <path class="cls-12" d="M133.2,69.82c-4.66-2.92-17.35-3.98-13.11-12.16.59-1.13,6.16-8.79,6.95-9.47,4.23-3.59,9.85.03,8.73,5.42-.37,1.8-2.47,3.08-2.95,4.83,1.58-.15,3.93,2.18,5.12,1.14,1.84-2.21,5.27-9.21,7.7-10.13,4.94-1.88,6.22.96,9.2,4.06.13-3.89,3.23-5.47,6.83-4.93-.94-2.99-.99-1.54-2.73-1.02-2.55.76-12.98,1.41-15.65,1-6.39-.99-5.67-11.66.92-11.93-8.86-2.88-7.18-11.11-7.19-18.61,0-1.01-.44-1.89-.41-3,.15-4.67,3.17-10.15,8.2-10.81,11.23-.31,22.51-1.69,33.72-1.94,4.92-.11,9.86,2.24,10.74,7.51.57,3.36.48,14.57.09,18.13-.47,4.29-3.8,7.47-7.87,8.45-1.62.39-2.99-.49-3.89,1.8-.28.72.27.48.55.57,2.91.89,6.53,1,8.55,3.6,2.69,3.45,1.91,8.41-1.77,10.75s-6.58.44-10.37-.32c-.01.92.09,1.84-.09,2.75-.39,1.98-2.53,9.58-3.5,10.92-1.92,2.65-6.13,2.6-8,0s-.52-5.23.2-7.98h-3.79c2.84,5.41-2.01,10.98-7.4,7.59l-3.41-3.42c-1.87,2.46-2.76,5.35-6.46,5.34-1.06,0-2.49-.81-2.98-.72-.44.09-2.39,2.31-3.28,2.58h-2.66ZM140.41,22.77v5.88c0,1.09,2.82,4.49,4.39,4.34,11.33-.75,24.13,1.09,35.28.04,2.64-.25,5.27-2.08,5.78-4.85.41-2.22.42-16.37-.09-18.33-.43-1.67-2.87-3.87-4.59-4.14l-31.28,1.5c10.67,7.26,1.85,21.9-9.49,15.55ZM151.42,15.43c0-3.15-2.55-5.7-5.7-5.7s-5.7,2.55-5.7,5.7,2.55,5.7,5.7,5.7,5.7-2.55,5.7-5.7ZM158.2,36.48c-.23-.15-4.95-.15-5.4,0-.75.26-.67,1.58-1.2,2.22-1.48,1.78-4.8.9-6.8,1.17-2.31.32-3.72,2.72-2.13,4.64.82.99,6.97.73,8.58.67,1.32-.05,6.07-.33,6.91-.68,3.09-1.32.69-5.75.04-8.01ZM174.57,36.43h-8.54c-2.42,3.82-5.78,8.47.27,10.73,2.03.76,12.82,3.73,14.53,3.72,3.62-.01,5.48-4.2,2.86-6.69-3.05-2.91-11.33-.63-9.12-7.76ZM130.28,60.59c-3.02-3.27,2.05-6.1,2.19-8.42s-2.1-2.65-3.45-1.14c-.68,1.78-6.37,7.91-6.47,9.12-.06.73.64,1.79,1.26,2.19.66.43,9.8,4.01,10.36,4.05,1.78.11,2.66-1.48,1.87-3.04-.56-1.12-4.7-1.61-5.77-2.77ZM171.82,52.07c-1.38-1.39-11.87-1.73-13.4-.87-1.67.94-1.78,3.31-.15,4.36,2.63,1.7,7.62-1.4,7.15,3.77-.18,1.96-1.84,3.73-.52,5.54,1.4,1.91,3.6,1.28,4.55-.75.61-1.31,2.68-8.35,2.83-9.72.07-.65,0-1.87-.45-2.33ZM147.91,52.04c-.58.11-1.01.51-1.42.89-.57.54-5.52,7.6-5.78,8.25-.39.94-.63,2.59.47,3.13,2.94,1.47,3.63-4.62,6.67-5.1,4.44-.71,4.94,5.27,7.77,4.38s.48-3.44-.57-4.79c-.76-.97-5.07-6.11-5.68-6.47s-.73-.44-1.44-.3Z"/>
  <path class="cls-12" d="M267.55,48.19c1.84-.63,3.17-2.21,5.21-2.56,8.09-1.38,12.51,8.2,5.97,13.56-2.07,1.7-12.32,8.13-14.61,8.92-3.91,1.33-8.37.1-9.86-3.97-.87-.06-1.16.81-2.06,1.16-2.06.81-14.3,1.46-16.7,1.09-5.26-.82-7.03-8.1-2.68-11.36,2.54-1.9,5.17-1.55,8.16-1.52-.73-2.13-1.17-5.34-2-7.3-.76-1.78-2.34-3.43-3.04-5.69-4.74-15.3,10.13-29.12,25.03-23.13,9.83,3.95,14.2,15.24,10.06,24.99-.94,2.21-2.59,3.66-3.48,5.81ZM269.24,34.72c0-8.5-6.89-15.4-15.4-15.4s-15.4,6.89-15.4,15.4,6.89,15.4,15.4,15.4,15.4-6.89,15.4-15.4ZM267.16,48.19c-.38-.36-1.72.98-1.9,1.51.68.21,2.38-1.04,1.9-1.51ZM254.64,53.5c1.19,4.25,1.59,13.21,7.98,11.58,1.13-.29,13.29-7.76,14.39-8.76,2.01-1.83,2.07-4.63.04-6.45-4.15-3.72-8.35,4.04-12.55,3.06-1.05-.25-1.63-1.39-2.07-1.38-1.85.06-5.45,2.31-7.8,1.93ZM250.77,53.2c-2.46-.2-4.48-1.61-6.75-2.35,2.02,8.19-4.62,4.89-8.25,6.36-2.39.96-2.69,3.84-.69,5.43,5.1.9,10.49-.1,15.68-.31,3.69-2.07.69-6.06.02-9.12Z"/>
  <path class="cls-12" d="M80.46,59.95c2.75-2.59,5.12-10.87,9-11.67,2.92-.61,4.23,1.19,5.58,1.05.88-.09,1.93-1.18,3.41-1.11.84.04,1.99.62,2.69,1.11,1.04.73,6.92,6.36,7.78,7.4,2.23,2.68,1.33,7.02-2.11,8.14-3.24,1.06-4.25-1.25-5.58-1.06-.56.08-1.19.73-1.79.91-.68.21-1.43.07-2.01.27-1.22.42-1.9,1.96-3.98,2.09-2.33.15-3.36-1.59-4.13-1.74-.54-.11-1.73.91-2.62,1.05-2.36.38-4.61-.46-5.67-2.64-1.27,2.89-3.6,3.98-6.74,3.33-2.82-.58-3.82-4.86-5.02-4.87-.83,0-2.19,2.54-3.25,3.23-2.4,1.57-5.12,1.27-7-.92-1.44,2.51-3.84,3.61-6.75,2.95-1.01-.23-9.91-6.85-10.71-7.88-3.38-4.33-.48-6.76,2.67-9.48,1.94-1.68,6.98-6.12,9.38-5.99,3.92.22,6.44,4.54,4.4,8.01-.64,1.09-3.65,3.17-3.72,3.51-.13.63,2.85,2.81,3.4,3.01.65.24,7.55-8.32,8.91-9.31,2.33-1.71,5.82-1.72,7.78.56,1.63,1.9,4.18,6.44,5.62,8.8.24.38.43.81.45,1.26ZM53.38,47.51c-.68.07-9.25,6.89-9.54,7.52-.49,1.06-.16,1.97.6,2.81.53.58,7.42,5.64,8.1,5.94.92.41,2.49.76,3.07-.4,1.52-3.02-5.11-4.01-5.14-7.39s4.19-3.97,4.8-5.88c.36-1.14-.64-2.71-1.88-2.59ZM106.91,62.11c.88-.71,1.19-2.49.45-3.45-2.64-1.41-5.47-6.16-7.72-7.46-1.38-.8-2.81-.37-3.8.79-.78.91-4.25,6.98-4.72,8.18-1.12,2.81.22,5.37,3.29,4.07,1.43-.61,2.09-5.37,4.46-5.48,3.06-.14,4.95,5.84,8.05,3.34ZM90.89,51.35c-1.35,0-7.03,9.17-7.01,10.32.02,1.28,1.84,1.76,2.83.93.5-.42,4.3-6.7,4.81-7.71.27-.53,1.1-1.85,1.02-2.29s-1.2-1.25-1.65-1.25ZM61.57,62.51c2.31,2.3,4.85-3.99,7.69-4.11,3.5-.15,4.06,4.74,5.76,5.27,1.34.42,2.75-.1,2.74-1.64,0-.6-5.37-9.29-6.03-9.88-.88-.78-1.93-.82-2.88-.2-1.34,1.73-7.6,7.25-7.75,8.96-.04.45.15,1.28.46,1.59Z"/>
  <path class="cls-12" d="M407.96,54.63c.13.19,3.72,2.31,3.94,2.26,3.43-3.02,7.85-11.15,12.9-10.58,4,.45,7.05,8.45,9.31,11.5l.79.24c1.55-3,5.23-10.98,8.63-11.68,2.75-.56,4.13,1.44,5.16,1.35.58-.05,1.32-.81,2.05-.97,1.75-.39,3.06.02,4.47,1.05,1.2.88,7.89,7.67,8.35,8.72,1.71,3.96-1.79,7.63-5.98,6.74-.88-.19-2.26-1.47-2.69-1.39-.34.06-.77.82-1.28,1.02-1.08.43-2.04.27-2.87.55-1,.34-1.27,1.57-3.16,1.79-2.8.31-3.46-1.42-4.53-1.51-.79-.07-1.75.89-2.73,1.07-2.54.47-4.02-.81-5.6-2.56-3.81,5.99-8.74,3.38-11.4-1.9-3.08,2.16-3.56,5.18-8.26,4.09-.95-.22-1.81-1.53-2.32-1.42s-.94,1.27-1.4,1.66c-2.24,1.87-4.29,1.72-6.7.32-1.53-.89-8.25-5.63-9.21-6.73-1.85-2.11-2.08-4.93-.37-7.21.93-1.24,8.16-7.11,9.6-7.86,4.87-2.53,9.81,2.66,7.04,7.42-.6,1.04-4.22,3.33-3.74,4.03ZM408.62,46.39c-.72-.72-1.9-.47-2.7-.04-.91.48-5.71,4.52-6.7,5.45-1.18,1.11-2.38,1.75-1.61,3.51.34.79,9.07,7.24,9.79,7.31,1.69.16,2.48-1.25,2-2.77-.45-1.42-5.19-2.79-5.19-5.76s6.92-5.17,4.41-7.69ZM451.5,49.01c-.92.17-1.57,1.04-2.11,1.71-.68.84-4.58,7.61-4.82,8.46-.45,1.6.02,3.18,1.71,3.66,3.15.89,3.55-5.03,6.15-5.67s4.44,5.16,7.65,3.49c1.44-.75,1.83-2.18,1.02-3.58-.3-.52-6.73-6.89-7.42-7.38-.76-.53-1.18-.88-2.19-.7ZM431.01,61.76c.65-.65.47-1.69.18-2.45-.33-.87-4.95-8.13-5.61-8.81-1.1-1.14-2.29-.89-3.47.1-1.38,1.16-5.48,5.76-6.57,7.28-1.42,1.98-.39,3.87,2.01,3.15,1.77-.53,3.87-6.75,7.89-3.56,1.28,1.02,3.17,6.69,5.57,4.3ZM438.03,60.99c.61.59,1.73.64,2.37.09.54-.46,5.54-8.73,5.73-9.48.51-2.12-1.71-2.47-3.2-.89-.73.77-5.28,8.66-5.27,9.38,0,.26.19.73.38.91Z"/>
  <path class="cls-8" d="M124.85,302.83c.43-2.33.62-15.04,1.14-15.59.09-.09,2.51-.05,2.61.04l4.03,12.1,4.17-11.77c.57-.68,2.01-.3,2.85-.37l.76,15.59h-1.9c-.27-1.78-.22-12.56-.95-12.56l-3.98,12.56h-1.9l-3.98-12.94c-.67,4.13-.59,8.35-.95,12.94h-1.9Z"/>
  <path class="cls-5" d="M478.92,300.52l.76-14.8,2.7.23c1.47,3.78,2.54,7.67,3.75,11.54.04.13-.05.34.19.37l.19-.37c1.52-2.57,2.53-9.46,4.13-11.53.43-.55,1.99-.11,2.7-.24l.76,14.8c-.26.01-1.02.35-1.9.38v-.38c-.35-4.01-.12-8.14-.38-12.14-.02-.26.15-.77-.19-.76-.39,0-.09.52-.19.76-1.63,3.81-2.9,8.17-4.17,12.14v.38c-.63,0-1.27,0-1.9,0v-.38l-3.98-12.53-.95,12.53v.38c-.51,0-1.01,0-1.52,0v-.38Z"/>
  <path class="cls-9" d="M33.77,174.16v1.9h-7.4c-3.12,0-2.47,4.93.38,4.93h7.02v1.9h-7.78c-1.49,0-2.41,2.69-.94,3.97.19.17,1.96.96,2.08.96h6.64v1.9h-11.01c-.02-1.33-.41-2,1.14-2.09-1.33-1.42-2.05-3.04-1.09-4.89.25-.47,1.46-1.43,1.46-1.56,0-.22-2.04-1.45-1.88-3.75.09-1.32,1.49-3.27,2.83-3.27h8.54Z"/>
  <path class="cls-9" d="M211,174.54v1.9h-7.4c-1.28,0-2.76,2.61-1.32,3.98.16.15,1.97.95,2.08.95h6.64v1.9h-7.4c-.09,0-1.55.79-1.61.86-1.24,1.5.91,4.07,2.37,4.07h6.64v1.9h-11.01c-.16-1.34.08-1.97,1.52-1.9-2.31-2.38-2.05-4.68.38-6.82-2.09-.54-2.52-3.77-1.35-5.35.23-.31,1.69-1.49,1.92-1.49h8.54Z"/>
  <path class="cls-9" d="M377.6,276.99c-4.79-5.94,3.23-10.84,8.33-7,2.38,1.79,2.6,5.6.02,7.19.03.39,2.33-.5,1.52,2.09h-16.32c-.1-.54-.01-2.28.57-2.28h5.88ZM380.52,271c-2.97.68-3.55,5.2-.38,5.91,8.2,1.83,7.1-7.44.38-5.91Z"/>
  <path class="cls-9" d="M199.99,299c-.61-2.06.88-1.96,1.14-2.29.1-.12-1-1.48-1.12-2.09-1.85-9.8,16.05-7.32,10.23,2.1h5.31v2.28h-15.56ZM204.06,290.73c-3.37.77-3.11,5.41.32,5.97,7.26,1.18,6.65-7.56-.32-5.97Z"/>
  <path class="cls-9" d="M32.64,296.34h5.69c.1.54.01,2.28-.57,2.28h-14.99c-.5-.97.75-2.32.69-2.77-.05-.39-.82-1.19-.98-2.06-1.69-8.98,16.45-6.98,10.16,2.56ZM26.84,290.37c-3.6.66-3.33,5.4-.07,5.96,7.5,1.27,6.98-7.22.07-5.96Z"/>
  <path class="cls-9" d="M374.7,249.16c-1.67-1.66-2.14-4.06-2.41-6.31,2.84-.66,1.63,1.6,2.71,3.55.35.64,2.13,2.31,2.8,2.51,1.22.36-.05-1.68-.12-2.17-1.04-7.38,10.31-7.01,10.13-.32-.17,6.28-9.48,6.37-13.11,2.75ZM385.45,244.47c-1.35-1.67-6.08-1.26-6.23,1.66-.29,5.87,9.74,2.71,6.23-1.66Z"/>
  <path class="cls-9" d="M376.74,213.72c3.63-.61,10.89-.31,11.08,4.68.22,5.89-10.38,6.34-13.77,3.52s-1.27-7.53,2.69-8.2ZM378.27,215.63c-1.93.24-4.55.9-4.02,3.41.68,3.27,10.42,2.91,11.51.66,1.91-3.94-5.06-4.37-7.48-4.07Z"/>
  <path class="cls-8" d="M155.59,302.83l4.89-15.37c.34-.49,1.99-.19,2.66-.19l4.97,15.55h-2.28c-.14-1.08-1-4.78-1.18-4.93-.22-.19-5.47-.14-5.7.19-.5.71-1.03,3.33-1.1,4.74h-2.28ZM163.94,296.34l-2.08-6.83c-.54.83-2.43,6.48-2.09,6.83h4.17Z"/>
  <path class="cls-9" d="M27.32,261.06c-.77-1.16-3.87-2.72-4.36-3.8-.38-.84-.17-1.77-.19-2.65l4.67,3.75c.99-.39,5.69-4.79,6.33-4.12.7,2.98-2.35,3.64-4.14,5.15-2.9,2.44,3.88,1.4,4.15,1.68v2.28h-16.32v-2.28h9.87Z"/>
  <path class="cls-8" d="M476.64,300.52v.38c-.94-.02-1.78-.36-2.28-.38-.04-1.09-.72-4.47-1.69-4.58-.74-.09-4.35-.08-4.77.2-.51.34-1.18,3.57-1.5,4.38v.38c-.63,0-1.27.02-1.9,0v-.38c1.09-4.98,3.39-9.75,4.59-14.76.77-.05,2.27-.31,2.81.33l4.74,14.42ZM472.47,294.45l-.17-1.53-2.1-5.29-1.9,6.83h4.17Z"/>
  <path class="cls-8" d="M110.43,302.83l4.97-15.55c.67,0,2.32-.31,2.66.19l4.89,15.37h-2.28c.15-1.1-.99-4.79-1.19-4.92-.21-.14-4.46-.15-5.09-.08-1.08.13-1.46,3.48-1.69,4.99h-2.28ZM118.78,296.34l-.17-1.53-2.1-5.29-1.9,6.83h4.18Z"/>
  <path class="cls-9" d="M204.55,261.44c-1.64-2.27-5.4-3.1-4.55-6.45.61-.69,3.73,3.83,4.68,3.74l6.33-4.12c-.12.71.24,2.03-.08,2.58-.2.34-4.83,2.91-4.85,3.3,1.13,1.6,3.24.77,4.93.95v2.28h-15.94v-2.28h9.49Z"/>
  <path class="cls-8" d="M345.34,302.79c-.63,0-1.27,0-1.9,0-.32-.81-1-4.04-1.5-4.38-.87-.58-4.24.07-5.48-.2l-1.37,4.58c-.63,0-1.27,0-1.9,0l4.62-14.55c.46-.96,2.43-.98,2.91,0l4.62,14.55ZM341.17,296.72c.26-.26-1.25-5.12-1.54-5.85-.16-.4-.14-.92-.73-.97l-1.9,6.83h4.17Z"/>
  <path class="cls-5" d="M508.14,300.52c.85-.1,1.19.48,1.54-.56,1.57-4.76,2.98-9.58,4.77-14.26l2.47.25c1.18,4.83,3.67,9.32,4.51,14.19v.38c-.56,0-1.29,0-1.9,0-.14-.66-1-4.36-1.18-4.51-.34-.29-4.52.15-5.42-.06l-1.37,4.58c-1.08.02-2.44-.02-3.42,0ZM517.63,294.44l-2.27-6.83-1.9,6.83h4.17Z"/>
  <path class="cls-6" d="M355.59,289.51c-.02,4.42.01,8.86,0,13.28-1.51.01-3.04-.02-4.56,0v-13.28s4.55,0,4.55,0Z"/>
  <path class="cls-6" d="M532.05,287.24c-.02,4.42.01,8.86,0,13.28h-4.55v-13.28h4.55Z"/>
  <path class="cls-9" d="M374.56,196.93c.11.13,3.26.54,3.42.38-1.06-8.69,10.65-8.04,9.78.08-.17,1.58-.71,3.6-2.57,2.57,3.18-8.38-6.86-9.53-5.31-.38l-7.21-1.14v-7.21h1.9c.15.86-.21,5.44,0,5.69Z"/>
  <rect class="cls-15" x="173.81" y="289.13" width="4.55" height="13.7"/>
  <path class="cls-9" d="M387.46,225.39v9.49c-2.59-.06-4.25-3.36-6.27-4.92-1.91-1.48-6.11-3.58-6.84-.01-.36,1.77,1.88,4.56.02,4.57-2.17,0-3.61-7.97,1.55-8.72,4.03-.59,6.91,3.4,9.65,5.67v-6.07h1.9Z"/>
  <path class="cls-9" d="M387.46,202.24v9.49c-2.59-.06-4.25-3.36-6.27-4.92-1.91-1.48-6.11-3.58-6.84-.01-.36,1.77,1.88,4.56.02,4.57-2.17,0-3.61-7.97,1.55-8.72,4.03-.59,6.91,3.4,9.65,5.67v-6.07h1.9Z"/>
  <path class="cls-9" d="M387.46,253.47v9.49c-3-.22-4.84-4.21-7.23-5.86-1.47-1.01-3.55-1.87-5.11-.6-2.41,1.96.71,5.24.2,5.7-2.08.73-2.78-1.66-2.95-3.33-.19-1.84.83-4.47,2.84-4.93,4.65-1.06,7.46,2.77,10.36,5.61v-6.07h1.9Z"/>
  <path class="cls-9" d="M201.26,277.5c3.2-3.17,9.76-1.41,10.13,3.48.61,8.12-13.42,8-11.31-1.44.1-.45.85-1.71,1.19-2.04ZM204.84,278.21c-5.12.75-4.26,7.13,1.77,6.33,4.97-.66,3.5-7.1-1.77-6.33Z"/>
  <path class="cls-9" d="M27.62,275.55c8.25-.66,8.58,12.03-.46,10.89-6.37-.8-6.48-10.33.46-10.89ZM24.78,279c-3.05,3.57,3.11,7.22,6.36,4.27,4.17-3.78-3.53-7.58-6.36-4.27Z"/>
  <path class="cls-9" d="M206.07,192.38v7.59c5.15.74,2.71-6.52,3.04-6.83.35-.32,1.47.03,1.83.63,1.68,2.73-.05,7.45-3.34,8.3-8.87,2.27-11.09-10.54-1.53-9.69ZM204.55,194.65c-4.35-.51-3.96,5.43,0,5.31v-5.31Z"/>
  <path class="cls-9" d="M33.77,204.14v2.28h-7.78c-1.16,0-2.07,2.22-1.52,3.41.09.19,1.41,1.53,1.52,1.53h7.78v2.28h-11.01c-.02-1.33-.41-2,1.14-2.09-2.79-1.83-1.27-7.4,1.71-7.4h8.16Z"/>
  <path class="cls-9" d="M211,204.52v2.28h-7.78c-1.59,0-2.01,4.93.38,4.93h7.4v2.28h-11.01c-.03-1.75-.43-2.13,1.52-1.9-1.7-1.5-2.32-4.82-.58-6.46.21-.19,1.8-1.13,1.91-1.13h8.16Z"/>
  <path class="cls-9" d="M206.07,243.98v7.59c4.1.12,3.72-3.85,3.04-6.83.44.08,1.7-.15,1.88.02.32.31.47,4.26.31,5.02-1.12,5.38-10.24,5.1-11.21.38-.91-4.43,1.74-6.59,5.98-6.17ZM204.55,245.88c-4.16.22-4.16,5.47,0,5.69v-5.69Z"/>
  <path class="cls-9" d="M28.46,192v7.59c4.07.22,4.03-3.79,3.42-6.83,1.8-.33,1.8.5,1.91,2.07.21,2.91-.06,5.68-3.22,6.68-8.96,2.85-11.83-9.89-2.11-9.51ZM26.94,194.27c-4.1-.35-3.81,5.29,0,5.31v-5.31Z"/>
  <path class="cls-7" d="M455.39,300.52c-5.88-2.58-5.4-12.18.49-14.49,1.96-.77,7.13-1.58,6.71,1.59-1.56-.27-3.1-.58-4.71-.34-6.31.91-6.01,11.67.74,12.12,1.29.09,2.28-.42,3.4-.41s.42.99.57,1.53c-2.81.42-4.22,1.31-7.21,0Z"/>
  <path class="cls-9" d="M382.53,281.55v7.59c3.76-.3,3.84-3.85,3.04-6.83,2.74-.61,2.44,4.03,1.8,5.78-1.62,4.4-8.87,4.26-10.67.25s1.61-7.54,5.84-6.79ZM381.01,283.44c-4.46-.26-4.36,5.86,0,5.69v-5.69Z"/>
  <path class="cls-8" d="M101.7,302.83c-6.67-3.81-5.22-14.85,2.45-15.61,1.61-.16,5.54-.49,4.76,1.91-6.12-1.54-10.35,1.56-9.02,8.07.8,3.91,5.68,4.28,8.83,3.31l.2,2.32h-7.21Z"/>
  <path class="cls-9" d="M33.77,162.78c.62,2.05-.89,1.97-1.14,2.28-.13.16.71.86.85,1.23,2.11,5.61-4.4,7.57-6.35,2.94-.56-1.33-.45-2.81-.76-4.18-3.02.63-2.08,3.39-1.71,5.69-2.01.72-2.43-2.46-2.29-3.98.51-5.85,7.66-2.6,11.4-3.98ZM28.93,169.14c.76.76,2.86.73,3.25-.56.77-2.53-1.89-4.06-4.1-3.53-.32.33.38,3.62.85,4.08Z"/>
  <path class="cls-8" d="M146.48,302.83c-3.08-2.93-4.18-4.85-3.81-8.97.47-5.25,4.53-6.98,9.33-6.64.94.07,2.88.21,1.9,1.55-.59.8-2.96-.11-4.15,0-6.46.64-6.9,11.13-.78,12.09,2.18.34,5.61-1.39,5.1,1.96h-7.59Z"/>
  <path class="cls-9" d="M28.46,243.6v7.59c4.13,0,4.02-3.68,3.42-6.83,1.62-.25,1.75.2,1.9,1.7.34,3.54-.25,6.45-4.15,7.23-8.36,1.68-10.46-10.58-1.16-9.7ZM26.94,245.5c-4.1.27-3.91,5.5,0,5.69v-5.69Z"/>
  <path class="cls-9" d="M211,163.16c.72,1.81-.78,2.31-.76,2.46.05.31.82,1.32.97,2.08,1.01,4.87-4.95,6.29-6.59,2.03-.56-1.45-.17-5.02-2.36-3.72-1.83,1.08.21,4.95,0,5.12-.47-.08-1.6.18-1.86-.04-.4-.34-.52-3.94-.4-4.68.77-4.7,7.82-1.99,10.98-3.24ZM209.39,169.52c1.89-1.85-1.71-5.17-4.08-4.08-.25,2.11,1.68,6.43,4.08,4.08Z"/>
  <path class="cls-5" d="M500.55,300.52c-5.94-2.92-5.6-12.43.77-14.6,1.64-.56,4.2-.95,5.79-.12,1.16.61.93,1.7-.48,1.65-1.29-.04-2.54-.42-3.97-.2-5.73.91-5.94,11.19.39,12.08,1.7.24,2.73-.28,4.15-.35,1.05-.05.43.93.57,1.52-2.3.05-4.79.38-7.21.38v-.38Z"/>
  <polygon class="cls-10" points="178.36 287.24 178.36 289.13 173.81 289.13 173.81 302.83 171.53 302.83 171.53 289.13 166.98 289.14 166.98 287.24 178.36 287.24"/>
  <path class="cls-9" d="M377.98,296.72c-.35.37.93,2.03-1.52,1.52.3-2.25-.41-1.22-1.92-1.69-2.97-.91-3.72-2.42-3.4-5.52,3.13-.5,1.19.99,2.25,2.5.58.83,2.12,1.02,3.06.92.14-1.8-.77-3.08,1.52-2.66.14.14-.13,2.66,0,2.66h9.49v2.28c-1.24.26-9.16-.35-9.49,0Z"/>
  <path class="cls-8" d="M355.59,287.62c0,.63,0,1.26,0,1.9h-4.56s0,13.28,0,13.28c-.63,0-1.27,0-1.9,0v-13.28s-4.56,0-4.56,0v-1.9s11.01,0,11.01,0Z"/>
  <path class="cls-5" d="M532.05,285.72c0,.51,0,1.01,0,1.52h-4.55v13.28h4.55c-1.82.69-4.41.39-6.45.38v-13.66c-.76-.13-4.76.18-4.94,0-.05-.05-.05-1.46,0-1.51.39-.41,9.92.31,11.39,0Z"/>
  <path class="cls-9" d="M201.89,241.33c-.12.13.13,1.39,0,1.52-.07.07-1.84.07-1.9,0-.13-.13.14-1.39,0-1.52-.58-.62-2.6,1.51-3.02-1.73-.16-1.22,2.67-.18,3.02-.54.24-.25-.64-3.04.95-3.04s.7,2.8.95,3.04,6.03.08,6.57-.08c1.13-.33,1.09-1.61,1.03-2.58,3.46-.59,1.89,4.94-.57,4.94-.98,0-6.78-.26-7.02,0Z"/>
  <path class="cls-9" d="M24.67,265.62c.08.12-.47,1.96-.4,2.84.36,4.35,7.54,4.57,7.91-.09.12-1.52-1.38-2.96,1.22-3.14,3.65,12.01-13.87,11.61-10.62,0,.14-.12,1.84.31,1.9.39Z"/>
  <path class="cls-9" d="M201.84,266.04c.35.56-.31,1.91-.25,2.71.37,4.72,7.65,4.34,7.91.08.05-.75-.54-2.63-.4-2.82.05-.07,1.21-.46,1.52-.24s.57,1.22.65,1.64c1.88,10.33-14.87,8.8-10.91-1.8.13-.09,1.39.32,1.46.43Z"/>
  <path class="cls-9" d="M31.31,238.67c1.31-.41-.68-3.58,2.47-2.66-.07,1.71.53,3.31-1.17,4.33-1.92,1.15-8.03.29-8.32.6-.11.12.08,1.16,0,1.52-2.44.51-1.16-1.16-1.51-1.52s-3.88,1.07-3.04-2.27c3.04.04,3.33.67,3.04-2.66,2.39-1.05,1.31,2.66,1.52,2.66,1.47,0,6.05.3,7.02,0Z"/>
  <path class="cls-9" d="M201.89,221.6c.43.43-1.58,3.8,1.39,5.63,4.07,2.51,7.63-1.35,5.83-5.63,2.48-.79,2.5,2,2.24,3.95-.8,6.06-10.23,5.78-11.26.7-.34-1.68-.68-5.37,1.81-4.65Z"/>
  <path class="cls-9" d="M24.67,221.22c-2.81,8.59,9.62,8.55,7.21,0,2.27-.67,2.06,2.31,1.89,3.98-.66,6.46-11.2,5.94-11.42-1.14-.06-1.91.15-3.4,2.31-2.84Z"/>
  <path class="cls-7" d="M487.65,67.92c-.07,0-.59.4-1.28.41-30.69.17-61.39-.19-92.07-.03l91.84-.76c.49.16.93.47,1.52.38Z"/>
  <path class="cls-6" d="M138.52,302.83h-4.93l3.98-12.56c.73,0,.68,10.78.95,12.56Z"/>
  <path class="cls-6" d="M343.44,302.79c-2.78.01-5.57-.04-8.35,0l1.37-4.58c1.24.27,4.61-.38,5.48.2.51.34,1.18,3.57,1.5,4.38Z"/>
  <path class="cls-6" d="M131.68,302.83h-4.93c.36-4.59.28-8.81.95-12.94l3.98,12.94Z"/>
  <path class="cls-6" d="M112.71,302.83c.23-1.51.61-4.87,1.69-4.99.63-.07,4.87-.06,5.09.08.2.13,1.34,3.82,1.19,4.92h-7.97Z"/>
  <path class="cls-6" d="M157.87,302.83c.06-1.42.6-4.03,1.1-4.74.23-.32,5.48-.37,5.7-.19.18.15,1.03,3.85,1.18,4.93h-7.97Z"/>
  <path class="cls-15" d="M511.56,300.52l1.37-4.58c.91.21,5.08-.23,5.42.06.18.15,1.03,3.85,1.18,4.51-.13,0-.25,0-.38,0-2.4-.02-4.82-.04-7.21,0-.13,0-.25,0-.38,0Z"/>
  <path class="cls-15" d="M466.4,300.52c.32-.81,1-4.04,1.5-4.38.42-.28,4.03-.29,4.77-.2.98.11,1.66,3.49,1.69,4.58-.13,0-.25,0-.38,0-2.52-.1-5.07.07-7.59,0Z"/>
  <rect class="cls-9" x="22.77" y="216.66" width="11.01" height="2.28"/>
  <rect class="cls-9" x="199.99" y="217.04" width="11.01" height="2.28"/>
  <path class="cls-7" d="M454.63,300.52l-60.11.39-.23-.77c.63.43,1.35.37,2.07.4,19.2.58,39.01-.02,58.27-.02Z"/>
  <path class="cls-7" d="M446.27,14.43c.21.18.37,1.3,1.16,1.32-1.47.54-1.19,1.47-1.14,2.85,1.89.32.92-2.29,3.41-1.9l-1.89-.38c-.1-1.08.88-1.29,1.7-1.15,1.69.28,1.34,3.01,1.34,4.19-1.06-.18-4.65.4-5.15-.36.27-.94-.78-3-.78-3.26,0-.28.82-1.77,1.37-1.31ZM448.56,17.45v1.14s1.13,0,1.13,0v-1.14s-1.13,0-1.13,0Z"/>
  <path class="cls-7" d="M383.29,9.87h-1.14c-.12-.58.24-2.96-.19-3.04-1.76-.31-.67,2-.95,3.04h-1.14c-.11-.56.24-2.98-.19-3.04-2.46-.33-.31,3.21-2.08,3.04v-4.17c3.83.38,6.46-1.22,5.69,4.18Z"/>
  <path class="cls-7" d="M421.24,10.62c-.77-.02-2.44,1.39-3.79.76-.3-1.56,2.45.04,2.27-1.89-3.07,1.77-3.86-3.65-.96-3.74,3.68-.12,1.25,2.26,2.48,4.5v.38ZM418.4,6.45c-.98.3-.86,3.15.75,2.65.98-.3.86-3.15-.75-2.65Z"/>
  <path class="cls-7" d="M451.58,6.09c.06,3.05.73,6.02-3.39,5.29l2.28-1.51c-4.46.33-3.24-5.67,1.12-3.78ZM450.42,9.07c.68-.43.38-2.78-.86-2.59-1.74.26-.97,3.76.86,2.59Z"/>
  <path class="cls-9" d="M390.12,240.19c-.18.2-5.01-1.06-5.23-1.21-.32-.22-.61-2.05-.46-2.2,1.21-.24,7.16,1.72,5.69,3.41Z"/>
  <path class="cls-7" d="M420.86,13.66v5.69c-4.92,1.39-4.95-5.09-.76-3.79.3-.38-.65-2.28.76-1.9ZM418.78,15.94c-.98.3-.86,3.15.75,2.65.98-.3.86-3.15-.75-2.65Z"/>
  <path class="cls-7" d="M451.6,13.66h1.14s0,2.66,0,2.66c3.73-2.68.85.21.78.62-.02.15,2.2,3.12.55,2.41-.71-.3-.66-1.43-1.33-1.51.02,1.31.34,1.74-1.14,1.52v-5.69Z"/>
  <path class="cls-7" d="M447.5,7.86c0,1.19-.96,2.15-2.15,2.15s-2.15-.96-2.15-2.15.96-2.15,2.15-2.15,2.15.96,2.15,2.15ZM444.96,6.45c-.98.3-.86,3.15.75,2.65.98-.3.86-3.15-.75-2.65Z"/>
  <path class="cls-7" d="M456.23,7.86c0,1.19-.96,2.15-2.15,2.15s-2.15-.96-2.15-2.15.96-2.15,2.15-2.15,2.15.96,2.15,2.15ZM453.69,6.45c-.98.3-.86,3.15.75,2.65.98-.3.86-3.15-.75-2.65Z"/>
  <path class="cls-7" d="M374.18,15.94s-.17-.69.24-.78c2.68-.58,3.71,3.59-.24,2.68l2.27,1.51c-2.06.38-4.19-.33-3.36-2.8.21-.64.95-.49,1.09-.61h0Z"/>
  <path class="cls-7" d="M431.01,6.17c.35.35.63,1.37.31,1.82l-2.49.55,2.27,1.33c-5.91,1.18-2.77-6.35-.09-3.7ZM430.72,7.59c.03-1.56-1.93-1.56-1.89,0h1.89Z"/>
  <path class="cls-7" d="M458.33,15.65c.35.35.63,1.37.31,1.82l-2.49.55,2.27,1.33c-5.91,1.18-2.77-6.35-.09-3.7ZM458.05,17.07c.03-1.56-1.93-1.56-1.89,0h1.89Z"/>
  <path class="cls-7" d="M407.58,8.35c-.53.11-2.14-.25-2.28.19-.4,1.31,2.78-.28,2.28,1.32-1.31.03-3.16.35-3.42-1.35-.56-3.68,4-3.89,3.42-.17ZM406.82,7.59c.03-1.56-1.93-1.56-1.89,0h1.89Z"/>
  <path class="cls-7" d="M400.69,6.13c.28.45-.13,2.86.43,3.74-3.69.91-5.12-2.32-1.14-2.66l-1.89-.94c.32-.88,2.37-.52,2.6-.14ZM399.99,7.97h-1.14s0,1.14,0,1.14h1.14s0-1.14,0-1.14Z"/>
  <path class="cls-7" d="M387.47,17.83c-.53.11-2.14-.25-2.28.19-.4,1.31,2.78-.28,2.28,1.32-1.31.03-3.16.35-3.42-1.35-.56-3.68,4-3.89,3.42-.17ZM386.7,17.07c.03-1.56-1.93-1.56-1.89,0h1.89Z"/>
  <path class="cls-7" d="M387.47,8.35h-2.66c.37,1.5,2.96-.06,2.65,1.52-1.37.02-3.07.39-3.41-1.34-.71-3.67,4.03-3.9,3.41-.18ZM386.7,7.59c.03-1.56-1.93-1.56-1.89,0h1.89Z"/>
  <path class="cls-7" d="M376.41,6.13c.28.45-.13,2.86.43,3.74-3.69.91-5.12-2.32-1.14-2.66l-1.89-.94c.32-.88,2.37-.52,2.6-.14ZM374.56,7.97v1.14s1.13,0,1.13,0v-1.14s-1.13,0-1.13,0Z"/>
  <path class="cls-7" d="M393.54,9.87c-3.27.86-4.69-2.49-1.14-2.66l-1.9-.76c2.64-2.4,3.47.95,3.04,3.42ZM392.77,7.97h-1.51s0,1.13,0,1.13c.7.09,1.11.02,1.51-.57v-.56Z"/>
  <path class="cls-7" d="M398.85,19.35h-1.14c-.21-1.69.91-3.55-1.52-3.04-.12.12.33,4.46-.76,3.04.11-2.12-.89-4.5,2.09-4.18,1.62.17,1.36,3.01,1.32,4.19Z"/>
  <path class="cls-7" d="M401.03,15.24c3.12-.58,3.34,5.16-.4,4.04-1.48-.45-1.67-3.66.4-4.04ZM402.22,18.55c.8-.5.28-3.06-1.28-2.61-1.35.39-.46,3.7,1.28,2.61Z"/>
  <path class="cls-7" d="M427.31,19.35c-3.63.84-4.39-2.54-.76-2.66l-1.9-.76c2.42-2.39,3.02,1.27,2.66,3.42ZM426.55,17.46c-.25-.23-1.33.08-1.51.57-.5,1.32,2.28.14,1.51-.57Z"/>
  <path class="cls-7" d="M416.3,9.86c-1.69.31.17-3.04-1.71-3.04s-.02,3.35-1.71,3.04c.16-2.38-1.01-4.28,2.11-4.14,1.8.08,1.26,2.9,1.3,4.14Z"/>
  <path class="cls-7" d="M429.97,15.56c.67-1.75,2.68-.97,2.67.19,0,.63-1.23.53-.78,2.6.09.4,1.12-.02.76,1-2.6.33-1.6-1.25-1.97-2.79-.11-.46-.67-.58-.68-.63-.04-.11.05-.28,0-.38Z"/>
  <path class="cls-7" d="M402.94,5.05c.3.14.97,1.12.85,1.58-.03.13-1.23.13-.77,2.23.09.4,1.12-.02.76,1-2.49.28-1.62-.96-1.92-2.45-.1-.49-.6-.94-.6-1.16,0-.63.8-1.62,1.67-1.21Z"/>
  <path class="cls-7" d="M436.33,5.05c.3.14.97,1.12.85,1.58-.03.13-1.23.13-.77,2.23.09.4,1.12-.02.76,1-2.41,1.26-2.38-4.59-1.88-4.92.37-.05.68-.06,1.04.11Z"/>
  <path class="cls-7" d="M390.5,15.18l-1.51,1.33c3.45,1,1.38,4.59-1.14,2.09,4.37-.04.53-1.04.43-1.2-.92-1.54.76-2.52,2.22-2.22Z"/>
  <path class="cls-7" d="M434.14,5.69l-1.13,1.32c2.61,1.47,1.87,3.31-1.14,2.85l1.9-.76c-2.04-1.46-3.06-3.25.38-3.41Z"/>
  <path class="cls-7" d="M372.28,15.18l-1.13,1.32c2.61,1.47,1.87,3.31-1.14,2.85l1.9-.76c-2.04-1.46-3.06-3.25.38-3.41Z"/>
  <circle class="cls-9" cx="386.19" cy="265.82" r="1.47"/>
  <path class="cls-9" d="M465.64,14.04v5.31h-1.14c-.29-1.43.76-3.87-.77-4.36-.26-.83,1.37-.94,1.9-.95Z"/>
  <path class="cls-9" d="M411.75,14.04v5.31h-1.14c-.29-1.43.76-3.87-.77-4.36-.26-.83,1.37-.94,1.9-.95Z"/>
  <path class="cls-7" d="M373.04,5.69c.26,1.26-1.17.63-1.8,1.23-.22.21-.46.88-.4,1.18l2.2,1.76c-4.38.81-3.97-4.67,0-4.17Z"/>
  <rect class="cls-7" x="441.73" y="4.17" width="1.14" height="5.69"/>
  <path class="cls-7" d="M397.33,5.69c.26,1.26-1.17.63-1.8,1.23-.22.21-.46.88-.4,1.18l2.2,1.76c-4.38.81-3.97-4.67,0-4.17Z"/>
  <path class="cls-9" d="M429.97,15.94c-1.69.5.22,3.64-1.52,3.41.27-1.86-1.5-6.38,1.9-5.5.24,1.08-1.29-.15-.38,1.7.05.1-.04.27,0,.38Z"/>
  <path class="cls-7" d="M382.99,16.39c-.35.63.07,2.16-.09,2.96h-1.14c.29-2.1-1.15-5.19,1.9-3.99.87.7-.52.73-.68,1.03Z"/>
  <path class="cls-7" d="M409.56,6.9c-.35.63.07,2.16-.09,2.96h-1.14c.29-2.1-1.15-5.19,1.9-3.99.87.7-.52.73-.68,1.03Z"/>
  <rect class="cls-9" x="195.98" y="216.84" width="2.34" height="2.68" transform="translate(-30.87 403.86) rotate(-87.06)"/>
  <path class="cls-7" d="M426.54,4.94c.13.11.21,1.29,1.15,1.14-.12.73-.91.21-1.15,1.32-.08.37-.08,1.09,0,1.47.05.21,1.51.41.76,1-.29.23-1.28,0-1.46-.63-.16-.56.04-1.24-.08-1.82-.1-.49-.6-.94-.6-1.16,0-.28.82-1.77,1.37-1.31Z"/>
  <path class="cls-7" d="M379.49,15.18c.28,1-1.01.88-1.14,1.4-.15.57.17,2.62,0,2.77h-1.14c.12-.68-.19-3.57.02-3.77.08-.08,1.83-.21,2.25-.4Z"/>
  <path class="cls-7" d="M439.45,14.04v5.31c-.89.05-.67.13-.76-.56-.21-1.64.83-3.79-1.14-3.81-.31-.81,1.44-.96,1.9-.94Z"/>
  <path class="cls-5" d="M18.6,216.66c.6.01,1.74-.18,2.11.35,1.39,1.95-2.85,3.32-2.11-.35Z"/>
  <path class="cls-7" d="M381.01,19.35h-1.14c-.45-5.41,1.59-5.41,1.14,0Z"/>
  <path class="cls-7" d="M423.89,15.18c.72.82-.95,1.36-1.08,1.75-.32.92.57,2.72-.81,2.42.15-.73-.24-3.42.05-3.74.06-.07,1.78-.5,1.85-.43Z"/>
  <path class="cls-7" d="M390.12,5.69c.72.82-.95,1.36-1.08,1.75-.32.92.57,2.72-.81,2.42.15-.73-.24-3.42.05-3.74.06-.07,1.78-.5,1.85-.43Z"/>
  <rect class="cls-4" x="414.6" y="18.02" width=".76" height="4.18" transform="translate(394.73 435.08) rotate(-89.98)"/>
  <rect class="cls-4" x="406.63" y="18.02" width=".76" height="4.18" transform="translate(386.76 427.11) rotate(-89.98)"/>
  <rect class="cls-4" x="392.59" y="18.02" width=".76" height="4.18" transform="translate(372.73 413.07) rotate(-89.98)"/>
  <rect class="cls-4" x="460.52" y="18.02" width=".76" height="4.18" transform="translate(440.63 481) rotate(-89.98)"/>
  <rect class="cls-4" x="439.07" y="8.72" width=".76" height="3.8" transform="translate(428.67 450.07) rotate(-89.98)"/>
  <rect class="cls-4" x="442.49" y="18.21" width=".76" height="3.8" transform="translate(422.6 462.97) rotate(-89.98)"/>
  <rect class="cls-4" x="434.52" y="18.21" width=".76" height="3.8" transform="translate(414.63 455) rotate(-89.98)"/>
  <path class="cls-4" d="M421.24,10.24c.82.03,1.64-.04,2.46,0,.51.03,1.59-.32,1.33.57-.23.79-3.45-.18-3.8-.19v-.38Z"/>
  <path class="cls-7" d="M473.99,300.52c-2.28.69-5.17.4-7.59.38v-.38c2.52.07,5.07-.1,7.59,0Z"/>
  <rect class="cls-7" x="409.47" y="7.59" width="3.8" height=".76" transform="translate(403.25 419.34) rotate(-89.98)"/>
  <path class="cls-5" d="M519.15,300.52c-2.07.64-5.17.64-7.21,0,2.39-.04,4.82-.02,7.21,0Z"/>
  <path class="cls-7" d="M500.55,300.52v.38c-1.8,0-4.13.32-5.69-.38,1.88-.09,3.81.07,5.69,0Z"/>
  <path class="cls-7" d="M485.37,300.52v.38c-1.64,0-3.29.02-4.93,0v-.38h4.93Z"/>
  <path class="cls-7" d="M492.2,300.52v.38c-1.64.05-3.29-.02-4.93,0v-.38h4.93Z"/>
  <path class="cls-7" d="M404.92,19.35c-.64.57-1.71-.48-1.13-1.13.36-.41,1.54.77,1.13,1.13Z"/>
  <path class="cls-7" d="M478.92,300.52v.38c-.76-.01-1.52.02-2.28,0v-.38h2.28Z"/>
  <path class="cls-5" d="M524.84,300.9c-.72-.01-1.86.26-2.28-.38.7-.02,1.88-.23,2.28.38Z"/>
  <circle class="cls-7" cx="411.38" cy="4.92" r=".47"/>
  <circle class="cls-7" cx="380.26" cy="14.41" r=".47"/>
  <path class="cls-7" d="M464.5,300.52v.38c-.42-.02-.96.11-1.14-.38.38-.01.76,0,1.14,0Z"/>
  <polygon class="cls-10" points="178.36 70.2 177.98 69.82 178.36 69.82 178.36 70.2"/>
  <path class="cls-8" d="M521.8,300.52c-.13,0-.25,0-.38,0v-.38l.38.38Z"/>
  <path class="cls-5" d="M494.1,21.25c3.73,1.67,7.01,2.3,10.6-.22,5.58-3.91,4.69-11.79-.73-15.34,2.31-.66,4.68-.24,7.04-.37,5.64-.3,11.4-1.04,17.05-1.17,6.05-.14,11.33-1,11.98,6.64.29,3.37.38,13.94-.76,16.72-.83,2.02-2.49,3.16-4.55,3.8l-36.18.08c-4.59-1.54-4.7-5.99-4.45-10.16Z"/>
  <path class="cls-14" d="M528.26,34.91c-1.6,6.35,4.64,5.02,8.24,6.75,3.28,1.58,2.64,7.04-1.2,7.32-2.38.17-11.62-2.34-14.25-3.25-6.64-2.29-4.44-6.26-1.33-10.82h8.54Z"/>
  <path class="cls-3" d="M525.51,50.17c.53.44.5,2.01.44,2.71-.15,1.57-2.11,8.28-2.81,9.73-1.24,2.54-4.52,1.92-4.77-.56s2.79-6.87-1-7.71c-1.97-.43-7.67.7-6.4-3.51.74-2.45,3.02-1.48,4.57-1.49,2,0,8.64-.3,9.98.83Z"/>
  <path class="cls-14" d="M506.48,34.96c.71-.25,5.23-.18,5.65.32.25.3,1.31,3.82,1.34,4.38.29,4.82-6.09,3.45-9.33,3.58-2.59.1-8.35,1.95-8.17-2.44s6.85-.92,9.34-3.97c.47-.57.6-1.67,1.17-1.87Z"/>
  <circle class="cls-3" cx="499.52" cy="13.69" r="5.69"/>
  <path class="cls-3" d="M501.59,50.53c.66-.14,1.28-.18,1.84.29,1.04,1.89,7.34,7.68,7.34,9.32s-1.6,2.11-3,1.51c-1.78-.76-2.35-4.47-5.48-4.33-3.53.15-4.36,6.18-6.78,5.61-1.66-.39-1.51-2.26-.97-3.49.4-.9,4.51-6.83,5.25-7.64.49-.53,1.06-1.11,1.79-1.26Z"/>
  <path class="cls-3" d="M483.75,48.63c1.11-.33,2.73.48,2.76,1.63.04,1.68-3.78,4.08-3.34,6.74.67,4.09,7.89,2.47,6.69,6.47-.4,1.34-1.91,1.09-2.97.84-1.23-.29-7.96-2.91-8.99-3.53-1.15-.7-1.44-1.08-1.25-2.51.13-.93,6.35-9.42,7.09-9.64Z"/>
  <path class="cls-8" d="M302.46,302.79l.76-15.18c.85.08,2.28-.31,2.85.38.72.87,2.92,8.81,3.5,10.56.14.43-.1,1.07.66.83.59-.18,3.15-10.32,4.03-11.72.48-.04,2.52-.14,2.61-.05.52.55.68,13.34.76,15.18-.63,0-1.27,0-1.9,0l-.57-12.53-4.36,12.53c-.63,0-1.27,0-1.9,0l-3.98-12.53-.57,12.53c-.63,0-1.27,0-1.9,0Z"/>
  <path class="cls-8" d="M300.18,302.79c-.63,0-1.27,0-1.9,0-.42-.93-.81-3.56-1.32-4.18-.46-.55-4.97-.57-5.52-.2-.51.34-1.18,3.57-1.5,4.38-.63,0-1.27,0-1.9,0,.57-1.86,4.26-14.56,4.92-15,.61-.4,2.33-.39,2.61.45l4.62,14.55ZM294.49,289.89c-1-.11-.6.02-.76.56-.63,2.09-1.23,4.19-1.89,6.27h4.55l-1.9-6.83Z"/>
  <path class="cls-6" d="M315.74,302.79c-1.64,0-3.29,0-4.93,0l4.36-12.53.57,12.53Z"/>
  <path class="cls-6" d="M298.28,302.79c-2.78,0-5.57,0-8.35,0,.32-.81,1-4.04,1.5-4.38.56-.37,5.06-.35,5.52.2.51.62.91,3.25,1.32,4.18Z"/>
  <path class="cls-6" d="M308.91,302.79c-1.51,0-3.04,0-4.55,0l.57-12.53,3.98,12.53Z"/>
  <path class="cls-2" d="M114.04,110.04c6.75.8,10.05,5.37,14.41,9.5,8.24,7.79,16.34,15.78,24.29,23.9,5.99,6.12,9.52,11.3,7.69,20.57-2.54,12.81-15.16,17.72-25.32,23.44-.46.62,2.94,2.48,3.59,3.04,2.28,1.95,4.11,4.33,5.58,6.94,3.56,15.42,9.32,32.08,11.97,47.61,2.05,12.01-4.76,22.13-16.2,25.69-5.4,1.68-10.4,0-14.91,1.03-2.91.66-7.77,5.06-11.85,4.47-15.04.23-30.56,2.78-45.52,3.06-24.31.45-33.22-30.44-12.99-42.2,6.28-3.65,10.74-2.73,17.51-3.36,3.8-.35,5.21-3.01,8.58-4.4-2.59-8.73-7.37-16.98-4.21-26.33-15.24,4.33-28.12-7.98-28.49-22.96,1.73-13.84,1.93-27.88,3.44-41.73.55-5,.94-8.32,3.64-12.68,2.96-4.79,7.86-8.48,13.44-9.52-7.32-10.58-3.68-25.7,7.98-31.29,16.95-8.14,34.63,7.53,29.79,25.23-.36.74.35,0,.38,0,2.21,0,5.12-.25,7.21,0ZM82.54,121.42c2.03.27,4.55-.2,6.64,0-1.44-1.99-2.97-.07-5.33-.55-7.83-1.59-5.62-13.98,3.44-11.41.61.17.99.88,1.68.92,1.7.09,2.04-1.14,4.75-.14,3.28,1.21,3.85,3.81,3.99,7.01,15.58-13.72-1.12-38.71-19.8-29.28-15.1,7.62-11.11,31.34,4.62,33.46ZM87.64,115.01c0-1.46-1.18-2.64-2.64-2.64s-2.64,1.18-2.64,2.64,1.18,2.64,2.64,2.64,2.64-1.18,2.64-2.64ZM90.7,113.08c.94,2.13-2,6.37,1.91,5.14,3-.94,1.47-6.08-1.91-5.14ZM132.82,184.79c.68.07,1.2-.4,1.77-.7,11.05-5.78,25.93-13.38,22.28-28.46-1.3-5.37-3.69-6.76-7.17-10.29-8.44-8.56-18.34-19.77-27.3-27.34-4.5-3.8-8.85-5.19-14.81-4.55-4.32.47-4.26,3.34-7.01,5.89s-7.27,3.4-7.23,7.97c0,.36,1.03,3.46,1.19,3.57.39.28,1.49-.3,2.06-.28,4.12.22,5.44,2.21,8.36,4.47l27.91,1.69c3.71,1.07,6.48,4.08,6.82,7.97.32,3.54.4,15.74-.82,18.57-1.03,2.39-2.08,2.73-3.9,4.07-2.57,1.9,2.39,3.5,3.31,4.61,2.52,3.02,1.6,7.59-1.93,9.29-2.07.99-3,.23-3.51,3.51ZM104.28,168.18c-.69-.4-5.88.06-7.32-.09-12.31-1.25-8.54-17.2-8.67-25.55-.04-2.7-1.24-2.99.18-6.45s3.71-2.41,1.8-6.83c-.43-.99-2.28-4.05-3.26-4.33-1.14-.33-2.76.06-4.05-.13-2.86-.41-5.87-1.57-8.33-3.06-2.83-1.7-2.13-3.19-6.12-2.19-6.56,1.66-11.92,8.11-13.01,14.69-.25,14.84-3.91,31.18-3.91,45.83,0,12.08,9.69,21.44,21.83,20.28,14.25-1.37,29.81-6.71,44.3-8.07,5.4-1.34,10.33-5.34,12.44-10.52l-9.22-.69c-4.57,1.32-11.9,5.62-16.4,6-7.74.66-10.79-9.23-4.49-13.22,1.75-1.11,4.29-1.47,6.2-2.34.18-.24-1.81-3.23-1.98-3.33ZM98.67,134.7c-1.49-1.73-4.79-.59-6.06.96,2.01-.54,3.92-1.27,6.06-.96ZM96.68,137.81c-3.19.75-4.79,2.63-5.18,5.85s-.48,12.92-.02,15.87c.37,2.38,3.07,4.86,5.47,5.16,11.03-.98,23.34,1.43,34.18.39,2.57-.25,4.8-2.13,5.11-4.75.39-3.21.39-12.36,0-15.57-.55-4.6-4.94-4.78-8.55-5.11-10.28-.95-20.73-.79-31.01-1.83ZM108.54,168.09c.19,1.16,1.06,1.49,1.16,2.85.4,5.51-8.54,3.81-9.43,7.66-.67,2.92.84,5.18,3.91,5.08,1.51-.05,12.85-4.25,14.61-5.15,5.41-2.77.97-7.26-1.33-10.44h-8.92ZM126.37,168.47c-.15-.15-3.5.11-4.17,0,.37,1.78,1.85,2.5,2.18,4.45.3,1.74.03,3.34-.29,5.03,2.47-.15,9.7,1.3,11.42-.15.92-.78,1.07-2.49.37-3.48-1.11-1.57-6.24-.66-8.14-1.72s-1.18-3.93-1.37-4.13ZM131.3,169.99c.17-1.17-.36-1.69-1.51-1.51l-.38,1.51h1.89ZM129.41,268.27h7.02c.37,0,3.33-1.08,3.98-1.34,9.39-3.64,14.23-11.89,12.44-21.91-2.61-14.63-8.11-29.98-11.11-44.67-2.15-5.39-6.77-9.15-12.21-10.94-3.9,3.36-8.17,5.89-13.4,6.57,1.51,2.08,2.48,4.07,3.43,6.44,5.85,14.65,9.75,30.85,15.44,45.65,1.5,7.47-.71,14.5-5.58,20.19ZM111.78,196.7l-31.14,5.92c-4.53,9.54,2.11,18.65,4.26,27.62.66,2.76,1.24,5.51-2.38,6.13-10.64,1.83-22.76-1.71-30.72,7.61-10.49,12.28-2.55,30.59,13.27,31.89,15.6-1.71,32.36-1.06,47.83-3.05,11.99-1.55,21.26-11.91,18.62-24.3-3.08-14.44-11.63-30.21-15.09-44.86-.56-1.39-3.23-6.74-4.64-6.95ZM82.35,232.6c-1.58-.19-1.58.56,0,.37v-.37Z"/>
  <path class="cls-2" d="M459.95,108.52c6.03-1.18,12.19.35,17.05,4.02,9.92,11.09,23.19,20.92,32.68,32.21,7.26,8.63,6.15,20.24-1.14,28.48-5.77,6.52-16.8,9.86-23.67,15.04-.43.32-.77.4-.63,1.07,8.31,3.88,17.02,7.25,25.18,11.44,15.81,8.12,16.72,24.04,6.31,37.31-7.69,9.81-17.2,21.43-25.6,30.56-4.49,4.88-9.38,8.4-16.33,8.72-5.08.23-8.9-1.87-13.71-2.6-12.76-1.94-26.26-2.27-38.99-4.27-30.03-4.71-25.81-46.85,4.88-45.1,2.24.13,16.29,2.5,16.89,1.89-.78-9.26-3.23-18.35-3.04-27.7-10.11,2.02-19.33,5.17-28.43-1.74-7.47-5.68-9.51-14.11-9.14-23.11.58-13.99,2.97-28,3.52-42.02.97-7.27,5.72-13.74,12.28-16.94.75-.37,4.28-1.28,4.31-1.75-8.74-12.62-1.32-29.87,13.58-32.72s29.1,12.14,23.99,27.21ZM454.26,111.93c4.83-5.13,4.21-14.61.16-20.08-11.91-16.08-36.77-4.04-31.78,15.08,2.68,10.25,14.26,15.5,24.02,11.84-.42-.35-2.66-2.27-2.85-2.27-.25,0-1.43,2.37-4.17,2.65-9.67.98-8.42-13.96.88-11.5.99.26,2.57,1.66,2.86,1.61.56-.1,2.47-2.57,5-2.65,2.66-.08,5.84,2.53,5.87,5.33ZM451.16,112.65c0-1.47-1.19-2.66-2.66-2.66s-2.66,1.19-2.66,2.66,1.19,2.66,2.66,2.66,2.66-1.19,2.66-2.66ZM441.41,113.38c0-1.46-1.19-2.65-2.65-2.65s-2.65,1.19-2.65,2.65,1.19,2.65,2.65,2.65,2.65-1.19,2.65-2.65ZM486.51,183.27l15.99-9.25c10.71-9.13,11.84-19.22,2.03-29.45-8.78-9.14-18.78-19.7-28.07-28.09-4.31-3.89-12.19-6.72-17.74-4.08-.7.33-4.15,4.99-5.59,6.17s-4.25,2.34-5.02,3.71c-2.36,4.18.93,6.27.84,10.51,12.69.52,25.39,1.31,38.04,2.38,4.31,1.21,8.3,7.88,7.88,12.23-.16,1.7-1.27,3.01-1.49,4.58-.33,2.36.26,5.16-.07,7.52-.2,1.46-1.98,3.93-1.89,4.55.05.32,3.5,1.4,3.83,4.97.38,4.17-2.54,6.29-6.27,7.01l-2.46,7.21ZM445.84,134.63c.88-1.48-2.94-10.91-5.06-11.31-.98-.18-2.16.08-3.3-.11-2.94-.5-5.65-1.28-8.23-2.77-3.73-2.16-3.08-4.04-7.99-2.24-9.1,3.33-11.58,10.48-12.53,19.35-1.26,11.8-2.52,25.38-3.04,37.19-.58,13.31,5.61,23.84,19.91,24.08,14.74-3.86,32.48-4.36,46.88-8.52,6-1.74,11.53-7.29,12.51-13.48-4.11.12-7.86,2.45-11.57-.39-1.06,2.45-3.17,4.21-5.79,4.84-3.28.8-13.12,2.27-16.24,2.01-5.7-.48-8.23-7.21-4.73-11.59,2.43-3.04,6.41-2.6,9.87-3.23-.31-.55-.36-1.63-1-1.85-1.13-.39-4.7-.15-6.31-.52-4.49-1.01-7.12-5.16-7.5-9.57-.33-3.8-.09-12.52.43-16.3.22-1.64,1.51-3.78,2.61-4.99.29-.32,1-.46,1.09-.61ZM482.34,138.12l-28.26-1.92c-3.65-.48-8.05.44-8.56,4.75-.48,4.02-.81,12.03-.37,15.95s3.18,5.89,7.03,6.25c10.61.99,22.64-.74,33.41.02,4.56-.42,4.62-5.13,4.34-8.74-8.03,3.57-15.7-4.38-11.69-12.26,1.04-2.04,2.48-2.66,4.11-4.05ZM484.12,141.23c-1.62.37-3.55,3.02-3.7,4.66-.57,6.39,8.76,8.28,10.66,2.68,1.63-4.8-2.13-8.43-6.96-7.34ZM459.57,166.58c1.8,6.78-5.08,4.73-8.73,6.26s-2.94,7.19,1.31,7.33c2.39.08,10.9-1.36,13.57-1.94,7.77-1.68,4.18-6.86,1.62-11.66h-7.78ZM475.13,166.58c.14,3.03-2.02,7.98,2.84,8,1.88,0,9.6-1.51,11.6-2.1,1.86-.55,2.77-1.73,2.17-3.74-.86-2.92-6.05-.49-8.07-.62-1.56-.1-2.51-1.54-2.66-1.54h-5.88ZM443.68,198.88c-1.72,7.17,1.88,15.12,8.03,18.99,4.8,3.02,12.46,4.94,16.71,7.96,2.16,1.54,2.2,3.48.8,5.6-3.7,5.6-11.45,11.46-13.74,17.76-6.77,18.65,16.46,33.08,30.47,19.08,8.59-11.27,18.9-21.64,27.49-32.84,8.06-10.51,8.15-22.95-3.53-30.6l-30.13-13.91-7.23,2.86-28.86,5.1ZM466.4,228.43c-7.32-3.27-15.31-5.84-21.25-11.39-.36,3.06,2.29,9.68.91,12.11-1.15,2.03-3.21,1.64-5.27,1.55-9.38-.43-18.23-4.43-27.14.57-13.72,7.7-12.43,28.27,2.15,34.29,5.01,2.07,13,2.36,18.59,3.04,7.61.92,15.3,1.67,22.91,2.32-6.01-6.11-7.97-14.91-5.01-23.02,2.24-6.12,8.71-11.4,12.59-16.63.43-.58,1.94-2.23,1.53-2.83Z"/>
  <path class="cls-8" d="M486.13,297.48h.38l-.19.37c-.24-.03-.15-.24-.19-.37Z"/>
  <path class="cls-2" d="M283.86,110.42h7.78c2.15,0,7.91,3.27,9.68,4.74,9.37,11.02,22.77,20.55,31.88,31.49,8.56,10.28,5.47,25.02-5.2,32.38-5.91,4.08-13.15,7.1-19.08,11.27,2.95,2.54,4.88,5.62,6.36,9.19,3.82,15.04,10.77,30.06,14.6,44.97,3.2,12.43-1.72,21.47-12.37,27.67-1.41.82-3.1,1.16-4.4,2.05-2.57,1.75-4,4.27-7.36,5.92-8.05,3.95-24.22,1.46-33.45,1.06-14.66-.65-33.08,2.57-39.74-14.14-2.56-6.43-2.18-11.5-.41-18,3.33-12.24,7.76-25.46,11.76-37.56.82-2.49,1.72-4.9,2.76-7.3-14.06-1.08-21.44-13.02-20.87-26.37.55-12.83,1.84-28.62,3.42-41.36,1.22-9.88,6.88-17.44,16.69-19.93-2.77-4.86-3.92-9.34-3.43-15,.72-8.28,7.97-16.04,15.95-17.82,16.38-3.66,29.63,10.75,25.43,26.75ZM281.2,105.86c.98-13.09-11.57-22.92-24.1-18.22-18.9,7.09-13.16,36.36,9.11,34.15,2.28-.23,9.62-3.46,10.44-5.5.74-1.85-2.78,1.05-3.01,1.17-8.09,4.21-12.93-8.65-4.22-11.05.87-.24,1.78,0,2.41-.16.31-.08.57-.89,1.11-1.24,2.77-1.78,5.94-1.4,8.27.86ZM278.45,111.83c2.4-2.17-.51-5.74-3.32-4.45.32.71,1.33,4.76,1.52,4.93.21.18,1.48-.19,1.8-.48ZM273.31,112.29c0-1.47-1.19-2.65-2.66-2.65s-2.66,1.19-2.66,2.65,1.19,2.65,2.66,2.65,2.66-1.19,2.66-2.65ZM310.05,185.55c4.75-3.07,10.07-5.44,14.77-8.57,9.68-6.45,13.79-18.39,5.73-28.06-9.3-11.16-22.57-20.84-32.3-31.83-3.86-2.89-8.29-3.73-13.06-3.25-4.38.44-5.1,4.2-8.36,6.82-1.16.93-4.04,2.18-4.63,2.77-.48.47-1.58,3.9-1.51,4.59.09.98,1.39,3.34,1.68,4.71.52,2.41.55,4.84.48,7.3.67.05,1.33,0,1.99-.1,5.64-.83,11.68-2.88,16.64-5.37,3.32-1.66,4.42-.49,7.31-.63,1.91-.09,4.41-1.48,6.51-1.53,2.55-.05,5.59,1.53,7.18,3.48,1.77,2.18,6.4,16.69,6.27,19.45-.28,5.58-3.85,6.89-8.17,8.56-.36.14-.71-.19-.49.57.09.33,1.37,3.49,1.54,3.59.37.23,1.7-.05,2.39.08,8,1.55,6.11,12.92-2.02,11.77l-1.93,5.65ZM278.55,173.41c-3.27.33-6.66-1.57-8.51-4.2-1.39-1.98-5.29-14.33-5.73-17.03-.49-2.97-.14-5.75,1.73-8.17,1.67-2.16,3.13-1.43,3.43-4.92s-.5-6.99-2.1-10.08c-2.56-4.97-2.58-3.24-7.18-3.83-1.95-.25-4.81-1.25-6.56-2.17-4.62-2.42-3.67-4.85-9.74-2.29-5.56,2.34-9.2,7.01-10.76,12.76-.84,14.73-3.37,30-3.9,44.67-.46,13.01,7.55,23.83,21.43,22.57s30.08-6.67,44.61-8.14c6.43-1.52,11.35-6.47,13.27-12.72-2.02.58-6.08-.8-7.7-.31-.49.15-2.11,1.77-3.05,2.27-2.16,1.15-12.72,5.15-14.95,5.54-7.29,1.26-11.73-7.28-6.57-12.25.71-.68,1.83-.93,2.29-1.69ZM286.9,140.39c-5.76,2.35-19.77,1.48-19.37,10.07.1,2.17,4.2,15.32,5.39,17,1.51,2.12,4.35,2.95,6.87,2.44,9.63-3.35,19.71-5.65,29.32-9.01,3.88-1.36,6.83-2.21,6.08-7.24-.35-2.35-3.79-13.4-4.98-15.13-1.9-2.77-4.68-3.02-7.75-2.3,1.66,3.42,2.73,5.98,1.21,9.74-3.92,9.7-19.05,5.01-16.77-5.57ZM301.07,142.39c0-3.04-2.47-5.51-5.51-5.51s-5.51,2.47-5.51,5.51,2.47,5.51,5.51,5.51,5.51-2.47,5.51-5.51ZM305.87,165.44c-.21-.23-5.59,1.48-5.82,1.97-1.22,2.72,3.1,5.68,2.02,9.03,2.97.04,5.96-.06,8.94-.02,1.43.02,3.96.97,4.66-1.39,1.36-4.6-4.46-3.21-6.86-3.61-5.1-.85-2.45-5.46-2.94-5.98ZM294.02,168.92c-.53.07-6.11,1.8-6.37,2.02-.57.49-.48,2.43-1.54,3.4-2.35,2.15-9.97,1.67-8.53,7.05.65,2.44,2.57,2.91,4.85,2.55,1.65-.26,13.64-4.86,14.71-5.78,1.46-1.25,1.85-2.49,1.33-4.39-.14-.5-2.69-4.32-3.02-4.57-.56-.42-.79-.37-1.44-.29ZM281.21,238.29c9.74.88,20.11-1.21,28.26,5.32,7.59,6.08,9.97,15.89,6.83,25.03,8.68-4.13,12.88-13.58,10.42-22.93-3.99-15.17-10.89-30.48-14.98-45.74-1.44-3.27-3.54-6.32-6.53-8.31-2.95,1.38-5.01,3.11-8.38,4.02-5.55,1.5-11.9,1.82-17.54,3.15,2.01,2.25,4.1,4.51,5.45,7.25,5.7,11.54-1.19,21-3.56,32.2ZM272.78,200.07c-6.49.49-13.94,2.97-20.51,3.79-2.46.94-4.06,5.53-4.95,7.95-5.11,13.88-8.7,29.23-13.17,43.37-.47,8.52,3,16.85,11.12,20.36,5.38,2.33,13.15,1.53,19.06,1.81,9.94.47,20.01,1.34,29.95,1.55,25.01.52,26.32-33.18,4.19-36.44-5.64-.83-12.24.06-17.81-.79-2.87-.44-3.17-2.52-2.78-5.01,1.74-11.19,10.98-20.65,1.8-32.33-1.63-2.07-4.22-4.47-6.89-4.27Z"/>
  <path class="cls-13" d="M318.02,23.15c11.09,6.46,19.76-8.33,9.49-15.55l30.9-1.49c2.21.32,4.43,2.36,4.98,4.51.47,1.85.5,15.57.09,17.57-.36,1.76-2.69,4.57-4.46,5.03l-36.99.16c-1.24.08-4.01-3.16-4.01-3.96v-6.26Z"/>
  <path class="cls-14" d="M351.79,36.81c-1.34,6.86,4.82,4.99,8.62,7.13,3.52,1.98,1.93,7.31-1.97,7.32-2.15,0-10.62-2.46-13.09-3.26-7.62-2.45-5.01-5.58-2.28-11.19h8.73Z"/>
  <path class="cls-3" d="M336.5,51.31c1.87-.41,11.97-.29,12.83,1.43.78,1.57-2.07,12.35-3.46,13.25-.97.62-2.31.58-3.18-.16-2.54-2.2,2.04-7.09-.55-8.93-1.14-.81-3.72-.08-5.26-.43-2.67-.6-3.19-4.53-.38-5.15Z"/>
  <path class="cls-14" d="M329.82,36.85c.22-.2,5.41-.2,5.85.33.16.19,1.57,4.45,1.59,4.81.08,1.46-1.33,2.93-2.76,3.15-2.97.45-10.04.8-12.9.42-2.26-.3-2.77-3.25-1.13-4.58,2.29-1.86,6.93.72,8.88-2.51.29-.48.39-1.54.47-1.61Z"/>
  <circle class="cls-5" cx="323.14" cy="15.85" r="5.65"/>
  <path class="cls-3" d="M307.66,50.52c.85-.24,1.86.36,2.2,1.1,1.05,2.33-3.97,4.41-2.77,8.45.72,2.44,7.53,2.26,6.69,5.3-.11.41-.94,1.24-1.36,1.35-.82.22-7.9-2.59-9.2-3.17-1.85-.83-3.86-1.46-2.84-3.96.27-.65,5.13-6.99,5.88-7.78.38-.4.89-1.15,1.4-1.29Z"/>
  <path class="cls-3" d="M320.95,64.39c-1.7,1.41-3.83.09-3.15-2.17.19-.64,4.84-7.35,5.54-8.14.78-.88,1.76-1.98,3.04-1.57.79.25,7.92,8.7,7.97,9.56.06,1.13-1.2,2.33-2.39,2-2.28-.64-2.64-5.33-6.9-4.49-2.02.4-3.02,3.92-4.1,4.81Z"/>
  <path class="cls-13" d="M140.41,22.77c11.34,6.35,20.16-8.29,9.49-15.55l31.28-1.5c1.72.27,4.15,2.47,4.59,4.14.51,1.96.5,16.1.09,18.33-.51,2.77-3.14,4.6-5.78,4.85-11.15,1.05-23.95-.79-35.28-.04-1.57.15-4.39-3.25-4.39-4.34v-5.88Z"/>
  <path class="cls-14" d="M174.57,36.43c-2.2,7.13,6.07,4.85,9.12,7.76,2.62,2.49.76,6.68-2.86,6.69-1.71,0-12.5-2.96-14.53-3.72-6.05-2.26-2.7-6.91-.27-10.73h8.54Z"/>
  <path class="cls-3" d="M171.82,52.07c.46.46.52,1.68.45,2.33-.14,1.37-2.22,8.42-2.83,9.72-.95,2.02-3.15,2.65-4.55.75-1.32-1.81.35-3.58.52-5.54.46-5.17-4.52-2.07-7.15-3.77-1.63-1.05-1.52-3.42.15-4.36,1.53-.86,12.02-.52,13.4.87Z"/>
  <path class="cls-14" d="M158.2,36.48c.65,2.26,3.05,6.69-.04,8.01-.83.36-5.58.63-6.91.68-1.6.07-7.76.33-8.58-.67-1.59-1.92-.17-4.32,2.13-4.64,1.99-.27,5.32.6,6.8-1.17.53-.63.45-1.96,1.2-2.22.45-.15,5.17-.14,5.4,0Z"/>
  <circle class="cls-3" cx="145.73" cy="15.43" r="5.7"/>
  <path class="cls-3" d="M130.28,60.59c1.07,1.16,5.21,1.65,5.77,2.77.78,1.55-.09,3.15-1.87,3.04-.56-.03-9.7-3.62-10.36-4.05-.62-.4-1.33-1.46-1.26-2.19.1-1.21,5.79-7.35,6.47-9.12,1.35-1.52,3.58-1.08,3.45,1.14s-5.22,5.15-2.19,8.42Z"/>
  <path class="cls-3" d="M147.91,52.04c.71-.14.87-.04,1.44.3.61.36,4.92,5.5,5.68,6.47,1.05,1.34,3.47,3.88.57,4.79s-3.33-5.09-7.77-4.38c-3.03.48-3.73,6.57-6.67,5.1-1.09-.55-.85-2.19-.47-3.13.27-.65,5.21-7.71,5.78-8.25.41-.39.84-.78,1.42-.89Z"/>
  <path class="cls-5" d="M269.24,34.72c0,8.5-6.89,15.4-15.4,15.4s-15.4-6.89-15.4-15.4,6.89-15.4,15.4-15.4,15.4,6.89,15.4,15.4ZM267.29,37.19c0-4.77-3.87-8.65-8.65-8.65s-8.65,3.87-8.65,8.65,3.87,8.65,8.65,8.65,8.65-3.87,8.65-8.65Z"/>
  <path class="cls-14" d="M254.64,53.5c2.34.38,5.94-1.87,7.8-1.93.44-.01,1.01,1.13,2.07,1.38,4.2.98,8.4-6.78,12.55-3.06,2.03,1.82,1.97,4.62-.04,6.45-1.1,1-13.25,8.47-14.39,8.76-6.4,1.63-6.79-7.34-7.98-11.58Z"/>
  <path class="cls-14" d="M250.77,53.2c.67,3.06,3.67,7.05-.02,9.12-5.19.21-10.58,1.21-15.68.31-1.99-1.59-1.69-4.47.69-5.43,3.63-1.47,10.28,1.83,8.25-6.36,2.27.74,4.29,2.15,6.75,2.35Z"/>
  <path class="cls-3" d="M106.91,62.11c-3.1,2.5-4.99-3.48-8.05-3.34-2.37.11-3.02,4.87-4.46,5.48-3.07,1.3-4.41-1.26-3.29-4.07.48-1.19,3.94-7.27,4.72-8.18.99-1.16,2.42-1.6,3.8-.79,2.24,1.3,5.07,6.05,7.72,7.46.74.96.43,2.74-.45,3.45Z"/>
  <path class="cls-3" d="M61.57,62.51c-.31-.31-.5-1.14-.46-1.59.15-1.71,6.41-7.23,7.75-8.96.95-.63,2-.59,2.88.2.66.59,6.02,9.28,6.03,9.88,0,1.53-1.4,2.06-2.74,1.64-1.7-.53-2.26-5.41-5.76-5.27-2.84.12-5.39,6.41-7.69,4.11Z"/>
  <path class="cls-3" d="M53.38,47.51c1.25-.13,2.24,1.45,1.88,2.59-.61,1.91-4.83,2.56-4.8,5.88s6.66,4.37,5.14,7.39c-.58,1.16-2.15.81-3.07.4-.68-.3-7.57-5.36-8.1-5.94-.76-.84-1.08-1.75-.6-2.81.29-.63,8.87-7.45,9.54-7.52Z"/>
  <path class="cls-3" d="M90.89,51.35c.45,0,1.57.8,1.65,1.25s-.75,1.76-1.02,2.29c-.51,1.01-4.31,7.29-4.81,7.71-.99.82-2.81.35-2.83-.93-.02-1.15,5.66-10.32,7.01-10.32Z"/>
  <path class="cls-3" d="M451.5,49.01c1.01-.18,1.43.17,2.19.7.69.49,7.12,6.86,7.42,7.38.8,1.39.41,2.83-1.02,3.58-3.21,1.66-4.92-4.17-7.65-3.49s-3,6.56-6.15,5.67c-1.69-.48-2.16-2.06-1.71-3.66.24-.85,4.14-7.62,4.82-8.46.55-.68,1.19-1.55,2.11-1.71Z"/>
  <path class="cls-3" d="M408.62,46.39c2.51,2.52-4.41,4.58-4.41,7.69s4.74,4.34,5.19,5.76c.48,1.52-.31,2.94-2,2.77-.72-.07-9.45-6.52-9.79-7.31-.77-1.76.43-2.4,1.61-3.51.98-.93,5.78-4.97,6.7-5.45.81-.42,1.98-.68,2.7.04Z"/>
  <path class="cls-3" d="M431.01,61.76c-2.4,2.39-4.29-3.28-5.57-4.3-4.02-3.2-6.12,3.02-7.89,3.56-2.4.72-3.42-1.17-2.01-3.15,1.09-1.52,5.19-6.12,6.57-7.28,1.18-.99,2.37-1.24,3.47-.1.66.68,5.29,7.95,5.61,8.81.28.76.47,1.8-.18,2.45Z"/>
  <path class="cls-3" d="M438.03,60.99c-.19-.18-.37-.65-.38-.91,0-.71,4.55-8.61,5.27-9.38,1.49-1.58,3.72-1.23,3.2.89-.18.76-5.19,9.02-5.73,9.48-.64.55-1.76.49-2.37-.09Z"/>
  <path class="cls-6" d="M492.2,300.52h-4.93c1.27-3.97,2.55-8.33,4.17-12.14h.38c.26,4.01.03,8.13.38,12.14Z"/>
  <polygon class="cls-6" points="485.37 300.52 480.44 300.52 481.39 287.99 485.37 300.52"/>
  <path class="cls-8" d="M491.82,288.38h-.38c.1-.24-.2-.76.19-.76.34,0,.17.5.19.76Z"/>
  <path class="cls-6" d="M163.94,296.34h-4.17c-.34-.34,1.55-6,2.09-6.83l2.08,6.83Z"/>
  <polygon class="cls-6" points="472.47 294.45 468.3 294.44 470.2 287.62 472.3 292.91 472.47 294.45"/>
  <polygon class="cls-6" points="118.78 296.34 114.61 296.34 116.51 289.52 118.61 294.81 118.78 296.34"/>
  <path class="cls-6" d="M341.17,296.72h-4.17s1.9-6.83,1.9-6.83c.59.06.57.58.73.97.29.74,1.81,5.59,1.54,5.85Z"/>
  <polygon class="cls-6" points="517.63 294.44 513.46 294.44 515.36 287.62 517.63 294.44"/>
  <path class="cls-6" d="M294.49,289.89l1.9,6.83h-4.55c.66-2.08,1.26-4.18,1.89-6.27.16-.54-.24-.67.76-.56Z"/>
  <path class="cls-11" d="M111.78,196.7c1.41.21,4.08,5.56,4.64,6.95,3.46,14.65,12.01,30.42,15.09,44.86,2.65,12.39-6.63,22.75-18.62,24.3-15.46,2-32.22,1.34-47.83,3.05-15.82-1.3-23.76-19.62-13.27-31.89,7.96-9.32,20.08-5.78,30.72-7.61,3.62-.62,3.04-3.37,2.38-6.13-2.15-8.97-8.79-18.08-4.26-27.62l31.14-5.92Z"/>
  <path class="cls-11" d="M104.28,168.18c.17.1,2.16,3.09,1.98,3.33-1.91.87-4.45,1.23-6.2,2.34-6.3,3.99-3.25,13.89,4.49,13.22,4.5-.39,11.83-4.69,16.4-6l9.22.69c-2.11,5.18-7.04,9.17-12.44,10.52-14.48,1.36-30.04,6.7-44.3,8.07-12.14,1.17-21.84-8.2-21.83-20.28,0-14.65,3.66-30.98,3.91-45.83,1.09-6.58,6.45-13.03,13.01-14.69,3.99-1.01,3.29.48,6.12,2.19,2.46,1.48,5.47,2.64,8.33,3.06,1.29.19,2.91-.21,4.05.13.97.28,2.83,3.34,3.26,4.33,1.91,4.43-.4,3.43-1.8,6.83s-.23,3.75-.18,6.45c.14,8.35-3.64,24.31,8.67,25.55,1.44.15,6.63-.31,7.32.09Z"/>
  <path class="cls-13" d="M129.41,268.27c4.87-5.69,7.08-12.72,5.58-20.19-5.69-14.8-9.59-31-15.44-45.65-.95-2.37-1.92-4.36-3.43-6.44,5.23-.68,9.5-3.21,13.4-6.57,5.44,1.79,10.06,5.55,12.21,10.94,3,14.68,8.5,30.04,11.11,44.67,1.79,10.02-3.05,18.27-12.44,21.91-.64.25-3.61,1.34-3.98,1.34h-7.02Z"/>
  <path class="cls-5" d="M132.82,184.79c.51-3.28,1.44-2.52,3.51-3.51,3.53-1.7,4.45-6.27,1.93-9.29-.92-1.1-5.88-2.71-3.31-4.61,1.81-1.34,2.86-1.69,3.9-4.07,1.22-2.83,1.13-15.02.82-18.57-.35-3.9-3.11-6.91-6.82-7.97l-27.91-1.69c-2.92-2.26-4.24-4.25-8.36-4.47-.56-.03-1.66.56-2.06.28-.15-.11-1.18-3.21-1.19-3.57-.04-4.57,4.48-5.42,7.23-7.97s2.69-5.42,7.01-5.89c5.97-.65,10.32.75,14.81,4.55,8.96,7.57,18.87,18.78,27.3,27.34,3.48,3.53,5.87,4.92,7.17,10.29,3.65,15.08-11.22,22.68-22.28,28.46-.57.3-1.09.77-1.77.7Z"/>
  <path class="cls-13" d="M96.68,137.81c10.28,1.04,20.73.88,31.01,1.83,3.61.33,8,.51,8.55,5.11.39,3.21.39,12.36,0,15.57-.31,2.62-2.54,4.51-5.11,4.75-10.84,1.04-23.15-1.37-34.18-.39-2.4-.29-5.1-2.77-5.47-5.16-.46-2.95-.36-12.79.02-15.87s2-5.1,5.18-5.85Z"/>
  <path class="cls-5" d="M82.54,121.42c-15.73-2.11-19.72-25.84-4.62-33.46,18.68-9.43,35.38,15.56,19.8,29.28-.14-3.2-.71-5.8-3.99-7.01-2.71-1-3.05.24-4.75.14-.69-.04-1.07-.75-1.68-.92-9.06-2.56-11.27,9.83-3.44,11.41,2.36.48,3.89-1.44,5.33.55-2.09-.2-4.61.27-6.64,0Z"/>
  <path class="cls-14" d="M108.54,168.09h8.92c2.31,3.18,6.74,7.67,1.33,10.44-1.76.9-13.1,5.1-14.61,5.15-3.07.11-4.58-2.16-3.91-5.08.88-3.86,9.83-2.15,9.43-7.66-.1-1.36-.97-1.69-1.16-2.85Z"/>
  <path class="cls-14" d="M126.37,168.47c.19.2-.62,3.03,1.37,4.13s7.03.15,8.14,1.72c.7.99.55,2.7-.37,3.48-1.72,1.45-8.95,0-11.42.15.31-1.69.59-3.29.29-5.03-.34-1.95-1.82-2.68-2.18-4.45.67.11,4.03-.15,4.17,0Z"/>
  <circle class="cls-3" cx="85.01" cy="115.01" r="2.64"/>
  <path class="cls-3" d="M90.7,113.08c3.38-.94,4.91,4.2,1.91,5.14-3.91,1.23-.98-3.02-1.91-5.14Z"/>
  <path class="cls-10" d="M98.67,134.7c-2.14-.31-4.06.42-6.06.96,1.28-1.54,4.58-2.69,6.06-.96Z"/>
  <path class="cls-10" d="M131.3,169.99h-1.89s.38-1.51.38-1.51c1.15-.18,1.69.34,1.51,1.51Z"/>
  <path class="cls-10" d="M82.35,232.6v.37c-1.58.19-1.58-.56,0-.37Z"/>
  <path class="cls-11" d="M443.68,198.88l28.86-5.1,7.23-2.86,30.13,13.91c11.68,7.65,11.59,20.09,3.53,30.6-8.59,11.2-18.9,21.57-27.49,32.84-14,14-37.24-.43-30.47-19.08,2.29-6.3,10.03-12.16,13.74-17.76,1.4-2.12,1.36-4.07-.8-5.6-4.24-3.02-11.91-4.93-16.71-7.96-6.15-3.87-9.75-11.82-8.03-18.99Z"/>
  <path class="cls-13" d="M445.84,134.63c-.09.15-.8.3-1.09.61-1.1,1.22-2.39,3.35-2.61,4.99-.51,3.77-.75,12.5-.43,16.3.38,4.42,3.01,8.56,7.5,9.57,1.62.37,5.18.13,6.31.52.64.22.68,1.3,1,1.85-3.46.63-7.44.19-9.87,3.23-3.5,4.37-.97,11.11,4.73,11.59,3.12.26,12.96-1.21,16.24-2.01,2.63-.64,4.73-2.4,5.79-4.84,3.7,2.84,7.46.51,11.57.39-.98,6.18-6.52,11.74-12.51,13.48-14.4,4.17-32.14,4.66-46.88,8.52-14.31-.25-20.5-10.78-19.91-24.08.52-11.81,1.78-25.38,3.04-37.19.94-8.87,3.42-16.02,12.53-19.35,4.91-1.8,4.26.08,7.99,2.24,2.58,1.49,5.3,2.27,8.23,2.77,1.14.2,2.33-.07,3.3.11,2.13.4,5.95,9.83,5.06,11.31Z"/>
  <path class="cls-13" d="M466.4,228.43c.41.6-1.1,2.25-1.53,2.83-3.88,5.24-10.35,10.51-12.59,16.63-2.97,8.11-1,16.92,5.01,23.02-7.61-.65-15.3-1.4-22.91-2.32-5.59-.68-13.58-.97-18.59-3.04-14.58-6.02-15.87-26.59-2.15-34.29,8.91-5,17.76-1,27.14-.57,2.06.09,4.12.48,5.27-1.55,1.38-2.43-1.27-9.05-.91-12.11,5.94,5.55,13.92,8.12,21.25,11.39Z"/>
  <path class="cls-5" d="M486.51,183.27l2.46-7.21c3.73-.72,6.65-2.84,6.27-7.01-.32-3.57-3.78-4.64-3.83-4.97-.09-.62,1.7-3.09,1.89-4.55.32-2.37-.26-5.16.07-7.52.22-1.58,1.32-2.89,1.49-4.58.42-4.36-3.57-11.02-7.88-12.23-12.65-1.07-25.35-1.85-38.04-2.38.09-4.24-3.2-6.34-.84-10.51.77-1.37,3.6-2.55,5.02-3.71s4.89-5.84,5.59-6.17c5.56-2.64,13.43.19,17.74,4.08,9.3,8.38,19.3,18.95,28.07,28.09,9.82,10.22,8.68,20.32-2.03,29.45l-15.99,9.25Z"/>
  <path class="cls-5" d="M482.34,138.12c-1.63,1.38-3.07,2.01-4.11,4.05-4.01,7.89,3.66,15.83,11.69,12.26.28,3.62.22,8.33-4.34,8.74-10.77-.76-22.8.96-33.41-.02-3.85-.36-6.57-2.18-7.03-6.25s-.1-11.93.37-15.95c.51-4.31,4.91-5.23,8.56-4.75l28.26,1.92Z"/>
  <path class="cls-5" d="M454.26,111.93c-.04-2.8-3.21-5.41-5.87-5.33-2.52.08-4.44,2.55-5,2.65-.3.05-1.87-1.35-2.86-1.61-9.29-2.46-10.55,12.48-.88,11.5,2.74-.28,3.92-2.64,4.17-2.65.18,0,2.43,1.92,2.85,2.27-9.76,3.66-21.34-1.58-24.02-11.84-5-19.12,19.86-31.16,31.78-15.08,4.05,5.47,4.67,14.95-.16,20.08Z"/>
  <path class="cls-14" d="M459.57,166.58h7.78c2.56,4.8,6.15,9.98-1.62,11.66-2.67.58-11.18,2.02-13.57,1.94-4.25-.14-5.02-5.78-1.31-7.33s10.52.51,8.73-6.26Z"/>
  <path class="cls-14" d="M475.13,166.58h5.88c.16,0,1.11,1.44,2.66,1.54,2.02.14,7.21-2.29,8.07.62.59,2.01-.31,3.19-2.17,3.74-1.99.59-9.72,2.1-11.6,2.1-4.86-.02-2.71-4.97-2.84-8Z"/>
  <path class="cls-3" d="M484.12,141.23c4.83-1.1,8.59,2.54,6.96,7.34-1.9,5.6-11.23,3.72-10.66-2.68.15-1.64,2.08-4.29,3.7-4.66Z"/>
  <circle class="cls-3" cx="448.5" cy="112.65" r="2.66"/>
  <circle class="cls-3" cx="438.76" cy="113.38" r="2.65"/>
  <path class="cls-11" d="M272.78,200.07c2.68-.2,5.26,2.19,6.89,4.27,9.19,11.68-.05,21.14-1.8,32.33-.39,2.49-.09,4.57,2.78,5.01,5.57.85,12.17-.05,17.81.79,22.13,3.26,20.82,36.96-4.19,36.44-9.93-.21-20.01-1.08-29.95-1.55-5.91-.28-13.67.52-19.06-1.81-8.12-3.52-11.6-11.84-11.12-20.36,4.47-14.14,8.06-29.49,13.17-43.37.89-2.42,2.49-7.01,4.95-7.95,6.57-.82,14.02-3.3,20.51-3.79Z"/>
  <path class="cls-11" d="M278.55,173.41c-.45.77-1.58,1.01-2.29,1.69-5.17,4.98-.73,13.51,6.57,12.25,2.24-.39,12.8-4.38,14.95-5.54.94-.5,2.56-2.12,3.05-2.27,1.62-.49,5.68.88,7.7.31-1.92,6.26-6.84,11.2-13.27,12.72-14.53,1.47-30.29,6.84-44.61,8.14s-21.9-9.56-21.43-22.57c.52-14.67,3.06-29.95,3.9-44.67,1.57-5.75,5.21-10.42,10.76-12.76,6.07-2.56,5.12-.13,9.74,2.29,1.75.92,4.61,1.92,6.56,2.17,4.6.59,4.62-1.14,7.18,3.83,1.59,3.09,2.4,6.58,2.1,10.08s-1.76,2.76-3.43,4.92c-1.87,2.42-2.22,5.21-1.73,8.17.45,2.7,4.34,15.05,5.73,17.03,1.85,2.64,5.24,4.54,8.51,4.2Z"/>
  <path class="cls-5" d="M310.05,185.55l1.93-5.65c8.13,1.15,10.02-10.22,2.02-11.77-.69-.13-2.02.15-2.39-.08-.17-.1-1.44-3.26-1.54-3.59-.21-.76.13-.43.49-.57,4.32-1.67,7.89-2.98,8.17-8.56.14-2.76-4.49-17.27-6.27-19.45-1.58-1.94-4.62-3.53-7.18-3.48-2.1.04-4.6,1.43-6.51,1.53-2.89.14-3.99-1.04-7.31.63-4.96,2.49-11,4.54-16.64,5.37-.67.1-1.32.15-1.99.1.07-2.45.03-4.89-.48-7.3-.3-1.37-1.59-3.73-1.68-4.71-.07-.69,1.03-4.12,1.51-4.59.6-.59,3.48-1.84,4.63-2.77,3.26-2.62,3.98-6.38,8.36-6.82,4.77-.48,9.2.36,13.06,3.25,9.73,10.99,23,20.67,32.3,31.83,8.06,9.67,3.95,21.61-5.73,28.06-4.7,3.13-10.02,5.5-14.77,8.57Z"/>
  <path class="cls-5" d="M286.9,140.39c-2.28,10.58,12.85,15.27,16.77,5.57,1.52-3.77.45-6.33-1.21-9.74,3.07-.72,5.85-.47,7.75,2.3,1.19,1.73,4.63,12.79,4.98,15.13.75,5.03-2.21,5.88-6.08,7.24-9.61,3.36-19.69,5.65-29.32,9.01-2.52.52-5.36-.32-6.87-2.44-1.19-1.68-5.29-14.83-5.39-17-.4-8.58,13.6-7.72,19.37-10.07Z"/>
  <path class="cls-5" d="M281.2,105.86c-2.32-2.26-5.5-2.64-8.27-.86-.54.35-.8,1.16-1.11,1.24-.63.17-1.54-.08-2.41.16-8.71,2.4-3.87,15.27,4.22,11.05.22-.12,3.75-3.02,3.01-1.17-.82,2.04-8.16,5.28-10.44,5.5-22.28,2.21-28.01-27.06-9.11-34.15,12.53-4.7,25.09,5.13,24.1,18.22Z"/>
  <path class="cls-14" d="M294.02,168.92c.65-.09.88-.13,1.44.29.34.25,2.88,4.07,3.02,4.57.52,1.89.13,3.14-1.33,4.39-1.07.91-13.06,5.52-14.71,5.78-2.29.36-4.2-.11-4.85-2.55-1.44-5.38,6.18-4.9,8.53-7.05,1.06-.96.97-2.91,1.54-3.4.25-.22,5.84-1.95,6.37-2.02Z"/>
  <path class="cls-14" d="M305.87,165.44c.49.52-2.16,5.13,2.94,5.98,2.4.4,8.22-.98,6.86,3.61-.7,2.37-3.22,1.41-4.66,1.39-2.98-.04-5.96.06-8.94.02,1.08-3.35-3.24-6.31-2.02-9.03.22-.5,5.6-2.2,5.82-1.97Z"/>
  <circle class="cls-3" cx="295.57" cy="142.39" r="5.51"/>
  <circle class="cls-3" cx="270.65" cy="112.29" r="2.66"/>
  <path class="cls-3" d="M278.45,111.83c-.32.29-1.59.66-1.8.48-.19-.17-1.2-4.22-1.52-4.93,2.8-1.29,5.71,2.27,3.32,4.45Z"/>
  <path class="cls-13" d="M281.21,238.29c2.36-11.21,9.26-20.67,3.56-32.2-1.36-2.75-3.45-5-5.45-7.25,5.64-1.33,11.99-1.65,17.54-3.15,3.36-.91,5.43-2.64,8.38-4.02,2.98,1.99,5.09,5.05,6.53,8.31,4.08,15.26,10.99,30.57,14.98,45.74,2.46,9.35-1.74,18.8-10.42,22.93,3.14-9.13.76-18.95-6.83-25.03-8.15-6.53-18.52-4.45-28.26-5.32Z"/>
  <path class="cls-2" d="M267.29,37.19c0,4.77-3.87,8.65-8.65,8.65s-8.65-3.87-8.65-8.65,3.87-8.65,8.65-8.65,8.65,3.87,8.65,8.65ZM264.01,37.2c0-2.94-2.39-5.33-5.33-5.33s-5.33,2.39-5.33,5.33,2.39,5.33,5.33,5.33,5.33-2.39,5.33-5.33Z"/>
  <circle class="cls-3" cx="258.68" cy="37.2" r="5.33"/>
</svg>