<?xml version="1.0" encoding="UTF-8"?>
<svg id="Layer_1" data-name="Layer 1" xmlns="http://www.w3.org/2000/svg" viewBox="0 0 505.77 707.76">
  <defs>
    <style>
      .cls-1 {
        fill: #3bb799;
      }

      .cls-2 {
        fill: #44bdc5;
      }

      .cls-3 {
        fill: #3bb699;
      }

      .cls-4 {
        fill: #ba443b;
      }

      .cls-5 {
        fill: #bb443b;
      }
    </style>
  </defs>
  <path class="cls-2" d="M481.69,70.06c27.38,32.04,27.39,79.75,0,111.8-5.68,6.65-12.65,11.89-19.61,17.12,4.06,10.33,4.72,20.31.5,30.71-3.48,8.58-8.97,16.97-12.09,25.82,10.21,2.47,21.19,2.75,31.19,6,10.99,3.57,19.21,12.6,22.79,23.51l1.2,5.76c-.22,3.1.3,6.55,0,9.6-1.4,14.34-14.31,27.62-28.31,30.23-4,.74-8.11.48-12.17.42-24.06-6.25-51.61-7.13-75.35-13.41s-31.33-31.25-23.39-52.11c6.83-17.95,17.77-36.32,25.44-54.21.23-.53,1.26-2.79,1.03-3.04-1.04.27-3.14-1.29-3.86-.77-.26.19-2.25,4.66-2.95,5.71-1.12,1.68-2.51,3.27-3.76,4.88-15.27,19.7-32.74,38.65-48.7,57.82-15.75,12.45-38.11,12.64-52.03-2.64-7.48-11.2-15.78-21.86-23.52-32.85-2.69-3.82-5.48-7.69-8.16-11.52-11.14-15.91-23.93-29.46-15.72-50.51,2.64-6.76,9.35-14.6,15.72-18.11,1.89-1.04,6.56-2.88,8.64-3.36,6.93-1.59,15.06-.94,21.71,1.55,14.85,5.57,21.19,21.28,30.36,32.98l1.19.28c9.03-9.46,15.64-21.92,26.9-28.87-18.15-39.38-4.83-86.13,31.66-109.3s83.75-15.69,111.27,16.51ZM493.82,125.96c0-42.74-34.64-77.39-77.38-77.39s-77.38,34.65-77.38,77.39,34.64,77.39,77.38,77.39,77.38-34.65,77.38-77.39ZM380.91,203.97c-15.95-7-28.7-19.05-38.1-33.53-3.36-.25-17.85,19.21-20.89,22.69-1.64,1.87-4.58,5.82-6.71,6.73-3.29,1.4-7.27.86-9.85-1.66-5.56-5.43-10.99-16.58-16.34-23.01-22.4-26.95-61.96,1.78-44.72,30.81,11.86,19.97,29.56,38.95,41.73,59.03,11.31,14.74,28.41,14.82,42.62,3.93,15.08-19.15,33.55-37.61,47.96-57.12.81-1.1,4.99-6.9,4.29-7.87ZM488.72,315.56c16.52-15.69,8.48-41.95-13.17-47.19-8.28-2-21.13-2.29-28.5-5.08-5.13-1.95-5.57-7.81-3.97-12.32,4.93-13.86,16.91-26.67,13.35-42.16-.36-1.57-1.21-5.49-3.16-5.28-1.5.16-5.31,2.29-7.19,2.94-12.18,4.19-23.17,5.81-36.13,5.17-1.46-.07-8.19-1.46-8.8-.92-.14.57-.18,1.16-.43,1.7-8.32,17.9-19.03,37.37-26.1,55.49-6.57,16.83-.6,37.26,18.21,41.94,16.89,4.21,37.85,6.35,55.38,9.39,14.46,2.51,28.16,8.06,40.51-3.67Z"/>
  <rect class="cls-4" x="292.66" width="154.97" height=".48"/>
  <rect class="cls-4" x="60.45" y="707.28" width="154.97" height=".48"/>
  <path class="cls-3" d="M215.42,707.28H60.45c-17.97-1.64-32.6-16.87-34.06-34.79.45-95.07-.92-190.31.69-285.28,3.74-18.07,20.01-30.7,38.38-30.71,47.9,1.94,97.74-2.5,145.42,0,22.69,1.19,37.82,15.8,39.1,38.63-.37,93.08.64,186.25-.51,279.28-2.14,17.05-16.75,31.72-34.06,32.88ZM106.51,600.28h-26.15c-5.16,0-14.27,4.33-18.24,7.67-21.14,17.73-11.37,52.25,15.49,56.99,23.38-1.02,48.7,1.25,71.86-.34,15.06-1.03,27.06-11.73,30.21-26.41,1.57-7.31,1.1-12.96-.72-20.16h7.92c6.21,0,17.76-8.8,20.47-14.55l27.14-59.22c6.54-19.35-6.62-39.66-27.23-39.94,9.57-42.86-13.91-86.44-55.28-100.9-58.86-20.57-117.68,25.66-114.1,87.24.23,3.92,3.2,15.01,2.9,17.22-.18,1.36-3.56,7.32-4.28,10.15-7.79,30.6,19.04,56.25,49.38,48.42,1.73-.45,4.68-2.09,6.05-2.14,1.69-.06,4.41,2.02,6.38,1.95.53,11.59,5.68,22.72,8.2,34.02Z"/>
  <path class="cls-3" d="M249.96,160.27c-6.36,3.51-13.08,11.34-15.72,18.11-8.21,21.05,4.57,34.6,15.72,50.51l.02,87.11c-1.23,19.64-16.19,34.68-35.75,36.22H62.11c-20.5-1.48-35.61-18.8-35.74-39.11.4-92.9-.7-185.9.56-278.75C29.34,16.96,43.73,3.19,61.23,1.5l153.01-.08c19.07,1.31,34.06,16.34,35.72,35.29v123.55ZM102.64,238.92c-4.06,1.25-6.9,4.45-10.29,6.76-8.24-.93-16.6-3.12-24.89-1.87-39.82,6.01-41.42,65.02,2.41,71.39,21.23,3.08,42.83,5.34,64.17,7.79,2.45.28,5.22,1.22,7.74,1.38,10.99.68,20.02-3.86,28.31-10.54,9.88.81,18.11,3.63,28.06,1.2,18.1-4.43,28.99-22.68,27.82-40.78-1.58-24.35-8.17-50.2-10.22-74.71.76-3.13-5.16-11.54-5.11-13.12.02-.68,6.08-7.77,7.1-9.19,47.21-66.08-14.42-154.38-92.61-132.93-2.48.68-9.02,3.62-10.74,3.68-1.19.04-9.3-3.63-12.09-4.16-34.07-6.51-59.33,29.5-41.74,59.5.74,1.27,3.64,4.5,3.76,5.4.23,1.67-1.24,6.87-1.45,9.1-2.05,21.74,3.96,43.74,17.07,61.13,6.33,8.4,14.21,14.85,22.68,20.98-1.97,4.38-2.61,9.11-3.31,13.83l3.35,25.17Z"/>
  <path class="cls-3" d="M481.21,546.53l-47.97-25.92c23.15-38.28,13.49-88.52-22.88-114.58-32.48-23.27-73.89-21.25-104.97,3.28-6.11,4.83-14.65,11.73-18.69,18.26-3.47,5.62-7.15,17.44-9.04,24.07-10.26,35.93,3.73,74.57,34.66,95.17-3.71,6.4-4.88,13.76-4.33,21.1,1.03,13.8,13.34,25.81,19.2,37.91v1.16c-15.67,5-34.04,6.25-44.03,20.98-18.96,27.95,6.44,63.42,39.25,55.09,23.77-6.03,47.51-15.22,71.38-21.27,14.6,6.49,31.05,6.22,43.3-5.12,13.9-12.87,26.5-29.48,40.28-42.73.73-1.47,3.66-2.88,4.33-3.59-.09,1.05-.44,2.03-.5,3.1-1.01,19.19,1.53,40.11.04,59.06-1.4,17.83-17.99,33.11-35.74,33.83h-151.17c-17.57-1.1-31.97-13.48-35.5-30.71-1.61-94.81-.24-189.89-.69-284.8,1.66-18.95,16.65-33.98,35.72-35.29h152.13c18.09,1.31,32.9,15.48,35.24,33.38v157.62Z"/>
  <path class="cls-1" d="M292.66.48h154.97c17.87,1.57,32.69,16.93,34.06,34.79.86,11.22-.63,23.46,0,34.78-27.52-32.2-75.42-39.27-111.27-16.51s-49.82,69.92-31.66,109.3c-11.25,6.95-17.87,19.41-26.9,28.87l-1.19-.28c-9.17-11.69-15.51-27.41-30.36-32.98-6.65-2.49-14.79-3.14-21.71-1.55l-.02-122.14c1.41-17.86,16.26-32.8,34.09-34.29Z"/>
  <path class="cls-3" d="M258.12,240.4c7.75,10.99,16.04,21.66,23.52,32.85,13.92,15.28,36.28,15.09,52.03,2.64,15.95-19.17,33.42-38.12,48.7-57.82,1.24-1.6,2.64-3.19,3.76-4.88.7-1.05,2.69-5.52,2.95-5.71.72-.52,2.82,1.04,3.86.77.23.25-.81,2.52-1.03,3.04-7.68,17.89-18.61,36.25-25.44,54.21-7.94,20.86.62,46.09,23.39,52.11s51.29,7.16,75.35,13.41c4.06.06,8.17.33,12.17-.42-6.23,11.76-18.13,19.44-31.43,20.63l-151.62.02c-19.63-1.65-34.9-16.99-36.22-36.71l.02-74.15Z"/>
  <path class="cls-2" d="M481.69,610.35c-.67.7-3.6,2.12-4.33,3.59-13.79,13.24-26.39,29.86-40.28,42.73-12.25,11.34-28.7,11.61-43.3,5.12-23.87,6.04-47.61,15.23-71.38,21.27-32.81,8.33-58.21-27.14-39.25-55.09,9.99-14.73,28.37-15.98,44.04-20.98v-1.16c-5.86-12.1-18.17-24.11-19.2-37.91-.55-7.34.62-14.7,4.33-21.1-30.94-20.6-44.92-59.24-34.66-95.17,1.89-6.63,5.57-18.45,9.04-24.07,4.04-6.53,12.57-13.43,18.69-18.26,31.08-24.54,72.49-26.56,104.97-3.28,36.37,26.06,46.03,76.3,22.88,114.58l47.97,25.92c13.84,11.51,21.17,28.65,13.85,46.24-2.57,6.18-8.83,12.77-13.37,17.57ZM283.55,464.01c-6.13,38.63,18.92,76.27,56.41,86.33,62.01,16.65,116.79-46.14,91.29-105.22-18.33-42.46-69.29-59.75-109.8-36.77l12.59,2.99c60.42,28.49,3.33,110.14-44.24,62.48l-6.25-9.82ZM351.56,448.53c0-17.23-13.97-31.2-31.19-31.2s-31.19,13.97-31.19,31.2,13.97,31.2,31.19,31.2,31.19-13.97,31.19-31.2ZM407.5,595.65c-.32.39-.96,1.21-1.04,1.63-.26,1.4,5.34,9.1,6.39,11.15,4.45,8.68,5.62,19.66,3.17,29.1-1.94,7.46-6.36,13.62-12.05,18.65,9.17,3.99,20.49.68,27.59-5.99,6.44-6.05,12.71-13.94,18.93-20.42,10.09-10.51,23.07-22.13,32.14-33.11,11.46-13.86,7.64-31.05-5.3-42.17-14.53-7.94-29.04-16.88-43.78-24.35-1.06-.54-4.35-2.48-5.26-2.25-.71.18-8.24,9.17-9.93,10.74-9.79,9.06-22.99,16.45-35.99,19.43-.4.38,4.91,9.05,5.5,9.61,3.21,3,14.98,7.78,19.59,10.64s7.15,6.74,4.68,12.17c-.9,1.99-3.35,3.61-4.66,5.18ZM373.65,560.55c-.89-.52-8.43.8-10.2.88-11.3.5-24.26-1.98-34.8-6.03-1.64-.63-7.68-3.94-8.49-4.01-1.96-.18-3.78,8.57-3.93,10.32-1.31,15.59,12.36,26.91,18.43,39.99,2.33,5.01,1.71,8.74-2.69,12.22-14.21,5.81-34.77,5.9-43.05,20.76-11.75,21.08,6.45,45.36,29.78,40.82l72.79-21.73c17.08-6.99,22.12-27.73,12.87-43.07l-30.7-50.14ZM401.1,589.72c.68.49,3.54-2.53,3.14-3.37l-6.99-3.82,3.84,7.19Z"/>
  <path class="cls-4" d="M19.67,269.19c-.09.66.22,1.85-.07,2.33-.45.74-13.25.83-15.28,1.03l14.26,5.16c1.11.41,1.78,1.97.49,2.64-4.06,2.1-10.46,2.9-14.76,4.91l15.36.72v2.4s-18.72-.96-18.72-.96c.16-.8-.26-3.43.05-3.79.49-.57,12.65-3.79,14.35-4.61-1.62-1.12-13.92-4.46-14.33-5.11-.38-.59.11-2.86-.07-3.77l18.72-.96Z"/>
  <circle class="cls-4" cx="8.88" cy="650.42" r="7.41"/>
  <circle class="cls-4" cx="8.88" cy="672.01" r="7.41"/>
  <path class="cls-4" d="M19.67,290.78c-.12.68.25,2.48-.05,2.82-.25.29-5.15,1.4-5.9,1.92-.47.33-.48,5.68-.06,6.31,1.09,1.64,7.73.15,6.01,4.78-2.2-1-18.11-5.47-18.64-6.3-.31-.49-.23-3.01.4-3.54l18.24-5.99ZM11.51,296.06l-8.15,2.87,8.15,2.4v-5.27Z"/>
  <path class="cls-4" d="M19.67,235.12c-.12.68.25,2.48-.05,2.82-.25.29-5.15,1.4-5.9,1.92-.47.33-.48,5.68-.06,6.31,1.09,1.64,7.73.15,6.01,4.78-2.2-1-18.11-5.47-18.64-6.3-.31-.49-.23-3.01.4-3.54l18.24-5.99ZM11.51,240.4l-8.15,2.87,8.15,2.4v-5.27Z"/>
  <path class="cls-4" d="M3.35,308.56c.44.6-2.77,7.89,3.18,10.48,7.53,3.29,13.58-3.08,10.27-10.5l2.4-.49c2.27,8.83-1.47,15.71-11.23,14.36-3.98-.55-7-4.53-7.42-8.41-.15-1.4-.19-4.37.67-5.47.53-.68,2.01-.14,2.14.03Z"/>
  <path class="cls-4" d="M3.35,252.9c.44.6-2.77,7.89,3.18,10.48,7.53,3.29,13.58-3.08,10.27-10.5l2.4-.49c2.27,8.83-1.47,15.71-11.23,14.36-3.98-.55-7-4.53-7.42-8.41-.15-1.4-.19-4.37.67-5.47.53-.68,2.01-.14,2.14.03Z"/>
  <path class="cls-4" d="M.96,222.64c.07-.07,1.85-.07,1.92,0,.21.2-.15,4.85,0,5.76h16.79v2.88H2.88c-.41,2.36,1.37,6.12-1.92,5.28.38-1.78-.5-13.43,0-13.92Z"/>
  <path class="cls-4" d="M493.82,125.96c0,42.74-34.64,77.39-77.38,77.39s-77.38-34.65-77.38-77.39,34.64-77.39,77.38-77.39,77.38,34.65,77.38,77.39ZM445.87,122.96c0-21.89-17.74-39.63-39.63-39.63s-39.63,17.74-39.63,39.63,17.74,39.63,39.63,39.63,39.63-17.74,39.63-39.63Z"/>
  <path class="cls-4" d="M488.72,315.56c-12.35,11.73-26.05,6.17-40.51,3.67-17.53-3.04-38.49-5.18-55.38-9.39-18.81-4.69-24.77-25.11-18.21-41.94,7.07-18.13,17.78-37.59,26.1-55.49.25-.54.29-1.14.43-1.7.61-.54,7.34.85,8.8.92,12.96.65,23.95-.98,36.13-5.17,1.88-.65,5.7-2.78,7.19-2.94,1.95-.21,2.8,3.71,3.16,5.28,3.56,15.5-8.42,28.3-13.35,42.16-1.6,4.51-1.16,10.38,3.97,12.32,7.37,2.79,20.23,3.08,28.5,5.08,21.65,5.24,29.69,31.5,13.17,47.19Z"/>
  <path class="cls-4" d="M380.91,203.97c.69.97-3.48,6.77-4.29,7.87-14.42,19.51-32.89,37.96-47.96,57.12-14.21,10.89-31.3,10.81-42.62-3.93-12.18-20.08-29.88-39.06-41.73-59.03-17.24-29.04,22.32-57.77,44.72-30.81,5.35,6.43,10.78,17.58,16.34,23.01,2.58,2.52,6.56,3.06,9.85,1.66,2.13-.91,5.06-4.86,6.71-6.73,3.04-3.47,17.53-22.94,20.89-22.69,9.41,14.49,22.15,26.54,38.1,33.53Z"/>
  <path class="cls-3" d="M481.69,261.51c-10-3.25-20.99-3.53-31.19-6,3.12-8.84,8.6-17.24,12.09-25.82,4.22-10.4,3.56-20.37-.5-30.71,6.96-5.23,13.92-10.47,19.61-17.12v79.65Z"/>
  <path class="cls-2" d="M106.51,600.28c-2.53-11.3-7.67-22.43-8.2-34.02-1.97.07-4.69-2.01-6.38-1.95-1.37.05-4.32,1.69-6.05,2.14-30.33,7.82-57.17-17.83-49.38-48.42.72-2.83,4.1-8.79,4.28-10.15.3-2.21-2.67-13.3-2.9-17.22-3.59-61.58,55.23-107.81,114.1-87.24,41.37,14.45,64.85,58.04,55.28,100.9,20.61.29,33.76,20.59,27.23,39.94l-27.14,59.22c-2.71,5.76-14.26,14.55-20.47,14.55h-7.92c1.83,7.19,2.29,12.85.72,20.16-3.15,14.67-15.15,25.38-30.21,26.41-23.16,1.58-48.48-.68-71.86.34-26.86-4.74-36.62-39.26-15.49-56.99,3.97-3.33,13.08-7.67,18.24-7.67h26.15ZM200.93,484.39c0-42.74-34.65-77.39-77.38-77.39s-77.38,34.65-77.38,77.39,34.65,77.39,77.38,77.39,77.38-34.65,77.38-77.39ZM176.18,609.29c9.51,2.48,19.63-2.3,24.22-10.82,7.59-14.1,14.38-31.78,21.01-46.64,2.94-6.59,6.73-11.21,6.49-18.98-.16-5.3-3.59-11.99-7.69-15.34-2.81-2.29-12.09-6.77-15.36-4.8-.66.4-5.47,11.92-6.63,14-7.9,14.12-20.95,26.79-35.55,33.79l13.51,48.79ZM69.33,559.49c3.05.36,7.33,0,10.55,0,.06,0,.96-.7.49-.96-11.32-6.7-21.37-16.06-28.56-27.1-2.59-3.98-4.47-8.46-7.18-12.25-3.45,13.32,1,27.43,12.6,35.14,2.9,1.92,8.71,4.77,12.1,5.17ZM106.99,568.61c-.04,1-.05,2,.11,3,1.28,7.7,8.24,23.03,7.51,29.81-.39,3.59-2.95,6.34-6.55,6.89-14.91,2.28-32.92-4.27-43.76,9.49-10.2,12.95-4.9,31.78,10.42,37.54,5.77,2.17,7.77,1.11,13.3,1.05,21.29-.22,42.55-.07,63.83-.46,13.58-2.93,21.61-15.35,20.38-29.03l-17.27-62.63c-15.14,5.98-31.99,7.3-47.97,4.32Z"/>
  <path class="cls-2" d="M102.64,238.92l-3.35-25.17c.7-4.72,1.34-9.45,3.31-13.83-8.47-6.13-16.35-12.58-22.68-20.98-13.11-17.4-19.12-39.39-17.07-61.13.21-2.23,1.67-7.42,1.45-9.1-.12-.9-3.01-4.13-3.76-5.4-17.59-30,7.67-66.01,41.74-59.5,2.79.53,10.89,4.2,12.09,4.16,1.72-.06,8.26-3.01,10.74-3.68,78.19-21.45,139.82,66.85,92.61,132.93-1.01,1.42-7.08,8.51-7.1,9.19-.04,1.58,5.88,9.99,5.11,13.12,2.05,24.51,8.65,50.36,10.22,74.71,1.17,18.1-9.72,36.35-27.82,40.78-9.95,2.44-18.18-.39-28.06-1.2-8.29,6.68-17.33,11.22-28.31,10.54-2.51-.15-5.28-1.1-7.74-1.38-21.34-2.45-42.94-4.71-64.17-7.79-43.83-6.37-42.23-65.37-2.41-71.39,8.29-1.25,16.65.94,24.89,1.87,3.4-2.32,6.23-5.51,10.29-6.76ZM225.61,126.92c0-42.73-34.64-77.38-77.36-77.38s-77.36,34.64-77.36,77.38,34.64,77.38,77.36,77.38,77.36-34.64,77.36-77.38ZM104.11,52.79c-.43-.44-7.24-1.43-8.37-1.46-24.19-.8-40.92,25.47-28.33,46.56,5.87-15.36,15.58-28.98,28.59-39.06,2.37-1.84,5.03-3.28,7.49-4.97.34-.23,1.37-.3.62-1.06ZM204.37,192.42c-5.35,3.31-10.21,7.36-15.81,10.32s-11.68,5.11-17.75,6.97l10.08,74.09c.52,7.9-2.35,15.23-5.3,22.33,3.61-.17,7.27,1.2,10.8,1.44,18.73,1.26,30.86-13.07,31.41-30.94-3.91-23.79-5.67-48.17-9.66-71.91-.75-4.48-1.45-8.31-3.78-12.3ZM162.61,211.65c-18.2,2.8-36.12-.06-52.73-7.72-1.55,4.29-2.24,8.63-1.94,13.21.57,8.99,4.3,20.65,4.29,29.31,0,5.17-3.77,8.72-8.81,8.85-12.69.31-27.22-6.37-39.72-1.83-20,7.25-24.54,33.55-8.04,47.15,8.37,6.9,17.86,6.12,28.01,7.49,18.34,2.48,39.44,6.54,57.61,7.64,19.87,1.2,32.37-14.85,30.96-33.84l-9.63-70.26Z"/>
  <path class="cls-4" d="M283.55,464.01l6.25,9.82c47.57,47.66,104.66-33.99,44.24-62.48l-12.59-2.99c40.51-22.98,91.47-5.69,109.8,36.77,25.5,59.08-29.28,121.86-91.29,105.22-37.49-10.06-62.54-47.7-56.41-86.33Z"/>
  <path class="cls-4" d="M373.65,560.55l30.7,50.14c9.25,15.35,4.21,36.08-12.87,43.07l-72.79,21.73c-23.32,4.54-41.52-19.74-29.78-40.82,8.28-14.86,28.84-14.96,43.05-20.76,4.4-3.48,5.02-7.21,2.69-12.22-6.07-13.07-19.73-24.4-18.43-39.99.15-1.75,1.97-10.5,3.93-10.32.81.08,6.85,3.38,8.49,4.01,10.53,4.04,23.49,6.53,34.8,6.03,1.77-.08,9.31-1.4,10.2-.88Z"/>
  <path class="cls-4" d="M407.5,595.65c1.3-1.57,3.75-3.18,4.66-5.18,2.46-5.43-.2-9.39-4.68-12.17s-16.38-7.63-19.59-10.64c-.6-.56-5.91-9.22-5.5-9.61,13-2.98,26.2-10.36,35.99-19.43,1.69-1.57,9.22-10.56,9.93-10.74.91-.23,4.2,1.72,5.26,2.25,14.74,7.48,29.25,16.41,43.78,24.35,12.94,11.12,16.76,28.31,5.3,42.17-9.08,10.98-22.05,22.6-32.14,33.11-6.22,6.48-12.49,14.37-18.93,20.42-7.1,6.67-18.42,9.97-27.59,5.99,5.68-5.04,10.11-11.2,12.05-18.65,2.45-9.43,1.28-20.42-3.17-29.1-1.05-2.05-6.65-9.75-6.39-11.15.08-.42.72-1.24,1.04-1.63Z"/>
  <ellipse class="cls-4" cx="320.37" cy="448.53" rx="31.19" ry="31.2"/>
  <path class="cls-1" d="M401.1,589.72l-3.84-7.19,6.99,3.82c.4.84-2.47,3.86-3.14,3.37Z"/>
  <path class="cls-2" d="M445.87,122.96c0,21.89-17.74,39.63-39.63,39.63s-39.63-17.74-39.63-39.63,17.74-39.63,39.63-39.63,39.63,17.74,39.63,39.63ZM437.43,122.96c0-17.22-13.96-31.18-31.18-31.18s-31.18,13.96-31.18,31.18,13.96,31.18,31.18,31.18,31.18-13.96,31.18-31.18Z"/>
  <ellipse class="cls-5" cx="123.54" cy="484.39" rx="77.38" ry="77.39"/>
  <path class="cls-4" d="M106.99,568.61c15.98,2.98,32.83,1.66,47.97-4.32l17.27,62.63c1.23,13.68-6.8,26.1-20.38,29.03-21.28.39-42.54.24-63.83.46-5.52.06-7.53,1.12-13.3-1.05-15.32-5.77-20.62-24.6-10.42-37.54,10.84-13.76,28.85-7.21,43.76-9.49,3.59-.55,6.16-3.3,6.55-6.89.74-6.78-6.23-22.11-7.51-29.81-.17-1-.15-2-.11-3Z"/>
  <path class="cls-4" d="M176.18,609.29l-13.51-48.79c14.6-7,27.65-19.68,35.55-33.79,1.16-2.08,5.97-13.6,6.63-14,3.28-1.97,12.55,2.5,15.36,4.8,4.1,3.34,7.53,10.04,7.69,15.34.24,7.77-3.55,12.4-6.49,18.98-6.63,14.86-13.42,32.54-21.01,46.64-4.59,8.53-14.72,13.31-24.22,10.82Z"/>
  <path class="cls-4" d="M69.33,559.49c-3.39-.4-9.2-3.25-12.1-5.17-11.6-7.7-16.05-21.82-12.6-35.14,2.71,3.79,4.59,8.27,7.18,12.25,7.19,11.04,17.25,20.39,28.56,27.1.47.27-.43.96-.49.96-3.23,0-7.5.36-10.55,0Z"/>
  <ellipse class="cls-5" cx="148.25" cy="126.92" rx="77.36" ry="77.38"/>
  <path class="cls-4" d="M162.61,211.65l9.63,70.26c1.41,19-11.09,35.04-30.96,33.84-18.17-1.1-39.28-5.16-57.61-7.64-10.15-1.37-19.64-.59-28.01-7.49-16.5-13.61-11.97-39.9,8.04-47.15,12.5-4.53,27.03,2.15,39.72,1.83,5.04-.12,8.8-3.68,8.81-8.85.01-8.65-3.71-20.32-4.29-29.31-.29-4.58.4-8.93,1.94-13.21,16.61,7.66,34.54,10.52,52.73,7.72Z"/>
  <path class="cls-4" d="M204.37,192.42c2.33,3.99,3.03,7.82,3.78,12.3,3.99,23.74,5.75,48.12,9.66,71.91-.55,17.87-12.68,32.2-31.41,30.94-3.53-.24-7.19-1.6-10.8-1.44,2.95-7.1,5.81-14.43,5.3-22.33l-10.08-74.09c6.06-1.86,12.12-4,17.75-6.97s10.46-7.01,15.81-10.32Z"/>
  <path class="cls-4" d="M104.11,52.79c.74.76-.29.83-.62,1.06-2.46,1.69-5.12,3.13-7.49,4.97-13,10.09-22.71,23.7-28.59,39.06-12.59-21.09,4.14-47.36,28.33-46.56,1.13.04,7.94,1.02,8.37,1.46Z"/>
  <ellipse class="cls-4" cx="406.25" cy="122.96" rx="31.18" ry="31.18"/>
</svg>