<?xml version="1.0" encoding="UTF-8"?>
<svg id="Layer_1" data-name="Layer 1" xmlns="http://www.w3.org/2000/svg" viewBox="0 0 264.73 292.32">
  <defs>
    <style>
      .cls-1 {
        fill: #4479b2;
      }

      .cls-2 {
        fill: #43bec6;
      }

      .cls-3 {
        fill: #8465ac;
      }

      .cls-4 {
        fill: #ba443a;
      }

      .cls-5 {
        fill: #ba443b;
      }
    </style>
  </defs>
  <path class="cls-2" d="M.01,252.75c1.12-16.96,15.22-30.28,32.47-29.5l24.35,3.12-3.85-26.97c.1-3.67.66-7.24,1.66-10.76l-.36-.37c-3.39-1.55-7.11-2.92-10.33-4.78-11.49-6.64-18.02-19.25-17.1-32.53.13-1.88,1.2-4.81,1.2-6.24,0-1.32-1.62-5.48-1.89-7.47-2.31-16.91,6.98-32.29,22.48-38.84,10.21-22.34,20.08-44.85,30.53-67.07,7.47-12.34,22.95-16.65,36.38-12.17,8.54-16.62,30.54-22.44,46.62-12.99,32.09-13.98,69.96-2.8,89.56,25.88,18.51,27.1,16.78,63.65-4.43,88.68l15.75,41.96c4.64,17.12-3.81,35.82-21.41,40.72-3.13.87-5.56.81-8.69,1.14-4.67.49-9.36.94-14.02,1.45.88,5.19-.39,10.37-2.15,15.23-5.04,13.89-18.03,22.38-32.95,20.7-1.03-.12-2.14-.53-3.18-.66-7.71-.93-15.43-1.92-23.11-2.91,1.42,5.74,2.44,10.88,1.32,16.79-2.41,12.71-11.3,22.6-24.47,24.21-3.14.38-5.15-.06-8.15-.23s-6.2-.3-9.3-.49c-4.04,6.12-10.51,10.78-17.67,12.59-1.86.47-4.34.95-6.23,1.08h-3.6l-5.19-.93c-19.35-3-39.14-3.92-58.44-7.02-13.16-2.12-24.2-13.31-25.54-26.73-.1-1.05.22-2.27-.27-3.21.03-.55-.04-1.13,0-1.68ZM142.2,31.41c.31,0,.61.06.89.19,6.11,2.81,12.89,5.49,18.78,8.56,13.88,7.24,22,23.16,16.95,38.54-5.96,16.14-12.9,31.94-18.81,48.09-.29.78-1.28,2.63-.67,3.18.64.59,4.21,2.21,5.25,2.67,32.86,14.86,71.06.02,85.81-32.49,20.02-44.14-14-93.52-62.04-91.54-16.22.67-33.62,8.38-44.47,20.51-.27.3-1.83,2.1-1.67,2.28ZM152.51,11.03c-.8-.84-8.05-1.06-9.48-.97-7.88.45-16.25,5.68-19.77,12.72l10.88,4.77c4.08-4.78,8.56-9.23,13.61-13.01,1.44-1.07,2.99-1.96,4.46-2.97.16-.11.68-.15.31-.53ZM35.5,156.59c.46,8.42,6.4,16.32,13.74,20.19,15.45,8.14,33.04,14.12,48.71,22.03,11.47,4.2,23.61-.64,29.27-11.27l44-112.35c3.13-13.38-4.15-23.11-15.67-28.71-12.42-6.03-25.9-12.05-38.61-17.51-3.6-1.55-6.3-2.86-10.34-3.09-8.84-.5-16.79,3.27-20.96,11.19l-26.65,58.96c14.44-.52,28.02,6.59,34.66,19.54,9.56,18.67,1.14,41.56-18.12,49.52-14.03,5.8-29.54,2.21-40.03-8.51ZM89.25,132.01c0-15.18-12.31-27.49-27.49-27.49s-27.49,12.31-27.49,27.49,12.31,27.49,27.49,27.49,27.49-12.31,27.49-27.49ZM240.99,127.58c-.36-.1-.4.09-.6.24-2.5,1.75-4.82,4.13-7.47,5.95-6.74,4.65-14.46,8.19-22.37,10.36l7.19,53.47c5.26-.44,10.51-1.02,15.75-1.59,2.13-.23,3.66,0,5.88-.64,13.45-3.92,19.37-18.52,15.23-31.41l-13.61-36.39ZM202.36,146.07c-.3-.25-6.72.65-7.76.7-9.73.45-19.86-1.31-28.96-4.63-.82-.3-5.65-2.5-5.91-2.32-1.39,3.14-1.87,6.26-1.71,9.7.39,8.4,2.93,17.66,3.61,26.14-.29,5.01-3.02,8.16-8.06,8.72-2.41.26-5.31-.78-7.77-.93-.26.31,1.89,5.05,1.8,5.99l8.26,40.18,29.63,3.94c15.22.99,24.9-10.6,25.3-25.07l-8.43-62.43ZM150.11,153.24l-.5.34-4.77,12.61,3.02-4.77c.24-.59,2.68-2.87,2.74-3.07.37-1.37-.73-3.62-.48-5.1ZM153.23,176.02l-.84-5.75c-.89,1.64-1.74,3.48-1.82,5.37.1.38,2.24.43,2.65.39ZM142.2,174.58c.14-.12.66-3.1.72-3.59l-1.43,3.25c-.2.52.65.39.71.35ZM120.86,270.5c5.72-.18,11.3,1.6,16.85-.54,10.35-3.97,14.28-14.19,12.82-24.69-2.45-17.64-8.12-35.73-10.84-53.43-.53-2.18-1.36-4.38-2.64-6.23-3.17,10.1-10.97,18.54-21.22,21.59l7.19,51.2c-.16,4.12-.66,8.25-2.15,12.11ZM107.65,208.65c-4.52.12-9.01-.68-13.23-2.24-10.48-3.87-20.9-10.03-31.34-14.22l-.73-.11c-.72,2.89-.93,6.01-.72,8.99.58,8.08,2.96,16.77,3.61,24.94-.29,5.09-3.2,8.27-8.3,8.76-10.23-.18-24.93-5.43-34.53-1.45-14.69,6.1-18.69,25.25-7.29,36.56,7.45,7.4,17.38,6.62,27.17,7.84,14.22,1.76,28.43,3.61,42.68,5.28,1.24.14,2.6.59,3.87.69,16.58,1.24,26.9-12.18,25.5-27.9l-6.71-47.12Z"/>
  <path class="cls-1" d="M35.5,156.59c10.49,10.72,26,14.3,40.03,8.51,19.25-7.96,27.68-30.85,18.12-49.52-6.63-12.95-20.22-20.06-34.66-19.54l26.65-58.96c4.18-7.92,12.12-11.69,20.96-11.19,4.05.23,6.74,1.54,10.34,3.09,12.7,5.45,26.18,11.47,38.61,17.51,11.52,5.59,18.8,15.33,15.67,28.71l-44,112.35c-5.66,10.63-17.8,15.46-29.27,11.27-15.67-7.91-33.26-13.89-48.71-22.03-7.34-3.87-13.28-11.76-13.74-20.19Z"/>
  <path class="cls-3" d="M142.2,31.41c-.16-.18,1.41-1.98,1.67-2.28,10.85-12.13,28.25-19.84,44.47-20.51,48.04-1.98,82.05,47.4,62.04,91.54-14.74,32.51-52.94,47.35-85.81,32.49-1.04-.47-4.6-2.08-5.25-2.67-.6-.56.39-2.4.67-3.18,5.92-16.15,12.85-31.95,18.81-48.09,5.05-15.38-3.07-31.3-16.95-38.54-5.89-3.07-12.68-5.75-18.78-8.56-.28-.13-.58-.2-.89-.19Z"/>
  <path class="cls-4" d="M107.65,208.65l6.71,47.12c1.39,15.72-8.92,29.14-25.5,27.9-1.27-.09-2.63-.54-3.87-.69-14.25-1.67-28.46-3.52-42.68-5.28-9.79-1.21-19.72-.44-27.17-7.84-11.39-11.31-7.4-30.46,7.29-36.56,9.59-3.98,24.29,1.27,34.53,1.45,5.1-.49,8.01-3.67,8.3-8.76-.66-8.17-3.03-16.86-3.61-24.94-.21-2.98,0-6.1.72-8.99l.73.11c10.43,4.19,20.86,10.35,31.34,14.22,4.22,1.56,8.71,2.36,13.23,2.24Z"/>
  <path class="cls-4" d="M202.36,146.07l8.43,62.43c-.41,14.47-10.08,26.06-25.3,25.07l-29.63-3.94-8.26-40.18c.09-.95-2.06-5.68-1.8-5.99,2.46.15,5.36,1.2,7.77.93,5.05-.55,7.78-3.7,8.06-8.72-.69-8.48-3.22-17.74-3.61-26.14-.16-3.44.32-6.57,1.71-9.7.26-.18,5.1,2.02,5.91,2.32,9.11,3.32,19.23,5.08,28.96,4.63,1.04-.05,7.46-.95,7.76-.7Z"/>
  <circle class="cls-4" cx="61.75" cy="132.01" r="27.49"/>
  <path class="cls-5" d="M240.99,127.58l13.61,36.39c4.13,12.89-1.79,27.49-15.23,31.41-2.23.65-3.75.41-5.88.64-5.24.56-10.49,1.15-15.75,1.59l-7.19-53.47c7.91-2.17,15.63-5.72,22.37-10.36,2.65-1.83,4.97-4.2,7.47-5.95.2-.14.24-.33.6-.24Z"/>
  <path class="cls-5" d="M120.86,270.5c1.5-3.85,1.99-7.98,2.15-12.11l-7.19-51.2c10.25-3.05,18.05-11.48,21.22-21.59,1.28,1.85,2.12,4.05,2.64,6.23,2.72,17.7,8.38,35.79,10.84,53.43,1.46,10.5-2.47,20.72-12.82,24.69-5.55,2.13-11.13.36-16.85.54Z"/>
  <path class="cls-5" d="M152.51,11.03c.37.38-.15.42-.31.53-1.47,1.01-3.02,1.89-4.46,2.97-5.04,3.78-9.52,8.23-13.61,13.01l-10.88-4.77c3.52-7.04,11.9-12.26,19.77-12.72,1.43-.08,8.68.14,9.48.97Z"/>
  <path class="cls-5" d="M153.23,176.02c-.41.05-2.55,0-2.65-.39.07-1.89.92-3.73,1.82-5.37l.84,5.75Z"/>
</svg>