<?xml version="1.0" encoding="UTF-8"?>
<svg id="Layer_1" data-name="Layer 1" xmlns="http://www.w3.org/2000/svg" viewBox="0 0 238.8 245.42">
  <defs>
    <style>
      .cls-1 {
        fill: #43bec6;
      }

      .cls-2 {
        fill: #ba443a;
      }

      .cls-3 {
        fill: #43bdc6;
      }

      .cls-4 {
        fill: #7d79b9;
      }

      .cls-5 {
        fill: #ba443b;
      }
    </style>
  </defs>
  <path class="cls-1" d="M159.44.14c46.37,2.86,78.1,49.46,64.85,93.99-4.6,15.45-14.65,29.51-27.91,38.63,4.28,7.81,5.34,16.87,2.49,25.39-.56,1.69-1.51,3.21-2.15,4.81-2.45,6.15-4.95,12.28-7.32,18.45l24.46,3c37.61,8.1,29.74,63.85-9.2,60.51-9.06-.78-18.3-2.5-27.36-3.56-11.43-1.35-23.11-2.18-34.5-3.86-19.91-2.94-30.25-23.63-24.72-42.18l20.26-50.83-3.34-.71c-.76,2.81-2.35,5.28-3.99,7.64-11.75,16.98-25.15,32.89-36.92,49.87-10.86,12.72-29.69,16.65-43.72,6.35-3.7-2.72-4.76-4.75-7.45-8.13-12.19-15.3-24.41-30.57-36.64-45.84-16.23-22.8,4.1-53.53,31.61-47.19,13.34,3.07,20.43,15.49,28.52,25.42.6.74,1.3,1.64,1.69,2.51l.36-.24c7-8.28,12.15-18.97,20.75-25.53.28-.21.6-.34.95-.37-18.53-33.94-7.27-76.67,25.34-97.05C125.28,5.1,137.6.85,149.13.14c3.04-.19,7.27-.19,10.31,0ZM218.93,73.15c0-35.7-28.94-64.65-64.65-64.65s-64.65,28.94-64.65,64.65,28.94,64.65,64.65,64.65,64.65-28.94,64.65-64.65ZM62.18,140.32c-7.73-8.27-15.4-24.61-27.8-26.02-19.38-2.22-32.36,18-21.39,34.34l35.91,44.89c2.24,2.8,3.44,5.17,6.5,7.41,10.07,7.38,22.73,4.31,31.14-3.89,11.83-16.74,25.71-32.89,37.13-49.84,1.32-1.95,2.51-3.99,3.37-6.2-12.81-5.46-24.25-14.08-32.24-25.55-.8-.12-4.68,3.67-5.36,4.46-4.59,5.33-8.71,12.19-13.1,17.83-4.01,5.15-8.49,6.8-14.15,2.58ZM189.38,137.56c-.58-.37-4.25,1.81-5.08,2.17-7.34,3.19-15.29,5.46-23.3,6.19-4.74.43-9.49.17-14.23.03l-20.05,50.08c-4.69,12.73.56,28.15,14.13,32.37,2.46.77,4.29.64,6.72.95,15.56,1.99,31.13,3.72,46.73,5.54,3.92.46,8.38,1.47,12.24,1.66,17.42.88,29.22-17.37,20.84-32.83-7.32-13.51-22.56-11.58-35.67-13.48-2.58-.37-6-.84-7.95-2.6-2.98-2.7-3.05-6.28-1.97-9.89,3.14-10.44,11.77-22.65,9.98-33.61-.14-.87-1.96-6.31-2.4-6.59Z"/>
  <path class="cls-4" d="M218.93,73.15c0,35.7-28.94,64.65-64.65,64.65s-64.65-28.94-64.65-64.65S118.58,8.5,154.28,8.5s64.65,28.94,64.65,64.65ZM175.51,69.32c0-18.61-15.08-33.69-33.69-33.69s-33.69,15.08-33.69,33.69,15.08,33.69,33.69,33.69,33.69-15.08,33.69-33.69Z"/>
  <path class="cls-2" d="M189.38,137.56c.45.28,2.26,5.71,2.4,6.59,1.8,10.96-6.84,23.17-9.98,33.61-1.08,3.6-1.01,7.18,1.97,9.89,1.94,1.77,5.37,2.23,7.95,2.6,13.11,1.9,28.35-.03,35.67,13.48,8.37,15.46-3.43,33.72-20.84,32.83-3.86-.2-8.33-1.2-12.24-1.66-15.6-1.83-31.16-3.55-46.73-5.54-2.43-.31-4.26-.19-6.72-.95-13.58-4.22-18.82-19.64-14.13-32.37l20.05-50.08c4.75.14,9.49.4,14.23-.03,8.01-.73,15.97-3,23.3-6.19.83-.36,4.5-2.54,5.08-2.17Z"/>
  <path class="cls-2" d="M62.18,140.32c5.66,4.22,10.14,2.57,14.15-2.58,4.39-5.64,8.51-12.5,13.1-17.83.68-.79,4.56-4.58,5.36-4.46,7.98,11.46,19.43,20.08,32.24,25.55-.86,2.2-2.05,4.24-3.37,6.2-11.42,16.95-25.3,33.1-37.13,49.84-8.41,8.2-21.07,11.26-31.14,3.89-3.06-2.24-4.26-4.61-6.5-7.41l-35.91-44.89c-10.97-16.34,2.01-36.55,21.39-34.34,12.4,1.42,20.07,17.75,27.8,26.02Z"/>
  <path class="cls-3" d="M175.51,69.32c0,18.61-15.08,33.69-33.69,33.69s-33.69-15.08-33.69-33.69,15.08-33.69,33.69-33.69,33.69,15.08,33.69,33.69ZM167.15,69.31c0-13.99-11.34-25.33-25.33-25.33s-25.33,11.34-25.33,25.33,11.34,25.33,25.33,25.33,25.33-11.34,25.33-25.33Z"/>
  <circle class="cls-5" cx="141.82" cy="69.31" r="25.33"/>
</svg>