<?xml version="1.0" encoding="UTF-8"?>
<svg id="Layer_1" data-name="Layer 1" xmlns="http://www.w3.org/2000/svg" viewBox="0 0 226.56 226.08">
  <defs>
    <style>
      .cls-1 {
        fill: #b9453c;
      }

      .cls-2 {
        fill: #43bec6;
      }

      .cls-3 {
        fill: #b96d9f;
      }

      .cls-4 {
        fill: #ba443a;
      }
    </style>
  </defs>
  <path class="cls-2" d="M193,0l8.1,1.85c25.38,8.4,33.31,40.41,15.89,60.38v52.02c-1.51,18.26-15.37,34.22-33.53,37.44-3.83.68-7.46.48-11.32.67l-4.79,8.4c.15.26.36.27.59.36,11.02,4.13,24.15,3.76,33.56,11.76,23.54,20.02,4.72,58.78-26.35,52-20.74-4.53-41.59-11.62-62.29-16.58-6.28-2.73-11.86-7.5-15.65-13.14-2.58,1.42-5.07,3.14-7.89,4.1s-5.72,1.23-8.64,1.43c-11.47.79-23.07.95-34.53,1.43-9.03.38-17.85,2.34-26.25-2.02-16.83-8.76-18.02-32.74-1.99-42.99,6.67-4.26,12.71-4.07,20.32-4.37,2.8-.11,5.61-.11,8.4-.23.29-.01.89.18.84-.24-6.09-.28-12.52.59-18.51-.55-13.16-2.52-23.67-13.21-27.35-25.88l-1.61-7.62v-63.77c1.71-15.61,12.2-30.22,27.57-34.64,5.93-1.7,11.58-1.43,17.63-1.79,38.83-2.31,77.62-4.04,116.5-6.25,6.31-6.09,14.68-10.98,23.62-11.74h7.67ZM216.97,45.55c1.64-7.03,1.46-13.96-1.63-20.54-5.85-12.44-19.57-19.13-33.09-15.98-1.75.41-3.33,1.34-5.07,1.76-.06.42.55.23.84.24,18.71.65,33.44,11.52,37.89,29.97.31,1.29.4,2.64.66,3.9.05.23.09.72.41.66ZM175.21,19.49c-46.7,1.59-93.37,5.7-140.08,7.36-14.59,1.27-25.88,14.87-26.73,29.13-1.18,19.8.87,40.73,0,60.65.91,13.55,11.29,26.21,25.28,27.22h144.83c15.95-1.07,29.25-14.9,30.09-30.81,1.13-21.22-.88-43.43,0-64.75-1.72-18.47-15-29.43-33.39-28.81ZM93,152.26l-35.08-.04c-.8,5.94-4.1,8.19-9.85,8.64-6.1.48-17.49-.36-22.7,1.76-11.98,4.87-14.21,21.29-3.54,28.8,6.19,4.35,11.36,2.8,18.32,2.52,13.5-.55,27.05-.98,40.53-1.91,4.84-.33,6.49-.54,10.65-3.26.62-.4,2.09-1.19,2.18-1.91-1.39-5.58-1.38-11.44.3-16.94.67-2.18,1.81-4.17,2.58-6.3l-3.4-11.36ZM103.09,152.24h-1.44s.48,1.68.48,1.68c.21.16,1.13-1.52.95-1.68ZM162.31,152.24h-49.27c-3.9,7.22-9,14.07-11.76,21.81-2.56,11.87,5,22.41,15.66,26.79,19.31,4.75,38.62,10.95,57.97,15.39,30.08,6.9,38.89-31.74,14.48-40.85-7.76-2.9-17.53-3.74-25.22-6.66-5.11-1.94-5.93-7.35-4.21-11.99.61-1.64,1.83-2.85,2.34-4.49Z"/>
  <path class="cls-3" d="M175.21,19.49c18.39-.63,31.67,10.34,33.39,28.81-.88,21.33,1.13,43.53,0,64.75-.84,15.91-14.14,29.74-30.09,30.81H33.67c-13.99-1.01-24.37-13.68-25.28-27.22.87-19.92-1.18-40.85,0-60.65.85-14.26,12.14-27.86,26.73-29.13,46.71-1.67,93.38-5.77,140.08-7.36Z"/>
  <path class="cls-4" d="M162.31,152.24c-.51,1.64-1.73,2.85-2.34,4.49-1.72,4.63-.9,10.05,4.21,11.99,7.69,2.92,17.46,3.77,25.22,6.66,24.41,9.11,15.6,47.75-14.48,40.85-19.36-4.44-38.66-10.64-57.97-15.39-10.66-4.38-18.22-14.92-15.66-26.79,2.75-7.74,7.86-14.59,11.76-21.81h49.27Z"/>
  <path class="cls-4" d="M93,152.26l3.4,11.36c-.77,2.14-1.92,4.12-2.58,6.3-1.68,5.5-1.69,11.36-.3,16.94-.1.72-1.57,1.51-2.18,1.91-4.15,2.72-5.81,2.93-10.65,3.26-13.48.92-27.03,1.36-40.53,1.91-6.95.28-12.13,1.83-18.32-2.52-10.67-7.51-8.44-23.93,3.54-28.8,5.21-2.12,16.59-1.28,22.7-1.76,5.75-.45,9.05-2.7,9.85-8.64l35.08.04Z"/>
  <path class="cls-1" d="M216.97,45.55c-.33.06-.36-.43-.41-.66-.26-1.25-.35-2.6-.66-3.9-4.44-18.44-19.18-29.31-37.89-29.97-.29-.01-.89.18-.84-.24,1.74-.42,3.32-1.35,5.07-1.76,13.52-3.15,27.24,3.54,33.09,15.98,3.09,6.57,3.27,13.51,1.63,20.54Z"/>
</svg>