<?xml version="1.0" encoding="UTF-8"?>
<svg id="Layer_1" data-name="Layer 1" xmlns="http://www.w3.org/2000/svg" viewBox="0 0 552.33 536.2">
  <defs>
    <style>
      .cls-1 {
        fill: #b9bd99;
      }

      .cls-2 {
        fill: #807676;
      }

      .cls-3 {
        fill: #44bec5;
      }

      .cls-4 {
        fill: #ab509f;
      }

      .cls-5 {
        fill: #ba443b;
      }

      .cls-6 {
        fill: #bb443b;
      }
    </style>
  </defs>
  <path class="cls-4" d="M552.33,292.87v243.04H.88c.19-.25.31-.5.57-.74,12-10.76,25.81-20.25,37.86-31.05l177.06-112.45c.41,9.43.62,19.38,1.47,28.87.16,1.79,1.31,12.05,2.38,12.72.32.2,1-.02,1.35-.19l32.19-19.11c1.79-.81,1.91-3.13,2.16-4.88,1.72-12.48-.08-29.41-.55-42.33l5.86-3.52c.37,7.85.77,15.75,1.18,23.59.37,6.98.07,16.67,2.25,23.25.28.86.57,2.3,1.56,1.69,9.36-5.62,18.9-10.97,28.23-16.64,1.2-.73,5.51-3.06,6.03-3.93,1.42-2.37,1.15-10.48,1.19-13.46.16-10.52-.5-21.19-.87-31.8l4.4-1.17c.41,8.74.94,17.73,1.46,26.53.35,5.98.29,12.88,1.85,18.67,1.17,4.36,1.87,2.71,5.09.87,10.46-5.96,20.66-12.41,31.04-18.51.83-.9,1.14-3.56,1.3-4.85.47-3.84.12-7.74.45-11.58,2.33.9,4.38,2.39,6.85,2.97.05,1.77,1.07,11.51,2.58,11.96,1.08.32,17.07-10.31,19.62-11.13l.37.05c.44,1.21,5.77,7.25,5.32,7.87-7.15,3.2-16.24,4.31-20.64,11.46-8.55,13.89,4.35,30.47,19.99,25.86,11.9-3.51,24.51-10.22,36.28-14.43,10.27.02,20.54.96,30.76,1.17,12.36.25,19.49-14.2,11.45-23.76-3.91-4.65-8.09-4.98-13.79-5.27-1.01-.05-7.71.29-7.78-.47l.93-3.02c7.24.44,14.26-2.38,18.55-8.27,6.37-8.74,4.33-17.66,4.26-27.67-.05-7.26.97-18.72-.87-25.37,2.47-.34,5.16-1.93,7.55-2.28,3.92-.56,8.57-.19,12.55-.35,19.22-.79,38.5-1.45,57.73-2.08,4.74-.15,9.5-.08,14.23-.28Z"/>
  <path class="cls-3" d="M365.87,0c3.47.7,6.89,1.58,9.97,3.37,3.9,2.26,6.23,5.29,8.55,9.04,4.05,6.57,7.37,13.62,11.58,20.11l23.55-14.22c1.13-.28,1.58,1.94,1.84,2.88,1.73,6.18,1.56,13.09,1.96,19.44.66,10.73,1.19,21.46,1.78,32.22.18,3.29-.08,7.35.31,10.53.23,1.85,1.44,3.01,2.17,4.57,3.48,7.44,3.89,13.61.78,21.31-.74,1.82-1.58,2.13-1.53,4.36.39,17.25,1.83,34.63,2.67,51.87.75,15.51.84,31.17,2.03,46.64.05.59.18,1.75.38,2.26.22.54,2.89,2.82,3.14,2.57,1.34-3.37,2.77-7.12,4.44-10.37,10.4-20.15,37.77-6.7,30,13-3.53,8.96-8.76,20.16-13.08,28.84-4.66,9.36-12.5,12.37-22.53,8.98l.88,24.04c5.98-.03,11.22.41,16.28,3.8,4.03,2.69,7.93,7.93,9.23,12.61,1.84,6.65.82,18.11.87,25.37.07,10.01,2.1,18.93-4.26,27.67-4.3,5.9-11.31,8.71-18.55,8.27l-.93,3.02c.07.75,6.76.41,7.78.47,5.69.29,9.88.62,13.79,5.27,8.04,9.56.91,24.02-11.45,23.76-10.21-.21-20.49-1.16-30.76-1.17-11.77,4.22-24.39,10.92-36.28,14.43-15.64,4.62-28.54-11.96-19.99-25.86,4.4-7.15,13.5-8.27,20.64-11.46.45-.62-4.89-6.65-5.32-7.87l-.37-.05c-2.55.82-18.54,11.45-19.62,11.13-1.5-.45-2.52-10.18-2.58-11.96-2.47-.58-4.52-2.07-6.85-2.97-.33,3.84.02,7.74-.45,11.58-.16,1.29-.47,3.96-1.3,4.85-10.38,6.1-20.58,12.55-31.04,18.51-3.22,1.84-3.92,3.49-5.09-.87-1.56-5.79-1.5-12.7-1.85-18.67-.52-8.8-1.05-17.79-1.46-26.53,0-.09.26-.39.24-.72-.15-3.07-.32-6.17-.53-9.25-.22-.23-4.25,1.62-4.36,1.94-.27,3.08.15,6.13.25,9.2.37,10.6,1.03,21.28.87,31.8-.05,2.99.22,11.1-1.19,13.46-.52.87-4.84,3.2-6.03,3.93-9.33,5.67-18.87,11.01-28.23,16.64-.99.61-1.27-.84-1.56-1.69-2.18-6.58-1.88-16.27-2.25-23.25-.41-7.83-.82-15.73-1.18-23.59-.14-3.02-.08-6.07-.29-9.09l-6.16,1.17c.34,3.77.45,7.63.59,11.43.47,12.92,2.27,29.85.55,42.33-.24,1.75-.37,4.07-2.16,4.88l-32.19,19.11c-.35.17-1.03.39-1.35.19-1.07-.67-2.22-10.93-2.38-12.72-.85-9.49-1.06-19.45-1.47-28.87-2.9-67.09-5.09-134.6-7.61-201.86-.62-16.51-2.53-34.63-1.48-51,.1-1.56.66-6.5,1.68-7.49l32.75-20.53.86-.25c1.4.41,2.36,8.83,2.53,10.39.94,8.59.59,17.23,1.16,25.81.06.93.44,1.82.31,2.77.19.23,5-2.07,5.39-2.37.73-.57.52-2.14.48-3.06-.37-9.95-1.67-21.18-.3-31.06.29-2.08.53-4.3,2.66-5.26l32.38-20.1c1.05.02,1.48,2.41,1.7,3.27,1.83,7.24,1.92,17.71,2.26,25.3.17,3.85.16,7.74.28,11.59l4.64-2.1c-.2-8.68-1.2-17.52-.84-26.21.03-.62.27-1.18.3-1.75.15-2.61-.17-7.99,1.95-9.77l16.23-10.16c-20.56-2.12-27.92-29.18-10.24-40.72.74-.48,4.07-2.05,4.22-2.23.24-.28,1.17-3.7,1.57-4.59,3.89-8.85,11.11-11.62,19.1-15.79s16.74-8.22,25.02-12.51l7.24-2h5.28ZM360.24,5.36c-.65.07-1.34.28-2,.34-11.49,5.79-24.72,11.1-35.76,17.59-8.86,5.21-12.53,14.29-8.06,23.91,12.48,26.85,27.44,52.68,40.2,79.42,6.36,8.74,16.07,11.25,26.03,7.02,12.19-5.18,24.58-13.06,36.64-18.77,8.14-5.79,10.55-16.81,5.23-25.36l-44.08-77c-4.57-5.82-10.88-7.93-18.19-7.15ZM419.82,74.17c-.8-15.78-1.21-31.61-2.64-47.34l-.44-.73-18.05,11.3,21.12,36.77ZM307.53,41.04c-.65-.69-4.32,2.89-4.84,3.51-9.81,11.66-.66,29.1,14.33,28.11.89-.06,4.22-.29,3.87-1.44-3.37-7.73-8.44-15.22-11.65-22.95-.95-2.28-1.84-4.73-1.71-7.23ZM324.24,77.69l-.79.23-22.3,13.9c-.79,6.42-.8,12.97-.66,19.45.11,4.87,1.09,10.08.59,14.94-.25,2.42-1.27,3.24-3.22,4.41-5.07,3.04-10.99,4.14-11.73-3.53-.85-8.85-.27-18.27-1.18-27.26-.14-1.39-.29-2.92-.73-4.25l-26.68,16.71c-1.38,10.4-.33,20.83-.16,31.24.04,2.25.78,3.82-.62,6.1-1.07,1.74-6.24,4.29-8.25,4.94-3.98,1.3-6.81-.83-7.24-4.9-.75-7.09-.44-14.8-.89-21.98-.19-3.07-.55-6.18-.88-9.24-8.15,5.44-17.13,10.17-25.18,15.71-.44.3-1.29.68-1.44,1.2-.44,5.45-.76,10.9-.65,16.38.22,10.89,1.08,21.93,1.49,32.81,2.6,69.63,5.24,139.18,8.21,208.73.4,9.32.13,19.23,1.16,28.45.06.55.44,3.55.6,3.66l1.08-.22,25.84-15.5c.57-6.03.78-12.08.64-18.14-.18-7.87-.93-15.84-1.2-23.72-.13-3.83-.6-8.97-.29-12.63.17-1.97.9-3.67,2.82-4.51.66-.29,7.87-2.04,8.4-2.01,5.75.31,4.98,5.82,5.19,9.76.64,11.68.76,23.45,1.47,35.18.21,3.46.77,6.93.89,10.39l1.66-.53,25.85-15.49c.99-8.94.73-17.99.04-26.91.55-7.65-1.48-16.55-.88-24.06.25-3.2,1.31-4.24,4-5.67,3.12-1.66,7.46-3.39,9.91.28,1.15,1.73,1.22,5.56,1.35,7.74.68,10.98.52,22.12,1.16,33.14.24,4.15.78,8.32,1.17,12.46l2.73-1.23,24.83-14.74c.84-2.79.31-5.9.89-8.79-.34-2.86.61-7.2-.48-9.81-.28-.67-1.01-1.22-1.35-1.87-3.09-5.88-3.53-9.26-3.77-15.88s.24-12.89-.03-19.31c-21.89-12.98-7.76-46.76,17.05-39.33,2.57.77,6.79,4.02,8.07,4.24,2.91.49,8.26.23,11.43.3.79.02,1.54.4,2.34.33,1.04-.09,1.3-.91,2.1-1.44,4.36-2.93,9.87-4.31,14.75-6.21l-8.82-13.46c-9.62,2.09-19.67,1.54-28.85-2.08-.88,3.85,1.65,9.35-1.43,12.51-1.08,1.11-7.6,4.13-9.14,4.21-5.32.3-5.71-4.3-6-8.36-.42-5.93-.08-12.3-.58-18.18-.24-2.84-3.02-5.03-4.65-7.37-4.62-6.65-8.01-15.56-8.55-23.7-.16-2.42.4-6.05,0-8.2-.12-.64-1.88-2.61-2.39-3.47-7.38-12.6-1.61-28.05,12.02-32.79.57-4.64-1.84-7.99-1.43-12.72.56-6.46,5.61-11,11.89-11.86l10.56-.59c.44-.06.47.17.44-.44-.12-2.44-2.63-7.39-3.27-10.22-.8-3.53-.47-3.86-2.17-7.22-2.85-5.63-5.67-11.28-8.38-16.97-3.03.5-4.8,2.47-7.98.5s-2.34-7.1-2.53-10.37c-.22-3.95-.54-7.96-.66-11.94l-5.22-10.77ZM335.39,101.29c.12,1.69-.08,3.43,0,5.13.57-.15,2.37-.72,2.37-1.31,0-.66-2.42-5.46-2.66-5.14-.21.5.27,1.04.29,1.32ZM423.04,143.06l-1.31-25.21-13.62,8.04,14.94,17.17ZM382.88,138.09c1.83,4.05,8.14,6.9,5.79,12.09-1.82,4.02-13.17,6.13-16.78,10.48-7.28,8.77,1.7,21.53,12.54,17.82,9.7-5.44,20.74-9.41,30.42-14.73,7.57-4.16,8-12.91,2.78-19.22l-14.23-16.28-20.51,9.84ZM376.39,140.46c-6.73.97-13.27-.24-19.02-3.85.53,3.72,4.1,8.38,1.12,11.83-3.13,3.63-13.71.53-18.41,3.88-6.34,4.51-3.64,13.89,3.67,15.35l20.31-1.19c.81-4.8,3.12-9.5,7.27-12.23,1.11-.73,8.16-3.8,8.29-4.33l-3.24-9.46ZM426.26,209.91l-2.49-47.49c-.86.79-1.39,1.98-2.19,2.8-4.16,4.23-12.32,5.97-17.22,9.16-.28.18-.77.31-.66.77.08.35,4.23,4.4,4.96,5.3,5.95,7.35,9.51,16.17,10.62,25.59,2.64.65,4.88,2.21,6.98,3.87ZM364.69,171.51l-12.59.87c-.46.38,2.07,1.94,2.35,2.19,16.92,15.29,3.66,42.64-18.54,38.77-2.73-.48-4.99-1.8-7.55-2.56-.03,17.2,10.48,32.89,26.19,39.63,41.8,17.94,79.25-34.02,49.01-68.07-.76-.85-4.04-4.25-4.86-4.54-.52-.18-.64-.17-1.16-.02-3.17.88-7.39,3.92-10.64,5.2-9.04,3.57-18.35-.66-21.83-9.65-.23-.6-.38-1.19-.37-1.83ZM357.03,191.44c0-9.44-7.66-17.1-17.1-17.1s-17.1,7.66-17.1,17.1,7.66,17.1,17.1,17.1,17.1-7.66,17.1-17.1ZM419.53,211.67c-.31,7.76-2.1,15.55-6.04,22.27l.02.88,19.95,16.43c6.82,4.15,14.16,2.94,17.94-4.34,4.98-9.58,8.51-20.49,13.58-30.11,3.39-9.51-6.34-18.45-15.55-13.8-5.73,2.9-6.75,11.07-9.74,16.06-1.69,2.81-4.47,3.84-7.52,2.39-2.89-1.37-7.64-6.67-10.6-8.75-.62-.43-1.38-.67-2.03-1.04ZM428.9,267.37c-.18-4.61.12-9.46-.86-13.94l-17.02-14.07c-.85-.45-2.07.8-1.62,1.62l19.5,26.39ZM405.37,244.83c-.43.11-2.12,2.11-2.71,2.6-2.55,2.14-5.41,4.15-8.34,5.73-2.19,1.18-4.55,2-6.72,3.21,2.3,5.64,14.04,13.49,6.46,19.1-3.7,1.86-8.15,2.81-11.84,4.58-12.41,5.97-6.32,23.35,6.83,20.9,10.03-4.48,21.17-7.47,31.14-11.96,8.88-4,8.78-11.98,3.97-19.37s-11.17-15.88-16.54-22.74c-.5-.63-1.39-2.28-2.25-2.05ZM341.84,249.19l.59,17.15c0,.25.24.69.45.73.31.06,5.56-2.53,5.66-2.83l-.24-10.8-.29-.59c-.98-.07-5.83-4.02-6.16-3.66ZM335.68,306.65v-8.94c0-.55.61-2.59.8-3.3,2.01-7.4,7.55-12.95,14.74-15.46-14.65-4.7-27.11,11.45-18.71,24.57.22.34,2.73,3.65,3.17,3.13ZM371.44,283.79c-4.99-.05-10.46-.99-15.4-.6-6.5.51-12.57,5.74-14.51,11.87-1.55,4.88-.6,9.78-.56,14.66.07,8.83-.67,18.92,0,27.57.6,7.74,6.4,14.53,13.76,16.73,25.15.7,50.61.34,75.79-.17,8.22-.17,15.54,1.81,21.55-5.13,2.08-2.39,3.84-6.23,4.11-9.38.8-9.49.11-22.03-.3-31.65-.3-7.03-.22-11.76-6.01-16.86s-12.19-3.92-19.29-4.42c-1.7,3.16-4.55,5.69-7.82,7.19-10.32,3.23-20.09,8.21-30.33,11.59-1.44.48-2.91,1-4.44,1.13-12.36,1.05-20.86-11.12-16.53-22.53ZM433.01,359.13h-14.37c.39,1.97,2.36,3.54,3.47,5.18,3.67,5.41,4.73,11.1,2.15,17.3-.58,1.39-1.54,2.53-2.1,3.9,6.42.29,12.8.4,19.21.58,3.76.1,7.69,1.19,11.18-.81,5.72-3.28,6.21-11.42.98-15.45-3.9-3-11.06-1.68-15.98-2.19s-6.33-4.23-4.55-8.5ZM382,359.42c1.81,3.39,6.3,6.54,3.65,10.84-1.56,2.53-11.34,5.23-14.5,6.61-15.34,6.71-7.33,27.7,8.28,22.94,11.07-3.38,22.24-9.37,33.34-12.98,6.68-3.61,10.02-11.33,5.99-18.29-1.78-3.08-4.83-6.02-6.72-9.11h-30.05ZM364.7,359.72h-6.16c-.12.41.16,3.53.44,3.52l5.71-3.52Z"/>
  <path class="cls-2" d="M552.33,535.91v.29H.59c.08-.11.21-.19.29-.29h551.45Z"/>
  <path class="cls-5" d="M324.24,77.69l5.22,10.77c.13,3.98.44,7.99.66,11.94.18,3.27-.76,8.34,2.53,10.37s4.95,0,7.98-.5c2.71,5.69,5.54,11.35,8.38,16.97,1.7,3.35,1.37,3.69,2.17,7.22.64,2.83,3.15,7.78,3.27,10.22.03.61,0,.38-.44.44l-10.56.59c-6.27.86-11.32,5.4-11.89,11.86-.41,4.73,2,8.08,1.43,12.72-13.63,4.74-19.4,20.18-12.02,32.79.5.86,2.27,2.84,2.39,3.47.41,2.15-.15,5.78,0,8.2.55,8.13,3.94,17.05,8.55,23.7,1.63,2.34,4.4,4.53,4.65,7.37.5,5.89.16,12.25.58,18.18.29,4.06.67,8.66,6,8.36,1.54-.09,8.06-3.1,9.14-4.21,3.08-3.16.55-8.66,1.43-12.51,9.18,3.61,19.22,4.17,28.85,2.08l8.82,13.46c-4.89,1.9-10.39,3.28-14.75,6.21-.8.54-1.06,1.36-2.1,1.44-.8.07-1.55-.32-2.34-.33-3.17-.07-8.52.19-11.43-.3-1.29-.22-5.51-3.47-8.07-4.24-24.81-7.42-38.94,26.35-17.05,39.33.27,6.42-.2,12.89.03,19.31s.68,9.99,3.77,15.88c.34.66,1.07,1.2,1.35,1.87,1.09,2.61.13,6.95.48,9.81-.58,2.89-.05,6-.89,8.79l-24.83,14.74-2.73,1.23c-.39-4.14-.93-8.31-1.17-12.46-.65-11.01-.49-22.16-1.16-33.14-.13-2.17-.2-6.01-1.35-7.74-2.45-3.66-6.79-1.94-9.91-.28-2.7,1.43-3.75,2.47-4,5.67-.6,7.51,1.43,16.41.88,24.06.7,8.92.96,17.97-.04,26.91l-25.85,15.49-1.66.53c-.12-3.47-.69-6.93-.89-10.39-.7-11.73-.83-23.5-1.47-35.18-.21-3.94.56-9.45-5.19-9.76-.53-.03-7.74,1.72-8.4,2.01-1.92.83-2.66,2.53-2.82,4.51-.31,3.66.16,8.8.29,12.63.27,7.88,1.02,15.85,1.2,23.72.14,6.06-.08,12.12-.64,18.14l-25.84,15.5-1.08.22c-.15-.1-.53-3.11-.6-3.66-1.04-9.22-.76-19.12-1.16-28.45-2.97-69.56-5.6-139.1-8.21-208.73-.41-10.88-1.27-21.92-1.49-32.81-.11-5.47.22-10.93.65-16.38.15-.52,1-.9,1.44-1.2,8.05-5.54,17.03-10.27,25.18-15.71.33,3.06.69,6.17.88,9.24.44,7.19.14,14.89.89,21.98.43,4.07,3.26,6.19,7.24,4.9,2.01-.65,7.18-3.2,8.25-4.94,1.4-2.28.66-3.85.62-6.1-.17-10.41-1.22-20.84.16-31.24l26.68-16.71c.44,1.32.59,2.86.73,4.25.91,8.99.32,18.41,1.18,27.26.74,7.66,6.66,6.57,11.73,3.53,1.95-1.17,2.97-1.99,3.22-4.41.49-4.85-.49-10.06-.59-14.94-.14-6.48-.13-13.03.66-19.45l22.3-13.9.79-.23ZM297.79,168.65c-2.25.09-8.09,2.95-8.93,5.14-1,2.61-.16,7.34-.08,10.16.82,27.59,2.25,55.08,3.52,82.67.29,6.22.15,12.57.58,18.77.24,3.57.91,7.79,5.42,7.79,1.54,0,7.08-2.45,8.21-3.54,1.25-1.22,1.66-3.44,1.63-5.14-.08-5.24-.7-10.59-.91-15.81-1.17-29.6-2.24-59.22-3.81-88.83-.22-4.15.89-11.47-5.63-11.22ZM257.89,190.07c-.98-.9-2.54-1.34-3.86-1.29-.94.03-6.79,1.36-7.68,1.71-2.01.78-3.19,3.11-3.25,5.19-.09,2.67.46,6.08.54,8.79.92,31.19,2.35,62.37,3.81,93.52.16,3.49-.05,7.4.28,10.86.45,4.58,3.5,6.35,7.82,4.9,2.24-.75,7.12-2.97,8.02-5.18,1.25-3.05.1-10.25-.02-13.78-1.12-31.09-2.18-62.18-3.81-93.23-.16-3.11.6-9.24-1.85-11.49Z"/>
  <path class="cls-6" d="M360.24,5.36c7.31-.78,13.61,1.33,18.19,7.15l44.08,77c5.32,8.55,2.91,19.57-5.23,25.36-12.06,5.71-24.44,13.59-36.64,18.77-9.96,4.23-19.67,1.72-26.03-7.02-12.75-26.73-27.72-52.57-40.2-79.42-4.47-9.62-.79-18.7,8.06-23.91,11.04-6.49,24.27-11.81,35.76-17.59.66-.07,1.35-.27,2-.34Z"/>
  <path class="cls-6" d="M371.44,283.79c-4.33,11.42,4.17,23.58,16.53,22.53,1.53-.13,3-.65,4.44-1.13,10.24-3.38,20.02-8.36,30.33-11.59,3.27-1.5,6.12-4.03,7.82-7.19,7.1.49,13.56-.64,19.29,4.42s5.7,9.83,6.01,16.86c.41,9.62,1.1,22.16.3,31.65-.26,3.15-2.03,6.98-4.11,9.38-6.01,6.93-13.33,4.96-21.55,5.13-25.17.51-50.63.87-75.79.17-7.36-2.2-13.17-8.99-13.76-16.73-.67-8.64.07-18.73,0-27.57-.04-4.88-.99-9.78.56-14.66,1.95-6.13,8.01-11.36,14.51-11.87,4.94-.39,10.42.55,15.4.6Z"/>
  <path class="cls-5" d="M364.69,171.51c0,.64.14,1.23.37,1.83,3.48,8.98,12.78,13.21,21.83,9.65,3.25-1.28,7.47-4.33,10.64-5.2.52-.14.64-.16,1.16.02.82.29,4.1,3.68,4.86,4.54,30.23,34.05-7.21,86.01-49.01,68.07-15.71-6.74-26.22-22.42-26.19-39.63,2.56.77,4.82,2.09,7.55,2.56,22.2,3.87,35.46-23.48,18.54-38.77-.28-.25-2.81-1.82-2.35-2.19l12.59-.87Z"/>
  <path class="cls-1" d="M405.37,244.83c.86-.23,1.76,1.42,2.25,2.05,5.37,6.87,11.82,15.48,16.54,22.74s4.91,15.37-3.97,19.37c-9.96,4.49-21.11,7.48-31.14,11.96-13.15,2.45-19.24-14.94-6.83-20.9,3.68-1.77,8.14-2.72,11.84-4.58,7.59-5.62-4.15-13.46-6.46-19.1,2.17-1.22,4.52-2.03,6.72-3.21,2.93-1.58,5.79-3.59,8.34-5.73.59-.49,2.27-2.49,2.71-2.6Z"/>
  <path class="cls-1" d="M419.53,211.67c.65.38,1.41.61,2.03,1.04,2.96,2.08,7.71,7.38,10.6,8.75,3.05,1.44,5.83.42,7.52-2.39,2.99-4.98,4.01-13.16,9.74-16.06,9.21-4.66,18.95,4.29,15.55,13.8-5.07,9.61-8.59,20.53-13.58,30.11-3.79,7.28-11.13,8.49-17.94,4.34l-19.95-16.43-.02-.88c3.94-6.72,5.74-14.52,6.04-22.27Z"/>
  <path class="cls-1" d="M382,359.42h30.05c1.89,3.1,4.94,6.03,6.72,9.11,4.03,6.97.69,14.69-5.99,18.29-11.1,3.61-22.27,9.6-33.34,12.98-15.61,4.76-23.62-16.22-8.28-22.94,3.15-1.38,12.94-4.09,14.5-6.61,2.65-4.29-1.84-7.45-3.65-10.84Z"/>
  <path class="cls-1" d="M382.88,138.09l20.51-9.84,14.23,16.28c5.22,6.3,4.8,15.06-2.78,19.22-9.68,5.32-20.72,9.29-30.42,14.73-10.85,3.71-19.83-9.05-12.54-17.82,3.61-4.35,14.97-6.46,16.78-10.48,2.35-5.19-3.96-8.04-5.79-12.09Z"/>
  <circle class="cls-5" cx="339.93" cy="191.44" r="17.1"/>
  <path class="cls-1" d="M376.39,140.46l3.24,9.46c-.12.53-7.17,3.6-8.29,4.33-4.15,2.72-6.46,7.43-7.27,12.23l-20.31,1.19c-7.31-1.45-10.01-10.83-3.67-15.35,4.69-3.34,15.28-.25,18.41-3.88s-.6-8.11-1.12-11.83c5.74,3.61,12.29,4.82,19.02,3.85Z"/>
  <path class="cls-1" d="M433.01,359.13c-1.79,4.27-.35,7.98,4.55,8.5s12.09-.81,15.98,2.19c5.23,4.03,4.74,12.18-.98,15.45-3.49,2-7.42.91-11.18.81-6.41-.18-12.8-.29-19.21-.58.56-1.38,1.53-2.51,2.1-3.9,2.58-6.2,1.52-11.89-2.15-17.3-1.11-1.64-3.08-3.21-3.47-5.18h14.37Z"/>
  <path class="cls-5" d="M426.26,209.91c-2.1-1.66-4.33-3.22-6.98-3.87-1.11-9.41-4.67-18.23-10.62-25.59-.73-.91-4.88-4.95-4.96-5.3-.1-.46.38-.59.66-.77,4.9-3.2,13.06-4.94,17.22-9.16.8-.82,1.33-2,2.19-2.8l2.49,47.49Z"/>
  <path class="cls-5" d="M419.82,74.17l-21.12-36.77,18.05-11.3.44.73c1.42,15.73,1.84,31.56,2.64,47.34Z"/>
  <path class="cls-5" d="M307.53,41.04c-.13,2.51.76,4.95,1.71,7.23,3.21,7.73,8.28,15.22,11.65,22.95.35,1.15-2.98,1.38-3.87,1.44-15,.99-24.14-16.45-14.33-28.11.52-.62,4.19-4.2,4.84-3.51Z"/>
  <path class="cls-5" d="M335.68,306.65c-.44.52-2.96-2.79-3.17-3.13-8.39-13.12,4.06-29.27,18.71-24.57-7.19,2.51-12.73,8.06-14.74,15.46-.19.71-.8,2.75-.8,3.3v8.94Z"/>
  <polygon class="cls-5" points="423.04 143.06 408.1 125.9 421.73 117.85 423.04 143.06"/>
  <path class="cls-5" d="M428.9,267.37l-19.5-26.39c-.46-.81.76-2.07,1.62-1.62l17.02,14.07c.98,4.48.69,9.33.86,13.94Z"/>
  <path class="cls-5" d="M364.7,359.72l-5.71,3.52c-.28,0-.56-3.11-.44-3.52h6.16Z"/>
  <path class="cls-3" d="M257.89,190.07c2.44,2.25,1.69,8.38,1.85,11.49,1.64,31.04,2.69,62.14,3.81,93.23.13,3.53,1.27,10.73.02,13.78-.9,2.2-5.78,4.42-8.02,5.18-4.33,1.45-7.37-.31-7.82-4.9-.34-3.46-.12-7.37-.28-10.86-1.46-31.15-2.89-62.33-3.81-93.52-.08-2.7-.63-6.12-.54-8.79.07-2.08,1.24-4.41,3.25-5.19.89-.35,6.74-1.68,7.68-1.71,1.32-.05,2.88.39,3.86,1.29ZM254.47,194.08l-6.17,1.34,4.85,113.59c.29,0,4.89-2.1,5.24-2.38.38-.29.52-.47.49-.98-1.18-32.92-2.78-65.68-4.13-98.51-.18-4.35-.2-8.7-.28-13.06Z"/>
  <path class="cls-3" d="M297.79,168.65c6.52-.25,5.41,7.07,5.63,11.22,1.57,29.61,2.64,59.23,3.81,88.83.21,5.22.82,10.56.91,15.81.03,1.7-.38,3.92-1.63,5.14-1.12,1.1-6.66,3.54-8.21,3.54-4.51,0-5.18-4.22-5.42-7.79-.42-6.2-.29-12.55-.58-18.77-1.27-27.59-2.7-55.08-3.52-82.67-.08-2.82-.92-7.55.08-10.16.84-2.19,6.68-5.06,8.93-5.14ZM298.15,173.85l-4.71,2.24,4.87,111.8c1.19-.81,4.39-1.32,4.56-2.77l-4.71-111.27Z"/>
</svg>