<?xml version="1.0" encoding="UTF-8"?>
<svg id="Layer_1" data-name="Layer 1" xmlns="http://www.w3.org/2000/svg" viewBox="0 0 321.25 504.82">
  <defs>
    <style>
      .cls-1 {
        fill: #b9bd99;
      }

      .cls-2 {
        fill: #44bec4;
      }

      .cls-3 {
        fill: #b9453c;
      }

      .cls-4 {
        fill: #ba443b;
      }

      .cls-5 {
        fill: #bb443b;
      }
    </style>
  </defs>
  <path class="cls-2" d="M143.01.06c37.31,1.58,82.02,19.68,84.17,62.66,1.42,28.3-16.16,73.55-29.43,98.68l-8.39,14.02c11.91-3.02,23.71-6.7,35.81-8.86,12.12-.58,23.97,6.68,27.08,18.69l14,54.47c11.47,2.36,18.73,10.2,21.46,21.39.17.68,0,1.66.29,2.15.26.44,3.04,2.41,3.67,3.04,6.99,6.96,12.06,16.09,13.57,25.92,14.24-.19,21.19,16.89,11.24,26.97l-18.23,14.11c.27,1.59,1.08,2.98,1.47,4.55,2.55,10.16-3.31,19.74-13.09,22.85-12.49,3.97-25.57,6.33-38.04,10.45-4.85.84-9.56-.22-13.79-2.67.03,1.16-.05,2.34,0,3.5,1.06,22.48,3.65,44.98,4.87,67.41,1.63,30.07-18.34,50.89-47.42,54.74-1.75.23-4.45.02-6.03.37-1.18.26-6.13,3.46-7.94,4.26-8.48,3.77-17.53,6.17-26.9,5.76l-106.06-11.03c-32.72-4.46-53.05-37.38-41.75-68.82,6.63-18.43,24.71-32.42,44.44-33.63,1.82-.11,5.51.38,6.96-.05.64-.19,2.97-2.69,3.73-3.28,9.91-7.71,22.2-12.28,34.9-10.99v-.91c-13.31.58-26.29-3.53-36.29-12.35-14.25-12.56-20.2-33.2-16.62-51.7,6.45-33.36,17.01-66.84,23.94-100.19,5.57-18.1,21.73-31.88,40.56-34.31.13-.46-.12-.51-.3-.76-1.04-1.51-3.69-3.76-5.04-5.33-17.26-19.97-31.73-47.28-38.48-72.83-5.65-21.38-10.17-51.44,5.72-69.44C80.18,14.06,117.82.95,137.22.06c1.83-.08,3.96-.08,5.79,0ZM135.33,5.64c-17.04,1.02-43.52,11.01-57.49,20.89-18.81,13.3-17.84,36.32-14.32,56.85,4.52,26.37,16.89,52.68,32.59,74.15,2.45,3.35,14.62,18.9,17.8,19.41.87.14,1.84-.09,2.72.02,10.44,1.27,19.57,4.95,27.6,11.73,2.4,2.02,2.26,3.63,5.94,3.51,30.54-.97,45.33-36.55,55.05-60.53,9.23-22.76,21.78-58.13,14.24-82.26-9.93-31.8-54.02-45.57-84.14-43.76ZM260.72,239.48l-14.1-54.37c-4.26-10.49-14.13-14.44-25-12.65-12.46,2.06-25.72,7.56-38.29,9.89-2.68,2.01-5.08,4.48-7.89,6.44-2.05,1.43-6.23,3.23-7.7,4.5-2.82,2.45-3.81,10.42-3.34,13.97l13.52,66.69c.58.83,4.42,0,5.49-.03,5.32-.14,10.5,0,15.72,1.08,20.42,4.19,36.64,22.08,38.72,42.86.53.07,1.03-.05,1.54-.14,4.38-.74,11.15-2.68,15.46-4.05,10.94-3.48,18.05-11.81,18.37-23.56-12.65,5.61-27.43,1.57-34.58-10.4-10.48-17.52,1.93-39.83,22.08-40.24ZM111.24,182.23c-23.16.37-37.48,15.96-43.09,37.11-8.43,31.82-14.71,64.31-22.68,96.26-2.47,22.19,8.37,44.64,30.11,52.17,8.43,2.92,13.02,2.17,21.53,1.93,30.93-.89,61.87-1.7,92.7-2.11,40.05-.54,57.85-51.92,27.45-77.77-14.1-11.99-28.15-10.47-45.44-10.09-6.56.14-14.61,1.18-21.04.63-3.76-.32-5.39-2.8-4.94-6.49,2.63-12.42,6.37-24.66,8.98-37.07,5.97-28.41-14.11-55.03-43.58-54.56ZM160.39,195.86l-7.93,1.53c-.35.41,2.37,4.2,2.8,4.98,5.71,10.53,7.48,22.92,4.98,34.67-2.3,10.81-5.51,21.52-7.94,32.32-.17.75-1.3,5.26-1.06,5.49l21.35-.3-13.38-66.37c-.7-4.22.08-8.25,1.18-12.31ZM282.76,266.01c0-11.75-9.53-21.28-21.28-21.28s-21.28,9.53-21.28,21.28,9.53,21.28,21.28,21.28,21.28-9.53,21.28-21.28ZM299.7,293.41c.95-1.52-2.8-10.29-3.75-12.16-1.35-2.64-3.4-5.84-5.35-8.07-.32-.37-2.71-2.97-3.04-2.6-.46,4.34-2.72,9.02-5.5,12.34-.65.77-3.66,3.35-3.66,3.97,3.84,4.48,5.54,10.29,7.65,15.7.49.09.91-.1,1.32-.34,2.89-1.65,6.31-5.2,9.24-7.22.64-.44,3-1.48,3.09-1.63ZM263.79,315.45l4.44,10.92c.97.33,7.53-2.03,9.18-2.33,6.81-1.24,12.4.73,17.57,5.09l17.88-13.86c8.52-9.44-2.73-22.73-13.51-15.65-3.13,2.05-9.85,8.94-13.33,8.66-5.38-.44-5.82-7.74-8.06-11.45-.79,1.48-1.06,3.15-1.72,4.68-2.46,5.7-6.84,11.16-12.44,13.95ZM257.67,318.47l-19.49,4.91c0,6.25-1.25,12.77-3.54,18.57-1.98,5.01-4.83,6.6-3.35,12.51,1.76,7.05,8.06,12.4,15.52,11.55,12.34-4.11,26.46-6.19,38.61-10.49,16.1-5.7,10.22-28.92-6.51-26.34-5.16.8-10.64,3.33-15.86,4.21-2.04-.38-3.75-.95-4.68-2.95-.12-.25-.69-1.95-.69-2.06v-9.91ZM194.25,488.04c18.52-2.42,34.53-15.43,38.82-33.91,1.92-8.26.72-13.67.21-21.75-1.47-23.57-2.9-47.15-4.64-70.69l-2.53-5.4c-2.69,2.19-5,4.76-7.8,6.84-6.21,4.59-13.64,7.86-21.3,9.04.45,5.12,1.38,10.24,2.17,15.34,3.08,19.77,6.32,39.53,9.67,59.26.92,12.32-2,24.09-9.04,34.19-1.58,2.27-3.49,4.09-5.1,6.18-.24.31-.59.39-.45.92ZM191.5,372.75l-92.4,2.44c.66,6.9,2.14,13.71,3.08,20.58-.1,3.31-2.6,5.03-5.67,5.34-26.23-1.19-53.72-12.79-75.63,7.31-29.8,27.33-13.05,74.32,26.58,79.88,34.41,4.83,70,6.36,104.54,10.73,30.1.23,55.57-23.53,51.06-54.73-1.98-13.68-4.52-27.47-6.72-41.16-1.62-10.12-3.54-20.24-4.84-30.39ZM94.49,382.25c-9.52-.97-19.5,1.2-27.61,6.3-1.02.64-3.1,2.03-3.9,2.81-.3.29-.58.4-.46.91l34.15,3.35-2.18-13.38ZM193.79,488.04v.3c.2-.1.2-.2,0-.3Z"/>
  <path class="cls-5" d="M111.24,182.23c29.47-.47,49.55,26.16,43.58,54.56-2.61,12.41-6.35,24.65-8.98,37.07-.45,3.69,1.18,6.17,4.94,6.49,6.43.55,14.48-.49,21.04-.63,17.29-.38,31.34-1.91,45.44,10.09,30.4,25.85,12.6,77.24-27.45,77.77-30.83.41-61.77,1.22-92.7,2.11-8.51.24-13.1.99-21.53-1.93-21.74-7.53-32.58-29.97-30.11-52.17,7.97-31.95,14.25-64.44,22.68-96.26,5.61-21.15,19.92-36.75,43.09-37.11Z"/>
  <path class="cls-5" d="M135.33,5.64c30.12-1.81,74.21,11.97,84.14,43.76,7.54,24.14-5.01,59.51-14.24,82.26-9.72,23.98-24.51,59.56-55.05,60.53-3.68.12-3.54-1.48-5.94-3.51-8.03-6.79-17.17-10.46-27.6-11.73-.88-.11-1.85.12-2.72-.02-3.18-.5-15.35-16.05-17.8-19.41-15.7-21.48-28.07-47.78-32.59-74.15-3.52-20.53-4.49-43.55,14.32-56.85,13.97-9.87,40.45-19.87,57.49-20.89ZM143.75,160.64c0-1.08-.87-1.95-1.95-1.95s-1.95.87-1.95,1.95.87,1.95,1.95,1.95,1.95-.87,1.95-1.95ZM172.71,168.11c0-.99-.8-1.79-1.79-1.79s-1.79.8-1.79,1.79.8,1.79,1.79,1.79,1.79-.8,1.79-1.79ZM157.26,175.19c.22.41-.03,1,.23,1.46.53.94,4.89,1.92,5.32.41.3-1.03-2.46-2.57-3.26-2.79-.49-.13-2.64.04-2.82.24-.51.55.5.63.53.67Z"/>
  <path class="cls-5" d="M191.5,372.75c1.3,10.15,3.21,20.27,4.84,30.39,2.2,13.69,4.74,27.48,6.72,41.16,4.51,31.2-20.96,54.95-51.06,54.73-34.54-4.37-70.13-5.9-104.54-10.73-39.63-5.56-56.37-52.55-26.58-79.88,21.91-20.1,49.4-8.5,75.63-7.31,3.07-.31,5.57-2.03,5.67-5.34-.94-6.87-2.42-13.68-3.08-20.58l92.4-2.44Z"/>
  <path class="cls-4" d="M260.72,239.48c-20.16.41-32.56,22.72-22.08,40.24,7.16,11.97,21.94,16.01,34.58,10.4-.31,11.75-7.43,20.08-18.37,23.56-4.31,1.37-11.09,3.31-15.46,4.05-.51.09-1.01.21-1.54.14-2.09-20.77-18.3-38.67-38.72-42.86-5.22-1.07-10.4-1.22-15.72-1.08-1.07.03-4.9.86-5.49.03l-13.52-66.69c-.48-3.54.52-11.52,3.34-13.97,1.46-1.27,5.65-3.07,7.7-4.5,2.81-1.96,5.21-4.43,7.89-6.44,12.57-2.32,25.83-7.83,38.29-9.89,10.87-1.79,20.74,2.15,25,12.65l14.1,54.37Z"/>
  <path class="cls-4" d="M194.25,488.04c-.14-.53.22-.61.45-.92,1.61-2.1,3.52-3.91,5.1-6.18,7.04-10.1,9.96-21.86,9.04-34.19-3.35-19.73-6.59-39.49-9.67-59.26-.79-5.1-1.72-10.22-2.17-15.34,7.66-1.18,15.1-4.45,21.3-9.04,2.8-2.07,5.11-4.64,7.8-6.84l2.53,5.4c1.74,23.53,3.17,47.12,4.64,70.69.51,8.08,1.71,13.49-.21,21.75-4.29,18.47-20.31,31.49-38.82,33.91Z"/>
  <path class="cls-1" d="M257.67,318.47v9.91c0,.11.57,1.8.69,2.06.93,1.99,2.63,2.57,4.68,2.95,5.22-.88,10.71-3.41,15.86-4.21,16.73-2.58,22.62,20.64,6.51,26.34-12.14,4.3-26.26,6.38-38.61,10.49-7.46.85-13.75-4.5-15.52-11.55-1.48-5.91,1.38-7.51,3.35-12.51,2.29-5.8,3.54-12.32,3.54-18.57l19.49-4.91Z"/>
  <circle class="cls-4" cx="261.48" cy="266.01" r="21.28"/>
  <path class="cls-1" d="M263.79,315.45c5.6-2.79,9.97-8.25,12.44-13.95.66-1.54.94-3.21,1.72-4.68,2.25,3.72,2.69,11.01,8.06,11.45,3.48.29,10.21-6.61,13.33-8.66,10.79-7.07,22.03,6.21,13.51,15.65l-17.88,13.86c-5.17-4.35-10.76-6.33-17.57-5.09-1.65.3-8.21,2.67-9.18,2.33l-4.44-10.92Z"/>
  <path class="cls-3" d="M160.39,195.86c-1.1,4.07-1.88,8.09-1.18,12.31l13.38,66.37-21.35.3c-.23-.23.9-4.74,1.06-5.49,2.42-10.8,5.64-21.52,7.94-32.32,2.5-11.76.72-24.14-4.98-34.67-.42-.78-3.14-4.57-2.8-4.98l7.93-1.53Z"/>
  <path class="cls-3" d="M299.7,293.41c-.09.15-2.45,1.19-3.09,1.63-2.94,2.02-6.35,5.57-9.24,7.22-.41.24-.83.43-1.32.34-2.11-5.41-3.81-11.21-7.65-15.7,0-.62,3.02-3.2,3.66-3.97,2.78-3.32,5.04-8,5.5-12.34.33-.37,2.71,2.23,3.04,2.6,1.95,2.22,4,5.43,5.35,8.07.96,1.87,4.7,10.64,3.75,12.16Z"/>
  <path class="cls-3" d="M94.49,382.25l2.18,13.38-34.15-3.35c-.12-.51.17-.62.46-.91.8-.78,2.88-2.17,3.9-2.81,8.11-5.1,18.1-7.28,27.61-6.3Z"/>
  <path class="cls-4" d="M193.79,488.04c.2.1.2.2,0,.3v-.3Z"/>
  <path class="cls-2" d="M157.26,175.19s-1.04-.12-.53-.67c.18-.19,2.33-.37,2.82-.24.8.21,3.55,1.76,3.26,2.79-.43,1.5-4.8.53-5.32-.41-.26-.46,0-1.06-.23-1.46Z"/>
  <circle class="cls-2" cx="141.8" cy="160.64" r="1.95"/>
  <circle class="cls-2" cx="170.92" cy="168.11" r="1.79"/>
</svg>