<?xml version="1.0" encoding="UTF-8"?>
<svg id="Layer_1" data-name="Layer 1" xmlns="http://www.w3.org/2000/svg" viewBox="0 0 444.96 305.41">
  <defs>
    <style>
      .cls-1 {
        fill: #43bec6;
      }

      .cls-2 {
        fill: #ba443a;
      }

      .cls-3 {
        fill: #43bec5;
      }

      .cls-4 {
        fill: #7d79b9;
      }

      .cls-5 {
        fill: #9e9938;
      }

      .cls-6 {
        fill: #ba443b;
      }
    </style>
  </defs>
  <path class="cls-3" d="M329.82.13c12.39,1,24.45,8.92,30.03,19.98l68.29,124.54c9.01,19.53.87,41.64-17.96,51.29,0,.35,3.75,4.8,4.33,5.5,7.31,8.77,15.26,17.45,22.29,26.39,13.27,16.86,9.58,40.16-10.38,49.56-16.63,7.83-33.43,15.36-50.14,23.01-3.63,1.66-5.78,3.22-9.94,3.97-10.74,1.94-21.71-1.56-28.83-9.89-3.19-3.73-5.45-8.5-6.52-13.27-11.56.1-23.06,1.31-34.63,1.41-28.23.23-35.13-37.43-10.36-47.77,6.37-2.66,14.74-2.02,21.64-2.34,1.93-.09,3.9-.44,5.87-.25-1.25-5.5-3.36-10.83-4.99-16.24-2.87-3.19-5.71-6.42-7.77-10.22l-11.73-24.38c-17.11,3.6-34.54-5.57-41.52-21.43-6.62-15.03-2.51-33.02,10.1-43.47-6.69-14.27-13.88-28.3-20.37-42.66-6.13-17.28,2.59-35.67,18.07-44.29,17.92-7.96,35.5-18.28,53.49-25.9,3.88-1.64,8.91-3.24,13.12-3.55,2.19-.17,5.74-.18,7.92,0ZM297.2,178.55c-.17.19,1.46,3.62,1.71,4.16,2.88,6.19,6.18,13.65,9.52,19.5,8.2,14.36,26.61,20.24,41.7,13.31,18.04-9.27,36.86-17.13,54.85-26.46,15.54-8.05,22.86-23.53,15.71-40.34-23.75-43.15-47.05-86.58-71.32-129.42-8.2-10.17-22.86-13.43-34.96-8.81-1.8.69-3.55,1.57-5.3,2.37-16.85,7.71-33.27,16.45-50.05,24.3-11.65,6.64-18.76,20.88-13.85,34l19.39,40.45c2.5-.77,4.82-1.89,7.37-2.55,38.78-10.18,63.81,39.61,33.4,64.56-2.36,1.93-5.31,3.9-8.16,4.92ZM310.44,144.97c0-15.92-12.91-28.82-28.83-28.82s-28.83,12.9-28.83,28.82,12.91,28.82,28.83,28.82,28.83-12.9,28.83-28.82ZM412.72,212.21c-2.57-3.05-5.22-6.06-7.82-9.09-.65-.76-1.66-2.45-2.29-2.99-.23-.19-.37-.32-.69-.25l-39.24,18.71c-.07.49.13.8.37,1.18,2.19,3.52,6.73,7.77,9.46,11.17s4.66,6.5,2.75,11.13c-1.69,4.08-10.39,6.79-14.34,8.68-8.87,4.24-17.03,6.77-20.89,16.76-5.09,13.18,5.7,29.24,19.92,29.02,6.16-.09,7.61-1.44,12.74-3.81,16.96-7.85,34.15-15.32,51.02-23.33,14.12-6.7,15.84-23.83,6.97-35.68-5.35-7.14-12.13-14.6-17.94-21.51ZM354.29,222.91c-10.92,4.94-23.57,5.17-34.54.24-.26.35.96,3.16,1.13,3.79,1.1,4,2.02,7.76-1.24,11.09-1.55,1.58-4.07,2.42-6.25,2.63-6.81.66-18.52-.49-24.32,2.07-10.67,4.7-13.45,18.99-4.84,27.08,6.7,6.29,13.41,4.27,21.71,3.94,5.12-.2,10.25-.47,15.35-.72,3.07-.15,6.17-.17,9.25-.23.56-9.87,6.54-19.26,15.19-24.02l14.27-6.71-5.72-19.15Z"/>
  <path class="cls-1" d="M196.23,152.91c4.29,7.81,5.35,16.88,2.5,25.39-.56,1.69-1.51,3.21-2.15,4.81-2.45,6.15-4.95,12.28-7.32,18.46l23.08,2.71c30.13,4.86,35.67,45.91,8.19,58.17-8.17,3.64-12.7,2.7-21.1,1.74-16.75-1.92-33.42-3.9-50.13-6-4.48-.56-7.99-.43-12.39-2-16.67-5.94-23.78-24.28-19.01-40.71l20.27-50.83-3.35-.71c-.76,2.81-2.36,5.28-3.99,7.64-11.76,16.99-25.16,32.9-36.94,49.88-10.87,12.72-29.7,16.65-43.74,6.35-3.7-2.72-4.76-4.75-7.46-8.13-11.61-14.57-23.59-28.95-35.01-43.65-23.34-30.02,13.19-65.7,42.45-43.16,6.6,6.65,11.99,14.42,17.87,21.7,3.49-4.51,6.88-9.11,10.3-13.69,2.99-4.01,5.11-7.68,9.04-10.86.67-.54,1.82-1.33,2.62-1.59-3.07-5.92-5.59-12.17-7.08-18.7-7.19-31.51,7.08-64,34.98-79.9,35.13-20.02,79.86-7.66,99.75,27.22,18.6,32.62,9.37,74.58-21.37,95.87ZM218.79,93.3c0-35.71-28.96-64.66-64.68-64.66s-64.68,28.95-64.68,64.66,28.96,64.66,64.68,64.66,64.68-28.95,64.68-64.66ZM61.97,160.48c-7.73-8.27-15.41-24.61-27.82-26.03-19.39-2.22-32.38,18-21.4,34.34l35.93,44.89c2.24,2.8,3.44,5.17,6.5,7.41,10.07,7.38,22.74,4.31,31.15-3.89,11.83-16.75,25.72-32.9,37.15-49.85,1.32-1.95,2.51-3.99,3.37-6.2-12.82-5.47-24.27-14.09-32.25-25.55-.8-.12-4.68,3.67-5.37,4.46-4.59,5.33-8.71,12.19-13.11,17.83-4.01,5.15-8.49,6.8-14.16,2.58ZM189.23,157.71c-.58-.37-4.26,1.81-5.09,2.17-7.34,3.19-15.3,5.46-23.31,6.19-4.74.43-9.49.17-14.24.03l-20.06,50.09c-4.69,12.73.56,28.16,14.14,32.38,2.46.77,4.29.64,6.72.95,15.57,1.99,31.14,3.72,46.75,5.54,3.92.46,8.39,1.47,12.25,1.66,17.43.88,29.23-17.38,20.85-32.84-7.32-13.51-22.57-11.58-35.69-13.49-2.58-.37-6-.84-7.95-2.6-2.98-2.7-3.05-6.29-1.97-9.89,3.14-10.44,11.78-22.66,9.98-33.62-.14-.87-1.96-6.31-2.4-6.59Z"/>
  <path class="cls-5" d="M297.2,178.55c2.85-1.02,5.8-2.98,8.16-4.92,30.42-24.96,5.38-74.74-33.4-64.56-2.55.67-4.87,1.78-7.37,2.55l-19.39-40.45c-4.91-13.12,2.2-27.36,13.85-34,16.79-7.85,33.21-16.59,50.05-24.3,1.75-.8,3.51-1.69,5.3-2.37,12.11-4.62,26.76-1.36,34.96,8.81,24.27,42.84,47.58,86.27,71.32,129.42,7.15,16.81-.17,32.29-15.71,40.34-18,9.32-36.82,17.19-54.85,26.46-15.09,6.93-33.5,1.05-41.7-13.31-3.34-5.85-6.64-13.31-9.52-19.5-.25-.55-1.88-3.97-1.71-4.16Z"/>
  <path class="cls-2" d="M412.72,212.21c5.81,6.92,12.59,14.37,17.94,21.51,8.87,11.85,7.14,28.97-6.97,35.68-16.87,8.01-34.06,15.48-51.02,23.33-5.13,2.37-6.57,3.72-12.74,3.81-14.22.22-25.01-15.84-19.92-29.02,3.86-9.99,12.02-12.52,20.89-16.76,3.95-1.89,12.66-4.6,14.34-8.68,1.91-4.62.05-7.62-2.75-11.13s-7.26-7.65-9.46-11.17c-.24-.38-.45-.7-.37-1.18l39.24-18.71c.33-.07.47.05.69.25.63.54,1.64,2.23,2.29,2.99,2.6,3.03,5.25,6.04,7.82,9.09Z"/>
  <ellipse class="cls-2" cx="281.61" cy="144.97" rx="28.83" ry="28.82"/>
  <path class="cls-6" d="M354.29,222.91l5.72,19.15-14.27,6.71c-8.65,4.76-14.63,14.16-15.19,24.02-3.07.06-6.18.08-9.25.23-5.1.24-10.23.52-15.35.72-8.3.33-15.01,2.35-21.71-3.94-8.61-8.09-5.83-22.38,4.84-27.08,5.8-2.56,17.51-1.41,24.32-2.07,2.18-.21,4.7-1.05,6.25-2.63,3.26-3.33,2.34-7.09,1.24-11.09-.17-.63-1.38-3.44-1.13-3.79,10.97,4.93,23.61,4.7,34.54-.24Z"/>
  <path class="cls-4" d="M218.79,93.3c0,35.71-28.96,64.66-64.68,64.66s-64.68-28.95-64.68-64.66S118.4,28.64,154.12,28.64s64.68,28.95,64.68,64.66ZM175.35,89.46c0-18.61-15.09-33.7-33.71-33.7s-33.71,15.09-33.71,33.7,15.09,33.7,33.71,33.7,33.71-15.09,33.71-33.7Z"/>
  <path class="cls-2" d="M189.23,157.71c.45.28,2.26,5.72,2.4,6.59,1.8,10.95-6.84,23.18-9.98,33.62-1.08,3.6-1.01,7.19,1.97,9.89,1.95,1.77,5.37,2.23,7.95,2.6,13.12,1.9,28.37-.03,35.69,13.49,8.37,15.46-3.43,33.72-20.85,32.84-3.86-.2-8.33-1.2-12.25-1.66-15.6-1.83-31.18-3.55-46.75-5.54-2.44-.31-4.26-.19-6.72-.95-13.58-4.22-18.83-19.65-14.14-32.38l20.06-50.09c4.75.14,9.49.4,14.24-.03,8.01-.73,15.97-3,23.31-6.19.83-.36,4.51-2.54,5.09-2.17Z"/>
  <path class="cls-2" d="M61.97,160.48c5.67,4.22,10.15,2.57,14.16-2.58,4.4-5.65,8.52-12.5,13.11-17.83.68-.79,4.56-4.58,5.37-4.46,7.99,11.47,19.44,20.09,32.25,25.55-.86,2.2-2.05,4.24-3.37,6.2-11.43,16.96-25.32,33.11-37.15,49.85-8.41,8.2-21.08,11.27-31.15,3.89-3.06-2.24-4.26-4.61-6.5-7.41l-35.93-44.89c-10.98-16.34,2.01-36.56,21.4-34.34,12.41,1.42,20.08,17.76,27.82,26.03Z"/>
  <path class="cls-3" d="M175.35,89.46c0,18.61-15.09,33.7-33.71,33.7s-33.71-15.09-33.71-33.7,15.09-33.7,33.71-33.7,33.71,15.09,33.71,33.7ZM166.98,89.46c0-13.99-11.35-25.34-25.34-25.34s-25.34,11.34-25.34,25.34,11.35,25.34,25.34,25.34,25.34-11.34,25.34-25.34Z"/>
  <ellipse class="cls-6" cx="141.64" cy="89.46" rx="25.34" ry="25.34"/>
</svg>