<?xml version="1.0" encoding="UTF-8"?>
<svg id="Layer_1" data-name="Layer 1" xmlns="http://www.w3.org/2000/svg" viewBox="0 0 548.65 153.2">
  <defs>
    <style>
      .cls-1 {
        fill: #9f9a38;
      }

      .cls-2 {
        fill: #4ea578;
      }

      .cls-3 {
        fill: #b9bd99;
      }

      .cls-4 {
        fill: #457ab3;
      }

      .cls-5 {
        fill: #b8bd99;
      }

      .cls-6 {
        fill: #4ea579;
      }

      .cls-7 {
        fill: #52163a;
      }

      .cls-8 {
        fill: #68883a;
      }

      .cls-9 {
        fill: #6a8b68;
      }

      .cls-10 {
        fill: #43bfc6;
      }

      .cls-11 {
        fill: #b96e9f;
      }

      .cls-12 {
        fill: #62898b;
      }

      .cls-13 {
        fill: #8566ac;
      }

      .cls-14 {
        fill: #966450;
      }

      .cls-15 {
        fill: #ba453b;
      }

      .cls-16 {
        fill: #7d7ab9;
      }
    </style>
  </defs>
  <path class="cls-9" d="M533.12,152.72l-.73.48H16.74v-.24c172.12-.16,344.3.32,516.39-.24Z"/>
  <rect class="cls-7" x="17.71" width="513.48" height=".24"/>
  <path class="cls-14" d="M.49,136.96c-.1-.3-.31-.7-.49-.97V17.45l.49-.73C-.09,55.68.42,94.72.23,133.7l.25,3.26Z"/>
  <rect class="cls-14" x="548.4" y="17.45" width=".24" height="118.54"/>
  <path class="cls-2" d="M531.18.24c8.94,1.16,16.47,8.04,17.22,17.21v118.54c-.7,7.74-5.59,13.22-12.61,16-.1.04-.18.16-.24.24-.15.02-.35-.03-.49,0-.35.09-.46.24-.49.24-.08.02-.16-.02-.24,0-.38.07-.46.24-.49.24-.22.04-.49-.03-.73,0-172.09.57-344.27.08-516.39.24-.08,0-.16,0-.24,0-.04,0-.3-.18-.73-.24-.15-.02-.34.03-.49,0-.04,0-.46-.17-.73-.24-.08-.02-.17.02-.24,0-.03,0-.22-.16-.49-.24-8.51-2.72-10.73-7.44-13.34-15.27l-.25-3.26C.42,94.72-.09,55.68.49,16.73,1.79,7.86,8.91,1.4,17.71.24h513.48ZM81.25,135.63v4.85c0,1.44,1.83,4.79,2.79,5.94,4.74,5.69,11.35,4.45,17.96,4.84,5.4.31,16.3,1.85,21.02.43,6.51-1.96,9.45-8.81,9.03-15.22,3.46-.99,7.22-.76,10.49-2.36,3.05-1.5,5.68-4.73,6.51-8.04.19-.76.36-3.5.47-3.65.38-.54,3.3-.45,3.23.92l3.7,21.88h26.2l-5.82-27.01c3.25-5.92,7.55-11.43,10.87-17.28.36-.63,1.38-3.33,1.54-3.43.24-.15.85.02,1.18-.03.02.43.01.85-.06,1.28-1.75,10.09-11.74,23.73-3.34,33.03.98,1.08,2.25,1.79,3.4,2.66v10.79h20.37v-8.73c4.76-.24,9.6,1.05,14.31,0l1.21,8.73h18.68s.76-6.27.76-6.27l7.34-1.02c2.2,6.66,8.84,10.51,15.72,8.43.56-.17,2.36-1.14,2.49-1.14h9.58v-5.21c5.89-4.41,15.8-6.21,17.79-14.22.18-.71.34-3.18.43-3.32.06-.1,2.02-.55,2.24-.49.48.13,1.99,4.14,2.38,4.91,7.61,15.1,17.82,21.91,35.27,20.77,16.27-1.06,24.34-14.43,29.09-28.37,3.89,2.73,8.54,3.8,13.22,2.67l-5.09,23.27h25.47l2.46-14.51,16.11-5.6c.55.02,1.21,1.72,1.6,2.26,3.25,4.47,8.56,6.43,14.01,5.99l1.95,11.87h26.2l-3.15-14.54c3.36.13,6.08-1.67,8.6-3.63l14.44,5.45v12.73h24.98v-38.79s.4-.03.6-.23c5.17-5.05,6.84-10.12,6.19-17.34-.86-9.51-2.12-20.62-3.67-30.03-.41-2.49-.94-4.43-2.02-6.71-.19-.41-1.1-1.47-1.1-1.57v-10.54h25.23V5.58h-75.31s-.36.34-.36.36v34.06h25.47c-.13.68.35,2.88-.4,3.12-7.23.93-14.56,1.43-21.77,2.49-8.77,1.29-11.52,3.17-16.36,10.32-.21.31-.28.66-.77.56-.35-1.66.65-2.67,1.09-4.12,2.26-7.33-.41-13.68-5.88-18.61l-6.16-28.15-26.98-.05-9.98,45.34-33.59,14.66-1.45.37v-3.76c0-2.15-2.28-6.29-3.65-7.99-.28-.35-1.7-1.47-1.45-1.82l14.76-5.61c.52-.81-2.52-11.79-3.05-13.48-4.1-13.12-11.05-26.04-25.58-29.22-14.15-3.1-26.76,1.69-35.22,13.19-5.27,7.16-8.25,15.86-10.36,24.43-.3.21-6.12-.89-7.13-.94-3.24-.15-6.2.87-9.09,2.18V5.58h-32.38l-2.65,16.5c-.29.43-3.3.18-4.11.26-5.56.55-10.11,4.85-15.07,7l-3.52-23.76h-32.74v32.12c-.96.52-2.3.59-3.45.92-10.07,2.88-17.89,10.54-20.87,20.59l-1.15,4.79-12.65-58.39-26.98-.05-10.21,46.56c-.34.51-3.41.62-4.3.8-4.48.9-8.99,2.8-12.64,5.54-.72.54-2.97,2.83-3.32,2.99-.19.09-4.01.66-4.21.59-1.28-.42-.03-3.9.06-4.74.25-2.17-.05-4.37-.83-6.39-.31-.8-1.77-2.94-1.82-3.27-.11-.64,1.69-.54,1.91-.89.41-.65-1.62-8.39-1.97-9.71C82.88,18.26,73.42,1.94,51.3,3.15,20.78,4.82,13.47,42.37,12.6,66.77c-.74,20.93.86,43.44,10.88,62.13-4.26,9.11.87,18.53,11.07,19.22,4.59.31,9.45.26,14.09.46,6.65.3,14.5,2.39,19.88-2.65.85-.79,1.35-1.83,2.08-2.53,1.04-1,2.81-1.95,3.99-3.05,1.03-.96,2.57-3.31,3.38-3.9.66-.48,2.48-.6,3.29-1.08v.24Z"/>
  <path class="cls-9" d="M15.28,152.72l-.73-.24c.27.07.69.24.73.24Z"/>
  <path class="cls-9" d="M16.49,152.96l-.73-.24c.42.06.69.24.73.24Z"/>
  <path class="cls-9" d="M14.31,152.48l-.49-.24c.26.08.46.24.49.24Z"/>
  <path class="cls-9" d="M535.06,152.23l-.49.24s.13-.16.49-.24Z"/>
  <path class="cls-9" d="M534.34,152.48l-.49.24s.1-.17.49-.24Z"/>
  <path class="cls-9" d="M535.55,152.23c.06-.09.14-.2.24-.24-.03.11-.13.23-.24.24Z"/>
  <path class="cls-10" d="M81.25,135.63v-.24c-.81.48-2.63.6-3.29,1.08-.8.59-2.35,2.93-3.38,3.9-1.17,1.1-2.94,2.05-3.99,3.05-.73.7-1.23,1.73-2.08,2.53-5.39,5.04-13.24,2.95-19.88,2.65-4.64-.21-9.49-.15-14.09-.46-10.19-.69-15.32-10.11-11.07-19.22-10.02-18.68-11.63-41.19-10.88-62.13C13.47,42.37,20.78,4.82,51.3,3.15c22.12-1.21,31.58,15.11,36.67,33.88.36,1.32,2.39,9.07,1.97,9.71-.22.35-2.02.24-1.91.89.06.33,1.52,2.48,1.82,3.27.78,2.02,1.08,4.23.83,6.39-.1.83-1.34,4.32-.06,4.74.2.07,4.01-.51,4.21-.59.34-.15,2.6-2.44,3.32-2.99,3.65-2.74,8.16-4.64,12.64-5.54.88-.18,3.96-.29,4.3-.8l10.21-46.56,26.98.05,12.65,58.39,1.15-4.79c2.98-10.06,10.8-17.71,20.87-20.59,1.15-.33,2.49-.4,3.45-.92V5.58h32.74l3.52,23.76c4.95-2.15,9.51-6.45,15.07-7,.81-.08,3.82.17,4.11-.26l2.65-16.5h32.38v37.33c2.9-1.3,5.85-2.32,9.09-2.18,1.01.05,6.83,1.15,7.13.94,2.11-8.57,5.09-17.27,10.36-24.43,8.46-11.5,21.07-16.29,35.22-13.19,14.53,3.18,21.48,16.1,25.58,29.22.53,1.7,3.57,12.68,3.05,13.48l-14.76,5.61c-.25.35,1.17,1.48,1.45,1.82,1.37,1.7,3.65,5.85,3.65,7.99v3.76l1.45-.37,33.59-14.66,9.98-45.34,26.98.05,6.16,28.15c5.47,4.93,8.14,11.28,5.88,18.61-.45,1.45-1.44,2.46-1.09,4.12.5.1.56-.25.77-.56,4.84-7.15,7.59-9.03,16.36-10.32,7.21-1.06,14.54-1.55,21.77-2.49.75-.24.27-2.44.4-3.12h-25.47V5.94s.34-.36.36-.36h75.31v34.42h-25.23v10.54c0,.1.91,1.16,1.1,1.57,1.07,2.28,1.61,4.22,2.02,6.71,1.55,9.4,2.81,20.51,3.67,30.03.65,7.22-1.01,12.29-6.19,17.34-.21.2-.6.2-.6.23v38.79h-24.98v-12.73l-14.44-5.45c-2.52,1.96-5.24,3.77-8.6,3.63l3.15,14.54h-26.2l-1.95-11.87c-5.45.44-10.77-1.53-14.01-5.99-.39-.54-1.05-2.24-1.6-2.26l-16.11,5.6-2.46,14.51h-25.47l5.09-23.27c-4.68,1.14-9.33.06-13.22-2.67-4.75,13.94-12.82,27.31-29.09,28.37-17.45,1.14-27.65-5.67-35.27-20.77-.39-.77-1.89-4.77-2.38-4.91-.21-.06-2.18.39-2.24.49-.09.14-.26,2.62-.43,3.32-1.99,8.01-11.9,9.82-17.79,14.22v5.21h-9.58c-.14,0-1.94.98-2.49,1.14-6.88,2.08-13.53-1.77-15.72-8.43l-7.34,1.02-.76,6.27h-18.68s-1.21-8.73-1.21-8.73c-4.71,1.05-9.54-.24-14.31,0v8.73h-20.37v-10.79c-1.15-.87-2.42-1.58-3.4-2.66-8.4-9.3,1.59-22.94,3.34-33.03.07-.42.08-.85.06-1.28-.33.05-.94-.11-1.18.03-.16.1-1.18,2.81-1.54,3.43-3.32,5.84-7.62,11.36-10.87,17.28l5.82,27.01h-26.2l-3.7-21.88c.07-1.37-2.85-1.47-3.23-.92-.11.15-.28,2.89-.47,3.65-.83,3.31-3.46,6.54-6.51,8.04-3.27,1.61-7.03,1.37-10.49,2.36.42,6.41-2.52,13.26-9.03,15.22-4.73,1.42-15.62-.12-21.02-.43-6.61-.38-13.22.85-17.96-4.84-.96-1.15-2.79-4.51-2.79-5.94v-4.85ZM237.02,96.04c-.19.32.01.79.14,1.1.85,1.98,3.45,6.29,4.71,8.14,4.06,5.97,10.64,7.5,17.09,4.33,7.93-3.9,15.77-9.52,23.59-13.76,4.62-3.67,5.86-10.24,2.73-15.29-11.34-17.1-21.94-34.83-33.88-51.47-3.74-3-8.94-3.51-13.22-1.35-6.75,4.39-14.8,7.83-21.42,12.29-4.33,2.92-6.81,8.32-4.74,13.38l9.18,16.05c.33.21,3.5-1.07,4.36-1.24,15.22-2.96,24.77,15.65,13.36,26.44-.32.3-1.84,1.27-1.9,1.37ZM441.92,50.42c3.18-13.74-14.62-21.35-22.31-9.57,1.35-.01,2.67-.64,4.03-.82,5.87-.79,11.54,1.43,15.38,5.9l2.9,4.49ZM56.27,35.64c-5.85-1.14-10.3,2.05-13.14,6.86-4.65,7.89-5.2,17.87-5.53,26.83l.91-1.88c3.56-7.83,5.53-17.98,9.43-25.48,1.09-2.1,2.63-3.62,4.69-4.76l3.64-1.57ZM348.06,49.21c-.83-5.12-4.95-12.02-10.23-13.4-7.1-1.86-12.11,3.48-14.74,9.41l24.98,3.99ZM86.1,53.33c-.52-2.67-2.57-4.66-4.88-5.91-6.29-2.01-12.95-5.45-19.24-7.19-5.25-1.45-8.9.44-10.99,5.28-6.27,14.57-10.58,30.67-16.69,45.38-.83,4.77,1.22,9.08,5.54,11.21,6.47,3.19,14.78,4.87,21.45,7.9,5.02.65,8.8-1.21,10.68-5.94l7.82-25.51c-11.39,2.7-21.43-7.14-18.26-18.61,2.47-8.96,13.38-13.26,21.42-8.66l3.15,2.06ZM207.58,44.88c-12.79-7.07-29.27-1.88-35.71,11.14-11.43,23.13,13.73,46.8,36.15,34.19,1.25-.71,5.36-3.41,5.44-4.77.04-.78-.31-1.84-.26-2.91.18-3.98,2.16-7.43,4.6-10.42-2.6-5.24-6.12-10.04-8.77-15.24-1.53-3-2.16-5.33-1.89-8.76.06-.73.75-2.75.44-3.24ZM143.1,68.36l-4.85-25.94c-.66,5.57-2.09,11.04-2.67,16.6,1.27,1.62,3.08,2.9,4.36,4.62l3.16,4.72ZM423.67,44.18c-.61.08-1.29.36-1.88.55-18.65,8.89-38.89,15.79-57.41,24.8-6.48,3.16-8.98,8.68-7.48,15.8,3.34,7.88,5.65,16.6,9.06,24.4,2.5,5.73,7.4,9.29,13.88,8.21,20.91-8.08,42.37-15.08,62.93-23.89,1.8-1.69,3.4-2.47,3.27-5.21-.34-7.21-2.33-14.96-2.72-22.25-4.08-9.71-5.46-24.34-19.65-22.42ZM333.26,99.14c3.88-.22,8.35,1.39,12.13.37,3.37-.91,6.52-4.04,7.81-7.23,1.43-3.53-.2-4.49-.74-7.83-.7-4.35.24-8.69,2.53-12.43.39-.63,1.88-2.25,1.99-2.62.29-.92.57-4.24.55-5.29-.14-5.5-3.9-9.63-9.18-10.7-18.54-3.77-38.51-4.69-57.17-8.31-8.37-1.07-14.84,5.5-14.91,13.67,3.71,6.63,8.9,12.87,12.57,19.46,2.37,4.26,3.13,8.25,1.73,13.03-.39,1.32-1.23,2.46-1.44,3.77l32.5,2.91-3.02-2.19c-11.57-10.38-2.14-29.64,13.22-26.55,13.88,2.79,16.82,21.53,4.43,28.45-1.01.56-2.2.78-2.98,1.5ZM469.57,48.97c-6.91,1.01-13.75.36-18.67,6.19-2.9,3.43-3.65,6.95-3.4,11.38.62,10.95,3.18,22.74,4.35,33.71,2.77,7.1,8.28,10.46,15.89,10.05,10.51-.57,21.61-3.21,32.2-3.94,7.92-2.1,12.05-8.14,11.58-16.29-.6-10.51-3.2-21.6-3.94-32.18-1.12-4.54-4.05-8.38-8.34-10.33-5.15-2.35-10.23-.81-15.61-.27l3.75,2.18c13.63,10.94,1.04,32.29-15.07,25.49-10.8-4.55-12-19.11-2.75-25.98ZM488.97,61.27c0-5.92-4.8-10.72-10.72-10.72s-10.72,4.8-10.72,10.72,4.8,10.72,10.72,10.72,10.72-4.8,10.72-10.72ZM74.41,53.64c-8.33.99-12.14,11.1-6.73,17.5,2.78,3.28,7.9,4.56,11.88,2.91,2.36-.98,1.45-1.35,2.24-3.33.54-1.34,1.47-3.04,2.38-4.17,1.91-2.39,2.93-1.76,1.71-5.59-1.55-4.84-6.43-7.91-11.47-7.31ZM86.23,53.57v.24c.16-.08.16-.16,0-.24ZM113.22,56.8c-10.28.91-19.77,9.59-22.2,19.51-5.28,21.58,16.84,39.59,36.89,29.84,1.2-.58,5.61-3.29,6.09-4.34.38-.82-.29-1.88-.36-2.78-.37-4.7,1.28-9.27,5.25-11.95.65-.44,3.33-1.59,3.44-1.9,1.31-16.97-12.22-29.87-29.12-28.37ZM90.47,66.91c-3.79,1.45-5.71,5.95-5.35,9.83.04.42.59,2.63.74,2.78.41.41.41-.07.48-.36.59-2.46.79-4.56,1.7-7.04.66-1.81,1.6-3.48,2.43-5.21ZM239.74,83.27c0-6.15-4.99-11.13-11.14-11.13s-11.14,4.98-11.14,11.13,4.99,11.13,11.14,11.13,11.14-4.98,11.14-11.13ZM339.91,84.24c0-6.15-4.99-11.13-11.14-11.13s-11.14,4.98-11.14,11.13,4.99,11.13,11.14,11.13,11.14-4.98,11.14-11.13ZM90.96,99.39c-1.22-2.19-2.46-4.41-3.26-6.8-.55-1.64-.91-4.86-1.48-6.04-.45-.94-2.75-2.32-3.14-3.65l-3.52,10.9,11.4,5.58ZM185.06,96c-3.31-.93-6.69-2.89-9.32-5.11-.56-.47-3.37-3.41-3.61-3.37-1.17.2-5.81,8.87-7.09,10.39-2.28,2.72-5.03,2.2-7.38-.09-2.52-2.45-5.37-7.1-8.73-8.24-6.68-2.29-12.96,3.93-10.61,10.61.87,2.49,2.55,3.44,4.19,5.26,4.9,5.45,9.9,10.79,14.79,16.25,4.78,4.12,10.35,2.22,13.81-2.45,5-6.77,9.2-15.19,13.85-22.27l.11-.97ZM215.14,90.42c-.38-.26-.77.37-.73.83.03.29,1.1,2.13,1.33,2.81,2.08,6.33-1.67,11.19-2.78,17.2l8.49.48-2.43-16.53c-.67-.55-1.36-1.1-1.92-1.77-.46-.56-1.8-2.92-1.95-3.02ZM211.01,93.58c-.28-.2-3.09,1.47-3.71,1.73-2.04.87-4.48,1.67-6.66,2.07-.94.17-5.5.49-5.75.79-1.85,6.88-4.63,13.55-6.49,20.42-1.61,5.98.57,12.41,7.47,13.03,4.92.44,10.51.28,15.53.48,4.03.16,11.25,1.49,14.59-.67,2.31-1.49,1.48-1.96,1.88-4.18.27-1.49,1.87-3.68,1.84-4.71-.02-.77-.63-1.95-1.03-2.63-3.25-5.47-9.99-3.82-15.35-4.29-3.6-.32-5.18-2.32-4.42-5.86,1.16-5.35,5.2-10.82,2.1-16.18ZM445.56,97.45l-4.79,2.36-14.83,5.42c-.22,7.1-5.83,17.5,2.08,22.22,1.55.92,3.96,1.78,5.78,1.76,8.91-1.44,18.53-1.28,27.38-2.71,5.68-.92,9.26-6.49,7.39-12.06-4.05.53-8.18-.21-11.77-2.17-1.03-.56-3.55-2.74-4.14-2.89-.98-.26-3.31.34-4.76.16-5.78-.72-2.57-8.48-2.33-12.09ZM293.73,102.54c.17-.2-1.08-3.02-1.37-3.12-1.89.24-5.05-.85-6.75-.51-.59.12-1.69,1.24-2.31,1.58-.07.3,2.79,3.17,3.28,3.26,1.62.29,5.31-1.22,7.15-1.21ZM102.08,109.36c-2.27-1.11-4.67-2.8-6.52-4.51s-2.92-3.56-4.6-5.21c-.59,3.39-1.09,6.81-1.82,10.18-.46,2.11-2.22,7.02-2.29,8.62-.06,1.28,1.17,3.69,1.2,5.33.02,1.04-.46,2.15-.25,3.26,3.75-1.89,7.36-1.32,11.39-1.22.4-3.49,1.61-6.87,2.17-10.32.11-.71-.06-1.46.03-2.15.08-.62.83-3.78.7-3.97ZM298.34,118.3c4.34-1.39,11.94-.85,15.03-4.49,3.63-4.28-.33-8.42-2.04-12.5l-.51-.22c-4.42-.12-8.8-.95-13.21-.97,2,6.06-2.89,6.69-7.52,7.27-.11.42.17.48.36.73,2.53,3.28,7,5.6,7.89,10.18ZM72.3,132.09c2.51-.09,4.89.48,7.22-.61,3.45-1.62,4.67-5.46,4.05-9.07l-5.96-21.56c-.34.03-.38.36-.49.6-1.91,4.13-1.25,6.69-5.45,10.06-.68.55-3.2,1.76-3.28,2.31l3.92,18.27ZM341.27,104l-18.63-1.65c-.53,1.61-3.16,3.87-3.58,5.27-.61,2.05.22,3.88-.99,6.53-.37.8-2.07,2.79-2,3.24,1.17,2.82,3.03,4.63,5.79,5.87,7.56,3.39,16.3,5.45,23.94,8.8,7.44,1.59,13.05-6.69,8.51-12.87-2.48-3.38-8.57-4.17-12.32-5.86-1.42-.64-2.33-1.15-2.85-2.73-.99-3.04.98-4.13,2.11-6.6ZM265.12,110.79c-.1.36.03.56.22.85,1.86,2.85,7.45,4.99,5.44,9.54-1.29,2.92-9.6,5.09-12.08,8.29-5.19,6.68,1.89,15.72,9.65,12.55l22.8-12.61c6.92-5.92,3.28-11.13-1.65-16.45-3.19-3.43-6.75-6.53-9.83-10.07l-14.54,7.9ZM344.63,109.54c.28-.18,2.44-5.23,2.45-6.03l-4.12,5.46c-.22.51,1.49.69,1.67.58ZM136.25,105.72c-.28.04-3.8,2.69-4.62,3.16-.56.32-1.13.68-1.7.97-.77.4-3.22.99-3.33,1.78l4.52,20.69c5.92-1.08,13.19-1.07,14.1-8.64.45-3.73-2.7-10.58-4.65-13.88-.37-.63-3.1-3.57-3.64-3.89-.26-.16-.32-.25-.68-.19ZM420.78,107.42l-34.14,12.46c-.31.16-.43.39-.49.72-1.06,5.55,4.34,10.33,9.7,8.72l23.39-8.38c.7-.5.3-2.32.41-3.22.32-2.53,1.71-7.02,1.6-9.29,0-.19-.38-.96-.46-1ZM64.25,114.44c-6.14-.27-11.78-3.53-17.56-5.36-.57.11-.4,2.45-.34,3,.33,3.28,2.21,7.67,2.33,10.76.09,2.26-1.49,4.13-3.72,4.4-5.91.7-13.63-2.64-17.52,3.58-3.15,5.04-.03,12.3,5.9,12.93,8.96.96,18.62.48,27.66,1.22,4.83-.64,7.54-4.96,7.65-9.58l-4.41-20.95ZM122.46,112.51c-5.59.91-11.09.55-16.46-1.24-.34.24-.29,3.58-.22,4.22.46,4.31,5.45,14.33-2.12,14.91-3.47.27-7.71-.88-11.37-.47-7.41.84-9.67,11.94-2.47,15.8,3.04,1.63,10.85,1.18,14.61,1.4,4.55.27,10.93,1.26,15.28.99,5.09-.32,8.4-5.22,8.11-10.06l-5.36-25.55ZM472,123.63c7.89,2.48,15.51,5.85,23.4,8.25,9.51,1.03,13.23-11.56,4.25-15.64-3.56-1.62-7.63-2.28-11.03-4.27l-15.61,2c.43,3.42.23,6.43-1.01,9.66ZM260.5,113.69c-4.08,1.79-8.25,2.16-12.61,1.21.71,2.19,1.56,4.56-.33,6.46-2.56,2.56-10.16.69-13.47,3.38-4.26,3.46-2.08,10.16,3.24,10.77l15.39-1.73c.41-6.48,5.17-10.02,10.69-12.35l-2.91-7.75Z"/>
  <path class="cls-11" d="M423.67,44.18c14.18-1.92,15.57,12.71,19.65,22.42.39,7.28,2.38,15.04,2.72,22.25.13,2.74-1.47,3.52-3.27,5.21-20.56,8.81-42.02,15.81-62.93,23.89-6.48,1.08-11.38-2.48-13.88-8.21-3.41-7.8-5.72-16.52-9.06-24.4-1.5-7.12,1-12.65,7.48-15.8,18.52-9.01,38.75-15.91,57.41-24.8.59-.19,1.27-.46,1.88-.55Z"/>
  <path class="cls-1" d="M237.02,96.04c.06-.1,1.58-1.08,1.9-1.37,11.42-10.79,1.86-29.4-13.36-26.44-.85.17-4.03,1.45-4.36,1.24l-9.18-16.05c-2.08-5.06.4-10.45,4.74-13.38,6.61-4.46,14.67-7.91,21.42-12.29,4.28-2.16,9.48-1.65,13.22,1.35,11.94,16.63,22.54,34.36,33.88,51.47,3.13,5.06,1.89,11.62-2.73,15.29-7.82,4.24-15.66,9.86-23.59,13.76-6.46,3.17-13.04,1.64-17.09-4.33-1.26-1.85-3.86-6.16-4.71-8.14-.13-.31-.33-.78-.14-1.1Z"/>
  <path class="cls-12" d="M469.57,48.97c-9.26,6.86-8.05,21.43,2.75,25.98,16.12,6.8,28.71-14.55,15.07-25.49l-3.75-2.18c5.37-.53,10.46-2.08,15.61.27,4.29,1.96,7.22,5.8,8.34,10.33.75,10.58,3.35,21.67,3.94,32.18.46,8.16-3.67,14.19-11.58,16.29-10.58.74-21.69,3.37-32.2,3.94-7.62.41-13.12-2.95-15.89-10.05-1.17-10.96-3.73-22.75-4.35-33.71-.25-4.43.5-7.95,3.4-11.38,4.92-5.83,11.76-5.17,18.67-6.19Z"/>
  <path class="cls-8" d="M333.26,99.14c.78-.72,1.98-.94,2.98-1.5,12.39-6.92,9.45-25.65-4.43-28.45-15.36-3.09-24.79,16.17-13.22,26.55l3.02,2.19-32.5-2.91c.21-1.31,1.05-2.45,1.44-3.77,1.4-4.78.64-8.77-1.73-13.03-3.67-6.59-8.85-12.83-12.57-19.46.07-8.18,6.54-14.74,14.91-13.67,18.67,3.62,38.63,4.54,57.17,8.31,5.28,1.07,9.04,5.21,9.18,10.7.03,1.05-.26,4.37-.55,5.29-.11.36-1.6,1.98-1.99,2.62-2.29,3.74-3.23,8.08-2.53,12.43.54,3.35,2.16,4.3.74,7.83-1.29,3.19-4.44,6.32-7.81,7.23-3.78,1.02-8.25-.59-12.13-.37Z"/>
  <path class="cls-13" d="M113.22,56.8c16.9-1.5,30.43,11.41,29.12,28.37-.11.31-2.79,1.46-3.44,1.9-3.98,2.69-5.62,7.25-5.25,11.95.07.9.74,1.96.36,2.78-.49,1.05-4.89,3.76-6.09,4.34-20.05,9.75-42.17-8.26-36.89-29.84,2.43-9.92,11.91-18.6,22.2-19.51Z"/>
  <path class="cls-4" d="M86.1,53.33l-3.15-2.06c-8.04-4.59-18.94-.3-21.42,8.66-3.17,11.48,6.87,21.31,18.26,18.61l-7.82,25.51c-1.88,4.73-5.66,6.59-10.68,5.94-6.66-3.03-14.98-4.71-21.45-7.9-4.33-2.13-6.37-6.44-5.54-11.21,6.11-14.71,10.42-30.81,16.69-45.38,2.09-4.84,5.74-6.73,10.99-5.28,6.29,1.74,12.95,5.18,19.24,7.19,2.31,1.24,4.36,3.23,4.88,5.91Z"/>
  <path class="cls-16" d="M207.58,44.88c.31.49-.39,2.51-.44,3.24-.26,3.44.36,5.76,1.89,8.76,2.65,5.19,6.17,10,8.77,15.24-2.44,2.99-4.43,6.44-4.6,10.42-.05,1.07.31,2.13.26,2.91-.08,1.35-4.18,4.06-5.44,4.77-22.43,12.61-47.59-11.06-36.15-34.19,6.44-13.03,22.91-18.21,35.71-11.14ZM203.81,66.48c0-7.71-6.25-13.95-13.96-13.95s-13.96,6.25-13.96,13.95,6.25,13.95,13.96,13.95,13.96-6.25,13.96-13.95Z"/>
  <path class="cls-3" d="M122.46,112.51l5.36,25.55c.29,4.84-3.02,9.74-8.11,10.06-4.35.28-10.73-.72-15.28-.99-3.75-.22-11.56.23-14.61-1.4-7.2-3.86-4.94-14.96,2.47-15.8,3.66-.41,7.9.74,11.37.47,7.57-.59,2.58-10.6,2.12-14.91-.07-.64-.12-3.98.22-4.22,5.37,1.79,10.87,2.15,16.46,1.24Z"/>
  <path class="cls-3" d="M211.01,93.58c3.1,5.37-.94,10.83-2.1,16.18-.76,3.54.82,5.54,4.42,5.86,5.36.48,12.1-1.18,15.35,4.29.4.67,1.01,1.86,1.03,2.63.03,1.02-1.57,3.22-1.84,4.71-.4,2.22.42,2.69-1.88,4.18-3.34,2.16-10.56.83-14.59.67-5.02-.2-10.61-.04-15.53-.48-6.9-.62-9.08-7.05-7.47-13.03,1.85-6.87,4.64-13.54,6.49-20.42.25-.3,4.81-.62,5.75-.79,2.18-.4,4.62-1.2,6.66-2.07.62-.26,3.43-1.92,3.71-1.73Z"/>
  <path class="cls-3" d="M185.06,96l-.11.97c-4.66,7.08-8.85,15.5-13.85,22.27-3.45,4.68-9.03,6.57-13.81,2.45-4.89-5.46-9.89-10.8-14.79-16.25-1.64-1.83-3.32-2.77-4.19-5.26-2.34-6.68,3.93-12.89,10.61-10.61,3.35,1.15,6.21,5.79,8.73,8.24,2.35,2.29,5.1,2.81,7.38.09,1.27-1.52,5.92-10.18,7.09-10.39.24-.04,3.05,2.9,3.61,3.37,2.64,2.22,6.01,4.18,9.32,5.11Z"/>
  <path class="cls-3" d="M64.25,114.44l4.41,20.95c-.11,4.62-2.82,8.94-7.65,9.58-9.04-.74-18.7-.26-27.66-1.22-5.93-.63-9.05-7.89-5.9-12.93,3.88-6.22,11.61-2.88,17.52-3.58,2.24-.27,3.81-2.13,3.72-4.4-.12-3.09-2-7.48-2.33-10.76-.06-.55-.23-2.89.34-3,5.78,1.83,11.42,5.09,17.56,5.36Z"/>
  <path class="cls-3" d="M445.56,97.45c-.23,3.61-3.45,11.37,2.33,12.09,1.45.18,3.78-.42,4.76-.16.59.16,3.11,2.33,4.14,2.89,3.59,1.96,7.73,2.7,11.77,2.17,1.86,5.57-1.71,11.14-7.39,12.06-8.85,1.43-18.46,1.27-27.38,2.71-1.81.02-4.23-.84-5.78-1.76-7.91-4.72-2.3-15.12-2.08-22.22l14.83-5.42,4.79-2.36Z"/>
  <path class="cls-3" d="M265.12,110.79l14.54-7.9c3.08,3.54,6.65,6.64,9.83,10.07,4.94,5.31,8.57,10.53,1.65,16.45l-22.8,12.61c-7.75,3.17-14.84-5.87-9.65-12.55,2.48-3.2,10.79-5.37,12.08-8.29,2.01-4.55-3.58-6.68-5.44-9.54-.19-.28-.32-.49-.22-.85Z"/>
  <path class="cls-3" d="M341.27,104c-1.13,2.47-3.1,3.55-2.11,6.6.51,1.58,1.42,2.09,2.85,2.73,3.75,1.69,9.84,2.48,12.32,5.86,4.54,6.18-1.07,14.46-8.51,12.87-7.65-3.35-16.39-5.4-23.94-8.8-2.76-1.24-4.62-3.05-5.79-5.87-.06-.46,1.63-2.44,2-3.24,1.21-2.65.38-4.48.99-6.53.42-1.4,3.05-3.66,3.58-5.27l18.63,1.65Z"/>
  <path class="cls-3" d="M472,123.63c1.24-3.23,1.43-6.24,1.01-9.66l15.61-2c3.4,1.99,7.46,2.65,11.03,4.27,8.98,4.08,5.26,16.67-4.25,15.64-7.89-2.4-15.51-5.77-23.4-8.25Z"/>
  <path class="cls-5" d="M420.78,107.42c.08.04.45.81.46,1,.11,2.27-1.28,6.76-1.6,9.29-.11.9.29,2.72-.41,3.22l-23.39,8.38c-5.36,1.61-10.76-3.17-9.7-8.72.06-.33.18-.56.49-.72l34.14-12.46Z"/>
  <ellipse class="cls-15" cx="228.6" cy="83.27" rx="11.14" ry="11.13"/>
  <ellipse class="cls-15" cx="328.77" cy="84.24" rx="11.14" ry="11.13"/>
  <path class="cls-5" d="M260.5,113.69l2.91,7.75c-5.52,2.32-10.28,5.86-10.69,12.35l-15.39,1.73c-5.32-.62-7.5-7.31-3.24-10.77,3.32-2.7,10.91-.82,13.47-3.38,1.9-1.9,1.04-4.26.33-6.46,4.36.94,8.53.58,12.61-1.21Z"/>
  <ellipse class="cls-15" cx="478.25" cy="61.27" rx="10.72" ry="10.72"/>
  <path class="cls-3" d="M136.25,105.72c.36-.05.42.04.68.19.53.31,3.27,3.26,3.64,3.89,1.96,3.3,5.1,10.15,4.65,13.88-.91,7.58-8.19,7.56-14.1,8.64l-4.52-20.69c.11-.79,2.56-1.38,3.33-1.78.56-.29,1.14-.65,1.7-.97.82-.47,4.35-3.12,4.62-3.16Z"/>
  <path class="cls-15" d="M74.41,53.64c5.04-.6,9.92,2.48,11.47,7.31,1.23,3.83.21,3.21-1.71,5.59-.9,1.13-1.84,2.83-2.38,4.17-.79,1.98.12,2.35-2.24,3.33-3.97,1.65-9.1.37-11.88-2.91-5.41-6.4-1.59-16.51,6.73-17.5Z"/>
  <path class="cls-5" d="M298.34,118.3c-.89-4.58-5.36-6.9-7.89-10.18-.19-.24-.47-.31-.36-.73,4.63-.58,9.52-1.22,7.52-7.27,4.41.02,8.79.85,13.21.97l.51.22c1.7,4.08,5.67,8.21,2.04,12.5-3.09,3.64-10.68,3.1-15.03,4.49Z"/>
  <path class="cls-5" d="M72.3,132.09l-3.92-18.27c.08-.55,2.6-1.76,3.28-2.31,4.2-3.38,3.55-5.93,5.45-10.06.11-.24.15-.57.49-.6l5.96,21.56c.62,3.61-.59,7.45-4.05,9.07-2.33,1.09-4.71.52-7.22.61Z"/>
  <path class="cls-6" d="M102.08,109.36c.14.19-.61,3.35-.7,3.97-.09.69.09,1.45-.03,2.15-.56,3.45-1.77,6.83-2.17,10.32-4.03-.1-7.63-.66-11.39,1.22-.21-1.11.27-2.21.25-3.26-.04-1.64-1.26-4.05-1.2-5.33.07-1.6,1.83-6.51,2.29-8.62.73-3.37,1.23-6.79,1.82-10.18,1.68,1.66,2.84,3.59,4.6,5.21,1.86,1.72,4.25,3.4,6.52,4.51Z"/>
  <path class="cls-6" d="M348.06,49.21l-24.98-3.99c2.63-5.93,7.64-11.27,14.74-9.41,5.28,1.39,9.41,8.29,10.23,13.4Z"/>
  <path class="cls-6" d="M56.27,35.64l-3.64,1.57c-2.06,1.14-3.61,2.67-4.69,4.76-3.9,7.5-5.87,17.65-9.43,25.48l-.91,1.88c.33-8.95.88-18.93,5.53-26.83,2.84-4.82,7.29-8,13.14-6.86Z"/>
  <path class="cls-15" d="M441.92,50.42l-2.9-4.49c-3.84-4.47-9.51-6.7-15.38-5.9-1.36.18-2.68.81-4.03.82,7.69-11.78,25.49-4.17,22.31,9.57Z"/>
  <path class="cls-6" d="M215.14,90.42c.15.1,1.49,2.46,1.95,3.02.56.68,1.25,1.23,1.92,1.77l2.43,16.53-8.49-.48c1.11-6.01,4.86-10.87,2.78-17.2-.23-.68-1.3-2.52-1.33-2.81-.04-.46.35-1.09.73-.83Z"/>
  <path class="cls-6" d="M90.96,99.39l-11.4-5.58,3.52-10.9c.39,1.33,2.69,2.71,3.14,3.65.57,1.18.93,4.4,1.48,6.04.81,2.39,2.05,4.6,3.26,6.8Z"/>
  <path class="cls-6" d="M143.1,68.36l-3.16-4.72c-1.28-1.72-3.09-3-4.36-4.62.58-5.56,2.01-11.03,2.67-16.6l4.85,25.94Z"/>
  <path class="cls-6" d="M293.73,102.54c-1.83,0-5.53,1.51-7.15,1.21-.49-.09-3.36-2.96-3.28-3.26.61-.33,1.72-1.46,2.31-1.58,1.71-.34,4.87.75,6.75.51.29.1,1.54,2.92,1.37,3.12Z"/>
  <path class="cls-15" d="M90.47,66.91c-.83,1.73-1.77,3.39-2.43,5.21-.91,2.48-1.11,4.57-1.7,7.04-.07.29-.07.77-.48.36-.15-.15-.7-2.36-.74-2.78-.36-3.88,1.55-8.38,5.35-9.83Z"/>
  <path class="cls-6" d="M344.63,109.54c-.18.11-1.89-.07-1.67-.58l4.12-5.46c-.01.8-2.18,5.86-2.45,6.03Z"/>
  <path class="cls-4" d="M86.23,53.57c.16.08.16.16,0,.24v-.24Z"/>
  <path class="cls-10" d="M203.81,66.48c0,7.71-6.25,13.95-13.96,13.95s-13.96-6.25-13.96-13.95,6.25-13.95,13.96-13.95,13.96,6.25,13.96,13.95ZM199.56,66.48c0-5.36-4.35-9.7-9.71-9.7s-9.71,4.34-9.71,9.7,4.35,9.7,9.71,9.7,9.71-4.34,9.71-9.7Z"/>
  <ellipse class="cls-15" cx="189.85" cy="66.48" rx="9.71" ry="9.7"/>
</svg>