<?xml version="1.0" encoding="UTF-8"?>
<svg id="Layer_1" data-name="Layer 1" xmlns="http://www.w3.org/2000/svg" viewBox="0 0 234.96 748.97">
  <defs>
    <style>
      .cls-1 {
        fill: #43bdc5;
      }

      .cls-2 {
        fill: #b86e9f;
      }

      .cls-3 {
        fill: #4479b2;
      }

      .cls-4 {
        fill: #43bec6;
      }

      .cls-5 {
        fill: #7491c3;
      }

      .cls-6 {
        fill: #7492c3;
      }

      .cls-7 {
        fill: #8373b5;
      }

      .cls-8 {
        fill: #475f3b;
      }

      .cls-9 {
        fill: #b7bc99;
      }

      .cls-10 {
        fill: #7d79b9;
      }

      .cls-11 {
        fill: #9e9938;
      }

      .cls-12 {
        fill: #b9443b;
      }

      .cls-13 {
        fill: #b8bc99;
      }

      .cls-14 {
        fill: #ba443b;
      }

      .cls-15 {
        fill: #68873a;
      }
    </style>
  </defs>
  <path class="cls-14" d="M234.96,29.88v688.39h-.21V31.82c-.2-2.66-.59-5.19-1.29-7.76-.64-2.31-1.64-4.76-2.62-6.76,1.23,1.81,2.04,3.89,2.73,6.02l1.39,6.54Z"/>
  <path class="cls-12" d="M234.96,718.27v1.03l-1.34,6.39c-3.15,10.39-11.55,18.76-21.93,21.94l-6.38,1.34H29.86c-6.44-.77-11.61-2.92-16.68-6.8,1.09.3,1.96,1.32,2.84,1.84,4.69,2.75,10.19,4.44,15.78,4.77h170.11c18.07-.73,30.87-12.57,32.83-30.5h.21Z"/>
  <path class="cls-5" d="M15.24,5.56C20.01,2.65,26.11.73,32.01.4h170.93c6.05.21,12.04,2.32,16.98,5.16.18.11.38.28.62.41l1.67,1.52c3.7,2.39,6.22,6.28,8.62,9.81.98,2,1.98,4.44,2.62,6.76.71,2.57,1.09,5.1,1.3,7.76v686.45c-1.98,17.93-14.78,29.77-32.84,30.5H31.81c-5.59-.33-11.09-2.02-15.78-4.77-.88-.52-1.76-1.53-2.84-1.84-.25-.19-.62-.45-.82-.62-.46-.84-1.51-1.36-2.27-2.06-.26-.24-.38-.36-.62-.62-.64-.7-1.04-1.7-1.85-2.06-.2-.28-.42-.54-.62-.82-3.82-5.37-6.18-11.77-6.6-18.43V31.82c.35-6.74,2.74-13.21,6.6-18.64.2-.28.41-.55.62-.82.81-.36,1.21-1.36,1.85-2.06.24-.26.36-.38.62-.62.66-.61,1.49-1.39,2.06-1.85.98-.81,2-1.6,3.09-2.27ZM130.14,60.99v-4.74H48.6V22.05h-26.77v101.79h26.77v-34.2h48.19c-.37.95-1.06,1.78-1.55,2.67-6.17,11.26-4.09,21.75-2.33,33.87.21,1.42.62,2.81.78,4.23l-71.75,27-.1,36.55,108.32,40.73v-3.91c2.89.76,5.84,1.26,8.83,1.47l3.94,11.51-9.93.88c-5.74,1.2-9.96,6.41-9.84,12.31l-2.36-2.89c-6.92-7.43-16.26-11.85-26.05-14.21l-8.86,29.46c9.07,1.97,18.33,5.86,20.5,15.86,1.94,8.95-.67,19.01-9.37,23.19-9.64,4.63-32.18,4.8-41.61-.41-14.15-7.82-14.06-29.44,1.04-36.06.7-.31,3.19-.99,3.5-1.24.14-.11.22-.22.21-.41l-6.39-29.16c-6.23,1.67-12.54,4.86-17.6,8.87-15.4,12.2-18.07,33.29-15.52,51.79,4.72,34.28,32.71,46.73,64.73,43.19,16.1-1.78,32.73-10.25,40.57-24.92.73-1.37,1.21-3.01,1.9-4.27.13-.24-.01-.35.46-.26.27,1.46,2.56,4.34,2.47,5.65-.02.32-2.2,3.73-2.57,4.65-4.75,11.88,3.11,23.91,15.47,25.52.57.07,1.98-.14,2.25.23-.33,4,1.83,7.82,2.77,11.65.09.42-1.06.49-1.35.51-6.54.59-12.93-.86-16.34,6.52l-.85,2.34v-9.48H21.83v43.78l65.69,17.1-65.69,17.1v43.99h64.76c.12,0,1.34,1.39,1.65,1.64,2.19,1.73,4.88,2.98,7.68,3.34l7.15,14.79.09.63-81.13,30.39-.18,36.75,76.43,28.71c7.71,11.21,21.93,17.13,35.35,13.97l6.19,9.47c-3.93,1.57-8.35,2.37-11.68,5.12-3.27-.45-6.76-.25-10.02-.61-1.96-.22-4.14-2.44-5.91-3.56-5.35-3.39-11.36-5.58-17.48-7.13l-8.86,29.46c4.89,1.03,9.92,2.68,13.9,5.77.34,5.64-.46,11.36-.11,17.01.24,3.84,1.73,7.28,4.1,10.26-3.87,6.33-11.67,8.23-18.61,9-9.16,1.01-23.28.97-31.18-4.24-12.68-8.36-12.02-28.73,2.17-35.08.75-.34,3.47-1.11,3.78-1.37.21-.17.24-.34.19-.59l-6.38-28.98c-6.81,1.83-13.58,5.4-18.95,9.99-18.9,16.16-19.16,54.2-5.72,73.73,14.45,21,46.94,24.84,69.67,17.25,3.91-1.3,7.45-3.34,11.08-5.18,2.55,3.41,7.16,4.9,11.31,4.09l13.42-4.5c1.13,3.53,5.08,6.69,8.72,7.17,6.65.88,14.18,1.01,20.95,1.5,2.57.19,3.63.65,6.32-.06,5.68-1.5,8.66-6.94,8.58-12.59l-4.28-23.81c7.4-.93,12.64-7.22,13.17-14.54.58-8.09-.24-16.98.21-25.15-.61-6.48-4.86-12.68-11.29-14.46-2.74-.76-5.66-.62-8.49-.88v-4.02c0-1.23-1.05-3.6-1.69-4.7l-13.86-19.73c-.33-.33.38-1.41.62-1.41.05,0,.68.49.82.6,4.36,3.3,8.41,7.64,12.78,10.91,6.03,4.51,14.48,3.27,18.12-3.49,2.74-7.28,7.68-14.63,10.29-21.85,3.37-9.33-5.47-18.22-14.78-14.79-6.09,2.25-6.96,8.35-9.93,13.34-3.53-2.73-6.46-6.39-10.71-8.03-.77-8.36-4.65-16.3-10.8-21.95,5.38-3.19,13.18-4.2,15.6-10.76,3.56-9.64-6.01-16.28-11.07-23.04-.15-.21-.76-.94-.62-1.12,3.1-1.57,6.67-2.78,9.45-4.86,6.1-4.57,8.45-12.65,5.61-19.8l-15.28-28.09c3.26.65,6.68,2.84,9.98,3.1,9.48.75,16.3-8.69,12.77-17.52-2.79-6.97-10.15-7.64-16.29-10.08-.15-.06-.43.05-.28-.32.1-.26,2.21-3.1,2.41-3.16,10.61,1.45,19.05-5.32,20.45-15.8,1.13-8.42,1.09-17.29,2.28-25.74.2-3.4-.62-6.55-2.07-9.59.26,0,.52-.06.76-.16,5.05-2.31,11.48-4.86,16.19-7.5,7.99-4.48,8.94-14.74,3.23-21.49l-10.5-12.57c2.73-1.72,5.87-2.7,8.63-4.35,8.83-5.27,12.21-15.99,7.67-25.36-11.76-20.34-22.16-41.51-33.98-61.81-.51-.88-2.12-2.84-2.35-3.42-.47-1.16-.03-3.65-.97-5l-8.83-23.67c.22-.3,1.06-.91,1.39-.72l11.34,16.16c5.46,5.57,13.85,6.4,19.37.41,4.8-6.79,11.45-12.91,16.26-19.58,9.05-12.55-8.22-27.24-19.25-15.35-2,2.15-3.76,4.82-5.76,7-2.11-2.56-3.78-5.82-5.87-8.34-.48-.58-2.89-2.6-2.98-2.78-.32-.64.28-3.49.32-4.42.41-10.12-3.3-19.65-10.07-27.04l.16-.38,8.22-8.48c3.75-5.18,3.1-11.38-.79-16.24-2.34-2.92-5.53-4.13-8.66-5.99,4.75-7.11,6.5-14.53,5.78-23.06-1.24-14.62-2.68-27.76-15.7-36.62l-3.24-2.01c3.62-.78,6.87-3.83,7.43-7.6l3.65.22c3.24,5.19,6.15,10.85,9.5,15.94,4.27,6.49,11.39,7.21,17.51,2.68,4.84-5.58,10.72-10.63,15.55-16.17,10.28-11.81-5.31-25.16-15.25-15.87-1.55,1.45-3.13,3.5-4.62,5.06-.25.26-1.39,1.53-1.65,1.33-.04-.82-1.59-2.29-1.42-2.94.05-.17,1.39-2.01,1.65-2.48,4-7.13,7.07-12.64,5.91-21.23-1.56-11.48-11.05-18.81-21.34-22.54s-22.68,0-29.01,9.4c-5.98,8.87-9.51,18.57-5.05,29.01,1.12,2.62,2.93,4.94,3.33,7.9l-8.65.62Z"/>
  <path class="cls-12" d="M7,13.19C3.15,18.62.76,25.09.4,31.82v685.73c.41,6.66,2.78,13.06,6.6,18.43-4.09-4.72-6.11-11.03-6.8-17.2V30.59c.62-6.23,2.69-12.65,6.8-17.4Z"/>
  <path class="cls-12" d="M219.92,5.56c-4.94-2.84-10.93-4.95-16.98-5.16H32.01c-5.9.33-12,2.25-16.77,5.16C19.62,2.25,25.16.8,30.57.2h173.82c5.48.54,11.1,2.02,15.54,5.37Z"/>
  <path class="cls-12" d="M230.84,17.31c-2.4-3.54-4.93-7.42-8.62-9.81l-1.67-1.52c4.17,2.44,8.17,6.98,10.3,11.33Z"/>
  <path class="cls-12" d="M12.36,741.55c-.75-.62-1.73-1.12-2.27-2.06.76.7,1.81,1.22,2.27,2.06Z"/>
  <path class="cls-12" d="M9.47,738.87c-.87-.5-1.31-1.32-1.85-2.06.81.36,1.21,1.36,1.85,2.06Z"/>
  <path class="cls-12" d="M12.15,7.83c-.56.46-1.4,1.25-2.06,1.85.56-.65,1.21-1.59,2.06-1.85Z"/>
  <path class="cls-12" d="M7.62,12.36c.55-.74.98-1.56,1.85-2.06-.64.7-1.04,1.7-1.85,2.06Z"/>
  <path class="cls-4" d="M130.14,60.99l8.65-.62c-.4-2.96-2.21-5.27-3.33-7.9-4.45-10.44-.92-20.14,5.05-29.01,6.33-9.39,18.29-13.28,29.01-9.4s19.78,11.06,21.34,22.54c1.16,8.59-1.91,14.1-5.91,21.23-.27.47-1.61,2.31-1.65,2.48-.17.66,1.37,2.13,1.42,2.94.26.19,1.4-1.07,1.65-1.33,1.49-1.56,3.07-3.61,4.62-5.06,9.94-9.28,25.53,4.07,15.25,15.87-4.82,5.54-10.7,10.59-15.55,16.17-6.12,4.53-13.24,3.81-17.51-2.68-3.35-5.09-6.26-10.75-9.5-15.94l-3.65-.22c-.57,3.78-3.81,6.82-7.43,7.6l3.24,2.01c13.02,8.87,14.47,22,15.7,36.62.72,8.53-1.02,15.95-5.78,23.06,3.13,1.87,6.32,3.08,8.66,5.99,3.89,4.85,4.54,11.06.79,16.24l-8.22,8.48-.16.38c6.77,7.39,10.48,16.92,10.07,27.04-.04.94-.63,3.79-.32,4.42.09.18,2.5,2.2,2.98,2.78,2.09,2.51,3.77,5.78,5.87,8.34,2-2.19,3.77-4.85,5.76-7,11.04-11.9,28.3,2.8,19.25,15.35-4.81,6.67-11.46,12.8-16.26,19.58-5.52,5.99-13.91,5.16-19.37-.41l-11.34-16.16c-.33-.2-1.17.41-1.39.72l8.83,23.67c.94,1.35.5,3.84.97,5,.24.58,1.84,2.54,2.35,3.42,11.82,20.3,22.22,41.47,33.98,61.81,4.54,9.37,1.16,20.1-7.67,25.36-2.76,1.65-5.91,2.63-8.63,4.35l10.5,12.57c5.71,6.75,4.76,17.01-3.23,21.49-4.71,2.64-11.14,5.2-16.19,7.5-.24.11-.5.17-.76.16,1.45,3.04,2.26,6.18,2.07,9.59-1.19,8.45-1.15,17.32-2.28,25.74-1.4,10.48-9.83,17.25-20.45,15.8-.19.06-2.3,2.9-2.41,3.16-.14.37.13.27.28.32,6.14,2.44,13.5,3.11,16.29,10.08,3.53,8.83-3.29,18.27-12.77,17.52-3.3-.26-6.72-2.45-9.98-3.1l15.28,28.09c2.84,7.15.49,15.23-5.61,19.8-2.78,2.08-6.35,3.29-9.45,4.86-.14.19.47.92.62,1.12,5.06,6.75,14.63,13.4,11.07,23.04-2.42,6.56-10.22,7.57-15.6,10.76,6.16,5.65,10.04,13.59,10.8,21.95,4.25,1.64,7.18,5.3,10.71,8.03,2.97-4.99,3.84-11.1,9.93-13.34,9.3-3.43,18.15,5.46,14.78,14.79-2.61,7.21-7.55,14.56-10.29,21.85-3.64,6.76-12.09,8.01-18.12,3.49-4.37-3.27-8.41-7.61-12.78-10.91-.15-.11-.77-.6-.82-.6-.24,0-.95,1.08-.62,1.41l13.86,19.73c.64,1.1,1.69,3.47,1.69,4.7v4.02c2.83.26,5.74.12,8.49.88,6.43,1.78,10.68,7.98,11.29,14.46-.45,8.18.38,17.06-.21,25.15-.53,7.31-5.77,13.6-13.17,14.54l4.28,23.81c.08,5.65-2.9,11.08-8.58,12.59-2.7.71-3.76.25-6.32.06-6.77-.49-14.3-.62-20.95-1.5-3.64-.48-7.59-3.64-8.72-7.17l-13.42,4.5c-4.15.81-8.75-.68-11.31-4.09-3.63,1.83-7.18,3.87-11.08,5.18-22.74,7.58-55.22,3.75-69.67-17.25-13.44-19.52-13.17-57.57,5.72-73.73,5.36-4.59,12.13-8.16,18.95-9.99l6.38,28.98c.05.25.01.42-.19.59-.31.25-3.03,1.03-3.78,1.37-14.19,6.35-14.85,26.72-2.17,35.08,7.9,5.21,22.02,5.25,31.18,4.24,6.93-.77,14.74-2.67,18.61-9-2.37-2.98-3.86-6.41-4.1-10.26-.35-5.65.45-11.37.11-17.01-3.97-3.1-9.01-4.74-13.9-5.77l8.86-29.46c6.12,1.54,12.13,3.73,17.48,7.13,1.77,1.13,3.96,3.34,5.91,3.56,3.26.36,6.75.16,10.02.61,3.32-2.75,7.74-3.55,11.68-5.12l-6.19-9.47c-13.42,3.16-27.63-2.76-35.35-13.97l-76.43-28.71.18-36.75,81.13-30.39-.09-.63-7.15-14.79c-2.79-.36-5.49-1.61-7.68-3.34-.31-.25-1.54-1.64-1.65-1.64H21.83v-43.99l65.69-17.1-65.69-17.1v-43.78h108.31v9.48l.85-2.34c3.41-7.38,9.8-5.93,16.34-6.52.29-.03,1.44-.09,1.35-.51-.94-3.83-3.1-7.65-2.77-11.65-.27-.37-1.68-.15-2.25-.23-12.36-1.61-20.21-13.64-15.47-25.52.37-.92,2.54-4.33,2.57-4.65.09-1.31-2.2-4.19-2.47-5.65-.47-.09-.33.03-.46.26-.69,1.27-1.17,2.9-1.9,4.27-7.84,14.67-24.47,23.15-40.57,24.92-32.02,3.53-60.02-8.92-64.73-43.19-2.54-18.5.12-39.59,15.52-51.79,5.06-4.01,11.37-7.2,17.6-8.87l6.39,29.16c0,.19-.07.3-.21.41-.31.25-2.79.93-3.5,1.24-15.1,6.62-15.19,28.23-1.04,36.06,9.42,5.21,31.96,5.05,41.61.41,8.7-4.18,11.31-14.25,9.37-23.19-2.17-10-11.43-13.89-20.5-15.86l8.86-29.46c9.79,2.36,19.12,6.79,26.05,14.21l2.36,2.89c-.12-5.89,4.1-11.11,9.84-12.31l9.93-.88-3.94-11.51c-2.99-.21-5.93-.71-8.83-1.47v3.91l-108.32-40.73.1-36.55,71.75-27c-.16-1.43-.57-2.81-.78-4.23-1.75-12.12-3.84-22.61,2.33-33.87.49-.89,1.18-1.72,1.55-2.67h-48.19v34.2h-26.77V22.05h26.77v34.2h81.54v4.74ZM180.8,49.86c1.77-2.1,2.92-5.37,3.09-8.13.72-11.15-6.62-16.45-15.79-20.48-6.98-3.06-14.91-1.41-20.05,4.19-2.07,2.25-6.46,10.33-7.11,13.28-1.47,6.7,1.3,14.28,6.92,18.23,1.32.93,6.74,4,8.12,4.44.13.04.35.04.3-.1-6.77-16.35,16.35-27.05,24.51-11.44ZM175.11,55.83c0-3.57-2.89-6.47-6.46-6.47s-6.46,2.9-6.46,6.47,2.89,6.47,6.46,6.47,6.46-2.9,6.46-6.47ZM171.33,69.03c-.07.27.08.37.17.55,2.1,4.44,5.92,8.84,8.07,13.35,1.51,1.99,3.39,1.93,5.54,1.01,4.93-4.94,10.58-10.07,15.16-15.33,1.43-1.64,3.11-3.54,1.63-5.76-1.33-2-3.91-2.56-5.76-.85-4.14,3.82-7.72,10.87-14.58,7.6-1.99-.95-2.16-2.45-3.33-3.46-.65-.56-1.61.78-2.3,1.19-1.3.79-3.08,1.63-4.6,1.69ZM145.1,63.89c-.21.06-.97,1.37-1.37,1.74-2.92,2.72-8.52,1.92-12.21,2.41-1.89,1-1.3,3.58.77,3.68l18.65-.93c1.25-.46,2.53-1.44,1.86-2.91-1.01-.52-7.11-4.16-7.7-3.98ZM136.94,81.18c-1.27-.02-2.55.08-3.81.21-5.39.53-14.02,1.19-18.84,3.2-10.53,4.4-16.66,14.31-16.07,25.75.25,4.73,1.1,11.12,1.88,15.84,1.6,9.66,9.29,18.04,18.71,20.63,6.01,1.66,17.99-.1,24.37-1.16,12.9-2.16,22.5-14.36,21.34-27.48l-1.85-15.35c-1.23,1.67-2.24,3.34-3.81,4.73-7.96,7.08-20.5,5.23-26-3.85-4.61-7.61-2.66-16.98,4.08-22.52ZM157.39,94.78c0-5.5-4.46-9.96-9.95-9.96s-9.95,4.46-9.95,9.96,4.46,9.96,9.95,9.96,9.95-4.46,9.95-9.96ZM150.73,160.92c2.74.54,5.5,1.93,7.96,3.26.52.28,2.22,1.55,2.6,1.46l8.14-8.36c4.04-6.58-3.71-9.66-8.27-12.28-.19-.13-.34-.13-.56-.07-.35.1-3.46,2.68-4.26,3.17-2.08,1.29-4.35,2.32-6.65,3.13,2.21,2.51,2.63,5.35,1.59,8.5-.16.48-.54.71-.56,1.18ZM112.43,152.06c1.06,2.49,1.57,4.81.51,7.42-1.93,4.74-8.6,4.28-12.76,5.58-2.21.69-3.7,2.97-2.26,5.13,1.14,1.71,2.64,1.63,4.46,1.4,5.23-.68,13.36-2.53,18.49-3.95,2.63-.73,4.9-2.07,4.18-5.22l-4.08-7.87c-2.91-.65-5.79-1.32-8.55-2.47ZM144.49,157.15c.11-.13.18-.29.22-.46-1.78-1.31-3.87-2.34-5.87-3.36l-9.74,1.2c-.24.23,2.79,4.92,2.68,5.77,1.54-.24,3.07-.65,4.63-.82,1.44-.16,4.75.04,5.72-.25.15-.04,2.15-1.86,2.35-2.08ZM88.75,164.22l-38.72,11.85,38.72,11.85v-23.7ZM137.51,166.54c-1.37.1-4.71.51-5.8,1.2-.61.39-1.29,1.97-1.88,2.65-1.01,1.18-3.08,2.73-4.53,3.3-1.56.61-4.29.75-5.45,1.35-2.95,1.55-7.15,10.24-7.94,13.48-6.72,27.55,26.14,48.16,47.47,29.57,21.79-19,6.95-53.66-21.87-51.56ZM174.01,209.75c-.55,1.47-1.24,2.9-2.03,4.26-1.07,1.85-2.47,3.46-3.49,5.29l11.08,15.69c1.78,2.16,5.04,3.98,7.76,2.42.61-.35,1.52-1.34,2.02-1.89,5.31-5.79,9.94-12.67,15.34-18.44,3.63-4.93-2.9-10.96-7.55-6.83-4.35,3.87-7.06,12.41-14.69,9.3-3.4-1.38-5.37-6.95-7.83-9.47-.2-.2-.27-.39-.61-.31ZM155.86,228.93c-3.12.99-6.13,2.43-9.46,2.66-.34.34,2.9,7.89,3.24,9.02.64,2.17.81,4.01-.11,6.16-2.22,5.22-10.56,4.06-15.13,4.85-1.98.34-3.88,2.4-4.07,4.37-.44,4.49,3.89,6.45,7.73,5.27,7.29-1.03,15.46-.83,22.64-2.07,3.05-.53,4.46-4.5,3.77-7.26l-8.62-23.01ZM153.62,349.25c-.29.39,1.73,1.72,2.08,1.94,3.57,2.19,7.76,2.63,11.72,1.25,10.53-5.42,21.8-9.73,31.82-15.96,4.54-4.27,5.01-10.73,1.65-15.88l-32.13-58.3c-2.02,2.21-4.68,3.58-7.64,4.1-8.04.25-16.29,1.95-24.27,2.3-2.41.1-3.92-.06-6.19-.83-.54-.18-1.28-.73-1.7-.8-.67-.11-3.88,1.63-4.57,2.14-3.82,2.87-6.19,7.95-4.44,12.66l16.59,34.4c1.34-.29,2.52-1.01,3.85-1.37,20.51-5.51,33.13,21.99,14.19,33.98-.27.17-.93.34-.96.38ZM156.77,332.76c0-6.29-5.1-11.39-11.39-11.39s-11.39,5.1-11.39,11.39,5.1,11.39,11.39,11.39,11.39-5.1,11.39-11.39ZM177.44,371.43c-3.29,3.29-13.21,4.3-14.09,9.49-.79,4.62,3.51,8.35,7.93,6.9l24.5-11.34c4.1-2.4,3.85-7.12,1.18-10.53l-11.5-13.84-.42-.19-10.61,5.26c1.95,2.99,4.72,4.86,5.1,8.7.15,1.47-1.02,4.47-2.08,5.54ZM163.29,360.38c-2.9.11-5.68-.7-8.43-1.45,1.23,3.28,1.63,6.9-1.02,9.59-3.05,3.1-9.42,2.11-13.5,2.57-3.26.36-4.27,4.67-1.7,6.66,1.49,1.15,2.24.57,3.75.54,4.85-.09,9.71-.31,14.53-.7,1.05-2.62,2.87-4.97,5.28-6.46.56-.34,3.66-1.68,3.74-2.02l-2.66-8.73ZM130.14,377.06v3.91l1.65-.11-1.65-3.81ZM175.84,393.76c-1.42.35-2.61,1.06-4.09,1.34-4.62.87-9.29-.84-12.47-4.23-.79-.84-.64-1.64-2.08-1.84-11.63-.13-23.2-.93-34.77-1.26-1.47-.04-2.96.05-4.44.01,2.39,2.58,4.26,5.48,4.88,9.03,2.12,12.13-9.47,21.8-21.05,17.56-1.19-.44-2.24-1.13-3.39-1.65-.1,4.57-1.89,9.42,1.06,13.46,1.37,1.87,3.33,2.99,5.65,3.2,20.32,1.57,40.6,3.83,60.92,5.18,4.3-.65,8.01-4.32,8.7-8.61.37-8.63,1.98-17.28,2.33-25.9.1-2.38-.1-4.17-1.26-6.28ZM93.9,390.45h-45.71l43.37,11.31c.61.13.08-.42.08-.49v-3.3c0-.36.43-2.04.56-2.53.45-1.7,1.43-3.23,1.71-4.99ZM116.01,399.62c0-4.76-3.86-8.63-8.62-8.63s-8.62,3.86-8.62,8.63,3.86,8.63,8.62,8.63,8.62-3.86,8.62-8.63ZM124.55,438.28l-7.57-.62c-.38,3.89-3.17,6-6.92,6.37-2.97.29-6.88-.72-9.63-.16-3.03.62-2.78,5.86.17,6.33,2.03.32,4.32.12,6.37.22,3.23.16,6.44.31,9.69.4,2.31.07,6.4.86,8.32-.52,1.51-1.08,1.6-2.31,1.4-4.05-.29-2.56-1.39-5.39-1.82-7.96ZM153.2,440.73l-12.52-.99c-1.52,2.64-3.82,5.14-5.36,7.72-2.29,3.84-.61,7.48,3.26,9.23,7.46,3.37,16.34,5.34,23.92,8.62,6.99,1.38,10.09-7.58,3.1-10.52-6.3-2.65-15.94-3.15-12.93-12.83.15-.49.46-.77.52-1.23ZM47.98,457.62h35.83c.55-3.23,2.47-6.42,4.83-8.66.72-.68,2.49-1.45,2.27-2.47l-42.93,11.13ZM142.65,465.71c-3.6-1.51-7.74-2.19-10.75-4.8-1.41-1.21-2.46-2.77-3.5-4.29-3.01,1.95-6.45,1.71-9.9,1.63-3.75-.09-7.56-.45-11.31-.64-4.85-.24-9.8.54-13.39-3.49-2.65,2.23-4.04,5.82-2.82,9.2,9.45,19.34,18.54,38.87,28.25,58.07,2.96,3.49,7.57,4.94,12,3.56,8.19-4.24,17.11-7.72,25.21-12.07,4.62-2.48,7.17-7.13,5.25-12.34l-19.03-34.84ZM138.59,529.34c-.32.46,2.24,3.03,2.66,3.6,1.77,2.39,2.3,4.63,1.39,7.56-1.41,4.52-7.76,5.52-11.45,7.71-4.79,2.85-1.01,9.46,3.59,7.92,6.74-3.6,14.03-6.25,20.83-9.65,3.08-1.55,3.64-4.64,1.84-7.48l-10.84-13.06h-.82s-7.2,3.41-7.2,3.41ZM121.7,531.59c.1,1.32.9,2.87.81,4.19-.11,1.58-.92,3.64-2.04,4.78-3.07,3.12-8.96,2.02-12.97,2.68-1.72.91-1.96,2.85-.43,4.12,1.15.94,1.61.32,2.78.29,4.17-.08,8.32-.32,12.48-.49.9-.22,1.57-1.89,2.26-2.69.58-.67,1.65-1.66,2.4-2.14.87-.56,2.9-.88,2.45-2.1l-2.28-7.41-5.46-1.24ZM115.32,535.72l-.32-1.02-2.77,1.02h3.09ZM88.75,542.72l-38.72,11.85,38.72,11.85v-23.7ZM122.5,555.72c-2.23.07-4.25,1.07-6.37,1.63.76,1.53,1.85,2.68,2.57,4.33,5.43,12.57-6.13,25.09-19.04,21.42.12,13.28,11.58,25.08,24.8,25.76,24.92,1.3,38.38-28.6,20.4-45.96-.48-.46-2.51-2.31-3.04-2.23-.95.14-3.34,1.73-4.48,2.13-6.08,2.15-12.84-.9-14.84-7.09ZM112.92,568.06c0-4.71-3.82-8.53-8.52-8.53s-8.52,3.82-8.52,8.53,3.82,8.53,8.52,8.53,8.52-3.82,8.52-8.53ZM159.8,587.43c-.27,1.38-.54,2.77-.93,4.12-.24.84-1.65,4.29-1.45,4.73l14.75,12.45c2.47,1.58,5.43.71,6.82-1.79.32-.59.49-1.44.81-2.07,3.2-6.35,5.99-12.89,9.19-19.24,1.09-4.75-5.23-7.3-7.78-3.25-2.06,3.26-3.19,9.6-7.06,11.28-6.34,2.75-9.5-2.96-13.83-6.02-.18-.12-.21-.28-.52-.2ZM144.9,629.81c-2.95,2.95-12.42,3.22-13.1,7.6-.46,2.95,2.63,5.62,5.51,4.69,6.68-2.88,14.2-4.71,20.83-7.59,3.98-1.72,3.82-4.83,1.82-8.2-2.85-4.79-7.67-11.4-11.12-15.86-.31-.41-1.04-1.59-1.51-1.59-.43,0-5.51,3.95-6.71,4.04,1.66,3.85,5.92,7,6.36,11.37.15,1.47-1.02,4.47-2.08,5.54ZM181,659.55v-12.47c0-.7-1.36-3.27-1.86-3.91-1.71-2.19-3.52-3.11-6.28-3.4-1.82-.19-6.87-.64-8.45-.43-.46.06-2.35,1.28-3.13,1.61-7.72,3.23-16.32,5.83-24.25,8.5-7.03.71-13.26-5.56-12.25-12.56l-7.52-.62c-5.23-.71-9.8,2.84-10.2,8.13-.32,4.28.06,9.24.02,13.62s-1.12,12.56.78,16.31c3.23,6.38,10.06,5.32,16.19,5.43,11.05.21,22.11,0,33.16.2.21-.02.11-.32.06-.47-.27-.78-1.02-1.78-1.35-2.77-4.58-13.63,9.46-25.56,22.12-19.04l2.95,1.89ZM179.23,671.5c0-4.71-3.82-8.53-8.52-8.53s-8.52,3.82-8.52,8.53,3.82,8.53,8.52,8.53,8.52-3.82,8.52-8.53ZM127.05,686.95c.59,1.91,2.41,3.23,3.03,5.11,1.46,4.43-.05,8.2-4.15,10.36-2.55,1.34-6.35,1.7-8.87,3.07-3.22,1.74-1.87,6.8,1.87,6.41,4.88-1.34,9.7-3.21,14.51-4.85,2.43-.83,5.32-1.43,7.67-2.42,4.93-2.08,1.1-7.03-.71-9.9-1.66-2.63-3.56-5.13-5.21-7.76h-8.13ZM152.59,687.16l-7.51-.21-.31.31c1.65,3.33,5.1,6.63,6.07,10.2.16.57.3,2.55.39,2.7.28.42,2.4.09,3,.19-.58-4.38-2.33-8.73-1.65-13.19ZM142.09,712.5c.76,2.54,3.47,1.89,5.45,2.06,6.19.52,12.77,1.47,18.94,1.65,4.06.12,4.94-2.13,4.62-5.85-.59-6.83-3.17-14.44-3.99-21.36-.42-.78-.63-1.73-1.64-1.86-.86-.11-4-.14-4.53.43-1.07,1.16-.69,2.95-.47,4.36.63,4.09,2.48,7.68.78,11.81-1.07,2.6-4.3,4.32-7,4.54-1.3.1-4-.6-5.01-.32-.14.04-1.55,1.8-2,2.17-1.49,1.23-3.26,2-5.15,2.37Z"/>
  <path class="cls-11" d="M153.62,349.25s.69-.21.96-.38c18.94-11.99,6.33-39.49-14.19-33.98-1.33.36-2.51,1.07-3.85,1.37l-16.59-34.4c-1.75-4.7.61-9.78,4.44-12.66.68-.51,3.89-2.26,4.57-2.14.41.07,1.16.61,1.7.8,2.27.77,3.78.93,6.19.83,7.98-.34,16.23-2.04,24.27-2.3,2.96-.51,5.62-1.89,7.64-4.1l32.13,58.3c3.36,5.14,2.9,11.61-1.65,15.88-10.02,6.23-21.3,10.54-31.82,15.96-3.95,1.38-8.15.94-11.72-1.25-.35-.21-2.36-1.55-2.08-1.94Z"/>
  <path class="cls-15" d="M142.65,465.71l19.03,34.84c1.93,5.21-.63,9.85-5.25,12.34-8.1,4.35-17.02,7.83-25.21,12.07-4.43,1.38-9.04-.07-12-3.56-9.7-19.2-18.8-38.73-28.25-58.07-1.23-3.38.16-6.97,2.82-9.2,3.59,4.03,8.55,3.25,13.39,3.49,3.75.19,7.56.55,11.31.64,3.45.08,6.89.32,9.9-1.63,1.04,1.52,2.1,3.08,3.5,4.29,3.02,2.6,7.16,3.29,10.75,4.8Z"/>
  <path class="cls-3" d="M136.94,81.18c-6.74,5.54-8.69,14.91-4.08,22.52,5.5,9.07,18.04,10.93,26,3.85,1.57-1.4,2.59-3.07,3.81-4.73l1.85,15.35c1.16,13.11-8.44,25.32-21.34,27.48-6.39,1.07-18.36,2.82-24.37,1.16-9.42-2.6-17.11-10.98-18.71-20.63-.78-4.71-1.63-11.11-1.88-15.84-.6-11.44,5.54-21.34,16.07-25.75,4.82-2.01,13.44-2.67,18.84-3.2,1.26-.12,2.54-.23,3.81-.21Z"/>
  <path class="cls-7" d="M175.84,393.76c1.16,2.11,1.36,3.9,1.26,6.28-.35,8.62-1.96,17.26-2.33,25.9-.69,4.29-4.39,7.96-8.7,8.61-20.33-1.34-40.6-3.61-60.92-5.18-2.32-.21-4.28-1.33-5.65-3.2-2.96-4.04-1.16-8.89-1.06-13.46,1.15.52,2.2,1.22,3.39,1.65,11.58,4.24,23.16-5.42,21.05-17.56-.62-3.54-2.49-6.44-4.88-9.03,1.47.04,2.96-.05,4.44-.01,11.57.34,23.15,1.13,34.77,1.26,1.43.2,1.29,1,2.08,1.84,3.18,3.4,7.85,5.11,12.47,4.23,1.48-.28,2.67-.99,4.09-1.34Z"/>
  <path class="cls-2" d="M181,659.55l-2.95-1.89c-12.66-6.51-26.7,5.42-22.12,19.04.33.99,1.08,1.99,1.35,2.77.05.15.15.45-.06.47-11.05-.2-22.12,0-33.16-.2-6.14-.12-12.96.95-16.19-5.43-1.9-3.75-.82-11.93-.78-16.31s-.34-9.34-.02-13.62c.4-5.29,4.96-8.84,10.2-8.13l7.52.62c-1.01,7,5.22,13.27,12.25,12.56,7.93-2.67,16.53-5.27,24.25-8.5.78-.33,2.67-1.55,3.13-1.61,1.58-.21,6.64.24,8.45.43,2.76.29,4.57,1.21,6.28,3.4.5.64,1.86,3.21,1.86,3.91v12.47Z"/>
  <path class="cls-10" d="M122.5,555.72c2,6.18,8.76,9.24,14.84,7.09,1.14-.4,3.53-1.99,4.48-2.13.54-.08,2.56,1.77,3.04,2.23,17.98,17.36,4.52,47.26-20.4,45.96-13.23-.69-24.68-12.49-24.8-25.76,12.91,3.67,24.47-8.85,19.04-21.42-.72-1.66-1.81-2.81-2.57-4.33,2.12-.57,4.13-1.57,6.37-1.63Z"/>
  <path class="cls-8" d="M137.51,166.54c28.82-2.1,43.67,32.56,21.87,51.56-21.33,18.59-54.19-2.02-47.47-29.57.79-3.24,4.99-11.93,7.94-13.48,1.15-.6,3.89-.74,5.45-1.35,1.45-.57,3.52-2.12,4.53-3.3.59-.68,1.27-2.27,1.88-2.65,1.09-.7,4.43-1.1,5.8-1.2ZM152.38,200.07c0-9.33-7.56-16.9-16.89-16.9s-16.89,7.56-16.89,16.9,7.56,16.9,16.89,16.9,16.89-7.56,16.89-16.9Z"/>
  <path class="cls-10" d="M180.8,49.86c-8.16-15.61-31.28-4.92-24.51,11.44.05.14-.17.14-.3.1-1.39-.44-6.8-3.51-8.12-4.44-5.62-3.95-8.39-11.53-6.92-18.23.65-2.96,5.04-11.04,7.11-13.28,5.14-5.6,13.08-7.25,20.05-4.19,9.17,4.03,16.51,9.33,15.79,20.48-.18,2.76-1.33,6.03-3.09,8.13Z"/>
  <path class="cls-13" d="M177.44,371.43c1.07-1.07,2.23-4.07,2.08-5.54-.38-3.83-3.16-5.71-5.1-8.7l10.61-5.26.42.19,11.5,13.84c2.67,3.41,2.92,8.13-1.18,10.53l-24.5,11.34c-4.42,1.45-8.72-2.28-7.93-6.9.89-5.19,10.8-6.2,14.09-9.49Z"/>
  <path class="cls-13" d="M155.86,228.93l8.62,23.01c.69,2.75-.72,6.72-3.77,7.26-7.18,1.25-15.35,1.04-22.64,2.07-3.85,1.19-8.18-.78-7.73-5.27.2-1.97,2.1-4.03,4.07-4.37,4.56-.79,12.9.37,15.13-4.85.91-2.15.75-3.99.11-6.16-.33-1.13-3.58-8.68-3.24-9.02,3.33-.23,6.34-1.67,9.46-2.66Z"/>
  <path class="cls-13" d="M174.01,209.75c.34-.08.42.11.61.31,2.46,2.53,4.43,8.09,7.83,9.47,7.63,3.11,10.34-5.43,14.69-9.3,4.64-4.13,11.18,1.9,7.55,6.83-5.4,5.78-10.02,12.65-15.34,18.44-.5.55-1.41,1.54-2.02,1.89-2.72,1.57-5.98-.26-7.76-2.42l-11.08-15.69c1.03-1.82,2.43-3.43,3.49-5.29.78-1.36,1.47-2.79,2.03-4.26Z"/>
  <path class="cls-13" d="M153.2,440.73c-.06.46-.37.74-.52,1.23-3.02,9.68,6.62,10.18,12.93,12.83,6.99,2.94,3.88,11.9-3.1,10.52-7.59-3.28-16.47-5.25-23.92-8.62-3.87-1.75-5.55-5.39-3.26-9.23,1.54-2.58,3.83-5.08,5.36-7.72l12.52.99Z"/>
  <polygon class="cls-6" points="88.75 164.22 88.75 187.91 50.04 176.06 88.75 164.22"/>
  <polygon class="cls-6" points="88.75 542.72 88.75 566.42 50.04 554.57 88.75 542.72"/>
  <path class="cls-13" d="M144.9,629.81c1.07-1.07,2.23-4.07,2.08-5.54-.44-4.38-4.69-7.52-6.36-11.37,1.2-.1,6.28-4.04,6.71-4.04.47,0,1.19,1.18,1.51,1.59,3.45,4.46,8.27,11.08,11.12,15.86,2,3.37,2.16,6.48-1.82,8.2-6.63,2.87-14.15,4.71-20.83,7.59-2.88.94-5.97-1.74-5.51-4.69.68-4.38,10.15-4.65,13.1-7.6Z"/>
  <path class="cls-13" d="M159.8,587.43c.31-.08.34.08.52.2,4.34,3.06,7.49,8.77,13.83,6.02,3.87-1.68,5-8.02,7.06-11.28,2.56-4.05,8.88-1.5,7.78,3.25-3.2,6.35-5.99,12.9-9.19,19.24-.32.63-.49,1.49-.81,2.07-1.39,2.5-4.35,3.37-6.82,1.79l-14.75-12.45c-.2-.44,1.21-3.9,1.45-4.73.39-1.35.65-2.74.93-4.12Z"/>
  <ellipse class="cls-14" cx="145.38" cy="332.76" rx="11.39" ry="11.39"/>
  <path class="cls-9" d="M138.59,529.34l7.2-3.42h.82s10.84,13.07,10.84,13.07c1.8,2.85,1.24,5.94-1.84,7.48-6.8,3.41-14.09,6.06-20.83,9.65-4.6,1.54-8.38-5.07-3.59-7.92,3.69-2.19,10.04-3.19,11.45-7.71.91-2.93.38-5.17-1.39-7.56-.42-.57-2.98-3.14-2.66-3.6Z"/>
  <path class="cls-9" d="M142.09,712.5c1.89-.37,3.66-1.14,5.15-2.37.44-.37,1.85-2.13,2-2.17,1.01-.27,3.71.43,5.01.32,2.7-.22,5.92-1.94,7-4.54,1.71-4.13-.15-7.72-.78-11.81-.22-1.41-.6-3.2.47-4.36.53-.57,3.67-.55,4.53-.43,1.01.13,1.22,1.08,1.64,1.86.81,6.91,3.39,14.52,3.99,21.36.32,3.73-.55,5.98-4.62,5.85-6.17-.19-12.75-1.13-18.94-1.65-1.99-.17-4.7.48-5.45-2.06Z"/>
  <path class="cls-9" d="M171.33,69.03c1.52-.06,3.3-.89,4.6-1.69.69-.42,1.65-1.76,2.3-1.19,1.17,1.02,1.34,2.51,3.33,3.46,6.86,3.27,10.44-3.78,14.58-7.6,1.86-1.71,4.43-1.16,5.76.85,1.48,2.22-.2,4.12-1.63,5.76-4.58,5.26-10.23,10.38-15.16,15.33-2.14.92-4.02.98-5.54-1.01-2.15-4.51-5.97-8.92-8.07-13.35-.09-.19-.24-.28-.17-.55Z"/>
  <path class="cls-9" d="M127.05,686.95h8.13c1.65,2.64,3.56,5.13,5.21,7.76,1.81,2.87,5.64,7.83.71,9.9-2.35.99-5.23,1.6-7.67,2.42-4.82,1.64-9.63,3.51-14.51,4.85-3.74.39-5.08-4.66-1.87-6.41,2.53-1.37,6.33-1.74,8.87-3.07,4.11-2.16,5.62-5.93,4.15-10.36-.62-1.88-2.44-3.2-3.03-5.11Z"/>
  <ellipse class="cls-14" cx="147.44" cy="94.78" rx="9.95" ry="9.96"/>
  <path class="cls-9" d="M150.73,160.92c.02-.48.4-.7.56-1.18,1.03-3.14.62-5.99-1.59-8.5,2.3-.81,4.58-1.84,6.65-3.13.8-.5,3.9-3.08,4.26-3.17.21-.06.37-.06.56.07,4.56,2.61,12.3,5.69,8.27,12.28l-8.14,8.36c-.38.1-2.08-1.17-2.6-1.46-2.46-1.34-5.22-2.72-7.96-3.26Z"/>
  <path class="cls-9" d="M163.29,360.38l2.66,8.73c-.08.34-3.19,1.67-3.74,2.02-2.41,1.49-4.23,3.83-5.28,6.46-4.82.4-9.68.62-14.53.7-1.5.03-2.26.61-3.75-.54-2.58-2-1.56-6.3,1.7-6.66,4.08-.46,10.45.54,13.5-2.57,2.65-2.69,2.25-6.31,1.02-9.59,2.75.75,5.53,1.56,8.43,1.45Z"/>
  <path class="cls-9" d="M112.43,152.06c2.75,1.15,5.64,1.82,8.55,2.47l4.08,7.87c.72,3.15-1.55,4.49-4.18,5.22-5.14,1.43-13.26,3.27-18.49,3.95-1.81.24-3.32.32-4.46-1.4-1.43-2.16.05-4.44,2.26-5.13,4.15-1.3,10.83-.84,12.76-5.58,1.06-2.6.55-4.92-.51-7.42Z"/>
  <path class="cls-6" d="M93.9,390.45c-.28,1.76-1.25,3.29-1.71,4.99-.13.49-.56,2.17-.56,2.53v3.3c0,.07.54.62-.08.49l-43.37-11.31h45.71Z"/>
  <path class="cls-13" d="M124.55,438.28c.44,2.57,1.53,5.4,1.82,7.96.2,1.74.11,2.97-1.4,4.05-1.92,1.38-6.01.59-8.32.52-3.25-.1-6.46-.24-9.69-.4-2.05-.1-4.34.1-6.37-.22-2.95-.46-3.19-5.71-.17-6.33,2.75-.56,6.66.45,9.63.16,3.75-.37,6.54-2.48,6.92-6.37l7.57.62Z"/>
  <ellipse class="cls-12" cx="107.39" cy="399.62" rx="8.62" ry="8.63"/>
  <ellipse class="cls-12" cx="104.4" cy="568.06" rx="8.52" ry="8.53"/>
  <ellipse class="cls-12" cx="170.71" cy="671.5" rx="8.52" ry="8.53"/>
  <path class="cls-6" d="M47.98,457.62l42.93-11.13c.22,1.02-1.55,1.79-2.27,2.47-2.36,2.24-4.29,5.43-4.83,8.66h-35.83Z"/>
  <path class="cls-9" d="M121.7,531.59l5.46,1.24,2.28,7.41c.45,1.22-1.58,1.54-2.45,2.1-.74.48-1.81,1.46-2.4,2.14-.69.8-1.35,2.46-2.26,2.69-4.16.17-8.31.41-12.48.49-1.16.02-1.63.65-2.78-.29-1.53-1.26-1.29-3.21.43-4.12,4.01-.66,9.9.44,12.97-2.68,1.12-1.14,1.92-3.2,2.04-4.78.09-1.32-.71-2.87-.81-4.19Z"/>
  <circle class="cls-12" cx="168.65" cy="55.83" r="6.46"/>
  <path class="cls-9" d="M145.1,63.89c.59-.18,6.7,3.47,7.7,3.98.66,1.46-.61,2.44-1.86,2.91l-18.65.93c-2.08-.1-2.66-2.67-.77-3.68,3.69-.49,9.29.31,12.21-2.41.4-.37,1.16-1.68,1.37-1.74Z"/>
  <path class="cls-6" d="M144.49,157.15c-.19.22-2.2,2.03-2.35,2.08-.97.29-4.28.09-5.72.25-1.56.17-3.09.58-4.63.82.11-.85-2.92-5.54-2.68-5.77l9.74-1.2c2,1.02,4.08,2.05,5.87,3.36-.05.16-.11.33-.22.46Z"/>
  <path class="cls-6" d="M152.59,687.16c-.69,4.46,1.07,8.81,1.65,13.19-.6-.1-2.72.23-3-.19-.1-.14-.24-2.13-.39-2.7-.98-3.57-4.42-6.88-6.07-10.2l.31-.31,7.51.21Z"/>
  <polygon class="cls-6" points="130.14 377.06 131.79 380.87 130.14 380.98 130.14 377.06"/>
  <polygon class="cls-6" points="115.32 535.72 112.23 535.72 114.99 534.69 115.32 535.72"/>
  <path class="cls-1" d="M152.38,200.07c0,9.33-7.56,16.9-16.89,16.9s-16.89-7.56-16.89-16.9,7.56-16.9,16.89-16.9,16.89,7.56,16.89,16.9ZM145.21,200.07c0-5.37-4.35-9.73-9.72-9.73s-9.72,4.35-9.72,9.73,4.35,9.73,9.72,9.73,9.72-4.35,9.72-9.73Z"/>
  <ellipse class="cls-12" cx="135.49" cy="200.07" rx="9.72" ry="9.73"/>
</svg>