<?xml version="1.0" encoding="UTF-8"?>
<svg id="Layer_1" data-name="Layer 1" xmlns="http://www.w3.org/2000/svg" viewBox="0 0 302.17 277.2">
  <defs>
    <style>
      .cls-1 {
        fill: #4479b2;
      }

      .cls-2 {
        fill: #43bec6;
      }

      .cls-3 {
        fill: #8465ac;
      }

      .cls-4 {
        fill: #b8bc99;
      }

      .cls-5 {
        fill: #ba443b;
      }
    </style>
  </defs>
  <path class="cls-2" d="M101.93,0c1.93.45,3.89.72,5.81,1.27,1.21.35,2.37.81,3.54,1.26,12.72,4.93,26.56,11.16,39.02,16.85,2.04.93,4.21,1.83,6.15,2.97,12.24,7.21,19.35,22.54,14.56,36.4,5.25-.24,10.48.33,15.43,2.1,32.11-23.96,78.06-16.6,101.08,16.05,18.47,26.2,17.12,61.65-3.03,86.47l16.19,41.12c5.11,18.7-6.66,39.17-26.76,40.37-3.85,12.25-14.48,21.89-27.28,23.92-3.06.49-6.23.43-9.3.77-13.49,1.51-27.05,3.04-40.55,4.53-9.42,1.04-22.31,4.02-31.36,1.85-17.04-4.09-28.88-20.77-26.08-38.3-6.48,2.43-12.97,1.49-19.68,1.3-1.94,12.89-9.73,23.96-22.71,27.41-8.9,2.36-22.44-.64-31.83-1.61-12.87-1.33-26.6-2.05-39.3-3.87S2.82,249.16.6,236.68c-.24-1.36-.26-2.75-.59-4.09.02-.55-.03-1.12,0-1.68.98-17.93,14.59-30.52,32.73-29.49l16.91,1.92c.25-1.24.67-2.6,1.16-3.76s2.43-4.01,2.58-4.62c.2-.83-1.38-9.45-1.64-11.1-.22-1.41-.8-2.83-.91-4.37-.29-4.06.07-8.53,1.45-12.35-9.34-3.46-17.33-7.52-22.79-16.18-6.64-10.55-6.26-20.97-1.72-32.18,14.1-34.79,30.51-68.7,44.76-103.44,4.21-8.31,13.31-14.54,22.67-15.34h6.71ZM164.04,48.44c-.48-8.75-6.31-16.13-13.98-19.94-13.73-6.81-28.99-11.83-42.85-18.54-10.32-4.17-23.09-.26-27.62,10.27l-46.01,106.74c-2.73,10.51,1.79,21.54,10.82,27.33,15.69,6.93,31.35,14.42,47.3,20.8,12.8,5.13,24.9,1.67,31.14-10.91l18.17-48.72c-1.75-3.53-3.56-7.2-4.06-11.15-27.33.56-44.95-29.15-30.74-52.92,12.08-20.2,40.69-22.6,56.16-5l1.67,2.04ZM135.98,95.92c.25-14.21,8.42-26.93,21.01-33.3.9-.46,3.36-1.15,3.93-1.59.19-.15.24-.22.25-.47,0-.32-1.29-2.97-1.56-3.49-5.96-11.52-20.08-17.2-32.39-12.71-15.15,5.54-22.21,22.96-14.63,37.42,4.44,8.47,13.71,14.38,23.39,14.14ZM292.13,118.1c0-34.78-28.2-62.98-62.98-62.98s-62.98,28.2-62.98,62.98,28.2,62.98,62.98,62.98,62.98-28.2,62.98-62.98ZM178.67,67.38c-5.31-.52-10.36-.41-15.34,1.56-20.47,8.1-25.72,34.38-9.36,49.4.54.49,3,2.56,3.48,2.75.42.16.32-.1.36-.35.22-1.65-.1-3.79-.01-5.53.78-15.24,6.31-30.09,15.84-41.95,1.4-1.75,3.39-3.49,4.67-5.16.18-.24.47-.3.36-.72ZM190.32,202.04c.53-.64,1.04-1.28,1.67-1.82-2.73-9.49-8.35-18.2-9.78-28.11-11.93-10.78-20.12-24.85-23.34-40.69-4.3-2.11-8.26-4.61-11.74-7.92l-6.99,18.34c1.85,2.66,3.36,5.54,4.16,8.7,3.27,18.33,9.16,36.87,12.23,55.15.38,2.24.6,4.52.31,6.76,3.2-1.82,6.71-2.85,10.25-3.77l19.5-2.08.57-.39c.86-1.55,2.03-2.82,3.15-4.16ZM112,184.16l7.3,46.05.49.23c5.82,0,11.08,1.42,16.66-.85,9.57-3.88,13.76-15.11,11.41-24.83l-11.65-52.26-5.95,15.51c-3.47,7.45-10.31,13.83-18.27,16.15ZM278.19,170.25c-.35-.25-2.57,2.04-3,2.39-4.91,4-10.23,7.53-16.03,10.1l-.39.56,15.41,39.51c1.3,4.35,1.68,8.85,1.14,13.37,7.63-1.06,14.19-6.91,16.73-14.08,1.59-4.5,1.75-11.47.3-16.02l-14.16-35.84ZM103.82,185.86c-4.29.13-8.53-.55-12.57-1.94l-31.29-13.43c-.98,2.66-.7,5.49-.72,8.27l4.07,24.94c-.52,5.57-4.39,8.78-9.95,8.51-14.44-.7-31.06-7.8-41.09,6.88-8.82,12.91-.98,31.27,14.5,33.38,7.38,1,15.32,1.39,22.75,2.19,12.11,1.3,24.35,3.11,36.46,4.07,15.74,1.25,25.73-10.02,25.31-25.3l-7.47-47.56ZM251.09,186.08c-16.89,5.23-34.85,4.34-51-2.83-2.32-1.03-4.5-2.32-6.79-3.4l8.51,22.06c2.19,7.26-1.24,11.41-8.42,12.45-15.63,2.25-33.95-.4-42.83,15.69-9.64,17.48,3.46,38.59,23.2,38.3,3.31-.05,6.55-.85,9.82-1.21,18.45-2.02,36.97-4.11,55.4-6.23,5.32-.61,8.48-.3,13.54-2.76,12.36-6.01,17.39-21.6,13.2-34.29s-9.78-24.66-14.4-36.68c-.13-.35-.23-.71-.23-1.09Z"/>
  <ellipse class="cls-3" cx="229.15" cy="118.1" rx="62.98" ry="62.98"/>
  <path class="cls-1" d="M164.04,48.44l-1.67-2.04c-15.48-17.6-44.09-15.2-56.16,5-14.21,23.77,3.41,53.48,30.74,52.92.5,3.95,2.31,7.62,4.06,11.15l-18.17,48.72c-6.24,12.58-18.34,16.04-31.14,10.91-15.95-6.39-31.61-13.87-47.3-20.8-9.03-5.79-13.55-16.82-10.82-27.33L79.58,20.22c4.53-10.53,17.29-14.44,27.62-10.27,13.86,6.71,29.12,11.72,42.85,18.54,7.68,3.81,13.5,11.19,13.98,19.94Z"/>
  <path class="cls-4" d="M251.09,186.08c0,.38.1.74.23,1.09,4.62,12.02,10.4,24.56,14.4,36.68s-.83,28.28-13.2,34.29c-5.06,2.46-8.22,2.15-13.54,2.76-18.42,2.13-36.95,4.21-55.4,6.23-3.27.36-6.51,1.16-9.82,1.21-19.74.28-32.84-20.83-23.2-38.3,8.87-16.09,27.2-13.43,42.83-15.69,7.18-1.04,10.61-5.19,8.42-12.45l-8.51-22.06c2.29,1.08,4.48,2.37,6.79,3.4,16.15,7.18,34.11,8.06,51,2.83Z"/>
  <path class="cls-4" d="M103.82,185.86l7.47,47.56c.42,15.28-9.56,26.56-25.31,25.3-12.11-.97-24.35-2.77-36.46-4.07-7.43-.8-15.37-1.19-22.75-2.19-15.48-2.11-23.32-20.46-14.5-33.38,10.03-14.68,26.65-7.58,41.09-6.88,5.56.27,9.43-2.94,9.95-8.51l-4.07-24.94c.02-2.78-.26-5.61.72-8.27l31.29,13.43c4.04,1.39,8.28,2.07,12.57,1.94Z"/>
  <path class="cls-4" d="M112,184.16c7.96-2.32,14.8-8.7,18.27-16.15l5.95-15.51,11.65,52.26c2.36,9.71-1.84,20.95-11.41,24.83-5.58,2.26-10.85.84-16.66.85l-.49-.23-7.3-46.05Z"/>
  <path class="cls-5" d="M135.98,95.92c-9.68.23-18.94-5.68-23.39-14.14-7.59-14.46-.53-31.88,14.63-37.42,12.3-4.49,26.42,1.19,32.39,12.71.27.52,1.56,3.17,1.56,3.49,0,.25-.06.32-.25.47-.56.44-3.03,1.13-3.93,1.59-12.59,6.38-20.76,19.09-21.01,33.3Z"/>
  <path class="cls-4" d="M278.19,170.25l14.16,35.84c1.45,4.55,1.29,11.52-.3,16.02-2.54,7.18-9.11,13.03-16.73,14.08.54-4.53.16-9.02-1.14-13.37l-15.41-39.51.39-.56c5.8-2.58,11.13-6.11,16.03-10.1.43-.35,2.65-2.64,3-2.39Z"/>
  <path class="cls-5" d="M178.67,67.38c.11.42-.17.48-.36.72-1.28,1.67-3.27,3.42-4.67,5.16-9.54,11.85-15.06,26.7-15.84,41.95-.09,1.73.23,3.88.01,5.53-.03.25.06.51-.36.35-.48-.19-2.95-2.26-3.48-2.75-16.36-15.01-11.11-41.3,9.36-49.4,4.99-1.97,10.04-2.08,15.34-1.56Z"/>
</svg>