<?xml version="1.0" encoding="UTF-8"?>
<svg id="Layer_1" data-name="Layer 1" xmlns="http://www.w3.org/2000/svg" viewBox="0 0 168.48 242.18">
  <defs>
    <style>
      .cls-1 {
        fill: #43bec6;
      }

      .cls-2 {
        fill: #b9453b;
      }

      .cls-3 {
        fill: #8465ac;
      }

      .cls-4 {
        fill: #ba443a;
      }

      .cls-5 {
        fill: #b44b43;
      }

      .cls-6 {
        fill: #ba443b;
      }
    </style>
  </defs>
  <path class="cls-1" d="M90.83,242.16c-2.11-.05-4.28-.67-6.38-.93-16.16-1.99-32.27-4.14-48.41-6.24-9.51-1.24-16.19-.93-24.17-7.23C-9.36,211-.05,176.68,26.76,173.14c6.44-.85,12.83.83,19.24,1.38,1.1-6.21,4.11-11.86,8.43-16.39-.02-2.51-.81-4.96-.98-7.44-.34-5.26.63-10.24,2.61-15.07-25.77-16.01-39.37-47.85-32.64-77.68C-1.18,28.49,32.37-12.35,65.98,6.18c31.41-13.67,68.34-3.31,88.31,24.19,19.73,27.17,18.46,64.73-3.23,90.34l15.75,41.96c4.64,17.11-3.8,35.81-21.39,40.71-3.13.87-5.56.81-8.69,1.14-4.67.49-9.35.94-14.02,1.45.61,3.93.12,8.03-.98,11.84-3.87,13.51-14.27,23.48-28.75,24.35-.7.04-1.45.02-2.16,0ZM159.88,73.49c0-35.84-29.04-64.89-64.86-64.89S30.16,37.65,30.16,73.49s29.04,64.89,64.86,64.89,64.86-29.05,64.86-64.89ZM56.32,11.03C34.8,4.61,15.79,27.53,26.37,47.47c.28.21,1.77-3.79,1.95-4.16,6.64-14.17,14.95-22.98,27.69-31.75.21-.15.44.04.31-.53ZM144.75,127.55c-.36-.1-.4.09-.6.24-2.5,1.76-4.82,4.13-7.47,5.95-6.74,4.65-14.46,8.19-22.36,10.36l7.19,53.46c5.26-.43,10.5-1.03,15.74-1.59,2.14-.22,3.65,0,5.88-.64,13.37-3.8,19.41-18.67,15.23-31.4l-13.6-36.38ZM106.14,146.04c-.3-.25-6.71.65-7.75.7-9.73.45-19.85-1.31-28.95-4.63-.81-.3-5.65-2.5-5.91-2.32-1.39,3.13-1.87,6.26-1.71,9.7.39,8.4,2.93,17.66,3.61,26.14-.16,5.78-4.48,9.27-10.17,8.71-13.76-1.35-30.34-7.77-41.01,4.34-10.45,11.87-5.91,29.91,8.63,35.73,3.53,1.41,5.94,1.25,9.56,1.71,16.39,2.09,32.73,4.23,49.13,6.24,10.74,1.31,18.37,2.8,26.52-6.14,7.03-7.72,6.66-16.5,5.47-26.11-2.24-18.05-5.08-36.04-7.42-54.07ZM57.04,175.99l-.84-5.75c-.89,1.64-1.74,3.48-1.81,5.37.1.38,2.24.43,2.65.39Z"/>
  <ellipse class="cls-3" cx="95.02" cy="73.49" rx="64.86" ry="64.89"/>
  <path class="cls-4" d="M106.14,146.04c2.34,18.03,5.18,36.03,7.42,54.07,1.19,9.6,1.56,18.39-5.47,26.11-8.15,8.94-15.78,7.45-26.52,6.14-16.4-2.01-32.74-4.14-49.13-6.24-3.62-.46-6.03-.3-9.56-1.71-14.54-5.81-19.08-23.86-8.63-35.73,10.67-12.11,27.25-5.69,41.01-4.34,5.69.56,10.01-2.93,10.17-8.71-.69-8.48-3.22-17.74-3.61-26.14-.16-3.44.32-6.57,1.71-9.7.26-.18,5.1,2.02,5.91,2.32,9.1,3.32,19.22,5.08,28.95,4.63,1.04-.05,7.46-.95,7.75-.7Z"/>
  <path class="cls-6" d="M144.75,127.55l13.6,36.38c4.18,12.73-1.85,27.6-15.23,31.4-2.23.63-3.74.42-5.88.64-5.24.55-10.48,1.15-15.74,1.59l-7.19-53.46c7.9-2.17,15.62-5.72,22.36-10.36,2.65-1.83,4.97-4.2,7.47-5.95.2-.14.24-.33.6-.24Z"/>
  <path class="cls-2" d="M56.32,11.03c.13.57-.1.39-.31.53-12.75,8.77-21.06,17.58-27.69,31.75-.18.38-1.67,4.37-1.95,4.16C15.79,27.53,34.8,4.61,56.32,11.03Z"/>
  <path class="cls-5" d="M57.04,175.99c-.41.05-2.55,0-2.65-.39.07-1.89.92-3.73,1.81-5.37l.84,5.75Z"/>
</svg>