<?xml version="1.0" encoding="UTF-8"?>
<svg id="Layer_1" data-name="Layer 1" xmlns="http://www.w3.org/2000/svg" viewBox="0 0 16.33 9.07">
  <defs>
    <style>
      .cls-1 {
        fill: #fff;
      }
    </style>
  </defs>
  <path class="cls-1" d="M15.2,0l-.75.14c-.2.1-.09.41-.11.62-.08.73-.46,1.37.34,1.87.25.15.84-.1,1.11-.22.23-.11.41-.19.55-.41v7.07H6.93c.11-.13.36-.26.43-.4.12-.25-.01-.59.07-.73.06-.1.7-.41.87-.53.25-.18,1.02-.87,1.15-1.12.25-.46.33-1.16.52-1.65-.04-.31-.65-.65-.76-.25-.04.16.05.29.04.44-.03.34-.33,1.04-.55,1.32-.36.46-.97.89-1.5,1.13.21-.67-.78-1.32-1.2-.7-.18.27-.22.53-.5.84-.25.27-.65.32-.45.78s.5.35.82.45.61.32.93.43H0v-4.53c.24.75,1.2.95,1.71.38.1-.11.33-.63.11-.71-.36-.12-.77.71-1.19.33-.02-.58.26-.97.69-1.31-.23-.8-.88-.03-1.06.41-.11.26-.11.59-.26.84V0h15.2ZM13.27,1.6c-.05.37.05.74.49.66.09-.03.2-.17.22-.25.01-.06-.02-1.12-.04-1.23-.12-.75-1.05-.28-1.06.3l-.31-.32c-.52-.15-.7.62-.8.97-.1.33-.42,1.1.1,1.2.37.07.46-.45.42-.72.13-.02.18.11.3.13.38.06.45-.54.7-.73ZM8.33,1.67c.02-.34.03-.68-.39-.7-.59-.02-.08,1.05-.15,1.36-.52.1-.97.65-1.52.4-.05-.08.09-.53.16-.6.06-.06.16.01.27-.06.27-.17.13-.38-.07-.54-.25-.21-.42-.03-.6.21-1.21,1.65.75,2.22,1.8,1.13h.1c.28.68.64-.12.7-.13.03,0,.12.1.25.11.31,0,1.26-.17,1.3-.56.05-.58-1.02-.02-1.32-.16-.07-.35.34-.63.37-.86.03-.32-.36-.35-.57-.17-.15.13-.17.45-.33.56ZM5.52,2.32c.08-.08.11-.27.02-.35-.13-.17-.29-.19-.5-.16-.3.17-1.75.55-1.87.8-.22.45.5.68.77.3l.13.08c-.03.22.07.49.05.69-.03.26-.24.37-.24.56,0,.46.65.36.94.2.15-.09.48-.32.64-.43.12-.08.53-.55.47-.67-.26-.53-.81.27-1.17.27.08-.31-.14-.7.03-1,.13-.21.63-.17.75-.28ZM2.58,2.82c-.07-.06-.46-.13-.52-.04-.14.68-.22,2.15.83,2.03.37-.04,1.3-1.1.86-1.26-.39-.14-.76.75-1.03.56-.3-.29.08-1.09-.15-1.29Z"/>
  <path d="M6.93,9.07h-.13c-.33-.11-.61-.33-.93-.43s-.62,0-.82-.45.2-.51.45-.78c.28-.31.31-.56.5-.84.42-.62,1.41.03,1.2.7.53-.24,1.14-.67,1.5-1.13.22-.28.52-.97.55-1.32.01-.15-.09-.28-.04-.44.11-.4.72-.06.76.25-.19.5-.28,1.19-.52,1.65-.13.24-.9.93-1.15,1.12-.16.12-.81.43-.87.53-.08.14.05.48-.07.73-.07.15-.32.28-.43.4Z"/>
  <path d="M15.73,0c.28.19.27.4.07.67l.38.08c.36.76-.83.66-1.3.79l-.08.39c.57.16,1.08-.55,1.53-.2v.27c-.14.22-.32.3-.55.41-.26.12-.86.37-1.11.22-.8-.5-.42-1.14-.34-1.87.02-.21-.09-.52.11-.62l.75-.14h.53Z"/>
  <path d="M0,4.47c.15-.24.16-.58.26-.84.18-.43.83-1.21,1.06-.41-.43.34-.72.73-.69,1.31.43.38.83-.45,1.19-.33.22.07,0,.59-.11.71-.52.57-1.47.37-1.71-.38v-.07Z"/>
  <path class="cls-1" d="M15.73,0h.6v1.73c-.45-.35-.97.36-1.53.2l.08-.39c.47-.13,1.66-.03,1.3-.79l-.38-.08c.2-.26.22-.47-.07-.67Z"/>
  <path d="M8.33,1.67c.17-.11.18-.43.33-.56.21-.18.6-.15.57.17-.02.22-.43.51-.37.86.3.14,1.37-.43,1.32.16-.04.38-.99.56-1.3.56-.13,0-.22-.11-.25-.11-.07,0-.42.8-.7.13h-.1c-1.05,1.09-3.01.51-1.8-1.13.17-.23.34-.41.6-.21.2.16.33.38.07.54-.11.07-.21,0-.27.06-.07.07-.21.52-.16.6.56.25,1-.3,1.52-.4.07-.31-.44-1.38.15-1.36.43.02.41.36.39.7Z"/>
  <path d="M5.52,2.32c-.12.11-.62.08-.75.28-.18.29.05.69-.03,1,.36,0,.91-.8,1.17-.27.06.12-.35.58-.47.67-.16.11-.49.34-.64.43-.28.17-.94.27-.94-.2,0-.19.22-.3.24-.56.02-.2-.07-.47-.05-.69l-.13-.08c-.26.38-.99.16-.77-.3.12-.25,1.57-.63,1.87-.8.21-.03.37-.01.5.16.09.08.06.28-.02.35Z"/>
  <path d="M13.27,1.6c-.25.19-.31.79-.7.73-.13-.02-.17-.16-.3-.13.05.28-.05.8-.42.72-.51-.1-.19-.87-.1-1.2.1-.36.28-1.12.8-.97l.31.32c.01-.57.94-1.04,1.06-.3.02.11.06,1.17.04,1.23-.02.08-.13.23-.22.25-.44.08-.54-.29-.49-.66Z"/>
  <path d="M2.58,2.82c.22.19-.16,1,.15,1.29.27.19.63-.7,1.03-.56.44.15-.49,1.21-.86,1.26-1.05.12-.97-1.34-.83-2.03.06-.09.46-.01.52.04Z"/>
</svg>