<?xml version="1.0" encoding="UTF-8"?>
<svg id="Layer_1" data-name="Layer 1" xmlns="http://www.w3.org/2000/svg" viewBox="0 0 26 9.67">
  <path d="M0,8.67c.33-.71.7-1.75,1.66-1.7l.1.1c.14.27-.23.31-.37.43-.52.45-1.33,2.04.05,1.51.22-.08.78-.61.91-.33.21.44-.6.86-.95.99h-.67l-.73-.47v-.53Z"/>
  <path d="M24.57.7c.29.28.79.48,1.15.66.04.21.37.4.13.63-.36.35-1.1-.44-1.48-.52-.09.02-.17.37-.2.47-.65,1.93-1.03,3.18-2.8,4.46-.83.6-1.72.89-2.69,1.17-.28.03-.46-.43-.28-.6.14-.14.88-.21,1.11-.28,2.1-.7,3.47-2.63,3.99-4.69.06-.23.38-.73.03-.89-.1.18-.41.33-.51.45-.17.2-.34.75-.57.86-.39.19-.47.07-.63-.31,0-.12,1.1-1.31,1.25-1.54.17-.27.03-.56.56-.5s.62.31.94.63Z"/>
  <path d="M5.73,7.07c.23.46-.2.94-.06,1.4.11.08,1.2-.46,1.2.03-.01.14-.13.18-.22.25-.3.2-1.69.69-1.98.55-.12-.05-.2-.3-.37-.3-.12,0-.49.18-.73.18-1.3,0-1.15-1.03-.81-1.93.16-.43.37-.54.7-.14.05.26-.44,1.27-.22,1.43.31.22.95-.15,1.26-.27l.13.07.1.27c.08.01.12,0,.16-.07s.27-1.28.23-1.33c-.36.3-1.14-.07-.66-.43.34-.26,2-.54,2.23-.03s-.79.19-.97.33Z"/>
  <path d="M9.4,7.13c.14-.1.26-.4.45-.45.22-.07.36.04.54.13.12.2-.67.73-.59,1.02l.16.1c1.16-.49,1.61.43.27.6-.24.03-.8-.09-.83-.06-.05.05.07.36-.3.41-.3.03-.39-.12-.53-.13-.25-.01-.6.11-.93.06-.49-.08-.79-.53-.69-1.01.04-.19.56-1.14.72-1.21.24-.11.63-.02.66.28.02.18-.39.36-.46.47-.11.17-.38.77-.09.87.5.17.8-.19.88-.63.06-.33-.04-1.41.48-1.26.44.12.29.51.27.84Z"/>
  <path d="M15.47,7.13c.36,0,.99-.42,1.27-.04.17.24-.12.55-.34.61-.12.04-.23-.03-.34-.01-.3.05-.45.41-.86.1l-.07.27c.22-.1.39.01.61-.01.31-.03,1.29-.61,1.44-.38.31.49-1.21,1.03-1.56,1.06-.15.01-.29-.06-.39-.05-.12.01-.21.17-.34.18-.8.08-.24-1.55-.34-2,.06-.38,1.55-.7,1.78-.64.17.05.43.32.3.51-.11.15-1.05.13-1.17.4Z"/>
  <path d="M14.11,6.62c.09.09.15.22.16.34.02.17-.04,1.1-.07,1.27-.03.16-.3.41-.46.34-.41-.18-.14-.69-.2-1.04l-.63.94c-.66.3-.55-.67-.61-.67-.21.2-.24.76-.44.9-.26.19-.6.06-.7-.23-.07-.21.2-.35.29-.51.21-.36.69-1.57,1.29-1.16.15.1.11.39.31.34.14-.43.63-.93,1.04-.51Z"/>
</svg>