<?xml version="1.0" encoding="UTF-8"?>
<svg id="Layer_1" data-name="Layer 1" xmlns="http://www.w3.org/2000/svg" viewBox="0 0 15.93 8.6">
  <path d="M5.47,8.6c-.55-.22-.99-.52-1.49-.81-.1-.06-.24-.04-.35-.12-.19-.12-.3-.42-.17-.62.3-.21,1.37-1.29,1.64-1.32.21-.02.39.21.35.42-.06.33-.56.32-.59.65.4-.12.83-.09,1.23-.2.57-.16,1.1-.61,1.51-1.03.19-.2.95-1.22,1.08-1.28.32-.16.65.15.44.47-.09.14-.27.17-.37.26-.49.5-.87,1.1-1.43,1.54-.94.74-1.45.65-2.56.77-.1.01-.17,0-.23.1.36.5,1.76.35,1.07,1.17h-.13Z"/>
  <path d="M14.8,0c.37.09.76.17.54.64l-.24.1c-.16-.25-.95-.13-1.06.06-.02.04-.11.34-.1.36.02.13.13.06.18.06.52-.06,1.59-.6,1.72.25-.36.44-.52.13-.79.13-.24,0-1.43.28-1.15.67.1.14.86-.06,1.04-.1.32-.08.7-.4,1-.1v.2c-.61.55-1.81.84-2.59.52-.03-.33-.09-.62-.08-.96,0-.27.15-.76.14-.99,0-.04-.13-.03-.14-.08-.05-.22.22-.52.42-.57l.98-.19h.13Z"/>
  <path d="M0,1c.33-.42.47-.52,1.03-.46,1.55.16,1.6,2.31.32,2.71-.19.06-.77.07-.8.1-.07.05-.13.61-.54.32v-.33c.08-.16.12-.45.13-.63.03-.3.09-.99.07-1.26-.01-.12-.12-.22-.2-.3v-.13ZM1.45,2.58c.61-.66.16-1.64-.78-1.45l-.07,1.73c.1.1.74-.17.85-.29Z"/>
  <path d="M7.27,1.47c.18-.01.29-.19.46-.23.44-.12,1.18,0,1.26.55.05.36-.85,1.11-1.19,1.19-.38.09-.8-.19-1.07-.44.02.35-.56.58-.66.22-.05-.18.1-.5-.12-.69l-.55.14.02.54c-.72.83-.71-.26-.62-.83.05-.33.34-1.45.8-1.37.42.07.71.96.91,1.29.04.06-.03.13.14.1-.12-.34.41-1.72.81-1.64l.33.34-.54.83ZM7.27,2.2c.3.41.89-.03,1.07-.37-.31-.22-.77-.06-.79.34l-.27.03Z"/>
  <path d="M12.47,1.13c-.12-.03-.13.03-.18.12-.19.3-.29,1.26-.78,1.26-.43,0-.34-.58-.43-.88-.03-.1.04-.12-.13-.1-.08.29.04.94-.37,1-.73.11-.08-1.84.4-1.87s.39.38.7.61c.1-.46.39-1.03.9-1.11.5.02.63,1.64.6,2.01-.04.48-.5.42-.64.07-.08-.2-.02-1.06-.06-1.1Z"/>
  <path d="M4.58,2.99c-.14.15-1.48-.12-1.65-.39.17.46-.57.69-.65.29-.03-.15.19-.91.19-1.19,0-.36-.32-.52-.14-.8.32-.53,1.99-.3,1.85.53-.04.22-.61.75-.58.88.22.25.81.08,1,.27.1.1.07.32-.02.42ZM3,2.07c.14.16.46-.67.53-.7-.45-.45-.53.36-.53.7Z"/>
</svg>