<?xml version="1.0" encoding="UTF-8"?>
<svg id="Layer_1" data-name="Layer 1" xmlns="http://www.w3.org/2000/svg" viewBox="0 0 21.53 18.73">
  <defs>
    <style>
      .cls-1 {
        fill: #fff;
      }
    </style>
  </defs>
  <path class="cls-1" d="M19.53,0c-.58.25-1.28.33-1.3,1.1,0,.2.1.41.09.59,0,.32-.23.98.01,1.2.35.32.39.04.58-.02.15-.05.38-.02.58-.08.32-.1,1.06-.34,1.32-.48.39-.2.14-.64-.11-.64-.36,0-1.49.66-1.78.45l.07-.4c.27.15.59-.2.85-.32.13-.06.24-.01.34-.05.54-.21.4-.7-.13-.77.15-.26-.07-.4-.2-.6h1.67v5.87c-.32-.57-.98-.43-1.53-.6-.02-.3.39-.19.5-.26.34-.21.27-.68-.14-.74s-.38.31-.76.27l.06.19c-.42.25-.56.85-.06,1.12.34.18.76.06,1.01.29-.3.19-1.52.27-1.53.63.03.15.07.27.23.3.33.06,1.5-.22,1.79-.41.18-.12.23-.37.44-.46v12.53h-12.67c.17-.03.38-.38.39-.51.03-.34-1.12-.6-1.38-.73-.36-.18-.76-.54-1.14-.73l2.33-.4c1.79-.53,4.98-2.6,6.13-4.08.53-.69.86-1.49,1.27-2.25-.1-.31-.21-.61-.58-.45-.4.17-.22.43-.3.7-.57,1.97-3.63,3.99-5.38,4.88-1.02.52-2.05.83-3.2.9l.93-1.23c.08-.11.24-.12.33-.2.22-.2.11-.67-.15-.78-.55-.24-.67.39-.92.71-.27.35-.61.77-.9,1.11-.19.22-.88.72-.83,1.01.08.46.65.51.98.69.48.26.89.65,1.35.92.25.15.59.17.79.44H0V4.33c.47.69.9-.34,1.47-.33-.07.47-.05.93,0,1.4-.29-.17-.9.31-.86.62.05.25.37.36.6.3s1.34-.59,1.6-.74c.31-.17.96-.49.75-.92l-.14-.12-1.36.59v-1.43s-.06-.05-.04-.1l.06-.07c.21-.13,1.24-.55,1.08-.87s-.65-.06-.88.05c-.77.37-1.58.93-2.29,1.41V0h19.53ZM13.87,2.9v-1.2c0-.08.37-.26.47-.28.15-.02.19.09.29.09.36,0,.38-.34.25-.61-.08-.13-.43-.12-.57-.11-.34.03-1.46.5-1.79.68-.28.15-.49.29-.33.64.22.46.74-.07,1.02-.18v1.27c-.73-.14-.91.76-.17.8.5.03,1.33-.36,1.73-.68.09-.07.1-.18.11-.19.13-.1.14.11.17.13.79.58.63-1.01.9-1.39l.65,1.07c.47.27.77.2.92-.33.11-.39.35-1.52.36-1.9,0-.22.03-.44-.23-.5-.37,0-.67,1.53-.7,1.87-.19-.11-.33-.42-.42-.62-.04-.09.03-.2,0-.23-.06-.09-.52-.31-.68-.27-.54.16-.75,1.37-.91,1.83-.23-.17-.99.4-1.07.13ZM11.53,3.27c.1.1-.42.49-.52.52-.65-.07-.26-1.35-.08-1.75.1-.22.31-.37.39-.61,0-.13-.3-.38-.42-.36-.5.36-.73.98-.83,1.57-.09.5-.19,1.14.21,1.53.07.07.57.34.65.32.68-.1,1.45-.89,1.4-1.6-.06-.96-1.56-.43-1.47.2.04.27.5.39.67.17ZM8.93,3.67c.07.32-.04.76.37.8.33.03.37-.22.36-.5-.01-.52-.37-1.51-.7-1.9-.83-.97-1.26.79-1.35,1.39-.04.29-.16.75.08.95.42.34.68-.2.57-.6.23.13.4-.18.67-.13ZM6.65,2.15c-.05-.06-.34-.22-.42-.22-.63-.04-.9,1.43-.99,1.47-.14-.31-.29-.72-.67-.8-.55.02-.82,1.74-.77,2.16.03.29.17.49.49.42.43-.09.22-.34.24-.62.02-.25.11-.5.07-.77l.43.94c.14.11.45.08.57-.04.22-.21.36-1.55.53-1.9.1.03.13.31.15.41.09.4.11,1.45.77,1.08.41-.23.03-.62-.04-.88-.1-.35-.13-.99-.37-1.26ZM18.38,4.68c-.36-.26-2.21.4-2.44.76-.16.24.07.52.31.55.19.03.79-.5.88-.39-.05.26-.07,1.31-.31,1.39-.21.07-.47-.04-.69.18-.28.28.03.69.37.68.09,0,.19-.11.33-.11.15,0,.31.1.45.06.16-.04.27-.32.39-.42.21-.18.64-.3.91-.49.15-.11.63-.45.39-.62-.29-.21-.98.26-1.3.34l.21-1.25c.12-.12.25.04.32.02.31-.09.44-.5.19-.68ZM14.4,7.2c.14.11-.29.78.24.87.7.12.43-.8.5-1.16.03-.15.19-.25.2-.41.01-.2-.15-.22-.19-.34-.11-.33.08-1.07-.46-1.07-.14,0-.32.26-.39.38l.16.93-.86.28c.01-.25.03-.6,0-.84-.06-.46-.66-.62-.77-.1-.23-.51-.64-.38-1.12-.25-.6.17-1.26.42-1.86.61-.46.15-.43.7.05.76.26.03.59-.3.88-.25-.08.47,0,.95,0,1.44,0,.24-.18.55.03.76.29.3.62-.09.66-.39.07-.53-.11-1.34-.03-1.91,0-.06,0-.11.04-.16.37-.32.95-.23,1.3-.6.14.49.15.92.14,1.44,0,.59-.35,1.91.72,1.32l-.06-1.09.8-.2Z"/>
  <path d="M8.6,18.73c-.2-.27-.54-.29-.79-.44-.45-.27-.87-.66-1.35-.92-.34-.18-.9-.23-.98-.69-.05-.3.64-.79.83-1.01.29-.33.63-.76.9-1.11.25-.33.36-.96.92-.71.26.11.37.58.15.78-.09.08-.25.09-.33.2l-.93,1.23c1.15-.07,2.18-.38,3.2-.9,1.76-.89,4.81-2.91,5.38-4.88.08-.27-.1-.53.3-.7.37-.16.48.14.58.45-.41.76-.73,1.56-1.27,2.25-1.15,1.48-4.34,3.55-6.13,4.08l-2.33.4c.37.19.78.55,1.14.73.26.13,1.41.39,1.38.73-.01.14-.22.48-.39.51h-.27Z"/>
  <path d="M0,4.13c.71-.48,1.52-1.04,2.29-1.41.23-.11.72-.38.88-.05s-.87.74-1.08.87l-.06.07c-.02.05.04.09.04.1v1.43l1.36-.59.14.12c.2.43-.44.75-.75.92-.26.14-1.37.68-1.6.74s-.55-.05-.6-.3c-.05-.3.56-.79.86-.62-.05-.47-.07-.93,0-1.4-.57,0-.99,1.03-1.47.33v-.2Z"/>
  <path d="M19.87,0c.13.2.35.34.2.6.53.06.66.56.13.77-.1.04-.21,0-.34.05-.27.12-.58.47-.85.32l-.07.4c.29.21,1.42-.45,1.78-.45.24,0,.49.44.11.64-.26.14-1.01.38-1.32.48-.2.06-.43.04-.58.08-.19.06-.22.34-.58.02-.24-.22-.02-.89-.01-1.2,0-.18-.1-.4-.09-.59.02-.77.72-.85,1.3-1.1h.33Z"/>
  <path d="M21.53,6.2c-.21.09-.26.34-.44.46-.29.19-1.46.47-1.79.41-.16-.03-.21-.15-.23-.3.01-.36,1.23-.44,1.53-.63-.24-.23-.67-.11-1.01-.29-.5-.26-.36-.87.06-1.12l-.06-.19c.38.05.35-.32.76-.27s.48.53.14.74c-.11.07-.52-.04-.5.26.55.17,1.21.03,1.53.6v.33Z"/>
  <path d="M13.87,2.9c.08.27.84-.3,1.07-.13.16-.45.37-1.67.91-1.83.15-.05.61.18.68.27.02.03-.05.14,0,.23.08.2.23.51.42.62.03-.34.33-1.87.7-1.87.26.06.24.28.23.5-.02.38-.25,1.51-.36,1.9-.15.54-.45.6-.92.33l-.65-1.07c-.27.38-.1,1.97-.9,1.39-.03-.02-.04-.22-.17-.13,0,0-.02.12-.11.19-.39.32-1.23.71-1.73.68-.75-.05-.57-.94.17-.8v-1.27c-.28.11-.8.65-1.02.18-.17-.35.05-.49.33-.64.33-.18,1.44-.65,1.79-.68.14-.01.49-.02.57.11.12.27.11.61-.25.61-.1,0-.14-.11-.29-.09-.09.01-.47.2-.47.28v1.2Z"/>
  <path d="M6.65,2.15c.24.27.27.91.37,1.26.07.26.45.65.04.88-.66.36-.68-.68-.77-1.08-.02-.1-.05-.38-.15-.41-.18.35-.31,1.68-.53,1.9-.12.12-.43.15-.57.04l-.43-.94c.04.27-.05.51-.07.77-.02.28.18.53-.24.62-.32.07-.45-.13-.49-.42-.05-.42.22-2.14.77-2.16.38.08.53.48.67.8.09-.04.36-1.5.99-1.47.08,0,.37.16.42.22Z"/>
  <path d="M14.4,7.2l-.8.2.06,1.09c-1.07.59-.73-.73-.72-1.32,0-.51,0-.94-.14-1.44-.35.37-.93.28-1.3.6-.03.05-.03.11-.04.16-.08.57.1,1.38.03,1.91-.04.31-.37.69-.66.39-.21-.22-.03-.52-.03-.76,0-.49-.08-.96,0-1.44-.3-.05-.63.28-.88.25-.48-.06-.51-.61-.05-.76.59-.2,1.25-.44,1.86-.61.47-.13.88-.27,1.12.25.11-.52.71-.37.77.1.03.24,0,.59,0,.84l.86-.28-.16-.93c.07-.12.25-.38.39-.38.54,0,.35.74.46,1.07.04.12.2.14.19.34,0,.16-.17.26-.2.41-.07.37.2,1.28-.5,1.16-.53-.09-.1-.76-.24-.87Z"/>
  <path d="M18.38,4.68c.26.18.12.6-.19.68-.07.02-.2-.15-.32-.02l-.21,1.25c.32-.08,1.01-.55,1.3-.34.24.17-.23.51-.39.62-.27.19-.7.31-.91.49-.12.1-.22.38-.39.42-.14.04-.3-.07-.45-.06-.14,0-.24.11-.33.11-.34.02-.65-.39-.37-.68.22-.22.48-.11.69-.18.24-.08.26-1.12.31-1.39-.1-.1-.69.42-.88.39-.24-.03-.47-.31-.31-.55.23-.36,2.08-1.01,2.44-.76Z"/>
  <path d="M11.53,3.27c-.17.22-.63.1-.67-.17-.09-.63,1.41-1.16,1.47-.2.04.71-.72,1.5-1.4,1.6-.07.01-.57-.25-.65-.32-.4-.4-.3-1.03-.21-1.53.1-.59.33-1.21.83-1.57.12-.02.42.22.42.36-.08.24-.29.39-.39.61-.19.4-.58,1.68.08,1.75.1-.04.61-.42.52-.52Z"/>
  <path d="M8.93,3.67c-.27-.04-.44.26-.67.13.11.4-.15.95-.57.6-.24-.2-.12-.66-.08-.95.09-.6.52-2.35,1.35-1.39.34.39.69,1.39.7,1.9,0,.28-.04.53-.36.5-.41-.04-.31-.48-.37-.8Z"/>
</svg>