<?xml version="1.0" encoding="UTF-8"?>
<svg id="Layer_1" data-name="Layer 1" xmlns="http://www.w3.org/2000/svg" viewBox="0 0 21.53 18.73">
  <path d="M8.6,18.73c-.2-.27-.54-.29-.79-.44-.45-.27-.87-.66-1.35-.92-.34-.18-.9-.23-.98-.69-.05-.3.64-.79.83-1.01.29-.33.63-.76.9-1.11.25-.33.36-.96.92-.71.26.11.37.58.15.78-.09.08-.25.09-.33.2l-.93,1.23c1.15-.07,2.18-.38,3.2-.9,1.76-.89,4.81-2.91,5.38-4.88.08-.27-.1-.53.3-.7.37-.16.48.14.58.45-.41.76-.73,1.56-1.27,2.25-1.15,1.48-4.34,3.55-6.13,4.08l-2.33.4c.37.19.78.55,1.14.73.26.13,1.41.39,1.38.73-.01.14-.22.48-.39.51h-.27Z"/>
  <path d="M0,4.13c.71-.48,1.52-1.04,2.29-1.41.23-.11.72-.38.88-.05s-.87.74-1.08.87l-.06.07c-.02.05.04.09.04.1v1.43l1.36-.59.14.12c.2.43-.44.75-.75.92-.26.14-1.37.68-1.6.74s-.55-.05-.6-.3c-.05-.3.56-.79.86-.62-.05-.47-.07-.93,0-1.4-.57,0-.99,1.03-1.47.33v-.2Z"/>
  <path d="M19.87,0c.13.2.35.34.2.6.53.06.66.56.13.77-.1.04-.21,0-.34.05-.27.12-.58.47-.85.32l-.07.4c.29.21,1.42-.45,1.78-.45.24,0,.49.44.11.64-.26.14-1.01.38-1.32.48-.2.06-.43.04-.58.08-.19.06-.22.34-.58.02-.24-.22-.02-.89-.01-1.2,0-.18-.1-.4-.09-.59.02-.77.72-.85,1.3-1.1h.33Z"/>
  <path d="M21.53,6.2c-.21.09-.26.34-.44.46-.29.19-1.46.47-1.79.41-.16-.03-.21-.15-.23-.3.01-.36,1.23-.44,1.53-.63-.24-.23-.67-.11-1.01-.29-.5-.26-.36-.87.06-1.12l-.06-.19c.38.05.35-.32.76-.27s.48.53.14.74c-.11.07-.52-.04-.5.26.55.17,1.21.03,1.53.6v.33Z"/>
  <path d="M13.87,2.9c.08.27.84-.3,1.07-.13.16-.45.37-1.67.91-1.83.15-.05.61.18.68.27.02.03-.05.14,0,.23.08.2.23.51.42.62.03-.34.33-1.87.7-1.87.26.06.24.28.23.5-.02.38-.25,1.51-.36,1.9-.15.54-.45.6-.92.33l-.65-1.07c-.27.38-.1,1.97-.9,1.39-.03-.02-.04-.22-.17-.13,0,0-.02.12-.11.19-.39.32-1.23.71-1.73.68-.75-.05-.57-.94.17-.8v-1.27c-.28.11-.8.65-1.02.18-.17-.35.05-.49.33-.64.33-.18,1.44-.65,1.79-.68.14-.01.49-.02.57.11.12.27.11.61-.25.61-.1,0-.14-.11-.29-.09-.09.01-.47.2-.47.28v1.2Z"/>
  <path d="M6.65,2.15c.24.27.27.91.37,1.26.07.26.45.65.04.88-.66.36-.68-.68-.77-1.08-.02-.1-.05-.38-.15-.41-.18.35-.31,1.68-.53,1.9-.12.12-.43.15-.57.04l-.43-.94c.04.27-.05.51-.07.77-.02.28.18.53-.24.62-.32.07-.45-.13-.49-.42-.05-.42.22-2.14.77-2.16.38.08.53.48.67.8.09-.04.36-1.5.99-1.47.08,0,.37.16.42.22Z"/>
  <path d="M14.4,7.2l-.8.2.06,1.09c-1.07.59-.73-.73-.72-1.32,0-.51,0-.94-.14-1.44-.35.37-.93.28-1.3.6-.03.05-.03.11-.04.16-.08.57.1,1.38.03,1.91-.04.31-.37.69-.66.39-.21-.22-.03-.52-.03-.76,0-.49-.08-.96,0-1.44-.3-.05-.63.28-.88.25-.48-.06-.51-.61-.05-.76.59-.2,1.25-.44,1.86-.61.47-.13.88-.27,1.12.25.11-.52.71-.37.77.1.03.24,0,.59,0,.84l.86-.28-.16-.93c.07-.12.25-.38.39-.38.54,0,.35.74.46,1.07.04.12.2.14.19.34,0,.16-.17.26-.2.41-.07.37.2,1.28-.5,1.16-.53-.09-.1-.76-.24-.87Z"/>
  <path d="M18.38,4.68c.26.18.12.6-.19.68-.07.02-.2-.15-.32-.02l-.21,1.25c.32-.08,1.01-.55,1.3-.34.24.17-.23.51-.39.62-.27.19-.7.31-.91.49-.12.1-.22.38-.39.42-.14.04-.3-.07-.45-.06-.14,0-.24.11-.33.11-.34.02-.65-.39-.37-.68.22-.22.48-.11.69-.18.24-.08.26-1.12.31-1.39-.1-.1-.69.42-.88.39-.24-.03-.47-.31-.31-.55.23-.36,2.08-1.01,2.44-.76Z"/>
  <path d="M11.53,3.27c-.17.22-.63.1-.67-.17-.09-.63,1.41-1.16,1.47-.2.04.71-.72,1.5-1.4,1.6-.07.01-.57-.25-.65-.32-.4-.4-.3-1.03-.21-1.53.1-.59.33-1.21.83-1.57.12-.02.42.22.42.36-.08.24-.29.39-.39.61-.19.4-.58,1.68.08,1.75.1-.04.61-.42.52-.52Z"/>
  <path d="M8.93,3.67c-.27-.04-.44.26-.67.13.11.4-.15.95-.57.6-.24-.2-.12-.66-.08-.95.09-.6.52-2.35,1.35-1.39.34.39.69,1.39.7,1.9,0,.28-.04.53-.36.5-.41-.04-.31-.48-.37-.8Z"/>
</svg>