<?xml version="1.0" encoding="UTF-8"?>
<svg id="Layer_1" data-name="Layer 1" xmlns="http://www.w3.org/2000/svg" viewBox="0 0 16.8 11.13">
  <path d="M11.29,11.13c-.18-.21-.23-.49-.26-.76-.03-.3-.08-.98.03-1.23.06-.14.32-.45.47-.47.29.01.48.24.69.4-.02-.41.02-.87.3-1.19.54-.62.99.69,1.2,1.06.06.11.22.18.26.27.13.27.02.49-.28.52-.47.04-.56-.82-.88-1.05-.01.32.11,1.28-.2,1.42-.49.23-.67-.43-1-.63.06.48,0,1,.26,1.42l-.26.24h-.33Z"/>
  <path d="M1.26,1.59c1.25-.7,2.3-.9,3.7-.54,1.69.44,2.31,1.51,3.04,2.99.17.62-.76.76-.82.3-.2-1.53-1.56-2.64-3.1-2.8-1.13-.12-2.07.29-3.01.85l.03.13,1.74.04c.25.16.25.45-.03.6s-.91-.03-1.25-.04c-.42,0-.89.01-1.31.05-.23-.05-.18-.85-.11-1.03.05-.13.31-.37.38-.55.12-.31.11-.85.23-1.13,0-.02.21-.11.19-.27l.38-.12c.74.33-.02.99-.06,1.5Z"/>
  <path d="M9.96,7.09c0-.27,0-.42,0-.69.02-.59-.21-1.54.42-1.81l1.44.85c.09-.43-.3-2.13.03-2.39.46-.36.41.45.44.63.06.42.33,1.8.18,2.1-.18.38-.59.36-.93.23-.12-.05-.88-.55-.91-.51-.11.41.23,1.42-.07,1.69-.25.22-.39.02-.6-.1.01.36-.6.86-.91,1.05-.19.12-.85.45-1.04.4-.27-.08-.48-1.19-.63-1.49-.18-.37-.62-.52-.28-.92.15-.17.82-.73,1.02-.84.49-.27.8.3.44.51-.09.05-.22.02-.33.07-.19.09-.57.52-.4.76.45-.06.92-.86,1.39-.63.07.03.18.19.18.27,0,.26-.4.28-.59.39-.06.03-.62.49-.64.52-.07.13.07.61.22.63.29.03,1-.69,1.3-.82.11-.05.18.06.27.11Z"/>
  <path d="M14.82,8.34c.05.05.36,0,.45-.03.33-.13.88-.94,1.18-1.02.14-.04.27.09.28.22-.15.56-1.73,1.93-2.26,1.66-.15-.07-.42-1.28-.64-1.61-.09-.14-.27-.14-.29-.32,0-.39.99-.89,1.29-1.09.39.03.52.54.16.69-.11.05-.21-.02-.31.01-.17.06-.42.34-.18.48.2-.16.95-.92,1.2-.66.19.2.09.6-.13.74-.1.06-.19-.02-.3.02-.03.01-.49.47-.5.5-.03.08.01.36.04.39Z"/>
  <path d="M4.91,10.07h.17c.03.21-.22.13-.3.17-.13.07-.22.28-.4.33-.3.09-1.05,0-.64-.31.11-.08.29-.05.42-.11.6-.26.56-2.25-.41-2.21-.84.04-1.25,1.54-.59,2.05l.32-.19c.56.68-.43.91-.87.4-1.14-1.33.89-3.63,2.03-2.49.59.6.52,1.61.27,2.35Z"/>
  <path d="M6.18,8.35c-.03.3.31.44.27.76-.03.18-.25.38-.44.24-.29-.23-.64-1.61-.96-1.96.2-.8,1.24-1.72,1.79-.67.33.63.08,1.48-.66,1.63ZM5.91,7.82c.54,0,.62-.71.22-.99-.49.21-.37.58-.22.99Z"/>
</svg>